<?xml version="1.0" encoding="utf-8"?>
<!-- Generator: Adobe Illustrator 24.1.1, SVG Export Plug-In . SVG Version: 6.00 Build 0)  -->
<svg version="1.1" id="Layer_1" xmlns="http://www.w3.org/2000/svg" xmlns:xlink="http://www.w3.org/1999/xlink" x="0px" y="0px"
	 viewBox="0 0 32 17" style="enable-background:new 0 0 32 17;" xml:space="preserve">
<style type="text/css">
	.st0{fill:none;}
	.st1{fill:#444444;}
</style>
<g>
	<g>
		<path class="st0" d="M1.3,3.6v10.3c0,1,0.8,1.8,1.8,1.8h12.4V1.4h-12C1.7,1.4,1.3,2.2,1.3,3.6z"/>
		<path class="st1" d="M3,0.5c-1.4,0-2.4,1.1-2.5,2.4v11.1c0,1.3,1.1,2.4,2.4,2.4h13.5v-16H3z M15.5,15.6H3.2c-1,0-1.8-0.8-1.8-1.8
			V3.7c0-1.3,0.4-2.1,2.2-2.1h11.8V15.6z"/>
	</g>
	<g>
		<path class="st0" d="M30.7,3.6v10.3c0,1-0.8,1.8-1.8,1.8H16.4V1.4h12C30.3,1.4,30.7,2.2,30.7,3.6z"/>
		<path class="st1" d="M15.6,0.5v16h13.5c1.3,0,2.4-1.1,2.4-2.4V2.9c-0.1-1.4-1.2-2.4-2.5-2.4H15.6z M16.5,1.5h11.8
			c1.8,0,2.2,0.8,2.2,2.1v10.1c0,1-0.8,1.8-1.8,1.8H16.5V1.5z"/>
	</g>
	<g>
		<g>
			<polygon class="st1" points="3.4,7.4 7.3,7.4 7.3,3.5 9.5,3.5 9.5,7.4 13.4,7.4 13.4,9.6 9.5,9.6 9.5,13.5 7.3,13.5 7.3,9.6 
				3.4,9.6 			"/>
		</g>
	</g>
	<rect x="18.9" y="7.4" class="st1" width="9.4" height="2.2"/>
</g>
</svg>
