<?xml version="1.0" encoding="utf-8"?>
<!-- Generator: Adobe Illustrator 24.1.1, SVG Export Plug-In . SVG Version: 6.00 Build 0)  -->
<svg version="1.1" id="Layer_1" xmlns="http://www.w3.org/2000/svg" xmlns:xlink="http://www.w3.org/1999/xlink" x="0px" y="0px"
	 viewBox="0 0 32 32" style="enable-background:new 0 0 32 32;" xml:space="preserve">
<style type="text/css">
	.st0{fill:#444444;}
	.st1{fill:none;stroke:#444444;stroke-width:1.5;stroke-miterlimit:10;}
</style>
<rect x="18.7" y="14.9" class="st0" width="9.4" height="2.2"/>
<polygon class="st0" points="3.5,14.9 7.4,14.9 7.4,11 9.6,11 9.6,14.9 13.5,14.9 13.5,17.1 9.6,17.1 9.6,21 7.4,21 7.4,17.1 
	3.5,17.1 "/>
<path class="st1" d="M28.2,30.9H3.8c-1.5,0-2.8-1.2-2.8-2.8V3.8c0-1.5,1.2-2.8,2.8-2.8h24.3c1.5,0,2.8,1.2,2.8,2.8v24.3
	C30.9,29.7,29.7,30.9,28.2,30.9z"/>
</svg>
