<?xml version="1.0" encoding="utf-8"?>
<!-- Generator: Adobe Illustrator 24.1.1, SVG Export Plug-In . SVG Version: 6.00 Build 0)  -->
<svg version="1.1" id="Layer_1" xmlns="http://www.w3.org/2000/svg" xmlns:xlink="http://www.w3.org/1999/xlink" x="0px" y="0px"
	 viewBox="0 0 32 16" style="enable-background:new 0 0 32 16;" xml:space="preserve">
<style type="text/css">
	.st0{fill:#444444;}
</style>
<g>
	<g>
		<g>
			<polygon class="st0" points="3.3,6.9 7.2,6.9 7.2,3 9.4,3 9.4,6.9 13.3,6.9 13.3,9.1 9.4,9.1 9.4,13 7.2,13 7.2,9.1 3.3,9.1 			
				"/>
		</g>
	</g>
	<rect x="19" y="6.9" class="st0" width="9.4" height="2.2"/>
	<path class="st0" d="M29.3,0H16.3h-0.7H2.7C1.4,0,0.3,1,0.2,2.4v11.2c0,1.3,1.1,2.4,2.4,2.4h13h0.7h13c1.3,0,2.4-1.1,2.4-2.4V2.4
		C31.7,1,30.6,0,29.3,0z M15.4,15H3c-1,0-1.8-0.8-1.8-1.8V3.1C1.2,1.8,1.6,1,3.4,1h12V15z M30.8,13.2c0,1-0.8,1.8-1.8,1.8H16.6V1h12
		c1.8,0,2.2,0.8,2.2,2.1V13.2z"/>
</g>
</svg>
