<?xml version="1.0" standalone="no"?>
<!DOCTYPE svg PUBLIC "-//W3C//DTD SVG 20010904//EN"
 "http://www.w3.org/TR/2001/REC-SVG-20010904/DTD/svg10.dtd">
<svg version="1.0" xmlns="http://www.w3.org/2000/svg"
 width="512.000000pt" height="512.000000pt" viewBox="0 0 512.000000 512.000000"
 preserveAspectRatio="xMidYMid meet">

<g transform="translate(0.000000,512.000000) scale(0.100000,-0.100000)"
fill="#2b95f9" stroke="none">
<path d="M2310 4795 c-388 -42 -771 -193 -1087 -428 -137 -102 -366 -330 -469
-470 -432 -577 -557 -1341 -335 -2025 77 -236 190 -455 334 -649 102 -137 330
-366 470 -469 577 -432 1341 -557 2025 -335 237 78 457 191 649 335 140 103
368 332 470 469 431 580 556 1341 334 2025 -78 237 -191 457 -335 649 -103
140 -332 368 -469 470 -454 337 -1021 490 -1587 428z m473 -350 c579 -68 1102
-405 1404 -907 401 -665 354 -1517 -118 -2128 -321 -416 -775 -675 -1286 -735
-1042 -122 -1986 623 -2108 1662 -79 671 194 1314 735 1732 388 299 879 434
1373 376z"/>
<path d="M2900 3561 c-19 -11 -233 -219 -476 -463 -405 -407 -442 -447 -454
-490 -10 -39 -10 -57 0 -95 12 -44 47 -83 449 -486 240 -241 455 -450 479
-464 36 -21 52 -25 98 -21 112 9 183 110 154 219 -10 39 -53 85 -388 421
l-376 378 376 378 c335 336 378 382 388 421 20 74 -7 146 -72 194 -40 30 -132
33 -178 8z"/>
</g>
</svg>
