<?xml version="1.0" encoding="utf-8"?>
<!-- Generator: Adobe Illustrator 24.1.1, SVG Export Plug-In . SVG Version: 6.00 Build 0)  -->
<svg version="1.1" id="Layer_1" xmlns="http://www.w3.org/2000/svg" xmlns:xlink="http://www.w3.org/1999/xlink" x="0px" y="0px"
	 viewBox="0 0 80 80" style="enable-background:new 0 0 80 80;" xml:space="preserve">
<style type="text/css">
	.st0{fill:#B2B2B2;}
	.st1{fill:#E8E6E8;}
	.st2{fill:#D3D1D3;}
	.st3{fill:#A3A3A3;}
	.st4{fill:#CCCCCC;}
	.st5{fill:#DDDDDD;}
	.st6{fill:#020202;}
	.st7{fill:#595959;}
</style>
<g>
	<path class="st0" d="M78.7,40c0,16.8-10.7,31.1-25.6,36.4c-4.1,1.5-8.5,2.3-13.1,2.3c-3.1,0-6.1-0.4-9-1.1
		c-8.9-2.1-16.5-7.3-21.8-14.3c-1.4-1.9-2.7-3.9-3.7-6C2.8,52.1,1.3,46.2,1.3,40c0-20.3,15.6-36.9,35.5-38.6
		c1.1-0.1,2.2-0.1,3.3-0.1c1.3,0,2.5,0.1,3.8,0.2c9.2,0.9,17.4,5,23.6,11.2c5.3,5.3,9,12,10.5,19.6C78.4,34.7,78.7,37.3,78.7,40z"/>
	<g>
		<path class="st1" d="M43.8,1.5l-3.5,6.3l-1.1,1.9l-8.1,14.4l-1,1.7l-0.8,1.4L13,56.3L12.6,57l0,0l-3.5,6.3c-1.4-1.9-2.7-3.9-3.7-6
			l4-7.1l0,0l0.9-1.6l20.9-37.2l1.6-2.8l4-7.1c1.1-0.1,2.2-0.1,3.3-0.1C41.3,1.3,42.5,1.4,43.8,1.5z"/>
		<path class="st2" d="M40,1.9c0.9,0,1.8,0,2.7,0.1l-3,5.4l-1.1,1.9l-8.1,14.4l-1,1.7l-0.8,1.4L12.5,56l-0.4,0.7l0,0l0,0l-3,5.4
			c-1.1-1.5-2-3.1-2.9-4.8l3.8-6.9l0.9-1.6l20.9-37.2l1.6-2.8L37.1,2C38.1,2,39.1,1.9,40,1.9 M40,1.3c-1.1,0-2.2,0-3.3,0.1l-4,7.1
			l-1.6,2.8L10.3,48.6l-0.9,1.6l0,0l-4,7.1c1.1,2.1,2.3,4.1,3.7,6l3.5-6.3l0,0l0.4-0.7l16.3-29.1l0.8-1.4l1-1.7l8.1-14.4l1.1-1.9
			l3.5-6.3C42.5,1.4,41.3,1.3,40,1.3L40,1.3z"/>
	</g>
	<g>
		<path class="st3" d="M77.9,32.2l-5.8,10.3l0,0L58.9,66.1l0,0l-5.8,10.3c-4.1,1.5-8.5,2.3-13.1,2.3c-3.1,0-6.1-0.4-9-1.1l3.3-5.9
			l8.9-15.8l1.1-2l0.5-0.8l19.4-34.6l3.3-5.9C72.6,17.9,76.4,24.7,77.9,32.2z"/>
		<path class="st2" d="M67.5,13.7c4.9,5.1,8.2,11.5,9.7,18.4l-5.6,10.1l-0.1,0.2L58.3,65.8L58.2,66l-5.6,10
			c-4.1,1.4-8.3,2.2-12.7,2.2c-2.7,0-5.4-0.3-8-0.9l2.9-5.1l8.9-15.8l1.1-2l0.5-0.8L64.7,19L67.5,13.7 M67.4,12.7l-3.3,5.9
			L44.7,53.1l-0.5,0.8l-1.1,2l-8.9,15.8L31,77.6c2.9,0.7,5.9,1.1,9,1.1c4.6,0,9-0.8,13.1-2.3l5.8-10.3l0,0l13.2-23.6l0,0l5.8-10.3
			C76.4,24.7,72.6,17.9,67.4,12.7L67.4,12.7z"/>
	</g>
	<g>
		<circle class="st4" cx="40" cy="40" r="32.3"/>
		<path class="st5" d="M40,72.6C22,72.6,7.4,58,7.4,40S22,7.4,40,7.4S72.6,22,72.6,40S58,72.6,40,72.6z M40,8.1
			C22.4,8.1,8.1,22.4,8.1,40S22.4,71.9,40,71.9S71.9,57.6,71.9,40S57.6,8.1,40,8.1z"/>
	</g>
	<path class="st3" d="M9.6,41.8C9.6,24,24,9.6,41.8,9.6c8.4,0,16.1,3.3,21.8,8.6C57.8,11.8,49.4,7.7,40,7.7
		C22.2,7.7,7.7,22.2,7.7,40c0,9.4,4,17.8,10.4,23.7C12.8,57.9,9.6,50.3,9.6,41.8z"/>
</g>
<g>
	<path class="st6" d="M37.2,50.7c0.6,0,1,0.2,1.3,0.5s0.5,0.7,0.5,1.2v3.1H18.4v-1.7c0-0.3,0.1-0.7,0.2-1.1c0.1-0.4,0.4-0.7,0.7-1
		l9.1-9.1c0.8-0.8,1.4-1.5,2-2.2s1.1-1.4,1.5-2.1c0.4-0.7,0.7-1.4,0.9-2.1c0.2-0.7,0.3-1.5,0.3-2.3c0-0.7-0.1-1.4-0.3-1.9
		s-0.5-1-0.9-1.4s-0.8-0.7-1.4-0.8c-0.5-0.2-1.1-0.3-1.8-0.3c-0.6,0-1.2,0.1-1.7,0.3s-1,0.4-1.4,0.7c-0.4,0.3-0.7,0.7-1,1.1
		C24.3,32,24.1,32.5,24,33c-0.2,0.6-0.5,1.1-0.9,1.3s-0.9,0.3-1.6,0.1l-2.7-0.5c0.2-1.4,0.6-2.7,1.2-3.8c0.6-1.1,1.3-2,2.2-2.7
		c0.9-0.7,1.9-1.3,3.1-1.6c1.2-0.4,2.4-0.6,3.7-0.6c1.4,0,2.6,0.2,3.8,0.6c1.1,0.4,2.1,1,2.9,1.7s1.5,1.6,1.9,2.7
		c0.5,1.1,0.7,2.2,0.7,3.5c0,1.1-0.2,2.1-0.5,3.1s-0.8,1.8-1.3,2.7s-1.2,1.7-1.9,2.5s-1.5,1.6-2.3,2.4l-6.8,6.9
		c0.7-0.2,1.3-0.3,1.9-0.4c0.6-0.1,1.3-0.2,1.8-0.2C29.2,50.7,37.2,50.7,37.2,50.7z"/>
	<path class="st6" d="M48.9,36.4c0.7-0.1,1.3-0.2,1.9-0.3S52,36,52.6,36c1.6,0,3,0.2,4.2,0.7s2.2,1.1,3,2c0.8,0.8,1.4,1.8,1.8,2.9
		c0.4,1.1,0.6,2.3,0.6,3.6c0,1.6-0.3,3-0.8,4.4c-0.6,1.3-1.3,2.4-2.3,3.4c-1,0.9-2.2,1.7-3.5,2.2c-1.4,0.5-2.8,0.8-4.5,0.8
		c-0.9,0-1.8-0.1-2.7-0.3c-0.8-0.2-1.6-0.5-2.4-0.8c-0.7-0.3-1.4-0.7-2.1-1.1c-0.6-0.4-1.2-0.9-1.7-1.3l1.6-2.2
		c0.3-0.5,0.8-0.7,1.3-0.7c0.3,0,0.7,0.1,1.1,0.3c0.4,0.2,0.8,0.5,1.2,0.7s1,0.5,1.6,0.7s1.4,0.3,2.3,0.3c0.9,0,1.8-0.2,2.5-0.5
		s1.3-0.7,1.8-1.3s0.8-1.2,1.1-2c0.2-0.8,0.4-1.6,0.4-2.5c0-1.6-0.5-2.9-1.4-3.8s-2.3-1.4-4.2-1.4c-1.4,0-2.9,0.3-4.4,0.8L43.9,40
		l2.5-14.6h14.8v2.2c0,0.7-0.2,1.3-0.7,1.8s-1.2,0.7-2.3,0.7H50L48.9,36.4z"/>
</g>
<g>
	<path class="st7" d="M37.4,51.2c0.6,0,1,0.2,1.3,0.5s0.5,0.7,0.5,1.2V56H18.6v-1.7c0-0.3,0.1-0.7,0.2-1.1c0.1-0.4,0.4-0.7,0.7-1
		l9.1-9.1c0.8-0.8,1.4-1.5,2-2.2s1.1-1.4,1.5-2.1c0.4-0.7,0.7-1.4,0.9-2.1c0.2-0.7,0.3-1.5,0.3-2.3c0-0.7-0.1-1.4-0.3-1.9
		s-0.5-1-0.9-1.4c-0.4-0.4-0.8-0.7-1.4-0.8c-0.5-0.2-1.1-0.3-1.8-0.3c-0.6,0-1.2,0.1-1.7,0.3s-1,0.4-1.4,0.7c-0.4,0.3-0.7,0.7-1,1.1
		c-0.3,0.4-0.5,0.9-0.6,1.4c-0.2,0.6-0.5,1.1-0.9,1.3s-0.9,0.3-1.6,0.1L19,34.4c0.2-1.4,0.6-2.7,1.2-3.8c0.6-1.1,1.3-2,2.2-2.7
		c0.9-0.7,1.9-1.3,3.1-1.6c1.2-0.4,2.4-0.6,3.7-0.6c1.4,0,2.6,0.2,3.8,0.6c1.1,0.4,2.1,1,2.9,1.7s1.5,1.6,1.9,2.7
		c0.5,1.1,0.7,2.2,0.7,3.5c0,1.1-0.2,2.1-0.5,3.1s-0.8,1.8-1.3,2.7s-1.2,1.7-1.9,2.5s-1.5,1.6-2.3,2.4l-6.8,6.9
		c0.7-0.2,1.3-0.3,1.9-0.4c0.6-0.1,1.3-0.2,1.8-0.2C29.4,51.2,37.4,51.2,37.4,51.2z"/>
	<path class="st7" d="M49.1,36.8c0.7-0.1,1.3-0.2,1.9-0.3s1.2-0.1,1.8-0.1c1.6,0,3,0.2,4.2,0.7s2.2,1.1,3,2c0.8,0.8,1.4,1.8,1.8,2.9
		c0.4,1.1,0.6,2.3,0.6,3.6c0,1.6-0.3,3-0.8,4.4c-0.6,1.3-1.3,2.4-2.3,3.4c-1,0.9-2.2,1.7-3.5,2.2c-1.4,0.5-2.8,0.8-4.5,0.8
		c-0.9,0-1.8-0.1-2.7-0.3c-0.8-0.2-1.6-0.5-2.4-0.8c-0.7-0.3-1.4-0.7-2.1-1.1c-0.6-0.4-1.2-0.9-1.7-1.3l1.6-2.2
		c0.3-0.5,0.8-0.7,1.3-0.7c0.3,0,0.7,0.1,1.1,0.3c0.4,0.2,0.8,0.5,1.2,0.7s1,0.5,1.6,0.7s1.4,0.3,2.3,0.3c0.9,0,1.8-0.2,2.5-0.5
		s1.3-0.7,1.8-1.3s0.8-1.2,1.1-2c0.2-0.8,0.4-1.6,0.4-2.5c0-1.6-0.5-2.9-1.4-3.8c-0.9-0.9-2.3-1.4-4.2-1.4c-1.4,0-2.9,0.3-4.4,0.8
		l-3.2-0.9l2.5-14.6h14.8V28c0,0.7-0.2,1.3-0.7,1.8s-1.2,0.7-2.3,0.7h-8.2L49.1,36.8z"/>
</g>
</svg>
