<svg width="152" height="305" viewBox="0 0 152 305" fill="none" xmlns="http://www.w3.org/2000/svg">
<g clip-path="url(#clip0)">
<path d="M105.99 75.3296C106.73 79.0496 107.52 82.6996 108.41 86.3496C109.28 89.9996 110.17 93.6496 111.14 97.2796L112.62 102.72L112.81 103.41C112.9 103.71 113 104.01 113.11 104.32C113.34 104.94 113.64 105.59 114.09 106.25C114.53 106.91 115.14 107.6 115.96 108.15C116.77 108.7 117.78 109.05 118.69 109.14C120.55 109.29 121.89 108.73 122.98 108.19C124.07 107.62 124.95 106.96 125.76 106.27C127.37 104.86 128.64 103.38 129.83 101.68L127.05 99.1796C125.69 100.21 124.19 101.26 122.75 102.03C122.04 102.42 121.32 102.75 120.69 102.92C120.08 103.12 119.54 103.09 119.53 102.99C119.52 102.95 119.63 102.95 119.68 102.96C119.74 102.96 119.73 102.93 119.68 102.79C119.64 102.66 119.56 102.44 119.5 102.18L119.27 101.08L118.1 95.6196L115.75 84.6996C114.99 81.0596 114.17 77.4096 113.38 73.8096L105.99 75.3296Z" fill="#FFC3BD"/>
<path d="M109.341 63.8997C117.871 70.4297 117.531 82.7397 117.531 82.7397L102.271 86.3897C102.271 86.3897 97.5913 74.0197 99.4913 69.4897C101.471 64.7597 104.531 60.2297 109.341 63.8997Z" fill="#263238"/>
<path d="M126.27 99.3698L131.88 93.7598L134.91 102.54C134.91 102.54 130.17 105.1 125.64 102.69L126.27 99.3698Z" fill="#FFC3BD"/>
<path d="M139.64 92.8999L140.67 99.8299L134.9 102.54L131.87 93.7599L139.64 92.8999Z" fill="#FFC3BD"/>
<path d="M59.9002 296.08L68.4802 296.92L77.4102 276.5L68.8302 275.66L59.9002 296.08Z" fill="#FFC3BD"/>
<path d="M4.62047 265.89L11.0705 271.94L24.9805 256.65L18.5405 250.59L4.62047 265.89Z" fill="#FFC3BD"/>
<path d="M14.041 269.03L9.20103 260.3C9.02103 259.98 8.66102 259.85 8.33102 259.97L0.871026 262.81C0.101027 263.1 -0.238976 264.1 0.181024 264.82C1.92102 267.83 2.91102 269.2 5.04102 273.04C6.35102 275.4 8.90102 280.82 10.711 284.08C12.481 287.27 15.841 285.72 15.381 284.21C13.311 277.4 13.701 273.6 14.281 270.6C14.391 270.06 14.301 269.5 14.041 269.03Z" fill="#263238"/>
<path d="M69.6205 294.27H59.0805C58.7005 294.27 58.3504 294.54 58.2504 294.91L55.9604 303.25C55.7204 304.11 56.3604 304.91 57.2504 304.92C60.9604 304.95 62.7204 304.94 67.3604 304.94C70.2104 304.94 77.5905 304.94 81.5205 304.94C85.3705 304.94 86.1805 301.05 84.5805 300.69C77.4405 299.11 73.3204 296.93 71.1104 294.85C70.7104 294.47 70.1805 294.27 69.6205 294.27Z" fill="#263238"/>
<path opacity="0.2" d="M77.4004 276.5L72.8004 287.03H63.8504L68.8204 275.66L77.4004 276.5Z" fill="black"/>
<path opacity="0.2" d="M18.5305 250.6L24.9805 256.65L17.8005 264.53L11.3605 258.48L18.5305 250.6Z" fill="black"/>
<path d="M106.76 62.64C106.76 62.64 110.62 64.34 97.6799 115.54C83.4199 114.31 68.6799 113.03 61.7399 112.43C63.6099 97.85 64.4099 88.83 60.0099 58.21C60.0099 58.21 67.6799 57.22 75.4499 57.52C81.5199 57.75 86.4999 57.99 91.7699 58.93C98.7199 60.17 106.76 62.64 106.76 62.64Z" fill="#263238"/>
<path d="M75.4412 57.2598C75.4412 57.2598 73.4012 57.2998 70.9912 57.2998C69.5412 59.5298 74.2512 69.2998 82.0312 75.6898C83.9012 69.8598 88.2812 66.6298 88.2812 66.6298L75.4412 57.2598Z" fill="white"/>
<path d="M91.7612 58.7998C91.7612 58.7998 92.6712 58.9298 94.8412 59.4298C96.2912 61.6598 98.7412 71.1898 94.4712 76.0498C92.8112 70.0498 88.2812 66.6398 88.2812 66.6398L91.7612 58.7998Z" fill="white"/>
<path d="M78.6514 39.2798C79.2314 44.6198 79.4214 54.3298 75.4414 57.5198C75.4414 57.5198 79.6914 61.8598 88.2814 66.6398C94.5314 62.3198 91.7614 58.9298 91.7614 58.9298C86.0214 57.0198 86.5514 52.6898 87.9214 48.6998L78.6514 39.2798Z" fill="#FFC3BD"/>
<path d="M88.4316 66.66C88.4316 66.66 83.1616 60.92 80.4416 62.02C77.7216 63.12 79.8216 65.09 80.0616 66.93C80.3016 68.78 79.0016 73.7 82.6516 72.42C86.3016 71.15 88.4316 66.66 88.4316 66.66Z" fill="#2DCC89"/>
<path d="M88.6408 66.5499C88.6408 66.5499 91.1308 62.1499 93.8208 62.7299C96.5108 63.3199 94.9108 64.8599 94.6708 66.5199C94.3608 68.6499 96.6108 72.7199 93.3608 71.5699C90.2008 70.4499 88.6408 66.5499 88.6408 66.5499Z" fill="#2DCC89"/>
<g opacity="0.2">
<path opacity="0.2" d="M90.0118 65.5898C89.9818 66.8198 89.8118 67.6698 89.5118 68.1798C88.9418 67.2698 88.6518 66.5498 88.6518 66.5498C88.6518 66.5498 89.1318 65.6898 89.9218 64.7798C89.9918 64.9798 90.0218 65.2398 90.0118 65.5898Z" fill="black"/>
<path opacity="0.2" d="M86.5119 64.8096C87.6419 65.7996 88.4219 66.6596 88.4219 66.6596C88.4219 66.6596 88.0619 67.4096 87.3919 68.3896C86.9419 68.0096 86.5819 67.3196 86.4219 66.1196C86.3319 65.4996 86.3819 65.0896 86.5119 64.8096Z" fill="black"/>
</g>
<path d="M88.4907 68.4698C89.2307 68.4698 89.6907 67.6598 89.7507 65.7198C89.8007 63.7898 88.3207 64.8598 88.3207 64.8598C88.3207 64.8598 86.3407 63.8298 86.6807 66.1798C86.9407 67.9998 87.7307 68.4598 88.4907 68.4698Z" fill="#2DCC89"/>
<path opacity="0.2" d="M82.4299 43.1196L87.9199 48.6896C87.5899 49.6296 87.3199 50.5996 87.1699 51.5396C84.9599 51.0196 81.7599 48.7296 81.7299 46.3596C81.7099 45.1896 82.1999 43.6496 82.4299 43.1196Z" fill="black"/>
<path d="M87.14 21.23C87.14 21.23 93.12 29.54 94.11 33.27C98.19 35.64 99.02 23.94 96.85 16.71C90.15 20.9 87.14 21.23 87.14 21.23Z" fill="#263238"/>
<path d="M73.9498 30.9298C76.1798 39.4598 76.9397 43.1198 82.1697 46.6898C90.0397 52.0698 100.03 47.4698 100.4 38.4398C100.73 30.3198 97.0297 17.7298 87.8997 15.9598C78.9097 14.2098 71.7198 22.3998 73.9498 30.9298Z" fill="#FFC3BD"/>
<path d="M69.3103 27.5298C69.3103 27.5298 73.6003 34.4698 74.1703 37.4898C77.2803 39.6098 78.5903 30.3498 77.2803 24.4798C75.8603 19.3098 69.3103 27.5298 69.3103 27.5298Z" fill="#263238"/>
<path d="M71.021 22.6898C72.261 23.6298 73.571 20.1598 72.331 17.4998C74.701 17.6498 77.551 16.2398 76.951 13.9498C81.621 15.5098 83.351 10.7598 82.811 7.47978C82.161 3.50978 78.681 2.62978 76.631 3.67978C76.591 1.88978 72.111 -1.84022 70.391 1.07978C67.201 -0.05022 62.061 0.299779 62.161 4.21978C60.051 4.28978 53.831 6.66978 56.121 12.2698C53.371 12.4298 51.891 15.9298 53.411 18.5598C49.891 20.6198 51.191 24.2098 52.531 25.4598C51.261 28.0998 55.121 32.0198 57.161 31.5498C58.721 33.9498 61.111 35.7398 62.681 33.6998C65.721 35.9098 69.121 33.1098 68.351 30.9398C71.811 30.3898 75.281 24.7098 71.021 22.6898Z" fill="#263238"/>
<path d="M65.9414 14.3C63.7014 18.04 63.8914 22.27 66.3614 23.75C68.8314 25.23 72.6514 23.4 74.8914 19.66C77.1314 15.92 76.9414 11.69 74.4714 10.21C72.0014 8.72996 68.1814 10.56 65.9414 14.3Z" fill="#2DCC89"/>
<path d="M86.7408 20.1899C86.8808 21.2599 89.8308 20.9899 90.6808 19.0999C91.9008 20.3799 94.7708 21.0399 95.7508 19.6499C97.4108 22.7699 100.731 21.9499 101.601 20.4499C102.471 18.9499 103.031 16.1899 101.311 15.6499C102.311 14.7799 102.011 10.7399 99.3908 11.2399C98.2908 9.07993 95.2708 6.62993 93.0808 8.53993C91.8908 7.49993 87.1008 5.45993 85.1408 9.27993C83.5408 7.95993 80.7208 8.85994 80.0408 10.8799C76.9208 10.0699 75.5808 12.4299 75.5908 13.6999C73.3808 14.2999 73.2308 18.1199 74.6208 18.9399C74.1008 20.8699 74.3708 22.9399 76.4108 22.7699C76.8008 25.3599 80.2808 25.7699 81.1008 24.3499C83.3008 25.8299 87.9108 23.3099 86.7408 20.1899Z" fill="#263238"/>
<path d="M92 12.8397C89.47 9.33971 80.24 7.87971 72.25 13.1297C65.05 17.8597 65.52 28.8397 71.24 28.2597C76.96 27.6797 82.63 20.9597 82.63 20.9597L92 12.8397Z" fill="#263238"/>
<path d="M73.2498 38.6297C74.0898 40.2497 75.5998 41.3397 77.0398 41.7697C79.1998 42.4197 80.3298 40.4997 79.7698 38.4297C79.2598 36.5697 77.5298 33.9897 75.3398 34.2497C73.1698 34.4997 72.2898 36.7797 73.2498 38.6297Z" fill="#FFC3BD"/>
<path d="M97.6812 115.54C97.6812 115.54 109.841 169.34 101.721 207.26C96.2812 232.66 76.6712 283.98 76.6712 283.98L61.3413 283.59C61.3413 283.59 76.1812 229.74 79.2512 208.56C84.5012 172.33 71.3512 113.27 71.3512 113.27L97.6812 115.54Z" fill="#2DCC89"/>
<path opacity="0.2" d="M83.6606 126.4L75.9906 138.49C77.9406 151.03 79.8806 166.71 80.3806 181.8C91.1606 162.5 86.0506 136.62 83.6606 126.4Z" fill="black"/>
<path d="M78.8403 284.77L59.9003 284.29L60.9903 278.47L80.3203 279.38L78.8403 284.77Z" fill="#263238"/>
<path d="M89.8203 114.96C89.8203 114.96 82.6903 172.01 67.2203 203.16C54.7303 228.32 21.4003 264.13 21.4003 264.13L12.8803 255.35C12.8803 255.35 35.3903 216.43 44.6803 199.72C67.4403 158.74 48.8403 127.47 61.7403 112.43L89.8203 114.96Z" fill="#2DCC89"/>
<path d="M22.2601 265.31L11.2601 254.59L14.9101 249.63L26.5801 261.27L22.2601 265.31Z" fill="#263238"/>
<path d="M61.3808 110.27L59.4808 113.35C59.3308 113.59 59.6108 113.87 60.0208 113.9L97.7208 117.16C98.0408 117.19 98.3308 117.05 98.3608 116.85L98.9608 113.66C99.0008 113.44 98.7408 113.23 98.3808 113.2L61.9808 110.05C61.7208 110.03 61.4808 110.12 61.3808 110.27Z" fill="#2DCC89"/>
<path opacity="0.5" d="M61.3808 110.27L59.4808 113.35C59.3308 113.59 59.6108 113.87 60.0208 113.9L97.7208 117.16C98.0408 117.19 98.3308 117.05 98.3608 116.85L98.9608 113.66C99.0008 113.44 98.7408 113.23 98.3808 113.2L61.9808 110.05C61.7208 110.03 61.4808 110.12 61.3808 110.27Z" fill="white"/>
<path d="M65.9207 114.76L64.9507 114.68C64.7607 114.66 64.6207 114.55 64.6407 114.43L65.4607 110.29C65.4807 110.17 65.6607 110.08 65.8607 110.1L66.8307 110.18C67.0207 110.2 67.1607 110.31 67.1407 110.43L66.3207 114.57C66.2907 114.7 66.1107 114.78 65.9207 114.76Z" fill="#2DCC89"/>
<path d="M94.95 117.27L93.98 117.19C93.79 117.17 93.65 117.06 93.67 116.94L94.49 112.8C94.51 112.68 94.69 112.59 94.89 112.61L95.86 112.69C96.05 112.71 96.19 112.82 96.17 112.94L95.35 117.08C95.32 117.21 95.14 117.29 94.95 117.27Z" fill="#2DCC89"/>
<path d="M80.4304 116.02L79.4604 115.94C79.2704 115.92 79.1304 115.81 79.1504 115.69L79.9704 111.55C79.9904 111.43 80.1704 111.34 80.3704 111.36L81.3404 111.44C81.5304 111.46 81.6704 111.57 81.6504 111.69L80.8304 115.83C80.8104 115.95 80.6304 116.04 80.4304 116.02Z" fill="#2DCC89"/>
<path d="M88.39 30.6399C88.53 31.3399 89.01 31.8399 89.47 31.7499C89.93 31.6599 90.19 31.0199 90.05 30.3099C89.91 29.6099 89.43 29.1099 88.97 29.1999C88.51 29.2899 88.25 29.9399 88.39 30.6399Z" fill="#263238"/>
<path d="M96.341 29.0753C96.2025 28.3708 96.4636 27.7264 96.9242 27.6358C97.3848 27.5452 97.8705 28.0429 98.009 28.7474C98.1475 29.4519 97.8864 30.0964 97.4257 30.1869C96.9651 30.2775 96.4795 29.7798 96.341 29.0753Z" fill="#263238"/>
<path d="M96.7303 27.7199L98.3203 26.8999C98.3203 26.8999 97.7103 28.3899 96.7303 27.7199Z" fill="#263238"/>
<path d="M93.61 30.8296C93.61 30.8296 95.4 33.6196 97 34.8196C96.24 35.8696 94.59 35.7796 94.59 35.7796L93.61 30.8296Z" fill="#ED847E"/>
<path d="M83.6211 27.9096C83.5611 27.9096 83.5011 27.8896 83.4411 27.8596C83.2711 27.7596 83.2211 27.5496 83.3211 27.3796C84.5011 25.4196 86.4111 25.3296 86.4911 25.3296C86.6911 25.3396 86.8411 25.4696 86.8511 25.6696C86.8611 25.8596 86.7111 26.0196 86.5111 26.0296C86.4411 26.0296 84.9011 26.1196 83.9111 27.7396C83.8511 27.8496 83.7411 27.9096 83.6211 27.9096Z" fill="#263238"/>
<path d="M98.5516 25.1C98.4916 25.1 98.4316 25.09 98.3816 25.06C96.7116 24.13 95.2916 24.85 95.2816 24.86C95.1116 24.95 94.9016 24.88 94.8116 24.71C94.7216 24.54 94.7916 24.33 94.9616 24.24C95.0316 24.2 96.7316 23.33 98.7316 24.45C98.9016 24.54 98.9616 24.76 98.8616 24.93C98.7916 25.03 98.6716 25.1 98.5516 25.1Z" fill="#263238"/>
<path d="M58.4798 66.3799C57.7998 67.0399 57.3298 67.5499 56.7998 68.1499C56.2898 68.7299 55.7998 69.3199 55.3198 69.9099C54.3598 71.0999 53.4598 72.3199 52.6098 73.5699C50.9298 76.0899 49.4198 78.7299 48.1398 81.4799C46.8398 84.2199 45.8298 87.1099 45.0198 90.0499C44.6398 91.5299 44.2898 93.0099 44.0298 94.5199C43.6798 96.0999 43.5498 98.6699 44.7098 100.84C45.2698 101.93 46.0898 102.83 46.9498 103.5C47.8098 104.17 48.6998 104.64 49.5598 105C51.2898 105.7 52.9398 106 54.5298 106.18C57.7098 106.51 60.7098 106.39 63.6598 106.06C69.5498 105.39 75.1698 104.15 80.7598 102.43L79.8498 98.7999C77.1298 99.2499 74.3298 99.6699 71.5598 99.9599C68.7898 100.28 66.0198 100.51 63.2898 100.57C60.5698 100.61 57.8498 100.57 55.3898 100.14C54.1698 99.9199 53.0098 99.5999 52.1298 99.1699C51.2298 98.7299 50.7698 98.2199 50.6598 97.8599C50.5898 97.6699 50.5398 97.4599 50.5398 97.1399C50.5398 96.9799 50.5598 96.7999 50.5798 96.5999C50.6198 96.3899 50.6398 96.2099 50.7398 95.8499C51.0198 94.5599 51.3898 93.2899 51.7798 92.0399C52.5898 89.5199 53.6398 87.0899 54.8198 84.7199C55.9998 82.3399 57.3798 80.0599 58.8998 77.8799C59.6498 76.7799 60.4398 75.7099 61.2598 74.6799C61.6698 74.1599 62.0898 73.6599 62.5198 73.1699C62.9198 72.6899 63.4098 72.1499 63.7398 71.8099L58.4798 66.3799Z" fill="#FFC3BD"/>
<path d="M77.5706 99.3496L84.5806 95.6396L84.8906 104.92C84.8906 104.92 79.9406 105.23 77.0306 102.95L77.5706 99.3496Z" fill="#FFC3BD"/>
<path d="M89.8499 149.22L84.0699 86.41L96.4199 76.95L134.12 73.48L140.67 144.54L89.8499 149.22Z" fill="#2DCC89"/>
<path opacity="0.8" d="M89.8499 149.22L84.0699 86.41L96.4199 76.95L134.12 73.48L140.67 144.54L89.8499 149.22Z" fill="white"/>
<path d="M84.0699 86.4102L96.4199 76.9502L93.1799 88.2702L84.0699 86.4102Z" fill="#2DCC89"/>
<path d="M136.25 155.52C127.745 155.52 120.85 148.625 120.85 140.12C120.85 131.615 127.745 124.72 136.25 124.72C144.756 124.72 151.65 131.615 151.65 140.12C151.65 148.625 144.756 155.52 136.25 155.52Z" fill="#2DCC89"/>
<path d="M128.639 149.758C123.317 145.553 122.411 137.831 126.615 132.509C130.82 127.187 138.542 126.281 143.864 130.485C149.186 134.689 150.092 142.412 145.888 147.734C141.683 153.056 133.961 153.962 128.639 149.758Z" fill="white"/>
<path d="M128.66 139.05L134.08 138.41L133.45 132.99L137.33 132.54L137.97 137.95L143.38 137.32L143.84 141.2L138.42 141.84L139.06 147.26L135.17 147.71L134.54 142.29L129.12 142.93L128.66 139.05Z" fill="#2DCC89"/>
<path opacity="0.25" d="M91.0925 117.372C91.3455 116.039 92.0011 115.288 92.6077 115.431C93.2143 115.575 93.7611 116.49 94.1175 117.685C94.346 118.456 94.5092 119.351 94.8003 119.991C95.4232 121.363 96.4624 121.082 97.137 119.861C97.8117 118.639 98.1979 116.718 98.5053 114.824C98.9297 112.211 99.5282 108.977 100.698 108.938C101.533 108.905 102.183 110.636 102.621 112.335C103.059 114.033 103.464 115.974 104.213 116.856C105.298 118.143 106.645 116.562 107.382 114.262C108.119 111.962 108.451 109.075 108.979 106.455C109.188 105.423 109.46 104.358 109.901 103.927C110.38 103.457 110.937 103.862 111.37 104.554C111.802 105.24 112.148 106.188 112.556 106.958C114.305 110.257 117.156 109.382 118.505 105.136C118.706 104.502 118.886 103.797 119.172 103.391C119.678 102.679 120.328 103.182 120.826 103.927C121.786 105.358 122.501 107.572 123.442 109.068C124.384 110.564 125.76 111.152 126.571 109.264C127.281 107.612 127.439 104.378 128.41 103.934C129.68 103.352 130.382 108.428 131.674 108.271C132.281 108.2 132.743 106.952 133.04 105.678C133.336 104.404 133.551 102.973 134 102V129H91L91.0925 117.372Z" fill="url(#paint0_linear)"/>
<path d="M91 118.262C91.2476 116.852 91.8894 116.058 92.4832 116.21C93.077 116.362 93.6122 117.329 93.961 118.594C94.1847 119.41 94.3444 120.356 94.6294 121.034C95.2391 122.485 96.2563 122.188 96.9167 120.896C97.5771 119.603 97.9552 117.571 98.2561 115.567C98.6715 112.802 99.2573 109.381 100.402 109.34C101.22 109.305 101.856 111.137 102.285 112.934C102.714 114.731 103.11 116.783 103.843 117.716C104.905 119.078 106.223 117.405 106.945 114.973C107.666 112.54 107.991 109.485 108.508 106.714C108.713 105.622 108.979 104.495 109.41 104.039C109.879 103.541 110.425 103.97 110.848 104.702C111.272 105.428 111.61 106.43 112.009 107.246C113.721 110.736 116.512 109.81 117.833 105.317C118.03 104.647 118.206 103.901 118.485 103.472C118.98 102.719 119.617 103.251 120.104 104.039C121.044 105.552 121.744 107.895 122.666 109.478C123.587 111.061 124.934 111.683 125.728 109.685C126.423 107.937 126.577 104.516 127.528 104.046C128.772 103.431 129.459 108.801 130.723 108.635C131.317 108.559 131.77 107.239 132.06 105.891C132.35 104.543 132.561 103.03 133 102" stroke="#2DCC89" stroke-miterlimit="10"/>
<path d="M88.8613 96.1897L87.8013 103.13L84.9013 104.92L84.5813 95.6396L88.8613 96.1897Z" fill="#FFC3BD"/>
<path d="M60.0101 58.1997C55.6001 58.9797 49.4301 71.6197 49.4301 71.6197L60.5301 81.6697C60.5301 81.6697 69.3601 72.0297 68.8901 66.2897C68.5001 61.4197 65.6201 57.2097 60.0101 58.1997Z" fill="#263238"/>
<path d="M15.7409 273.73C15.6309 273.73 15.5109 273.71 15.4009 273.67C14.3509 273.31 13.6509 271.36 13.3409 270.23C13.3209 270.16 13.3409 270.09 13.4009 270.05C13.4509 270.01 13.5309 270 13.5909 270.03C13.9109 270.2 16.7309 271.7 16.8209 272.82C16.8309 272.99 16.7909 273.24 16.5209 273.44C16.2609 273.63 16.0009 273.73 15.7409 273.73ZM13.7909 270.54C14.2809 272.1 14.9109 273.13 15.5109 273.34C15.7709 273.43 16.0309 273.37 16.3009 273.16C16.4609 273.04 16.4709 272.92 16.4609 272.85C16.4109 272.16 14.7609 271.09 13.7909 270.54Z" fill="#2DCC89"/>
<path d="M16.1816 270.98C15.1816 270.98 13.9516 270.66 13.4216 270.33C13.3716 270.3 13.3416 270.24 13.3416 270.18C13.3416 270.12 13.3816 270.06 13.4316 270.03C13.5216 269.98 15.7516 268.75 16.9516 269.18C17.2616 269.29 17.4816 269.5 17.6116 269.8C17.8016 270.27 17.5916 270.54 17.4516 270.66C17.1716 270.89 16.7116 270.98 16.1816 270.98ZM13.8916 270.18C14.8416 270.59 16.6916 270.84 17.2216 270.4C17.3116 270.33 17.3916 270.21 17.2816 269.93C17.2016 269.72 17.0516 269.58 16.8316 269.51C16.0116 269.22 14.5216 269.87 13.8916 270.18Z" fill="#2DCC89"/>
<path d="M74.2998 295.97C73.2898 295.97 72.1898 295.77 71.4198 295.6C71.3498 295.58 71.2898 295.52 71.2798 295.45C71.2698 295.38 71.3098 295.3 71.3798 295.27C71.8098 295.07 75.6398 293.3 76.5998 293.95C76.7198 294.03 76.8698 294.19 76.8498 294.49C76.8298 294.9 76.6498 295.23 76.3298 295.48C75.8498 295.85 75.0998 295.97 74.2998 295.97ZM72.0198 295.37C73.1598 295.58 75.2498 295.86 76.1198 295.21C76.3598 295.03 76.4798 294.79 76.4998 294.48C76.5098 294.34 76.4498 294.28 76.3998 294.25C75.8698 293.88 73.6098 294.67 72.0198 295.37Z" fill="#2DCC89"/>
<path d="M71.4598 295.61C71.4198 295.61 71.3798 295.6 71.3498 295.57C71.2998 295.53 71.2798 295.46 71.2898 295.4C71.3298 295.24 72.1898 291.47 74.2698 291.71C74.7898 291.77 74.9298 292.03 74.9598 292.24C75.0898 293.2 72.6798 295.14 71.5298 295.61C71.4998 295.61 71.4798 295.61 71.4598 295.61ZM74.0798 292.05C72.7498 292.05 71.9798 294.24 71.7298 295.12C72.9798 294.47 74.6998 292.9 74.6198 292.28C74.6098 292.23 74.5998 292.1 74.2398 292.05C74.1698 292.05 74.1198 292.05 74.0798 292.05Z" fill="#2DCC89"/>
<path d="M88.7811 29.28L90.3711 28.46C90.3711 28.46 89.7611 29.95 88.7811 29.28Z" fill="#263238"/>
</g>
<defs>
<linearGradient id="paint0_linear" x1="112.5" y1="102" x2="112.5" y2="129" gradientUnits="userSpaceOnUse">
<stop stop-color="#49DA9D"/>
<stop offset="1" stop-color="#49DA9D" stop-opacity="0"/>
</linearGradient>
<clipPath id="clip0">
<rect width="151.65" height="304.94" fill="white" transform="matrix(-1 0 0 1 151.65 0)"/>
</clipPath>
</defs>
</svg>
