<?xml version="1.0" encoding="utf-8"?>
<!-- Generator: Adobe Illustrator 16.0.0, SVG Export Plug-In . SVG Version: 6.00 Build 0)  -->
<!DOCTYPE svg PUBLIC "-//W3C//DTD SVG 1.1//EN" "http://www.w3.org/Graphics/SVG/1.1/DTD/svg11.dtd">
<svg version="1.1" id="Layer_1" xmlns="http://www.w3.org/2000/svg" xmlns:xlink="http://www.w3.org/1999/xlink" x="0px" y="0px"
	 width="298.299px" height="298.297px" viewBox="0 0 298.299 298.297" enable-background="new 0 0 298.299 298.297"
	 xml:space="preserve">
<g>
	<g>
		<defs>
			<rect id="SVGID_1_" width="298.299" height="298.297"/>
		</defs>
		<clipPath id="SVGID_2_">
			<use xlink:href="#SVGID_1_"  overflow="visible"/>
		</clipPath>
		<path clip-path="url(#SVGID_2_)" fill="#23A609" d="M298.299,149.149c0,82.373-66.778,149.147-149.15,149.147
			C66.776,298.296,0,231.521,0,149.149C0,66.776,66.776,0.001,149.148,0.001C231.521,0.001,298.299,66.776,298.299,149.149"/>
	</g>
	<g>
		<defs>
			<rect id="SVGID_3_" width="298.299" height="298.297"/>
		</defs>
		<clipPath id="SVGID_4_">
			<use xlink:href="#SVGID_3_"  overflow="visible"/>
		</clipPath>
		<path clip-path="url(#SVGID_4_)" fill="#FFCE00" d="M149.148,53.008c-2.232,0-4.039,1.806-4.039,4.038v20.735
			c0,2.233,1.807,4.039,4.039,4.039c2.234,0,4.041-1.806,4.041-4.039V57.046C153.188,54.814,151.383,53.008,149.148,53.008"/>
	</g>
	<g>
		<defs>
			<rect id="SVGID_5_" width="298.299" height="298.297"/>
		</defs>
		<clipPath id="SVGID_6_">
			<use xlink:href="#SVGID_5_"  overflow="visible"/>
		</clipPath>
		<path clip-path="url(#SVGID_6_)" fill="#FFCE00" d="M106.676,67.343c-1.121-1.937-3.604-2.604-5.521-1.479
			c-1.932,1.116-2.595,3.585-1.478,5.519l10.368,17.957c0.749,1.298,2.106,2.019,3.502,2.019c0.687,0,1.38-0.173,2.016-0.54
			c1.932-1.118,2.596-3.585,1.479-5.519L106.676,67.343z"/>
	</g>
	<g>
		<defs>
			<rect id="SVGID_7_" width="298.299" height="298.297"/>
		</defs>
		<clipPath id="SVGID_8_">
			<use xlink:href="#SVGID_7_"  overflow="visible"/>
		</clipPath>
		<path clip-path="url(#SVGID_8_)" fill="#FFCE00" d="M89.498,109.885L71.543,99.518c-1.93-1.115-4.404-0.453-5.521,1.48
			c-1.115,1.932-0.454,4.402,1.48,5.519l17.957,10.366c0.635,0.367,1.33,0.541,2.017,0.541c1.396,0,2.752-0.726,3.502-2.019
			C92.096,113.471,91.432,111.002,89.498,109.885"/>
	</g>
	<g>
		<defs>
			<rect id="SVGID_9_" width="298.299" height="298.297"/>
		</defs>
		<clipPath id="SVGID_10_">
			<use xlink:href="#SVGID_9_"  overflow="visible"/>
		</clipPath>
		<path clip-path="url(#SVGID_10_)" fill="#FFCE00" d="M230.796,191.466L212.839,181.1c-1.936-1.117-4.404-0.455-5.52,1.478
			c-1.116,1.935-0.453,4.403,1.479,5.521l17.957,10.365c0.639,0.368,1.33,0.54,2.018,0.54c1.396,0,2.756-0.726,3.504-2.017
			C233.394,195.051,232.729,192.58,230.796,191.466"/>
	</g>
	<g>
		<defs>
			<rect id="SVGID_11_" width="298.299" height="298.297"/>
		</defs>
		<clipPath id="SVGID_12_">
			<use xlink:href="#SVGID_11_"  overflow="visible"/>
		</clipPath>
		<path clip-path="url(#SVGID_12_)" fill="#FFCE00" d="M81.98,148.991c0-2.234-1.806-4.04-4.041-4.04H57.206
			c-2.232,0-4.04,1.806-4.04,4.04c0,2.231,1.808,4.038,4.04,4.038h20.733C80.174,153.027,81.98,151.223,81.98,148.991"/>
	</g>
	<g>
		<defs>
			<rect id="SVGID_13_" width="298.299" height="298.297"/>
		</defs>
		<clipPath id="SVGID_14_">
			<use xlink:href="#SVGID_13_"  overflow="visible"/>
		</clipPath>
		<path clip-path="url(#SVGID_14_)" fill="#FFCE00" d="M241.093,144.951h-20.734c-2.232,0-4.039,1.806-4.039,4.04
			c0,2.231,1.807,4.038,4.039,4.038h20.734c2.231,0,4.038-1.807,4.038-4.038C245.131,146.757,243.324,144.951,241.093,144.951"/>
	</g>
	<g>
		<defs>
			<rect id="SVGID_15_" width="298.299" height="298.297"/>
		</defs>
		<clipPath id="SVGID_16_">
			<use xlink:href="#SVGID_15_"  overflow="visible"/>
		</clipPath>
		<path clip-path="url(#SVGID_16_)" fill="#FFCE00" d="M85.459,181.1l-17.957,10.365c-1.934,1.115-2.596,3.585-1.48,5.521
			c0.749,1.297,2.108,2.017,3.504,2.017c0.685,0,1.38-0.172,2.016-0.54l17.956-10.365c1.934-1.115,2.597-3.586,1.48-5.52
			C89.861,180.637,87.376,179.98,85.459,181.1"/>
	</g>
	<g>
		<defs>
			<rect id="SVGID_17_" width="298.299" height="298.297"/>
		</defs>
		<clipPath id="SVGID_18_">
			<use xlink:href="#SVGID_17_"  overflow="visible"/>
		</clipPath>
		<path clip-path="url(#SVGID_18_)" fill="#FFCE00" d="M210.823,117.423c0.687,0,1.382-0.174,2.016-0.541l17.957-10.366
			c1.934-1.117,2.598-3.587,1.479-5.519c-1.119-1.942-3.599-2.595-5.52-1.48l-17.957,10.368c-1.933,1.117-2.596,3.586-1.479,5.518
			C208.069,116.702,209.427,117.423,210.823,117.423"/>
	</g>
	<g>
		<defs>
			<rect id="SVGID_19_" width="298.299" height="298.297"/>
		</defs>
		<clipPath id="SVGID_20_">
			<use xlink:href="#SVGID_19_"  overflow="visible"/>
		</clipPath>
		<path clip-path="url(#SVGID_20_)" fill="#FFCE00" d="M197.142,65.865c-1.932-1.126-4.406-0.458-5.52,1.479l-10.364,17.957
			c-1.116,1.933-0.454,4.401,1.478,5.518c0.637,0.367,1.33,0.54,2.018,0.54c1.396,0,2.753-0.724,3.503-2.018l10.366-17.957
			C199.737,69.45,199.075,66.98,197.142,65.865"/>
	</g>
	<g>
		<defs>
			<rect id="SVGID_21_" width="298.299" height="298.297"/>
		</defs>
		<clipPath id="SVGID_22_">
			<use xlink:href="#SVGID_21_"  overflow="visible"/>
		</clipPath>
		<path clip-path="url(#SVGID_22_)" fill="#FFCE00" d="M142.687,92.743c-25.935,2.877-46.874,23.87-49.701,49.812
			c-2.526,23.161,8.984,43.825,27.059,54.71c2.755,1.662,4.477,4.616,4.477,7.834v0.039c0,0.269,0.206,0.459,0.462,0.459h48.333
			c0.254,0,0.463-0.207,0.463-0.461v-0.052c0-3.216,1.718-6.157,4.473-7.817c16.409-9.879,27.409-27.819,27.409-48.374
			C205.661,115.555,176.79,88.959,142.687,92.743"/>
	</g>
	<g>
		<defs>
			<rect id="SVGID_23_" width="298.299" height="298.297"/>
		</defs>
		<clipPath id="SVGID_24_">
			<use xlink:href="#SVGID_23_"  overflow="visible"/>
		</clipPath>
		<path clip-path="url(#SVGID_24_)" fill="#FFFFFF" d="M187.188,127.361c-0.67,0-1.332-0.34-1.715-0.951
			c-5.438-8.734-13.824-15.219-23.605-18.264c-1.064-0.332-1.661-1.464-1.329-2.53c0.327-1.061,1.464-1.672,2.526-1.329
			c10.711,3.334,19.887,10.43,25.84,19.985c0.589,0.947,0.301,2.193-0.646,2.784C187.923,127.262,187.558,127.361,187.188,127.361"
			/>
	</g>
	<g>
		<defs>
			<rect id="SVGID_25_" width="298.299" height="298.297"/>
		</defs>
		<clipPath id="SVGID_26_">
			<use xlink:href="#SVGID_25_"  overflow="visible"/>
		</clipPath>
		<path clip-path="url(#SVGID_26_)" fill="#FFFFFF" d="M156.631,245.291h-15.517c-4.15,0-7.514-3.364-7.514-7.516v-0.553
			c0-0.308,0.248-0.555,0.554-0.555h29.992c0.307,0,0.555,0.247,0.555,0.555C164.699,241.68,161.087,245.291,156.631,245.291"/>
	</g>
	<g>
		<defs>
			<rect id="SVGID_27_" width="298.299" height="298.297"/>
		</defs>
		<clipPath id="SVGID_28_">
			<use xlink:href="#SVGID_27_"  overflow="visible"/>
		</clipPath>
		<path clip-path="url(#SVGID_28_)" fill="#FFFFFF" d="M124.521,209.497v15.789c0,5.011,4.062,9.073,9.072,9.073h31.112
			c5.011,0,9.073-4.063,9.073-9.073v-15.789c0-0.263-0.211-0.472-0.473-0.472h-48.313
			C124.731,209.025,124.521,209.234,124.521,209.497"/>
	</g>
</g>
<g>
	<g>
		<defs>
			<rect id="SVGID_29_" x="124.52" y="213.975" width="49.258" height="4.037"/>
		</defs>
		<clipPath id="SVGID_30_">
			<use xlink:href="#SVGID_29_"  overflow="visible"/>
		</clipPath>
		
			<linearGradient id="SVGID_31_" gradientUnits="userSpaceOnUse" x1="-6.6187" y1="47.9131" x2="-5.6192" y2="47.9131" gradientTransform="matrix(51.5349 9.7095 -9.7095 51.5349 931.423 -2193.4824)">
			<stop  offset="0" style="stop-color:#F1F2F2"/>
			<stop  offset="1" style="stop-color:#D1D3D4"/>
		</linearGradient>
		<polygon clip-path="url(#SVGID_30_)" fill="url(#SVGID_31_)" points="126.208,205.012 174.513,214.111 172.09,226.975 
			123.785,217.873 		"/>
	</g>
</g>
<g>
	<g>
		<defs>
			<rect id="SVGID_32_" x="124.52" y="221.693" width="49.258" height="4.037"/>
		</defs>
		<clipPath id="SVGID_33_">
			<use xlink:href="#SVGID_32_"  overflow="visible"/>
		</clipPath>
		
			<linearGradient id="SVGID_34_" gradientUnits="userSpaceOnUse" x1="-6.6191" y1="47.9131" x2="-5.6191" y2="47.9131" gradientTransform="matrix(51.5349 9.7095 -9.7095 51.5349 931.423 -2185.7637)">
			<stop  offset="0" style="stop-color:#F1F2F2"/>
			<stop  offset="1" style="stop-color:#D1D3D4"/>
		</linearGradient>
		<polygon clip-path="url(#SVGID_33_)" fill="url(#SVGID_34_)" points="126.208,212.73 174.513,221.832 172.09,234.693 
			123.786,225.593 		"/>
	</g>
</g>
<g>
	<g>
		<defs>
			<rect id="SVGID_35_" width="298.299" height="298.297"/>
		</defs>
		<clipPath id="SVGID_36_">
			<use xlink:href="#SVGID_35_"  overflow="visible"/>
		</clipPath>
		<path clip-path="url(#SVGID_36_)" fill="#FFFFFF" d="M164.72,143.55c-5.342,0-9.685,4.343-9.685,9.685v5.646h-11.771v-5.646
			c0-5.341-4.344-9.685-9.685-9.685c-5.342,0-9.685,4.343-9.685,9.685c0,5.341,4.343,9.687,9.685,9.687h5.645V205.6h4.04v-42.679
			h11.811V205.6h4.041v-42.679h5.604c5.34,0,9.687-4.346,9.687-9.687C174.406,147.893,170.06,143.55,164.72,143.55 M139.224,158.88
			h-5.645c-3.112,0-5.645-2.532-5.645-5.646c0-3.112,2.533-5.645,5.645-5.645c3.113,0,5.645,2.532,5.645,5.645V158.88z
			 M164.72,158.88h-5.646v-5.646c0-3.112,2.532-5.645,5.646-5.645s5.646,2.532,5.646,5.645
			C170.364,156.348,167.832,158.88,164.72,158.88"/>
	</g>
</g>
</svg>
