<?xml version="1.0" encoding="utf-8"?>
<!-- Generator: Adobe Illustrator 16.0.0, SVG Export Plug-In . SVG Version: 6.00 Build 0)  -->
<!DOCTYPE svg PUBLIC "-//W3C//DTD SVG 1.1//EN" "http://www.w3.org/Graphics/SVG/1.1/DTD/svg11.dtd">
<svg version="1.1" id="Layer_1" xmlns="http://www.w3.org/2000/svg" xmlns:xlink="http://www.w3.org/1999/xlink" x="0px" y="0px"
	 width="298px" height="298px" viewBox="0 0 298 298" enable-background="new 0 0 298 298" xml:space="preserve">
<g>
	<g>
		<g>
			<defs>
				<rect id="SVGID_1_" x="1.891" y="1.891" width="296.219" height="296.219"/>
			</defs>
			<clipPath id="SVGID_2_">
				<use xlink:href="#SVGID_1_"  overflow="visible"/>
			</clipPath>
			<path clip-path="url(#SVGID_2_)" fill="#227D3E" d="M298.109,149.95c0,81.825-66.334,148.06-148.06,148.06
				c-81.826,0.1-148.159-66.234-148.159-148.06c0-81.726,66.333-148.06,148.06-148.06C231.775,1.891,298.109,68.224,298.109,149.95"
				/>
		</g>
	</g>
	<g>
		<g>
			<defs>
				<rect id="SVGID_3_" x="-28" y="-28" width="356" height="355.999"/>
			</defs>
			<clipPath id="SVGID_4_">
				<use xlink:href="#SVGID_3_"  overflow="visible"/>
			</clipPath>
			<path clip-path="url(#SVGID_4_)" fill="#FDEB03" d="M149.95,35.256c-2.681,0-4.866,2.184-4.866,4.866v24.726
				c0,2.681,2.185,4.866,4.866,4.866c2.682,0,4.866-2.185,4.866-4.866V40.122C154.816,37.44,152.632,35.256,149.95,35.256"/>
		</g>
	</g>
	<g>
		<g>
			<defs>
				<rect id="SVGID_5_" x="-28" y="-28" width="356" height="355.999"/>
			</defs>
			<clipPath id="SVGID_6_">
				<use xlink:href="#SVGID_5_"  overflow="visible"/>
			</clipPath>
			<path clip-path="url(#SVGID_6_)" fill="#FDEB03" d="M99.306,52.336c-1.291-2.284-4.27-3.078-6.554-1.788
				c-2.284,1.291-3.078,4.27-1.788,6.554l12.414,21.449c0.894,1.589,2.482,2.383,4.17,2.383c0.794,0,1.688-0.199,2.383-0.596
				c2.284-1.291,3.078-4.27,1.787-6.554L99.306,52.336z"/>
		</g>
	</g>
	<g>
		<g>
			<defs>
				<rect id="SVGID_7_" x="-28" y="-28" width="356" height="355.999"/>
			</defs>
			<clipPath id="SVGID_8_">
				<use xlink:href="#SVGID_7_"  overflow="visible"/>
			</clipPath>
			<path clip-path="url(#SVGID_8_)" fill="#FDEB03" d="M78.85,103.179L57.4,90.766c-2.284-1.291-5.263-0.496-6.554,1.788
				c-1.291,2.284-0.496,5.263,1.788,6.554l21.449,12.413c0.794,0.397,1.589,0.695,2.383,0.695c1.688,0,3.277-0.894,4.171-2.383
				C81.928,107.449,81.134,104.47,78.85,103.179"/>
		</g>
	</g>
	<g>
		<g>
			<defs>
				<rect id="SVGID_9_" x="-28" y="-28" width="356" height="355.999"/>
			</defs>
			<clipPath id="SVGID_10_">
				<use xlink:href="#SVGID_9_"  overflow="visible"/>
			</clipPath>
			<path clip-path="url(#SVGID_10_)" fill="#FDEB03" d="M247.466,200.495l-21.449-12.413c-2.284-1.291-5.263-0.496-6.554,1.787
				c-1.291,2.285-0.497,5.264,1.787,6.555l21.448,12.413c0.795,0.396,1.59,0.595,2.384,0.595c1.688,0,3.277-0.893,4.171-2.383
				C250.544,204.766,249.75,201.786,247.466,200.495"/>
		</g>
	</g>
	<g>
		<g>
			<defs>
				<rect id="SVGID_11_" x="-28" y="-28" width="356" height="355.999"/>
			</defs>
			<clipPath id="SVGID_12_">
				<use xlink:href="#SVGID_11_"  overflow="visible"/>
			</clipPath>
			<path clip-path="url(#SVGID_12_)" fill="#FDEB03" d="M69.813,149.851c0-2.681-2.185-4.866-4.866-4.866H40.32
				c-2.681,0-4.866,2.185-4.866,4.866c0,2.682,2.185,4.866,4.866,4.866h24.727C67.728,154.617,69.813,152.434,69.813,149.851"/>
		</g>
	</g>
	<g>
		<g>
			<defs>
				<rect id="SVGID_13_" x="-28" y="-28" width="356" height="355.999"/>
			</defs>
			<clipPath id="SVGID_14_">
				<use xlink:href="#SVGID_13_"  overflow="visible"/>
			</clipPath>
			<path clip-path="url(#SVGID_14_)" fill="#FDEB03" d="M259.68,144.985h-24.727c-2.681,0-4.865,2.185-4.865,4.866
				c0,2.682,2.185,4.866,4.865,4.866h24.727c2.681,0,4.865-2.185,4.865-4.866C264.545,147.17,262.36,144.985,259.68,144.985"/>
		</g>
	</g>
	<g>
		<g>
			<defs>
				<rect id="SVGID_15_" x="-28" y="-28" width="356" height="355.999"/>
			</defs>
			<clipPath id="SVGID_16_">
				<use xlink:href="#SVGID_15_"  overflow="visible"/>
			</clipPath>
			<path clip-path="url(#SVGID_16_)" fill="#FDEB03" d="M73.984,188.082l-21.449,12.413c-2.284,1.291-3.079,4.271-1.787,6.554
				c0.894,1.589,2.482,2.383,4.17,2.383c0.794,0,1.688-0.198,2.383-0.595l21.548-12.314c2.284-1.29,3.079-4.27,1.788-6.554
				C79.247,187.586,76.268,186.791,73.984,188.082"/>
		</g>
	</g>
	<g>
		<g>
			<defs>
				<rect id="SVGID_17_" x="-28" y="-28" width="356" height="355.999"/>
			</defs>
			<clipPath id="SVGID_18_">
				<use xlink:href="#SVGID_17_"  overflow="visible"/>
			</clipPath>
			<path clip-path="url(#SVGID_18_)" fill="#FDEB03" d="M223.633,112.116c0.795,0,1.688-0.199,2.384-0.695l21.449-12.413
				c2.284-1.291,3.078-4.27,1.787-6.554c-1.291-2.284-4.271-3.078-6.555-1.788l-21.548,12.512c-2.284,1.291-3.078,4.27-1.787,6.554
				C220.355,111.322,221.945,112.116,223.633,112.116"/>
		</g>
	</g>
	<g>
		<g>
			<defs>
				<rect id="SVGID_19_" x="-28" y="-28" width="356" height="355.999"/>
			</defs>
			<clipPath id="SVGID_20_">
				<use xlink:href="#SVGID_19_"  overflow="visible"/>
			</clipPath>
			<path clip-path="url(#SVGID_20_)" fill="#FDEB03" d="M207.248,50.648c-2.283-1.39-5.264-0.596-6.554,1.787l-12.413,21.45
				c-1.291,2.284-0.496,5.263,1.787,6.554c0.795,0.397,1.589,0.596,2.383,0.596c1.688,0,3.278-0.894,4.171-2.383l12.414-21.45
				C210.327,54.918,209.531,51.939,207.248,50.648"/>
		</g>
	</g>
	<g>
		<g>
			<defs>
				<rect id="SVGID_21_" x="1.891" y="1.891" width="296.219" height="296.219"/>
			</defs>
			<clipPath id="SVGID_22_">
				<use xlink:href="#SVGID_21_"  overflow="visible"/>
			</clipPath>
			<path clip-path="url(#SVGID_22_)" fill="#FDEB03" d="M143.595,93.944c-25.719,2.88-46.573,23.733-49.353,49.453
				c-2.482,23.038,8.937,43.494,26.911,54.317c2.78,1.689,4.468,4.569,4.468,7.747l0,0c0,0.297,0.199,0.496,0.497,0.496h47.962
				c0.299,0,0.498-0.199,0.498-0.496v-0.1c0-3.178,1.688-6.157,4.468-7.746c16.285-9.83,27.209-27.606,27.209-48.063
				C206.156,116.684,177.458,90.27,143.595,93.944"/>
		</g>
	</g>
	<g>
		<g>
			<defs>
				<rect id="SVGID_23_" x="1.891" y="1.891" width="296.219" height="296.219"/>
			</defs>
			<clipPath id="SVGID_24_">
				<use xlink:href="#SVGID_23_"  overflow="visible"/>
			</clipPath>
			<path clip-path="url(#SVGID_24_)" fill="#FFFFFF" d="M187.785,128.402c-0.696,0-1.291-0.298-1.688-0.993
				c-5.363-8.639-13.704-15.094-23.436-18.172c-1.092-0.298-1.688-1.49-1.291-2.483c0.299-1.092,1.49-1.688,2.482-1.291
				c10.626,3.277,19.762,10.328,25.62,19.86c0.596,0.894,0.298,2.185-0.596,2.781C188.479,128.302,188.182,128.402,187.785,128.402"
				/>
		</g>
	</g>
	<g>
		<g>
			<defs>
				<rect id="SVGID_25_" x="1.891" y="1.891" width="296.219" height="296.219"/>
			</defs>
			<clipPath id="SVGID_26_">
				<use xlink:href="#SVGID_25_"  overflow="visible"/>
			</clipPath>
			<path clip-path="url(#SVGID_26_)" fill="#FFFFFF" d="M157.398,245.479h-15.393c-4.071,0-7.447-3.377-7.447-7.447v-0.597
				c0-0.298,0.198-0.596,0.596-0.596h29.79c0.299,0,0.597,0.199,0.597,0.596C165.442,241.905,161.866,245.479,157.398,245.479"/>
		</g>
	</g>
	<g>
		<g>
			<defs>
				<rect id="SVGID_27_" x="1.891" y="1.891" width="296.219" height="296.219"/>
			</defs>
			<clipPath id="SVGID_28_">
				<use xlink:href="#SVGID_27_"  overflow="visible"/>
			</clipPath>
			<path clip-path="url(#SVGID_28_)" fill="#FFFFFF" d="M125.522,209.929v15.69c0,4.964,4.071,9.036,9.037,9.036h30.884
				c4.964,0,9.036-4.072,9.036-9.036v-15.69c0-0.298-0.199-0.497-0.497-0.497h-47.963
				C125.721,209.432,125.522,209.631,125.522,209.929"/>
		</g>
	</g>
</g>
<g>
	<g>
		<g>
			<defs>
				<rect id="SVGID_29_" x="125.522" y="214.397" width="48.957" height="3.972"/>
			</defs>
			<clipPath id="SVGID_30_">
				<use xlink:href="#SVGID_29_"  overflow="visible"/>
			</clipPath>
			
				<linearGradient id="SVGID_31_" gradientUnits="userSpaceOnUse" x1="-800.2686" y1="-57.6055" x2="-799.343" y2="-57.6055" gradientTransform="matrix(55.2838 10.4158 10.4158 -55.2838 44968.0352 5362.6865)">
				<stop  offset="0" style="stop-color:#F2F2F2"/>
				<stop  offset="1" style="stop-color:#D2D3D4"/>
			</linearGradient>
			<polygon clip-path="url(#SVGID_30_)" fill="url(#SVGID_31_)" points="127.21,205.461 175.174,214.497 172.79,227.308 
				124.827,218.271 			"/>
		</g>
	</g>
</g>
<g>
	<g>
		<g>
			<defs>
				<rect id="SVGID_32_" x="125.522" y="222.044" width="48.957" height="3.973"/>
			</defs>
			<clipPath id="SVGID_33_">
				<use xlink:href="#SVGID_32_"  overflow="visible"/>
			</clipPath>
			
				<linearGradient id="SVGID_34_" gradientUnits="userSpaceOnUse" x1="-800.271" y1="-57.5947" x2="-799.3455" y2="-57.5947" gradientTransform="matrix(55.2838 10.4158 10.4158 -55.2838 44968.0352 5370.9678)">
				<stop  offset="0" style="stop-color:#F2F2F2"/>
				<stop  offset="1" style="stop-color:#D2D3D4"/>
			</linearGradient>
			<polygon clip-path="url(#SVGID_33_)" fill="url(#SVGID_34_)" points="127.21,213.106 175.174,222.144 172.79,234.953 
				124.827,225.917 			"/>
		</g>
	</g>
</g>
<g>
	<g>
		<g>
			<defs>
				<rect id="SVGID_35_" x="1.891" y="1.891" width="296.219" height="296.219"/>
			</defs>
			<clipPath id="SVGID_36_">
				<use xlink:href="#SVGID_35_"  overflow="visible"/>
			</clipPath>
			<path clip-path="url(#SVGID_36_)" fill="#FFFFFF" d="M165.442,144.489c-5.264,0-9.634,4.27-9.634,9.632v5.561h-11.717v-5.561
				c0-5.263-4.27-9.632-9.633-9.632c-5.263,0-9.632,4.27-9.632,9.632c0,5.361,4.271,9.632,9.632,9.632h5.561v42.403h3.972v-42.403
				h11.718v42.403h3.972v-42.403h5.562c5.263,0,9.632-4.271,9.632-9.632C174.875,148.759,170.805,144.489,165.442,144.489
				 M140.12,159.682h-5.561c-3.079,0-5.561-2.482-5.561-5.562c0-3.077,2.482-5.56,5.561-5.56s5.561,2.483,5.561,5.56V159.682z
				 M165.442,159.682h-5.562v-5.562c0-3.077,2.482-5.56,5.562-5.56c3.078,0,5.56,2.483,5.56,5.56
				C171.102,157.1,168.521,159.682,165.442,159.682"/>
		</g>
	</g>
</g>
</svg>
