<?xml version="1.0" encoding="utf-8"?>
<!-- Generator: Adobe Illustrator 26.4.1, SVG Export Plug-In . SVG Version: 6.00 Build 0)  -->
<svg version="1.1" id="Layer_1" xmlns="http://www.w3.org/2000/svg" xmlns:xlink="http://www.w3.org/1999/xlink" x="0px" y="0px"
	 viewBox="0 0 50 50" style="enable-background:new 0 0 50 50;" xml:space="preserve">
<style type="text/css">
	.st0{fill:#444444;}
</style>
<g>
	<path class="st0" d="M45.8,17H31.1v-6.3c0-1.8-1.4-3.2-3.2-3.2H4.2C2.5,7.5,1,8.9,1,10.7v14.7c0,1.8,1.4,3.2,3.2,3.2h2.4v1.9
		c0,0.8-0.1,2.2,0.9,2.5c0.9,0.3,1.9-0.5,2.5-1l4.2-3.5h4.7v6.3c0,1.8,1.4,3.2,3.2,3.2h13.7l4.2,3.5c0.4,0.3,1.6,1.3,2.5,0.9
		c0.7-0.3,0.9-0.9,0.9-2.5v-1.9h2.4c1.8,0,3.2-1.4,3.2-3.2V20.2C49,18.4,47.5,17,45.8,17L45.8,17z M13.9,27.1
		c-0.2,0-0.3,0.1-0.5,0.2l-4.4,3.7c-0.3,0.2-0.7,0.6-0.9,0.4c-0.1-0.1-0.1-0.7-0.1-0.8v-2.7c0-0.4-0.3-0.7-0.7-0.7H4.2
		c-1,0-1.8-0.8-1.8-1.8V10.7c0-1,0.8-1.8,1.8-1.8h23.7c1,0,1.8,0.8,1.8,1.8v14.7c0,1-0.8,1.8-1.8,1.8H13.9z M47.5,34.8
		c0,1-0.8,1.8-1.8,1.8h-3.2c-0.4,0-0.7,0.3-0.7,0.7V40c0,0.3,0.1,0.9-0.2,0.8c-0.1,0-0.6-0.4-0.7-0.5l-4.2-3.5
		c-0.1-0.1-0.3-0.2-0.5-0.2l-14.2,0c-1,0-1.8-0.8-1.8-1.8v-6.3h7.6c1.8,0,3.2-1.4,3.2-3.2v-6.9h14.6c1,0,1.8,0.8,1.8,1.8V34.8z"/>
	<path class="st0" d="M42.8,21.8h-7.9c-0.4,0-0.7,0.3-0.7,0.7c0,0.4,0.3,0.7,0.7,0.7h7.9c0.4,0,0.7-0.3,0.7-0.7S43.2,21.8,42.8,21.8
		z"/>
	<path class="st0" d="M42.8,26.9h-7.9c-0.4,0-0.7,0.3-0.7,0.7c0,0.4,0.3,0.7,0.7,0.7h7.9c0.4,0,0.7-0.3,0.7-0.7
		C43.6,27.2,43.2,26.9,42.8,26.9z"/>
	<path class="st0" d="M42.8,31.9H25c-0.4,0-0.7,0.3-0.7,0.7c0,0.4,0.3,0.7,0.7,0.7h17.8c0.4,0,0.7-0.3,0.7-0.7
		C43.6,32.2,43.2,31.9,42.8,31.9L42.8,31.9z"/>
	<path class="st0" d="M16.1,11.5c-1.9,0-3.5,1.5-3.5,3.4c0,0,0,0,0,0c0,0.4,0.3,0.7,0.7,0.7S14,15.4,14,15c0-0.5,0.2-1.1,0.6-1.4
		c0.4-0.4,0.9-0.6,1.5-0.6c1.1,0,2,0.9,2,2c0,0.8-0.4,1.5-1.1,1.8c-1,0.5-1.6,1.5-1.6,2.6v1.4c0,0.4,0.3,0.7,0.7,0.7
		c0.4,0,0.7-0.3,0.7-0.7v-1.4c0-0.6,0.4-1.1,0.9-1.3c1.2-0.6,1.9-1.8,1.9-3.2C19.5,13.1,18,11.6,16.1,11.5L16.1,11.5z"/>
	<circle class="st0" cx="16.1" cy="23.5" r="0.7"/>
</g>
</svg>
