<?xml version="1.0" standalone="no"?>
<!DOCTYPE svg PUBLIC "-//W3C//DTD SVG 20010904//EN"
 "http://www.w3.org/TR/2001/REC-SVG-20010904/DTD/svg10.dtd">
<svg version="1.0" xmlns="http://www.w3.org/2000/svg"
 width="1280.000000pt" height="640.000000pt" viewBox="0 0 1280.000000 640.000000"
 preserveAspectRatio="xMidYMid meet">
<g transform="translate(0.000000,640.000000) scale(0.100000,-0.100000)"
fill="#2b95f9" stroke="none">
<path d="M3625 6166 c-39 -18 -3539 -2834 -3588 -2888 -20 -22 -37 -46 -37
-53 0 -7 19 -33 43 -58 35 -37 3452 -2841 3554 -2917 41 -30 87 -30 116 -1
l22 22 5 697 5 697 4500 5 c2475 3 4501 6 4502 8 1 1 14 14 28 29 l25 28 0
1458 c0 1354 -1 1461 -17 1488 -9 15 -24 32 -32 36 -9 4 -2039 10 -4511 13
l-4495 5 -5 697 c-5 681 -5 698 -25 717 -28 27 -55 32 -90 17z"/>
</g>
</svg>
