<?xml version="1.0" encoding="utf-8"?>
<!-- Generator: Adobe Illustrator 16.0.0, SVG Export Plug-In . SVG Version: 6.00 Build 0)  -->
<!DOCTYPE svg PUBLIC "-//W3C//DTD SVG 1.1//EN" "http://www.w3.org/Graphics/SVG/1.1/DTD/svg11.dtd">
<svg version="1.1" id="Layer_1" xmlns="http://www.w3.org/2000/svg" xmlns:xlink="http://www.w3.org/1999/xlink" x="0px" y="0px"
	 width="55px" height="55px" viewBox="0 0 55 55" enable-background="new 0 0 55 55" xml:space="preserve">
<path fill="#00A700" d="M54.688,29.293c0.041-0.555,0.065-1.113,0.068-1.678h-0.011c0.001-1.178-0.075-2.36-0.222-3.535
	c-0.001-0.01-0.004-0.02-0.005-0.03c-0.09-0.712-0.216-1.416-0.36-2.115c-0.09-0.439-0.19-0.876-0.301-1.313
	c-0.005-0.018-0.008-0.037-0.013-0.055c-0.007-0.025-0.015-0.05-0.021-0.076c-0.284-1.105-0.636-2.205-1.078-3.292
	c-0.215-0.526-0.447-1.038-0.693-1.54c-0.27-0.567-0.558-1.125-0.869-1.67c-0.324-0.568-0.674-1.119-1.04-1.66
	c-0.287-0.436-0.588-0.867-0.907-1.289l-0.01,0.007c-0.724-0.946-1.51-1.846-2.351-2.697c-0.415-0.42-0.844-0.826-1.287-1.219
	C45.146,6.739,44.69,6.36,44.224,6c-1.884-1.46-3.932-2.682-6.115-3.601c-0.591-0.248-1.191-0.47-1.8-0.674
	c-0.517-0.178-1.04-0.345-1.574-0.491l-0.003,0.012c-1.139-0.306-2.299-0.539-3.473-0.701c-1.171-0.162-2.354-0.246-3.548-0.251
	V0.271c-1.754-0.01-3.464,0.168-5.126,0.485c-0.057,0.011-0.116,0.018-0.174,0.03c-0.068,0.013-0.133,0.03-0.201,0.044
	c-1.652,0.324-3.296,0.793-4.915,1.453l0.009,0.02c-1.104,0.449-2.173,0.968-3.199,1.554c-1.028,0.588-2.019,1.236-2.961,1.944
	l-0.008-0.009c-0.451,0.341-0.883,0.698-1.304,1.063C9.8,6.882,9.766,6.908,9.735,6.935C9.727,6.94,9.72,6.949,9.712,6.956
	C9.275,7.333,8.85,7.724,8.439,8.129c-1.684,1.665-3.13,3.563-4.335,5.62c-0.298,0.509-0.58,1.029-0.845,1.558
	c-0.264,0.529-0.51,1.066-0.739,1.609c-0.464,1.104-0.858,2.232-1.178,3.379l-0.011-0.003c-0.143,0.522-0.264,1.045-0.371,1.568
	c-0.134,0.628-0.251,1.259-0.337,1.894c-0.086,0.624-0.146,1.251-0.186,1.88c-0.041,0.555-0.065,1.116-0.068,1.681
	c-0.007,1.169,0.077,2.317,0.223,3.445c0.003,0.03,0.004,0.06,0.008,0.091c0.003,0.021,0.008,0.043,0.011,0.063
	c0.058,0.435,0.126,0.864,0.204,1.292c0.127,0.714,0.272,1.425,0.458,2.129l0.006,0.028c0.302,1.146,0.673,2.271,1.112,3.364
	L2.38,37.731c0.214,0.525,0.446,1.037,0.692,1.538c0.27,0.567,0.558,1.126,0.87,1.672c0.322,0.564,0.669,1.112,1.032,1.65
	c0.29,0.438,0.593,0.874,0.915,1.3c0.097,0.128,0.208,0.238,0.307,0.364c0.405,0.52,0.831,1.021,1.273,1.511
	c0.052,0.056,0.104,0.113,0.156,0.17c0.201,0.216,0.394,0.441,0.602,0.652c1.25,1.264,2.631,2.393,4.111,3.388
	c1.476,1.004,3.039,1.865,4.677,2.554c0.244,0.104,0.494,0.188,0.74,0.283c0.153,0.059,0.307,0.117,0.461,0.174
	c0.217,0.079,0.433,0.16,0.652,0.234c0.5,0.172,1.005,0.334,1.522,0.475c0.521,0.143,1.041,0.264,1.563,0.368
	c0.629,0.136,1.261,0.252,1.899,0.34c0.622,0.086,1.248,0.146,1.875,0.187c0.557,0.041,1.118,0.064,1.686,0.067
	c1.171,0.008,2.318-0.077,3.447-0.223c0.029-0.004,0.06-0.005,0.09-0.008c0.016-0.003,0.032-0.007,0.05-0.009
	c0.494-0.066,0.983-0.144,1.47-0.233c0.073-0.014,0.146-0.035,0.219-0.049c0.082-0.017,0.164-0.025,0.245-0.04
	c0.494-0.098,0.986-0.213,1.479-0.337c0.016-0.004,0.032-0.007,0.049-0.011c0.028-0.009,0.055-0.019,0.083-0.024
	c1.103-0.286,2.201-0.635,3.285-1.078c0.523-0.213,1.036-0.445,1.536-0.69c0.566-0.271,1.128-0.56,1.675-0.87
	c0.554-0.316,1.094-0.658,1.624-1.016c0.447-0.295,0.89-0.603,1.324-0.932c0.132-0.101,0.244-0.213,0.373-0.315
	c0.515-0.4,1.014-0.821,1.496-1.26c0.057-0.051,0.112-0.102,0.167-0.154c0.222-0.203,0.447-0.398,0.661-0.608
	c1.264-1.25,2.394-2.631,3.389-4.112c1.004-1.474,1.864-3.038,2.554-4.677c0.102-0.241,0.186-0.49,0.28-0.736
	c0.062-0.156,0.12-0.313,0.179-0.47c0.078-0.213,0.158-0.425,0.229-0.64c0.173-0.503,0.335-1.01,0.477-1.527
	c0.144-0.523,0.264-1.045,0.371-1.568c0.134-0.628,0.251-1.259,0.338-1.895C54.588,30.551,54.647,29.922,54.688,29.293"/>
<path fill="#FFFFFF" d="M22.514,41.084c-0.669,0-1.312-0.267-1.784-0.739L10.635,30.25c-0.985-0.986-0.985-2.584,0.001-3.57
	c0.986-0.986,2.584-0.985,3.569,0.001l8.309,8.308l18.403-18.403c0.987-0.986,2.585-0.986,3.572,0c0.985,0.986,0.985,2.585,0,3.571
	L24.298,40.348C23.825,40.819,23.183,41.085,22.514,41.084"/>
</svg>
