<?xml version="1.0" encoding="utf-8"?>
<!-- Generator: Adobe Illustrator 24.1.1, SVG Export Plug-In . SVG Version: 6.00 Build 0)  -->
<svg version="1.1" id="Layer_1" xmlns="http://www.w3.org/2000/svg" xmlns:xlink="http://www.w3.org/1999/xlink" x="0px" y="0px"
	 viewBox="0 0 32 17" style="enable-background:new 0 0 32 17;" xml:space="preserve">
<style type="text/css">
	.st0{fill:#444444;}
	.st1{fill:none;}
</style>
<circle class="st0" cx="23.7" cy="5.1" r="1.2"/>
<path class="st0" d="M23.7,13.2c-0.7,0-1.2-0.6-1.2-1.2c0-0.7,0.6-1.2,1.2-1.2s1.2,0.6,1.2,1.2S24.4,13.2,23.7,13.2L23.7,13.2z"/>
<rect x="18.9" y="7.4" class="st0" width="9.4" height="2.2"/>
<g>
	<g>
		<path class="st1" d="M30.7,3.6v10.3c0,1-0.8,1.8-1.8,1.8H16.4V1.4h12C30.3,1.4,30.7,2.2,30.7,3.6z"/>
		<path class="st0" d="M15.6,0.5v16h13.5c1.3,0,2.4-1.1,2.4-2.4V2.9c-0.1-1.4-1.2-2.4-2.5-2.4H15.6z M16.5,1.5h11.8
			c1.8,0,2.2,0.8,2.2,2.1v10.1c0,1-0.8,1.8-1.8,1.8H16.5V1.5z"/>
	</g>
	<g>
		<path class="st1" d="M3.5,1.4h12v14.3H3c-1,0-1.8-0.8-1.8-1.8V3.6C1.2,2.2,1.6,1.4,3.5,1.4z"/>
		<path class="st0" d="M2.9,0.5c-1.3,0-2.4,1-2.5,2.4v11.2c0,1.3,1.1,2.4,2.4,2.4h13.5l0-16H2.9z M15.4,15.5H3.2
			c-1,0-1.8-0.8-1.8-1.8V3.6c0-1.3,0.4-2.1,2.2-2.1h11.8V15.5z"/>
	</g>
	<g>
		<g>
			<polygon class="st0" points="12.6,11.3 11.1,12.8 8.3,10 5.6,12.8 4.1,11.3 6.9,8.5 4.1,5.7 5.6,4.2 8.3,7 11.1,4.2 12.6,5.7 
				9.8,8.5 			"/>
		</g>
	</g>
</g>
</svg>
