<?xml version="1.0" encoding="utf-8"?>
<!-- Generator: Adobe Illustrator 24.1.1, SVG Export Plug-In . SVG Version: 6.00 Build 0)  -->
<svg version="1.1" id="Layer_1" xmlns="http://www.w3.org/2000/svg" xmlns:xlink="http://www.w3.org/1999/xlink" x="0px" y="0px"
	 viewBox="0 0 32 32" style="enable-background:new 0 0 32 32;" xml:space="preserve">
<style type="text/css">
	.st0{fill:#FFFFFF;}
	.st1{fill:#1457A7;}
</style>
<g>
	<rect x="2.2" y="2.7" class="st0" width="12.7" height="12.7"/>
	<rect x="17.1" y="16.5" class="st0" width="12.7" height="12.7"/>
	<g>
		<path class="st1" d="M28.7,15.6H18.3c-1.3,0-2.3,1-2.3,2.3l0,0v10.4c0,1.3,1,2.3,2.3,2.3l0,0h10.4c1.3,0,2.3-1,2.3-2.3l0,0V17.8
			C30.9,16.6,29.9,15.6,28.7,15.6L28.7,15.6z M23.5,18.1c0.6,0,1.1,0.5,1.1,1.1s-0.5,1.1-1.1,1.1s-1.1-0.5-1.1-1.1
			S22.9,18.1,23.5,18.1z M23.5,28c-0.6,0-1.1-0.5-1.1-1.1s0.5-1.1,1.1-1.1s1.1,0.5,1.1,1.1S24.1,28,23.5,28L23.5,28z M28.4,24.1
			h-9.9v-2.2h9.9V24.1z"/>
		<path class="st1" d="M13.8,1.5H3.4c-1.3,0-2.3,1-2.3,2.3v10.5c0,1.3,1,2.3,2.3,2.3h10.5c1.3,0,2.3-1,2.3-2.3V3.8
			C16.1,2.5,15.1,1.5,13.8,1.5z M12.9,11.8l-1.5,1.5l-2.8-2.8l-2.8,2.8l-1.5-1.5L7.1,9L4.3,6.2l1.5-1.5l2.8,2.8l2.8-2.8l1.5,1.5
			L10.1,9L12.9,11.8z"/>
	</g>
</g>
</svg>
