<?xml version="1.0" encoding="utf-8"?>
<!-- Generator: Adobe Illustrator 24.1.1, SVG Export Plug-In . SVG Version: 6.00 Build 0)  -->
<svg version="1.1" id="objects" xmlns="http://www.w3.org/2000/svg" xmlns:xlink="http://www.w3.org/1999/xlink" x="0px" y="0px"
	 viewBox="0 0 102 102" style="enable-background:new 0 0 102 102;" xml:space="preserve">
<style type="text/css">
	.st0{fill:#00508C;}
	.st1{fill:#F1F2F2;}
	.st2{fill:#FFFFFF;}
	.st3{fill:#48A8FF;}
	.st4{fill:#309DEF;}
	.st5{fill:#EA6552;}
	.st6{fill:#007CFF;}
</style>
<g>
	<g>
		<g>
			<g>
				<g>
					<polygon class="st0" points="1.23,42.44 51,1.16 100.77,42.44 100.77,100.84 1.23,100.84 					"/>
					<g>
						<path class="st1" d="M84.52,77.42H17.48c-0.5,0-0.91-0.41-0.91-0.91V10.56c0-0.5,0.41-0.91,0.91-0.91h67.04
							c0.5,0,0.91,0.41,0.91,0.91v65.95C85.43,77.01,85.02,77.42,84.52,77.42z"/>
						<path class="st2" d="M84.52,9.66H17.48c-0.5,0-0.91,0.41-0.91,0.91v0.67c0-0.5,0.41-0.91,0.91-0.91h67.04
							c0.5,0,0.91,0.41,0.91,0.91v-0.67C85.43,10.06,85.02,9.66,84.52,9.66z"/>
					</g>
					<polygon class="st3" points="1.23,42.44 42.5,71.64 1.23,100.84 					"/>
					<polygon class="st3" points="1.23,42.44 1.23,43.01 41.7,71.64 1.23,100.27 1.23,100.84 42.5,71.64 					"/>
					<polygon class="st3" points="100.77,42.44 59.5,71.64 100.77,100.84 					"/>
					<polygon class="st3" points="100.77,42.44 100.77,43.01 60.3,71.64 100.77,100.27 100.77,100.84 59.5,71.64 					"/>
				</g>
				<polygon class="st4" points="59.53,71.64 42.5,71.64 42.5,71.61 1.23,100.84 100.77,100.84 				"/>
			</g>
		</g>
	</g>
	<g>
		<path class="st5" d="M68.56,58.38h-35.7c-1.9,0-3.43-1.54-3.43-3.43v-4.36c0-1.9,1.54-3.43,3.43-3.43h35.7
			c1.9,0,3.43,1.54,3.43,3.43v4.36C71.99,56.85,70.45,58.38,68.56,58.38z"/>
		<g>
			<g>
				<path class="st2" d="M37.03,52.76l1.24,0.67l-0.56,0.93l-1.25-0.74L36.49,55l-1.07,0l0.01-1.39l-1.25,0.75l-0.55-0.93l1.24-0.67
					l-1.24-0.69l0.55-0.93l1.25,0.75l-0.01-1.39l1.07,0l-0.02,1.39l1.25-0.75l0.56,0.93L37.03,52.76z"/>
			</g>
			<g>
				<path class="st2" d="M44.41,52.77l1.24,0.67l-0.56,0.93l-1.25-0.74l0.02,1.38l-1.07,0l0.01-1.39l-1.25,0.75L41,53.44l1.24-0.67
					l-1.24-0.69l0.55-0.93l1.25,0.75l-0.01-1.39l1.07,0l-0.02,1.39l1.25-0.75l0.56,0.93L44.41,52.77z"/>
			</g>
			<g>
				<path class="st2" d="M51.79,52.78l1.24,0.67l-0.56,0.93l-1.25-0.74l0.02,1.38l-1.07,0l0.01-1.39l-1.25,0.75l-0.55-0.94
					l1.24-0.67l-1.24-0.69l0.55-0.93l1.25,0.75l-0.01-1.39l1.07,0l-0.02,1.39l1.25-0.75l0.56,0.93L51.79,52.78z"/>
			</g>
			<g>
				<path class="st2" d="M59.17,52.78l1.24,0.67l-0.56,0.93l-1.25-0.74l0.02,1.38l-1.07,0l0.01-1.39l-1.25,0.75l-0.55-0.93L57,52.78
					l-1.24-0.69l0.55-0.93l1.25,0.75l-0.01-1.39l1.07,0l-0.02,1.39l1.25-0.75l0.56,0.93L59.17,52.78z"/>
			</g>
			<g>
				<path class="st2" d="M66.55,52.79l1.24,0.67l-0.56,0.93l-1.25-0.74L66,55.04l-1.07,0l0.01-1.39l-1.25,0.75l-0.55-0.94l1.24-0.67
					l-1.24-0.69l0.55-0.93l1.25,0.75l-0.01-1.39l1.07,0l-0.02,1.39l1.25-0.75l0.56,0.93L66.55,52.79z"/>
			</g>
		</g>
	</g>
	<g>
		
			<ellipse transform="matrix(0.7071 -0.7071 0.7071 0.7071 -6.72 44.7913)" class="st6" cx="50.71" cy="30.51" rx="12.16" ry="12.16"/>
		<g>
			<path class="st2" d="M55.46,29.83h-9.51c-0.72,0-1.3,0.58-1.3,1.3v5.79c0,0.72,0.58,1.3,1.3,1.3h9.51c0.72,0,1.3-0.58,1.3-1.3
				v-5.79C56.77,30.41,56.18,29.83,55.46,29.83z M51.58,36.27h-1.75l0.37-2.37c-0.38-0.19-0.65-0.58-0.65-1.03
				c0-0.64,0.52-1.16,1.16-1.16c0.64,0,1.16,0.52,1.16,1.16c0,0.46-0.27,0.85-0.65,1.03L51.58,36.27z"/>
			<g>
				<path class="st2" d="M47.97,28.9l-0.18-0.89c-0.32-1.58,0.71-3.13,2.3-3.45c1.58-0.32,3.13,0.71,3.45,2.3l0.18,0.89l1.68-0.34
					l-0.18-0.89c-0.5-2.51-2.95-4.14-5.46-3.64c-2.51,0.5-4.14,2.95-3.64,5.46l0.18,0.89L47.97,28.9z"/>
			</g>
		</g>
	</g>
</g>
</svg>
