<svg width="100" height="129" viewBox="0 0 100 129" fill="none" xmlns="http://www.w3.org/2000/svg">
<path d="M91.981 2.825C91.981 2.825 90.357 3.982 88.616 3.836Z" fill="#47C8F5"/>
<path d="M85.061 2.343C82.383 2.431 79.895 4.07 80.183 8.27C80.183 8.27 76.15 9.499 69.871 3.529C69.871 3.529 67.851 6.821 71.422 9.923C71.422 9.923 70.42 10.201 69.082 9.455C69.082 9.455 68.364 12.235 72.959 14.342C72.959 14.342 71.408 14.782 70.705 14.342C70.705 14.342 71.115 17.298 75.241 18.001C75.241 18.001 73.119 20.108 68.1 20.05C68.1 20.05 78.538 25.392 85.775 18.527C90.943 13.627 90.225 7.086 90.225 7.086C90.225 7.086 91.746 6.617 92.655 4.963C92.655 4.963 90.928 5.505 89.933 5.417C89.933 5.417 91.834 4.231 91.981 2.826" fill="#47C8F5"/>
<path d="M88.616 3.836C88.616 3.836 87.322 2.269 85.06 2.343Z" fill="#47C8F5"/>
<path fill-rule="evenodd" clip-rule="evenodd" d="M29.753 18.555C29.287 19.34 28.729 20.057 28.027 20.655C24.132 17.622 24.871 18.206 24.513 17.887C25.788 16.912 26.273 16.006 26.638 14.783C26.711 14.539 26.69 14.445 26.386 14.447C24.585 14.463 22.783 14.455 20.982 14.453C20.6 14.453 20.6 14.453 20.6 14.06C20.6 12.838 20.606 11.617 20.594 10.395C20.592 10.159 20.633 10.069 20.899 10.07C24.221 10.079 27.545 10.077 30.869 10.073C31.048 10.073 31.161 10.086 31.192 10.304C31.606 13.212 31.274 15.989 29.753 18.555Z" fill="#6789C6"/>
<path fill-rule="evenodd" clip-rule="evenodd" d="M28.027 20.655C26.834 21.788 25.423 22.542 23.839 22.944C20.101 23.887 16.654 23.292 13.595 20.876C12.33 19.878 11.335 18.646 10.634 17.187C11.851 16.242 13.069 15.296 14.286 14.349C14.621 15.201 15.038 16.005 15.656 16.689C18.17 19.464 21.791 19.552 24.514 17.888C24.854 18.192 24.128 17.616 28.027 20.655Z" fill="#4DB74B"/>
<path fill-rule="evenodd" clip-rule="evenodd" d="M14.286 14.35C13.069 15.293 11.851 16.241 10.634 17.186C9.058 14.256 9.025 10.143 10.643 7.169C14.685 10.283 14.072 9.818 14.313 9.976C13.825 11.431 13.849 12.889 14.286 14.35Z" fill="#FFCE0C"/>
<path fill-rule="evenodd" clip-rule="evenodd" d="M18.733 1.165C22.166 0.617 25.237 1.426 27.891 3.711C28.059 3.856 28.1 3.94 27.917 4.119" fill="#E23131"/>
<path fill-rule="evenodd" clip-rule="evenodd" d="M27.918 4.119C24.79 7.182 25.03 7.16 24.803 6.952C21.663 4.075 16.067 5.167 14.313 9.976C14.073 9.82 14.703 10.298 10.643 7.17C11.772 4.684 14.697 1.809 18.733 1.165" fill="#E23131"/>
<path d="M87.616 37.837C87.616 37.837 86.322 36.269 84.06 36.343C81.382 36.431 78.894 38.071 79.182 42.271C79.182 42.271 75.149 43.5 68.87 37.53C68.87 37.53 66.85 40.822 70.421 43.924C70.421 43.924 69.419 44.202 68.081 43.456C68.081 43.456 67.363 46.236 71.958 48.344C71.958 48.344 70.407 48.783 69.704 48.344C69.704 48.344 70.114 51.299 74.24 52.002C74.24 52.002 72.118 54.109 67.099 54.051C67.099 54.051 77.537 59.393 84.774 52.528C89.942 47.628 89.224 41.087 89.224 41.087C89.224 41.087 90.745 40.618 91.654 38.964C91.654 38.964 89.927 39.507 88.932 39.419C88.932 39.419 90.833 38.232 90.98 36.827C90.981 36.825 89.357 37.982 87.616 37.837Z" fill="white"/>
<path d="M55.782 38.677V35.035C55.782 35.035 52.058 35 51.805 35C50.123 35 47.703 36.914 47.703 39.085V42.983H44.217V47.116H47.656V57.37H51.726V47.069H55.324L55.782 43.03H51.774V40.063C51.774 39.352 52.31 38.655 53.115 38.655C53.652 38.655 55.782 38.677 55.782 38.677Z" fill="white"/>
<path fill-rule="evenodd" clip-rule="evenodd" d="M28.753 52.556C28.287 53.341 27.729 54.058 27.027 54.656C23.132 51.623 23.871 52.207 23.513 51.888C24.788 50.913 25.273 50.007 25.638 48.784C25.711 48.54 25.69 48.446 25.386 48.448C23.585 48.464 21.783 48.456 19.982 48.454C19.6 48.454 19.6 48.454 19.6 48.061C19.6 46.838 19.606 45.618 19.594 44.396C19.592 44.161 19.633 44.07 19.899 44.071C23.221 44.081 26.545 44.079 29.869 44.075C30.048 44.075 30.161 44.087 30.192 44.305C30.606 47.212 30.274 49.989 28.753 52.556Z" fill="white"/>
<path fill-rule="evenodd" clip-rule="evenodd" d="M27.027 54.655C25.834 55.788 24.423 56.542 22.839 56.944C19.101 57.887 15.654 57.292 12.595 54.876C11.33 53.878 10.335 52.646 9.634 51.187C10.851 50.242 12.069 49.296 13.286 48.349C13.621 49.201 14.038 50.005 14.656 50.689C17.17 53.464 20.791 53.552 23.514 51.888C23.854 52.192 23.128 51.616 27.027 54.655Z" fill="white"/>
<path fill-rule="evenodd" clip-rule="evenodd" d="M13.286 48.351C12.069 49.294 10.851 50.242 9.634 51.187C8.058 48.257 8.025 44.143 9.643 41.169C13.685 44.283 13.072 43.818 13.313 43.977C12.825 45.431 12.849 46.89 13.286 48.351Z" fill="white"/>
<path fill-rule="evenodd" clip-rule="evenodd" d="M26.918 38.118C23.79 41.182 24.03 41.159 23.803 40.952C20.663 38.075 15.067 39.167 13.313 43.975C13.073 43.819 13.703 44.297 9.64301 41.169C10.772 38.684 13.697 35.809 17.733 35.164C21.166 34.615 24.237 35.425 26.891 37.71C27.06 37.856 27.101 37.94 26.918 38.118Z" fill="white"/>
<path d="M56.16 4.676V1.035C56.16 1.035 52.436 1 52.183 1C50.501 1 48.081 2.914 48.081 5.085V8.983H44.595V13.116H48.034V23.37H52.104V13.069H55.702L56.16 9.03H52.152V6.064C52.152 5.352 52.688 4.655 53.493 4.655C54.03 4.655 56.16 4.676 56.16 4.676Z" fill="#3D5B9A"/>
<g clip-path="url(#clip0_2_2)">
<path d="M8.89999 70.84C7.77999 71.42 7.41999 71.76 6.87999 72.84L6.39999 73.78V82.06V90.34L6.85999 91.22C7.45999 92.36 8.71999 93.3 9.99999 93.58C11.38 93.88 24.62 93.88 26 93.58C27.32 93.3 28.54 92.34 29.18 91.1L29.7 90.12V82C29.7 75 29.66 73.8 29.38 73.2C28.88 72.12 28.08 71.28 27.1 70.82C26.24 70.42 25.94 70.4 17.96 70.4C9.99999 70.42 9.67999 70.44 8.89999 70.84ZM21.94 76.38C23.16 76.94 23.88 78.12 23.9 79.6C23.9 80.74 23.92 80.78 24.72 81.36C25.92 82.24 26.46 83.22 26.48 84.58C26.5 86.06 25.92 87 24.64 87.64C23.74 88.08 23.46 88.1 18.76 88.16C15.58 88.2 13.42 88.14 12.72 88C10.62 87.56 9.49999 86.34 9.51999 84.5C9.55999 83.02 10.38 81.72 11.76 81.02C12.08 80.84 12.2 80.62 12.2 80.08C12.2 79.02 12.68 78.3 13.7 77.8C14.64 77.34 15.5 77.38 16.28 77.92C16.62 78.14 16.7 78.1 17.08 77.54C18.1 76.02 20.08 75.54 21.94 76.38Z" fill="#0A4D7F"/>
<path d="M16.1 80.48C14.98 81.66 14 83.16 14 83.72C14 84.34 16 86.12 16.86 86.28C17.44 86.38 19.2 86.14 19.2 85.94C19.2 85.9 18.66 85.88 18.02 85.9C17.02 85.9 16.74 85.82 16.3 85.4L15.78 84.9L16.74 84.7C17.26 84.58 17.72 84.5 17.76 84.5C17.78 84.52 17.72 84.78 17.62 85.08C17.32 85.82 17.46 85.74 18.08 84.78C18.6 84 18.68 83.96 19.36 84.1C20 84.22 20.04 84.2 19.8 83.9C19.56 83.62 19.62 83.5 20.14 83.02C21.06 82.18 21.48 81.26 21.22 80.68C21.1 80.42 20.88 80.2 20.7 80.2C20.54 80.2 20.34 80.2 20.26 80.18C20.18 80.18 20.08 80.26 20.04 80.38C20 80.5 20.1 80.6 20.28 80.6C20.86 80.6 20.64 81.56 19.9 82.36L19.22 83.1L19.2 82.44C19.2 82.08 19.3 81.58 19.42 81.34C19.62 80.92 19.62 80.92 19.26 81.36C18.72 82.02 17.78 82.6 17.2 82.6H16.7L17.2 82.86C18.02 83.28 17.84 83.84 16.8 84.14C16.3 84.28 15.78 84.36 15.66 84.3C15.1 84.1 15.56 82.04 16.36 81.12C16.54 80.92 17.04 80.5 17.44 80.2L18.2 79.64L17.64 79.54C17.18 79.46 16.94 79.6 16.1 80.48ZM14.56 83.7C14.58 83.98 14.5 84.2 14.4 84.2C14.28 84.2 14.2 83.98 14.2 83.7C14.2 83.42 14.28 83.2 14.36 83.2C14.44 83.2 14.54 83.42 14.56 83.7Z" fill="#0A4D7F"/>
<path d="M17.44 81.26C17.14 81.6 17.46 82.1 17.9 81.92C18.26 81.8 18.24 81.18 17.88 81.06C17.76 81.02 17.56 81.1 17.44 81.26Z" fill="#0A4D7F"/>
<path d="M21.1 84.4C21.02 84.52 20.88 84.54 20.76 84.48C20.64 84.4 20.6 84.44 20.68 84.56C20.74 84.66 20.56 84.96 20.26 85.2C19.94 85.42 19.88 85.54 20.1 85.42C20.52 85.22 21.56 84.2 21.34 84.2C21.28 84.2 21.16 84.3 21.1 84.4Z" fill="#0A4D7F"/>
</g>
<g clip-path="url(#clip1_2_2)">
<path d="M9.89999 105.84C8.77999 106.42 8.41999 106.76 7.87999 107.84L7.39999 108.78V117.06V125.34L7.85999 126.22C8.45999 127.36 9.71999 128.3 11 128.58C12.38 128.88 25.62 128.88 27 128.58C28.32 128.3 29.54 127.34 30.18 126.1L30.7 125.12V117C30.7 110 30.66 108.8 30.38 108.2C29.88 107.12 29.08 106.28 28.1 105.82C27.24 105.42 26.94 105.4 18.96 105.4C11 105.42 10.68 105.44 9.89999 105.84ZM22.94 111.38C24.16 111.94 24.88 113.12 24.9 114.6C24.9 115.74 24.92 115.78 25.72 116.36C26.92 117.24 27.46 118.22 27.48 119.58C27.5 121.06 26.92 122 25.64 122.64C24.74 123.08 24.46 123.1 19.76 123.16C16.58 123.2 14.42 123.14 13.72 123C11.62 122.56 10.5 121.34 10.52 119.5C10.56 118.02 11.38 116.72 12.76 116.02C13.08 115.84 13.2 115.62 13.2 115.08C13.2 114.02 13.68 113.3 14.7 112.8C15.64 112.34 16.5 112.38 17.28 112.92C17.62 113.14 17.7 113.1 18.08 112.54C19.1 111.02 21.08 110.54 22.94 111.38Z" fill="white"/>
<path d="M17.1 115.48C15.98 116.66 15 118.16 15 118.72C15 119.34 17 121.12 17.86 121.28C18.44 121.38 20.2 121.14 20.2 120.94C20.2 120.9 19.66 120.88 19.02 120.9C18.02 120.9 17.74 120.82 17.3 120.4L16.78 119.9L17.74 119.7C18.26 119.58 18.72 119.5 18.76 119.5C18.78 119.52 18.72 119.78 18.62 120.08C18.32 120.82 18.46 120.74 19.08 119.78C19.6 119 19.68 118.96 20.36 119.1C21 119.22 21.04 119.2 20.8 118.9C20.56 118.62 20.62 118.5 21.14 118.02C22.06 117.18 22.48 116.26 22.22 115.68C22.1 115.42 21.88 115.2 21.7 115.2C21.54 115.2 21.34 115.2 21.26 115.18C21.18 115.18 21.08 115.26 21.04 115.38C21 115.5 21.1 115.6 21.28 115.6C21.86 115.6 21.64 116.56 20.9 117.36L20.22 118.1L20.2 117.44C20.2 117.08 20.3 116.58 20.42 116.34C20.62 115.92 20.62 115.92 20.26 116.36C19.72 117.02 18.78 117.6 18.2 117.6H17.7L18.2 117.86C19.02 118.28 18.84 118.84 17.8 119.14C17.3 119.28 16.78 119.36 16.66 119.3C16.1 119.1 16.56 117.04 17.36 116.12C17.54 115.92 18.04 115.5 18.44 115.2L19.2 114.64L18.64 114.54C18.18 114.46 17.94 114.6 17.1 115.48ZM15.56 118.7C15.58 118.98 15.5 119.2 15.4 119.2C15.28 119.2 15.2 118.98 15.2 118.7C15.2 118.42 15.28 118.2 15.36 118.2C15.44 118.2 15.54 118.42 15.56 118.7Z" fill="white"/>
<path d="M18.44 116.26C18.14 116.6 18.46 117.1 18.9 116.92C19.26 116.8 19.24 116.18 18.88 116.06C18.76 116.02 18.56 116.1 18.44 116.26Z" fill="white"/>
<path d="M22.1 119.4C22.02 119.52 21.88 119.54 21.76 119.48C21.64 119.4 21.6 119.44 21.68 119.56C21.74 119.66 21.56 119.96 21.26 120.2C20.94 120.42 20.88 120.54 21.1 120.42C21.52 120.22 22.56 119.2 22.34 119.2C22.28 119.2 22.16 119.3 22.1 119.4Z" fill="white"/>
</g>
<defs>
<clipPath id="clip0_2_2">
<rect width="24" height="24" fill="white" transform="translate(6 70)"/>
</clipPath>
<clipPath id="clip1_2_2">
<rect width="24" height="24" fill="white" transform="translate(7 105)"/>
</clipPath>
</defs>
</svg>
