<?xml version="1.0" encoding="utf-8"?>
<!-- Generator: Adobe Illustrator 16.0.0, SVG Export Plug-In . SVG Version: 6.00 Build 0)  -->
<!DOCTYPE svg PUBLIC "-//W3C//DTD SVG 1.1//EN" "http://www.w3.org/Graphics/SVG/1.1/DTD/svg11.dtd">
<svg version="1.1" id="Layer_1" xmlns="http://www.w3.org/2000/svg" xmlns:xlink="http://www.w3.org/1999/xlink" x="0px" y="0px"
	 width="100px" height="60px" viewBox="0 0 100 60" enable-background="new 0 0 100 60" xml:space="preserve">
<path fill="#47C8F5" d="M91.981,2.825c0,0-1.624,1.157-3.365,1.011"/>
<path fill="#47C8F5" d="M85.061,2.343c-2.678,0.088-5.166,1.727-4.878,5.927c0,0-4.033,1.229-10.312-4.741
	c0,0-2.02,3.292,1.551,6.394c0,0-1.002,0.278-2.34-0.468c0,0-0.718,2.78,3.877,4.887c0,0-1.551,0.44-2.254,0
	c0,0,0.41,2.956,4.536,3.659c0,0-2.122,2.107-7.141,2.049c0,0,10.438,5.342,17.675-1.523c5.168-4.9,4.45-11.441,4.45-11.441
	s1.521-0.469,2.43-2.123c0,0-1.727,0.542-2.722,0.454c0,0,1.901-1.186,2.048-2.591"/>
<path fill="#47C8F5" d="M88.616,3.836c0,0-1.294-1.567-3.556-1.493"/>
<line fill="#3D5B9A" x1="56.16" y1="4.676" x2="56.16" y2="1.035"/>
<path fill-rule="evenodd" clip-rule="evenodd" fill="#6789C6" d="M29.753,18.555c-0.466,0.785-1.024,1.502-1.726,2.1
	c-3.895-3.033-3.156-2.449-3.514-2.768c1.275-0.975,1.76-1.881,2.125-3.104c0.073-0.244,0.052-0.338-0.252-0.336
	c-1.801,0.016-3.603,0.008-5.404,0.006c-0.382,0-0.382,0-0.382-0.393c0-1.222,0.006-2.443-0.006-3.665
	c-0.002-0.236,0.039-0.326,0.305-0.325c3.322,0.009,6.646,0.007,9.97,0.003c0.179,0,0.292,0.013,0.323,0.231
	C31.606,13.212,31.274,15.989,29.753,18.555"/>
<path fill-rule="evenodd" clip-rule="evenodd" fill="#4DB74B" d="M28.027,20.655c-1.193,1.133-2.604,1.887-4.188,2.289
	c-3.738,0.943-7.185,0.348-10.244-2.068c-1.265-0.998-2.26-2.23-2.961-3.689c1.217-0.945,2.435-1.891,3.652-2.838
	c0.335,0.852,0.752,1.656,1.37,2.34c2.514,2.775,6.135,2.863,8.858,1.199C24.854,18.192,24.128,17.616,28.027,20.655"/>
<path fill-rule="evenodd" clip-rule="evenodd" fill="#FFCE0C" d="M14.286,14.35c-1.217,0.943-2.435,1.891-3.652,2.836
	c-1.576-2.93-1.609-7.043,0.009-10.017c4.042,3.114,3.429,2.649,3.67,2.807C13.825,11.431,13.849,12.889,14.286,14.35"/>
<path fill-rule="evenodd" clip-rule="evenodd" fill="#E23131" d="M18.733,1.165c3.433-0.548,6.504,0.261,9.158,2.546
	c0.168,0.145,0.209,0.229,0.026,0.408"/>
<path fill-rule="evenodd" clip-rule="evenodd" fill="#E23131" d="M27.918,4.119C24.79,7.182,25.03,7.16,24.803,6.952
	c-3.14-2.877-8.736-1.785-10.49,3.024c-0.24-0.156,0.39,0.322-3.67-2.806c1.129-2.486,4.054-5.361,8.09-6.005"/>
<path fill="#FFFFFF" d="M87.616,37.837c0,0-1.294-1.568-3.556-1.494c-2.678,0.088-5.166,1.728-4.878,5.928
	c0,0-4.033,1.229-10.312-4.741c0,0-2.02,3.292,1.551,6.394c0,0-1.002,0.278-2.34-0.468c0,0-0.718,2.78,3.877,4.888
	c0,0-1.551,0.439-2.254,0c0,0,0.41,2.955,4.536,3.658c0,0-2.122,2.107-7.141,2.049c0,0,10.438,5.342,17.675-1.523
	c5.168-4.9,4.45-11.441,4.45-11.441s1.521-0.469,2.43-2.123c0,0-1.727,0.543-2.722,0.455c0,0,1.901-1.187,2.048-2.592
	C90.981,36.825,89.357,37.982,87.616,37.837"/>
<path fill="#FFFFFF" d="M55.782,38.677v-3.642c0,0-3.724-0.035-3.977-0.035c-1.682,0-4.102,1.914-4.102,4.085v3.898h-3.486v4.133
	h3.439V57.37h4.07V47.069h3.598l0.458-4.039h-4.008v-2.967c0-0.711,0.536-1.408,1.341-1.408
	C53.652,38.655,55.782,38.677,55.782,38.677"/>
<path fill-rule="evenodd" clip-rule="evenodd" fill="#FFFFFF" d="M28.753,52.556c-0.466,0.785-1.024,1.502-1.726,2.1
	c-3.895-3.033-3.156-2.449-3.514-2.768c1.275-0.975,1.76-1.881,2.125-3.104c0.073-0.244,0.052-0.338-0.252-0.336
	c-1.801,0.016-3.603,0.008-5.404,0.006c-0.382,0-0.382,0-0.382-0.393c0-1.223,0.006-2.443-0.006-3.665
	c-0.002-0.235,0.039-0.326,0.305-0.325c3.322,0.01,6.646,0.008,9.97,0.004c0.179,0,0.292,0.012,0.323,0.23
	C30.606,47.212,30.274,49.989,28.753,52.556"/>
<path fill-rule="evenodd" clip-rule="evenodd" fill="#FFFFFF" d="M27.027,54.655c-1.193,1.133-2.604,1.887-4.188,2.289
	c-3.738,0.943-7.185,0.348-10.244-2.068c-1.265-0.998-2.26-2.23-2.961-3.689c1.217-0.945,2.435-1.891,3.652-2.838
	c0.335,0.852,0.752,1.656,1.37,2.34c2.514,2.775,6.135,2.863,8.858,1.199C23.854,52.192,23.128,51.616,27.027,54.655"/>
<path fill-rule="evenodd" clip-rule="evenodd" fill="#FFFFFF" d="M13.286,48.351c-1.217,0.943-2.435,1.891-3.652,2.836
	c-1.576-2.93-1.609-7.044,0.009-10.018c4.042,3.114,3.429,2.649,3.67,2.808C12.825,45.431,12.849,46.89,13.286,48.351"/>
<path fill-rule="evenodd" clip-rule="evenodd" fill="#FFFFFF" d="M26.918,38.118c-3.128,3.064-2.888,3.041-3.115,2.834
	c-3.14-2.877-8.736-1.785-10.49,3.023c-0.24-0.156,0.39,0.322-3.67-2.806c1.129-2.485,4.054-5.36,8.09-6.005
	c3.433-0.549,6.504,0.261,9.158,2.546C27.06,37.856,27.101,37.94,26.918,38.118"/>
<path fill="#3D5B9A" d="M56.16,4.676V1.035c0,0-3.724-0.035-3.977-0.035c-1.682,0-4.102,1.914-4.102,4.085v3.898h-3.486v4.133h3.439
	V23.37h4.07V13.069h3.598L56.16,9.03h-4.008V6.064c0-0.712,0.536-1.409,1.341-1.409C54.03,4.655,56.16,4.676,56.16,4.676"/>
</svg>
