<?xml version="1.0" encoding="utf-8"?>
<!-- Generator: Adobe Illustrator 24.1.1, SVG Export Plug-In . SVG Version: 6.00 Build 0)  -->
<svg version="1.1" id="Layer_1" xmlns="http://www.w3.org/2000/svg" xmlns:xlink="http://www.w3.org/1999/xlink" x="0px" y="0px"
	 viewBox="0 0 550 500" style="enable-background:new 0 0 550 500;" xml:space="preserve">
<style type="text/css">
	.st0{fill:none;stroke:#005793;stroke-width:2;stroke-miterlimit:10;stroke-dasharray:7,7;}
	.st1{fill:url(#SVGID_1_);}
	.st2{fill:url(#SVGID_2_);}
	.st3{fill:#003A7F;}
	.st4{fill:#005793;}
	.st5{fill:#003560;}
	.st6{fill:#FFDB60;}
	.st7{opacity:0.25;fill:#FFFFFF;enable-background:new    ;}
	.st8{fill:#FFFFFF;}
	.st9{fill:#0A9C81;}
	.st10{fill:#83D175;}
	.st11{fill:#007CC1;}
	.st12{opacity:0.56;fill:#DD7E17;enable-background:new    ;}
	.st13{fill:#005078;}
	.st14{fill:#014163;}
	.st15{fill:none;stroke:#003A7F;stroke-width:2.2503;stroke-miterlimit:10;}
	.st16{fill:#004368;}
	.st17{fill:#F2C12E;}
	.st18{fill:#DD7E17;}
	.st19{fill:none;stroke:#BA4219;stroke-width:1.1252;stroke-miterlimit:10;}
	.st20{fill:#034877;}
	.st21{fill:#FFBB80;}
	.st22{fill:#101010;}
	.st23{fill:#FFDCA0;}
	.st24{fill:#51555D;}
	.st25{fill:#0C8E59;}
	.st26{fill:#77C26C;}
	.st27{fill:#EA394A;}
	.st28{fill:#D61A36;}
	.st29{fill:#F4A640;}
	.st30{fill:#ADCFD8;}
	.st31{fill:#55769F;}
	.st32{fill:#DAEEF7;}
	.st33{fill:#FEB546;}
	.st34{fill:#E03268;}
	.st35{fill:#FF5B7E;}
	.st36{fill:#BADCEF;}
	.st37{fill:#02CCC0;}
	.st38{fill:#06BFAD;}
	.st39{opacity:0.5;fill:#55769F;enable-background:new    ;}
	.st40{fill:#A9FFFD;}
	.st41{fill:#FBCF53;}
	.st42{clip-path:url(#SVGID_5_);fill:#FAB21F;}
	.st43{fill:none;stroke:#FFFFFF;stroke-width:4;stroke-miterlimit:10;}
	.st44{fill:none;stroke:#FFFFFF;stroke-width:3.9998;stroke-miterlimit:9.9995;}
	.st45{fill:#FFFFFF;stroke:#FFFFFF;stroke-width:4;stroke-miterlimit:10;}
	.st46{fill:none;stroke:#FFFFFF;stroke-width:5;stroke-miterlimit:10;}
	.st47{enable-background:new    ;}
	.st48{fill:none;}
	.st49{font-family:'Lato-Regular';}
	.st50{font-size:42.6644px;}
</style>
<g>
	<path class="st0" d="M486.26,325.5c20.69-5.53,10.28-11.6,36.63-26.06c31.76-17.44-1.22-62.26,5.8-72.61
		c15.97-23.53,15.87-70.12-9.86-77.5c-22.48-6.45-25.53,7.38-53.96-12.52c-16.75-11.73-16.19-56.31-34.81-65.16
		c-23.93-11.38-42.74-4.53-66.63,4.82c-30.11,11.79-110.64-0.32-120.31,1.73c-28.64,6.07-44.08,38.92-81.67,41.81
		c-51.32,3.95-46.46,36.42-59.28,53.09c-5.37,6.98-50.92,21.02-42.37,77.66c2.42,16.04-40.42,39.44-44.6,55.13
		c-5.14,19.33-2.53,38.76,6.34,56.8c8.87,18.05,15,37.19,30.56,50.45"/>
	<g>
		<g>
			<g>
				<g>
					
						<linearGradient id="SVGID_1_" gradientUnits="userSpaceOnUse" x1="3068.6279" y1="127.0587" x2="3124.3081" y2="127.0587" gradientTransform="matrix(-1 0 0 -1 3222.2881 502)">
						<stop  offset="0" style="stop-color:#FFFFFF"/>
						<stop  offset="0.2841" style="stop-color:#F9FBFF"/>
						<stop  offset="0.6724" style="stop-color:#E7EFFF"/>
						<stop  offset="1" style="stop-color:#D3E2FF"/>
					</linearGradient>
					<path class="st1" d="M153.46,262.84c-2.7,4.07-13.34,8.21-27.65,8.21s-24.1-3.56-27.65-8.21
						c1.58,13.76,12.41,115.36,0.01,217.44c-0.12,0.53-0.19,1.07-0.19,1.61c0,7.82,55.8,5.85,55.68,0
						c-0.01-0.55-0.08-1.08-0.19-1.61C141.05,378.2,151.88,276.6,153.46,262.84z"/>
					
						<linearGradient id="SVGID_2_" gradientUnits="userSpaceOnUse" x1="3096.478" y1="233.2782" x2="3096.478" y2="245.8386" gradientTransform="matrix(-1 0 0 -1 3222.2881 502)">
						<stop  offset="0" style="stop-color:#FFFFFF"/>
						<stop  offset="0.2841" style="stop-color:#F9FBFF"/>
						<stop  offset="0.6724" style="stop-color:#E7EFFF"/>
						<stop  offset="1" style="stop-color:#D3E2FF"/>
					</linearGradient>
					<path class="st2" d="M125.81,251.49c-15.37,0-27.84,4.36-27.84,9.75c0,0,0.07,0.38,0.19,1.1c1.56,4.87,13.34,8.65,27.65,8.65
						s26.09-3.78,27.65-8.65c0.12-0.71,0.19-1.1,0.19-1.1C153.65,255.86,141.18,251.49,125.81,251.49z"/>
				</g>
				<ellipse class="st3" cx="125.81" cy="261.24" rx="19.17" ry="5.38"/>
			</g>
			<g>
				<path class="st4" d="M147.6,357.78c-5.1,3.26-12.96,5.36-21.79,5.36s-16.69-2.1-21.79-5.36c0.05,7.18,0.03,14.58-0.08,22.16
					c5.1,3.3,12.99,5.42,21.87,5.42s16.78-2.12,21.87-5.42C147.57,372.36,147.55,364.96,147.6,357.78z"/>
			</g>
		</g>
		<path class="st5" d="M147.6,357.78c0,0,16.51-9.03,20.18-31.15c0,0,3.51,11.65,1.13,17.45c0,0,4.42-1.21,7.1-5.76
			c0,0-3.47,14.32-14.2,22.14c0,0,6.13,0.24,11.59,6.52c0,0-4.66-0.98-9.71,0c0,0,1.81,3.22,4.11,5.91c0,0-11.01-4.32-20.11,7.05
			L147.6,357.78z"/>
	</g>
	<g>
		<g>
			<g>
				<path class="st6" d="M378.61,158.3c0.03-42.3-34.24-76.61-76.53-76.64c-42.3-0.03-76.61,34.24-76.64,76.53
					c-0.01,17.91,10.59,37.49,16.44,47.43c22.57,38.36,27.23,44.18,28.9,68c13.3,0.01,52.13,0.04,62.34,0.04
					c1.42-22.96,7.8-31.66,28.99-67.96C373.42,186.32,378.59,176.22,378.61,158.3z"/>
				
					<ellipse transform="matrix(0.9631 -0.269 0.269 0.9631 -27.6956 95.0564)" class="st7" cx="333" cy="148.58" rx="39.36" ry="55.02"/>
				<g>
					<path class="st8" d="M367.3,127.51c3.45,6.01,5.78,12.7,7.03,19.61c1.28,6.91,1.41,14.07,0.4,21.06c-1,7-3.16,13.83-6.35,20.09
						c-3.16,6.27-7.31,12-12.26,16.85c3.57-5.94,6.77-11.94,9.26-18.2c2.46-6.26,4.23-12.73,5.18-19.34
						c0.96-6.6,1.09-13.32,0.52-20.02C370.48,140.86,369.13,134.19,367.3,127.51z"/>
				</g>
			</g>
			<rect x="270.6" y="274.51" class="st9" width="61.21" height="15.88"/>
			<polygon class="st9" points="318,313.26 284.36,313.24 270.59,297.35 331.79,297.39 			"/>
			<g>
				<polygon class="st9" points="331.79,297.39 270.59,297.35 275.46,302.97 326.91,303.01 				"/>
				<polygon class="st9" points="284.36,313.24 318,313.26 322.51,308.07 279.86,308.04 				"/>
			</g>
			<path class="st10" d="M339.08,278.39l-75.51-0.05c-1.28,0-2.31-1.04-2.31-2.31v-7.14c0-1.28,1.04-2.31,2.31-2.31l75.51,0.05
				c1.28,0,2.31,1.04,2.31,2.31v7.14C341.39,277.36,340.35,278.4,339.08,278.39z"/>
			<path class="st10" d="M335.17,299.82l-67.72-0.05c-1.27,0-2.31-1.04-2.31-2.31v-7.14c0-1.28,1.04-2.31,2.31-2.31l67.72,0.05
				c1.28,0,2.31,1.04,2.31,2.31l-0.01,7.14C337.48,298.79,336.45,299.82,335.17,299.82z"/>
			<path class="st9" d="M287.82,319.49c0,0,3.4,7.48,14.62,7.49c11.22,0.01,14.29-7.47,14.29-7.47L287.82,319.49z"/>
			<path class="st10" d="M318.3,310.82l-32.82-0.02c-3.25,0-5.88,2.17-5.88,4.85l0,0c0,2.68,2.63,4.86,5.87,4.86l32.82,0.02
				c3.25,0,5.88-2.17,5.88-4.85l0,0C324.18,313,321.55,310.82,318.3,310.82z"/>
			<g>
				<path class="st8" d="M283.04,196.41h-1.47c3.2,22.01,5.09,48.35,5.99,63.24c0.15,2.43,0.27,4.56,0.36,6.32
					c0.48,0.08,0.97,0.15,1.48,0.22c-0.1-1.84-0.23-4.13-0.39-6.76C288.11,244.54,286.22,218.4,283.04,196.41z"/>
				<path class="st11" d="M316.5,229.41c-0.73,11.22-1.02,21.6-1.13,29.26c-0.04,2.7-0.05,5.05-0.06,6.99c0.51-0.06,1-0.13,1.47-0.2
					c0.01-1.84,0.02-4.06,0.06-6.58c0.19-12.8,0.9-33.45,3.33-53.04h-1.52C317.78,212.99,317.05,220.85,316.5,229.41z"/>
				<g>
					<path class="st9" d="M333.47,141.8c-5.61-0.66-10.68,3.36-11.34,8.96c-0.66,5.61,3.36,10.68,8.96,11.34
						c5.61,0.66,10.68-3.36,11.34-8.96C343.09,147.53,339.08,142.45,333.47,141.8z"/>
					<path class="st9" d="M354.9,152.52l-3.82-0.45c0.01-1.92-0.27-3.79-0.8-5.56l3.53-1.51c1.05-0.45,1.54-1.67,1.09-2.72
						s-1.66-1.54-2.72-1.09l-3.54,1.51c-0.95-1.69-2.16-3.22-3.58-4.54l2.29-3.09c0.68-0.92,0.49-2.21-0.43-2.89
						c-0.92-0.68-2.21-0.49-2.9,0.43l-2.29,3.09c-1.6-0.93-3.35-1.64-5.23-2.07l0.45-3.82c0.13-1.14-0.68-2.16-1.81-2.3
						c-1.13-0.13-2.16,0.68-2.3,1.81l-0.45,3.82c-1.92-0.01-3.79,0.27-5.56,0.8l-1.51-3.53c-0.45-1.05-1.67-1.54-2.72-1.09
						s-1.54,1.67-1.09,2.72l1.51,3.54c-1.69,0.95-3.22,2.17-4.54,3.58l-3.09-2.29c-0.92-0.68-2.21-0.49-2.89,0.43
						c-0.68,0.92-0.49,2.21,0.43,2.89l3.09,2.29c-0.93,1.6-1.64,3.35-2.07,5.23l-3.82-0.45c-1.13-0.13-2.16,0.68-2.3,1.81
						c-0.13,1.14,0.68,2.16,1.81,2.3l3.82,0.45c-0.01,1.92,0.27,3.79,0.8,5.56l-3.53,1.51c-1.05,0.45-1.54,1.67-1.09,2.72
						s1.66,1.54,2.72,1.09l3.54-1.51c0.96,1.69,2.17,3.22,3.59,4.54l-2.29,3.09c-0.68,0.92-0.49,2.21,0.43,2.89
						c0.92,0.68,2.21,0.49,2.89-0.43l2.29-3.09c1.6,0.93,3.35,1.64,5.23,2.07l-0.45,3.82c-0.13,1.13,0.68,2.16,1.82,2.3
						c1.13,0.13,2.16-0.68,2.3-1.81l0.45-3.82c1.92,0.02,3.79-0.27,5.56-0.8l1.51,3.54c0.45,1.05,1.67,1.54,2.72,1.09
						s1.54-1.67,1.09-2.71l-1.51-3.54c1.69-0.95,3.22-2.17,4.54-3.59l3.09,2.29c0.92,0.68,2.21,0.49,2.89-0.43
						c0.68-0.92,0.49-2.21-0.43-2.89l-3.09-2.29c0.93-1.6,1.64-3.35,2.07-5.23l3.82,0.45c1.14,0.13,2.16-0.68,2.3-1.81
						C356.85,153.68,356.04,152.65,354.9,152.52z M330.55,166.78c-8.19-0.96-14.05-8.38-13.09-16.57s8.38-14.05,16.57-13.09
						s14.05,8.38,13.09,16.57S338.74,167.74,330.55,166.78z"/>
				</g>
				<g>
					<path class="st8" d="M314.11,170.78l-2.5-0.16c-0.01-0.83-0.07-1.66-0.15-2.47l2.46-0.45c1.25-0.23,2.07-1.43,1.84-2.67
						c-0.23-1.25-1.43-2.07-2.67-1.84l-2.46,0.45c-0.31-1.15-0.68-2.28-1.12-3.37l2.22-1.12c1.13-0.57,1.59-1.95,1.02-3.08
						s-1.95-1.59-3.08-1.02l-2.23,1.12c-0.47-0.78-0.99-1.53-1.53-2.26l1.89-1.65c0.95-0.84,1.05-2.29,0.21-3.24
						c-0.84-0.95-2.29-1.05-3.24-0.21l-1.89,1.65c-0.61-0.59-1.24-1.15-1.89-1.68l1.42-2.07c0.72-1.04,0.46-2.47-0.59-3.19
						c-1.04-0.72-2.47-0.46-3.19,0.59l-1.42,2.06c-0.91-0.53-1.85-1-2.82-1.43l0.82-2.36c0.41-1.2-0.22-2.51-1.42-2.92
						s-2.51,0.22-2.92,1.42l-0.82,2.36c-0.92-0.24-1.85-0.44-2.81-0.59l0.19-2.49c0.09-1.26-0.85-2.37-2.12-2.46
						c-1.26-0.09-2.37,0.85-2.46,2.12l-0.19,2.5c-1.16,0.01-2.3,0.08-3.43,0.22l-0.51-2.45c-0.26-1.24-1.47-2.04-2.71-1.78
						s-2.04,1.47-1.78,2.71l0.51,2.45c-0.81,0.24-1.6,0.51-2.38,0.82l-1.09-2.25c-0.55-1.14-1.93-1.62-3.07-1.06
						c-1.14,0.55-1.62,1.93-1.06,3.07l1.09,2.26c-0.92,0.54-1.8,1.13-2.65,1.76l-1.66-1.88c-0.84-0.95-2.29-1.04-3.24-0.2
						c-0.95,0.84-1.04,2.29-0.21,3.24l1.66,1.88c-0.66,0.68-1.29,1.39-1.88,2.14l-2.08-1.39c-1.05-0.7-2.48-0.42-3.18,0.63
						s-0.42,2.48,0.63,3.18l2.07,1.39c-0.45,0.8-0.85,1.62-1.22,2.46l-2.35-0.82c-1.2-0.42-2.51,0.22-2.92,1.41
						c-0.42,1.2,0.22,2.5,1.41,2.92l2.36,0.82c-0.27,1.03-0.49,2.09-0.64,3.16l-2.49-0.16c-1.26-0.08-2.36,0.88-2.44,2.15
						c-0.08,1.26,0.88,2.35,2.14,2.44l2.5,0.16c0.01,0.83,0.07,1.66,0.15,2.47l-2.46,0.45c-1.25,0.23-2.07,1.43-1.84,2.67
						c0.23,1.25,1.43,2.07,2.67,1.84l2.46-0.45c0.31,1.15,0.68,2.28,1.12,3.37l-2.22,1.12c-1.13,0.57-1.59,1.95-1.02,3.08
						c0.57,1.13,1.95,1.59,3.08,1.02l2.23-1.12c0.47,0.78,0.99,1.53,1.53,2.26l-1.89,1.65c-0.95,0.84-1.05,2.29-0.21,3.24
						c0.84,0.95,2.29,1.05,3.24,0.21l1.89-1.65c0.61,0.59,1.24,1.15,1.89,1.68l-1.42,2.07c-0.72,1.04-0.46,2.47,0.59,3.19
						c1.04,0.72,2.47,0.45,3.19-0.59l1.42-2.06c0.91,0.53,1.85,1,2.82,1.43l-0.82,2.36c-0.41,1.2,0.22,2.5,1.42,2.92
						c1.2,0.41,2.5-0.22,2.92-1.42l0.82-2.36c0.92,0.24,1.85,0.44,2.81,0.58l-0.18,2.49c-0.09,1.26,0.85,2.37,2.12,2.46
						c1.26,0.09,2.36-0.85,2.46-2.12l0.19-2.5c1.16-0.01,2.3-0.08,3.43-0.22l0.51,2.45c0.26,1.24,1.47,2.04,2.71,1.78
						s2.04-1.47,1.78-2.71l-0.51-2.45c0.81-0.24,1.6-0.51,2.38-0.82l1.09,2.25c0.55,1.14,1.93,1.62,3.07,1.06
						c1.14-0.55,1.62-1.93,1.06-3.07l-1.09-2.26c0.92-0.54,1.8-1.13,2.65-1.76l1.66,1.88c0.84,0.95,2.29,1.04,3.24,0.21
						c0.95-0.84,1.04-2.29,0.21-3.24l-1.66-1.88c0.66-0.68,1.29-1.39,1.88-2.14l2.08,1.39c1.05,0.71,2.48,0.42,3.18-0.63
						c0.7-1.05,0.42-2.48-0.63-3.18l-2.07-1.39c0.45-0.8,0.85-1.62,1.22-2.46l2.35,0.82c1.2,0.42,2.51-0.22,2.92-1.41
						c0.42-1.2-0.22-2.5-1.41-2.92l-2.36-0.82c0.27-1.03,0.49-2.09,0.64-3.16l2.49,0.16c1.26,0.08,2.36-0.88,2.44-2.14
						C316.34,171.95,315.37,170.86,314.11,170.78z M286.97,146.4c7.22,1.2,13.38,5.49,17.1,11.45l-9.97,5.01
						c-1.91-2.61-4.71-4.54-7.97-5.33L286.97,146.4z M282.39,146.07l-0.83,11.12c-3.49,0.31-6.62,1.92-8.9,4.34l-9.27-6.21
						C267.91,149.77,274.74,146.2,282.39,146.07z M259.52,180.23c-1.03-2.62-1.63-5.46-1.71-8.43l0.29-4.58
						c0.45-2.89,1.39-5.62,2.74-8.1l9.27,6.21c-0.37,0.82-0.67,1.69-0.88,2.59l-0.29,4.58c0.09,0.93,0.28,1.84,0.55,2.71
						L259.52,180.23z M278.69,195.79c-7.22-1.2-13.38-5.49-17.11-11.45l9.97-5.01c1.91,2.62,4.71,4.54,7.96,5.33L278.69,195.79z
						 M282.76,177.34c-3.45-0.04-6.21-2.86-6.17-6.31c0.04-3.45,2.86-6.21,6.31-6.17c3.45,0.04,6.21,2.86,6.17,6.31
						C289.03,174.61,286.21,177.38,282.76,177.34z M283.27,196.12L284.1,185c3.49-0.31,6.62-1.92,8.9-4.34l9.27,6.21
						C297.75,192.42,290.92,195.99,283.27,196.12z M307.56,174.96c-0.45,2.89-1.39,5.62-2.74,8.1l-9.27-6.21
						c0.37-0.82,0.67-1.69,0.88-2.59l0.29-4.58c-0.09-0.93-0.28-1.84-0.55-2.71l9.97-5.01c1.03,2.62,1.63,5.46,1.71,8.43
						L307.56,174.96z"/>
					<path class="st8" d="M282.87,168.01c-1.7-0.02-3.1,1.35-3.12,3.05s1.35,3.1,3.05,3.12c1.71,0.02,3.1-1.35,3.12-3.05
						C285.94,169.42,284.57,168.03,282.87,168.01z"/>
				</g>
				<g>
					<path class="st11" d="M314.99,192.27c-1.46-0.18-2.79,0.85-2.97,2.31c-0.18,1.46,0.85,2.79,2.31,2.97
						c1.46,0.18,2.79-0.85,2.97-2.31C317.48,193.78,316.45,192.45,314.99,192.27z"/>
					<path class="st6" d="M332.94,146.73c-2.88-0.36-5.51,1.68-5.87,4.56s1.68,5.51,4.57,5.87c2.88,0.36,5.51-1.68,5.87-4.57
						C337.86,149.72,335.82,147.09,332.94,146.73z"/>
					<path class="st11" d="M339.47,196.11l-2.77-0.35c0.07-1.65-0.05-3.26-0.34-4.83l2.69-0.73c1.01-0.28,1.6-1.32,1.32-2.32
						c-0.27-1.01-1.31-1.6-2.32-1.32l-2.69,0.74c-0.57-1.54-1.3-3.01-2.19-4.37l2.21-1.71c0.82-0.64,0.97-1.83,0.33-2.65
						c-0.64-0.82-1.83-0.97-2.65-0.33l-2.2,1.71c-1.09-1.18-2.32-2.25-3.66-3.17l1.38-2.42c0.52-0.91,0.2-2.06-0.71-2.58
						s-2.06-0.2-2.58,0.71l-1.38,2.42c-1.46-0.67-3.01-1.19-4.64-1.54l0.35-2.77c0.13-1.04-0.61-1.98-1.64-2.11
						c-1.04-0.13-1.98,0.6-2.11,1.64l-0.35,2.77c-1.64-0.07-3.26,0.05-4.83,0.34l-0.73-2.69c-0.28-1.01-1.32-1.6-2.32-1.33
						c-1.01,0.28-1.6,1.32-1.32,2.32l0.74,2.69c-1.54,0.57-3.01,1.3-4.37,2.19l-1.71-2.2c-0.64-0.82-1.83-0.97-2.65-0.33
						s-0.97,1.83-0.33,2.65l1.71,2.21c-1.18,1.09-2.25,2.32-3.17,3.66l-2.42-1.38c-0.91-0.52-2.06-0.2-2.58,0.71
						s-0.2,2.06,0.71,2.58l2.42,1.38c-0.67,1.46-1.19,3.01-1.54,4.64l-2.77-0.35c-1.04-0.13-1.98,0.61-2.11,1.64
						c-0.13,1.04,0.61,1.98,1.64,2.11l2.77,0.35c-0.07,1.65,0.05,3.26,0.34,4.83l-2.69,0.74c-1.01,0.28-1.6,1.32-1.32,2.32
						c0.28,1.01,1.32,1.6,2.32,1.32l2.69-0.74c0.57,1.54,1.3,3.01,2.19,4.37l-2.21,1.71c-0.82,0.64-0.97,1.83-0.33,2.65
						c0.64,0.82,1.83,0.97,2.65,0.33l2.2-1.71c1.1,1.18,2.32,2.25,3.66,3.17l-1.38,2.42c-0.52,0.91-0.2,2.06,0.71,2.58
						s2.06,0.2,2.58-0.71l1.38-2.42c1.46,0.67,3.01,1.19,4.64,1.54l-0.35,2.77c-0.13,1.04,0.61,1.98,1.64,2.11
						c1.03,0.13,1.98-0.61,2.11-1.64l0.35-2.77c1.65,0.07,3.26-0.05,4.83-0.34l0.74,2.69c0.28,1.01,1.32,1.6,2.32,1.32
						c1.01-0.28,1.6-1.32,1.32-2.32l-0.74-2.69c1.54-0.57,3.01-1.3,4.37-2.19l1.72,2.2c0.64,0.82,1.83,0.97,2.65,0.33
						s0.97-1.83,0.33-2.65l-1.71-2.2c1.18-1.09,2.25-2.32,3.17-3.66l2.42,1.38c0.91,0.52,2.06,0.2,2.58-0.71s0.2-2.06-0.7-2.58
						l-2.42-1.38c0.68-1.46,1.19-3.02,1.54-4.64l2.77,0.35c1.04,0.13,1.98-0.61,2.11-1.64C341.24,197.18,340.5,196.24,339.47,196.11
						z M300.83,185.46c1.24-1.82,3.73-2.29,5.55-1.04c1.82,1.24,2.29,3.73,1.04,5.55c-1.24,1.82-3.73,2.29-5.55,1.04
						C300.05,189.76,299.58,187.28,300.83,185.46z M304.79,203.93c-2,0.93-4.37,0.07-5.31-1.92c-0.93-2-0.07-4.37,1.92-5.31
						c2-0.93,4.37-0.07,5.31,1.92C307.65,200.62,306.79,203,304.79,203.93z M316.74,178.28c2.19,0.27,3.74,2.27,3.46,4.46
						c-0.27,2.19-2.27,3.74-4.46,3.46c-2.19-0.27-3.74-2.27-3.46-4.46C312.56,179.56,314.55,178.01,316.74,178.28z M312.58,211.54
						c-2.19-0.27-3.74-2.27-3.46-4.46c0.27-2.19,2.27-3.74,4.46-3.47s3.74,2.27,3.46,4.46
						C316.76,210.26,314.77,211.81,312.58,211.54z M314.04,199.84c-2.72-0.34-4.66-2.83-4.32-5.55s2.83-4.66,5.55-4.32
						s4.66,2.83,4.32,5.55C319.25,198.25,316.77,200.18,314.04,199.84z M324.53,185.89c2-0.93,4.37-0.07,5.31,1.92
						c0.93,2,0.07,4.37-1.92,5.31c-2,0.93-4.37,0.07-5.31-1.92C321.67,189.2,322.53,186.82,324.53,185.89z M328.49,204.36
						c-1.24,1.82-3.73,2.29-5.55,1.04c-1.82-1.24-2.29-3.73-1.04-5.55c1.24-1.82,3.73-2.29,5.55-1.04
						C329.27,200.06,329.74,202.54,328.49,204.36z"/>
				</g>
				<g>
					<polygon class="st9" points="339.18,147.85 334.54,144.8 340.24,136.43 344.89,139.49 					"/>
				</g>
				<g>
					<polygon class="st9" points="325.01,167.24 320.36,164.18 326.07,155.82 330.72,158.87 					"/>
				</g>
				<g>
					<polygon class="st9" points="337.23,158.65 340.26,153.99 348.65,159.66 345.62,164.32 					"/>
				</g>
				<g>
					<polygon class="st9" points="317.06,144.56 320.09,139.9 328.49,145.57 325.46,150.23 					"/>
				</g>
			</g>
		</g>
		<g>
			<rect x="208.83" y="70.02" class="st3" width="1.21" height="55.08"/>
			<path class="st12" d="M341.18,92.42c-9.3-2.89-27.71-25.93-47.75-25.95c-25.96-0.02-47.44,19.18-51.01,44.17
				C263.48,114.74,312.69,107.33,341.18,92.42z"/>
			<polygon class="st13" points="242.26,38.75 183.78,91.39 185.67,93.28 299.58,68 385.69,14.52 385.12,12.4 			"/>
			<polygon class="st14" points="242.26,38.75 244.16,40.65 185.67,93.28 183.78,91.39 			"/>
			<polygon class="st15" points="242.26,38.75 183.78,91.39 185.67,93.28 299.58,68 385.69,14.52 385.12,12.4 			"/>
			<polygon class="st4" points="244.16,40.65 185.67,93.28 301.47,69.89 385.69,14.52 			"/>
			<path class="st16" d="M236.06,47.94l-50.38,45.35l115.8-23.39l44.12-29C309.52,54.34,250.76,60.26,236.06,47.94z"/>
			<path class="st4" d="M323.78,42.15l12.8,47.75c0,0-42.64,19.39-93.72,18.12c-3.24-14.37-6.41-32.55-7.91-40.81
				C249.34,53.7,284,42.08,323.78,42.15z"/>
			<path class="st17" d="M207.95,135.16c-2.33,1.02-3.63,4.67-3.5,8.67c0.12,4-0.25,6.95-0.92,8.92c1.41,0.55,2.95,0.12,2.95,0.12
				s0.79-3.89,0.79-10.98c0.8,5.06,0.19,10.07-0.17,13.01c1.17,0.86,1.97,0.06,1.97,0.06s0.24-8.15,0.31-11.68
				c0.36,5.7,0.37,11.19,0.37,11.19s1.17,0.43,1.41-0.49c-0.06-3.81,0-7.13,0-7.13s0.49,5.47,0.74,6.46
				c1.11,0.43,2.77,0.25,3.2-0.37c-0.55-1.29-2.28-12.05-2.34-13.84c1.41,7.01,2.15,11.62,2.77,12.54c1.05,0.49,2.58-1.05,2.58-1.05
				s-0.92-0.31-1.23-2.64c-0.31-2.34-2.49-12.05-4.98-12.85C210.35,134.6,208.93,134.73,207.95,135.16z"/>
			<path class="st18" d="M214.03,137.88c-0.66-1.45-1.4-2.54-2.16-2.78c-1.54-0.49-2.95-0.37-3.94,0.06
				c-1.94,0.85-3.17,3.55-3.45,6.74C206.99,139.54,210.12,137.77,214.03,137.88z"/>
			<path class="st19" d="M207.95,135.16c-2.33,1.02-3.63,4.67-3.5,8.67c0.12,4-0.25,6.95-0.92,8.92c1.41,0.55,2.95,0.12,2.95,0.12
				s0.79-3.89,0.79-10.98c0.8,5.06,0.19,10.07-0.17,13.01c1.17,0.86,1.97,0.06,1.97,0.06s0.24-8.15,0.31-11.68
				c0.36,5.7,0.37,11.19,0.37,11.19s1.17,0.43,1.41-0.49c-0.06-3.81,0-7.13,0-7.13s0.49,5.47,0.74,6.46
				c1.11,0.43,2.77,0.25,3.2-0.37c-0.55-1.29-2.28-12.05-2.34-13.84c1.41,7.01,2.15,11.62,2.77,12.54c1.05,0.49,2.58-1.05,2.58-1.05
				s-0.92-0.31-1.23-2.64c-0.31-2.34-2.49-12.05-4.98-12.85C210.35,134.6,208.93,134.73,207.95,135.16z"/>
			<path class="st3" d="M211.59,136.41h-4.09c-0.65,0-1.18-0.53-1.18-1.18v-10.96c0-0.65,0.53-1.18,1.18-1.18h4.09
				c0.65,0,1.18,0.53,1.18,1.18v10.96C212.78,135.88,212.25,136.41,211.59,136.41z"/>
			<path class="st11" d="M324.02,47.57l11.13,41.33c0,0-18.68,8.11-33.59,10.76C317.6,82.48,324.02,47.57,324.02,47.57z"/>
			<path class="st11" d="M318.98,28.02l62.53-11.87l-34.55,22.47C346.96,38.62,361.58,21.66,318.98,28.02z"/>
			<path class="st11" d="M240.02,87.88l3.95,19.43c0,0,17.34,0.39,30.94-1.97c-12.61,0.2-27.2,0-29.37-1.58
				C243.58,98.24,240.02,87.88,240.02,87.88z"/>
			<path class="st11" d="M243.9,102.05c0,0,27.35,3.17,47.9-2.42c-13.9,4.84-39.74,5.29-46.24,4.13
				C244.2,103.86,243.9,102.05,243.9,102.05z"/>
			<path class="st20" d="M323.99,42.94l-0.21-0.79C284,42.08,249.34,53.7,234.94,67.21c0.78,4.28,2.01,11.22,3.46,18.92
				C258.14,53.99,299.15,43.43,323.99,42.94z"/>
		</g>
	</g>
	<g>
		<path class="st21" d="M220.14,325.63l-8.02-49.95l-1.43-0.24l-28.57,42.31C182.11,317.75,194.46,345.51,220.14,325.63z"/>
		<path class="st22" d="M212.12,275.68l2.22,13.82c-2.9,1.59-7.61,2.86-11.8-2.01l8.14-12.06L212.12,275.68z"/>
		<path class="st23" d="M212.12,275.68l8.02,49.95c-5.86,4.54-11.02,6.58-15.51,7.05l6.05-57.24L212.12,275.68z"/>
		<path class="st24" d="M209.04,290.92l1.64-15.48l1.43,0.24l2.22,13.82C212.92,290.28,211.06,290.98,209.04,290.92z"/>
		<path class="st25" d="M220.14,325.63l-41.17,146.58l-23.64-5.6l26.79-148.86c0,0,13.44-11.15,23,9.17
			C205.12,326.93,216.88,313.98,220.14,325.63z"/>
		<path class="st26" d="M155.32,466.61l26.79-148.86c0,0,13.44-11.15,23,9.17L165.86,469.1L155.32,466.61z"/>
		<path class="st27" d="M178.97,472.21l-2.78,9.21c-0.77,2.54-3.38,4.05-5.97,3.44l-12.47-2.95c-2.53-0.6-4.18-3.03-3.81-5.6
			l1.38-9.69L178.97,472.21z"/>
		<path class="st28" d="M156.78,475.32c-0.79,5.07,9.96,8.86,17.39,8.81c-1.12,0.75-2.53,1.06-3.94,0.73l-12.47-2.95
			c-2.53-0.6-4.18-3.03-3.81-5.6l1.38-9.69l23.64,5.6C178.97,472.21,157.72,469.19,156.78,475.32z"/>
	</g>
	<g>
		<g>
			<g>
				<path class="st29" d="M360.1,415.6l47.01,18.88l58.19-144.89l-39.73-15.96c-4.02-1.61-8.58,0.34-10.19,4.35L360.1,415.6z"/>
				<g>
					
						<rect x="346.56" y="309.21" transform="matrix(0.1746 -0.9846 0.9846 0.1746 -10.3706 697.4509)" class="st30" width="128.51" height="91.41"/>
					
						<rect x="419.32" y="284.25" transform="matrix(0.1746 -0.9846 0.9846 0.1746 46.5049 664.7996)" class="st31" width="0.92" height="40.82"/>
					
						<rect x="419.73" y="273.38" transform="matrix(0.1746 -0.9846 0.9846 0.1746 49.1023 663.3055)" class="st31" width="0.92" height="57.97"/>
					
						<rect x="417.64" y="278.97" transform="matrix(0.1746 -0.9846 0.9846 0.1746 35.7924 670.9582)" class="st31" width="0.92" height="70.33"/>
					
						<rect x="416.87" y="283.31" transform="matrix(0.1746 -0.9846 0.9846 0.1746 30.8843 673.7839)" class="st31" width="0.92" height="70.33"/>
					
						<rect x="415.33" y="291.99" transform="matrix(0.1746 -0.9846 0.9846 0.1746 21.0689 679.4349)" class="st31" width="0.92" height="70.33"/>
					
						<rect x="414.57" y="296.33" transform="matrix(0.1746 -0.9846 0.9846 0.1746 16.1609 682.2608)" class="st31" width="0.92" height="70.33"/>
					
						<rect x="413.8" y="300.67" transform="matrix(0.1746 -0.9846 0.9846 0.1746 11.2532 685.0861)" class="st31" width="0.92" height="70.33"/>
					
						<rect x="410.42" y="319.76" transform="matrix(0.1746 -0.9846 0.9846 0.1746 -10.3302 697.5172)" class="st31" width="0.92" height="70.33"/>
					
						<rect x="409.61" y="324.26" transform="matrix(0.1746 -0.9846 0.9846 0.1746 -15.4255 700.4379)" class="st31" width="0.92" height="70.33"/>
					
						<rect x="408.82" y="328.76" transform="matrix(0.1746 -0.9846 0.9846 0.1746 -20.5115 703.3702)" class="st31" width="0.92" height="70.33"/>
					
						<rect x="408.02" y="333.26" transform="matrix(0.1746 -0.9846 0.9846 0.1746 -25.6025 706.3018)" class="st31" width="0.92" height="70.33"/>
					
						<rect x="407.23" y="337.76" transform="matrix(0.1746 -0.9846 0.9846 0.1746 -30.6911 709.2336)" class="st31" width="0.92" height="70.33"/>
					
						<rect x="406.42" y="342.26" transform="matrix(0.1746 -0.9846 0.9846 0.1746 -35.7885 712.1541)" class="st31" width="0.92" height="70.33"/>
					
						<rect x="405.63" y="346.76" transform="matrix(0.1746 -0.9846 0.9846 0.1746 -40.8764 715.0859)" class="st31" width="0.92" height="70.33"/>
				</g>
				<g>
					
						<rect x="353.54" y="308.57" transform="matrix(0.2545 -0.9671 0.9671 0.2545 -31.1351 668.1586)" class="st32" width="128.52" height="91.41"/>
					
						<rect x="430.39" y="284.51" transform="matrix(0.2545 -0.9671 0.9671 0.2545 26.3163 643.9824)" class="st31" width="0.92" height="40.82"/>
					
						<rect x="430.97" y="273.69" transform="matrix(0.2545 -0.9671 0.9671 0.2545 28.9253 642.8762)" class="st31" width="0.92" height="57.97"/>
					
						<rect x="427.93" y="279.06" transform="matrix(0.2545 -0.9671 0.9671 0.2545 15.494 648.5444)" class="st31" width="0.92" height="70.33"/>
					
						<rect x="426.82" y="283.32" transform="matrix(0.2545 -0.9671 0.9671 0.2545 10.5368 650.6478)" class="st31" width="0.92" height="70.33"/>
					
						<rect x="424.57" y="291.85" transform="matrix(0.2545 -0.9671 0.9671 0.2545 0.6153 654.8317)" class="st31" width="0.92" height="70.33"/>
					
						<rect x="423.45" y="296.11" transform="matrix(0.2545 -0.9671 0.9671 0.2545 -4.336 656.9189)" class="st31" width="0.92" height="70.33"/>
					
						<rect x="422.33" y="300.37" transform="matrix(0.2545 -0.9671 0.9671 0.2545 -9.2971 659.0109)" class="st31" width="0.92" height="70.33"/>
					
						<rect x="417.4" y="319.12" transform="matrix(0.2545 -0.9671 0.9671 0.2545 -31.1015 668.2211)" class="st31" width="0.92" height="70.33"/>
					
						<rect x="416.23" y="323.54" transform="matrix(0.2545 -0.9671 0.9671 0.2545 -36.2441 670.3875)" class="st31" width="0.92" height="70.33"/>
					
						<rect x="415.07" y="327.95" transform="matrix(0.2545 -0.9671 0.9671 0.2545 -41.385 672.5547)" class="st31" width="0.92" height="70.33"/>
					
						<rect x="413.91" y="332.38" transform="matrix(0.2545 -0.9671 0.9671 0.2545 -46.5237 674.7322)" class="st31" width="0.92" height="70.33"/>
					
						<rect x="412.74" y="336.79" transform="matrix(0.2545 -0.9671 0.9671 0.2545 -51.6672 676.8985)" class="st31" width="0.92" height="70.33"/>
					
						<rect x="411.58" y="341.22" transform="matrix(0.2545 -0.9671 0.9671 0.2545 -56.8139 679.0637)" class="st31" width="0.92" height="70.33"/>
					
						<rect x="410.42" y="345.63" transform="matrix(0.2545 -0.9671 0.9671 0.2545 -61.9475 681.2429)" class="st31" width="0.92" height="70.33"/>
				</g>
				<path class="st33" d="M377.93,422.77l94.63,38.01l55.2-137.44l-79.52-49.06c-4.47-2.76-10.34-0.82-12.3,4.05L377.93,422.77z"/>
			</g>
			<g>
				<path class="st26" d="M491.83,408.34l17.15-5.02c3.02-12.48,4.83-23.11,4.83-23.11c-20.69,0.83-36.61,7.17-48.86,16.17
					l-2.53,20.38l-5.47-13.66c-28.91,27.57-32.29,70.13-32.29,70.13s58.19-22.77,69.28-32.15c4.28-3.62,8.22-13.52,11.44-24.31
					C499.59,413.65,491.83,408.34,491.83,408.34z"/>
				<path class="st25" d="M513.81,380.21c0,0-68.1,53.42-89.15,93.01c0,0,58.19-22.77,69.28-32.15c4.28-3.62,8.22-13.52,11.44-24.31
					c-5.79-3.12-13.55-8.43-13.55-8.43l17.15-5.02C512,390.84,513.81,380.21,513.81,380.21z"/>
				<path class="st26" d="M525.5,432.64c-12.09-3.48-23.46-4-33.95-2.58c-1.96,4.5-4.41,9.83-4.41,9.83l-2.75-8.54
					c-39.3,8.84-64.35,43.64-64.35,43.64c26.35,8.02,46.6,6.69,61.96,1.13c0.1-3.28,0.19-8.15,0.19-8.15l4.67,6.18
					c7.21-3.24,13.21-7.4,18.16-11.84c-2.45-3.2-5.13-6.89-5.13-6.89l9.66,2.46C521.25,445.49,525.5,432.64,525.5,432.64z"/>
				<path class="st25" d="M482.01,476.12c0.1-3.28,0.19-8.15,0.19-8.15l4.67,6.18c7.21-3.24,13.21-7.4,18.16-11.84
					c-2.45-3.2-5.13-6.89-5.13-6.89l9.66,2.46c11.67-12.4,15.93-25.25,15.93-25.25c-46.65,7.14-105.45,42.35-105.45,42.35
					C446.4,483.02,466.65,481.68,482.01,476.12z"/>
			</g>
			<g>
				<path class="st34" d="M228.2,328.41h-6.47c1.06-0.72,2.38-1.16,3.82-1.16h162.12c8.48,0,15.36,6.1,15.36,13.61v8.65
					c0,7.52-6.88,13.61-15.36,13.61l-160.31-0.05L228.2,328.41z"/>
				<path class="st33" d="M389.43,349.51v-8.65c0-7.52-6.88-13.61-15.36-13.61h3.48c8.48,0,15.36,6.1,15.36,13.61v8.65
					c0,7.52-6.88,13.61-15.36,13.61h-3.44C382.58,363.1,389.43,357.02,389.43,349.51z"/>
				<path class="st33" d="M351.46,349.51v-8.65c0-7.52-6.88-13.61-15.36-13.61h3.48c8.48,0,15.36,6.1,15.36,13.61v8.65
					c0,7.52-6.88,13.61-15.36,13.61h-3.44C344.61,363.1,351.46,357.02,351.46,349.51z"/>
				<path class="st35" d="M320.24,327.28c8.11,0,14.69,5.83,14.69,13.02v9.77c0,7.19-6.58,13.02-14.69,13.02H219.31v-2.19h0.42
					l25.66-2.15l5.19-18.03c0,0-10.01-9.97-10.66-10.22c-0.65-0.26-20.18-1.04-20.18-1.04h-0.42v-2.17L320.24,327.28L320.24,327.28z
					"/>
				<path class="st32" d="M225.86,345.13c0-10.54-6.15-15.66-6.15-15.66h98.46c7.45,0,13.49,5.35,13.49,11.96v7.52
					c0,6.6-6.04,11.96-13.49,11.96h-98.46C219.71,360.91,225.86,358.4,225.86,345.13z"/>
				<path class="st36" d="M331.66,341.43v7.52c0,0.99-0.14,1.95-0.39,2.87c-3.32-7.2-9.68-14.14-21.8-16.37
					c-28.29-5.21-89.76-5.98-89.76-5.98h98.46C325.62,329.47,331.66,334.82,331.66,341.43z"/>
			</g>
			<g>
				<path class="st4" d="M230.87,400.12h-7.32c1.2-0.91,2.7-1.45,4.33-1.45h183.49c9.6,0,17.38,7.63,17.38,17.04v10.82
					c0,9.41-7.78,17.04-17.38,17.04l-181.44-0.06L230.87,400.12z"/>
				<path class="st31" d="M335.04,398.71c9.18,0,16.62,7.3,16.62,16.3v12.23c0,9-7.44,16.3-16.62,16.3H220.81v-2.74h0.47l29.04-2.7
					l5.87-22.57c0,0-11.33-12.47-12.07-12.8c-0.74-0.32-22.84-1.3-22.84-1.3l-0.47-0.01v-2.72h114.23V398.71z"/>
				<path class="st32" d="M228.22,421.04c0-13.2-6.96-19.6-6.96-19.6H332.7c8.43,0,15.27,6.7,15.27,14.97v9.42
					c0,8.27-6.84,14.97-15.27,14.97H221.26C221.26,440.8,228.22,437.66,228.22,421.04z"/>
				<path class="st36" d="M347.97,416.41v9.42c0,1.24-0.16,2.44-0.45,3.59c-3.76-9.02-10.96-17.7-24.67-20.49
					c-32.01-6.52-101.59-7.48-101.59-7.48H332.7C341.13,401.44,347.97,408.15,347.97,416.41z"/>
			</g>
			<g>
				<path class="st37" d="M434.79,364.19h7.33c-1.2-0.72-2.7-1.15-4.33-1.15H254.23c-9.6,0-17.39,6.05-17.39,13.52v8.59
					c0,7.47,7.79,13.52,17.39,13.52l181.51-0.05L434.79,364.19z"/>
				<path class="st38" d="M330.58,363.07c-9.18,0-16.63,5.79-16.63,12.93v9.71c0,7.14,7.45,12.93,16.63,12.93h114.27v-2.17h-0.47
					l-29.05-2.14l-5.87-17.91c0,0,11.33-9.9,12.07-10.15c0.74-0.26,22.85-1.03,22.85-1.03h0.47v-2.16L330.58,363.07L330.58,363.07z"
					/>
				<path class="st32" d="M437.44,380.79c0-10.47,6.96-15.55,6.96-15.55H332.92c-8.44,0-15.27,5.32-15.27,11.88v7.47
					c0,6.56,6.84,11.88,15.27,11.88H444.4C444.4,396.47,437.44,393.98,437.44,380.79z"/>
				<path class="st36" d="M317.64,377.12v7.47c0,0.98,0.16,1.94,0.45,2.85c3.76-7.15,10.97-14.04,24.68-16.26
					c32.03-5.17,101.63-5.94,101.63-5.94H332.92C324.48,365.24,317.64,370.56,317.64,377.12z"/>
				<path class="st39" d="M270.46,385.15v-8.59c0-7.47,7.79-13.52,17.39-13.52h-17.43c-9.6,0-17.39,6.05-17.39,13.52v8.59
					c0,7.47,7.79,13.52,17.39,13.52h17.2C278.13,398.57,270.46,392.55,270.46,385.15z"/>
			</g>
			<path class="st33" d="M446.88,444.95h9.19c-1.5-0.8-3.38-1.28-5.43-1.28H220.51c-12.04,0-21.8,6.76-21.8,15.11v9.6
				c0,8.34,9.76,15.11,21.8,15.11l227.55-0.05L446.88,444.95z"/>
			<path class="st29" d="M316.23,443.7c-11.51,0-20.85,6.47-20.85,14.45v10.84c0,7.98,9.33,14.45,20.85,14.45h143.26v-2.43h-0.59
				l-36.42-2.39l-7.36-20.01c0,0,14.21-11.06,15.13-11.34c0.93-0.29,28.65-1.15,28.65-1.15h0.59v-2.41H316.23V443.7z"/>
			<path class="st32" d="M450.2,463.5c0-11.7,8.73-17.37,8.73-17.37H319.17c-10.58,0-19.15,5.94-19.15,13.27v8.35
				c0,7.33,8.57,13.27,19.15,13.27h139.76C458.93,481.02,450.2,478.23,450.2,463.5z"/>
			<path class="st36" d="M300.02,459.4v8.35c0,1.1,0.2,2.16,0.56,3.18c4.71-7.99,13.75-15.69,30.95-18.17
				c40.15-5.78,127.41-6.64,127.41-6.64H319.17C308.59,446.13,300.02,452.07,300.02,459.4z"/>
			<path class="st40" d="M13.46,487.6h523.2c1.21,0,2.2-0.98,2.2-2.2l0,0c0-1.21-0.98-2.2-2.2-2.2H13.46c-1.21,0-2.2,0.98-2.2,2.2
				l0,0C11.26,486.61,12.25,487.6,13.46,487.6z"/>
			<polygon class="st29" points="511,338.51 446.57,301.66 437.86,318.91 503.78,353.79 			"/>
		</g>
	</g>
	<g>
		<g>
			<g>
				<polygon id="SVGID_3_" class="st41" points="84.52,482.58 41.31,482.58 37.19,442.3 88.63,442.3 				"/>
			</g>
			<g>
				<defs>
					<polygon id="SVGID_4_" points="84.52,482.58 41.31,482.58 37.19,442.3 88.63,442.3 					"/>
				</defs>
				<clipPath id="SVGID_5_">
					<use xlink:href="#SVGID_4_"  style="overflow:visible;"/>
				</clipPath>
				<rect x="31.38" y="436.3" class="st42" width="63.08" height="11.99"/>
			</g>
		</g>
		<path class="st25" d="M54.27,411.5c0.6,2.66,1.11,5.34,1.53,8.04c0.58,3.7,0.98,7.43,1.21,11.17c0.14,2.24,1.04,8.18-3.08,6.1
			c-4.8-2.42-8.1-6.97-11.21-11.35c-11.44-16.12-18.02-34.65-17.09-54.66c0.02-0.53,0.08-1.12,0.46-1.5c0.3-0.3,0.75-0.4,1.17-0.43
			c2.07-0.15,4,1.01,5.65,2.28c8.85,6.82,13.94,16.77,17.56,27.09C51.98,402.58,53.26,407.01,54.27,411.5z"/>
		<path class="st25" d="M76.12,397.5c-0.62,2.11-1.31,4.2-2.07,6.27c-1.05,2.84-2.22,5.62-3.53,8.35c-0.78,1.63-2.47,6.18-4.57,3.09
			c-2.44-3.59-2.98-8.09-3.45-12.4c-1.75-15.86,0.89-31.5,9.4-45.25c0.23-0.37,0.49-0.76,0.91-0.88c0.33-0.09,0.68,0.01,1,0.15
			c1.52,0.71,2.43,2.28,3.09,3.83c3.56,8.28,3.25,17.29,1.75,25.99C78.01,390.31,77.17,393.93,76.12,397.5z"/>
		<path class="st25" d="M87.75,430.77c-1.46,0.89-2.95,1.73-4.47,2.52c-2.08,1.08-4.22,2.07-6.4,2.95c-1.3,0.53-4.65,2.25-4.24-0.61
			c0.48-3.34,2.52-6.21,4.51-8.93c7.3-10.02,17-17.63,29.08-21.08c0.32-0.09,0.68-0.18,0.98-0.03c0.24,0.12,0.39,0.36,0.49,0.61
			c0.51,1.2,0.2,2.58-0.23,3.81c-2.29,6.62-7.18,11.63-12.6,15.85C92.6,427.63,90.22,429.27,87.75,430.77z"/>
		<path class="st25" d="M35.29,428.81c1.46,0.89,2.95,1.73,4.47,2.52c2.09,1.08,4.22,2.07,6.4,2.95c1.3,0.53,4.65,2.25,4.24-0.61
			c-0.48-3.34-2.52-6.21-4.51-8.93c-7.3-10.02-17-17.63-29.08-21.08c-0.32-0.09-0.68-0.18-0.98-0.03c-0.24,0.12-0.39,0.36-0.49,0.61
			c-0.51,1.2-0.2,2.58,0.23,3.81c2.29,6.62,7.18,11.63,12.6,15.85C30.44,425.67,32.82,427.31,35.29,428.81z"/>
		<path class="st26" d="M84.07,419.01c-1.35,2.37-2.79,4.69-4.3,6.96c-2.08,3.12-4.3,6.14-6.66,9.05c-1.41,1.74-4.76,6.73-6.39,2.41
			c-1.9-5.03-1.26-10.61-0.59-15.94c2.46-19.61,10.14-37.71,24.34-51.84c0.38-0.38,0.81-0.77,1.35-0.8
			c0.42-0.02,0.82,0.21,1.16,0.47c1.63,1.29,2.27,3.45,2.62,5.5c1.91,11.01-1.06,21.78-5.37,31.83
			C88.41,410.89,86.35,415.01,84.07,419.01z"/>
		<path class="st26" d="M67.27,412.56c-0.04,2.73-0.17,5.45-0.4,8.17c-0.31,3.73-0.79,7.45-1.45,11.14
			c-0.39,2.21-0.9,8.19-4.43,5.21c-4.1-3.48-6.24-8.67-8.24-13.66c-7.34-18.35-9.38-37.91-3.8-57.14c0.15-0.51,0.34-1.07,0.79-1.35
			c0.36-0.22,0.82-0.21,1.24-0.15c2.05,0.34,3.65,1.92,4.96,3.54c7,8.7,9.62,19.57,10.71,30.45
			C67.14,403.35,67.33,407.96,67.27,412.56z"/>
		<polygon class="st6" points="93.01,442.3 32.81,442.3 31,430.31 94.83,430.31 		"/>
	</g>
	<g>
		<path class="st8" d="M403.1,245.63h-8.58v9.23h-5.84v-9.23h-8.53v-5.15h8.53v-9.18h5.84v9.18h8.58V245.63z"/>
	</g>
	<g>
		<g>
			<path class="st8" d="M426.56,114.27l-9.52,2.36l-15.96,3.96l-1.32-5.31l25.48-6.33L426.56,114.27z"/>
		</g>
		
			<ellipse transform="matrix(0.9705 -0.2409 0.2409 0.9705 -13.5876 102.185)" class="st8" cx="411.12" cy="106.66" rx="3.72" ry="3.46"/>
		
			<ellipse transform="matrix(0.9705 -0.2409 0.2409 0.9705 -17.2667 103.5905)" class="st8" cx="415.03" cy="122.41" rx="3.72" ry="3.46"/>
	</g>
	<g>
		<path class="st8" d="M143.22,167.63l-5.74,5.74l6.17,6.17l-3.91,3.91l-6.17-6.17l-5.7,5.7l-3.44-3.44l5.7-5.7l-6.14-6.14
			l3.91-3.91l6.14,6.14l5.74-5.74L143.22,167.63z"/>
	</g>
	<g>
		<path class="st8" d="M56.96,265.43l-9.87,0.3l-16.54,0.5l-0.18-5.92l26.41-0.8L56.96,265.43z"/>
	</g>
	<g>
		<path class="st43" d="M503.75,80.99l-24.06,18.17c-0.55,0.41-1.32,0.3-1.74-0.24l-45.1-59.72c-0.41-0.55-0.3-1.32,0.24-1.74
			l24.06-18.17c0.55-0.41,1.32-0.3,1.74,0.24l45.1,59.72C504.4,79.8,504.29,80.58,503.75,80.99z"/>
		<line class="st43" x1="445.63" y1="27.99" x2="492.22" y2="89.69"/>
		<line class="st43" x1="441.37" y1="50.48" x2="467.42" y2="30.82"/>
		<line class="st43" x1="450.73" y1="62.88" x2="476.77" y2="43.21"/>
		<line class="st43" x1="460.09" y1="75.27" x2="486.13" y2="55.6"/>
		<line class="st43" x1="469.45" y1="87.66" x2="495.49" y2="68"/>
		<circle class="st8" cx="456.62" cy="29.44" r="4.13"/>
		<circle class="st8" cx="465.89" cy="41.71" r="4.13"/>
		<circle class="st8" cx="443.54" cy="39.31" r="4.13"/>
		<circle class="st8" cx="452.81" cy="51.59" r="4.13"/>
		<circle class="st8" cx="462.25" cy="64.1" r="4.13"/>
		<circle class="st8" cx="471.52" cy="76.37" r="4.13"/>
		<circle class="st8" cx="480.88" cy="88.76" r="4.13"/>
	</g>
	<g>
		<path class="st43" d="M197.34,254.08c-1.66,0.59-3.5-0.28-4.1-1.94l-15.3-42.79c-0.59-1.66,0.28-3.5,1.94-4.1l20.84-7.45
			c1.66-0.59,3.5,0.28,4.1,1.94l15.3,42.79c0.59,1.66-0.28,3.5-1.94,4.1L197.34,254.08z"/>
		<g>
			<path class="st8" d="M209.87,223.62l-20.14,7.2c-0.61,0.22-1.27-0.1-1.49-0.7c-0.22-0.61,0.1-1.27,0.7-1.49l20.14-7.2
				c0.61-0.22,1.27,0.1,1.49,0.7C210.79,222.74,210.48,223.4,209.87,223.62z"/>
			<path class="st8" d="M209.87,223.61l-20.14,7.2c-0.6,0.21-1.25-0.1-1.46-0.69c-0.21-0.6,0.1-1.25,0.69-1.46l20.14-7.2
				c0.6-0.21,1.25,0.1,1.46,0.69S210.46,223.4,209.87,223.61z"/>
			<path class="st8" d="M209.87,223.6l-20.14,7.2c-0.59,0.21-1.23-0.1-1.44-0.68c-0.21-0.59,0.1-1.23,0.68-1.44l20.14-7.2
				c0.59-0.21,1.23,0.1,1.44,0.68C210.76,222.75,210.45,223.39,209.87,223.6z"/>
			<path class="st8" d="M209.86,223.6l-20.14,7.2c-0.57,0.21-1.21-0.09-1.41-0.67c-0.21-0.57,0.09-1.21,0.67-1.41l20.14-7.2
				c0.57-0.21,1.21,0.09,1.41,0.67S210.44,223.39,209.86,223.6z"/>
			<path class="st8" d="M209.86,223.59l-20.14,7.2c-0.56,0.2-1.19-0.09-1.39-0.66c-0.2-0.56,0.09-1.19,0.66-1.39l20.14-7.2
				c0.56-0.2,1.18,0.09,1.39,0.66C210.72,222.76,210.42,223.39,209.86,223.59z"/>
			<path class="st8" d="M209.86,223.58l-20.14,7.2c-0.55,0.2-1.16-0.09-1.36-0.64s0.09-1.16,0.64-1.36l20.14-7.2
				c0.55-0.2,1.16,0.09,1.36,0.64S210.41,223.38,209.86,223.58z"/>
			<path class="st8" d="M209.85,223.57l-20.14,7.2c-0.54,0.19-1.14-0.09-1.34-0.63c-0.19-0.54,0.09-1.14,0.63-1.34l20.14-7.2
				c0.54-0.19,1.14,0.09,1.34,0.63C210.68,222.78,210.4,223.38,209.85,223.57z"/>
			<path class="st8" d="M209.85,223.56l-20.14,7.2c-0.53,0.19-1.12-0.09-1.31-0.62s0.09-1.12,0.62-1.31l20.14-7.2
				c0.53-0.19,1.12,0.09,1.31,0.62C210.66,222.79,210.38,223.37,209.85,223.56z"/>
			<path class="st8" d="M209.85,223.55l-20.14,7.2c-0.52,0.19-1.1-0.09-1.28-0.61c-0.19-0.52,0.09-1.1,0.61-1.28l20.14-7.2
				c0.52-0.19,1.1,0.09,1.28,0.61C210.64,222.79,210.37,223.37,209.85,223.55z"/>
			<path class="st8" d="M209.85,223.55l-20.14,7.2c-0.51,0.18-1.08-0.08-1.26-0.6c-0.18-0.51,0.08-1.08,0.6-1.26l20.14-7.2
				c0.51-0.18,1.08,0.08,1.26,0.6C210.62,222.8,210.36,223.36,209.85,223.55z"/>
			<path class="st8" d="M209.84,223.54l-20.14,7.2c-0.5,0.18-1.05-0.08-1.23-0.58s0.08-1.05,0.58-1.23l20.14-7.2
				c0.5-0.18,1.05,0.08,1.23,0.58C210.61,222.81,210.34,223.36,209.84,223.54z"/>
			<path class="st8" d="M209.84,223.53l-20.14,7.2c-0.49,0.18-1.03-0.08-1.21-0.57c-0.18-0.49,0.08-1.03,0.57-1.21l20.14-7.2
				c0.49-0.18,1.03,0.08,1.21,0.57C210.59,222.81,210.33,223.35,209.84,223.53z"/>
			<path class="st8" d="M209.84,223.52l-20.14,7.2c-0.48,0.17-1.01-0.08-1.18-0.56s0.08-1.01,0.56-1.18l20.14-7.2
				c0.48-0.17,1.01,0.08,1.18,0.56C210.57,222.82,210.32,223.35,209.84,223.52z"/>
			<path class="st8" d="M209.83,223.51l-20.14,7.2c-0.47,0.17-0.99-0.08-1.16-0.55s0.08-0.99,0.55-1.16l20.14-7.2
				c0.47-0.17,0.99,0.08,1.16,0.55C210.55,222.83,210.3,223.35,209.83,223.51z"/>
			<path class="st8" d="M209.83,223.51l-20.14,7.2c-0.46,0.16-0.97-0.07-1.13-0.54c-0.16-0.46,0.08-0.97,0.54-1.13l20.14-7.2
				c0.46-0.16,0.97,0.07,1.13,0.54C210.53,222.84,210.29,223.34,209.83,223.51z"/>
			<path class="st8" d="M209.83,223.5l-20.14,7.2c-0.45,0.16-0.95-0.07-1.11-0.52s0.07-0.95,0.52-1.11l20.14-7.2
				c0.45-0.16,0.94,0.07,1.11,0.52C210.51,222.84,210.28,223.34,209.83,223.5z"/>
			<path class="st8" d="M209.83,223.49l-20.14,7.2c-0.44,0.16-0.92-0.07-1.08-0.51c-0.16-0.44,0.07-0.92,0.51-1.08l20.14-7.2
				c0.44-0.16,0.92,0.07,1.08,0.51C210.49,222.85,210.26,223.33,209.83,223.49z"/>
			<path class="st8" d="M209.82,223.48l-20.14,7.2c-0.43,0.15-0.9-0.07-1.05-0.5c-0.15-0.43,0.07-0.9,0.5-1.05l20.14-7.2
				c0.43-0.15,0.9,0.07,1.05,0.5C210.47,222.86,210.25,223.33,209.82,223.48z"/>
			<path class="st8" d="M209.82,223.47l-20.14,7.2c-0.42,0.15-0.88-0.07-1.03-0.49s0.07-0.88,0.49-1.03l20.14-7.2
				c0.42-0.15,0.88,0.07,1.03,0.49S210.24,223.32,209.82,223.47z"/>
			<path class="st8" d="M209.82,223.47l-20.14,7.2c-0.41,0.15-0.86-0.07-1-0.47c-0.15-0.41,0.07-0.86,0.48-1l20.14-7.2
				c0.41-0.15,0.86,0.07,1,0.47S210.22,223.32,209.82,223.47z"/>
			<path class="st8" d="M209.81,223.46l-20.14,7.2c-0.4,0.14-0.84-0.06-0.98-0.46c-0.14-0.4,0.07-0.84,0.46-0.98l20.14-7.2
				c0.4-0.14,0.84,0.06,0.98,0.46C210.42,222.88,210.21,223.32,209.81,223.46z"/>
			<path class="st8" d="M209.81,223.45l-20.14,7.2c-0.39,0.14-0.81-0.06-0.95-0.45s0.06-0.81,0.45-0.95l20.14-7.2
				c0.39-0.14,0.81,0.06,0.95,0.45S210.2,223.31,209.81,223.45z"/>
			<path class="st8" d="M209.81,223.44l-20.14,7.2c-0.38,0.13-0.79-0.06-0.93-0.44c-0.13-0.38,0.06-0.79,0.44-0.93l20.14-7.2
				c0.38-0.13,0.79,0.06,0.93,0.44C210.38,222.89,210.19,223.31,209.81,223.44z"/>
			<path class="st8" d="M209.8,223.43l-20.14,7.2c-0.37,0.13-0.77-0.06-0.9-0.43c-0.13-0.37,0.06-0.77,0.43-0.9l20.14-7.2
				c0.37-0.13,0.77,0.06,0.9,0.43C210.36,222.9,210.17,223.3,209.8,223.43z"/>
			<path class="st8" d="M209.8,223.43l-20.14,7.2c-0.36,0.13-0.75-0.06-0.88-0.41c-0.13-0.36,0.06-0.75,0.41-0.88l20.14-7.2
				c0.36-0.13,0.75,0.06,0.88,0.41C210.34,222.91,210.16,223.3,209.8,223.43z"/>
			<path class="st8" d="M209.8,223.42l-20.14,7.2c-0.35,0.12-0.73-0.06-0.85-0.4c-0.12-0.35,0.06-0.73,0.4-0.85l20.14-7.2
				c0.35-0.12,0.73,0.06,0.85,0.4C210.33,222.91,210.15,223.29,209.8,223.42z"/>
			<path class="st8" d="M209.8,223.41l-20.14,7.2c-0.34,0.12-0.71-0.05-0.83-0.39s0.05-0.7,0.39-0.82l20.14-7.2
				c0.34-0.12,0.7,0.05,0.82,0.39C210.31,222.92,210.13,223.29,209.8,223.41z"/>
			<path class="st8" d="M209.79,223.4l-20.14,7.2c-0.33,0.12-0.68-0.05-0.8-0.38c-0.12-0.33,0.05-0.68,0.38-0.8l20.14-7.2
				c0.33-0.12,0.68,0.05,0.8,0.38C210.29,222.93,210.12,223.29,209.79,223.4z"/>
			<path class="st8" d="M209.79,223.39l-20.14,7.2c-0.31,0.11-0.66-0.05-0.77-0.37c-0.11-0.31,0.05-0.66,0.37-0.77l20.14-7.2
				c0.31-0.11,0.66,0.05,0.77,0.37C210.27,222.93,210.11,223.28,209.79,223.39z"/>
			<path class="st8" d="M209.79,223.39l-20.14,7.2c-0.3,0.11-0.64-0.05-0.75-0.35s0.05-0.64,0.35-0.75l20.14-7.2
				c0.3-0.11,0.64,0.05,0.75,0.35S210.09,223.28,209.79,223.39z"/>
			<path class="st8" d="M209.78,223.38l-20.14,7.2c-0.29,0.11-0.62-0.05-0.72-0.34c-0.11-0.29,0.05-0.62,0.34-0.72l20.14-7.2
				c0.29-0.11,0.62,0.05,0.72,0.34C210.23,222.95,210.08,223.27,209.78,223.38z"/>
			<path class="st8" d="M209.78,223.37l-20.14,7.2c-0.28,0.1-0.6-0.05-0.7-0.33c-0.1-0.28,0.05-0.6,0.33-0.7l20.14-7.2
				c0.28-0.1,0.6,0.05,0.7,0.33C210.21,222.96,210.07,223.27,209.78,223.37z"/>
			<path class="st8" d="M209.78,223.36l-20.14,7.2c-0.27,0.1-0.57-0.04-0.67-0.32c-0.1-0.27,0.04-0.57,0.32-0.67l20.14-7.2
				c0.27-0.1,0.57,0.04,0.67,0.32C210.19,222.96,210.05,223.26,209.78,223.36z"/>
			<path class="st8" d="M209.78,223.35l-20.14,7.2c-0.26,0.09-0.55-0.04-0.65-0.31c-0.09-0.26,0.04-0.55,0.31-0.65l20.14-7.2
				c0.26-0.09,0.55,0.04,0.65,0.31C210.18,222.97,210.04,223.26,209.78,223.35z"/>
			<path class="st8" d="M209.77,223.35l-20.14,7.2c-0.25,0.09-0.53-0.04-0.62-0.29s0.04-0.53,0.29-0.62l20.14-7.2
				c0.25-0.09,0.53,0.04,0.62,0.29C210.16,222.98,210.03,223.26,209.77,223.35z"/>
			<path class="st8" d="M209.77,223.34l-20.14,7.2c-0.24,0.09-0.51-0.04-0.6-0.28c-0.09-0.24,0.04-0.51,0.28-0.6l20.14-7.2
				c0.24-0.09,0.51,0.04,0.6,0.28C210.14,222.98,210.01,223.25,209.77,223.34z"/>
			<path class="st8" d="M209.77,223.33l-20.14,7.2c-0.23,0.08-0.49-0.04-0.57-0.27c-0.08-0.23,0.04-0.49,0.27-0.57l20.14-7.2
				c0.23-0.08,0.49,0.04,0.57,0.27C210.12,222.99,210,223.25,209.77,223.33z"/>
			<path class="st8" d="M209.76,223.32l-20.14,7.2c-0.22,0.08-0.46-0.04-0.54-0.26c-0.08-0.22,0.04-0.46,0.26-0.54l20.14-7.2
				c0.22-0.08,0.46,0.04,0.54,0.26C210.1,223,209.99,223.24,209.76,223.32z"/>
			<path class="st8" d="M209.76,223.31l-20.14,7.2c-0.21,0.08-0.44-0.03-0.52-0.25c-0.08-0.21,0.03-0.44,0.25-0.52l20.14-7.2
				c0.21-0.08,0.44,0.03,0.52,0.25C210.08,223.01,209.97,223.24,209.76,223.31z"/>
			<path class="st8" d="M209.76,223.31l-20.14,7.2c-0.2,0.07-0.42-0.03-0.49-0.23s0.03-0.42,0.23-0.49l20.14-7.2
				c0.2-0.07,0.42,0.03,0.49,0.23C210.06,223.01,209.96,223.23,209.76,223.31z"/>
			<path class="st8" d="M209.76,223.3l-20.14,7.2c-0.19,0.07-0.4-0.03-0.47-0.22s0.03-0.4,0.22-0.47l20.14-7.2
				c0.19-0.07,0.4,0.03,0.47,0.22C210.04,223.02,209.95,223.23,209.76,223.3z"/>
			<path class="st8" d="M209.75,223.29l-20.14,7.2c-0.18,0.06-0.38-0.03-0.44-0.21c-0.06-0.18,0.03-0.38,0.21-0.44l20.14-7.2
				c0.18-0.06,0.38,0.03,0.44,0.21C210.03,223.03,209.93,223.22,209.75,223.29z"/>
			<path class="st8" d="M209.75,223.28l-20.14,7.2c-0.17,0.06-0.36-0.03-0.42-0.2s0.03-0.36,0.2-0.42l20.14-7.2
				c0.17-0.06,0.36,0.03,0.42,0.2S209.92,223.22,209.75,223.28z"/>
			<path class="st8" d="M209.75,223.27l-20.14,7.2c-0.16,0.06-0.33-0.03-0.39-0.18c-0.06-0.16,0.03-0.33,0.18-0.39l20.14-7.2
				c0.16-0.06,0.33,0.03,0.39,0.18C209.99,223.04,209.91,223.22,209.75,223.27z"/>
			<path class="st8" d="M209.74,223.26l-20.14,7.2c-0.15,0.05-0.31-0.02-0.37-0.17c-0.05-0.15,0.02-0.31,0.17-0.37l20.14-7.2
				c0.15-0.05,0.31,0.02,0.37,0.17C209.97,223.05,209.89,223.21,209.74,223.26z"/>
			<path class="st8" d="M209.74,223.26l-20.14,7.2c-0.14,0.05-0.29-0.02-0.34-0.16s0.02-0.29,0.16-0.34l20.14-7.2
				c0.14-0.05,0.29,0.02,0.34,0.16C209.95,223.06,209.88,223.21,209.74,223.26z"/>
			<path class="st8" d="M209.74,223.25l-20.14,7.2c-0.13,0.05-0.27-0.02-0.31-0.15c-0.05-0.13,0.02-0.27,0.15-0.31l20.14-7.2
				c0.13-0.05,0.27,0.02,0.31,0.15C209.93,223.06,209.87,223.2,209.74,223.25z"/>
			<path class="st8" d="M209.74,223.24l-20.14,7.2c-0.12,0.04-0.25-0.02-0.29-0.14s0.02-0.25,0.14-0.29l20.14-7.2
				c0.12-0.04,0.25,0.02,0.29,0.14C209.91,223.07,209.85,223.2,209.74,223.24z"/>
			<path class="st8" d="M209.73,223.23l-20.14,7.2c-0.11,0.04-0.22-0.02-0.26-0.12c-0.04-0.11,0.02-0.22,0.12-0.26l20.14-7.2
				c0.11-0.04,0.22,0.02,0.26,0.12C209.9,223.08,209.84,223.19,209.73,223.23z"/>
			<path class="st8" d="M209.73,223.22l-20.14,7.2c-0.1,0.03-0.2-0.02-0.24-0.11c-0.03-0.1,0.02-0.2,0.11-0.24l20.14-7.2
				c0.1-0.03,0.2,0.02,0.24,0.11C209.88,223.08,209.83,223.19,209.73,223.22z"/>
			<path class="st8" d="M209.73,223.22l-20.14,7.2c-0.09,0.03-0.18-0.01-0.21-0.1c-0.03-0.09,0.01-0.18,0.1-0.21l20.14-7.2
				c0.09-0.03,0.18,0.01,0.21,0.1C209.86,223.09,209.81,223.19,209.73,223.22z"/>
			<path class="st8" d="M209.72,223.21l-20.14,7.2c-0.08,0.03-0.16-0.01-0.19-0.09s0.01-0.16,0.09-0.19l20.14-7.2
				c0.08-0.03,0.16,0.01,0.19,0.09S209.8,223.18,209.72,223.21z"/>
		</g>
		<g>
			<path class="st8" d="M187.37,207.97c0.41,1.16-0.19,2.43-1.35,2.85c-1.16,0.41-2.43-0.19-2.85-1.35
				c-0.41-1.16,0.19-2.43,1.35-2.85C185.68,206.21,186.95,206.81,187.37,207.97z"/>
			<path class="st8" d="M201.41,202.95c0.41,1.16-0.19,2.43-1.35,2.85c-1.16,0.41-2.43-0.19-2.85-1.35
				c-0.41-1.16,0.19-2.43,1.35-2.85C199.72,201.19,200.99,201.79,201.41,202.95z"/>
			<path class="st8" d="M192.39,222.01c0.41,1.16-0.19,2.43-1.35,2.85c-1.16,0.41-2.43-0.19-2.85-1.35
				c-0.41-1.16,0.19-2.43,1.35-2.85C190.7,220.25,191.97,220.86,192.39,222.01z"/>
			<path class="st8" d="M206.43,216.99c0.41,1.16-0.19,2.43-1.35,2.85c-1.16,0.41-2.43-0.19-2.85-1.35
				c-0.41-1.16,0.19-2.43,1.35-2.85C204.74,215.23,206.02,215.83,206.43,216.99z"/>
		</g>
		<g>
			<path class="st8" d="M196.58,233.75c0.41,1.16-0.19,2.43-1.35,2.85c-1.16,0.41-2.43-0.19-2.85-1.35
				c-0.41-1.16,0.19-2.43,1.35-2.85C194.89,231.99,196.17,232.59,196.58,233.75z"/>
			<path class="st8" d="M210.63,228.73c0.41,1.16-0.19,2.43-1.35,2.85c-1.16,0.41-2.43-0.19-2.85-1.35
				c-0.41-1.16,0.19-2.43,1.35-2.85C208.94,226.97,210.21,227.57,210.63,228.73z"/>
			<path class="st8" d="M199.09,240.77c0.41,1.16-0.19,2.43-1.35,2.85c-1.16,0.41-2.43-0.19-2.85-1.35
				c-0.41-1.16,0.19-2.43,1.35-2.85C197.4,239.01,198.68,239.62,199.09,240.77z"/>
			<path class="st8" d="M213.14,235.75c0.41,1.16-0.19,2.43-1.35,2.85c-1.16,0.41-2.43-0.19-2.85-1.35
				c-0.41-1.16,0.19-2.43,1.35-2.85C211.45,233.99,212.72,234.59,213.14,235.75z"/>
			<path class="st8" d="M201.61,247.8c0.41,1.16-0.19,2.43-1.35,2.85c-1.16,0.41-2.43-0.19-2.85-1.35
				c-0.41-1.16,0.19-2.44,1.35-2.85C199.92,246.03,201.19,246.64,201.61,247.8z"/>
			<path class="st8" d="M215.65,242.77c0.41,1.16-0.19,2.43-1.35,2.85c-1.16,0.41-2.43-0.19-2.85-1.35
				c-0.41-1.16,0.19-2.43,1.35-2.85C213.96,241.01,215.23,241.62,215.65,242.77z"/>
		</g>
	</g>
	<g>
		
			<rect x="476.52" y="203.58" transform="matrix(0.1143 -0.9934 0.9934 0.1143 199.016 711.6065)" class="st44" width="44.15" height="81.23"/>
		<g>
			<g>
				<path class="st43" d="M471.66,260.15l-9.1-1.05c-1.55-0.18-2.67-1.58-2.49-3.14l3.68-32c0.18-1.55,1.58-2.67,3.14-2.49l9.1,1.05
					c1.55,0.18,2.67,1.58,2.49,3.14l-3.68,32C474.62,259.21,473.21,260.33,471.66,260.15z"/>
				<polygon class="st43" points="470.76,225.98 471.71,228.63 474.44,229.35 472.21,231.08 472.36,233.89 470.03,232.3 
					467.4,233.32 468.2,230.62 466.42,228.43 469.23,228.35 				"/>
				<polygon class="st43" points="469.66,236.95 470.61,239.61 473.33,240.33 471.1,242.05 471.26,244.87 468.93,243.28 
					466.3,244.3 467.09,241.59 465.31,239.41 468.13,239.32 				"/>
				<polygon class="st43" points="468.67,248.01 469.62,250.66 472.34,251.38 470.11,253.11 470.27,255.92 467.94,254.33 
					465.31,255.35 466.1,252.64 464.32,250.46 467.14,250.37 				"/>
			</g>
			<g>
				<path class="st43" d="M491.23,262.4l-9.1-1.05c-1.55-0.18-2.67-1.58-2.49-3.14l3.68-32c0.18-1.55,1.58-2.67,3.14-2.49l9.1,1.05
					c1.55,0.18,2.67,1.58,2.49,3.14l-3.68,32C494.19,261.46,492.78,262.58,491.23,262.4z"/>
				<polygon class="st43" points="490.33,228.23 491.28,230.88 494.01,231.6 491.78,233.33 491.93,236.14 489.6,234.56 
					486.97,235.57 487.77,232.87 485.98,230.68 488.8,230.6 				"/>
				<polygon class="st43" points="489.23,239.2 490.18,241.86 492.9,242.58 490.67,244.31 490.83,247.12 488.5,245.53 
					485.87,246.55 486.66,243.84 484.88,241.66 487.7,241.57 				"/>
				<polygon class="st43" points="488.24,250.26 489.19,252.91 491.91,253.63 489.68,255.36 489.84,258.17 487.51,256.58 
					484.88,257.6 485.67,254.9 483.89,252.71 486.71,252.63 				"/>
			</g>
			<g>
				<path class="st43" d="M510.74,264.64l-9.1-1.05c-1.55-0.18-2.67-1.58-2.49-3.14l3.68-32c0.18-1.55,1.58-2.67,3.14-2.49l9.1,1.05
					c1.55,0.18,2.67,1.58,2.49,3.14l-3.68,32C513.7,263.71,512.29,264.82,510.74,264.64z"/>
				<polygon class="st43" points="509.84,230.47 510.79,233.13 513.52,233.85 511.29,235.57 511.44,238.39 509.11,236.8 
					506.48,237.82 507.27,235.11 505.49,232.93 508.31,232.84 				"/>
				<polygon class="st43" points="508.73,241.45 509.69,244.1 512.41,244.83 510.18,246.55 510.34,249.37 508.01,247.78 
					505.38,248.79 506.17,246.09 504.39,243.9 507.21,243.82 				"/>
				<polygon class="st43" points="507.74,252.5 508.7,255.16 511.42,255.88 509.19,257.6 509.35,260.42 507.02,258.83 
					504.39,259.85 505.18,257.14 503.4,254.95 506.22,254.87 				"/>
			</g>
			<g>
				<path class="st43" d="M530.31,266.89l-9.1-1.05c-1.55-0.18-2.67-1.58-2.49-3.14l3.68-32c0.18-1.55,1.58-2.67,3.14-2.49l9.1,1.05
					c1.55,0.18,2.67,1.58,2.49,3.14l-3.68,32C533.27,265.96,531.86,267.07,530.31,266.89z"/>
				<polygon class="st43" points="529.41,232.72 530.36,235.38 533.09,236.1 530.86,237.82 531.01,240.64 528.68,239.05 
					526.05,240.07 526.84,237.36 525.06,235.18 527.88,235.09 				"/>
				<polygon class="st43" points="528.3,243.7 529.25,246.35 531.98,247.08 529.75,248.8 529.91,251.62 527.58,250.03 
					524.95,251.05 525.74,248.34 523.96,246.15 526.77,246.07 				"/>
				<polygon class="st43" points="527.31,254.75 528.26,257.41 530.99,258.13 528.76,259.85 528.92,262.67 526.59,261.08 
					523.96,262.1 524.75,259.39 522.97,257.21 525.78,257.12 				"/>
			</g>
		</g>
	</g>
	<g>
		<path class="st45" d="M150.96,83.34c-0.11,2.89-0.2,5.76-0.5,8.63c-0.07,0.66-0.2,1.31-0.33,1.95c-0.11,0.53-0.43,0.95-0.79,1.32
			c-0.72,0.75-1.44,1.49-2.2,2.2c-2.89,2.68-5.83,5.29-8.95,7.69c-0.84,0.64-1.69,1.27-2.68,1.66c-0.24,0.09-0.53,0.18-0.77,0.15
			c-0.88-0.12-1.77-0.24-2.63-0.46c-5.86-1.51-11.54-3.53-17.01-6.14c-0.27-0.13-0.55-0.27-0.81-0.41c-1.06-0.56-1.74-1.43-2-2.59
			c-0.28-1.25-0.54-2.52-0.74-3.79c-0.45-2.9-0.88-5.8-1.26-8.71c-0.22-1.74-0.33-3.49-0.48-5.23c-0.02-0.18-0.01-0.36-0.01-0.54
			c-0.04-0.81,0.16-1.51,0.85-2.02c0.89-0.66,1.73-1.39,2.64-2.01c3.03-2.05,6.28-3.71,9.6-5.22c1.28-0.58,2.6-1.09,3.89-1.66
			c0.69-0.3,1.41-0.38,2.15-0.33c1,0.07,1.99,0.17,2.99,0.28c3.76,0.39,7.44,1.22,11.09,2.14c2.04,0.51,4.03,1.22,6.05,1.82
			c0.64,0.19,1.01,0.58,1.12,1.22c0.15,0.86,0.34,1.72,0.4,2.59C150.73,78.38,150.83,80.86,150.96,83.34z M150.45,84.14
			c-0.04-4.04-0.08-7.03-0.5-9.99c-0.06-0.42-0.2-0.83-0.31-1.25c-0.06-0.23-0.21-0.35-0.44-0.42c-0.53-0.15-1.06-0.32-1.59-0.49
			c-4.19-1.34-8.48-2.28-12.81-3.07c-1.19-0.22-2.4-0.36-3.61-0.5c-1.06-0.12-2.14-0.17-3.21-0.24c-0.19-0.01-0.39,0.04-0.57,0.11
			c-1.62,0.71-3.24,1.41-4.85,2.14c-3.31,1.5-6.53,3.17-9.52,5.25c-0.89,0.62-1.7,1.36-2.55,2.04c-0.21,0.17-0.3,0.38-0.29,0.65
			c0.02,0.66-0.02,1.33,0.05,1.98c0.21,2.13,0.41,4.27,0.7,6.4c0.44,3.15,0.93,6.29,1.44,9.43c0.11,0.66,0.32,1.32,0.53,1.96
			c0.14,0.42,0.43,0.73,0.83,0.94c0.64,0.33,1.25,0.69,1.9,0.99c4.8,2.28,9.78,4.09,14.89,5.56c1.32,0.38,2.64,0.78,4.01,0.94
			c0.33,0.04,0.65,0.03,0.93-0.16c0.79-0.53,1.6-1.02,2.35-1.6c1.27-0.98,2.54-1.98,3.75-3.05c2.36-2.08,4.69-4.2,7.02-6.32
			c0.33-0.3,0.63-0.64,0.88-1c0.17-0.24,0.29-0.54,0.33-0.83c0.14-1.1,0.27-2.2,0.34-3.31C150.29,87.91,150.38,85.5,150.45,84.14z"
			/>
		<path class="st45" d="M133.11,84.22c-0.19-0.02-0.38-0.02-0.56-0.06c-6.62-1.37-13.19-3-19.7-4.83c-0.41-0.12-0.82-0.26-1.22-0.4
			c-0.12-0.04-0.24-0.13-0.35-0.19c0.09-0.25,0.24-0.17,0.37-0.14c0.9,0.23,1.8,0.45,2.69,0.7c5.96,1.68,11.98,3.11,18.02,4.47
			c0.19,0.04,0.39,0.07,0.57,0.13c0.08,0.03,0.15,0.12,0.22,0.18C133.14,84.12,133.12,84.17,133.11,84.22z"/>
		<path class="st8" d="M127.62,92.21c-0.85-0.03-1.4-0.2-1.9-0.47c-1.11-0.6-1.71-1.84-1.51-3.07s1.16-2.13,2.46-2.35
			c1.76-0.31,3.48,0.98,3.38,3.17c-0.04,0.84-0.32,1.6-1,2.18C128.55,92.08,127.98,92.21,127.62,92.21z M127.16,86.75
			c-1.18,0-2.15,0.68-2.44,1.72c-0.31,1.11,0.19,2.31,1.22,2.88c0.26,0.15,0.56,0.24,0.84,0.35c0.69,0.28,1.31,0.08,1.86-0.32
			c0.86-0.62,1.17-1.95,0.77-3.06C129.05,87.32,128.23,86.75,127.16,86.75z"/>
		<path class="st45" d="M135.48,105.5c-0.36-0.92-1.78-18.76-1.57-19.67c0.24,0.05,0.22,0.24,0.24,0.41
			c0.07,0.68,0.14,1.35,0.19,2.03c0.16,2.25,0.3,4.5,0.47,6.74c0.14,1.8,0.32,3.6,0.47,5.4c0.13,1.51,0.25,3.03,0.36,4.55
			C135.66,105.13,135.75,105.35,135.48,105.5z"/>
		<path class="st45" d="M134.42,83.42c0.12-0.12,0.23-0.25,0.37-0.36c0.53-0.4,1.06-0.79,1.6-1.18c3.95-2.83,7.9-5.66,11.85-8.49
			c0.17-0.12,0.34-0.26,0.53-0.37c0.07-0.04,0.18-0.03,0.34-0.05c-0.12,0.31-0.35,0.42-0.54,0.56c-1.93,1.45-3.85,2.91-5.81,4.32
			c-2.55,1.84-5.14,3.63-7.71,5.43c-0.16,0.11-0.35,0.19-0.53,0.28C134.48,83.53,134.45,83.48,134.42,83.42z"/>
		<path class="st8" d="M141.15,84.47c-0.03,1.13-0.43,2.09-1.35,2.78c-0.83,0.63-1.82,0.61-2.5-0.02c-0.43-0.4-0.61-0.93-0.61-1.49
			c-0.01-1.24,0.46-2.26,1.47-3c0.54-0.39,1.15-0.64,1.8-0.3c0.73,0.37,1.2,0.95,1.19,1.82C141.15,84.33,141.15,84.4,141.15,84.47z
			 M137.14,85.62c0.02,0.17,0.03,0.39,0.09,0.59c0.25,0.89,1.09,1.28,1.94,0.9c0.08-0.04,0.16-0.08,0.24-0.12
			c0.95-0.6,1.52-2,1.25-3.09c-0.29-1.17-1.21-1.53-2.19-0.83C137.61,83.68,137.2,84.54,137.14,85.62z"/>
		<path class="st8" d="M114.59,94.98c0.02-0.19,0.02-0.4,0.07-0.61c0.29-1.31,1.46-1.97,2.73-1.57c1.27,0.4,2.17,1.79,1.95,3.03
			c-0.14,0.81-0.58,1.46-1.29,1.81c-0.58,0.29-1.26,0.25-1.87-0.04C115.09,97.08,114.65,96.16,114.59,94.98z M117.32,97.44
			c0.24-0.06,0.53-0.06,0.69-0.2c0.49-0.41,0.81-0.93,0.92-1.58c0.2-1.17-1.01-2.39-2.01-2.52c-0.67-0.09-1.25,0.15-1.59,0.75
			c-0.46,0.8-0.39,1.62,0.04,2.4C115.78,97.03,116.43,97.41,117.32,97.44z"/>
		<path class="st8" d="M137.58,92.22c0.02-0.82,0.28-1.55,0.73-2.21c0.4-0.6,0.97-0.93,1.67-1.05c0.67-0.11,1.54,0.43,1.76,1.12
			c0.09,0.28,0.16,0.6,0.15,0.89c-0.07,1.3-0.6,2.37-1.68,3.13c-1.15,0.81-2.27,0.13-2.49-0.99
			C137.65,92.82,137.62,92.52,137.58,92.22z M138.04,92.35c0.03,0.17,0.04,0.46,0.12,0.74c0.23,0.88,0.98,1.18,1.74,0.68
			c0.34-0.22,0.66-0.51,0.88-0.84c0.27-0.41,0.44-0.89,0.61-1.36s0.09-0.95-0.09-1.42c-0.26-0.67-0.81-0.93-1.5-0.73
			c-0.47,0.14-0.84,0.4-1.11,0.8C138.28,90.83,138.06,91.5,138.04,92.35z"/>
		<path class="st8" d="M148.25,78.2c-0.05,1.12-0.25,1.98-0.77,2.74c-0.5,0.74-1.34,1.03-2.11,0.71c-0.79-0.33-1.27-0.94-1.32-1.8
			c-0.07-1.27,0.49-2.28,1.45-3.07c0.32-0.26,0.72-0.39,1.14-0.43c0.65-0.05,1.17,0.24,1.39,0.85
			C148.17,77.58,148.21,78,148.25,78.2z M147.8,78.32c-0.02-0.17-0.07-0.44-0.09-0.7c-0.08-0.85-0.59-0.94-1.19-0.82
			c-0.22,0.04-0.45,0.13-0.64,0.25c-0.83,0.48-1.52,1.91-1.39,2.85c0.09,0.7,0.65,1.31,1.28,1.42c0.65,0.11,1.18-0.19,1.54-0.89
			C147.62,79.79,147.78,79.12,147.8,78.32z"/>
		<path class="st8" d="M138.47,98.75c0.05-0.72,0.25-1.6,0.86-2.33c0.66-0.79,1.91-0.88,2.55-0.14c0.21,0.24,0.37,0.59,0.4,0.9
			c0.1,1.24-0.27,2.32-1.2,3.18c-0.18,0.17-0.41,0.3-0.63,0.4c-0.66,0.3-1.29,0.09-1.67-0.52
			C138.54,99.84,138.45,99.41,138.47,98.75z M138.87,98.99c0.02,0.15,0.03,0.36,0.08,0.57c0.23,0.91,0.89,1.15,1.65,0.61
			c0.67-0.47,1-1.15,1.17-1.92c0.1-0.44,0.15-0.88-0.01-1.32c-0.24-0.69-0.8-0.96-1.49-0.71c-0.34,0.12-0.58,0.35-0.77,0.63
			C139.1,97.47,138.94,98.18,138.87,98.99z"/>
		<path class="st8" d="M148.85,85.47c-0.01,0.69-0.17,1.34-0.55,1.93c-0.27,0.42-0.63,0.73-1.1,0.9c-0.78,0.29-1.48,0.01-1.83-0.74
			c-0.2-0.43-0.28-0.89-0.24-1.36c0.07-0.8,0.35-1.53,0.88-2.15c0.44-0.51,0.99-0.84,1.69-0.72c0.21,0.04,0.44,0.17,0.57,0.33
			C148.69,84.19,148.86,84.8,148.85,85.47z M148.44,85.56c-0.07-0.38-0.11-0.78-0.2-1.15c-0.18-0.68-0.63-0.89-1.25-0.58
			c-0.29,0.15-0.56,0.38-0.77,0.64c-0.4,0.5-0.62,1.09-0.64,1.73c-0.01,0.4,0.07,0.82,0.21,1.19c0.21,0.56,0.72,0.72,1.28,0.5
			c0.42-0.16,0.71-0.46,0.93-0.84C148.26,86.59,148.39,86.09,148.44,85.56z"/>
		<path class="st8" d="M148.91,92.18c-0.1,1.2-0.4,2.16-1.32,2.79c-0.73,0.5-1.53,0.31-1.96-0.46c-0.14-0.24-0.25-0.52-0.28-0.8
			c-0.14-1,0.13-1.91,0.72-2.72c0.09-0.13,0.21-0.25,0.33-0.34c0.86-0.69,1.62-0.62,2.25,0.55
			C148.83,91.53,148.85,91.94,148.91,92.18z M148.45,92.45c0.01-0.78-0.25-1.29-0.69-1.72c-0.15-0.15-0.3-0.17-0.49-0.11
			c-0.36,0.1-0.64,0.32-0.85,0.62c-0.46,0.66-0.72,1.4-0.65,2.21c0.03,0.32,0.15,0.66,0.32,0.95c0.26,0.44,0.73,0.55,1.16,0.28
			c0.25-0.16,0.48-0.38,0.65-0.62C148.29,93.54,148.42,92.93,148.45,92.45z"/>
		<path class="st8" d="M130.89,73.22c0.44-0.01,0.86,0.08,1.23,0.31c0.54,0.33,0.75,0.88,0.55,1.48c-0.26,0.8-0.88,1.25-1.63,1.52
			c-0.73,0.26-1.48,0.2-2.21-0.05c-0.17-0.06-0.33-0.14-0.47-0.24c-0.53-0.38-0.66-0.87-0.36-1.45c0.11-0.22,0.27-0.43,0.45-0.59
			C129.14,73.56,129.96,73.25,130.89,73.22z M130.98,73.63c-1.01,0.1-1.84,0.37-2.44,1.12c-0.43,0.53-0.3,1.02,0.33,1.27
			c0.38,0.15,0.79,0.23,1.19,0.28c0.72,0.08,1.86-0.63,2.13-1.29c0.21-0.5,0.06-0.93-0.44-1.15
			C131.49,73.74,131.19,73.69,130.98,73.63z"/>
		<path class="st8" d="M132.14,81.94c-0.17-0.03-0.4-0.05-0.62-0.11c-1.07-0.3-1.49-1.24-0.96-2.22c0.46-0.87,1.24-1.24,2.21-1.25
			c0.25,0,0.5,0.02,0.75,0.06c0.63,0.08,1.05,0.46,1.28,1.01c0.23,0.54,0.07,1.06-0.31,1.49C133.88,81.61,133.08,81.87,132.14,81.94
			z M133.02,78.79c-0.2,0.01-0.39,0-0.59,0.03c-0.73,0.13-1.3,0.48-1.55,1.22c-0.21,0.63,0.03,1.09,0.65,1.31
			c0.82,0.29,2.1-0.07,2.63-0.75c0.34-0.43,0.32-0.88,0.01-1.32C133.89,78.87,133.51,78.73,133.02,78.79z"/>
		<path class="st8" d="M129.2,68.79c0.17,0.05,0.49,0.09,0.78,0.22c0.74,0.35,0.95,1.18,0.5,1.86c-0.1,0.15-0.21,0.29-0.35,0.4
			c-0.81,0.66-1.77,0.87-2.76,0.71c-1-0.17-1.33-1.09-0.74-1.92C127.2,69.23,128.04,68.84,129.2,68.79z M127.91,71.64
			c0.78-0.02,1.47-0.27,2.01-0.85c0.12-0.12,0.22-0.29,0.27-0.45c0.15-0.56-0.2-1-0.87-1.08c-0.79-0.09-1.48,0.18-2.05,0.71
			c-0.32,0.3-0.61,0.65-0.43,1.12C127.02,71.57,127.48,71.61,127.91,71.64z"/>
		<path class="st8" d="M127.16,86.75c1.07,0,1.89,0.57,2.25,1.57c0.4,1.11,0.09,2.44-0.77,3.06c-0.55,0.4-1.17,0.6-1.86,0.32
			c-0.28-0.11-0.57-0.2-0.84-0.35c-1.03-0.58-1.53-1.78-1.22-2.88C125.01,87.43,125.98,86.75,127.16,86.75z"/>
		<path class="st8" d="M137.14,85.62c0.07-1.08,0.47-1.95,1.32-2.56c0.97-0.7,1.9-0.34,2.19,0.83c0.27,1.09-0.29,2.49-1.25,3.09
			c-0.08,0.05-0.15,0.09-0.24,0.12c-0.85,0.38-1.69,0-1.94-0.9C137.17,86.01,137.16,85.8,137.14,85.62z"/>
		<path class="st8" d="M117.32,97.44c-0.88-0.03-1.53-0.41-1.94-1.16c-0.42-0.78-0.49-1.6-0.04-2.4c0.34-0.6,0.92-0.83,1.59-0.75
			c0.99,0.13,2.21,1.35,2.01,2.52c-0.11,0.65-0.44,1.17-0.92,1.58C117.84,97.38,117.55,97.38,117.32,97.44z"/>
		<path class="st8" d="M138.04,92.35c0.01-0.85,0.23-1.52,0.64-2.13c0.27-0.4,0.64-0.66,1.11-0.8c0.7-0.21,1.24,0.05,1.5,0.73
			c0.18,0.46,0.26,0.94,0.09,1.42c-0.17,0.47-0.34,0.95-0.61,1.36c-0.22,0.33-0.54,0.62-0.88,0.84c-0.76,0.5-1.51,0.19-1.74-0.68
			C138.09,92.82,138.07,92.53,138.04,92.35z"/>
		<path class="st8" d="M147.8,78.32c-0.03,0.8-0.18,1.47-0.5,2.1c-0.36,0.71-0.89,1-1.54,0.89c-0.63-0.11-1.18-0.72-1.28-1.42
			c-0.13-0.95,0.56-2.37,1.39-2.85c0.2-0.11,0.42-0.2,0.64-0.25c0.6-0.12,1.11-0.03,1.19,0.82
			C147.73,77.88,147.78,78.14,147.8,78.32z"/>
		<path class="st8" d="M138.87,98.99c0.07-0.81,0.22-1.52,0.65-2.14c0.19-0.29,0.44-0.51,0.77-0.63c0.69-0.24,1.25,0.02,1.49,0.71
			c0.15,0.44,0.11,0.88,0.01,1.32c-0.18,0.77-0.51,1.45-1.17,1.92c-0.77,0.54-1.42,0.3-1.65-0.61
			C138.9,99.35,138.89,99.13,138.87,98.99z"/>
		<path class="st8" d="M148.44,85.56c-0.05,0.53-0.17,1.03-0.44,1.49c-0.22,0.38-0.51,0.68-0.93,0.84c-0.56,0.22-1.07,0.05-1.28-0.5
			c-0.14-0.37-0.22-0.8-0.21-1.19c0.02-0.63,0.24-1.23,0.64-1.73c0.2-0.26,0.48-0.49,0.77-0.64c0.62-0.32,1.07-0.1,1.25,0.58
			C148.33,84.78,148.37,85.17,148.44,85.56z"/>
		<path class="st8" d="M148.45,92.45c-0.03,0.48-0.16,1.09-0.55,1.61c-0.18,0.24-0.4,0.46-0.65,0.62c-0.43,0.27-0.9,0.16-1.16-0.28
			c-0.17-0.28-0.29-0.62-0.32-0.95c-0.07-0.81,0.18-1.55,0.65-2.21c0.21-0.3,0.49-0.51,0.85-0.62c0.18-0.05,0.34-0.04,0.49,0.11
			C148.2,91.16,148.45,91.67,148.45,92.45z"/>
		<path class="st8" d="M130.98,73.63c0.21,0.06,0.51,0.11,0.78,0.23c0.49,0.22,0.64,0.65,0.44,1.15c-0.27,0.66-1.41,1.38-2.13,1.29
			c-0.4-0.05-0.81-0.13-1.19-0.28c-0.64-0.25-0.76-0.74-0.33-1.27C129.14,74.01,129.97,73.73,130.98,73.63z"/>
		<path class="st8" d="M133.02,78.79c0.48-0.06,0.86,0.08,1.15,0.5c0.31,0.44,0.32,0.9-0.01,1.32c-0.54,0.68-1.81,1.04-2.63,0.75
			c-0.61-0.22-0.86-0.69-0.65-1.31c0.25-0.74,0.82-1.09,1.55-1.22C132.63,78.79,132.83,78.8,133.02,78.79z"/>
		<path class="st8" d="M127.91,71.64c-0.44-0.03-0.89-0.08-1.07-0.55s0.11-0.82,0.43-1.12c0.58-0.53,1.26-0.8,2.05-0.71
			c0.67,0.08,1.02,0.52,0.87,1.08c-0.05,0.16-0.15,0.33-0.27,0.45C129.38,71.37,128.69,71.62,127.91,71.64z"/>
	</g>
	<g>
		<path class="st46" d="M420.26,185.17c0,0,3.02-27.78,30.03-14.03c0,0,4.12-28.34,30.35-13.36c0,0-0.34-12.29,11.05-17.53
			c4.54-2.09,13.13-3.69,19.78,3.51"/>
		<line class="st46" x1="415.33" y1="193.56" x2="526.99" y2="142.2"/>
		<g class="st47">
			<path class="st8" d="M426.11,194.37c0.13,0.28,0.21,0.54,0.25,0.77c0.04,0.23,0.03,0.44-0.01,0.63s-0.12,0.34-0.24,0.47
				s-0.25,0.24-0.42,0.31c-0.17,0.08-0.34,0.12-0.51,0.12c-0.17,0-0.34-0.04-0.51-0.13s-0.33-0.22-0.48-0.4
				c-0.16-0.18-0.3-0.41-0.43-0.69c-0.13-0.28-0.21-0.54-0.25-0.77c-0.04-0.23-0.03-0.44,0.01-0.63c0.04-0.18,0.12-0.34,0.23-0.47
				c0.11-0.13,0.25-0.23,0.42-0.31c0.17-0.08,0.34-0.12,0.51-0.12c0.17,0,0.35,0.04,0.51,0.13c0.17,0.09,0.33,0.22,0.48,0.4
				C425.83,193.86,425.98,194.09,426.11,194.37z M425.54,194.63c-0.11-0.23-0.21-0.42-0.32-0.55c-0.1-0.14-0.21-0.24-0.3-0.3
				c-0.1-0.06-0.19-0.1-0.28-0.1c-0.09,0-0.18,0.02-0.26,0.05c-0.08,0.04-0.15,0.09-0.2,0.16c-0.06,0.07-0.09,0.16-0.11,0.28
				c-0.01,0.12,0,0.26,0.03,0.43c0.04,0.17,0.11,0.37,0.22,0.6c0.11,0.23,0.21,0.42,0.32,0.55c0.1,0.14,0.2,0.24,0.3,0.3
				c0.1,0.06,0.19,0.1,0.28,0.1c0.09,0,0.17-0.01,0.25-0.05c0.08-0.04,0.15-0.09,0.21-0.16c0.06-0.07,0.09-0.16,0.11-0.28
				s0.01-0.26-0.03-0.43C425.72,195.07,425.65,194.87,425.54,194.63z"/>
			<path class="st8" d="M433.39,192.47l0.19,0.41l-1.78,0.82l-0.19-0.41l0.65-0.3l-0.86-1.87c-0.04-0.07-0.07-0.15-0.1-0.23
				l-0.28,0.6c-0.02,0.03-0.04,0.06-0.06,0.07c-0.02,0.02-0.05,0.03-0.07,0.04c-0.03,0.01-0.05,0.01-0.07,0
				c-0.02,0-0.04-0.01-0.06-0.02l-0.28-0.16l0.6-1.28l0.45-0.21l1.29,2.81L433.39,192.47z"/>
			<path class="st8" d="M441.2,188.76c0.06-0.03,0.11-0.03,0.16-0.02c0.05,0.02,0.09,0.05,0.11,0.11l0.15,0.33l-2.2,1.01l-0.08-0.18
				c-0.02-0.04-0.03-0.08-0.03-0.13c0-0.05,0-0.1,0.02-0.14l0.53-1.43c0.04-0.12,0.08-0.23,0.11-0.34c0.03-0.1,0.05-0.21,0.06-0.3
				c0.01-0.09,0.01-0.18,0-0.27c-0.01-0.09-0.04-0.17-0.08-0.26c-0.04-0.08-0.08-0.14-0.13-0.19c-0.05-0.05-0.1-0.08-0.16-0.1
				c-0.06-0.02-0.12-0.03-0.19-0.02c-0.07,0.01-0.13,0.03-0.21,0.06c-0.07,0.03-0.12,0.07-0.17,0.11c-0.05,0.04-0.08,0.09-0.11,0.15
				c-0.03,0.05-0.04,0.11-0.05,0.17s-0.01,0.12,0,0.18c0.01,0.08-0.01,0.14-0.04,0.18c-0.03,0.04-0.08,0.07-0.17,0.1l-0.31,0.08
				c-0.05-0.16-0.07-0.32-0.06-0.47c0.01-0.15,0.05-0.28,0.11-0.4s0.14-0.23,0.25-0.33c0.11-0.1,0.23-0.18,0.37-0.24
				c0.15-0.07,0.29-0.11,0.44-0.12c0.14-0.01,0.28,0,0.4,0.04c0.12,0.04,0.24,0.1,0.34,0.19s0.18,0.2,0.25,0.34
				c0.05,0.12,0.09,0.24,0.1,0.35c0.01,0.12,0.01,0.24-0.01,0.35c-0.02,0.12-0.04,0.24-0.08,0.36c-0.04,0.12-0.08,0.25-0.13,0.38
				l-0.38,1.07c0.06-0.05,0.12-0.1,0.19-0.14c0.06-0.04,0.13-0.08,0.19-0.11L441.2,188.76z"/>
			<path class="st8" d="M446.41,184.18c-0.05-0.16-0.07-0.32-0.06-0.47c0.01-0.15,0.04-0.28,0.1-0.4c0.06-0.12,0.14-0.23,0.25-0.33
				c0.11-0.09,0.23-0.18,0.37-0.24c0.15-0.07,0.29-0.11,0.43-0.12s0.27,0,0.39,0.04c0.12,0.04,0.22,0.09,0.32,0.17
				c0.09,0.08,0.16,0.18,0.22,0.29c0.05,0.1,0.08,0.2,0.09,0.29c0.01,0.09,0.01,0.17,0,0.25c-0.02,0.08-0.05,0.15-0.09,0.22
				c-0.04,0.07-0.1,0.14-0.17,0.2c0.22-0.03,0.41,0,0.56,0.08c0.15,0.08,0.27,0.21,0.36,0.4c0.07,0.16,0.11,0.32,0.11,0.47
				c0,0.15-0.04,0.29-0.1,0.42c-0.06,0.13-0.15,0.25-0.26,0.35c-0.11,0.1-0.24,0.19-0.39,0.26c-0.16,0.07-0.31,0.12-0.45,0.14
				s-0.27,0.01-0.39-0.02c-0.12-0.03-0.24-0.09-0.35-0.16c-0.11-0.08-0.22-0.17-0.33-0.29l0.2-0.21c0.05-0.06,0.11-0.09,0.17-0.1
				s0.12,0,0.16,0.04c0.05,0.04,0.1,0.08,0.16,0.11c0.06,0.04,0.11,0.06,0.18,0.08c0.06,0.02,0.13,0.03,0.2,0.02
				c0.07,0,0.15-0.02,0.23-0.06c0.09-0.04,0.17-0.1,0.22-0.16c0.05-0.06,0.09-0.13,0.12-0.2c0.02-0.07,0.03-0.14,0.03-0.21
				c0-0.07-0.02-0.14-0.05-0.2c-0.04-0.08-0.08-0.14-0.12-0.2c-0.05-0.06-0.1-0.09-0.18-0.12c-0.07-0.02-0.16-0.02-0.27,0
				c-0.11,0.02-0.24,0.07-0.41,0.14l-0.18-0.39c0.13-0.06,0.24-0.13,0.32-0.19c0.08-0.06,0.13-0.13,0.17-0.2
				c0.03-0.07,0.05-0.13,0.04-0.2c-0.01-0.07-0.03-0.14-0.06-0.21c-0.07-0.15-0.16-0.25-0.28-0.29c-0.12-0.04-0.25-0.03-0.39,0.04
				c-0.06,0.03-0.12,0.07-0.17,0.11c-0.05,0.04-0.08,0.09-0.11,0.15c-0.03,0.05-0.05,0.11-0.06,0.17c-0.01,0.06-0.01,0.12,0,0.18
				c0.01,0.08-0.01,0.14-0.04,0.18c-0.03,0.04-0.09,0.07-0.17,0.1L446.41,184.18z"/>
			<path class="st8" d="M457.12,180.59l0.15,0.32c0.01,0.03,0.02,0.06,0.01,0.09c-0.01,0.03-0.03,0.05-0.07,0.07l-0.29,0.14
				l0.36,0.79l-0.48,0.22l-0.36-0.79l-1.36,0.62c-0.04,0.02-0.08,0.02-0.11,0.01c-0.04-0.01-0.07-0.03-0.09-0.06l-0.19-0.25
				l0.59-2.73l0.52-0.24l0.92,2L457.12,180.59z M456.24,181l-0.48-1.05c-0.05-0.1-0.09-0.21-0.13-0.34l-0.36,1.84L456.24,181z"/>
			<path class="st8" d="M462.07,177.3c0.06-0.05,0.13-0.09,0.19-0.13c0.06-0.04,0.12-0.07,0.18-0.1c0.17-0.08,0.33-0.12,0.48-0.13
				c0.15-0.01,0.29,0.01,0.42,0.06c0.13,0.05,0.24,0.12,0.34,0.22s0.18,0.22,0.24,0.35c0.08,0.17,0.12,0.34,0.13,0.51
				c0,0.17-0.02,0.33-0.08,0.48c-0.06,0.15-0.15,0.28-0.27,0.41c-0.12,0.12-0.27,0.22-0.44,0.3c-0.1,0.05-0.2,0.08-0.3,0.1
				s-0.2,0.03-0.29,0.03c-0.1,0-0.19-0.01-0.28-0.02c-0.09-0.01-0.17-0.03-0.25-0.06l0.06-0.31c0.01-0.07,0.05-0.11,0.11-0.14
				c0.04-0.02,0.08-0.02,0.13-0.02c0.05,0.01,0.11,0.01,0.17,0.02c0.06,0.01,0.13,0,0.21,0c0.08-0.01,0.17-0.03,0.26-0.08
				c0.1-0.05,0.18-0.1,0.24-0.17c0.06-0.07,0.11-0.14,0.13-0.23c0.02-0.08,0.03-0.17,0.02-0.26c-0.01-0.09-0.04-0.19-0.08-0.28
				c-0.08-0.17-0.19-0.29-0.34-0.34c-0.15-0.05-0.32-0.03-0.52,0.06c-0.15,0.07-0.29,0.17-0.43,0.3l-0.39,0.06l-0.45-1.68l1.59-0.73
				l0.11,0.23c0.04,0.08,0.04,0.15,0.01,0.22s-0.1,0.14-0.21,0.19l-0.88,0.41L462.07,177.3z"/>
			<path class="st8" d="M470.31,173.51l-0.05,0.19c0.05-0.06,0.1-0.11,0.17-0.16c0.06-0.05,0.14-0.09,0.22-0.13
				c0.12-0.06,0.25-0.09,0.38-0.1c0.13-0.01,0.26,0,0.39,0.04c0.13,0.04,0.24,0.11,0.35,0.2c0.11,0.09,0.2,0.22,0.27,0.38
				c0.07,0.15,0.11,0.3,0.11,0.46c0,0.16-0.02,0.31-0.07,0.45c-0.05,0.14-0.14,0.28-0.25,0.4c-0.11,0.12-0.26,0.22-0.42,0.3
				c-0.17,0.08-0.34,0.12-0.5,0.13c-0.16,0.01-0.31-0.01-0.45-0.07c-0.14-0.05-0.27-0.14-0.38-0.25c-0.12-0.12-0.21-0.26-0.29-0.43
				c-0.07-0.15-0.11-0.32-0.12-0.51c-0.01-0.19,0.01-0.4,0.06-0.63l0.29-1.38c0.01-0.05,0.04-0.1,0.07-0.15
				c0.04-0.05,0.09-0.09,0.16-0.12l0.49-0.23L470.31,173.51z M471.19,175.09c0.09-0.04,0.16-0.09,0.22-0.15
				c0.06-0.06,0.1-0.13,0.13-0.21c0.03-0.08,0.04-0.16,0.04-0.25c0-0.09-0.02-0.17-0.06-0.25c-0.04-0.09-0.09-0.17-0.16-0.23
				c-0.06-0.06-0.13-0.1-0.21-0.13c-0.08-0.03-0.16-0.04-0.24-0.03c-0.08,0.01-0.17,0.03-0.26,0.07c-0.09,0.04-0.16,0.09-0.22,0.15
				c-0.06,0.06-0.1,0.13-0.13,0.21c-0.03,0.08-0.04,0.16-0.03,0.24c0,0.08,0.03,0.17,0.06,0.25c0.04,0.09,0.09,0.16,0.15,0.23
				c0.06,0.06,0.12,0.11,0.2,0.14s0.15,0.04,0.24,0.04C471,175.15,471.09,175.13,471.19,175.09z"/>
			<path class="st8" d="M479.02,168.09l0.11,0.24c0.03,0.07,0.05,0.13,0.06,0.18c0.01,0.05,0.01,0.09,0.01,0.13l-0.07,3.07
				c0,0.06-0.02,0.12-0.04,0.18c-0.03,0.06-0.08,0.1-0.16,0.14l-0.4,0.18l0.11-3.03c0-0.06,0.01-0.12,0.02-0.18
				c0.01-0.05,0.02-0.11,0.04-0.16l-1.54,0.71c-0.03,0.02-0.07,0.02-0.11,0c-0.04-0.01-0.06-0.04-0.08-0.07l-0.17-0.37
				L479.02,168.09z"/>
			<path class="st8" d="M486.03,166.73c0.23-0.03,0.42,0.01,0.57,0.09c0.15,0.09,0.27,0.23,0.36,0.42c0.07,0.14,0.1,0.28,0.1,0.42
				s-0.03,0.27-0.09,0.4c-0.06,0.13-0.15,0.24-0.27,0.35c-0.12,0.11-0.26,0.2-0.42,0.28c-0.17,0.08-0.33,0.12-0.49,0.14
				c-0.16,0.02-0.3,0.01-0.44-0.03c-0.13-0.04-0.26-0.1-0.36-0.19s-0.19-0.21-0.26-0.35c-0.09-0.19-0.11-0.37-0.08-0.55
				s0.13-0.34,0.3-0.49c-0.19,0.01-0.34-0.03-0.48-0.12c-0.13-0.08-0.24-0.21-0.32-0.38c-0.06-0.12-0.08-0.25-0.08-0.38
				c0-0.13,0.03-0.25,0.08-0.37c0.05-0.12,0.13-0.23,0.23-0.33c0.1-0.1,0.23-0.18,0.38-0.25c0.15-0.07,0.29-0.11,0.44-0.12
				c0.14-0.01,0.28,0,0.4,0.04c0.13,0.04,0.24,0.1,0.33,0.18c0.1,0.08,0.17,0.18,0.23,0.31c0.08,0.17,0.11,0.33,0.08,0.49
				C486.23,166.45,486.16,166.6,486.03,166.73z M484.95,165.82c-0.08,0.04-0.15,0.08-0.19,0.13c-0.05,0.05-0.08,0.11-0.1,0.17
				c-0.02,0.06-0.03,0.12-0.02,0.19c0.01,0.06,0.02,0.13,0.05,0.19c0.03,0.06,0.07,0.12,0.11,0.18c0.04,0.05,0.09,0.09,0.15,0.12
				c0.06,0.03,0.13,0.04,0.2,0.05c0.07,0,0.16-0.02,0.24-0.06s0.16-0.09,0.21-0.14c0.05-0.06,0.08-0.12,0.1-0.18
				c0.02-0.06,0.02-0.13,0-0.2c-0.01-0.07-0.03-0.13-0.06-0.2c-0.03-0.06-0.06-0.11-0.11-0.16c-0.04-0.05-0.1-0.08-0.15-0.11
				c-0.06-0.03-0.12-0.04-0.19-0.03C485.11,165.76,485.04,165.78,484.95,165.82z M486.08,168.26c0.09-0.04,0.16-0.09,0.22-0.15
				c0.06-0.06,0.1-0.12,0.12-0.19c0.03-0.07,0.04-0.14,0.03-0.21c0-0.07-0.03-0.15-0.06-0.22c-0.08-0.18-0.19-0.29-0.33-0.33
				c-0.14-0.05-0.29-0.03-0.47,0.05s-0.29,0.19-0.34,0.32c-0.05,0.13-0.04,0.29,0.04,0.47c0.04,0.07,0.08,0.14,0.13,0.19
				c0.05,0.05,0.11,0.09,0.18,0.12c0.07,0.03,0.14,0.04,0.22,0.03C485.9,168.33,485.99,168.31,486.08,168.26z"/>
			<path class="st8" d="M493.84,163.66c0.01-0.04,0.02-0.08,0.03-0.12c0.01-0.04,0.02-0.08,0.02-0.12
				c-0.05,0.08-0.12,0.15-0.19,0.22c-0.08,0.07-0.17,0.12-0.26,0.17c-0.11,0.05-0.23,0.08-0.35,0.09c-0.12,0.01-0.25,0-0.36-0.04
				c-0.12-0.04-0.23-0.1-0.33-0.2c-0.1-0.09-0.19-0.21-0.26-0.37c-0.07-0.14-0.1-0.29-0.11-0.44s0.02-0.3,0.07-0.44
				c0.05-0.14,0.13-0.27,0.24-0.38c0.11-0.12,0.25-0.21,0.41-0.29c0.16-0.08,0.32-0.12,0.48-0.13c0.16-0.01,0.3,0.01,0.44,0.06
				s0.26,0.13,0.37,0.24c0.11,0.11,0.2,0.24,0.27,0.4c0.04,0.1,0.08,0.2,0.1,0.29c0.02,0.1,0.04,0.19,0.05,0.29
				c0.01,0.1,0.01,0.19,0,0.29c-0.01,0.1-0.02,0.2-0.04,0.3l-0.25,1.39c-0.01,0.05-0.03,0.09-0.07,0.14
				c-0.04,0.05-0.09,0.09-0.15,0.12l-0.5,0.23L493.84,163.66z M492.65,162.99c0.08,0.18,0.19,0.29,0.33,0.35s0.29,0.04,0.46-0.04
				c0.09-0.04,0.16-0.09,0.22-0.15c0.06-0.06,0.1-0.13,0.12-0.2c0.03-0.07,0.04-0.14,0.03-0.22c-0.01-0.08-0.03-0.16-0.06-0.23
				c-0.04-0.09-0.09-0.16-0.15-0.22c-0.06-0.06-0.12-0.1-0.19-0.12c-0.07-0.02-0.15-0.03-0.23-0.03c-0.08,0.01-0.16,0.03-0.24,0.06
				c-0.08,0.04-0.15,0.09-0.21,0.14c-0.05,0.06-0.09,0.12-0.12,0.19c-0.03,0.07-0.03,0.15-0.03,0.22
				C492.59,162.83,492.61,162.92,492.65,162.99z"/>
			<path class="st8" d="M500.88,161.44l0.19,0.41l-1.78,0.82l-0.19-0.41l0.65-0.3l-0.86-1.87c-0.03-0.07-0.07-0.15-0.1-0.23
				l-0.28,0.6c-0.02,0.03-0.04,0.06-0.06,0.07c-0.02,0.02-0.05,0.03-0.07,0.04c-0.03,0.01-0.05,0.01-0.07,0
				c-0.02,0-0.04-0.01-0.06-0.02l-0.28-0.16l0.6-1.28l0.45-0.21l1.29,2.81L500.88,161.44z"/>
			<path class="st8" d="M503.07,158.98c0.13,0.28,0.21,0.54,0.25,0.77c0.04,0.23,0.03,0.44-0.01,0.63
				c-0.04,0.18-0.12,0.34-0.24,0.47c-0.11,0.13-0.25,0.24-0.42,0.31c-0.17,0.08-0.34,0.12-0.51,0.12c-0.17,0-0.34-0.04-0.51-0.13
				c-0.17-0.09-0.33-0.22-0.48-0.4s-0.3-0.41-0.42-0.69c-0.13-0.28-0.21-0.54-0.25-0.77c-0.04-0.23-0.03-0.44,0.01-0.63
				c0.04-0.18,0.12-0.34,0.23-0.47c0.11-0.13,0.25-0.23,0.42-0.31c0.17-0.08,0.34-0.12,0.51-0.12c0.17,0,0.35,0.04,0.51,0.13
				c0.17,0.09,0.33,0.22,0.48,0.4C502.8,158.47,502.94,158.7,503.07,158.98z M502.51,159.24c-0.11-0.23-0.21-0.42-0.32-0.55
				c-0.1-0.14-0.21-0.24-0.3-0.3c-0.1-0.06-0.19-0.1-0.28-0.1c-0.09,0-0.18,0.02-0.26,0.05c-0.08,0.04-0.15,0.09-0.2,0.16
				c-0.06,0.07-0.09,0.16-0.11,0.28c-0.01,0.12,0,0.26,0.03,0.43c0.04,0.17,0.11,0.37,0.21,0.6c0.11,0.23,0.21,0.42,0.32,0.56
				c0.1,0.14,0.2,0.24,0.3,0.3c0.1,0.06,0.19,0.1,0.28,0.1c0.09,0,0.17-0.01,0.25-0.05c0.08-0.04,0.15-0.09,0.21-0.16
				c0.06-0.07,0.09-0.16,0.11-0.28c0.02-0.12,0-0.26-0.03-0.43C502.68,159.67,502.61,159.47,502.51,159.24z"/>
			<path class="st8" d="M509.28,157.57l0.19,0.41l-1.78,0.82l-0.19-0.41l0.65-0.3l-0.86-1.87c-0.04-0.07-0.07-0.15-0.1-0.23
				l-0.28,0.6c-0.02,0.03-0.04,0.06-0.06,0.07c-0.02,0.02-0.05,0.03-0.07,0.04c-0.03,0.01-0.05,0.01-0.07,0
				c-0.02,0-0.04-0.01-0.06-0.02l-0.28-0.16l0.6-1.28l0.45-0.21l1.29,2.81L509.28,157.57z"/>
			<path class="st8" d="M511.85,156.39l0.19,0.41l-1.78,0.82l-0.19-0.41l0.65-0.3l-0.86-1.87c-0.03-0.07-0.07-0.15-0.1-0.23
				l-0.28,0.6c-0.02,0.03-0.04,0.06-0.06,0.07c-0.02,0.02-0.05,0.03-0.07,0.04c-0.03,0.01-0.05,0.01-0.07,0
				c-0.02,0-0.04-0.01-0.06-0.02l-0.28-0.16l0.6-1.28l0.45-0.21l1.29,2.81L511.85,156.39z"/>
			<path class="st8" d="M516.59,154.21l0.19,0.41l-1.78,0.82l-0.19-0.41l0.65-0.3l-0.86-1.87c-0.03-0.07-0.07-0.15-0.1-0.23
				l-0.28,0.6c-0.02,0.03-0.04,0.06-0.06,0.07c-0.02,0.02-0.05,0.03-0.07,0.04c-0.03,0.01-0.05,0.01-0.07,0
				c-0.02,0-0.04-0.01-0.06-0.02l-0.28-0.16l0.6-1.28l0.45-0.21l1.29,2.81L516.59,154.21z"/>
			<path class="st8" d="M519,152.98c0.06-0.03,0.11-0.03,0.16-0.02c0.05,0.02,0.09,0.05,0.11,0.11l0.15,0.33l-2.21,1.01l-0.08-0.18
				c-0.02-0.04-0.03-0.08-0.03-0.13c0-0.05,0-0.1,0.02-0.14l0.53-1.43c0.04-0.12,0.08-0.23,0.11-0.34c0.03-0.1,0.05-0.2,0.06-0.3
				s0.01-0.18,0-0.27c-0.01-0.09-0.04-0.17-0.08-0.26c-0.04-0.08-0.08-0.14-0.13-0.19c-0.05-0.05-0.1-0.08-0.16-0.1
				c-0.06-0.02-0.12-0.03-0.19-0.02c-0.07,0.01-0.13,0.03-0.21,0.06c-0.07,0.03-0.12,0.07-0.17,0.11c-0.05,0.04-0.08,0.09-0.11,0.15
				c-0.03,0.05-0.05,0.11-0.05,0.17c-0.01,0.06-0.01,0.12,0,0.18c0.01,0.08-0.01,0.14-0.04,0.18c-0.03,0.04-0.08,0.07-0.17,0.1
				l-0.31,0.08c-0.05-0.16-0.07-0.32-0.06-0.47s0.05-0.28,0.1-0.4c0.06-0.12,0.14-0.23,0.25-0.33c0.11-0.1,0.23-0.18,0.37-0.24
				c0.15-0.07,0.29-0.11,0.44-0.12c0.14-0.01,0.28,0,0.4,0.04c0.12,0.04,0.24,0.1,0.34,0.19c0.1,0.09,0.18,0.2,0.25,0.34
				c0.05,0.12,0.09,0.24,0.1,0.35c0.01,0.12,0.01,0.24-0.01,0.35c-0.02,0.12-0.04,0.24-0.08,0.36s-0.08,0.25-0.13,0.38l-0.38,1.07
				c0.06-0.05,0.12-0.1,0.19-0.14c0.06-0.04,0.13-0.08,0.19-0.11L519,152.98z"/>
			<path class="st8" d="M523.91,150.85l0.19,0.41l-1.78,0.82l-0.19-0.41l0.65-0.3l-0.86-1.87c-0.03-0.07-0.07-0.15-0.1-0.23
				l-0.28,0.6c-0.02,0.03-0.04,0.06-0.06,0.07c-0.02,0.02-0.05,0.03-0.07,0.04c-0.02,0.01-0.05,0.01-0.07,0
				c-0.02,0-0.04-0.01-0.06-0.02l-0.28-0.16l0.6-1.28l0.45-0.21l1.29,2.81L523.91,150.85z"/>
			<path class="st8" d="M523.55,148.7c-0.05-0.16-0.07-0.32-0.06-0.47c0.01-0.15,0.05-0.28,0.1-0.4c0.06-0.12,0.14-0.23,0.25-0.33
				c0.11-0.1,0.23-0.18,0.37-0.24c0.15-0.07,0.29-0.11,0.43-0.12s0.27,0,0.39,0.04s0.22,0.09,0.32,0.17
				c0.09,0.08,0.17,0.18,0.22,0.29c0.05,0.1,0.08,0.2,0.09,0.29c0.01,0.09,0.01,0.17,0,0.25c-0.02,0.08-0.05,0.15-0.09,0.22
				c-0.04,0.07-0.1,0.14-0.17,0.2c0.22-0.03,0.41,0,0.56,0.08c0.15,0.08,0.27,0.21,0.36,0.4c0.07,0.16,0.11,0.32,0.11,0.47
				c0,0.15-0.04,0.29-0.1,0.42c-0.06,0.13-0.15,0.25-0.26,0.35c-0.11,0.1-0.24,0.19-0.39,0.26c-0.16,0.07-0.31,0.12-0.45,0.14
				c-0.14,0.02-0.27,0.01-0.39-0.02c-0.12-0.03-0.24-0.09-0.35-0.16c-0.11-0.08-0.22-0.17-0.33-0.29l0.2-0.21
				c0.05-0.06,0.11-0.09,0.17-0.1s0.12,0,0.16,0.04c0.05,0.04,0.1,0.08,0.16,0.11c0.06,0.04,0.11,0.06,0.18,0.08
				c0.06,0.02,0.13,0.03,0.2,0.02s0.15-0.02,0.23-0.06c0.09-0.04,0.17-0.1,0.22-0.16c0.06-0.06,0.1-0.13,0.12-0.2
				c0.02-0.07,0.03-0.14,0.03-0.21c-0.01-0.07-0.02-0.14-0.05-0.2c-0.04-0.08-0.08-0.14-0.12-0.2c-0.05-0.06-0.1-0.09-0.18-0.11
				c-0.07-0.02-0.16-0.02-0.27,0c-0.11,0.02-0.24,0.07-0.41,0.14l-0.18-0.39c0.13-0.06,0.24-0.13,0.32-0.19
				c0.08-0.06,0.13-0.13,0.17-0.2c0.03-0.07,0.05-0.13,0.04-0.2c-0.01-0.07-0.03-0.14-0.06-0.21c-0.07-0.15-0.16-0.25-0.29-0.29
				c-0.12-0.04-0.25-0.03-0.39,0.04c-0.07,0.03-0.12,0.07-0.17,0.11c-0.05,0.04-0.08,0.09-0.11,0.15c-0.03,0.05-0.05,0.11-0.06,0.17
				c-0.01,0.06-0.01,0.12,0,0.18c0.01,0.08-0.01,0.14-0.04,0.18c-0.03,0.04-0.09,0.07-0.17,0.1L523.55,148.7z"/>
		</g>
		<line class="st46" x1="414.78" y1="193.58" x2="419.31" y2="194.64"/>
		<line class="st46" x1="415.26" y1="193.88" x2="417.05" y2="189.85"/>
		<line class="st46" x1="422.97" y1="191.52" x2="421.91" y2="189.21"/>
		<line class="st46" x1="430.59" y1="188.01" x2="429.53" y2="185.71"/>
		<line class="st46" x1="438.21" y1="184.51" x2="437.15" y2="182.2"/>
		<line class="st46" x1="445.83" y1="181" x2="444.77" y2="178.7"/>
		<line class="st46" x1="453.45" y1="177.5" x2="452.39" y2="175.2"/>
		<line class="st46" x1="461.06" y1="174" x2="460.01" y2="171.69"/>
		<line class="st46" x1="468.68" y1="170.49" x2="467.62" y2="168.19"/>
		<line class="st46" x1="476.3" y1="166.99" x2="475.24" y2="164.69"/>
		<line class="st46" x1="483.92" y1="163.49" x2="482.86" y2="161.18"/>
		<line class="st46" x1="491.54" y1="159.98" x2="490.48" y2="157.68"/>
		<line class="st46" x1="499.16" y1="156.48" x2="498.1" y2="154.17"/>
		<line class="st46" x1="506.78" y1="152.97" x2="505.72" y2="150.67"/>
		<line class="st46" x1="514.4" y1="149.47" x2="513.34" y2="147.17"/>
		<line class="st46" x1="522.01" y1="145.97" x2="520.95" y2="143.66"/>
		<line class="st46" x1="511.96" y1="145.12" x2="512.15" y2="140.47"/>
		<line class="st46" x1="512.16" y1="144.6" x2="507.87" y2="143.6"/>
	</g>
	<g>
		<path class="st8" d="M25.54,303.49c-9.41,0-17.04,7.63-17.04,17.04s7.63,17.04,17.04,17.04s17.04-7.63,17.04-17.04
			S34.95,303.49,25.54,303.49z M26.9,335.71v-1.21c0-0.75-0.61-1.35-1.35-1.35s-1.35,0.61-1.35,1.35v1.21
			c-7.34-0.65-13.19-6.52-13.82-13.86h1.17c0.75,0,1.35-0.61,1.35-1.35s-0.61-1.35-1.35-1.35h-1.16c0.67-7.3,6.51-13.13,13.82-13.78
			v1.12c0,0.75,0.61,1.35,1.35,1.35s1.35-0.61,1.35-1.35v-1.12c7.31,0.65,13.15,6.47,13.82,13.78h-1.16c-0.75,0-1.35,0.61-1.35,1.35
			s0.61,1.35,1.35,1.35h1.17C40.09,329.19,34.23,335.06,26.9,335.71z"/>
		<path class="st8" d="M33.2,312.23l-7.62,7.98c-0.01,0-0.03,0-0.04,0c-0.1,0-0.19,0.01-0.28,0.03l-6.38-4.82
			c-0.42-0.32-1.03-0.24-1.35,0.19c-0.32,0.42-0.24,1.03,0.19,1.35l6.37,4.82c0.06,0.74,0.68,1.33,1.44,1.33
			c0.8,0,1.45-0.65,1.45-1.45c0-0.04,0-0.08-0.01-0.11l7.62-7.98c0.37-0.39,0.35-0.99-0.03-1.36
			C34.18,311.83,33.57,311.85,33.2,312.23z"/>
	</g>
	<g>
		<g>
			<path class="st8" d="M50.87,150.36l11.02,36.35l-27.01,8.19l-11.02-36.35L50.87,150.36 M53.53,145.37l-34.67,10.51l13.34,44.01
				l34.67-10.51L53.53,145.37L53.53,145.37z"/>
		</g>
		<g>
			<line class="st43" x1="30.39" y1="152.28" x2="43.74" y2="196.29"/>
			<line class="st48" x1="30.39" y1="152.28" x2="43.74" y2="196.29"/>
		</g>
		<g>
			<line class="st43" x1="42.03" y1="148.76" x2="55.37" y2="192.77"/>
			<line class="st48" x1="42.03" y1="148.76" x2="55.37" y2="192.77"/>
		</g>
		<line class="st43" x1="22.2" y1="166.61" x2="56.87" y2="156.1"/>
		<line class="st43" x1="25.59" y1="177.77" x2="60.26" y2="167.26"/>
		<line class="st43" x1="28.97" y1="188.94" x2="63.64" y2="178.43"/>
		<g class="st47">
			<path class="st8" d="M22.55,179.04l0.22,0.72c0.02,0.08,0.02,0.15-0.01,0.21c-0.03,0.07-0.09,0.11-0.19,0.14l-1.26,0.38
				l0.81,2.67l-1.1,0.33l-0.81-2.67l-4.5,1.36c-0.09,0.03-0.18,0.03-0.27-0.01c-0.08-0.03-0.15-0.09-0.19-0.16l-0.32-0.61l2.95-8.04
				l1.17-0.36l1.96,6.48L22.55,179.04z M19.91,179.84l-1.27-4.18c-0.04-0.12-0.07-0.26-0.11-0.41c-0.04-0.15-0.07-0.3-0.09-0.46
				l-2.17,6.15L19.91,179.84z"/>
		</g>
		<g class="st47">
			<path class="st8" d="M48.21,200.3c-0.07-0.48-0.07-0.93,0.01-1.34c0.08-0.41,0.23-0.78,0.45-1.11c0.22-0.33,0.49-0.61,0.83-0.85
				s0.72-0.42,1.16-0.56c0.43-0.13,0.84-0.19,1.25-0.18c0.4,0.01,0.77,0.09,1.1,0.24c0.33,0.15,0.62,0.36,0.86,0.64
				s0.42,0.61,0.54,1c0.1,0.32,0.14,0.62,0.14,0.9c-0.01,0.28-0.06,0.53-0.15,0.77c-0.1,0.23-0.23,0.45-0.41,0.65
				c-0.18,0.2-0.39,0.38-0.63,0.55c0.71-0.03,1.3,0.11,1.75,0.42c0.46,0.31,0.78,0.78,0.97,1.4c0.14,0.47,0.18,0.91,0.12,1.34
				c-0.06,0.43-0.21,0.82-0.44,1.17c-0.23,0.35-0.52,0.66-0.89,0.93c-0.37,0.26-0.78,0.47-1.25,0.61c-0.54,0.16-1.02,0.23-1.44,0.22
				c-0.42-0.02-0.8-0.1-1.14-0.26s-0.64-0.37-0.9-0.64c-0.27-0.27-0.52-0.58-0.75-0.92l0.48-0.39c0.12-0.1,0.26-0.16,0.4-0.18
				c0.14-0.01,0.26,0.04,0.36,0.14c0.1,0.11,0.23,0.25,0.37,0.41c0.15,0.15,0.33,0.29,0.54,0.41c0.21,0.12,0.46,0.2,0.74,0.25
				c0.28,0.04,0.62,0.01,1-0.11c0.35-0.11,0.65-0.26,0.88-0.46c0.23-0.2,0.41-0.41,0.53-0.65c0.12-0.24,0.19-0.48,0.21-0.74
				s0-0.49-0.07-0.71c-0.08-0.27-0.19-0.51-0.33-0.72c-0.14-0.21-0.33-0.36-0.58-0.47c-0.24-0.11-0.55-0.16-0.91-0.15
				c-0.37,0.01-0.81,0.09-1.34,0.25l-0.28-0.91c0.43-0.14,0.79-0.29,1.06-0.48c0.28-0.18,0.49-0.38,0.63-0.59
				c0.14-0.21,0.23-0.44,0.25-0.69s-0.01-0.5-0.09-0.76c-0.09-0.29-0.21-0.53-0.37-0.72s-0.34-0.33-0.54-0.42s-0.42-0.14-0.67-0.15
				c-0.24,0-0.49,0.03-0.74,0.11c-0.25,0.08-0.48,0.19-0.68,0.33c-0.2,0.14-0.36,0.3-0.48,0.49c-0.13,0.19-0.22,0.39-0.28,0.61
				c-0.06,0.22-0.08,0.45-0.06,0.68c-0.01,0.18-0.05,0.32-0.13,0.4c-0.08,0.08-0.21,0.14-0.39,0.17L48.21,200.3z"/>
		</g>
		<text transform="matrix(0.957 -0.2901 0.2901 0.957 38.1882 189.7822)" class="st8 st49 st50">?</text>
	</g>
</g>
</svg>
