<?xml version="1.0" encoding="utf-8"?>
<!-- Generator: Adobe Illustrator 24.1.1, SVG Export Plug-In . SVG Version: 6.00 Build 0)  -->
<svg version="1.1" id="Layer_1" xmlns="http://www.w3.org/2000/svg" xmlns:xlink="http://www.w3.org/1999/xlink" x="0px" y="0px"
	 viewBox="0 0 212 160" style="enable-background:new 0 0 212 160;" xml:space="preserve">
<style type="text/css">
	.st0{opacity:0.4;fill:#3B66AF;enable-background:new    ;}
	.st1{fill:#B7E0EE;}
	.st2{clip-path:url(#SVGID_2_);}
	.st3{fill-rule:evenodd;clip-rule:evenodd;fill:#D6D7D7;}
	.st4{fill-rule:evenodd;clip-rule:evenodd;fill:#484B4D;}
	.st5{fill-rule:evenodd;clip-rule:evenodd;fill:#B2B2B2;}
	.st6{fill-rule:evenodd;clip-rule:evenodd;fill:#888888;}
	.st7{fill-rule:evenodd;clip-rule:evenodd;fill:#FFFFFF;}
	.st8{fill-rule:evenodd;clip-rule:evenodd;fill:#9C9B9B;}
	.st9{fill-rule:evenodd;clip-rule:evenodd;fill:none;stroke:#504743;stroke-width:0.762;stroke-miterlimit:10;}
	.st10{fill:#D39E76;}
	.st11{fill:#9C9B9B;}
	.st12{fill:#ECECEC;}
	.st13{fill:#3D3D3B;}
	.st14{fill:none;stroke:#585857;stroke-width:0.7055;stroke-linejoin:round;stroke-miterlimit:10;}
	.st15{fill:#71BC7D;}
</style>
<g>
	<path class="st0" d="M192.2,157.3H27.6c-9.9,0-17.9-8-17.9-17.9v-112c0-9.9,8-17.9,17.9-17.9h164.6c9.9,0,17.9,8,17.9,17.9v112
		C210,149.3,202,157.3,192.2,157.3z"/>
	<path class="st1" d="M184.4,150.5H19.8c-9.9,0-17.9-8-17.9-17.9v-112c0-9.9,8-17.9,17.9-17.9h164.6c9.9,0,17.9,8,17.9,17.9v112
		C202.3,142.5,194.3,150.5,184.4,150.5z"/>
	<g>
		<defs>
			<path id="SVGID_1_" d="M184.4,150.5H19.8c-9.9,0-17.9-8-17.9-17.9v-112c0-9.9,8-17.9,17.9-17.9h164.6c9.9,0,17.9,8,17.9,17.9v112
				C202.3,142.5,194.3,150.5,184.4,150.5z"/>
		</defs>
		<clipPath id="SVGID_2_">
			<use xlink:href="#SVGID_1_"  style="overflow:visible;"/>
		</clipPath>
		<g class="st2">
			<g>
				<path class="st3" d="M167,64.4c0-1.6-1.4-2.8-3.2-2.8l-125.4-1c-1.8,0-3.2,1.2-3.2,2.8l-0.6,68.4c0,1.6,1.4,2.8,3.2,2.8l125.4,1
					c1.8,0,3.2-1.2,3.2-2.8L167,64.4z"/>
				<path class="st4" d="M47.9,113.4l105.7,0.9c2.4,0,4.3-1.9,4.4-4.3l0.3-37.7c0-2.4-1.9-4.3-4.3-4.4L48.3,67
					c-2.4,0-4.3,1.9-4.4,4.3l-0.3,37.7C43.6,111.4,45.5,113.4,47.9,113.4z"/>
				<path class="st5" d="M89.8,131.7l21.7,0.2c1.8,0,3.3-1.4,3.3-3.3l0.1-9c0-1.8-1.4-3.3-3.3-3.3L90,116.1c-1.8,0-3.3,1.4-3.3,3.3
					l-0.1,9C86.6,130.2,88,131.7,89.8,131.7z"/>
				<g>
					<g>
						<path class="st6" d="M147.3,75.7c0,0.6,0.5,1.1,1,1.1l5.5,0c0.6,0,1.1-0.5,1.1-1l0-3.3c0-0.6-0.5-1.1-1-1.1l-5.5,0
							c-0.6,0-1.1,0.5-1.1,1L147.3,75.7z"/>
					</g>
					<g>
						<path class="st6" d="M127.3,75.6c0,0.6,0.5,1.1,1,1.1l5.5,0c0.6,0,1.1-0.5,1.1-1l0-3.3c0-0.6-0.5-1.1-1-1.1l-5.5,0
							c-0.6,0-1.1,0.5-1.1,1L127.3,75.6z"/>
					</g>
					<g>
						<path class="st6" d="M117.3,75.5c0,0.6,0.5,1.1,1,1.1l5.5,0c0.6,0,1.1-0.5,1.1-1l0-3.3c0-0.6-0.5-1.1-1-1.1l-5.5,0
							c-0.6,0-1.1,0.5-1.1,1L117.3,75.5z"/>
					</g>
					<g>
						<path class="st6" d="M107.3,75.4c0,0.6,0.5,1.1,1,1.1l5.5,0c0.6,0,1.1-0.5,1.1-1l0-3.3c0-0.6-0.5-1.1-1-1.1l-5.5,0
							c-0.6,0-1.1,0.5-1.1,1L107.3,75.4z"/>
					</g>
					<g>
						<path class="st6" d="M87.3,75.3c0,0.6,0.5,1.1,1,1.1l5.5,0c0.6,0,1.1-0.5,1.1-1l0-3.3c0-0.6-0.5-1.1-1-1.1l-5.5,0
							c-0.6,0-1.1,0.5-1.1,1L87.3,75.3z"/>
					</g>
					<g>
						<path class="st6" d="M77.3,75.2c0,0.6,0.5,1.1,1,1.1l5.5,0c0.6,0,1.1-0.5,1.1-1l0-3.3c0-0.6-0.5-1.1-1-1.1l-5.5,0
							c-0.6,0-1.1,0.5-1.1,1L77.3,75.2z"/>
					</g>
					<g>
						<path class="st6" d="M67.3,75.1c0,0.6,0.5,1.1,1,1.1l5.5,0c0.6,0,1.1-0.5,1.1-1l0-3.3c0-0.6-0.5-1.1-1-1.1l-5.5,0
							c-0.6,0-1.1,0.5-1.1,1L67.3,75.1z"/>
					</g>
					<g>
						<path class="st6" d="M47.3,74.9c0,0.6,0.5,1.1,1,1.1l5.5,0c0.6,0,1.1-0.5,1.1-1l0-3.3c0-0.6-0.5-1.1-1-1.1l-5.5,0
							c-0.6,0-1.1,0.5-1.1,1L47.3,74.9z"/>
					</g>
				</g>
				<path class="st7" d="M39,60.9l124.5,0.3c2.5,0,4.9-2.2,5.9-4.9l8.5-22.1c1.3-3.5,0-6.5-2.9-6.5L28,27.4c-2.9,0-4.3,2.9-3,6.5
					L33.5,56C34.5,58.7,36.5,60.9,39,60.9z"/>
				<path class="st8" d="M39,60.9l124.5,0.3c2.5,0,3.8,0.3,4.8-2.1l9.4-21.8c1.3-3.1,0-5.7-3-5.7L28.3,31.2c-2.9,0-4.3,2.6-3,5.7
					l9.1,21.8C35.3,61.2,36.5,60.9,39,60.9z"/>
				<path class="st7" d="M42.5,57.8l117.9,0.9c1.9,0,4.5-2,5.7-4.6l5.4-11.7c1.5-3.2,0.9-5.9-1.4-5.9L33.1,35.4
					c-2.3,0-2.9,2.7-1.5,5.9l5.2,11.8C38,55.7,40.5,57.8,42.5,57.8z"/>
				<g>
					<g>
						<path class="st6" d="M147.2,82.3c0,0.6,0.5,1.1,1,1.1l5.5,0c0.6,0,1.1-0.5,1.1-1l0-3.3c0-0.6-0.5-1.1-1-1.1l-5.5,0
							c-0.6,0-1.1,0.5-1.1,1L147.2,82.3z"/>
					</g>
					<g>
						<path class="st6" d="M137.2,82.2c0,0.6,0.5,1.1,1,1.1l5.5,0c0.6,0,1.1-0.5,1.1-1l0-3.3c0-0.6-0.5-1.1-1-1.1l-5.5,0
							c-0.6,0-1.1,0.5-1.1,1L137.2,82.2z"/>
					</g>
					<g>
						<path class="st6" d="M127.2,82.1c0,0.6,0.5,1.1,1,1.1l5.5,0c0.6,0,1.1-0.5,1.1-1l0-3.3c0-0.6-0.5-1.1-1-1.1l-5.5,0
							c-0.6,0-1.1,0.5-1.1,1L127.2,82.1z"/>
					</g>
					<g>
						<path class="st6" d="M117.2,82c0,0.6,0.5,1.1,1,1.1l5.5,0c0.6,0,1.1-0.5,1.1-1l0-3.3c0-0.6-0.5-1.1-1-1.1l-5.5,0
							c-0.6,0-1.1,0.5-1.1,1L117.2,82z"/>
					</g>
					<g>
						<path class="st6" d="M107.2,81.9c0,0.6,0.5,1.1,1,1.1l5.5,0c0.6,0,1.1-0.5,1.1-1l0-3.3c0-0.6-0.5-1.1-1-1.1l-5.5,0
							c-0.6,0-1.1,0.5-1.1,1L107.2,81.9z"/>
					</g>
					<g>
						<path class="st6" d="M97.2,81.9c0,0.6,0.5,1.1,1,1.1l5.5,0c0.6,0,1.1-0.5,1.1-1l0-3.3c0-0.6-0.5-1.1-1-1.1l-5.5,0
							c-0.6,0-1.1,0.5-1.1,1L97.2,81.9z"/>
					</g>
					<g>
						<path class="st6" d="M87.2,81.8c0,0.6,0.5,1.1,1,1.1l5.5,0c0.6,0,1.1-0.5,1.1-1l0-3.3c0-0.6-0.5-1.1-1-1.1l-5.5,0
							c-0.6,0-1.1,0.5-1.1,1L87.2,81.8z"/>
					</g>
					<g>
						<path class="st6" d="M77.2,81.7c0,0.6,0.5,1.1,1,1.1l5.5,0c0.6,0,1.1-0.5,1.1-1l0-3.3c0-0.6-0.5-1.1-1-1.1l-5.5,0
							c-0.6,0-1.1,0.5-1.1,1L77.2,81.7z"/>
					</g>
					<g>
						<path class="st6" d="M67.2,81.6c0,0.6,0.5,1.1,1,1.1l5.5,0c0.6,0,1.1-0.5,1.1-1l0-3.3c0-0.6-0.5-1.1-1-1.1l-5.5,0
							c-0.6,0-1.1,0.5-1.1,1L67.2,81.6z"/>
					</g>
					<g>
						<path class="st6" d="M57.2,81.5c0,0.6,0.5,1.1,1,1.1l5.5,0c0.6,0,1.1-0.5,1.1-1l0-3.3c0-0.6-0.5-1.1-1-1.1l-5.5,0
							c-0.6,0-1.1,0.5-1.1,1L57.2,81.5z"/>
					</g>
					<g>
						<path class="st6" d="M47.2,81.5c0,0.6,0.5,1.1,1,1.1l5.5,0c0.6,0,1.1-0.5,1.1-1l0-3.3c0-0.6-0.5-1.1-1-1.1l-5.5,0
							c-0.6,0-1.1,0.5-1.1,1L47.2,81.5z"/>
					</g>
				</g>
				<g>
					<g>
						<path class="st6" d="M147.1,102.8c0,0.6,0.5,1.1,1,1.1l5.5,0c0.6,0,1.1-0.5,1.1-1l0-3.3c0-0.6-0.5-1.1-1-1.1l-5.5,0
							c-0.6,0-1.1,0.5-1.1,1L147.1,102.8z"/>
					</g>
					<g>
						<path class="st6" d="M137.1,102.7c0,0.6,0.5,1.1,1,1.1l5.5,0c0.6,0,1.1-0.5,1.1-1l0-3.3c0-0.6-0.5-1.1-1-1.1l-5.5,0
							c-0.6,0-1.1,0.5-1.1,1L137.1,102.7z"/>
					</g>
					<g>
						<path class="st6" d="M127.1,102.6c0,0.6,0.5,1.1,1,1.1l5.5,0c0.6,0,1.1-0.5,1.1-1l0-3.3c0-0.6-0.5-1.1-1-1.1l-5.5,0
							c-0.6,0-1.1,0.5-1.1,1L127.1,102.6z"/>
					</g>
					<g>
						<path class="st6" d="M117.1,102.5c0,0.6,0.5,1.1,1,1.1l5.5,0c0.6,0,1.1-0.5,1.1-1l0-3.3c0-0.6-0.5-1.1-1-1.1l-5.5,0
							c-0.6,0-1.1,0.5-1.1,1L117.1,102.5z"/>
					</g>
					<g>
						<path class="st6" d="M107.1,102.5c0,0.6,0.5,1.1,1,1.1l5.5,0c0.6,0,1.1-0.5,1.1-1l0-3.3c0-0.6-0.5-1.1-1-1.1l-5.5,0
							c-0.6,0-1.1,0.5-1.1,1L107.1,102.5z"/>
					</g>
					<g>
						<path class="st6" d="M97.1,102.4c0,0.6,0.5,1.1,1,1.1l5.5,0c0.6,0,1.1-0.5,1.1-1l0-3.3c0-0.6-0.5-1.1-1-1.1l-5.5,0
							c-0.6,0-1.1,0.5-1.1,1L97.1,102.4z"/>
					</g>
					<g>
						<path class="st6" d="M87.1,102.3c0,0.6,0.5,1.1,1,1.1l5.5,0c0.6,0,1.1-0.5,1.1-1l0-3.3c0-0.6-0.5-1.1-1-1.1l-5.5,0
							c-0.6,0-1.1,0.5-1.1,1L87.1,102.3z"/>
					</g>
					<g>
						<path class="st6" d="M77.1,102.2c0,0.6,0.5,1.1,1,1.1l5.5,0c0.6,0,1.1-0.5,1.1-1l0-3.3c0-0.6-0.5-1.1-1-1.1l-5.5,0
							c-0.6,0-1.1,0.5-1.1,1L77.1,102.2z"/>
					</g>
					<g>
						<path class="st6" d="M67.1,102.1c0,0.6,0.5,1.1,1,1.1l5.5,0c0.6,0,1.1-0.5,1.1-1l0-3.3c0-0.6-0.5-1.1-1-1.1l-5.5,0
							c-0.6,0-1.1,0.5-1.1,1L67.1,102.1z"/>
					</g>
					<g>
						<path class="st6" d="M57.1,102.1c0,0.6,0.5,1.1,1,1.1l5.5,0c0.6,0,1.1-0.5,1.1-1l0-3.3c0-0.6-0.5-1.1-1-1.1l-5.5,0
							c-0.6,0-1.1,0.5-1.1,1L57.1,102.1z"/>
					</g>
					<g>
						<path class="st6" d="M47.1,102c0,0.6,0.5,1.1,1,1.1l5.5,0c0.6,0,1.1-0.5,1.1-1l0-3.3c0-0.6-0.5-1.1-1-1.1l-5.5,0
							c-0.6,0-1.1,0.5-1.1,1L47.1,102z"/>
					</g>
				</g>
				<g>
					<g>
						<path class="st6" d="M147.1,95.7c0,0.6,0.5,1.1,1,1.1l5.5,0c0.6,0,1.1-0.5,1.1-1l0-3.3c0-0.6-0.5-1.1-1-1.1l-5.5,0
							c-0.6,0-1.1,0.5-1.1,1L147.1,95.7z"/>
					</g>
					<g>
						<path class="st6" d="M137.1,95.7c0,0.6,0.5,1.1,1,1.1l5.5,0c0.6,0,1.1-0.5,1.1-1l0-3.3c0-0.6-0.5-1.1-1-1.1l-5.5,0
							c-0.6,0-1.1,0.5-1.1,1L137.1,95.7z"/>
					</g>
					<g>
						<path class="st6" d="M127.1,95.6c0,0.6,0.5,1.1,1,1.1l5.5,0c0.6,0,1.1-0.5,1.1-1l0-3.3c0-0.6-0.5-1.1-1-1.1l-5.5,0
							c-0.6,0-1.1,0.5-1.1,1L127.1,95.6z"/>
					</g>
					<g>
						<path class="st6" d="M117.1,95.5c0,0.6,0.5,1.1,1,1.1l5.5,0c0.6,0,1.1-0.5,1.1-1l0-3.3c0-0.6-0.5-1.1-1-1.1l-5.5,0
							c-0.6,0-1.1,0.5-1.1,1L117.1,95.5z"/>
					</g>
					<g>
						<path class="st6" d="M107.1,95.4c0,0.6,0.5,1.1,1,1.1l5.5,0c0.6,0,1.1-0.5,1.1-1l0-3.3c0-0.6-0.5-1.1-1-1.1l-5.5,0
							c-0.6,0-1.1,0.5-1.1,1L107.1,95.4z"/>
					</g>
					<g>
						<path class="st6" d="M97.1,95.3c0,0.6,0.5,1.1,1,1.1l5.5,0c0.6,0,1.1-0.5,1.1-1l0-3.3c0-0.6-0.5-1.1-1-1.1l-5.5,0
							c-0.6,0-1.1,0.5-1.1,1L97.1,95.3z"/>
					</g>
					<g>
						<path class="st6" d="M87.1,95.3c0,0.6,0.5,1.1,1,1.1l5.5,0c0.6,0,1.1-0.5,1.1-1l0-3.3c0-0.6-0.5-1.1-1-1.1l-5.5,0
							c-0.6,0-1.1,0.5-1.1,1L87.1,95.3z"/>
					</g>
					<g>
						<path class="st6" d="M77.1,95.2c0,0.6,0.5,1.1,1,1.1l5.5,0c0.6,0,1.1-0.5,1.1-1l0-3.3c0-0.6-0.5-1.1-1-1.1l-5.5,0
							c-0.6,0-1.1,0.5-1.1,1L77.1,95.2z"/>
					</g>
					<g>
						<path class="st6" d="M67.1,95.1c0,0.6,0.5,1.1,1,1.1l5.5,0c0.6,0,1.1-0.5,1.1-1l0-3.3c0-0.6-0.5-1.1-1-1.1l-5.5,0
							c-0.6,0-1.1,0.5-1.1,1L67.1,95.1z"/>
					</g>
					<g>
						<path class="st6" d="M57.1,95c0,0.6,0.5,1.1,1,1.1l5.5,0c0.6,0,1.1-0.5,1.1-1l0-3.3c0-0.6-0.5-1.1-1-1.1l-5.5,0
							c-0.6,0-1.1,0.5-1.1,1L57.1,95z"/>
					</g>
					<g>
						<path class="st6" d="M47.1,94.9c0,0.6,0.5,1.1,1,1.1l5.5,0c0.6,0,1.1-0.5,1.1-1l0-3.3c0-0.6-0.5-1.1-1-1.1l-5.5,0
							c-0.6,0-1.1,0.5-1.1,1L47.1,94.9z"/>
					</g>
				</g>
				<g>
					<g>
						<path class="st6" d="M147.2,89c0,0.6,0.5,1.1,1,1.1l5.5,0c0.6,0,1.1-0.5,1.1-1l0-3.3c0-0.6-0.5-1.1-1-1.1l-5.5,0
							c-0.6,0-1.1,0.5-1.1,1L147.2,89z"/>
					</g>
					<g>
						<path class="st6" d="M137.2,88.9c0,0.6,0.5,1.1,1,1.1l5.5,0c0.6,0,1.1-0.5,1.1-1l0-3.3c0-0.6-0.5-1.1-1-1.1l-5.5,0
							c-0.6,0-1.1,0.5-1.1,1L137.2,88.9z"/>
					</g>
					<g>
						<path class="st6" d="M127.2,88.8c0,0.6,0.5,1.1,1,1.1l5.5,0c0.6,0,1.1-0.5,1.1-1l0-3.3c0-0.6-0.5-1.1-1-1.1l-5.5,0
							c-0.6,0-1.1,0.5-1.1,1L127.2,88.8z"/>
					</g>
					<g>
						<path class="st6" d="M117.2,88.8c0,0.6,0.5,1.1,1,1.1l5.5,0c0.6,0,1.1-0.5,1.1-1l0-3.3c0-0.6-0.5-1.1-1-1.1l-5.5,0
							c-0.6,0-1.1,0.5-1.1,1L117.2,88.8z"/>
					</g>
					<g>
						<path class="st6" d="M107.2,88.7c0,0.6,0.5,1.1,1,1.1l5.5,0c0.6,0,1.1-0.5,1.1-1l0-3.3c0-0.6-0.5-1.1-1-1.1l-5.5,0
							c-0.6,0-1.1,0.5-1.1,1L107.2,88.7z"/>
					</g>
					<g>
						<path class="st6" d="M97.2,88.6c0,0.6,0.5,1.1,1,1.1l5.5,0c0.6,0,1.1-0.5,1.1-1l0-3.3c0-0.6-0.5-1.1-1-1.1l-5.5,0
							c-0.6,0-1.1,0.5-1.1,1L97.2,88.6z"/>
					</g>
					<g>
						<path class="st6" d="M87.2,88.5c0,0.6,0.5,1.1,1,1.1l5.5,0c0.6,0,1.1-0.5,1.1-1l0-3.3c0-0.6-0.5-1.1-1-1.1l-5.5,0
							c-0.6,0-1.1,0.5-1.1,1L87.2,88.5z"/>
					</g>
					<g>
						<path class="st6" d="M77.2,88.4c0,0.6,0.5,1.1,1,1.1l5.5,0c0.6,0,1.1-0.5,1.1-1l0-3.3c0-0.6-0.5-1.1-1-1.1l-5.5,0
							c-0.6,0-1.1,0.5-1.1,1L77.2,88.4z"/>
					</g>
					<g>
						<path class="st6" d="M67.2,88.4c0,0.6,0.5,1.1,1,1.1l5.5,0c0.6,0,1.1-0.5,1.1-1l0-3.3c0-0.6-0.5-1.1-1-1.1l-5.5,0
							c-0.6,0-1.1,0.5-1.1,1L67.2,88.4z"/>
					</g>
					<g>
						<path class="st6" d="M57.2,88.3c0,0.6,0.5,1.1,1,1.1l5.5,0c0.6,0,1.1-0.5,1.1-1l0-3.3c0-0.6-0.5-1.1-1-1.1l-5.5,0
							c-0.6,0-1.1,0.5-1.1,1L57.2,88.3z"/>
					</g>
					<g>
						<path class="st6" d="M47.2,88.2c0,0.6,0.5,1.1,1,1.1l5.5,0c0.6,0,1.1-0.5,1.1-1l0-3.3c0-0.6-0.5-1.1-1-1.1l-5.5,0
							c-0.6,0-1.1,0.5-1.1,1L47.2,88.2z"/>
					</g>
				</g>
				
					<rect x="137.1" y="98.5" transform="matrix(-1 -8.052133e-03 8.052133e-03 -1 290.8552 203.4502)" class="st6" width="17.4" height="5.3"/>
				<path class="st6" d="M77.2,108.9c0,0.6,0.5,1.1,1,1.1l55.6,0.4c0.6,0,1.1-0.5,1.1-1l0-2.9c0-0.6-0.5-1.1-1-1.1l-55.6-0.4
					c-0.6,0-1.1,0.5-1.1,1L77.2,108.9z"/>
				<path class="st6" d="M67.2,108.8c0,0.6,0.5,1.1,1,1.1l5.5,0c0.6,0,1.1-0.5,1.1-1l0-2.9c0-0.6-0.5-1.1-1-1.1l-5.5,0
					c-0.6,0-1.1,0.5-1.1,1L67.2,108.8z"/>
				<path class="st6" d="M47.1,108.7c0,0.6,0.5,1.1,1,1.1l5.5,0c0.6,0,1.1-0.5,1.1-1l0-2.9c0-0.6-0.5-1.1-1-1.1l-5.5,0
					c-0.6,0-1.1,0.5-1.1,1L47.1,108.7z"/>
				<path class="st6" d="M57.2,108.7c0,0.6,0.5,1.1,1,1.1l5.5,0c0.6,0,1.1-0.5,1.1-1l0-2.9c0-0.6-0.5-1.1-1-1.1l-5.5,0
					c-0.6,0-1.1,0.5-1.1,1L57.2,108.7z"/>
				<path class="st6" d="M137.1,109.4c0,0.6,0.5,1.1,1,1.1l5.5,0c0.6,0,1.1-0.5,1.1-1l0-2.9c0-0.6-0.5-1.1-1-1.1l-5.5,0
					c-0.6,0-1.1,0.5-1.1,1L137.1,109.4z"/>
				<path class="st6" d="M147.2,109.4c0,0.6,0.5,1.1,1,1.1l5.5,0c0.6,0,1.1-0.5,1.1-1l0-2.9c0-0.6-0.5-1.1-1-1.1l-5.5,0
					c-0.6,0-1.1,0.5-1.1,1L147.2,109.4z"/>
				<path class="st6" d="M53.1,95c0,0.6,0.5,1.1,1,1.1l5.5,0c0.6,0,1.1-0.5,1.1-1l0-3.2c0-0.6-0.5-1.1-1-1.1l-5.5,0
					c-0.6,0-1.1,0.5-1.1,1L53.1,95z"/>
				<path class="st6" d="M141.1,88.9c0,0.6,0.5,1.1,1,1.1l5.5,0c0.6,0,1.1-0.5,1.1-1l0-3.3c0-0.6-0.5-1.1-1-1.1l-5.5,0
					c-0.6,0-1.1,0.5-1.1,1L141.1,88.9z"/>
				<path class="st6" d="M147.1,91.8c0,0.6,0.5,1.1,1,1.1l5.5,0c0.6,0,1.1-0.5,1.1-1l0-2.2c0-0.6-0.5-1.1-1-1.1l-5.5,0
					c-0.6,0-1.1,0.5-1.1,1L147.1,91.8z"/>
				<g>
					<g>
						<path class="st9" d="M43.9,40.4l114.3,0L43.9,40.4z"/>
						<path class="st9" d="M45.7,43.8l110.3,0L45.7,43.8z"/>
						<path class="st9" d="M46.7,47.1l107.1,0L46.7,47.1z"/>
					</g>
					<g>
						<path class="st9" d="M47.7,49.7l104.3,0L47.7,49.7z"/>
						<path class="st9" d="M48.9,52.5l101.1,0L48.9,52.5z"/>
						<path class="st9" d="M50,55l98.6,0L50,55z"/>
					</g>
				</g>
				<path class="st6" d="M57.1,74.8c0,0.6,0.5,1.1,1,1.1l5.5,0c0.6,0,1.1-0.5,1.1-1l0-2.9c0-0.6-0.5-1.1-1-1.1l-5.5,0
					c-0.6,0-1.1,0.5-1.1,1L57.1,74.8z"/>
				<path class="st6" d="M97.2,75c0,0.6,0.5,1.1,1,1.1l5.5,0c0.6,0,1.1-0.5,1.1-1l0-2.9c0-0.6-0.5-1.1-1-1.1l-5.5,0
					c-0.6,0-1.1,0.5-1.1,1L97.2,75z"/>
				<path class="st6" d="M137.4,75.5c0,0.6,0.5,1.1,1,1.1l5.5,0c0.6,0,1.1-0.5,1.1-1l0-2.9c0-0.6-0.5-1.1-1-1.1l-5.5,0
					c-0.6,0-1.1,0.5-1.1,1L137.4,75.5z"/>
			</g>
			<g>
				<g>
					<g>
						<polygon class="st10" points="44.7,104.4 43.5,106.5 43.5,116.8 60.6,126.6 66.3,116.9 						"/>
						<path class="st10" d="M60.8,116.5l4.8,2.8l17.3-29.9c0.8-1.3,0.3-3-1-3.8c-1.3-0.8-3-0.3-3.8,1L60.8,116.5z"/>
						
							<rect x="-9.3" y="134.3" transform="matrix(0.5 -0.866 0.866 0.5 -105.5634 106.2493)" class="st10" width="97.1" height="20.4"/>
						<path class="st10" d="M51.3,98.7l17.3,10l2.5-4.4l-2.4-1.4c-0.1,0.3-0.5,0.3-0.7,0.2c-0.3-0.1-0.3-0.5-0.2-0.7l-4.8-2.8
							c-0.1,0.3-0.5,0.3-0.7,0.2c-0.3-0.1-0.3-0.5-0.2-0.7l-4.8-2.8c-0.1,0.3-0.5,0.3-0.7,0.2c-0.3-0.1-0.3-0.5-0.2-0.7l-2.4-1.4
							L51.3,98.7z"/>
						<path class="st10" d="M59.9,115.9l18.7-32.3c0.8-1.3,0.3-3-1-3.8c-1.3-0.8-3-0.3-3.8,1L55,113.1L59.9,115.9z"/>
						<path class="st10" d="M54.1,112.6l16.6-28.7c0.8-1.3,0.3-3-1-3.8c-1.3-0.8-3-0.3-3.8,1l-16.6,28.7L54.1,112.6z"/>
						<path class="st10" d="M48.3,109.3l14.5-25c0.8-1.3,0.3-3-1-3.8c-1.3-0.8-3-0.3-3.8,1l-14.5,25L48.3,109.3z"/>
						<path class="st10" d="M60.6,126.6l19.5-11.3c1.6-0.9,2.2-3,1.2-4.6c-0.9-1.6-3-2.2-4.6-1.2l-22.9,13.2L60.6,126.6z"/>
					</g>
					<g>
						<path class="st11" d="M46,135.7l8.9,3.2c0.5,0.2,1,0,1.2-0.4l3.9-6.7c0.2-0.4,0.2-1-0.2-1.3l-7.3-6.1L46,135.7z"/>
						<path class="st11" d="M43.5,134.3l-7.3-6.1c-0.4-0.3-0.5-0.9-0.2-1.3l3.9-6.7c0.2-0.4,0.8-0.6,1.2-0.4L50,123L43.5,134.3z"/>
						<path class="st11" d="M50.9,121.5l-0.8,1.4l2.5,1.4l0.8-1.4c0.1-0.2,0.1-0.5-0.2-0.6l-1.7-1C51.3,121.2,51,121.3,50.9,121.5"
							/>
						<path class="st12" d="M44.2,136c3.7,2.1,8.3,0.9,10.5-2.8l0,0c2.1-3.7,0.9-8.3-2.8-10.5c-3.7-2.1-8.3-0.9-10.5,2.8l0,0
							C39.3,129.2,40.5,133.9,44.2,136"/>
						<path class="st13" d="M44.7,135.1c3.2,1.8,7.2,0.7,9-2.4c1.8-3.2,0.7-7.2-2.4-9c-3.2-1.8-7.2-0.7-9,2.4
							C40.4,129.2,41.5,133.3,44.7,135.1"/>
						<g>
							<g>
								
									<rect x="44.6" y="127.2" transform="matrix(0.5 -0.866 0.866 0.5 -88.045 106.2426)" class="st14" width="6.7" height="4.4"/>
								<polyline class="st14" points="47.7,125.4 49,129.9 44.4,131.2 								"/>
								<line class="st14" x1="51.6" y1="127.6" x2="49.2" y2="128.2"/>
								<line class="st14" x1="47.6" y1="131.1" x2="48.2" y2="133.4"/>
							</g>
							<path class="st15" d="M52.3,126.4c0.6,0.4,0.9,1.2,0.5,1.8c-0.4,0.6-1.2,0.9-1.8,0.5c-0.6-0.4-0.9-1.2-0.5-1.8
								C50.8,126.3,51.6,126,52.3,126.4"/>
						</g>
					</g>
				</g>
				<g>
					<g>
						<polygon class="st10" points="136,116.9 157.5,104.4 158.7,106.5 158.7,116.8 141.6,126.6 						"/>
						<path class="st10" d="M141.5,116.5l-4.8,2.8l-17.3-29.9c-0.8-1.3-0.3-3,1-3.8c1.3-0.8,3-0.3,3.8,1L141.5,116.5z"/>
						
							<rect x="152.8" y="96" transform="matrix(0.866 -0.5 0.5 0.866 -50.4317 100.8657)" class="st10" width="20.4" height="97.1"/>
						<path class="st10" d="M151,98.7l-17.3,10l-2.5-4.4l2.4-1.4c0.1,0.3,0.5,0.3,0.7,0.2c0.3-0.1,0.3-0.5,0.2-0.7l4.8-2.8
							c0.1,0.3,0.5,0.3,0.7,0.2c0.3-0.1,0.3-0.5,0.2-0.7l4.8-2.8c0.1,0.3,0.5,0.3,0.7,0.2c0.3-0.1,0.3-0.5,0.2-0.7l2.4-1.4L151,98.7
							z"/>
						<path class="st10" d="M141.6,126.6l-19.5-11.3c-1.6-0.9-2.2-3-1.2-4.6c0.9-1.6,3-2.2,4.6-1.2l22.9,13.2L141.6,126.6z"/>
						<path class="st10" d="M158.7,106.5l-9.6-16.6c-0.8-1.3-2.5-1.8-3.8-1c-1.3,0.8-1.8,2.5-1,3.8l9.6,16.6L158.7,106.5z"/>
						<path class="st10" d="M153,109.8l-11-19c-0.8-1.3-2.5-1.8-3.8-1c-1.3,0.8-1.8,2.5-1,3.8l11,19L153,109.8z"/>
						<path class="st10" d="M147.2,113.1l-12.4-21.4c-0.8-1.3-2.5-1.8-3.8-1c-1.3,0.8-1.8,2.5-1,3.8l12.4,21.4L147.2,113.1z"/>
					</g>
				</g>
			</g>
		</g>
	</g>
</g>
</svg>
