<?xml version="1.0" encoding="utf-8"?>
<!-- Generator: Adobe Illustrator 24.1.1, SVG Export Plug-In . SVG Version: 6.00 Build 0)  -->
<svg version="1.1" id="Layer_1" xmlns="http://www.w3.org/2000/svg" xmlns:xlink="http://www.w3.org/1999/xlink" x="0px" y="0px"
	 viewBox="0 0 212 160" style="enable-background:new 0 0 212 160;" xml:space="preserve">
<style type="text/css">
	.st0{opacity:0.4;fill:#3B66AF;enable-background:new    ;}
	.st1{fill:#B7E0EE;}
	.st2{fill:#CF5C52;}
	.st3{fill:#386FB6;}
	.st4{opacity:0.4;fill:#010202;enable-background:new    ;}
	.st5{opacity:0.3;fill:#010202;enable-background:new    ;}
	.st6{fill:#CE5C52;}
	.st7{opacity:0.2;fill:#010202;enable-background:new    ;}
	.st8{fill:#192E35;}
	.st9{fill:#4CBDC6;}
	.st10{fill:#11B5C0;}
	.st11{fill:#068996;}
	.st12{fill:#089CA4;}
	.st13{fill:#D8DDE0;}
	.st14{fill:#017378;}
	.st15{fill:#AECC4E;}
	.st16{fill:#A4C235;}
	.st17{fill:#FFFFFF;}
	.st18{fill:#F9BE36;}
	.st19{fill:#E29B30;}
	.st20{fill:#E72B56;}
	.st21{opacity:0.3;}
	.st22{fill:#020203;}
	.st23{fill:#302E64;}
	.st24{fill:#47559B;}
	.st25{fill:#7285C2;}
	.st26{opacity:0.3;fill:#020203;enable-background:new    ;}
</style>
<g>
	<path class="st0" d="M192.2,157.3H27.6c-9.9,0-17.9-8-17.9-17.9v-112c0-9.9,8-17.9,17.9-17.9h164.6c9.9,0,17.9,8,17.9,17.9v112
		C210,149.3,202,157.3,192.2,157.3z"/>
	<path class="st1" d="M184.4,150.5H19.8c-9.9,0-17.9-8-17.9-17.9v-112c0-9.9,8-17.9,17.9-17.9h164.6c9.9,0,17.9,8,17.9,17.9v112
		C202.3,142.5,194.3,150.5,184.4,150.5z"/>
</g>
<g>
	<g>
		<path class="st2" d="M106.4,92.1c-3.2,6.3-6.2,12.7-9,19.2c-1.4,3.2-2.8,6.5-4.1,9.8c-1.3,3.3-2.6,6.6-3.8,10l-0.5,1.3l-0.2,0.6
			l-0.3,1.1c-0.2,0.8-0.4,1.7-0.4,3c0,1.2,0.2,2.8,1.1,4.4c0.9,1.6,2.4,2.8,3.6,3.3c1.2,0.6,2.2,0.8,3.1,0.9l6.8-12.4
			c2.4-5.4,5-10.8,7.5-16.2l8.8-18.7L106.4,92.1z"/>
		<g>
			<path class="st3" d="M124,91.2c3.9,8-8.2,26.7-8.2,26.7L96,109.5c0,0,2.6-7,8-17.1C110,81.2,119.2,81.5,124,91.2z"/>
			<path class="st4" d="M124,91.2c3.9,8-8.2,26.7-8.2,26.7L96,109.5c0,0,2.6-7,8-17.1C110,81.2,119.2,81.5,124,91.2z"/>
		</g>
		<g>
			<path class="st3" d="M162.2,88.1c-5.3,34.7-1.7,52.4-1.6,59.7c-7.3,0.4-37.5,0.7-52.5,1.6c-5.1-39.5-0.9-53.4,1.7-62
				c0.5-1.7,1.9-3,3.6-3.4c1.3-0.3,2.9-0.7,4.7-1.1c1.3-0.3,2.8-0.5,4.3-0.8c0.8-0.1,1.7-0.2,2.6-0.3c5.6-0.6,14.9-0.6,21.2-0.5
				c1.3,0,2.7,0.1,4,0.2c1.2,0.1,2.4,0.2,3.6,0.3c1.4,0.1,2.8,0.3,4,0.5C160.6,82.7,162.6,85.3,162.2,88.1z"/>
			<path class="st5" d="M162.2,88.1c-3.4,22.5-2.7,44.8-1.6,59.7c0.2,2.3-52.4,2.3-52.8,0.1c-5.3-32-0.2-53.3,2-60.5
				c0.5-1.7,1.9-3,3.6-3.4c1.3-0.3,2.9-0.7,4.7-1.1c1.3-0.3,2.8-0.5,4.3-0.8c0.8-0.1,1.7-0.2,2.6-0.3c5.6-0.6,14.9-0.6,21.2-0.5
				c1.3,0,2.7,0.1,4,0.2c1.2,0.1,2.4,0.2,3.6,0.3c1.4,0.1,2.8,0.3,4,0.5C160.6,82.7,162.6,85.3,162.2,88.1z"/>
		</g>
		<path class="st3" d="M122.1,82.2c0.1,0,0.2,0,0.4-0.1c0.8-0.1,1.7-0.2,2.6-0.3c5.6-0.6,14.8-0.6,21.2-0.5c1,0,2.1,0.1,3.1,0.1
			l-1.4,1.5c-4.2,4.3-9.2,8.5-17,9.2c-0.3,0-0.7,0.1-1,0.1c-4,0.2-6.7-0.8-8-3.2C120.6,86.9,121.1,84.4,122.1,82.2z"/>
		<path class="st6" d="M143.6,57.5c-1.2,6.9-2.2,19.4,2.6,23.9c-3.6,3.8-8.4,8.1-16.5,8.6s-6.8-5.1-4.7-8.1c7.6-2,7.3-7.6,5.8-12.9
			L143.6,57.5z"/>
		<path class="st7" d="M138.4,62.1l-7.6,6.8c0.3,1.2,0.6,2.5,0.7,3.8c2.9-0.5,6.8-3.8,7.1-6.8C138.7,64.3,138.6,62.8,138.4,62.1z"/>
		<path class="st8" d="M127.3,50.1l3.5-0.1c4.3-0.8,10.9-10.9,6.7-18C127.5,31.9,118.1,38.4,127.3,50.1z"/>
		<path class="st6" d="M149.2,51.3c-3.4,8.6-5,13.8-10.9,16.9c-8.9,4.6-18.4-3-17.6-12.5c0.7-8.5,6.2-21.2,16-21.8
			C146.2,33.2,152.6,42.6,149.2,51.3z"/>
		<path class="st8" d="M152.8,38.8l-3.4,0.7c-4.1,1.5-9,12.5-3.7,18.8C155.6,58.4,165.9,47.3,152.8,38.8z"/>
		<path class="st8" d="M147.4,43.1c-9.1-0.4-19.3-9.1-20-15.4c-0.6-6.7,9.2-4.8,11.3-3c-0.9-3.6,1.8-3.2,4-1.2
			c2.1,1.9,5.7,9.6,13.3,14.4C161.1,41.1,157.9,43.6,147.4,43.1z"/>
		<path class="st8" d="M155.4,41.7c0,0,3.9,0.9,4.6-0.5C161.1,43.6,158.4,43.8,155.4,41.7z"/>
		<path class="st6" d="M150,62.3c-1.9,1.6-4.4,2.2-6.4,2c-3.1-0.3-3.5-3.3-1.7-5.6c1.6-2.1,5.2-4.4,7.8-3
			C152.3,57.1,152.2,60.4,150,62.3z"/>
		<g>
			<path class="st2" d="M166.1,95.5c-0.6,1.9-1.2,3.5-1.9,5.1c-0.7,1.7-1.3,3.3-2.1,4.9c-1.5,3.2-3.1,6.4-4.8,9.6
				c-1.7,3.1-3.5,6.2-5.5,9.2l-0.8,1.2c-0.4,0.7-1,1.5-1.9,2.3c-0.5,0.4-1,0.9-1.8,1.3c-0.7,0.4-1.6,0.7-2.6,0.9
				c-1.9,0.4-3.8-0.1-5-0.7c-1.2-0.6-2-1.2-2.6-1.7c-0.6-0.6-1.1-1.1-1.5-1.6c-0.8-1-1.4-2-1.9-2.9c-2.1-3.6-3.3-7-4.5-10.4
				s-2.2-6.8-3.1-10.2c-1.8-6.8-3.3-13.6-4.5-20.5l6.8-1.7c2.3,6.4,4.8,12.8,7.3,19c1.3,3.1,2.6,6.2,3.9,9.2
				c1.4,2.9,2.9,5.9,4.4,8.1c0.4,0.5,0.8,1,1.1,1.3c0.1,0.1,0.3,0.2,0.3,0.2s0-0.1-0.5-0.3c-0.4-0.2-1.4-0.5-2.4-0.3
				c-1.1,0.2-1.8,0.7-2.1,1s-0.3,0.3-0.3,0.3l0.5-1c1.5-2.9,3-5.9,4.3-8.9c1.4-3,2.7-6,4-9.1l1.9-4.6l1.8-4.5L166.1,95.5z"/>
			<path class="st2" d="M95.8,145.7c1.7,0.2,3,0.1,4.1,0c2.3-0.3,4.2-0.8,6.1-1.4c1.8-0.6,3.6-1.2,5.3-1.9c6.8-2.8,13-6.2,19.2-10
				l-2.6-6.4c-3.2,1.1-7,2.2-10.3,3.2s-6.5,2-9.7,2.8c-1.6,0.4-3.2,0.8-4.7,1.1c-0.2,0-0.4,0.1-0.5,0.1"/>
			<path class="st6" d="M125.9,126.7l7.1-2.8l3.4,10.7c0,0-8,2.6-11.5-3.2L125.9,126.7z"/>
			<polygon class="st6" points="141.9,125.9 141.6,132.8 136.4,134.5 133,123.9 			"/>
			<g>
				<path class="st3" d="M166.4,88c5.3,7.2-3.2,27.7-3.2,27.7l-21-4.7c0,0,1.3-7.3,4.8-18.3C150.8,80.7,160,79.3,166.4,88z"/>
				<path class="st5" d="M166.4,88c5.3,7.2-3.2,27.7-3.2,27.7l-21-4.7c0,0,1.3-7.3,4.8-18.3C150.8,80.7,160,79.3,166.4,88z"/>
			</g>
			<path class="st6" d="M129.8,82.3l-0.9-9.4l-10.5,3.8c0,0,1.8,8.5,6.5,8.4L129.8,82.3z"/>
			<polygon class="st6" points="124.2,64.7 115.6,69.6 118.4,76.7 128.9,72.9 			"/>
		</g>
	</g>
	<g>
		<g id="XMLID_70_">
			<g id="XMLID_85_">
				<path id="XMLID_86_" class="st9" d="M166,142.6H91v-41.5c0-2.6,2.1-4.7,4.7-4.7h65.6c2.6,0,4.7,2.1,4.7,4.7L166,142.6L166,142.6
					z"/>
				<path class="st10" d="M166,101.1v41.5H91v-10.3h61.2c3.4,0,6.2-2.8,6.2-6.2v-29c0-0.2,0-0.4,0-0.6h2.9
					C163.9,96.5,166,98.6,166,101.1z"/>
			</g>
			<g id="XMLID_83_">
				<rect id="XMLID_84_" x="91" y="139.1" class="st11" width="74.9" height="3.5"/>
			</g>
			<g id="XMLID_80_">
				<rect id="XMLID_81_" x="91" y="137.2" class="st12" width="74.9" height="1.9"/>
			</g>
			<g id="XMLID_77_">
				<path id="XMLID_78_" class="st13" d="M146.6,104h12.5c0.6,0,1.1-0.5,1.1-1.1l0,0c0-0.6-0.5-1.1-1.1-1.1h-12.5
					c-0.6,0-1.1,0.5-1.1,1.1l0,0C145.5,103.5,146,104,146.6,104z"/>
			</g>
			<g id="XMLID_75_">
				<path id="XMLID_76_" class="st14" d="M108,141.4H98c-0.3,0-0.6-0.3-0.6-0.6l0,0c0-0.3,0.3-0.6,0.6-0.6h9.9
					c0.3,0,0.6,0.3,0.6,0.6l0,0C108.5,141.2,108.3,141.4,108,141.4z"/>
			</g>
			<g id="XMLID_73_">
				<path id="XMLID_74_" class="st14" d="M122.4,141.4H118c-0.3,0-0.6-0.3-0.6-0.6l0,0c0-0.3,0.3-0.6,0.6-0.6h4.4
					c0.3,0,0.6,0.3,0.6,0.6l0,0C123,141.2,122.7,141.4,122.4,141.4z"/>
			</g>
			<g id="XMLID_71_">
				<path id="XMLID_72_" class="st14" d="M162,141.4h-7.3c-0.3,0-0.6-0.3-0.6-0.6l0,0c0-0.3,0.3-0.6,0.6-0.6h7.3
					c0.3,0,0.6,0.3,0.6,0.6l0,0C162.6,141.2,162.3,141.4,162,141.4z"/>
			</g>
		</g>
		<g>
			<g id="XMLID_63_">
				<path id="XMLID_69_" class="st15" d="M72.7,134.2v8.4H44.3c-2.2,0-4.1-1.9-4.1-4.2c0-0.7,0.2-1.4,0.5-2c0.2-0.4,0.4-0.7,0.7-1
					c0.7-0.8,1.8-1.2,2.9-1.2H72.7z"/>
				<path id="XMLID_68_" class="st16" d="M81.3,141.7v0.1c0,0.4-0.3,0.7-0.7,0.7H63.1c-2.2,0-4.1-1.9-4.1-4.2c0-1.2,0.5-2.2,1.2-3
					s1.8-1.2,2.9-1.2h17.5c0.4,0,0.7,0.3,0.7,0.7l0,0c0,0.4-0.3,0.7-0.7,0.7H64.2c-0.7,0-1.4,0.3-1.8,0.8c-0.5,0.5-0.8,1.2-0.8,1.9
					c0,1.5,1.2,2.7,2.6,2.7h16.4C81,141,81.3,141.3,81.3,141.7z"/>
				<path id="XMLID_67_" class="st17" d="M80.2,135.9v4.9c0,0.1,0,0.1,0,0.2h-16c-1.4,0-2.6-1.2-2.6-2.7c0-0.7,0.3-1.4,0.8-1.9
					s1.1-0.8,1.8-0.8h16C80.2,135.7,80.2,135.8,80.2,135.9z"/>
				<path id="XMLID_66_" class="st16" d="M52.2,138.3c0,1.1-0.9,2-2,2s-2-0.9-2-2s0.9-2,2-2C51.3,136.4,52.2,137.2,52.2,138.3z"/>
				<path id="XMLID_65_" class="st16" d="M47.2,138.7H43c-0.2,0-0.4-0.2-0.4-0.4l0,0c0-0.2,0.2-0.4,0.4-0.4h4.2
					c0.2,0,0.4,0.2,0.4,0.4l0,0C47.6,138.6,47.4,138.7,47.2,138.7z"/>
				<path id="XMLID_64_" class="st16" d="M57.3,138.7H53c-0.2,0-0.4-0.2-0.4-0.4l0,0c0-0.2,0.2-0.4,0.4-0.4h4.2
					c0.2,0,0.4,0.2,0.4,0.4l0,0C57.7,138.6,57.5,138.7,57.3,138.7z"/>
			</g>
			<g id="XMLID_55_">
				<path id="XMLID_61_" class="st18" d="M73.2,126.3v7.9H46.4c-2.1,0-3.8-1.8-3.8-3.9c0-0.7,0.2-1.3,0.4-1.9
					c0.2-0.3,0.4-0.7,0.7-0.9c0.7-0.7,1.7-1.2,2.7-1.2L73.2,126.3L73.2,126.3z"/>
				<path id="XMLID_60_" class="st19" d="M81.3,133.4v0.1c0,0.4-0.3,0.7-0.7,0.7H64.2c-2.1,0-3.8-1.8-3.8-3.9c0-1.1,0.4-2.1,1.1-2.8
					c0.7-0.7,1.7-1.2,2.7-1.2h16.5c0.4,0,0.7,0.3,0.7,0.7l0,0c0,0.4-0.3,0.7-0.7,0.7H65.2c-0.7,0-1.3,0.3-1.7,0.7
					c-0.4,0.5-0.7,1.1-0.7,1.8c0,1.4,1.1,2.5,2.5,2.5h15.4C81,132.7,81.3,133,81.3,133.4z"/>
				<path id="XMLID_59_" class="st17" d="M80.3,128v4.6c0,0.1,0,0.1,0,0.2H65.2c-1.4,0-2.5-1.1-2.5-2.5c0-0.7,0.3-1.3,0.7-1.8
					s1.1-0.7,1.7-0.7h15C80.2,127.8,80.3,127.9,80.3,128z"/>
				<path id="XMLID_58_" class="st19" d="M53.8,130.2c0,1-0.8,1.9-1.9,1.9c-1,0-1.9-0.8-1.9-1.9c0-1,0.8-1.9,1.9-1.9
					S53.8,129.2,53.8,130.2z"/>
				<path id="XMLID_57_" class="st19" d="M49.1,130.6h-4c-0.2,0-0.4-0.2-0.4-0.4l0,0c0-0.2,0.2-0.4,0.4-0.4h4c0.2,0,0.4,0.2,0.4,0.4
					l0,0C49.5,130.4,49.4,130.6,49.1,130.6z"/>
				<path id="XMLID_56_" class="st19" d="M58.6,130.6h-4c-0.2,0-0.4-0.2-0.4-0.4l0,0c0-0.2,0.2-0.4,0.4-0.4h4c0.2,0,0.4,0.2,0.4,0.4
					l0,0C59,130.4,58.8,130.6,58.6,130.6z"/>
				<path class="st20" d="M68.5,133.5l-1.2-0.5c-0.1-0.1-0.3-0.1-0.4,0l-1.2,0.5c-0.3,0.1-0.7-0.1-0.7-0.5v-2.9
					c0-0.3,0.2-0.5,0.5-0.5h3.1c0.3,0,0.5,0.2,0.5,0.5v2.9C69.2,133.4,68.8,133.6,68.5,133.5z"/>
			</g>
		</g>
		<g>
			<path class="st19" d="M179.5,146.5c0,1.1-0.4,2.1-1.2,2.8c-0.7,0.7-1.7,1.2-2.8,1.2H36.4c-2.2,0-3.9-1.8-3.9-3.9
				c0-0.6,0.1-1.1,0.3-1.6c0.2-0.4,0.5-0.9,0.8-1.2c0.7-0.7,1.7-1.2,2.8-1.2h139.2c1.6,0,3,1,3.6,2.3
				C179.4,145.4,179.5,146,179.5,146.5z"/>
			<path class="st18" d="M179.2,144.9c-0.2,0.4-0.5,0.8-0.8,1.2c-0.7,0.7-1.7,1.2-2.8,1.2H36.4c-1.6,0-3-1-3.6-2.3
				c0.2-0.4,0.5-0.9,0.8-1.2c0.7-0.7,1.7-1.2,2.8-1.2h139.2C177.2,142.6,178.6,143.6,179.2,144.9z"/>
		</g>
		<circle class="st17" cx="128.5" cy="118.4" r="4.4"/>
	</g>
	<g>
		<g class="st21">
			<path class="st22" d="M59,95.2c0,1.2,0,2.2,0,3.3c1.2,0,2.1,0,3.3,0h4.3v6h-4.3c-1.2,0-2.1,0-3.3,0c0,1.2,0,2.1,0,3.3v4.1h-6.3
				v-4.1c0-1.2,0-2.1,0-3.3c-1.2,0-2.1,0-3.3,0h-4.3v-6h4.3c1.2,0,2.1,0,3.3,0c0-1.1,0-2.1,0-3.3v-4H59V95.2z"/>
		</g>
		<g>
			<g>
				<path class="st23" d="M58,94.5v3.3l6.9-0.5l0.7,0.5v6.1c0,0-6.3,0-7.5,0c0,1.2,0,1.9,0,3.1v4.1h-5.9l-1.1-0.5
					c0-1.2,0.1-6.7,0.1-6.7h-6.4l-1.2-0.6c0,0,1.4-4.4,1.6-5.5H49c1.2,0,2.1,0,3.3,0c0-1.1,0-2.1,0-3.3v-4c1.1-0.2,5.2-0.5,5.2-0.5
					l0.6,0.5L58,94.5L58,94.5z"/>
			</g>
			<g>
				<path class="st24" d="M57.4,94c0,1.2,0,2.2,0,3.3c1.2,0,2.1,0,3.3,0H65v6h-4.3c-1.2,0-2.1,0-3.3,0c0,1.2,0,2.1,0,3.3v4.1H51
					v-4.1c0-1.2,0-2.1,0-3.3c-1.2,0-2.1,0-3.3,0h-4.3v-6h4.3c1.2,0,2.1,0,3.3,0c0-1.1,0-2.1,0-3.3v-4h6.3v4H57.4z"/>
			</g>
		</g>
		<rect x="51" y="90" class="st25" width="0.6" height="7.9"/>
		<rect x="43.5" y="97.2" class="st25" width="7.9" height="0.6"/>
	</g>
	<g>
		<g class="st21">
			<path class="st22" d="M58.1,42l1.1,6.7l-19.3,3.1L38,51.3l-0.6-5.7l19.7-4.2L58.1,42z"/>
		</g>
		<g>
			<g>
				<path class="st23" d="M56.4,41l0.8,0.4l1.1,6.7l-20.2,3.2l-1.4-0.5c0,0,0.8-5.1,0.9-6.4L56.4,41z"/>
			</g>
			<g>
				<path class="st24" d="M56.4,41l1,6.6l-20.9,3.3l-1-6.6L56.4,41z"/>
			</g>
		</g>
		<rect x="36" y="44.2" transform="matrix(0.9877 -0.1562 0.1562 0.9877 -6.9834 6.2539)" class="st25" width="0.6" height="6.7"/>
	</g>
	<g>
		<circle class="st26" cx="45.4" cy="38.4" r="3"/>
		<circle class="st24" cx="45.1" cy="38.2" r="3"/>
		<path class="st23" d="M47.3,36.1c0.3,0.4,0.5,0.8,0.6,1.3c0.3,1.7-0.9,3.2-2.5,3.5c-1,0.2-2-0.2-2.7-0.9c0.6,0.9,1.8,1.4,2.9,1.2
			c1.7-0.3,2.8-1.8,2.5-3.5C48,37.1,47.7,36.5,47.3,36.1z"/>
		<path class="st25" d="M42.8,40.3c-0.3-0.4-0.5-0.8-0.6-1.3c-0.3-1.7,0.9-3.2,2.5-3.5c1-0.2,2,0.2,2.7,0.9
			c-0.6-0.9-1.8-1.4-2.9-1.2c-1.7,0.3-2.8,1.8-2.5,3.5C42.1,39.3,42.4,39.9,42.8,40.3z"/>
	</g>
	<g>
		<circle class="st26" cx="48.1" cy="55" r="3"/>
		<circle class="st24" cx="47.7" cy="54.7" r="3"/>
		<path class="st23" d="M49.9,52.6c0.3,0.4,0.5,0.8,0.6,1.3c0.3,1.7-0.9,3.2-2.5,3.5c-1,0.2-2-0.2-2.7-0.9c0.6,0.9,1.8,1.4,2.9,1.2
			c1.7-0.3,2.8-1.8,2.5-3.5C50.6,53.6,50.3,53.1,49.9,52.6z"/>
		<path class="st25" d="M45.5,56.8c-0.3-0.4-0.5-0.8-0.6-1.3c-0.3-1.7,0.9-3.2,2.5-3.5c1-0.2,2,0.2,2.7,0.9
			c-0.6-0.9-1.8-1.4-2.9-1.2c-1.7,0.3-2.8,1.8-2.5,3.5C44.7,55.9,45.1,56.4,45.5,56.8z"/>
	</g>
	<g>
		<g class="st21">
			<path class="st22" d="M89,23.1c0.8,0.8,1.5,1.5,2.2,2.3c0.8-0.8,1.4-1.5,2.2-2.2l2.9-2.9l4.1,4.1l-2.9,2.9
				c-0.8,0.8-1.5,1.4-2.2,2.2c0.8,0.8,1.5,1.4,2.2,2.2l2.8,2.8L96,38.7l-2.8-2.8c-0.8-0.8-1.4-1.5-2.2-2.2c-0.8,0.8-1.4,1.5-2.2,2.2
				l-2.9,2.9l-4.1-4.1l2.9-2.9c0.8-0.8,1.5-1.4,2.2-2.2c-0.7-0.7-1.5-1.4-2.3-2.2L82,24.6l4.3-4.3L89,23.1z"/>
		</g>
		<g>
			<g>
				<path class="st23" d="M87.9,22.8l2.2,2.2l4.3-5.1l0.8-0.1l4.2,4.2c0,0-4.4,4.3-5.1,5.1c0.8,0.8,1.3,1.4,2.1,2.2l2.8,2.8l-4,4.1
					l-1.1,0.5c-0.8-0.8-4.5-4.7-4.5-4.7l-4.3,4.4L84,38.7c0,0-2.1-3.9-2.7-4.9l2.6-2.6c0.8-0.8,1.5-1.4,2.2-2.2
					c-0.7-0.7-1.5-1.4-2.3-2.2L81.1,24c0.6-0.9,3.2-3.9,3.2-3.9L85,20L87.9,22.8z"/>
			</g>
			<g>
				<path class="st24" d="M87.2,22.9c0.8,0.8,1.5,1.5,2.2,2.3c0.8-0.8,1.4-1.5,2.2-2.2l2.9-2.9l4.1,4.1l-2.9,2.9
					c-0.8,0.8-1.5,1.4-2.2,2.2c0.8,0.8,1.5,1.4,2.2,2.2l2.8,2.8l-4.3,4.3l-2.8-2.8c-0.8-0.8-1.4-1.5-2.2-2.2
					c-0.8,0.8-1.4,1.5-2.2,2.2l-3,2.9l-4.1-4.1l2.9-2.9c0.8-0.8,1.5-1.4,2.2-2.2c-0.7-0.7-1.5-1.4-2.3-2.2L80,24.5l4.3-4.3
					L87.2,22.9z"/>
			</g>
		</g>
		<rect x="82.7" y="23.2" transform="matrix(0.7071 -0.7071 0.7071 0.7071 5.241 66.5875)" class="st25" width="0.6" height="7.6"/>
		<rect x="79" y="31.8" transform="matrix(0.7071 -0.7071 0.7071 0.7071 1.5605 67.9665)" class="st25" width="7.6" height="0.6"/>
	</g>
	<g>
		<g class="st21">
			<path class="st22" d="M95.1,65.3v7H76l-1.9-1l0.3-5.6l19.9-1.1L95.1,65.3z"/>
		</g>
		<g>
			<g>
				<path class="st23" d="M93.6,64.1l0.7,0.5v6.8H74.1l-1.3-0.7c0,0,1.6-4.9,1.8-6.1L93.6,64.1z"/>
			</g>
			<g>
				<path class="st24" d="M93.6,64.1v6.6H72.7v-6.6C72.7,64.1,93.6,64.1,93.6,64.1z"/>
			</g>
		</g>
		<rect x="72.7" y="64.1" class="st25" width="0.6" height="6.6"/>
	</g>
</g>
</svg>
