<?xml version="1.0" encoding="utf-8"?>
<!-- Generator: Adobe Illustrator 24.1.1, SVG Export Plug-In . SVG Version: 6.00 Build 0)  -->
<svg version="1.1" id="Layer_1" xmlns="http://www.w3.org/2000/svg" xmlns:xlink="http://www.w3.org/1999/xlink" x="0px" y="0px"
	 viewBox="0 0 212 160" style="enable-background:new 0 0 212 160;" xml:space="preserve">
<style type="text/css">
	.st0{opacity:0.4;fill:#3B66AF;enable-background:new    ;}
	.st1{fill:#B7E0EE;}
	.st2{fill:#1D3D76;}
	.st3{fill:#F1C12F;}
</style>
<g>
	<path class="st0" d="M192.2,157.3H27.6c-9.9,0-17.9-8-17.9-17.9v-112c0-9.9,8-17.9,17.9-17.9h164.6c9.9,0,17.9,8,17.9,17.9v112
		C210,149.3,202,157.3,192.2,157.3z"/>
	<path class="st1" d="M184.4,150.5H19.8c-9.9,0-17.9-8-17.9-17.9v-112c0-9.9,8-17.9,17.9-17.9h164.6c9.9,0,17.9,8,17.9,17.9v112
		C202.3,142.5,194.3,150.5,184.4,150.5z"/>
</g>
<g>
	<g>
		<circle class="st2" cx="74.1" cy="28.9" r="10.6"/>
		<path class="st2" d="M44.6,52.9l-1.4,15.4c-0.2,2.1,1.4,4,3.5,4.1c0.1,0,0.2,0,0.3,0c2,0,3.6-1.5,3.8-3.5l1.3-13.6l7.6-6L55,81.8
			v0.1c-0.1,0.4-0.2,0.8-0.2,1.3L53.9,107l-10.8,16.4c-0.8,1.2-0.9,2.6-0.6,3.9h9.2l10.7-16.2c0.5-0.7,0.7-1.5,0.8-2.4l1-25.1
			c0-0.5,0-1-0.2-1.5l3.3-3l13.3,2.8l3.1,28c0,0.4,0.2,0.9,0.4,1.3h7.7c0.3-0.7,0.4-1.4,0.4-2.2l-3.4-31.1c-0.2-1.8-1.6-3.3-3.4-3.7
			l-12.3-2.6c1.6-3.6,4-9.1,5.8-13.8l5.1,7c0.4,0.5,0.8,0.9,1.4,1.2l11.1,5.5c0.5,0.3,1.1,0.4,1.7,0.4c1.4,0,2.7-0.8,3.4-2.1
			c0.9-1.9,0.2-4.2-1.7-5.1l-10.2-5.1l-7.1-9.9c-0.3-0.5-0.7-0.8-1.2-1.1c-0.3-0.5-0.8-1-1.3-1.3c-2.7-2-6.1-3.3-9.2-4.5
			c-1.7-0.6-3.3-1.2-5-1.8c-0.7-0.2-1.4-0.3-2.1-0.5c-1.7-0.4-3.5-1.2-5.1,0l-12.4,9.8C45.2,50.9,44.7,51.9,44.6,52.9z"/>
		<polygon class="st3" points="67.4,130.6 37,130.6 37,150.3 37,150.5 175.2,150.5 175.2,123 175.2,81.8 175.2,80.3 128.2,80.3 
			128.2,97.8 97.8,97.8 97.8,114.4 67.4,114.4 		"/>
	</g>
</g>
</svg>
