<?xml version="1.0" encoding="utf-8"?>
<!-- Generator: Adobe Illustrator 27.2.0, SVG Export Plug-In . SVG Version: 6.00 Build 0)  -->
<svg version="1.1" id="Layer_1" xmlns="http://www.w3.org/2000/svg" xmlns:xlink="http://www.w3.org/1999/xlink" x="0px" y="0px"
	 viewBox="0 0 264 180" style="enable-background:new 0 0 264 180;" xml:space="preserve">
<style type="text/css">
	.st0{fill:#3267C1;fill-opacity:0.4;}
	.st1{clip-path:url(#SVGID_00000078736478143282180490000017208961785831608243_);}
	.st2{fill:#ABF6FF;}
	.st3{fill:#FFFFFF;}
	.st4{fill:#4E4E50;}
	.st5{fill:#BFBDC0;}
	.st6{opacity:0.5;fill:#4E4E50;enable-background:new    ;}
	.st7{fill:#707070;}
	.st8{fill:#666666;stroke:#FF0000;stroke-miterlimit:10;}
	.st9{enable-background:new    ;}
	.st10{opacity:0.5;}
	.st11{font-family:'Poppins-Regular';}
	.st12{font-size:3.7511px;}
	.st13{opacity:0.5;enable-background:new    ;}
	.st14{fill:none;stroke:#8C8C8C;stroke-width:0.5;stroke-miterlimit:10;}
	.st15{fill:none;stroke:#FF0000;stroke-miterlimit:10;}
	.st16{fill:#FFB27D;}
	.st17{fill:#EFA26F;}
	.st18{fill:#FFD3B6;}
	.st19{fill:#FFC197;}
	.st20{clip-path:url(#SVGID_00000061468462343062390870000012296692528094007445_);}
	.st21{fill:none;}
</style>
<path class="st0" d="M24,9h224c8.8,0,16,7.2,16,16v139c0,8.8-7.2,16-16,16H24c-8.8,0-16-7.2-16-16V25C8,16.2,15.2,9,24,9z"/>
<g>
	<g>
		<g>
			<g>
				<defs>
					<path id="SVGID_1_" d="M16,0h224c8.8,0,16,7.2,16,16v139c0,8.8-7.2,16-16,16H16c-8.8,0-16-7.2-16-16V16C0,7.2,7.2,0,16,0z"/>
				</defs>
				<clipPath id="SVGID_00000132071750149070661370000001183472560082457529_">
					<use xlink:href="#SVGID_1_"  style="overflow:visible;"/>
				</clipPath>
				<g style="clip-path:url(#SVGID_00000132071750149070661370000001183472560082457529_);">
					<path class="st2" d="M240,0H16C7.2,0,0,7.2,0,16v139c0,8.8,7.2,16,16,16h224c8.8,0,16-7.2,16-16V16C256,7.2,248.8,0,240,0z"/>
					<g>
						<g>
							<path d="M106.3,15.2H30.2c-9.2,0-16.6,5.9-16.6,13.1v150.1c0,7.2,7.4,13.1,16.6,13.1h76.1c9.2,0,16.6-5.9,16.6-13.1V28.3
								C122.9,21.1,115.4,15.2,106.3,15.2z"/>
							<path class="st3" d="M106.3,20.8H94.9c-0.9,0-1.7,0.6-1.7,1.3l0,0c0,2.6-2.9,4.8-6.4,4.8H49.7c-3.5,0-6.4-2.1-6.4-4.8
								c0-0.7-0.8-1.3-1.7-1.3H30.2c-6.1,0-11,3.7-11,8.3v143.1c0,4.6,4.9,8.3,11,8.3h76.1c6.1,0,11-3.7,11-8.3V29.1
								C117.3,24.5,112.3,20.8,106.3,20.8z"/>
							<path class="st4" d="M74.1,23.6H62.4c-0.5,0-0.9,0.4-0.9,0.9s0.4,0.9,0.9,0.9h11.7c0.5,0,0.9-0.4,0.9-0.9
								S74.6,23.6,74.1,23.6z"/>
							<path class="st4" d="M81,24.5c0,0.7-0.6,1.3-1.3,1.3c-0.7,0-1.3-0.6-1.3-1.3c0-0.7,0.6-1.3,1.3-1.3S81,23.8,81,24.5z"/>
							<rect x="19.9" y="52.3" class="st5" width="96.7" height="0.3"/>
							<path class="st6" d="M116.7,20.5c-1.7-1.4-3.7-2.5-5.8-3.1c-1.1-0.3-2.1-0.5-3.2-0.6c-0.5,0-1.1,0-1.6,0h-1.7
								C100,16.9,95.5,17,91.1,17c-4.4,0.1-8.9,0.1-13.3,0.1H64.5H51.2c-4.4,0-8.9-0.1-13.3-0.1h-6.7h-0.8c-0.3,0-0.5,0-0.8,0
								c-0.5,0-1.1,0.1-1.6,0.1c-0.3,0-0.5,0.1-0.8,0.1s-0.5,0.1-0.8,0.2l-0.8,0.2l-0.8,0.3c-0.1,0-0.3,0.1-0.4,0.1L24,18.2
								c-0.2,0.1-0.5,0.2-0.7,0.3c-0.5,0.3-1,0.5-1.4,0.8c-0.5,0.3-0.9,0.6-1.3,0.9c-0.2,0.2-0.4,0.4-0.6,0.5L19.6,21l-0.3,0.3
								c-1.6,1.5-2.8,3.4-3.6,5.5c0.4-1.1,0.8-2.1,1.3-3.1c0.6-1,1.2-1.9,2-2.7l0.3-0.3l0.3-0.3c0.2-0.2,0.4-0.4,0.6-0.6
								c0.4-0.4,0.9-0.7,1.3-1c0.5-0.3,1-0.6,1.4-0.9c0.2-0.1,0.5-0.3,0.8-0.4l0.4-0.2c0.1-0.1,0.3-0.1,0.4-0.2
								c0.3-0.1,0.5-0.2,0.8-0.3l0.8-0.3c0.3-0.1,0.5-0.2,0.8-0.2c0.3-0.1,0.6-0.1,0.8-0.2c0.6-0.1,1.1-0.2,1.7-0.2
								c0.3,0,0.6,0,0.9,0h0.8l6.7-0.1c4.4-0.1,8.9-0.1,13.3-0.1h13.3h13.3c4.4,0,8.9,0.1,13.3,0.1c4.4,0.1,8.9,0.1,13.3,0.2h1.7
								c0.6,0,1.1,0,1.7,0.1c1.1,0.1,2.2,0.4,3.3,0.8c1.1,0.4,2.1,0.9,3,1.5C115,19,115.9,19.7,116.7,20.5z"/>
							<path d="M123.3,89.6c0.3,0,0.5-0.2,0.5-0.5V61.8c0-0.3-0.2-0.5-0.5-0.5h-0.4v28.3H123.3z"/>
							<g>
								<g>
									<path d="M13.1,42.9c-0.3,0-0.5,0.2-0.5,0.5V51c0,0.3,0.2,0.5,0.5,0.5h0.4v-8.6H13.1z"/>
									<path d="M13.1,57.7c-0.3,0-0.5,0.2-0.5,0.5v13.3c0,0.3,0.2,0.5,0.5,0.5h0.4V57.7H13.1z"/>
									<path d="M13.1,76.5c-0.3,0-0.5,0.2-0.5,0.5v13.3c0,0.3,0.2,0.5,0.5,0.5h0.4V76.5H13.1z"/>
								</g>
							</g>
							<path class="st7" d="M109.3,48h-82c-2.5,0-4.6-2.1-4.6-4.6v-6.5c0-2.5,2.1-4.6,4.6-4.6h82c2.5,0,4.6,2.1,4.6,4.6v6.5
								C113.9,45.9,111.8,48,109.3,48z"/>
							<circle class="st8" cx="31.5" cy="40.2" r="12.2"/>
							<g class="st9">
								<path class="st3" d="M30.2,43.9h-0.8c-0.1,0-0.2,0-0.2-0.1c-0.1,0-0.1-0.1-0.1-0.2l-0.5-1.3H26l-0.5,1.3
									c0,0.1-0.1,0.1-0.1,0.2c-0.1,0-0.1,0.1-0.2,0.1h-0.8l2.4-6h1L30.2,43.9z M28.4,41.6l-0.8-2.2c-0.1-0.2-0.1-0.4-0.2-0.7
									c0,0.1-0.1,0.3-0.1,0.4c0,0.1-0.1,0.2-0.1,0.3l-0.8,2.2H28.4z"/>
							</g>
							<g class="st9">
								<path class="st3" d="M38.7,43.9h-0.9c-0.1,0-0.2,0-0.3-0.1s-0.1-0.1-0.2-0.2l-0.8-2.2h-4l-0.8,2.2c0,0.1-0.1,0.1-0.1,0.2
									s-0.2,0.1-0.3,0.1h-0.9l3.6-9h1.2L38.7,43.9z M36.2,40.5l-1.4-3.7c0-0.1-0.1-0.2-0.1-0.4c0-0.1-0.1-0.3-0.1-0.5
									c-0.1,0.3-0.2,0.6-0.3,0.8l-1.4,3.7H36.2z"/>
							</g>
							<g class="st10">
								<path class="st3" d="M101.6,40.9c0,1.7,1.3,3,3,3s3-1.3,3-3h-0.8c0,1.2-1,2.2-2.2,2.2s-2.2-1-2.2-2.2s1-2.2,2.2-2.2v1.5
									l1.9-1.9l-1.9-1.9v1.5C102.9,37.9,101.6,39.2,101.6,40.9z"/>
							</g>
						</g>
						<g>
							<g>
								<text transform="matrix(1 0 0 1 27.1836 27.5905)" class="st11 st12">3:15</text>
								<path d="M36,28.1l-0.4-1.7L33.9,26l3.6-1.5L36,28.1z M34.9,25.9l0.9,0.2L36,27l0.8-2L34.9,25.9z"/>
							</g>
							<g>
								<g>
									<rect x="105.8" y="25.2" width="1.8" height="1.8"/>
									<path d="M110.9,25.5v-0.8h-5.6v2.7h5.6v-0.8h0.5v-1.1C111.4,25.5,110.9,25.5,110.9,25.5z M111.2,26.4h-0.5v0.8h-5.1v-2.3
										h5.1v0.8h0.5V26.4z"/>
								</g>
								<g>
									<path d="M101.7,26.6c-0.2,0-0.4,0.2-0.4,0.4c0,0.2,0.2,0.4,0.4,0.4c0.2,0,0.4-0.2,0.4-0.4C102,26.8,101.9,26.6,101.7,26.6z
										"/>
									<path d="M100.7,26.1c-0.1,0.1-0.1,0.3,0,0.4s0.3,0.1,0.4,0c0.3-0.3,0.9-0.3,1.2,0c0.1,0.1,0.1,0.1,0.2,0.1s0.1,0,0.2-0.1
										s0.1-0.3,0-0.4C102.1,25.6,101.2,25.6,100.7,26.1z"/>
									<path d="M103.3,25.4c-0.4-0.4-1-0.7-1.6-0.7s-1.2,0.2-1.6,0.7c-0.1,0.1-0.1,0.3,0,0.4s0.3,0.1,0.4,0c0.7-0.7,1.9-0.7,2.5,0
										c0.1,0.1,0.1,0.1,0.2,0.1s0.1,0,0.2-0.1C103.4,25.7,103.4,25.5,103.3,25.4z"/>
								</g>
								<g>
									<path d="M98.1,24.8c-0.1,0-0.2,0.1-0.2,0.2v2.1c0,0.1,0.1,0.2,0.2,0.2s0.2-0.1,0.2-0.2V25C98.4,24.9,98.3,24.8,98.1,24.8z"
										/>
									<path d="M97.2,25.4c-0.1,0-0.2,0.1-0.2,0.2V27c0,0.1,0.1,0.2,0.2,0.2s0.2-0.1,0.2-0.2v-1.4C97.5,25.5,97.3,25.4,97.2,25.4z
										"/>
									<path d="M96.3,25.9c-0.1,0-0.2,0.1-0.2,0.2V27c0,0.1,0.1,0.2,0.2,0.2s0.2-0.1,0.2-0.2v-0.9C96.5,26,96.4,25.9,96.3,25.9z"
										/>
									<path d="M95.4,26.2c-0.1,0-0.2,0.1-0.2,0.2v0.7c0,0.1,0.1,0.2,0.2,0.2s0.2-0.1,0.2-0.2v-0.7C95.6,26.3,95.5,26.2,95.4,26.2
										z"/>
								</g>
							</g>
						</g>
					</g>
					<g>
						<g>
							<path d="M225.6,15.2h-76.1c-9.2,0-16.6,5.9-16.6,13.1v150.1c0,7.2,7.4,13.1,16.6,13.1h76.1c9.2,0,16.6-5.9,16.6-13.1V28.3
								C242.2,21.1,234.8,15.2,225.6,15.2z"/>
							<path class="st3" d="M225.6,20.8h-11.4c-0.9,0-1.7,0.6-1.7,1.3l0,0c0,2.6-2.9,4.8-6.4,4.8H169c-3.5,0-6.4-2.1-6.4-4.8
								c0-0.7-0.8-1.3-1.7-1.3h-11.4c-6.1,0-11,3.7-11,8.3v143.1c0,4.6,4.9,8.3,11,8.3h76.1c6.1,0,11-3.7,11-8.3V29.1
								C236.6,24.5,231.7,20.8,225.6,20.8z"/>
							<path class="st4" d="M193.5,23.6h-11.7c-0.5,0-0.9,0.4-0.9,0.9s0.4,0.9,0.9,0.9h11.7c0.5,0,0.9-0.4,0.9-0.9
								C194.3,24,193.9,23.6,193.5,23.6z"/>
							<path class="st4" d="M200.3,24.5c0,0.7-0.6,1.3-1.3,1.3s-1.3-0.6-1.3-1.3c0-0.7,0.6-1.3,1.3-1.3
								C199.8,23.2,200.3,23.8,200.3,24.5z"/>
							<rect x="139.3" y="52.3" class="st5" width="96.7" height="0.3"/>
							<path class="st6" d="M236,20.5c-1.7-1.4-3.7-2.5-5.8-3.1c-1.1-0.3-2.1-0.5-3.2-0.6c-0.5,0-1.1,0-1.6,0h-1.7
								c-4.4,0.1-8.9,0.2-13.3,0.2c-4.4,0.1-8.9,0.1-13.3,0.1h-13.3h-13.3c-4.4,0-8.9-0.1-13.3-0.1l-6.7-0.1h-0.8
								c-0.3,0-0.5,0-0.8,0c-0.5,0-1.1,0.1-1.6,0.1c-0.3,0-0.5,0.1-0.8,0.1s-0.5,0.1-0.8,0.2l-0.8,0.2l-0.8,0.3
								c-0.1,0-0.3,0.1-0.4,0.1l-0.4,0.2c-0.2,0.1-0.5,0.2-0.7,0.3c-0.5,0.3-1,0.5-1.4,0.8c-0.5,0.3-0.9,0.6-1.3,0.9
								c-0.2,0.2-0.4,0.4-0.6,0.5l-0.3,0.3l-0.3,0.3c-1.6,1.5-2.8,3.4-3.6,5.5c0.4-1.1,0.8-2.1,1.3-3.1c0.6-1,1.2-1.9,2-2.7l0.3-0.3
								l0.3-0.3c0.2-0.2,0.4-0.4,0.6-0.6c0.4-0.4,0.9-0.7,1.3-1c0.5-0.3,1-0.6,1.4-0.9c0.2-0.1,0.5-0.3,0.8-0.4l0.4-0.2
								c0.1-0.1,0.3-0.1,0.4-0.2c0.3-0.1,0.5-0.2,0.8-0.3l0.8-0.3c0.3-0.1,0.5-0.2,0.8-0.2c0.3-0.1,0.6-0.1,0.8-0.2
								c0.6-0.1,1.1-0.2,1.7-0.2c0.3,0,0.6,0,0.9,0h0.8l6.7-0.1c4.4-0.1,8.9-0.1,13.3-0.1h13.3h13.3c4.4,0,8.9,0.1,13.3,0.1
								c4.4,0.1,8.9,0.1,13.3,0.2h1.7c0.6,0,1.1,0,1.7,0.1c1.1,0.1,2.2,0.4,3.3,0.8s2.1,0.9,3,1.5C234.3,19,235.2,19.7,236,20.5z"/>
							<path d="M242.7,89.6c0.3,0,0.5-0.2,0.5-0.5V61.8c0-0.3-0.2-0.5-0.5-0.5h-0.4v28.3H242.7z"/>
							<g>
								<g>
									<path d="M132.5,42.9c-0.3,0-0.5,0.2-0.5,0.5V51c0,0.3,0.2,0.5,0.5,0.5h0.4v-8.6H132.5z"/>
									<path d="M132.5,57.7c-0.3,0-0.5,0.2-0.5,0.5v13.3c0,0.3,0.2,0.5,0.5,0.5h0.4V57.7H132.5z"/>
									<path d="M132.5,76.5c-0.3,0-0.5,0.2-0.5,0.5v13.3c0,0.3,0.2,0.5,0.5,0.5h0.4V76.5H132.5z"/>
								</g>
							</g>
							<path class="st7" d="M228.7,48h-82c-2.5,0-4.6-2.1-4.6-4.6v-6.5c0-2.5,2.1-4.6,4.6-4.6h82c2.5,0,4.6,2.1,4.6,4.6v6.5
								C233.3,45.9,231.2,48,228.7,48z"/>
							<g class="st9">
								<path class="st3" d="M150,42.6h-0.5c-0.1,0-0.1,0-0.1,0c0,0-0.1-0.1-0.1-0.1l-0.3-0.9h-1.7l-0.3,0.9c0,0,0,0.1-0.1,0.1
									c0,0-0.1,0-0.1,0h-0.5l1.6-4h0.7L150,42.6z M148.8,41.1l-0.6-1.5c0-0.1-0.1-0.3-0.1-0.4c0,0.1,0,0.2-0.1,0.2
									c0,0.1,0,0.1-0.1,0.2l-0.6,1.5H148.8z"/>
							</g>
							<g class="st9">
								<path class="st3" d="M155.6,42.6H155c-0.1,0-0.1,0-0.2-0.1c0,0-0.1-0.1-0.1-0.1l-0.6-1.4h-2.7l-0.6,1.4c0,0,0,0.1-0.1,0.1
									c0,0-0.1,0.1-0.2,0.1H150l2.4-6h0.8L155.6,42.6z M153.9,40.4L153,38c0-0.1-0.1-0.2-0.1-0.3c0-0.1-0.1-0.2-0.1-0.3
									c-0.1,0.2-0.1,0.4-0.2,0.6l-0.9,2.4H153.9z"/>
							</g>
							<g class="st10">
								<path class="st3" d="M222,40.9c0,1.7,1.3,3,3,3s3-1.3,3-3h-0.8c0,1.2-1,2.2-2.2,2.2s-2.2-1-2.2-2.2s1-2.2,2.2-2.2v1.5
									l1.9-1.9l-1.9-1.9v1.5C223.3,37.9,222,39.2,222,40.9z"/>
							</g>
							<path class="st7" d="M214.4,113.5h-67.8c-2.5,0-4.6-2.1-4.6-4.6V56.1c0-2.5,2.1-4.6,4.6-4.6l3.8-4l3.7,4h60.3
								c2.5,0,4.6,2.1,4.6,4.6v52.8C219,111.5,216.9,113.5,214.4,113.5z"/>
							<g class="st13">
								<path class="st3" d="M153.7,60.2h-0.4c0,0-0.1,0-0.1,0c0,0-0.1-0.1-0.1-0.1l-0.4-1h-1.8l-0.4,1c0,0,0,0.1-0.1,0.1
									c0,0-0.1,0-0.1,0h-0.4l1.6-4h0.5L153.7,60.2z M152.6,58.7l-0.6-1.6c0,0,0-0.1-0.1-0.2c0-0.1,0-0.1-0.1-0.2
									c0,0.2-0.1,0.3-0.1,0.4l-0.6,1.6H152.6z"/>
							</g>
							<g class="st13">
								<path class="st3" d="M211.8,61h-0.6c-0.1,0-0.1,0-0.2-0.1s-0.1-0.1-0.1-0.1l-0.6-1.4h-2.7l-0.6,1.4c0,0,0,0.1-0.1,0.1
									c0,0-0.1,0.1-0.2,0.1h-0.6l2.4-6h0.8L211.8,61z M210.1,58.8l-0.9-2.4c0-0.1-0.1-0.2-0.1-0.3c0-0.1-0.1-0.2-0.1-0.3
									c-0.1,0.2-0.1,0.4-0.2,0.6l-0.9,2.4H210.1z"/>
							</g>
							<g class="st13">
								<path class="st3" d="M176.1,59.8v0.4H174v-0.4h0.9v-2.7c0-0.1,0-0.2,0-0.2l-0.7,0.6c0,0,0,0-0.1,0c0,0,0,0-0.1,0
									c0,0,0,0-0.1,0c0,0,0,0,0,0l-0.2-0.2l1.2-1h0.4v3.6H176.1z"/>
								<path class="st3" d="M179.6,58.2c0,0.3,0,0.7-0.1,0.9c-0.1,0.3-0.2,0.5-0.3,0.6s-0.3,0.3-0.5,0.4c-0.2,0.1-0.4,0.1-0.6,0.1
									c-0.2,0-0.4,0-0.6-0.1c-0.2-0.1-0.3-0.2-0.5-0.4c-0.1-0.2-0.2-0.4-0.3-0.6c-0.1-0.3-0.1-0.6-0.1-0.9c0-0.3,0-0.7,0.1-0.9
									c0.1-0.3,0.2-0.5,0.3-0.6c0.1-0.2,0.3-0.3,0.5-0.4c0.2-0.1,0.4-0.1,0.6-0.1c0.2,0,0.4,0,0.6,0.1c0.2,0.1,0.3,0.2,0.5,0.4
									s0.2,0.4,0.3,0.6C179.6,57.5,179.6,57.8,179.6,58.2z M179.1,58.2c0-0.3,0-0.6-0.1-0.8c-0.1-0.2-0.1-0.4-0.2-0.5
									c-0.1-0.1-0.2-0.2-0.3-0.3c-0.1-0.1-0.2-0.1-0.4-0.1c-0.1,0-0.2,0-0.4,0.1s-0.2,0.1-0.3,0.3c-0.1,0.1-0.2,0.3-0.2,0.5
									s-0.1,0.5-0.1,0.8s0,0.6,0.1,0.8s0.1,0.4,0.2,0.5c0.1,0.1,0.2,0.2,0.3,0.3s0.2,0.1,0.4,0.1c0.1,0,0.2,0,0.4-0.1
									c0.1-0.1,0.2-0.1,0.3-0.3c0.1-0.1,0.2-0.3,0.2-0.5C179.1,58.7,179.1,58.5,179.1,58.2z"/>
								<path class="st3" d="M182.8,58.2c0,0.3,0,0.7-0.1,0.9c-0.1,0.3-0.2,0.5-0.3,0.6s-0.3,0.3-0.5,0.4c-0.2,0.1-0.4,0.1-0.6,0.1
									c-0.2,0-0.4,0-0.6-0.1c-0.2-0.1-0.3-0.2-0.5-0.4s-0.2-0.4-0.3-0.6c-0.1-0.3-0.1-0.6-0.1-0.9c0-0.3,0-0.7,0.1-0.9
									c0.1-0.3,0.2-0.5,0.3-0.6s0.3-0.3,0.5-0.4c0.2-0.1,0.4-0.1,0.6-0.1c0.2,0,0.4,0,0.6,0.1c0.2,0.1,0.3,0.2,0.5,0.4
									s0.2,0.4,0.3,0.6C182.8,57.5,182.8,57.8,182.8,58.2z M182.3,58.2c0-0.3,0-0.6-0.1-0.8s-0.1-0.4-0.2-0.5
									c-0.1-0.1-0.2-0.2-0.3-0.3s-0.2-0.1-0.4-0.1c-0.1,0-0.2,0-0.4,0.1s-0.2,0.1-0.3,0.3c-0.1,0.1-0.2,0.3-0.2,0.5
									c-0.1,0.2-0.1,0.5-0.1,0.8s0,0.6,0.1,0.8c0.1,0.2,0.1,0.4,0.2,0.5c0.1,0.1,0.2,0.2,0.3,0.3s0.2,0.1,0.4,0.1
									c0.1,0,0.2,0,0.4-0.1s0.2-0.1,0.3-0.3c0.1-0.1,0.2-0.3,0.2-0.5S182.3,58.5,182.3,58.2z"/>
								<path class="st3" d="M185,57.1c0,0.2,0,0.3-0.1,0.4c0,0.1-0.1,0.2-0.2,0.3c-0.1,0.1-0.2,0.1-0.3,0.2c-0.1,0-0.2,0.1-0.3,0.1
									c-0.1,0-0.2,0-0.3-0.1c-0.1,0-0.2-0.1-0.3-0.2c-0.1-0.1-0.1-0.2-0.2-0.3c0-0.1-0.1-0.3-0.1-0.4c0-0.2,0-0.3,0.1-0.4
									c0-0.1,0.1-0.2,0.2-0.3c0.1-0.1,0.2-0.2,0.3-0.2c0.1,0,0.2-0.1,0.3-0.1c0.1,0,0.2,0,0.4,0.1c0.1,0,0.2,0.1,0.3,0.2
									c0.1,0.1,0.1,0.2,0.2,0.3C185,56.8,185,57,185,57.1z M186.4,56.3C186.5,56.2,186.5,56.2,186.4,56.3c0.1-0.1,0.1-0.1,0.2-0.1
									h0.4l-2.9,3.9c0,0,0,0-0.1,0.1c0,0-0.1,0-0.1,0h-0.4L186.4,56.3z M184.6,57.1c0-0.1,0-0.2,0-0.3c0-0.1-0.1-0.2-0.1-0.2
									c0-0.1-0.1-0.1-0.2-0.1c-0.1,0-0.1,0-0.2,0c-0.1,0-0.1,0-0.2,0c-0.1,0-0.1,0.1-0.2,0.1c0,0.1-0.1,0.1-0.1,0.2
									c0,0.1,0,0.2,0,0.3c0,0.1,0,0.2,0,0.3c0,0.1,0.1,0.2,0.1,0.2c0,0.1,0.1,0.1,0.2,0.1s0.1,0,0.2,0c0.1,0,0.1,0,0.2,0
									c0.1,0,0.1-0.1,0.2-0.1c0-0.1,0.1-0.1,0.1-0.2C184.6,57.4,184.6,57.3,184.6,57.1z M187.2,59.2c0,0.2,0,0.3-0.1,0.4
									c0,0.1-0.1,0.2-0.2,0.3c-0.1,0.1-0.2,0.1-0.3,0.2s-0.2,0.1-0.3,0.1c-0.1,0-0.2,0-0.3-0.1c-0.1,0-0.2-0.1-0.3-0.2
									c-0.1-0.1-0.1-0.2-0.2-0.3c0-0.1-0.1-0.3-0.1-0.4c0-0.2,0-0.3,0.1-0.4c0-0.1,0.1-0.2,0.2-0.3c0.1-0.1,0.2-0.2,0.3-0.2
									c0.1,0,0.2-0.1,0.3-0.1c0.1,0,0.2,0,0.3,0.1c0.1,0,0.2,0.1,0.3,0.2c0.1,0.1,0.1,0.2,0.2,0.3
									C187.2,58.9,187.2,59.1,187.2,59.2z M186.8,59.2c0-0.1,0-0.2,0-0.3c0-0.1-0.1-0.2-0.1-0.2c0-0.1-0.1-0.1-0.2-0.1
									c-0.1,0-0.1,0-0.2,0c-0.1,0-0.1,0-0.2,0c-0.1,0-0.1,0.1-0.2,0.1s-0.1,0.1-0.1,0.2c0,0.1,0,0.2,0,0.3c0,0.1,0,0.2,0,0.3
									c0,0.1,0.1,0.2,0.1,0.2s0.1,0.1,0.2,0.1s0.1,0,0.2,0c0.1,0,0.1,0,0.2,0s0.1-0.1,0.2-0.1c0-0.1,0.1-0.1,0.1-0.2
									C186.8,59.4,186.8,59.3,186.8,59.2z"/>
							</g>
							<line class="st14" x1="142" y1="64.8" x2="219" y2="64.8"/>
							<line class="st14" x1="163.8" y1="64.2" x2="163.8" y2="52.3"/>
							<line class="st14" x1="196.8" y1="63.7" x2="196.8" y2="51.7"/>
							<g class="st13">
								<path class="st3" d="M149,70.5C149,70.5,149,70.6,149,70.5c-0.1,0.1-0.1,0.1-0.1,0.1c0,0-0.1,0-0.1,0c0,0-0.1-0.1-0.1-0.1
									c-0.1,0-0.1-0.1-0.2-0.1s-0.2,0-0.3,0c-0.1,0-0.2,0-0.3,0c-0.1,0-0.2,0.1-0.2,0.1c-0.1,0-0.1,0.1-0.1,0.2c0,0.1,0,0.1,0,0.2
									c0,0.1,0,0.2,0.1,0.2c0,0.1,0.1,0.1,0.2,0.2s0.2,0.1,0.3,0.1c0.1,0,0.2,0.1,0.3,0.1c0.1,0,0.2,0.1,0.3,0.1s0.2,0.1,0.3,0.2
									c0.1,0.1,0.1,0.2,0.2,0.3c0,0.1,0.1,0.2,0.1,0.4c0,0.2,0,0.3-0.1,0.4c-0.1,0.1-0.1,0.3-0.2,0.4s-0.2,0.2-0.4,0.2
									c-0.1,0.1-0.3,0.1-0.5,0.1c-0.2,0-0.4,0-0.6-0.1c-0.2-0.1-0.4-0.2-0.5-0.3l0.1-0.2c0,0,0,0,0,0c0,0,0,0,0.1,0c0,0,0,0,0.1,0
									s0.1,0,0.1,0.1s0.1,0.1,0.1,0.1c0,0,0.1,0.1,0.2,0.1c0.1,0,0.1,0,0.2,0.1c0.1,0,0.2,0,0.2,0c0.1,0,0.2,0,0.3,0
									c0.1,0,0.2-0.1,0.2-0.1s0.1-0.1,0.1-0.2s0.1-0.2,0.1-0.3c0-0.1,0-0.2-0.1-0.3c0-0.1-0.1-0.1-0.2-0.2c-0.1,0-0.2-0.1-0.3-0.1
									s-0.2-0.1-0.3-0.1c-0.1,0-0.2-0.1-0.3-0.1s-0.2-0.1-0.3-0.2c-0.1-0.1-0.1-0.2-0.2-0.3c0-0.1-0.1-0.2-0.1-0.4
									c0-0.1,0-0.2,0.1-0.4s0.1-0.2,0.2-0.3s0.2-0.2,0.3-0.2s0.3-0.1,0.5-0.1c0.2,0,0.4,0,0.5,0.1s0.3,0.2,0.4,0.3L149,70.5z"/>
								<path class="st3" d="M150.2,71.3c0.1-0.1,0.2-0.2,0.4-0.3s0.3-0.1,0.5-0.1c0.1,0,0.3,0,0.4,0.1s0.2,0.1,0.3,0.2
									c0.1,0.1,0.1,0.2,0.2,0.3c0,0.1,0.1,0.2,0.1,0.4v1.6h-0.4v-1.6c0-0.2,0-0.3-0.1-0.4c-0.1-0.1-0.2-0.2-0.4-0.2
									c-0.1,0-0.3,0-0.4,0.1c-0.1,0.1-0.2,0.1-0.3,0.3v1.9h-0.4v-3.7h0.4V71.3z"/>
								<path class="st3" d="M153.6,71c0.2,0,0.4,0,0.5,0.1c0.1,0.1,0.3,0.1,0.4,0.3c0.1,0.1,0.2,0.3,0.2,0.4
									c0.1,0.2,0.1,0.3,0.1,0.5c0,0.2,0,0.4-0.1,0.5c-0.1,0.2-0.1,0.3-0.2,0.4c-0.1,0.1-0.2,0.2-0.4,0.3c-0.1,0.1-0.3,0.1-0.5,0.1
									c-0.2,0-0.4,0-0.5-0.1c-0.1-0.1-0.3-0.1-0.4-0.3c-0.1-0.1-0.2-0.2-0.2-0.4s-0.1-0.3-0.1-0.5c0-0.2,0-0.4,0.1-0.5
									c0.1-0.2,0.1-0.3,0.2-0.4c0.1-0.1,0.2-0.2,0.4-0.3C153.2,71,153.4,71,153.6,71z M153.6,73.2c0.2,0,0.4-0.1,0.6-0.3
									c0.1-0.2,0.2-0.4,0.2-0.7c0-0.3-0.1-0.5-0.2-0.7c-0.1-0.2-0.3-0.3-0.6-0.3c-0.1,0-0.2,0-0.3,0.1c-0.1,0-0.2,0.1-0.2,0.2
									c-0.1,0.1-0.1,0.2-0.1,0.3c0,0.1,0,0.3,0,0.4c0,0.3,0.1,0.5,0.2,0.7C153.2,73.1,153.3,73.2,153.6,73.2z"/>
								<path class="st3" d="M158.8,71l-0.8,2.5h-0.4c0,0-0.1,0-0.1-0.1l-0.6-1.7c0,0,0-0.1,0-0.1c0,0,0-0.1,0-0.1c0,0,0,0.1,0,0.1
									c0,0,0,0.1,0,0.1l-0.6,1.7c0,0.1,0,0.1-0.1,0.1h-0.3l-0.8-2.5h0.4c0,0,0.1,0,0.1,0c0,0,0,0,0,0.1l0.5,1.6
									c0,0.1,0.1,0.2,0.1,0.3c0-0.1,0-0.1,0-0.2c0-0.1,0-0.1,0.1-0.2l0.5-1.6c0,0,0,0,0-0.1c0,0,0,0,0.1,0h0.2c0,0,0.1,0,0.1,0
									s0,0,0,0.1l0.5,1.6c0,0.1,0,0.1,0,0.2c0,0.1,0,0.1,0,0.2c0-0.1,0-0.1,0-0.2c0-0.1,0-0.1,0-0.2l0.5-1.6c0,0,0,0,0-0.1
									c0,0,0.1,0,0.1,0H158.8z"/>
								<path class="st3" d="M160.9,71.5c0.1-0.2,0.2-0.3,0.3-0.4c0.1-0.1,0.3-0.1,0.4-0.1c0.1,0,0.1,0,0.2,0s0.1,0,0.1,0.1l0,0.3
									c0,0,0,0.1-0.1,0.1c0,0-0.1,0-0.1,0c0,0-0.1,0-0.2,0c-0.1,0-0.2,0-0.2,0c-0.1,0-0.1,0.1-0.2,0.1s-0.1,0.1-0.1,0.2
									s-0.1,0.1-0.1,0.2v1.6h-0.4V71h0.3c0,0,0.1,0,0.1,0c0,0,0,0,0,0.1L160.9,71.5z"/>
								<path class="st3" d="M164.2,73.2c-0.1,0.1-0.1,0.1-0.2,0.2c-0.1,0-0.2,0.1-0.2,0.1c-0.1,0-0.2,0.1-0.3,0.1
									c-0.1,0-0.2,0-0.3,0c-0.2,0-0.3,0-0.5-0.1s-0.3-0.1-0.4-0.3s-0.2-0.3-0.3-0.4c-0.1-0.2-0.1-0.4-0.1-0.6c0-0.2,0-0.3,0.1-0.5
									c0.1-0.2,0.1-0.3,0.2-0.4c0.1-0.1,0.2-0.2,0.4-0.3c0.1-0.1,0.3-0.1,0.5-0.1c0.2,0,0.3,0,0.4,0.1s0.2,0.1,0.3,0.2
									s0.2,0.2,0.2,0.4c0.1,0.1,0.1,0.3,0.1,0.5c0,0.1,0,0.1,0,0.1c0,0,0,0-0.1,0h-1.7c0,0.2,0,0.3,0.1,0.4s0.1,0.2,0.2,0.3
									c0.1,0.1,0.2,0.1,0.2,0.2s0.2,0.1,0.3,0.1c0.1,0,0.2,0,0.3,0c0.1,0,0.2-0.1,0.2-0.1s0.1-0.1,0.1-0.1c0,0,0.1,0,0.1,0
									c0,0,0.1,0,0.1,0L164.2,73.2z M163.8,72c0-0.1,0-0.2,0-0.3s-0.1-0.2-0.1-0.2c-0.1-0.1-0.1-0.1-0.2-0.1s-0.2-0.1-0.3-0.1
									c-0.2,0-0.4,0.1-0.5,0.2c-0.1,0.1-0.2,0.3-0.2,0.5H163.8z"/>
								<path class="st3" d="M164.7,71.4c0.1-0.1,0.3-0.2,0.5-0.3s0.3-0.1,0.5-0.1c0.1,0,0.3,0,0.4,0.1c0.1,0,0.2,0.1,0.3,0.2
									s0.1,0.2,0.2,0.3s0.1,0.2,0.1,0.4v1.6h-0.2c0,0-0.1,0-0.1,0c0,0,0,0-0.1-0.1l0-0.2c-0.1,0.1-0.1,0.1-0.2,0.2
									c-0.1,0-0.1,0.1-0.2,0.1c-0.1,0-0.1,0.1-0.2,0.1s-0.2,0-0.3,0c-0.1,0-0.2,0-0.3,0s-0.2-0.1-0.2-0.1
									c-0.1-0.1-0.1-0.1-0.2-0.2c0-0.1-0.1-0.2-0.1-0.3c0-0.1,0-0.2,0.1-0.3c0.1-0.1,0.1-0.2,0.3-0.2c0.1-0.1,0.3-0.1,0.5-0.2
									s0.4-0.1,0.7-0.1v-0.2c0-0.2,0-0.3-0.1-0.4s-0.2-0.2-0.4-0.2c-0.1,0-0.2,0-0.3,0c-0.1,0-0.1,0.1-0.2,0.1
									c-0.1,0-0.1,0.1-0.1,0.1s-0.1,0-0.1,0c0,0-0.1,0-0.1,0s0,0-0.1-0.1L164.7,71.4z M166.2,72.4c-0.2,0-0.4,0-0.5,0
									c-0.1,0-0.3,0.1-0.4,0.1c-0.1,0-0.2,0.1-0.2,0.1s-0.1,0.1-0.1,0.2c0,0.1,0,0.1,0,0.2c0,0,0.1,0.1,0.1,0.1
									c0,0,0.1,0.1,0.1,0.1c0.1,0,0.1,0,0.2,0c0.1,0,0.2,0,0.2,0c0.1,0,0.1,0,0.2-0.1c0.1,0,0.1-0.1,0.2-0.1
									c0.1,0,0.1-0.1,0.2-0.1V72.4z"/>
								<path class="st3" d="M169.4,69.9v3.7h-0.3c-0.1,0-0.1,0-0.1-0.1l0-0.3c-0.1,0.1-0.2,0.2-0.4,0.3c-0.1,0.1-0.3,0.1-0.5,0.1
									c-0.1,0-0.3,0-0.4-0.1c-0.1-0.1-0.2-0.1-0.3-0.2c-0.1-0.1-0.1-0.2-0.2-0.4c0-0.2-0.1-0.3-0.1-0.6c0-0.2,0-0.4,0.1-0.5
									c0-0.2,0.1-0.3,0.2-0.4c0.1-0.1,0.2-0.2,0.3-0.3s0.3-0.1,0.5-0.1c0.2,0,0.3,0,0.4,0.1c0.1,0.1,0.2,0.1,0.3,0.2v-1.4H169.4z
									 M168.9,71.6c-0.1-0.1-0.2-0.2-0.3-0.2c-0.1,0-0.2-0.1-0.3-0.1c-0.2,0-0.4,0.1-0.5,0.3s-0.2,0.4-0.2,0.7c0,0.2,0,0.3,0,0.4
									c0,0.1,0.1,0.2,0.1,0.3c0.1,0.1,0.1,0.1,0.2,0.2c0.1,0,0.2,0.1,0.3,0.1c0.1,0,0.3,0,0.4-0.1c0.1-0.1,0.2-0.2,0.3-0.3V71.6z"
									/>
								<path class="st3" d="M172.1,73.2c-0.1,0.1-0.1,0.1-0.2,0.2c-0.1,0-0.2,0.1-0.2,0.1c-0.1,0-0.2,0.1-0.3,0.1
									c-0.1,0-0.2,0-0.3,0c-0.2,0-0.3,0-0.5-0.1s-0.3-0.1-0.4-0.3s-0.2-0.3-0.3-0.4c-0.1-0.2-0.1-0.4-0.1-0.6c0-0.2,0-0.3,0.1-0.5
									c0.1-0.2,0.1-0.3,0.2-0.4c0.1-0.1,0.2-0.2,0.4-0.3c0.1-0.1,0.3-0.1,0.5-0.1c0.2,0,0.3,0,0.4,0.1s0.2,0.1,0.3,0.2
									s0.2,0.2,0.2,0.4c0.1,0.1,0.1,0.3,0.1,0.5c0,0.1,0,0.1,0,0.1c0,0,0,0-0.1,0h-1.7c0,0.2,0,0.3,0.1,0.4s0.1,0.2,0.2,0.3
									c0.1,0.1,0.2,0.1,0.2,0.2s0.2,0.1,0.3,0.1c0.1,0,0.2,0,0.3,0c0.1,0,0.2-0.1,0.2-0.1s0.1-0.1,0.1-0.1c0,0,0.1,0,0.1,0
									c0,0,0.1,0,0.1,0L172.1,73.2z M171.8,72c0-0.1,0-0.2,0-0.3s-0.1-0.2-0.1-0.2c-0.1-0.1-0.1-0.1-0.2-0.1s-0.2-0.1-0.3-0.1
									c-0.2,0-0.4,0.1-0.5,0.2c-0.1,0.1-0.2,0.3-0.2,0.5H171.8z"/>
								<path class="st3" d="M173.1,71.5c0.1-0.2,0.2-0.3,0.3-0.4c0.1-0.1,0.3-0.1,0.4-0.1c0.1,0,0.1,0,0.2,0c0,0,0.1,0,0.1,0.1
									l0,0.3c0,0,0,0.1-0.1,0.1c0,0-0.1,0-0.1,0s-0.1,0-0.2,0c-0.1,0-0.2,0-0.2,0c-0.1,0-0.1,0.1-0.2,0.1c0,0-0.1,0.1-0.1,0.2
									s-0.1,0.1-0.1,0.2v1.6h-0.4V71h0.3c0,0,0.1,0,0.1,0s0,0,0,0.1L173.1,71.5z"/>
								<path class="st3" d="M178.5,70l-1.5,3.6h-0.4l-1.5-3.6h0.4c0,0,0.1,0,0.1,0s0,0,0.1,0.1l1,2.5c0,0.1,0,0.1,0.1,0.2
									s0,0.1,0.1,0.2c0-0.1,0-0.1,0.1-0.2s0-0.1,0.1-0.2l1-2.5c0,0,0-0.1,0.1-0.1c0,0,0.1,0,0.1,0H178.5z"/>
								<path class="st3" d="M179.5,70.2c0,0,0,0.1,0,0.1c0,0,0,0.1-0.1,0.1s-0.1,0.1-0.1,0.1s-0.1,0-0.1,0c0,0-0.1,0-0.1,0
									c0,0-0.1,0-0.1-0.1s-0.1-0.1-0.1-0.1c0,0,0-0.1,0-0.1c0,0,0-0.1,0-0.1s0-0.1,0.1-0.1s0.1-0.1,0.1-0.1c0,0,0.1,0,0.1,0
									c0,0,0.1,0,0.1,0s0.1,0,0.1,0.1s0.1,0.1,0.1,0.1S179.5,70.2,179.5,70.2z M179.4,71v2.5h-0.4V71H179.4z"/>
								<path class="st3" d="M182.2,73.2c-0.1,0.1-0.1,0.1-0.2,0.2c-0.1,0-0.2,0.1-0.2,0.1c-0.1,0-0.2,0.1-0.3,0.1
									c-0.1,0-0.2,0-0.3,0c-0.2,0-0.3,0-0.5-0.1s-0.3-0.1-0.4-0.3s-0.2-0.3-0.3-0.4c-0.1-0.2-0.1-0.4-0.1-0.6c0-0.2,0-0.3,0.1-0.5
									c0.1-0.2,0.1-0.3,0.2-0.4c0.1-0.1,0.2-0.2,0.4-0.3c0.1-0.1,0.3-0.1,0.5-0.1c0.2,0,0.3,0,0.4,0.1s0.2,0.1,0.3,0.2
									s0.2,0.2,0.2,0.4c0.1,0.1,0.1,0.3,0.1,0.5c0,0.1,0,0.1,0,0.1c0,0,0,0-0.1,0h-1.7c0,0.2,0,0.3,0.1,0.4s0.1,0.2,0.2,0.3
									c0.1,0.1,0.2,0.1,0.2,0.2s0.2,0.1,0.3,0.1c0.1,0,0.2,0,0.3,0c0.1,0,0.2-0.1,0.2-0.1s0.1-0.1,0.1-0.1c0,0,0.1,0,0.1,0
									c0,0,0.1,0,0.1,0L182.2,73.2z M181.8,72c0-0.1,0-0.2,0-0.3s-0.1-0.2-0.1-0.2c-0.1-0.1-0.1-0.1-0.2-0.1s-0.2-0.1-0.3-0.1
									c-0.2,0-0.4,0.1-0.5,0.2c-0.1,0.1-0.2,0.3-0.2,0.5H181.8z"/>
								<path class="st3" d="M186.2,71l-0.8,2.5H185c0,0-0.1,0-0.1-0.1l-0.6-1.7c0,0,0-0.1,0-0.1c0,0,0-0.1,0-0.1c0,0,0,0.1,0,0.1
									c0,0,0,0.1,0,0.1l-0.6,1.7c0,0.1,0,0.1-0.1,0.1h-0.3l-0.8-2.5h0.4c0,0,0.1,0,0.1,0c0,0,0,0,0,0.1l0.5,1.6
									c0,0.1,0.1,0.2,0.1,0.3c0-0.1,0-0.1,0-0.2c0-0.1,0-0.1,0.1-0.2l0.5-1.6c0,0,0,0,0-0.1c0,0,0,0,0.1,0h0.2c0,0,0.1,0,0.1,0
									s0,0,0,0.1l0.5,1.6c0,0.1,0,0.1,0,0.2c0,0.1,0,0.1,0,0.2c0-0.1,0-0.1,0-0.2c0-0.1,0-0.1,0-0.2l0.5-1.6c0,0,0,0,0-0.1
									c0,0,0.1,0,0.1,0H186.2z"/>
							</g>
							<g class="st9">
								<path class="st3" d="M151.5,80.5v5h-0.8v-2.2h-2.5v2.2h-0.8v-5h0.8v2.2h2.5v-2.2H151.5z"/>
								<path class="st3" d="M153.4,80.9c0,0.1,0,0.1,0,0.2c0,0.1-0.1,0.1-0.1,0.2c0,0-0.1,0.1-0.2,0.1c-0.1,0-0.1,0-0.2,0
									c-0.1,0-0.1,0-0.2,0c-0.1,0-0.1-0.1-0.2-0.1c0,0-0.1-0.1-0.1-0.2c0-0.1,0-0.1,0-0.2c0-0.1,0-0.1,0-0.2
									c0-0.1,0.1-0.1,0.1-0.2c0,0,0.1-0.1,0.2-0.1c0.1,0,0.1,0,0.2,0c0.1,0,0.1,0,0.2,0c0.1,0,0.1,0.1,0.2,0.1
									c0,0,0.1,0.1,0.1,0.2C153.4,80.8,153.4,80.8,153.4,80.9z M153.3,82v3.6h-0.8V82H153.3z"/>
								<path class="st3" d="M157.3,80.4v5.2h-0.5c-0.1,0-0.2,0-0.2-0.1l-0.1-0.4c-0.1,0.2-0.3,0.3-0.5,0.4
									c-0.2,0.1-0.4,0.2-0.7,0.2c-0.2,0-0.4,0-0.5-0.1c-0.2-0.1-0.3-0.2-0.4-0.4s-0.2-0.3-0.3-0.6c-0.1-0.2-0.1-0.5-0.1-0.8
									c0-0.3,0-0.5,0.1-0.7c0.1-0.2,0.2-0.4,0.3-0.6c0.1-0.2,0.3-0.3,0.5-0.4c0.2-0.1,0.4-0.1,0.6-0.1c0.2,0,0.4,0,0.5,0.1
									c0.1,0.1,0.3,0.2,0.4,0.3v-1.9H157.3z M156.5,82.8c-0.1-0.1-0.2-0.2-0.3-0.3s-0.3-0.1-0.4-0.1c-0.3,0-0.5,0.1-0.7,0.3
									c-0.2,0.2-0.2,0.5-0.2,1c0,0.2,0,0.4,0.1,0.6s0.1,0.3,0.2,0.4s0.2,0.2,0.3,0.2c0.1,0,0.2,0.1,0.3,0.1c0.2,0,0.4,0,0.5-0.1
									c0.1-0.1,0.3-0.2,0.4-0.4V82.8z"/>
								<path class="st3" d="M158.7,83.8c0,0.2,0,0.4,0.1,0.5c0.1,0.1,0.1,0.3,0.2,0.4c0.1,0.1,0.2,0.2,0.3,0.2s0.3,0.1,0.4,0.1
									c0.1,0,0.3,0,0.4-0.1s0.2-0.1,0.3-0.1c0.1,0,0.1-0.1,0.2-0.1c0.1,0,0.1-0.1,0.2-0.1c0.1,0,0.1,0,0.1,0.1l0.2,0.3
									c-0.1,0.1-0.2,0.2-0.3,0.3c-0.1,0.1-0.2,0.1-0.4,0.2s-0.3,0.1-0.4,0.1c-0.1,0-0.3,0-0.4,0c-0.2,0-0.5,0-0.7-0.1
									c-0.2-0.1-0.4-0.2-0.5-0.4s-0.3-0.4-0.4-0.6c-0.1-0.2-0.1-0.5-0.1-0.8c0-0.2,0-0.5,0.1-0.7s0.2-0.4,0.3-0.6
									c0.1-0.2,0.3-0.3,0.5-0.4c0.2-0.1,0.4-0.1,0.7-0.1c0.2,0,0.4,0,0.6,0.1s0.3,0.2,0.5,0.3c0.1,0.1,0.2,0.3,0.3,0.5
									c0.1,0.2,0.1,0.4,0.1,0.7c0,0.1,0,0.2,0,0.2c0,0-0.1,0.1-0.1,0.1H158.7z M160.5,83.3c0-0.1,0-0.2-0.1-0.4s-0.1-0.2-0.2-0.3
									c-0.1-0.1-0.2-0.1-0.3-0.2c-0.1,0-0.2-0.1-0.4-0.1c-0.3,0-0.5,0.1-0.6,0.2c-0.2,0.2-0.3,0.4-0.3,0.7H160.5z"/>
								<path class="st3" d="M167,81.2h-1.6v4.4h-0.8v-4.4h-1.6v-0.7h4V81.2z"/>
								<path class="st3" d="M168.3,81.9c0.3,0,0.5,0,0.7,0.1c0.2,0.1,0.4,0.2,0.5,0.4c0.2,0.2,0.3,0.4,0.3,0.6
									c0.1,0.2,0.1,0.5,0.1,0.8s0,0.5-0.1,0.8c-0.1,0.2-0.2,0.4-0.3,0.6s-0.3,0.3-0.5,0.4c-0.2,0.1-0.5,0.1-0.7,0.1
									c-0.3,0-0.5,0-0.7-0.1c-0.2-0.1-0.4-0.2-0.5-0.4c-0.2-0.2-0.3-0.4-0.3-0.6s-0.1-0.5-0.1-0.8s0-0.5,0.1-0.8
									c0.1-0.2,0.2-0.4,0.3-0.6c0.2-0.2,0.3-0.3,0.5-0.4C167.8,82,168,81.9,168.3,81.9z M168.3,85c0.3,0,0.6-0.1,0.7-0.3
									c0.2-0.2,0.2-0.5,0.2-0.9s-0.1-0.7-0.2-0.9c-0.2-0.2-0.4-0.3-0.7-0.3c-0.3,0-0.6,0.1-0.7,0.3c-0.2,0.2-0.2,0.5-0.2,0.9
									s0.1,0.7,0.2,0.9C167.7,84.9,168,85,168.3,85z"/>
								<path class="st3" d="M172.3,81.9c0.3,0,0.5,0,0.7,0.1c0.2,0.1,0.4,0.2,0.5,0.4c0.2,0.2,0.3,0.4,0.3,0.6
									c0.1,0.2,0.1,0.5,0.1,0.8s0,0.5-0.1,0.8c-0.1,0.2-0.2,0.4-0.3,0.6s-0.3,0.3-0.5,0.4c-0.2,0.1-0.5,0.1-0.7,0.1
									c-0.3,0-0.5,0-0.7-0.1c-0.2-0.1-0.4-0.2-0.5-0.4c-0.2-0.2-0.3-0.4-0.3-0.6s-0.1-0.5-0.1-0.8s0-0.5,0.1-0.8
									c0.1-0.2,0.2-0.4,0.3-0.6c0.2-0.2,0.3-0.3,0.5-0.4C171.8,82,172,81.9,172.3,81.9z M172.3,85c0.3,0,0.6-0.1,0.7-0.3
									c0.2-0.2,0.2-0.5,0.2-0.9s-0.1-0.7-0.2-0.9c-0.2-0.2-0.4-0.3-0.7-0.3c-0.3,0-0.6,0.1-0.7,0.3c-0.2,0.2-0.2,0.5-0.2,0.9
									s0.1,0.7,0.2,0.9C171.7,84.9,172,85,172.3,85z"/>
								<path class="st3" d="M175.5,80.4v5.2h-0.8v-5.2H175.5z"/>
								<path class="st3" d="M177.2,82.4c0.1-0.2,0.3-0.3,0.5-0.4c0.2-0.1,0.4-0.1,0.6-0.1c0.2,0,0.4,0,0.6,0.1
									c0.2,0.1,0.3,0.2,0.4,0.3c0.1,0.2,0.2,0.3,0.3,0.6c0.1,0.2,0.1,0.5,0.1,0.7c0,0.3,0,0.6-0.1,0.8c-0.1,0.2-0.2,0.4-0.3,0.6
									c-0.1,0.2-0.3,0.3-0.5,0.4c-0.2,0.1-0.4,0.1-0.6,0.1c-0.1,0-0.2,0-0.3,0c-0.1,0-0.2-0.1-0.3-0.1s-0.2-0.1-0.2-0.2
									s-0.1-0.1-0.2-0.2l0,0.3c0,0.1,0,0.1-0.1,0.1s-0.1,0-0.1,0h-0.5v-5.2h0.8V82.4z M177.2,84.6c0.1,0.1,0.2,0.2,0.3,0.3
									c0.1,0.1,0.3,0.1,0.4,0.1c0.3,0,0.5-0.1,0.7-0.3s0.2-0.5,0.2-1c0-0.4-0.1-0.7-0.2-0.9c-0.1-0.2-0.3-0.3-0.6-0.3
									c-0.2,0-0.3,0-0.5,0.1c-0.1,0.1-0.3,0.2-0.4,0.4V84.6z"/>
								<path class="st3" d="M180.3,82.5c0.4-0.4,0.9-0.6,1.4-0.6c0.2,0,0.4,0,0.5,0.1s0.3,0.2,0.4,0.3s0.2,0.3,0.2,0.4
									c0.1,0.2,0.1,0.4,0.1,0.6v2.3h-0.3c-0.1,0-0.1,0-0.2,0s-0.1-0.1-0.1-0.1l-0.1-0.3c-0.1,0.1-0.2,0.2-0.3,0.2
									c-0.1,0.1-0.2,0.1-0.3,0.2c-0.1,0-0.2,0.1-0.3,0.1c-0.1,0-0.2,0-0.4,0c-0.1,0-0.3,0-0.4-0.1c-0.1,0-0.2-0.1-0.3-0.2
									c-0.1-0.1-0.2-0.2-0.2-0.3c-0.1-0.1-0.1-0.3-0.1-0.4c0-0.1,0-0.3,0.1-0.4s0.2-0.2,0.4-0.4c0.2-0.1,0.4-0.2,0.7-0.3
									c0.3-0.1,0.6-0.1,1-0.1v-0.2c0-0.3-0.1-0.4-0.2-0.6s-0.3-0.2-0.5-0.2c-0.1,0-0.3,0-0.4,0.1c-0.1,0-0.2,0.1-0.3,0.1
									s-0.1,0.1-0.2,0.1s-0.1,0.1-0.2,0.1c-0.1,0-0.1,0-0.1,0c0,0-0.1-0.1-0.1-0.1L180.3,82.5z M182.3,84c-0.3,0-0.5,0-0.7,0.1
									s-0.3,0.1-0.4,0.1c-0.1,0.1-0.2,0.1-0.2,0.2c-0.1,0.1-0.1,0.2-0.1,0.2c0,0.1,0,0.2,0,0.2c0,0.1,0.1,0.1,0.1,0.1
									c0,0,0.1,0.1,0.2,0.1c0.1,0,0.1,0,0.2,0c0.2,0,0.4,0,0.5-0.1c0.1-0.1,0.3-0.2,0.4-0.3V84z"/>
								<path class="st3" d="M184.6,82.6c0.1-0.2,0.2-0.4,0.4-0.5c0.2-0.1,0.3-0.2,0.6-0.2c0.1,0,0.1,0,0.2,0c0.1,0,0.1,0,0.2,0.1
									l-0.1,0.6c0,0,0,0.1,0,0.1c0,0,0,0-0.1,0c0,0-0.1,0-0.2,0c-0.1,0-0.1,0-0.2,0c-0.1,0-0.2,0-0.3,0c-0.1,0-0.2,0.1-0.2,0.1
									c-0.1,0.1-0.1,0.1-0.2,0.2s-0.1,0.2-0.1,0.3v2.2h-0.8V82h0.4c0.1,0,0.1,0,0.2,0s0.1,0.1,0.1,0.2L184.6,82.6z"/>
							</g>
							<g class="st13">
								<path class="st3" d="M149.8,95.5h-0.4c-0.1,0-0.2,0-0.2-0.1l-0.9-1.3c0,0-0.1-0.1-0.1-0.1s-0.1,0-0.2,0h-0.4v1.5h-0.5V92h1
									c0.2,0,0.4,0,0.6,0.1c0.2,0,0.3,0.1,0.4,0.2s0.2,0.2,0.2,0.3c0.1,0.1,0.1,0.3,0.1,0.4c0,0.1,0,0.2-0.1,0.4s-0.1,0.2-0.2,0.3
									c-0.1,0.1-0.2,0.2-0.3,0.2c-0.1,0.1-0.2,0.1-0.4,0.1c0.1,0,0.1,0.1,0.2,0.2L149.8,95.5z M148.2,93.7c0.1,0,0.3,0,0.4-0.1
									c0.1,0,0.2-0.1,0.3-0.1c0.1-0.1,0.1-0.1,0.2-0.2c0-0.1,0.1-0.2,0.1-0.3c0-0.2-0.1-0.4-0.2-0.5c-0.1-0.1-0.4-0.2-0.6-0.2
									h-0.5v1.4H148.2z"/>
								<path class="st3" d="M152.1,95.2c-0.1,0.1-0.1,0.1-0.2,0.2c-0.1,0.1-0.2,0.1-0.2,0.1c-0.1,0-0.2,0.1-0.3,0.1
									c-0.1,0-0.2,0-0.3,0c-0.2,0-0.3,0-0.5-0.1c-0.1-0.1-0.3-0.1-0.4-0.3c-0.1-0.1-0.2-0.3-0.3-0.4c-0.1-0.2-0.1-0.4-0.1-0.6
									c0-0.2,0-0.3,0.1-0.5c0.1-0.2,0.1-0.3,0.2-0.4s0.2-0.2,0.4-0.3c0.1-0.1,0.3-0.1,0.5-0.1c0.2,0,0.3,0,0.4,0.1
									c0.1,0.1,0.2,0.1,0.3,0.2c0.1,0.1,0.2,0.2,0.2,0.4c0.1,0.1,0.1,0.3,0.1,0.5c0,0.1,0,0.1,0,0.1s0,0-0.1,0h-1.7
									c0,0.2,0,0.3,0.1,0.4c0,0.1,0.1,0.2,0.2,0.3c0.1,0.1,0.2,0.1,0.2,0.2s0.2,0.1,0.3,0.1c0.1,0,0.2,0,0.3,0s0.2-0.1,0.2-0.1
									c0.1,0,0.1-0.1,0.1-0.1c0,0,0.1,0,0.1,0c0,0,0.1,0,0.1,0L152.1,95.2z M151.7,94c0-0.1,0-0.2,0-0.3c0-0.1-0.1-0.2-0.1-0.2
									s-0.1-0.1-0.2-0.1c-0.1,0-0.2-0.1-0.3-0.1c-0.2,0-0.4,0.1-0.5,0.2c-0.1,0.1-0.2,0.3-0.2,0.5H151.7z"/>
								<path class="st3" d="M154.8,93v3.4h-0.4v-1.2c-0.1,0.1-0.2,0.2-0.4,0.3s-0.3,0.1-0.5,0.1c-0.1,0-0.3,0-0.4-0.1
									c-0.1-0.1-0.2-0.1-0.3-0.2c-0.1-0.1-0.1-0.2-0.2-0.4s-0.1-0.3-0.1-0.6c0-0.2,0-0.4,0.1-0.5c0-0.2,0.1-0.3,0.2-0.4
									c0.1-0.1,0.2-0.2,0.3-0.3c0.1-0.1,0.3-0.1,0.5-0.1c0.2,0,0.3,0,0.4,0.1c0.1,0.1,0.2,0.1,0.3,0.2l0-0.2
									c0-0.1,0.1-0.1,0.1-0.1H154.8z M154.3,93.6c-0.1-0.1-0.2-0.2-0.3-0.2c-0.1,0-0.2-0.1-0.3-0.1c-0.2,0-0.4,0.1-0.5,0.3
									c-0.1,0.2-0.2,0.4-0.2,0.7c0,0.2,0,0.3,0,0.4c0,0.1,0.1,0.2,0.1,0.3c0.1,0.1,0.1,0.1,0.2,0.2s0.2,0.1,0.3,0.1
									c0.1,0,0.3,0,0.4-0.1s0.2-0.2,0.3-0.3V93.6z"/>
								<path class="st3" d="M157.6,93v2.5h-0.3c-0.1,0-0.1,0-0.1-0.1l0-0.3c-0.1,0.1-0.2,0.2-0.4,0.3s-0.3,0.1-0.5,0.1
									c-0.1,0-0.3,0-0.4-0.1c-0.1,0-0.2-0.1-0.3-0.2c-0.1-0.1-0.1-0.2-0.2-0.3c0-0.1-0.1-0.2-0.1-0.4V93h0.4v1.6
									c0,0.2,0,0.3,0.1,0.4c0.1,0.1,0.2,0.2,0.4,0.2c0.1,0,0.3,0,0.4-0.1s0.2-0.1,0.3-0.3V93H157.6z"/>
								<path class="st3" d="M160.3,95.2c-0.1,0.1-0.1,0.1-0.2,0.2c-0.1,0.1-0.2,0.1-0.2,0.1c-0.1,0-0.2,0.1-0.3,0.1
									c-0.1,0-0.2,0-0.3,0c-0.2,0-0.3,0-0.5-0.1c-0.1-0.1-0.3-0.1-0.4-0.3c-0.1-0.1-0.2-0.3-0.3-0.4c-0.1-0.2-0.1-0.4-0.1-0.6
									c0-0.2,0-0.3,0.1-0.5c0.1-0.2,0.1-0.3,0.2-0.4s0.2-0.2,0.4-0.3c0.1-0.1,0.3-0.1,0.5-0.1c0.2,0,0.3,0,0.4,0.1
									s0.2,0.1,0.3,0.2s0.2,0.2,0.2,0.4c0.1,0.1,0.1,0.3,0.1,0.5c0,0.1,0,0.1,0,0.1c0,0,0,0-0.1,0h-1.7c0,0.2,0,0.3,0.1,0.4
									c0,0.1,0.1,0.2,0.2,0.3c0.1,0.1,0.2,0.1,0.2,0.2s0.2,0.1,0.3,0.1c0.1,0,0.2,0,0.3,0s0.2-0.1,0.2-0.1c0.1,0,0.1-0.1,0.1-0.1
									c0,0,0.1,0,0.1,0c0,0,0.1,0,0.1,0L160.3,95.2z M160,94c0-0.1,0-0.2,0-0.3s-0.1-0.2-0.1-0.2c-0.1-0.1-0.1-0.1-0.2-0.1
									c-0.1,0-0.2-0.1-0.3-0.1c-0.2,0-0.4,0.1-0.5,0.2c-0.1,0.1-0.2,0.3-0.2,0.5H160z"/>
								<path class="st3" d="M162.4,93.4C162.4,93.5,162.3,93.5,162.4,93.4c-0.1,0.1-0.1,0-0.2,0c0,0-0.1,0-0.1-0.1
									c0,0-0.1,0-0.2-0.1c-0.1,0-0.1,0-0.2,0c-0.1,0-0.1,0-0.2,0c-0.1,0-0.1,0-0.2,0.1c0,0-0.1,0.1-0.1,0.1s0,0.1,0,0.1
									c0,0.1,0,0.1,0.1,0.2c0,0,0.1,0.1,0.1,0.1c0.1,0,0.1,0.1,0.2,0.1c0.1,0,0.2,0.1,0.2,0.1c0.1,0,0.2,0.1,0.2,0.1
									s0.1,0.1,0.2,0.1c0.1,0,0.1,0.1,0.1,0.2c0,0.1,0.1,0.2,0.1,0.3c0,0.1,0,0.2-0.1,0.3s-0.1,0.2-0.2,0.3
									c-0.1,0.1-0.2,0.1-0.3,0.2c-0.1,0-0.3,0.1-0.4,0.1c-0.2,0-0.3,0-0.5-0.1c-0.1-0.1-0.3-0.1-0.4-0.2l0.1-0.2c0,0,0,0,0,0
									c0,0,0,0,0.1,0c0,0,0.1,0,0.1,0c0,0,0.1,0,0.1,0.1c0,0,0.1,0.1,0.2,0.1s0.2,0,0.3,0c0.1,0,0.2,0,0.2,0
									c0.1,0,0.1-0.1,0.2-0.1s0.1-0.1,0.1-0.1c0-0.1,0-0.1,0-0.2c0-0.1,0-0.1-0.1-0.2c0,0-0.1-0.1-0.1-0.1c-0.1,0-0.1-0.1-0.2-0.1
									c-0.1,0-0.2,0-0.2-0.1c-0.1,0-0.2-0.1-0.2-0.1c-0.1,0-0.2-0.1-0.2-0.1c-0.1-0.1-0.1-0.1-0.1-0.2s-0.1-0.2-0.1-0.3
									c0-0.1,0-0.2,0.1-0.3c0-0.1,0.1-0.2,0.2-0.2c0.1-0.1,0.2-0.1,0.3-0.2c0.1,0,0.2-0.1,0.4-0.1c0.2,0,0.3,0,0.4,0.1
									c0.1,0.1,0.2,0.1,0.3,0.2L162.4,93.4z"/>
								<path class="st3" d="M163.8,95.6c-0.2,0-0.4-0.1-0.5-0.2c-0.1-0.1-0.2-0.3-0.2-0.5v-1.6h-0.3c0,0,0,0-0.1,0s0,0,0-0.1v-0.2
									l0.4-0.1l0.1-0.8c0,0,0,0,0-0.1s0,0,0.1,0h0.2v0.9h0.7v0.3h-0.7v1.5c0,0.1,0,0.2,0.1,0.2c0.1,0.1,0.1,0.1,0.2,0.1
									c0,0,0.1,0,0.1,0c0,0,0.1,0,0.1,0c0,0,0,0,0.1,0s0,0,0,0c0,0,0,0,0.1,0l0.1,0.2c-0.1,0.1-0.2,0.1-0.3,0.2
									S164,95.6,163.8,95.6z"/>
								<path class="st3" d="M169.4,93.7c0,0.3,0,0.5-0.1,0.7c-0.1,0.2-0.2,0.4-0.4,0.6c-0.2,0.2-0.3,0.3-0.6,0.4
									c-0.2,0.1-0.5,0.1-0.7,0.1h-1.3V92h1.3c0.3,0,0.5,0,0.7,0.1c0.2,0.1,0.4,0.2,0.6,0.4c0.2,0.2,0.3,0.3,0.4,0.6
									C169.3,93.2,169.4,93.5,169.4,93.7z M168.9,93.7c0-0.2,0-0.4-0.1-0.6c-0.1-0.2-0.1-0.3-0.3-0.4c-0.1-0.1-0.2-0.2-0.4-0.3
									c-0.2-0.1-0.3-0.1-0.5-0.1h-0.9v2.8h0.9c0.2,0,0.4,0,0.5-0.1c0.2-0.1,0.3-0.2,0.4-0.3c0.1-0.1,0.2-0.3,0.3-0.4
									C168.8,94.2,168.9,94,168.9,93.7z"/>
								<path class="st3" d="M172,95.2c-0.1,0.1-0.1,0.1-0.2,0.2c-0.1,0.1-0.2,0.1-0.2,0.1c-0.1,0-0.2,0.1-0.3,0.1
									c-0.1,0-0.2,0-0.3,0c-0.2,0-0.3,0-0.5-0.1c-0.1-0.1-0.3-0.1-0.4-0.3c-0.1-0.1-0.2-0.3-0.3-0.4c-0.1-0.2-0.1-0.4-0.1-0.6
									c0-0.2,0-0.3,0.1-0.5c0.1-0.2,0.1-0.3,0.2-0.4s0.2-0.2,0.4-0.3c0.1-0.1,0.3-0.1,0.5-0.1c0.2,0,0.3,0,0.4,0.1
									c0.1,0.1,0.2,0.1,0.3,0.2c0.1,0.1,0.2,0.2,0.2,0.4c0.1,0.1,0.1,0.3,0.1,0.5c0,0.1,0,0.1,0,0.1s0,0-0.1,0h-1.7
									c0,0.2,0,0.3,0.1,0.4c0,0.1,0.1,0.2,0.2,0.3c0.1,0.1,0.2,0.1,0.2,0.2s0.2,0.1,0.3,0.1c0.1,0,0.2,0,0.3,0s0.2-0.1,0.2-0.1
									c0.1,0,0.1-0.1,0.1-0.1c0,0,0.1,0,0.1,0c0,0,0.1,0,0.1,0L172,95.2z M171.6,94c0-0.1,0-0.2,0-0.3c0-0.1-0.1-0.2-0.1-0.2
									s-0.1-0.1-0.2-0.1c-0.1,0-0.2-0.1-0.3-0.1c-0.2,0-0.4,0.1-0.5,0.2c-0.1,0.1-0.2,0.3-0.2,0.5H171.6z"/>
								<path class="st3" d="M174,93.4C174,93.5,174,93.5,174,93.4c-0.1,0.1-0.1,0-0.2,0c0,0-0.1,0-0.1-0.1c0,0-0.1,0-0.2-0.1
									s-0.1,0-0.2,0c-0.1,0-0.1,0-0.2,0c-0.1,0-0.1,0-0.2,0.1c0,0-0.1,0.1-0.1,0.1s0,0.1,0,0.1c0,0.1,0,0.1,0.1,0.2
									c0,0,0.1,0.1,0.1,0.1c0.1,0,0.1,0.1,0.2,0.1c0.1,0,0.2,0.1,0.2,0.1c0.1,0,0.2,0.1,0.2,0.1c0.1,0,0.1,0.1,0.2,0.1
									c0.1,0,0.1,0.1,0.1,0.2s0.1,0.2,0.1,0.3c0,0.1,0,0.2-0.1,0.3c0,0.1-0.1,0.2-0.2,0.3s-0.2,0.1-0.3,0.2
									c-0.1,0-0.3,0.1-0.4,0.1c-0.2,0-0.3,0-0.5-0.1c-0.1-0.1-0.3-0.1-0.4-0.2l0.1-0.2c0,0,0,0,0,0s0,0,0.1,0c0,0,0.1,0,0.1,0
									s0.1,0,0.1,0.1c0,0,0.1,0.1,0.2,0.1s0.2,0,0.3,0c0.1,0,0.2,0,0.2,0c0.1,0,0.1-0.1,0.2-0.1c0,0,0.1-0.1,0.1-0.1s0-0.1,0-0.2
									c0-0.1,0-0.1-0.1-0.2c0,0-0.1-0.1-0.1-0.1s-0.1-0.1-0.2-0.1c-0.1,0-0.2,0-0.2-0.1c-0.1,0-0.2-0.1-0.2-0.1
									c-0.1,0-0.1-0.1-0.2-0.1c-0.1-0.1-0.1-0.1-0.1-0.2c0-0.1-0.1-0.2-0.1-0.3c0-0.1,0-0.2,0.1-0.3c0-0.1,0.1-0.2,0.2-0.2
									c0.1-0.1,0.2-0.1,0.3-0.2c0.1,0,0.2-0.1,0.4-0.1c0.2,0,0.3,0,0.4,0.1c0.1,0.1,0.2,0.1,0.3,0.2L174,93.4z"/>
								<path class="st3" d="M175.2,91.9V94h0.1c0,0,0.1,0,0.1,0c0,0,0,0,0.1-0.1l0.8-0.9c0,0,0-0.1,0.1-0.1c0,0,0.1,0,0.1,0h0.4
									l-0.9,1c0,0.1-0.1,0.1-0.1,0.1c0,0,0.1,0,0.1,0.1s0,0.1,0.1,0.1l1,1.2h-0.4c0,0-0.1,0-0.1,0c0,0-0.1,0-0.1-0.1l-0.8-1
									c0,0,0-0.1-0.1-0.1c0,0-0.1,0-0.1,0h-0.1v1.2h-0.4v-3.7H175.2z"/>
								<path class="st3" d="M178,95.6c-0.2,0-0.4-0.1-0.5-0.2s-0.2-0.3-0.2-0.5v-1.6h-0.3c0,0,0,0-0.1,0c0,0,0,0,0-0.1v-0.2
									l0.4-0.1l0.1-0.8c0,0,0,0,0-0.1s0,0,0.1,0h0.2v0.9h0.7v0.3h-0.7v1.5c0,0.1,0,0.2,0.1,0.2c0.1,0.1,0.1,0.1,0.2,0.1
									c0,0,0.1,0,0.1,0c0,0,0.1,0,0.1,0c0,0,0,0,0.1,0s0,0,0,0c0,0,0,0,0.1,0l0.1,0.2c-0.1,0.1-0.2,0.1-0.3,0.2
									S178.1,95.6,178,95.6z"/>
								<path class="st3" d="M180.1,93c0.2,0,0.4,0,0.5,0.1c0.1,0.1,0.3,0.2,0.4,0.3c0.1,0.1,0.2,0.2,0.2,0.4
									c0.1,0.2,0.1,0.3,0.1,0.5c0,0.2,0,0.4-0.1,0.5s-0.1,0.3-0.2,0.4c-0.1,0.1-0.2,0.2-0.4,0.3c-0.1,0.1-0.3,0.1-0.5,0.1
									c-0.2,0-0.4,0-0.5-0.1c-0.1-0.1-0.3-0.1-0.4-0.3c-0.1-0.1-0.2-0.2-0.2-0.4c-0.1-0.2-0.1-0.3-0.1-0.5c0-0.2,0-0.4,0.1-0.5
									c0.1-0.2,0.1-0.3,0.2-0.4c0.1-0.1,0.2-0.2,0.4-0.3C179.8,93,179.9,93,180.1,93z M180.1,95.2c0.2,0,0.4-0.1,0.6-0.2
									c0.1-0.2,0.2-0.4,0.2-0.7c0-0.3-0.1-0.5-0.2-0.7c-0.1-0.2-0.3-0.3-0.6-0.3c-0.1,0-0.2,0-0.3,0.1c-0.1,0-0.2,0.1-0.2,0.2
									c-0.1,0.1-0.1,0.2-0.1,0.3c0,0.1,0,0.3,0,0.4c0,0.3,0.1,0.5,0.2,0.7C179.7,95.1,179.9,95.2,180.1,95.2z"/>
								<path class="st3" d="M182.3,93.4c0.1-0.1,0.2-0.2,0.4-0.3c0.1-0.1,0.3-0.1,0.5-0.1c0.1,0,0.3,0,0.4,0.1
									c0.1,0.1,0.2,0.1,0.3,0.2s0.1,0.2,0.2,0.4s0.1,0.3,0.1,0.6c0,0.2,0,0.4-0.1,0.5c-0.1,0.2-0.1,0.3-0.2,0.4
									c-0.1,0.1-0.2,0.2-0.3,0.3c-0.1,0.1-0.3,0.1-0.5,0.1c-0.2,0-0.3,0-0.4-0.1c-0.1-0.1-0.2-0.1-0.3-0.2v1.1h-0.4V93h0.3
									c0.1,0,0.1,0,0.1,0.1L182.3,93.4z M182.3,94.9c0.1,0.1,0.2,0.2,0.3,0.2s0.2,0.1,0.3,0.1c0.2,0,0.4-0.1,0.5-0.3
									c0.1-0.2,0.2-0.4,0.2-0.7c0-0.2,0-0.3,0-0.4c0-0.1-0.1-0.2-0.1-0.3c-0.1-0.1-0.1-0.1-0.2-0.2s-0.2-0.1-0.3-0.1
									c-0.1,0-0.3,0-0.4,0.1c-0.1,0.1-0.2,0.2-0.3,0.3V94.9z"/>
								<path class="st3" d="M189.3,93l-0.8,2.5h-0.4c0,0-0.1,0-0.1-0.1l-0.6-1.7c0,0,0-0.1,0-0.1s0-0.1,0-0.1c0,0,0,0.1,0,0.1
									c0,0,0,0.1,0,0.1l-0.6,1.7c0,0.1,0,0.1-0.1,0.1h-0.3l-0.8-2.5h0.3c0,0,0.1,0,0.1,0c0,0,0,0,0,0.1l0.5,1.6
									c0,0.1,0.1,0.2,0.1,0.3c0-0.1,0-0.1,0-0.2s0-0.1,0.1-0.2l0.5-1.6c0,0,0,0,0-0.1c0,0,0,0,0.1,0h0.2c0,0,0.1,0,0.1,0
									c0,0,0,0,0,0.1l0.5,1.6c0,0.1,0,0.1,0,0.2c0,0.1,0,0.1,0,0.2c0-0.1,0-0.1,0-0.2c0-0.1,0-0.1,0-0.2l0.5-1.6c0,0,0,0,0-0.1
									s0.1,0,0.1,0H189.3z"/>
								<path class="st3" d="M191.8,95.2c-0.1,0.1-0.1,0.1-0.2,0.2c-0.1,0.1-0.2,0.1-0.2,0.1c-0.1,0-0.2,0.1-0.3,0.1
									c-0.1,0-0.2,0-0.3,0c-0.2,0-0.3,0-0.5-0.1c-0.1-0.1-0.3-0.1-0.4-0.3c-0.1-0.1-0.2-0.3-0.3-0.4c-0.1-0.2-0.1-0.4-0.1-0.6
									c0-0.2,0-0.3,0.1-0.5c0.1-0.2,0.1-0.3,0.2-0.4s0.2-0.2,0.4-0.3c0.1-0.1,0.3-0.1,0.5-0.1c0.2,0,0.3,0,0.4,0.1
									s0.2,0.1,0.3,0.2s0.2,0.2,0.2,0.4c0.1,0.1,0.1,0.3,0.1,0.5c0,0.1,0,0.1,0,0.1c0,0,0,0-0.1,0H190c0,0.2,0,0.3,0.1,0.4
									c0,0.1,0.1,0.2,0.2,0.3c0.1,0.1,0.2,0.1,0.2,0.2s0.2,0.1,0.3,0.1c0.1,0,0.2,0,0.3,0s0.2-0.1,0.2-0.1c0.1,0,0.1-0.1,0.1-0.1
									c0,0,0.1,0,0.1,0c0,0,0.1,0,0.1,0L191.8,95.2z M191.4,94c0-0.1,0-0.2,0-0.3s-0.1-0.2-0.1-0.2c-0.1-0.1-0.1-0.1-0.2-0.1
									c-0.1,0-0.2-0.1-0.3-0.1c-0.2,0-0.4,0.1-0.5,0.2c-0.1,0.1-0.2,0.3-0.2,0.5H191.4z"/>
								<path class="st3" d="M192.8,93.4c0.1-0.1,0.2-0.2,0.4-0.3c0.1-0.1,0.3-0.1,0.5-0.1c0.1,0,0.3,0,0.4,0.1s0.2,0.1,0.3,0.2
									c0.1,0.1,0.1,0.2,0.2,0.4c0,0.2,0.1,0.3,0.1,0.5c0,0.2,0,0.4-0.1,0.6c-0.1,0.2-0.1,0.3-0.2,0.4c-0.1,0.1-0.2,0.2-0.3,0.3
									c-0.1,0.1-0.3,0.1-0.5,0.1c-0.2,0-0.3,0-0.4-0.1s-0.2-0.2-0.3-0.3l0,0.2c0,0.1-0.1,0.1-0.1,0.1h-0.3v-3.7h0.4V93.4z
									 M192.8,94.9c0.1,0.1,0.2,0.2,0.3,0.2s0.2,0.1,0.3,0.1c0.2,0,0.4-0.1,0.5-0.3c0.1-0.2,0.2-0.4,0.2-0.8
									c0-0.3-0.1-0.5-0.2-0.7c-0.1-0.1-0.3-0.2-0.5-0.2c-0.1,0-0.3,0-0.4,0.1s-0.2,0.2-0.3,0.3V94.9z"/>
								<path class="st3" d="M196.7,93.4C196.6,93.5,196.6,93.5,196.7,93.4c-0.1,0.1-0.1,0-0.2,0c0,0-0.1,0-0.1-0.1
									c0,0-0.1,0-0.2-0.1c-0.1,0-0.1,0-0.2,0c-0.1,0-0.1,0-0.2,0c-0.1,0-0.1,0-0.2,0.1c0,0-0.1,0.1-0.1,0.1s0,0.1,0,0.1
									c0,0.1,0,0.1,0.1,0.2c0,0,0.1,0.1,0.1,0.1c0.1,0,0.1,0.1,0.2,0.1c0.1,0,0.2,0.1,0.2,0.1c0.1,0,0.2,0.1,0.2,0.1
									s0.1,0.1,0.2,0.1c0.1,0,0.1,0.1,0.1,0.2c0,0.1,0.1,0.2,0.1,0.3c0,0.1,0,0.2-0.1,0.3s-0.1,0.2-0.2,0.3
									c-0.1,0.1-0.2,0.1-0.3,0.2c-0.1,0-0.3,0.1-0.4,0.1c-0.2,0-0.3,0-0.5-0.1c-0.1-0.1-0.3-0.1-0.4-0.2l0.1-0.2c0,0,0,0,0,0
									c0,0,0,0,0.1,0c0,0,0.1,0,0.1,0c0,0,0.1,0,0.1,0.1c0,0,0.1,0.1,0.2,0.1s0.2,0,0.3,0c0.1,0,0.2,0,0.2,0
									c0.1,0,0.1-0.1,0.2-0.1s0.1-0.1,0.1-0.1c0-0.1,0-0.1,0-0.2c0-0.1,0-0.1-0.1-0.2c0,0-0.1-0.1-0.1-0.1c-0.1,0-0.1-0.1-0.2-0.1
									c-0.1,0-0.2,0-0.2-0.1c-0.1,0-0.2-0.1-0.2-0.1c-0.1,0-0.2-0.1-0.2-0.1c-0.1-0.1-0.1-0.1-0.1-0.2s-0.1-0.2-0.1-0.3
									c0-0.1,0-0.2,0.1-0.3c0-0.1,0.1-0.2,0.2-0.2c0.1-0.1,0.2-0.1,0.3-0.2c0.1,0,0.2-0.1,0.4-0.1c0.2,0,0.3,0,0.4,0.1
									c0.1,0.1,0.2,0.1,0.3,0.2L196.7,93.4z"/>
								<path class="st3" d="M197.9,92.2c0,0,0,0.1,0,0.1c0,0,0,0.1-0.1,0.1s-0.1,0.1-0.1,0.1c0,0-0.1,0-0.1,0s-0.1,0-0.1,0
									c0,0-0.1,0-0.1-0.1s-0.1-0.1-0.1-0.1c0,0,0-0.1,0-0.1c0,0,0-0.1,0-0.1s0-0.1,0.1-0.1s0.1-0.1,0.1-0.1c0,0,0.1,0,0.1,0
									s0.1,0,0.1,0c0,0,0.1,0,0.1,0.1s0.1,0.1,0.1,0.1S197.9,92.2,197.9,92.2z M197.8,93v2.5h-0.4V93H197.8z"/>
								<path class="st3" d="M199.3,95.6c-0.2,0-0.4-0.1-0.5-0.2c-0.1-0.1-0.2-0.3-0.2-0.5v-1.6h-0.3c0,0,0,0-0.1,0s0,0,0-0.1v-0.2
									l0.4-0.1l0.1-0.8c0,0,0,0,0-0.1s0,0,0.1,0h0.2v0.9h0.7v0.3h-0.7v1.5c0,0.1,0,0.2,0.1,0.2c0.1,0.1,0.1,0.1,0.2,0.1
									c0,0,0.1,0,0.1,0c0,0,0.1,0,0.1,0c0,0,0,0,0.1,0s0,0,0,0c0,0,0,0,0.1,0l0.1,0.2c-0.1,0.1-0.2,0.1-0.3,0.2
									S199.4,95.6,199.3,95.6z"/>
								<path class="st3" d="M202.4,95.2c-0.1,0.1-0.1,0.1-0.2,0.2c-0.1,0.1-0.2,0.1-0.2,0.1c-0.1,0-0.2,0.1-0.3,0.1
									c-0.1,0-0.2,0-0.3,0c-0.2,0-0.3,0-0.5-0.1c-0.1-0.1-0.3-0.1-0.4-0.3c-0.1-0.1-0.2-0.3-0.3-0.4c-0.1-0.2-0.1-0.4-0.1-0.6
									c0-0.2,0-0.3,0.1-0.5c0.1-0.2,0.1-0.3,0.2-0.4s0.2-0.2,0.4-0.3c0.1-0.1,0.3-0.1,0.5-0.1c0.2,0,0.3,0,0.4,0.1
									s0.2,0.1,0.3,0.2s0.2,0.2,0.2,0.4c0.1,0.1,0.1,0.3,0.1,0.5c0,0.1,0,0.1,0,0.1c0,0,0,0-0.1,0h-1.7c0,0.2,0,0.3,0.1,0.4
									c0,0.1,0.1,0.2,0.2,0.3c0.1,0.1,0.2,0.1,0.2,0.2s0.2,0.1,0.3,0.1c0.1,0,0.2,0,0.3,0s0.2-0.1,0.2-0.1c0.1,0,0.1-0.1,0.1-0.1
									c0,0,0.1,0,0.1,0c0,0,0.1,0,0.1,0L202.4,95.2z M202,94c0-0.1,0-0.2,0-0.3s-0.1-0.2-0.1-0.2c-0.1-0.1-0.1-0.1-0.2-0.1
									c-0.1,0-0.2-0.1-0.3-0.1c-0.2,0-0.4,0.1-0.5,0.2c-0.1,0.1-0.2,0.3-0.2,0.5H202z"/>
							</g>
							<g class="st13">
								<path class="st3" d="M151.8,103l-1.1,3.6h-0.4l-0.9-2.7c0,0,0-0.1,0-0.1c0,0,0-0.1,0-0.1c0,0,0,0.1,0,0.1c0,0,0,0.1,0,0.1
									l-0.9,2.7h-0.4l-1.1-3.6h0.4c0,0,0.1,0,0.1,0s0,0,0.1,0.1l0.7,2.5c0,0,0,0.1,0,0.1s0,0.1,0,0.2c0-0.1,0-0.1,0-0.2
									s0-0.1,0-0.1l0.8-2.5c0,0,0-0.1,0.1-0.1c0,0,0.1,0,0.1,0h0.1c0,0,0.1,0,0.1,0s0,0,0.1,0.1l0.8,2.5c0,0,0,0.1,0,0.1
									c0,0.1,0,0.1,0,0.2c0-0.1,0-0.1,0-0.2c0,0,0-0.1,0-0.1l0.7-2.5c0,0,0-0.1,0.1-0.1s0.1,0,0.1,0H151.8z"/>
								<path class="st3" d="M154,106.2c-0.1,0.1-0.1,0.1-0.2,0.2c-0.1,0.1-0.2,0.1-0.2,0.1c-0.1,0-0.2,0.1-0.3,0.1
									c-0.1,0-0.2,0-0.3,0c-0.2,0-0.3,0-0.5-0.1c-0.1-0.1-0.3-0.1-0.4-0.3c-0.1-0.1-0.2-0.3-0.3-0.4c-0.1-0.2-0.1-0.4-0.1-0.6
									c0-0.2,0-0.3,0.1-0.5c0.1-0.2,0.1-0.3,0.2-0.4s0.2-0.2,0.4-0.3c0.1-0.1,0.3-0.1,0.5-0.1c0.2,0,0.3,0,0.4,0.1
									c0.1,0.1,0.2,0.1,0.3,0.2c0.1,0.1,0.2,0.2,0.2,0.4c0.1,0.1,0.1,0.3,0.1,0.5c0,0.1,0,0.1,0,0.1s0,0-0.1,0h-1.7
									c0,0.2,0,0.3,0.1,0.4c0,0.1,0.1,0.2,0.2,0.3c0.1,0.1,0.2,0.1,0.2,0.2s0.2,0.1,0.3,0.1c0.1,0,0.2,0,0.3,0s0.2-0.1,0.2-0.1
									c0.1,0,0.1-0.1,0.1-0.1c0,0,0.1,0,0.1,0c0,0,0.1,0,0.1,0L154,106.2z M153.7,105c0-0.1,0-0.2,0-0.3c0-0.1-0.1-0.2-0.1-0.2
									s-0.1-0.1-0.2-0.1c-0.1,0-0.2-0.1-0.3-0.1c-0.2,0-0.4,0.1-0.5,0.2c-0.1,0.1-0.2,0.3-0.2,0.5H153.7z"/>
								<path class="st3" d="M155.1,104.4c0.1-0.1,0.2-0.2,0.4-0.3c0.1-0.1,0.3-0.1,0.5-0.1c0.1,0,0.3,0,0.4,0.1s0.2,0.1,0.3,0.2
									s0.1,0.2,0.2,0.4c0,0.2,0.1,0.3,0.1,0.5c0,0.2,0,0.4-0.1,0.6s-0.1,0.3-0.2,0.4c-0.1,0.1-0.2,0.2-0.3,0.3
									c-0.1,0.1-0.3,0.1-0.5,0.1c-0.2,0-0.3,0-0.4-0.1s-0.2-0.2-0.3-0.3l0,0.2c0,0.1-0.1,0.1-0.1,0.1h-0.3v-3.7h0.4V104.4z
									 M155.1,105.9c0.1,0.1,0.2,0.2,0.3,0.2c0.1,0,0.2,0.1,0.3,0.1c0.2,0,0.4-0.1,0.5-0.3c0.1-0.2,0.2-0.4,0.2-0.8
									c0-0.3-0.1-0.5-0.2-0.7s-0.3-0.2-0.5-0.2c-0.1,0-0.3,0-0.4,0.1s-0.2,0.2-0.3,0.3V105.9z"/>
								<path class="st3" d="M158.9,104.4C158.9,104.5,158.8,104.5,158.9,104.4c-0.1,0.1-0.1,0-0.2,0c0,0-0.1,0-0.1-0.1
									c0,0-0.1,0-0.2-0.1s-0.1,0-0.2,0c-0.1,0-0.1,0-0.2,0c-0.1,0-0.1,0-0.2,0.1c0,0-0.1,0.1-0.1,0.1s0,0.1,0,0.1
									c0,0.1,0,0.1,0.1,0.2c0,0,0.1,0.1,0.1,0.1c0.1,0,0.1,0.1,0.2,0.1c0.1,0,0.2,0.1,0.2,0.1c0.1,0,0.2,0.1,0.2,0.1
									c0.1,0,0.1,0.1,0.2,0.1c0.1,0,0.1,0.1,0.1,0.2s0.1,0.2,0.1,0.3c0,0.1,0,0.2-0.1,0.3c0,0.1-0.1,0.2-0.2,0.3s-0.2,0.1-0.3,0.2
									c-0.1,0-0.3,0.1-0.4,0.1c-0.2,0-0.3,0-0.5-0.1c-0.1-0.1-0.3-0.1-0.4-0.2l0.1-0.2c0,0,0,0,0,0s0,0,0.1,0c0,0,0.1,0,0.1,0
									s0.1,0,0.1,0.1c0,0,0.1,0.1,0.2,0.1s0.2,0,0.3,0c0.1,0,0.2,0,0.2,0c0.1,0,0.1-0.1,0.2-0.1c0,0,0.1-0.1,0.1-0.1s0-0.1,0-0.2
									c0-0.1,0-0.1-0.1-0.2c0,0-0.1-0.1-0.1-0.1s-0.1-0.1-0.2-0.1c-0.1,0-0.2,0-0.2-0.1c-0.1,0-0.2-0.1-0.2-0.1
									c-0.1,0-0.1-0.1-0.2-0.1c-0.1-0.1-0.1-0.1-0.1-0.2c0-0.1-0.1-0.2-0.1-0.3c0-0.1,0-0.2,0.1-0.3c0-0.1,0.1-0.2,0.2-0.2
									c0.1-0.1,0.2-0.1,0.3-0.2c0.1,0,0.2-0.1,0.4-0.1c0.2,0,0.3,0,0.4,0.1c0.1,0.1,0.2,0.1,0.3,0.2L158.9,104.4z"/>
								<path class="st3" d="M160.1,103.2c0,0,0,0.1,0,0.1c0,0,0,0.1-0.1,0.1s-0.1,0.1-0.1,0.1c0,0-0.1,0-0.1,0c0,0-0.1,0-0.1,0
									c0,0-0.1,0-0.1-0.1s-0.1-0.1-0.1-0.1c0,0,0-0.1,0-0.1c0,0,0-0.1,0-0.1s0-0.1,0.1-0.1s0.1-0.1,0.1-0.1c0,0,0.1,0,0.1,0
									c0,0,0.1,0,0.1,0c0,0,0.1,0,0.1,0.1s0.1,0.1,0.1,0.1S160.1,103.2,160.1,103.2z M160,104v2.5h-0.4V104H160z"/>
								<path class="st3" d="M161.5,106.6c-0.2,0-0.4-0.1-0.5-0.2s-0.2-0.3-0.2-0.5v-1.6h-0.3c0,0,0,0-0.1,0c0,0,0,0,0-0.1v-0.2
									l0.4-0.1l0.1-0.8c0,0,0,0,0-0.1s0,0,0.1,0h0.2v0.9h0.7v0.3h-0.7v1.5c0,0.1,0,0.2,0.1,0.2c0.1,0.1,0.1,0.1,0.2,0.1
									c0,0,0.1,0,0.1,0c0,0,0.1,0,0.1,0c0,0,0,0,0.1,0s0,0,0,0c0,0,0,0,0.1,0l0.1,0.2c-0.1,0.1-0.2,0.1-0.3,0.2
									S161.7,106.6,161.5,106.6z"/>
								<path class="st3" d="M164.6,106.2c-0.1,0.1-0.1,0.1-0.2,0.2c-0.1,0.1-0.2,0.1-0.2,0.1c-0.1,0-0.2,0.1-0.3,0.1
									c-0.1,0-0.2,0-0.3,0c-0.2,0-0.3,0-0.5-0.1c-0.1-0.1-0.3-0.1-0.4-0.3c-0.1-0.1-0.2-0.3-0.3-0.4c-0.1-0.2-0.1-0.4-0.1-0.6
									c0-0.2,0-0.3,0.1-0.5c0.1-0.2,0.1-0.3,0.2-0.4s0.2-0.2,0.4-0.3c0.1-0.1,0.3-0.1,0.5-0.1c0.2,0,0.3,0,0.4,0.1
									c0.1,0.1,0.2,0.1,0.3,0.2c0.1,0.1,0.2,0.2,0.2,0.4c0.1,0.1,0.1,0.3,0.1,0.5c0,0.1,0,0.1,0,0.1s0,0-0.1,0h-1.7
									c0,0.2,0,0.3,0.1,0.4c0,0.1,0.1,0.2,0.2,0.3c0.1,0.1,0.2,0.1,0.2,0.2s0.2,0.1,0.3,0.1c0.1,0,0.2,0,0.3,0s0.2-0.1,0.2-0.1
									c0.1,0,0.1-0.1,0.1-0.1c0,0,0.1,0,0.1,0c0,0,0.1,0,0.1,0L164.6,106.2z M164.2,105c0-0.1,0-0.2,0-0.3c0-0.1-0.1-0.2-0.1-0.2
									s-0.1-0.1-0.2-0.1c-0.1,0-0.2-0.1-0.3-0.1c-0.2,0-0.4,0.1-0.5,0.2c-0.1,0.1-0.2,0.3-0.2,0.5H164.2z"/>
								<path class="st3" d="M168.4,103.5C168.4,103.5,168.4,103.6,168.4,103.5c-0.1,0.1-0.1,0.1-0.1,0.1c0,0-0.1,0-0.1,0
									c0,0-0.1-0.1-0.1-0.1c-0.1,0-0.1-0.1-0.2-0.1c-0.1,0-0.2,0-0.3,0c-0.1,0-0.2,0-0.3,0c-0.1,0-0.2,0.1-0.2,0.1
									c-0.1,0-0.1,0.1-0.1,0.2s0,0.1,0,0.2c0,0.1,0,0.2,0.1,0.2c0,0.1,0.1,0.1,0.2,0.2c0.1,0,0.2,0.1,0.3,0.1
									c0.1,0,0.2,0.1,0.3,0.1c0.1,0,0.2,0.1,0.3,0.1c0.1,0,0.2,0.1,0.3,0.2c0.1,0.1,0.1,0.2,0.2,0.3c0,0.1,0.1,0.2,0.1,0.4
									c0,0.2,0,0.3-0.1,0.4c-0.1,0.1-0.1,0.3-0.2,0.4s-0.2,0.2-0.4,0.2s-0.3,0.1-0.5,0.1c-0.2,0-0.4,0-0.6-0.1
									c-0.2-0.1-0.4-0.2-0.5-0.3l0.1-0.2c0,0,0,0,0,0s0,0,0.1,0c0,0,0,0,0.1,0s0.1,0,0.1,0.1c0,0,0.1,0.1,0.1,0.1
									c0,0,0.1,0.1,0.2,0.1c0.1,0,0.1,0,0.2,0.1s0.2,0,0.2,0c0.1,0,0.2,0,0.3,0c0.1,0,0.2-0.1,0.2-0.1c0.1-0.1,0.1-0.1,0.1-0.2
									s0-0.2,0-0.3c0-0.1,0-0.2-0.1-0.3c0-0.1-0.1-0.1-0.2-0.2s-0.2-0.1-0.3-0.1c-0.1,0-0.2-0.1-0.3-0.1c-0.1,0-0.2-0.1-0.3-0.1
									c-0.1,0-0.2-0.1-0.3-0.2c-0.1-0.1-0.1-0.2-0.2-0.3c0-0.1-0.1-0.2-0.1-0.4c0-0.1,0-0.2,0.1-0.4c0-0.1,0.1-0.2,0.2-0.3
									c0.1-0.1,0.2-0.2,0.3-0.2c0.1-0.1,0.3-0.1,0.5-0.1c0.2,0,0.4,0,0.5,0.1c0.2,0.1,0.3,0.2,0.4,0.3L168.4,103.5z"/>
								<path class="st3" d="M171.2,106.2c-0.1,0.1-0.1,0.1-0.2,0.2c-0.1,0.1-0.2,0.1-0.2,0.1c-0.1,0-0.2,0.1-0.3,0.1
									c-0.1,0-0.2,0-0.3,0c-0.2,0-0.3,0-0.5-0.1c-0.1-0.1-0.3-0.1-0.4-0.3c-0.1-0.1-0.2-0.3-0.3-0.4c-0.1-0.2-0.1-0.4-0.1-0.6
									c0-0.2,0-0.3,0.1-0.5c0.1-0.2,0.1-0.3,0.2-0.4s0.2-0.2,0.4-0.3c0.1-0.1,0.3-0.1,0.5-0.1c0.2,0,0.3,0,0.4,0.1
									s0.2,0.1,0.3,0.2s0.2,0.2,0.2,0.4c0.1,0.1,0.1,0.3,0.1,0.5c0,0.1,0,0.1,0,0.1c0,0,0,0-0.1,0h-1.7c0,0.2,0,0.3,0.1,0.4
									c0,0.1,0.1,0.2,0.2,0.3c0.1,0.1,0.2,0.1,0.2,0.2s0.2,0.1,0.3,0.1c0.1,0,0.2,0,0.3,0s0.2-0.1,0.2-0.1c0.1,0,0.1-0.1,0.1-0.1
									c0,0,0.1,0,0.1,0c0,0,0.1,0,0.1,0L171.2,106.2z M170.9,105c0-0.1,0-0.2,0-0.3s-0.1-0.2-0.1-0.2c-0.1-0.1-0.1-0.1-0.2-0.1
									c-0.1,0-0.2-0.1-0.3-0.1c-0.2,0-0.4,0.1-0.5,0.2c-0.1,0.1-0.2,0.3-0.2,0.5H170.9z"/>
								<path class="st3" d="M172.6,106.6c-0.2,0-0.4-0.1-0.5-0.2c-0.1-0.1-0.2-0.3-0.2-0.5v-1.6h-0.3c0,0,0,0-0.1,0s0,0,0-0.1v-0.2
									l0.4-0.1l0.1-0.8c0,0,0,0,0-0.1s0,0,0.1,0h0.2v0.9h0.7v0.3h-0.7v1.5c0,0.1,0,0.2,0.1,0.2c0.1,0.1,0.1,0.1,0.2,0.1
									c0,0,0.1,0,0.1,0c0,0,0.1,0,0.1,0c0,0,0,0,0.1,0s0,0,0,0c0,0,0,0,0.1,0l0.1,0.2c-0.1,0.1-0.2,0.1-0.3,0.2
									S172.7,106.6,172.6,106.6z"/>
								<path class="st3" d="M174,104.4c0.1-0.1,0.1-0.1,0.2-0.2c0.1-0.1,0.1-0.1,0.2-0.1c0.1,0,0.1-0.1,0.2-0.1c0.1,0,0.2,0,0.3,0
									c0.1,0,0.3,0,0.4,0.1c0.1,0,0.2,0.1,0.3,0.2c0.1,0.1,0.1,0.2,0.2,0.3c0,0.1,0.1,0.2,0.1,0.4v1.6h-0.4v-1.6
									c0-0.2,0-0.3-0.1-0.4c-0.1-0.1-0.2-0.2-0.4-0.2c-0.1,0-0.3,0-0.4,0.1c-0.1,0.1-0.2,0.1-0.3,0.3v1.9h-0.4V104h0.3
									c0.1,0,0.1,0,0.1,0.1L174,104.4z"/>
								<path class="st3" d="M178.5,104.1v0.2c0,0.1,0,0.1-0.1,0.1l-0.3,0c0.1,0.1,0.1,0.2,0.1,0.4c0,0.1,0,0.2-0.1,0.3
									c0,0.1-0.1,0.2-0.2,0.3c-0.1,0.1-0.2,0.1-0.3,0.2c-0.1,0-0.2,0.1-0.4,0.1c-0.1,0-0.2,0-0.3,0c-0.1,0-0.1,0.1-0.1,0.1
									c0,0,0,0.1,0,0.1c0,0.1,0,0.1,0.1,0.1c0,0,0.1,0.1,0.2,0.1s0.2,0,0.3,0s0.2,0,0.3,0c0.1,0,0.2,0,0.3,0c0.1,0,0.2,0,0.3,0.1
									c0.1,0,0.1,0.1,0.2,0.2c0,0.1,0.1,0.2,0.1,0.3c0,0.1,0,0.2-0.1,0.3c-0.1,0.1-0.1,0.2-0.2,0.3c-0.1,0.1-0.2,0.1-0.4,0.2
									s-0.3,0.1-0.5,0.1s-0.3,0-0.5-0.1c-0.1,0-0.3-0.1-0.3-0.1c-0.1-0.1-0.2-0.1-0.2-0.2c0-0.1-0.1-0.2-0.1-0.3
									c0-0.1,0-0.2,0.1-0.3c0.1-0.1,0.2-0.2,0.3-0.2c-0.1,0-0.1-0.1-0.2-0.1c0-0.1-0.1-0.1-0.1-0.2c0,0,0-0.1,0-0.1
									c0,0,0-0.1,0.1-0.1c0,0,0.1-0.1,0.1-0.1s0.1-0.1,0.1-0.1c-0.1-0.1-0.2-0.2-0.3-0.3s-0.1-0.2-0.1-0.4c0-0.1,0-0.2,0.1-0.3
									c0-0.1,0.1-0.2,0.2-0.3s0.2-0.1,0.3-0.2c0.1,0,0.2-0.1,0.4-0.1c0.1,0,0.2,0,0.3,0c0.1,0,0.2,0.1,0.3,0.1H178.5z
									 M178.1,106.7c0-0.1,0-0.1-0.1-0.2c0,0-0.1-0.1-0.1-0.1c-0.1,0-0.1,0-0.2,0c-0.1,0-0.2,0-0.2,0c-0.1,0-0.2,0-0.3,0
									c-0.1,0-0.2,0-0.3,0c-0.1,0-0.2,0.1-0.2,0.2c-0.1,0.1-0.1,0.1-0.1,0.2c0,0.1,0,0.1,0,0.2c0,0,0.1,0.1,0.1,0.1
									c0.1,0,0.1,0.1,0.2,0.1s0.2,0,0.3,0c0.1,0,0.2,0,0.3,0c0.1,0,0.2-0.1,0.2-0.1c0.1,0,0.1-0.1,0.2-0.1
									C178,106.8,178.1,106.7,178.1,106.7z M177.3,105.3c0.1,0,0.2,0,0.2,0c0.1,0,0.1-0.1,0.2-0.1s0.1-0.1,0.1-0.2s0-0.1,0-0.2
									c0-0.2,0-0.3-0.1-0.4s-0.2-0.1-0.4-0.1c-0.2,0-0.3,0-0.4,0.1c-0.1,0.1-0.1,0.2-0.1,0.4c0,0.1,0,0.1,0,0.2
									c0,0.1,0.1,0.1,0.1,0.2c0,0,0.1,0.1,0.2,0.1C177.1,105.3,177.2,105.3,177.3,105.3z"/>
								<path class="st3" d="M180.4,104.4C180.4,104.5,180.4,104.5,180.4,104.4c-0.1,0.1-0.1,0-0.2,0c0,0-0.1,0-0.1-0.1
									c0,0-0.1,0-0.2-0.1s-0.1,0-0.2,0c-0.1,0-0.1,0-0.2,0c-0.1,0-0.1,0-0.2,0.1c0,0-0.1,0.1-0.1,0.1s0,0.1,0,0.1
									c0,0.1,0,0.1,0.1,0.2c0,0,0.1,0.1,0.1,0.1c0.1,0,0.1,0.1,0.2,0.1c0.1,0,0.2,0.1,0.2,0.1c0.1,0,0.2,0.1,0.2,0.1
									c0.1,0,0.1,0.1,0.2,0.1c0.1,0,0.1,0.1,0.1,0.2s0.1,0.2,0.1,0.3c0,0.1,0,0.2-0.1,0.3c0,0.1-0.1,0.2-0.2,0.3s-0.2,0.1-0.3,0.2
									c-0.1,0-0.3,0.1-0.4,0.1c-0.2,0-0.3,0-0.5-0.1c-0.1-0.1-0.3-0.1-0.4-0.2l0.1-0.2c0,0,0,0,0,0s0,0,0.1,0c0,0,0.1,0,0.1,0
									s0.1,0,0.1,0.1c0,0,0.1,0.1,0.2,0.1s0.2,0,0.3,0c0.1,0,0.2,0,0.2,0c0.1,0,0.1-0.1,0.2-0.1c0,0,0.1-0.1,0.1-0.1s0-0.1,0-0.2
									c0-0.1,0-0.1-0.1-0.2c0,0-0.1-0.1-0.1-0.1s-0.1-0.1-0.2-0.1c-0.1,0-0.2,0-0.2-0.1c-0.1,0-0.2-0.1-0.2-0.1
									c-0.1,0-0.1-0.1-0.2-0.1c-0.1-0.1-0.1-0.1-0.1-0.2c0-0.1-0.1-0.2-0.1-0.3c0-0.1,0-0.2,0.1-0.3c0-0.1,0.1-0.2,0.2-0.2
									c0.1-0.1,0.2-0.1,0.3-0.2c0.1,0,0.2-0.1,0.4-0.1c0.2,0,0.3,0,0.4,0.1c0.1,0.1,0.2,0.1,0.3,0.2L180.4,104.4z"/>
							</g>
							<rect x="142" y="77.1" class="st15" width="76.9" height="11.7"/>
						</g>
						<g>
							<g>
								<text transform="matrix(1 0 0 1 146.5403 27.5905)" class="st11 st12">3:15</text>
								<path d="M155.3,28.1l-0.4-1.7l-1.7-0.4l3.6-1.5L155.3,28.1z M154.3,25.9l0.9,0.2l0.2,0.9l0.8-2L154.3,25.9z"/>
							</g>
							<g>
								<g>
									<rect x="225.2" y="25.2" width="1.8" height="1.8"/>
									<path d="M230.3,25.5v-0.8h-5.6v2.7h5.6v-0.8h0.5v-1.1C230.8,25.5,230.3,25.5,230.3,25.5z M230.6,26.4h-0.5v0.8H225v-2.3
										h5.1v0.8h0.5V26.4z"/>
								</g>
								<g>
									<path d="M221,26.6c-0.2,0-0.4,0.2-0.4,0.4c0,0.2,0.2,0.4,0.4,0.4s0.4-0.2,0.4-0.4C221.4,26.8,221.2,26.6,221,26.6z"/>
									<path d="M220,26.1c-0.1,0.1-0.1,0.3,0,0.4s0.3,0.1,0.4,0c0.3-0.3,0.9-0.3,1.2,0c0.1,0.1,0.1,0.1,0.2,0.1
										c0.1,0,0.1,0,0.2-0.1c0.1-0.1,0.1-0.3,0-0.4C221.5,25.6,220.6,25.6,220,26.1z"/>
									<path d="M222.6,25.4c-0.4-0.4-1-0.7-1.6-0.7s-1.2,0.2-1.6,0.7c-0.1,0.1-0.1,0.3,0,0.4s0.3,0.1,0.4,0c0.7-0.7,1.9-0.7,2.5,0
										c0.1,0.1,0.1,0.1,0.2,0.1c0.1,0,0.1,0,0.2-0.1C222.7,25.7,222.7,25.5,222.6,25.4z"/>
								</g>
								<g>
									<path d="M217.5,24.8c-0.1,0-0.2,0.1-0.2,0.2v2.1c0,0.1,0.1,0.2,0.2,0.2c0.1,0,0.2-0.1,0.2-0.2V25
										C217.7,24.9,217.6,24.8,217.5,24.8z"/>
									<path d="M216.6,25.4c-0.1,0-0.2,0.1-0.2,0.2V27c0,0.1,0.1,0.2,0.2,0.2s0.2-0.1,0.2-0.2v-1.4
										C216.8,25.5,216.7,25.4,216.6,25.4z"/>
									<path d="M215.7,25.9c-0.1,0-0.2,0.1-0.2,0.2V27c0,0.1,0.1,0.2,0.2,0.2c0.1,0,0.2-0.1,0.2-0.2v-0.9
										C215.9,26,215.8,25.9,215.7,25.9z"/>
									<path d="M214.7,26.2c-0.1,0-0.2,0.1-0.2,0.2v0.7c0,0.1,0.1,0.2,0.2,0.2c0.1,0,0.2-0.1,0.2-0.2v-0.7
										C215,26.3,214.9,26.2,214.7,26.2z"/>
								</g>
							</g>
						</g>
					</g>
					<g>
						<path class="st16" d="M277.1,215.8h-56.8c-2.7-1.8-16.9-11.5-22.7-18.7c-1.2-1.5-5.8-14.6-9.3-25.3
							c-2.2-6.7-3.9-12.4-4.2-13.7c-0.1-0.5-0.2-1.4-0.2-2.6l0,0c-0.1-4.4,0.1-12.8,0.3-19.4l0,0V136c0-0.3,0-0.6,0-0.9l0,0V135
							c0-1.2,0.1-2.3,0.1-3.2c0.1-2.5,0.2-4.4,0.2-5.1v-0.3l0,0c0.1-0.1,2.8-1.5,6.5,1.1c0.9,0.6,1.7,2.2,2.4,4.2
							c0.5,1.3,0.9,2.7,1.3,4.3c1.6,5.9,2.7,13.1,3.3,15c1,3.1,12.6,16.6,13.3,17.5l0,0v-21.4l-8.8-23.4l-3.6-9.6l-1.8-4.8
							c0,0-2.8-4.6-5.1-10c-1-2.4-2-5-2.5-7.4c-0.1-0.6-0.3-1.2-0.3-1.7l0,0c-0.3-2.1-0.4-4,0.1-5.5c0.8-2.8,2.8-3.3,4.2-3.2
							c0.2,0,0.3,0,0.4,0c0.1,0,0.3,0,0.4,0.1c0.3,0.1,0.5,0.2,0.7,0.3l0,0c0.4,0.2,0.7,0.5,1,0.9c0,0,1.2,1.6,2.9,3.8
							c1.1,1.4,2.4,3.1,3.6,4.7c2.2,2.9,4.2,5.5,4.8,6.3c3,4.2,11.1,18.1,11.1,18.1l9.5,0.4c1.5,0.1,2.9,0.7,4,1.7
							c3.4,3.2,10.7,10,11.6,11c0,0.3,5.7,3.1,10,5.5c3.1,1.3,9.1,6,9.1,6c1.2,1.1,2.2,2.2,2.6,3.2c2,4.4,7.6,43,10.2,62
							C276.5,211.4,277,215.5,277.1,215.8z"/>
						<path class="st17" d="M218.6,115.4c0,0,8.8,14.4,10,15s5.7,1.6,6.2,0C235.3,128.9,218.6,115.4,218.6,115.4z"/>
						<path class="st17" d="M262.8,140L262.8,140c0,0-6-4.7-9.1-6c-4-2.2-9.1-4.7-9.9-5.3c0.9,1.1,7.5,8.5,10,9
							C256,138.2,261.1,139.5,262.8,140z"/>
						<path class="st17" d="M211.5,168.4V147c0,0,5.1,8.5,5.5,13.2C217.3,164.9,214.8,172.4,211.5,168.4z"/>
						<path class="st18" d="M193,90c-0.7-1.3-2.1-3.6-2.5-4.9c-0.1-0.4-0.1-1.1,0.3-1.9c0.3-0.5,0.7-1,1.3-1.4
							c0.3-0.2,0.6-0.4,0.9-0.5c0.4-0.1,0.8-0.2,1.2-0.2s0.8,0.2,1,0.6l0,0c0.9,1.3,2,3,2.8,4.6c0.5,1.1,0.4,2.4-0.4,2.9l-0.4,0.3
							l-1.8,1.3C194.7,91.4,193.6,91,193,90z"/>
						<path class="st19" d="M193,90c-0.7-1.3-2.1-3.6-2.5-4.9c-0.1-0.4-0.1-1.1,0.3-1.9c0.1-0.1,0.2-0.2,0.4-0.3
							c0.3-0.2,0.6-0.4,0.9-0.5c0.4-0.1,0.8-0.2,1.2-0.2s0.8,0.2,1,0.6l0,0c0.9,1.3,2,3,2.8,4.6c0.3,0.7,0.4,1.5,0.2,2.1l-1.8,1.3
							C194.7,91.4,193.6,91,193,90z"/>
						<path class="st17" d="M248.6,207l-17,8.8h-11.3c-2.7-1.8-16.9-11.5-22.7-18.7c-1.2-1.5-5.8-14.6-9.3-25.3l0,0
							c0.5,1.4,10.2,22.1,13,24.5s17.3,16.1,21.3,15.9C226.5,212.1,247.2,207.3,248.6,207C248.5,207,248.5,207,248.6,207z"/>
						<path class="st3" d="M282.7,215.8h-61.1c3.1-1.2,14.8-5.7,27-8.8c0,0,0,0,0.1,0c10.4-2.6,21.2-4.2,27-1.8v0.1L282.7,215.8z"/>
						<path class="st17" d="M184.2,135.1L184.2,135.1c1-0.4,2.5-0.6,3.2,0.5c1.1,1.8-3,18-3.5,20L184.2,135.1z"/>
						<path class="st19" d="M184.5,126.4l-0.3,9.8c0,0,2.1,0.3,3.2-0.5C188.6,134.7,187.9,126.3,184.5,126.4z"/>
					</g>
				</g>
			</g>
		</g>
		<g>
			<g>
				<defs>
					<path id="SVGID_00000094581515540664422390000005232903857487682492_" d="M16,0h224c8.8,0,16,7.2,16,16v139c0,8.8-7.2,16-16,16
						H16c-8.8,0-16-7.2-16-16V16C0,7.2,7.2,0,16,0z"/>
				</defs>
				<clipPath id="SVGID_00000152252180754906142850000007322178826782070155_">
					<use xlink:href="#SVGID_00000094581515540664422390000005232903857487682492_"  style="overflow:visible;"/>
				</clipPath>
				<g style="clip-path:url(#SVGID_00000152252180754906142850000007322178826782070155_);">
					<path class="st16" d="M118.7,182.9H61.9c-2.7-1.8-16.9-11.5-22.7-18.7c-1.2-1.5-5.8-14.6-9.3-25.3c-2.2-6.7-3.9-12.4-4.2-13.7
						c-0.1-0.5-0.2-1.4-0.2-2.6l0,0c-0.1-4.4,0.1-12.8,0.3-19.4l0,0v-0.1c0-0.3,0-0.6,0-0.9l0,0v-0.1c0-1.2,0.1-2.3,0.1-3.2
						c0.1-2.5,0.2-4.4,0.2-5.1v-0.3l0,0c0.1-0.1,2.8-1.5,6.5,1.1c0.9,0.6,1.7,2.2,2.4,4.2c0.5,1.3,0.9,2.7,1.3,4.3
						c1.6,5.9,2.7,13.1,3.3,15c1,3.1,12.6,16.6,13.3,17.5l0,0v-21.4l-8.8-23.4l-3.6-9.6l-1.8-4.8c0,0-2.8-4.6-5.1-10
						c-1-2.4-2-5-2.5-7.4c-0.1-0.6-0.3-1.2-0.3-1.7l0,0c-0.3-2.1-0.4-4,0.1-5.5c0.8-2.8,2.8-3.3,4.2-3.2c0.2,0,0.3,0,0.4,0
						c0.1,0,0.3,0,0.4,0.1c0.3,0.1,0.5,0.2,0.7,0.3l0,0c0.4,0.2,0.7,0.5,1,0.9c0,0,1.2,1.6,2.9,3.8c1.1,1.4,2.4,3.1,3.6,4.7
						c2.2,2.9,4.2,5.5,4.8,6.3c3,4.2,11.1,18.1,11.1,18.1l9.5,0.4c1.5,0.1,2.9,0.7,4,1.7c3.4,3.2,10.7,10,11.6,11
						c0,0.3,5.7,3.1,10,5.5c3.1,1.3,9.1,6,9.1,6c1.2,1.1,2.2,2.2,2.6,3.2c2,4.4,7.6,43,10.2,62C118.1,178.4,118.6,182.5,118.7,182.9
						z"/>
					<path class="st17" d="M60.2,82.5c0,0,8.8,14.4,10,15s5.7,1.6,6.2,0C76.9,96,60.2,82.5,60.2,82.5z"/>
					<path class="st17" d="M104.4,107.1L104.4,107.1c0,0-6-4.7-9.1-6c-4-2.2-9.1-4.7-9.9-5.3c0.9,1.1,7.5,8.5,10,9
						C97.6,105.2,102.6,106.6,104.4,107.1z"/>
					<path class="st17" d="M53.1,135.5v-21.4c0,0,5.1,8.5,5.5,13.2C58.9,131.9,56.4,139.5,53.1,135.5z"/>
					<path class="st18" d="M34.6,57.1c-0.7-1.3-2.1-3.6-2.5-4.9c-0.1-0.4-0.1-1.1,0.3-1.9c0.3-0.5,0.7-1,1.3-1.4
						c0.3-0.2,0.6-0.4,0.9-0.5c0.4-0.1,0.8-0.2,1.2-0.2s0.8,0.2,1,0.6l0,0c0.9,1.3,2,3,2.8,4.6c0.5,1.1,0.4,2.4-0.4,2.9l-0.4,0.3
						L37,57.9C36.3,58.5,35.2,58.1,34.6,57.1z"/>
					<path class="st19" d="M34.6,57.1c-0.7-1.3-2.1-3.6-2.5-4.9c-0.1-0.4-0.1-1.1,0.3-1.9c0.1-0.1,0.2-0.2,0.4-0.3
						c0.3-0.2,0.6-0.4,0.9-0.5c0.4-0.1,0.8-0.2,1.2-0.2s0.8,0.2,1,0.6l0,0c0.9,1.3,2,3,2.8,4.6c0.3,0.7,0.4,1.5,0.2,2.1l-1.8,1.3
						C36.3,58.5,35.2,58.1,34.6,57.1z"/>
					<path class="st17" d="M90.2,174.1l-17,8.8H61.9c-2.7-1.8-16.9-11.5-22.7-18.7c-1.2-1.5-5.8-14.6-9.3-25.3l0,0
						c0.5,1.4,10.2,22.1,13,24.5s17.3,16.1,21.3,15.9C68.1,179.1,88.8,174.4,90.2,174.1C90.1,174.1,90.1,174.1,90.2,174.1z"/>
					<path class="st3" d="M124.3,182.9H63.2c3.1-1.2,14.8-5.7,27-8.8c0,0,0,0,0.1,0c10.4-2.6,21.2-4.2,27-1.8v0.1L124.3,182.9z"/>
					<path class="st17" d="M25.8,102.1L25.8,102.1c1-0.4,2.5-0.6,3.2,0.5c1.1,1.8-3,18-3.5,20L25.8,102.1z"/>
					<path class="st19" d="M26.1,93.4l-0.3,9.8c0,0,2.1,0.3,3.2-0.5C30.2,101.8,29.5,93.3,26.1,93.4z"/>
				</g>
			</g>
		</g>
	</g>
</g>
<polyline class="st21" points="104.6,121.5 104.6,73.5 152.6,73.5 152.6,121.5 "/>
<polyline class="st21" points="104.6,121.5 104.6,73.5 152.6,73.5 152.6,121.5 "/>
<polyline class="st21" points="104.6,121.5 104.6,73.5 152.6,73.5 152.6,121.5 "/>
<polyline class="st21" points="104.6,121.5 104.6,73.5 152.6,73.5 152.6,121.5 "/>
</svg>
