<svg width="264" height="180" viewBox="0 0 264 180" fill="none" xmlns="http://www.w3.org/2000/svg">
<rect x="8" y="9" width="256" height="171" rx="16" fill="#3267C1" fill-opacity="0.4"/>
<g clip-path="url(#clip0_874_482)">
<path d="M240 0H16C7.16344 0 0 7.16344 0 16V155C0 163.837 7.16344 171 16 171H240C248.837 171 256 163.837 256 155V16C256 7.16344 248.837 0 240 0Z" fill="#ABF6FF"/>
<mask id="mask0_874_482" style="mask-type:luminance" maskUnits="userSpaceOnUse" x="-20" y="-27" width="296" height="198">
<path d="M275.627 -26.5391H-19.2171V170.419H275.627V-26.5391Z" fill="white"/>
</mask>
<g mask="url(#mask0_874_482)">
<path d="M203.537 183.928L196.301 154.345C196.301 154.345 178.313 139.433 175.65 127.669L213.094 111.082L231.561 168.298L241.903 178.866L203.537 183.928Z" fill="#FEA58D"/>
<path d="M176.026 128.968H207.087L212.685 142.375C212.685 142.375 191.113 147.128 184.252 142.375C184.252 142.409 178.244 135.842 176.026 128.968Z" fill="url(#paint0_linear_874_482)"/>
<path d="M52.8384 183.928L60.0746 154.345C60.0746 154.345 78.0629 139.433 80.7253 127.669L43.281 111.082L24.8149 168.298L14.4384 178.866L52.8384 183.928Z" fill="#FEA58D"/>
<path d="M207.326 128.968H48.8448C47.2064 128.968 45.8752 127.634 45.8752 125.993V21.8196C45.8752 20.178 47.2064 18.8442 48.8448 18.8442H207.326C208.964 18.8442 210.295 20.178 210.295 21.8196V126.027C210.261 127.634 208.964 128.968 207.326 128.968Z" fill="#5B5B5B"/>
<path d="M204.8 24.9658H51.3365V122.846H204.8V24.9658Z" fill="white"/>
<path d="M80.3498 128.968H49.2885L43.6906 142.409C43.6906 142.409 65.2629 147.163 72.1237 142.409C72.0896 142.409 78.1312 135.842 80.3498 128.968Z" fill="url(#paint1_linear_874_482)"/>
<path d="M14.4384 178.866C14.4384 178.866 24.9856 159.577 25.9755 147.402C26.9995 135.227 26.5899 125.07 29.0133 118.777C31.4368 112.484 36.9323 94.6316 38.7413 89.741C40.5504 84.8846 40.8917 79.994 41.5402 79.1732C42.1888 78.3524 47.5477 77.7026 48.2645 87.4838C48.7082 93.6056 44.6122 105.952 46.6602 114.091C48.6741 122.197 53.4869 126.506 52.736 133.585C51.9168 141.349 35.5669 152.977 27.5115 180.576L14.4384 178.866Z" fill="url(#paint2_linear_874_482)"/>
<path d="M241.937 178.866C241.937 178.866 231.39 159.577 230.4 147.402C229.376 135.227 229.786 125.07 227.362 118.777C224.939 112.484 219.443 94.6316 217.634 89.741C215.825 84.8846 215.484 79.994 214.835 79.1732C214.187 78.3524 208.828 77.7026 208.111 87.4838C207.667 93.6056 211.763 105.952 209.715 114.091C207.701 122.197 202.889 126.506 203.639 133.585C204.459 141.349 220.809 152.977 228.864 180.576L241.937 178.866Z" fill="url(#paint3_linear_874_482)"/>
<path d="M196.847 75.2403H175.241C174.968 75.2403 174.763 75.0351 174.763 74.7615C174.763 74.4879 174.968 74.2827 175.241 74.2827H196.847C197.12 74.2827 197.325 74.4879 197.325 74.7615C197.325 75.0351 197.12 75.2403 196.847 75.2403Z" fill="black"/>
<path d="M191.966 79.4468C191.863 79.2074 191.898 78.9338 192.068 78.7628L196.676 74.7614L192.068 70.76C191.898 70.6232 191.863 70.3154 191.966 70.076C192.068 69.8366 192.307 69.7682 192.444 69.9392L197.53 74.351C197.632 74.4536 197.7 74.5904 197.7 74.7614C197.7 74.9324 197.632 75.0692 197.53 75.1718L192.444 79.5836C192.375 79.652 192.307 79.652 192.239 79.652C192.137 79.652 192.034 79.5836 191.966 79.4468Z" fill="black"/>
<path d="M93.6047 70H100.005V68.352H95.5727V59.216H93.6047V70ZM107.463 65.312C107.463 63.616 106.743 62.032 104.247 62.032C103.015 62.032 102.007 62.368 101.431 62.72L101.815 64C102.343 63.664 103.143 63.424 103.911 63.424C105.287 63.424 105.495 64.272 105.495 64.784V64.912C102.615 64.896 100.871 65.888 100.871 67.856C100.871 69.04 101.751 70.176 103.319 70.176C104.327 70.176 105.143 69.744 105.623 69.136H105.671L105.799 70H107.575C107.495 69.52 107.463 68.832 107.463 68.128V65.312ZM105.543 67.264C105.543 67.392 105.527 67.552 105.479 67.696C105.303 68.256 104.727 68.768 103.943 68.768C103.319 68.768 102.823 68.416 102.823 67.648C102.823 66.464 104.151 66.16 105.543 66.192V67.264ZM109.54 70H111.524V65.424C111.524 65.2 111.54 64.96 111.604 64.784C111.812 64.192 112.356 63.632 113.14 63.632C114.212 63.632 114.628 64.48 114.628 65.6V70H116.596V65.376C116.596 62.912 115.188 62.032 113.828 62.032C112.532 62.032 111.684 62.768 111.348 63.376H111.3L111.204 62.208H109.476C109.524 62.88 109.54 63.632 109.54 64.528V70ZM123.913 58.64V63.056H123.881C123.529 62.48 122.761 62.032 121.689 62.032C119.817 62.032 118.185 63.584 118.201 66.192C118.201 68.592 119.673 70.176 121.529 70.176C122.665 70.176 123.609 69.632 124.073 68.768H124.105L124.185 70H125.945C125.913 69.472 125.881 68.608 125.881 67.808V58.64H123.913ZM123.913 66.624C123.913 66.832 123.897 67.024 123.849 67.2C123.657 68.048 122.953 68.592 122.153 68.592C120.905 68.592 120.201 67.552 120.201 66.128C120.201 64.672 120.905 63.552 122.169 63.552C123.065 63.552 123.689 64.176 123.865 64.944C123.897 65.104 123.913 65.296 123.913 65.456V66.624ZM127.513 69.616C128.089 69.936 128.937 70.176 129.881 70.176C131.945 70.176 133.049 69.136 133.049 67.728C133.033 66.576 132.377 65.856 130.969 65.344C129.977 64.992 129.609 64.752 129.609 64.256C129.609 63.776 129.993 63.44 130.697 63.44C131.385 63.44 132.009 63.696 132.345 63.888L132.729 62.496C132.281 62.256 131.529 62.032 130.665 62.032C128.857 62.032 127.721 63.104 127.721 64.48C127.705 65.392 128.345 66.224 129.865 66.752C130.825 67.088 131.145 67.36 131.145 67.888C131.145 68.4 130.761 68.752 129.897 68.752C129.193 68.752 128.345 68.464 127.897 68.192L127.513 69.616ZM140.121 68.304C139.737 68.464 139.257 68.608 138.569 68.608C137.225 68.608 136.185 67.696 136.185 66.096C136.169 64.672 137.065 63.568 138.569 63.568C139.273 63.568 139.737 63.728 140.057 63.872L140.409 62.4C139.961 62.192 139.225 62.032 138.505 62.032C135.769 62.032 134.169 63.856 134.169 66.192C134.169 68.608 135.753 70.176 138.185 70.176C139.161 70.176 139.977 69.952 140.393 69.76L140.121 68.304ZM147.901 65.312C147.901 63.616 147.181 62.032 144.685 62.032C143.453 62.032 142.445 62.368 141.869 62.72L142.253 64C142.781 63.664 143.581 63.424 144.349 63.424C145.725 63.424 145.933 64.272 145.933 64.784V64.912C143.053 64.896 141.309 65.888 141.309 67.856C141.309 69.04 142.189 70.176 143.757 70.176C144.765 70.176 145.581 69.744 146.061 69.136H146.109L146.237 70H148.013C147.933 69.52 147.901 68.832 147.901 68.128V65.312ZM145.981 67.264C145.981 67.392 145.965 67.552 145.917 67.696C145.741 68.256 145.165 68.768 144.381 68.768C143.757 68.768 143.261 68.416 143.261 67.648C143.261 66.464 144.589 66.16 145.981 66.192V67.264ZM149.978 73.168H151.946V69.136H151.978C152.378 69.76 153.194 70.176 154.17 70.176C155.946 70.176 157.722 68.816 157.722 66C157.722 63.568 156.234 62.032 154.442 62.032C153.258 62.032 152.346 62.528 151.77 63.408H151.738L151.642 62.208H149.914C149.946 62.944 149.978 63.776 149.978 64.8V73.168ZM151.946 65.536C151.946 65.376 151.978 65.2 152.026 65.04C152.218 64.176 152.97 63.584 153.786 63.584C155.05 63.584 155.722 64.704 155.722 66.08C155.722 67.616 154.986 68.656 153.738 68.656C152.906 68.656 152.202 68.08 152.01 67.28C151.962 67.104 151.946 66.928 151.946 66.736V65.536ZM165.945 66.656C165.977 66.48 166.009 66.192 166.009 65.824C166.009 64.112 165.193 62.032 162.649 62.032C160.153 62.032 158.841 64.064 158.841 66.224C158.841 68.608 160.329 70.176 162.857 70.176C163.977 70.176 164.905 69.952 165.577 69.68L165.289 68.32C164.697 68.544 164.041 68.672 163.129 68.672C161.881 68.672 160.777 68.064 160.729 66.656H165.945ZM160.729 65.28C160.809 64.48 161.321 63.376 162.537 63.376C163.849 63.376 164.169 64.56 164.153 65.28H160.729ZM110.486 89H112.406V84.392C112.406 84.168 112.438 83.944 112.518 83.752C112.694 83.208 113.19 82.632 113.926 82.632C114.838 82.632 115.27 83.4 115.27 84.488V89H117.19V84.328C117.19 84.104 117.238 83.864 117.286 83.672C117.494 83.112 117.99 82.632 118.662 82.632C119.606 82.632 120.054 83.4 120.054 84.696V89H121.974V84.408C121.974 81.912 120.662 81.032 119.366 81.032C118.726 81.032 118.23 81.192 117.798 81.496C117.43 81.72 117.11 82.04 116.838 82.472H116.806C116.47 81.608 115.67 81.032 114.646 81.032C113.334 81.032 112.63 81.752 112.246 82.36H112.198L112.118 81.208H110.422C110.47 81.88 110.486 82.632 110.486 83.528V89ZM127.584 81.032C125.232 81.032 123.552 82.6 123.552 85.16C123.552 87.656 125.248 89.176 127.456 89.176C129.44 89.176 131.456 87.896 131.456 85.032C131.456 82.664 129.904 81.032 127.584 81.032ZM127.536 82.472C128.88 82.472 129.424 83.864 129.424 85.08C129.424 86.648 128.64 87.752 127.52 87.752C126.32 87.752 125.584 86.616 125.584 85.112C125.584 83.816 126.144 82.472 127.536 82.472ZM138.295 77.64V82.056H138.263C137.911 81.48 137.143 81.032 136.071 81.032C134.199 81.032 132.567 82.584 132.583 85.192C132.583 87.592 134.055 89.176 135.911 89.176C137.047 89.176 137.991 88.632 138.455 87.768H138.487L138.567 89H140.327C140.295 88.472 140.263 87.608 140.263 86.808V77.64H138.295ZM138.295 85.624C138.295 85.832 138.279 86.024 138.231 86.2C138.039 87.048 137.335 87.592 136.535 87.592C135.287 87.592 134.583 86.552 134.583 85.128C134.583 83.672 135.287 82.552 136.551 82.552C137.447 82.552 138.071 83.176 138.247 83.944C138.279 84.104 138.295 84.296 138.295 84.456V85.624ZM148.984 85.656C149.016 85.48 149.048 85.192 149.048 84.824C149.048 83.112 148.232 81.032 145.688 81.032C143.192 81.032 141.88 83.064 141.88 85.224C141.88 87.608 143.368 89.176 145.896 89.176C147.016 89.176 147.944 88.952 148.616 88.68L148.328 87.32C147.736 87.544 147.08 87.672 146.168 87.672C144.92 87.672 143.816 87.064 143.768 85.656H148.984ZM143.768 84.28C143.848 83.48 144.36 82.376 145.576 82.376C146.888 82.376 147.208 83.56 147.192 84.28H143.768Z" fill="#004487"/>
<path d="M60.2453 75.3087H81.8517C82.1248 75.3087 82.3296 75.1035 82.3296 74.8299C82.3296 74.5563 82.1248 74.3511 81.8517 74.3511H60.2453C59.9723 74.3511 59.7675 74.5563 59.7675 74.8299C59.7675 75.1035 60.0064 75.3087 60.2453 75.3087Z" fill="black"/>
<path d="M65.1605 79.5152C65.2629 79.2758 65.2288 79.0022 65.0581 78.8312L60.416 74.8298L65.024 70.8284C65.1947 70.6916 65.2288 70.3838 65.1264 70.1444C65.024 69.905 64.7851 69.8366 64.6485 70.0076L59.5627 74.4194C59.4603 74.522 59.392 74.6588 59.392 74.8298C59.392 75.0008 59.4603 75.1376 59.5627 75.2402L64.6485 79.652C64.7168 79.7204 64.7851 79.7204 64.8533 79.7204C64.9557 79.7204 65.0923 79.652 65.1605 79.5152Z" fill="black"/>
</g>
</g>
<defs>
<linearGradient id="paint0_linear_874_482" x1="195" y1="142.29" x2="193.193" y2="123.993" gradientUnits="userSpaceOnUse">
<stop stop-color="#FEA58D"/>
<stop offset="1" stop-color="#FF684D"/>
</linearGradient>
<linearGradient id="paint1_linear_874_482" x1="61.3717" y1="142.29" x2="63.1791" y2="123.993" gradientUnits="userSpaceOnUse">
<stop stop-color="#FEA58D"/>
<stop offset="1" stop-color="#FF684D"/>
</linearGradient>
<linearGradient id="paint2_linear_874_482" x1="37.2319" y1="130.317" x2="6.34751" y2="124.877" gradientUnits="userSpaceOnUse">
<stop stop-color="#FEA58D"/>
<stop offset="1" stop-color="#FF684D"/>
</linearGradient>
<linearGradient id="paint3_linear_874_482" x1="219.14" y1="130.317" x2="250.024" y2="124.877" gradientUnits="userSpaceOnUse">
<stop stop-color="#FEA58D"/>
<stop offset="1" stop-color="#FF684D"/>
</linearGradient>
<clipPath id="clip0_874_482">
<rect width="256" height="171" rx="16" fill="white"/>
</clipPath>
</defs>
</svg>
