<?xml version="1.0" encoding="utf-8"?>
<!-- Generator: Adobe Illustrator 24.1.1, SVG Export Plug-In . SVG Version: 6.00 Build 0)  -->
<svg version="1.1" id="Layer_1" xmlns="http://www.w3.org/2000/svg" xmlns:xlink="http://www.w3.org/1999/xlink" x="0px" y="0px"
	 viewBox="0 0 212 160" style="enable-background:new 0 0 212 160;" xml:space="preserve">
<style type="text/css">
	.st0{opacity:0.4;fill:#3B66AF;enable-background:new    ;}
	.st1{fill:#B7E0EE;}
	.st2{fill:#003888;}
	.st3{fill:#F1F9FF;}
	.st4{fill:#FFA051;}
	.st5{fill:#A9C2FF;}
	.st6{fill:#A8CCFF;}
	.st7{fill:#FF912B;}
	.st8{fill:#25468F;}
	.st9{fill:#FFC69D;}
	.st10{fill:#FFFFFF;stroke:#0F3984;stroke-width:0.3004;stroke-miterlimit:10;}
	.st11{fill:#0F3984;}
	.st12{fill:#FFA561;}
	.st13{fill:#FFFFFF;stroke:#003686;stroke-width:0.3455;stroke-miterlimit:10;}
	.st14{fill:#E1E1E1;}
	.st15{fill:#003686;}
	.st16{fill:#003686;stroke:#003686;stroke-width:0.3455;stroke-miterlimit:10;}
	.st17{fill:#FFA65C;}
</style>
<g>
	<path class="st0" d="M192.2,157.3H27.6c-9.9,0-17.9-8-17.9-17.9v-112c0-9.9,8-17.9,17.9-17.9h164.6c9.9,0,17.9,8,17.9,17.9v112
		C210,149.3,202,157.3,192.2,157.3z"/>
	<path class="st1" d="M184.4,150.5H19.8c-9.9,0-17.9-8-17.9-17.9v-112c0-9.9,8-17.9,17.9-17.9h164.6c9.9,0,17.9,8,17.9,17.9v112
		C202.3,142.5,194.3,150.5,184.4,150.5z"/>
</g>
<g>
	<g>
		<g>
			<g>
				<rect x="20.4" y="29.3" class="st2" width="69.7" height="95.3"/>
			</g>
			<g>
				<rect x="23.3" y="31.9" class="st3" width="63.8" height="90.1"/>
			</g>
			<g>
				<path class="st4" d="M42,29.3v3.2c0,1.8,1.5,3.2,3.2,3.2h17.4c1.8,0,3.2-1.5,3.2-3.2v-3.2H42z"/>
			</g>
		</g>
		<g>
			<g>
				<rect x="30.7" y="113.2" class="st5" width="7.9" height="0.8"/>
			</g>
			<g>
				<rect x="40.4" y="113.2" class="st5" width="7.9" height="0.8"/>
			</g>
			<g>
				<rect x="30.7" y="115" class="st5" width="10.9" height="0.8"/>
			</g>
		</g>
		<g>
			<g>
				<g>
					<g>
						<g>
							<rect x="28.7" y="64.7" class="st5" width="53.5" height="1.1"/>
						</g>
					</g>
					<g>
						<g>
							<rect x="28.7" y="69.7" class="st5" width="49.3" height="1.1"/>
						</g>
					</g>
					<g>
						<g>
							<rect x="48.2" y="67.2" class="st5" width="14.6" height="1.1"/>
						</g>
						<g>
							<rect x="65.3" y="67.2" class="st5" width="16.9" height="1.1"/>
						</g>
						<g>
							<rect x="28.7" y="67.2" class="st5" width="17.3" height="1.1"/>
						</g>
					</g>
					<g>
						<g>
							<rect x="48.2" y="61.9" class="st5" width="14.6" height="1.1"/>
						</g>
						<g>
							<rect x="65.3" y="61.9" class="st5" width="16.9" height="1.1"/>
						</g>
						<g>
							<rect x="28.7" y="61.9" class="st5" width="17.3" height="1.1"/>
						</g>
					</g>
				</g>
				<g>
					<g>
						<g>
							<rect x="28.7" y="79.8" class="st5" width="53.5" height="1.1"/>
						</g>
					</g>
					<g>
						<g>
							<rect x="28.7" y="84.8" class="st5" width="41.3" height="1.1"/>
						</g>
					</g>
					<g>
						<g>
							<rect x="48.2" y="76.9" class="st5" width="14.6" height="1.1"/>
						</g>
						<g>
							<rect x="65.3" y="76.9" class="st5" width="16.9" height="1.1"/>
						</g>
						<g>
							<rect x="28.7" y="76.9" class="st5" width="17.3" height="1.1"/>
						</g>
					</g>
					<g>
						<g>
							<rect x="66.4" y="46.1" class="st5" width="12.9" height="1.1"/>
						</g>
						<g>
							<rect x="49.2" y="48.5" class="st5" width="10.8" height="1.1"/>
						</g>
						<g>
							<rect x="61.8" y="48.5" class="st5" width="14.6" height="1.1"/>
						</g>
						<g>
							<rect x="49.2" y="51.2" class="st5" width="13.1" height="1.1"/>
						</g>
						<g>
							<rect x="64.5" y="51.2" class="st5" width="7.2" height="1.1"/>
						</g>
						<g>
							<rect x="49.2" y="46.1" class="st5" width="15.2" height="1.1"/>
						</g>
					</g>
				</g>
			</g>
		</g>
		<g>
			<g>
				<g>
					<g>
						<g>
							<rect x="42.6" y="95.2" class="st5" width="12.1" height="0.7"/>
						</g>
					</g>
					<g>
						<g>
							<rect x="42.6" y="98.5" class="st5" width="11.2" height="0.7"/>
						</g>
					</g>
					<g>
						<g>
							<rect x="51.4" y="96.8" class="st5" width="3.3" height="0.7"/>
						</g>
						<g>
							<rect x="42.6" y="96.8" class="st5" width="7.9" height="0.7"/>
						</g>
					</g>
				</g>
			</g>
		</g>
		<g>
			<g>
				<g>
					<g>
						<g>
							<rect x="71.1" y="95.2" class="st5" width="12.1" height="0.7"/>
						</g>
					</g>
					<g>
						<g>
							<rect x="71.1" y="98.5" class="st5" width="11.2" height="0.7"/>
						</g>
					</g>
					<g>
						<g>
							<rect x="79.9" y="96.8" class="st5" width="3.3" height="0.7"/>
						</g>
						<g>
							<rect x="71.1" y="96.8" class="st5" width="7.9" height="0.7"/>
						</g>
					</g>
				</g>
			</g>
		</g>
		<g>
			<g>
				<g>
					<path class="st6" d="M40,102.1h-8.3v-8.3H40V102.1z M32.2,101.7h7.5v-7.5h-7.5V101.7z"/>
				</g>
			</g>
			<g>
				<g>
					<path class="st7" d="M36.1,100.4c-0.2,0-0.3-0.1-0.5-0.2l-2.6-3.1c-0.2-0.2-0.2-0.6,0.1-0.8c0.2-0.2,0.6-0.2,0.8,0.1l2,2.4
						l3.7-6.1c0.2-0.3,0.5-0.4,0.8-0.2c0.3,0.2,0.4,0.5,0.2,0.8l-4.1,6.9C36.5,100.3,36.3,100.4,36.1,100.4
						C36.1,100.4,36.1,100.4,36.1,100.4z"/>
				</g>
			</g>
		</g>
		<g>
			<g>
				<g>
					<path class="st6" d="M69,102.1h-8.3v-8.3H69V102.1z M61.2,101.7h7.5v-7.5h-7.5V101.7z"/>
				</g>
			</g>
			<g>
				<g>
					<path class="st7" d="M65.1,100.4c-0.2,0-0.3-0.1-0.5-0.2l-2.6-3.1c-0.2-0.2-0.2-0.6,0.1-0.8c0.2-0.2,0.6-0.2,0.8,0.1l2,2.4
						l3.7-6.1c0.2-0.3,0.5-0.4,0.8-0.2c0.3,0.2,0.4,0.5,0.2,0.8l-4.1,6.9C65.5,100.3,65.4,100.4,65.1,100.4
						C65.1,100.4,65.1,100.4,65.1,100.4z"/>
				</g>
			</g>
		</g>
	</g>
	<g>
		<g>
			<path class="st4" d="M45.3,48.6c0,2.3-0.9,4.4-2.4,5.9c-1.5,1.6-3.7,2.5-6,2.5c-2.4,0-4.5-1-6-2.5c-1.5-1.5-2.4-3.6-2.4-5.9
				c0-4.7,3.8-8.4,8.4-8.4C41.5,40.1,45.3,43.9,45.3,48.6z"/>
		</g>
		<g>
			<path class="st8" d="M36.9,42.1c0,0-3.2-0.2-4.8,3.1c-1.5,3-2.1,3.2-1.4,4.2c0.6,1,6.8,2.7,11.4,0.7c0,0,1.7-0.7,1-2
				C42.4,46.9,40.7,41.8,36.9,42.1z"/>
		</g>
		<g>
			<circle class="st9" cx="36.9" cy="47" r="3.5"/>
		</g>
		<g>
			<path class="st9" d="M42.9,54.5c-1.5,1.6-3.7,2.5-6,2.5c-2.4,0-4.5-1-6-2.5c0.5-2.2,2.1-3.9,4.2-4.5c0.6-0.2,1.2-0.3,1.8-0.3
				c0.6,0,1.2,0.1,1.8,0.3C40.8,50.6,42.4,52.3,42.9,54.5z"/>
		</g>
		<g>
			<path class="st8" d="M37.2,43.3c0,0-1.1,2.8-3.8,2.7C33.4,46,33,42.7,37.2,43.3z"/>
		</g>
		<g>
			<path class="st8" d="M36.6,43.3c0,0,1.1,2.8,3.8,2.7C40.4,46,40.7,42.7,36.6,43.3z"/>
		</g>
	</g>
</g>
<g>
	<g>
		<g>
			<rect x="47.6" y="80.5" class="st10" width="123.1" height="56.9"/>
		</g>
		<g>
			<g>
				<path class="st11" d="M170.7,137.5c0,0,0-0.3,0-1c0-0.7,0-1.7,0-3c0-2.6,0-6.4,0-11.3c0-9.8,0-24-0.1-41.6l0.1,0.1
					c-31.9,0-75.4,0-123.1,0h0l0.2-0.2c0,20,0,39.3,0,56.9l-0.2-0.2c35.8,0,66.6,0.1,88.4,0.1c10.9,0,19.6,0,25.5,0c3,0,5.3,0,6.8,0
					c0.8,0,1.4,0,1.8,0C170.5,137.5,170.7,137.5,170.7,137.5s-0.2,0-0.6,0c-0.4,0-1,0-1.7,0c-1.5,0-3.8,0-6.8,0
					c-5.9,0-14.6,0-25.5,0c-21.8,0-52.6,0-88.5,0.1l-0.2,0v-0.2c0-17.6,0-36.9,0-56.9v-0.2h0.2h0c47.8,0,91.2,0,123.1,0l0.1,0l0,0.1
					c0,17.6-0.1,31.8-0.1,41.7c0,4.9,0,8.7,0,11.3c0,1.3,0,2.3,0,2.9C170.7,137.1,170.7,137.5,170.7,137.5z"/>
			</g>
		</g>
	</g>
	<g>
		<g>
			<g>
				<g>
					<path class="st11" d="M56.3,119.9v1.8h-0.2V120h-0.4v-0.2H56.3z"/>
					<path class="st11" d="M56.7,120.8c0-0.6,0.3-0.9,0.7-0.9c0.4,0,0.7,0.3,0.7,0.9s-0.3,0.9-0.7,0.9
						C57,121.7,56.7,121.3,56.7,120.8z M57.9,120.8c0-0.5-0.2-0.7-0.5-0.7c-0.3,0-0.5,0.3-0.5,0.7c0,0.5,0.2,0.7,0.5,0.7
						C57.7,121.5,57.9,121.2,57.9,120.8z"/>
				</g>
			</g>
			<g>
				<g>
					<path class="st11" d="M57,110.3v0.2h-1.3v-0.1l0.7-0.7c0.2-0.2,0.2-0.3,0.2-0.4c0-0.2-0.1-0.3-0.4-0.3c-0.2,0-0.4,0.1-0.5,0.2
						l-0.1-0.1c0.1-0.2,0.4-0.3,0.6-0.3c0.4,0,0.6,0.2,0.6,0.5c0,0.2-0.1,0.3-0.3,0.6l-0.6,0.6H57z"/>
					<path class="st11" d="M57.2,109.6c0-0.6,0.3-0.9,0.7-0.9c0.4,0,0.7,0.3,0.7,0.9s-0.3,0.9-0.7,0.9
						C57.5,110.5,57.2,110.2,57.2,109.6z M58.5,109.6c0-0.5-0.2-0.7-0.5-0.7c-0.3,0-0.5,0.3-0.5,0.7c0,0.5,0.2,0.7,0.5,0.7
						C58.2,110.3,58.5,110.1,58.5,109.6z"/>
				</g>
			</g>
			<g>
				<g>
					<path class="st11" d="M57,98.8c0,0.3-0.2,0.5-0.7,0.5c-0.3,0-0.5-0.1-0.6-0.2l0.1-0.1c0.1,0.1,0.3,0.2,0.6,0.2
						c0.3,0,0.5-0.1,0.5-0.4c0-0.2-0.2-0.4-0.5-0.4h-0.1v-0.1l0.5-0.6h-0.9v-0.2h1.2v0.1l-0.5,0.6C56.8,98.3,57,98.5,57,98.8z"/>
					<path class="st11" d="M57.2,98.4c0-0.6,0.3-0.9,0.7-0.9c0.4,0,0.7,0.3,0.7,0.9s-0.3,0.9-0.7,0.9C57.5,99.3,57.2,99,57.2,98.4z
						 M58.5,98.4c0-0.5-0.2-0.7-0.5-0.7c-0.3,0-0.5,0.3-0.5,0.7c0,0.5,0.2,0.7,0.5,0.7C58.2,99.2,58.5,98.9,58.5,98.4z"/>
				</g>
			</g>
		</g>
		<g>
			<g>
				<g>
					<path class="st11" d="M64.2,126.7c0-0.6,0.3-0.9,0.7-0.9c0.4,0,0.7,0.3,0.7,0.9s-0.3,0.9-0.7,0.9
						C64.5,127.6,64.2,127.2,64.2,126.7z M65.4,126.7c0-0.5-0.2-0.7-0.5-0.7c-0.3,0-0.5,0.3-0.5,0.7c0,0.5,0.2,0.7,0.5,0.7
						C65.2,127.4,65.4,127.1,65.4,126.7z"/>
				</g>
			</g>
			<g>
				<g>
					<path class="st11" d="M77.5,125.8v1.8h-0.2v-1.6h-0.4v-0.2H77.5z"/>
				</g>
			</g>
			<g>
				<g>
					<path class="st11" d="M91.5,127.4v0.2h-1.3v-0.1l0.7-0.7c0.2-0.2,0.2-0.3,0.2-0.4c0-0.2-0.1-0.3-0.4-0.3
						c-0.2,0-0.4,0.1-0.5,0.2l-0.1-0.1c0.1-0.2,0.4-0.3,0.6-0.3c0.4,0,0.6,0.2,0.6,0.5c0,0.2-0.1,0.3-0.3,0.6l-0.6,0.6H91.5z"/>
				</g>
			</g>
			<g>
				<g>
					<path class="st11" d="M104.8,127c0,0.3-0.2,0.5-0.7,0.5c-0.3,0-0.5-0.1-0.6-0.2l0.1-0.1c0.1,0.1,0.3,0.2,0.6,0.2
						c0.3,0,0.5-0.1,0.5-0.4c0-0.2-0.2-0.4-0.5-0.4H104v-0.1l0.5-0.6h-0.9v-0.2h1.2v0.1l-0.5,0.6C104.6,126.5,104.8,126.8,104.8,127
						z"/>
				</g>
			</g>
			<g>
				<g>
					<path class="st11" d="M118.4,127.1H118v0.5h-0.2v-0.5h-1v-0.1l1-1.2h0.2l-0.9,1.2h0.8v-0.4h0.2v0.4h0.4V127.1z"/>
				</g>
			</g>
			<g>
				<g>
					<path class="st11" d="M131.4,127c0,0.3-0.2,0.5-0.7,0.5c-0.3,0-0.5-0.1-0.6-0.2l0.1-0.1c0.1,0.1,0.3,0.2,0.6,0.2
						c0.3,0,0.5-0.1,0.5-0.4c0-0.2-0.1-0.4-0.6-0.4h-0.4l0.1-0.9h1v0.2h-0.8l-0.1,0.6h0.2C131.2,126.5,131.4,126.7,131.4,127z"/>
				</g>
			</g>
			<g>
				<g>
					<path class="st11" d="M144.8,127c0,0.3-0.3,0.6-0.6,0.6c-0.5,0-0.7-0.3-0.7-0.9c0-0.6,0.3-0.9,0.8-0.9c0.2,0,0.3,0,0.4,0.1
						l-0.1,0.1c-0.1-0.1-0.2-0.1-0.3-0.1c-0.4,0-0.6,0.2-0.6,0.7c0,0,0,0.1,0,0.1c0.1-0.2,0.3-0.3,0.5-0.3
						C144.6,126.5,144.8,126.7,144.8,127z M144.6,127c0-0.2-0.2-0.4-0.5-0.4c-0.3,0-0.5,0.2-0.5,0.4c0,0.2,0.2,0.4,0.5,0.4
						C144.4,127.4,144.6,127.3,144.6,127z"/>
				</g>
			</g>
			<g>
				<g>
					<path class="st11" d="M158,125.8v0.1l-0.8,1.7h-0.2l0.7-1.6h-0.9v0.3h-0.2v-0.5H158z"/>
				</g>
			</g>
		</g>
		<g>
			<g>
				<g>
					<path class="st11" d="M158.1,120.8c0,0.1-20.8,0.2-46.5,0.2c-25.7,0-46.5-0.1-46.5-0.2c0-0.1,20.8-0.2,46.5-0.2
						C137.3,120.7,158.1,120.8,158.1,120.8z"/>
				</g>
			</g>
			<g>
				<g>
					<path class="st11" d="M158.1,109.6c0,0.1-20.8,0.2-46.5,0.2c-25.7,0-46.5-0.1-46.5-0.2c0-0.1,20.8-0.2,46.5-0.2
						C137.3,109.4,158.1,109.5,158.1,109.6z"/>
				</g>
			</g>
			<g>
				<g>
					<path class="st11" d="M158.1,98.4c0,0.1-20.8,0.2-46.5,0.2c-25.7,0-46.5-0.1-46.5-0.2s20.8-0.2,46.5-0.2
						C137.3,98.2,158.1,98.3,158.1,98.4z"/>
				</g>
			</g>
			<g>
				<g>
					<path class="st12" d="M65.2,120.7c0,0.3-0.3,0.6-0.6,0.6S64,121,64,120.7c0-0.3,0.3-0.6,0.6-0.6S65.2,120.4,65.2,120.7z"/>
				</g>
				<g>
					<path class="st12" d="M78.6,120.7c0,0.3-0.3,0.6-0.6,0.6c-0.3,0-0.6-0.3-0.6-0.6c0-0.3,0.3-0.6,0.6-0.6
						C78.3,120.1,78.6,120.4,78.6,120.7z"/>
				</g>
				<g>
					<path class="st12" d="M91.9,120.7c0,0.3-0.3,0.6-0.6,0.6c-0.3,0-0.6-0.3-0.6-0.6c0-0.3,0.3-0.6,0.6-0.6
						C91.6,120.1,91.9,120.4,91.9,120.7z"/>
				</g>
				<g>
					<path class="st12" d="M105.3,120.7c0,0.3-0.3,0.6-0.6,0.6c-0.3,0-0.6-0.3-0.6-0.6c0-0.3,0.3-0.6,0.6-0.6
						C105,120.1,105.3,120.4,105.3,120.7z"/>
				</g>
				<g>
					<path class="st12" d="M118.6,120.7c0,0.3-0.3,0.6-0.6,0.6c-0.3,0-0.6-0.3-0.6-0.6c0-0.3,0.3-0.6,0.6-0.6
						C118.4,120.1,118.6,120.4,118.6,120.7z"/>
				</g>
				<g>
					<path class="st12" d="M145.3,120.7c0,0.3-0.3,0.6-0.6,0.6c-0.3,0-0.6-0.3-0.6-0.6c0-0.3,0.3-0.6,0.6-0.6
						C145.1,120.1,145.3,120.4,145.3,120.7z"/>
				</g>
				<g>
					<path class="st12" d="M132,120.7c0,0.3-0.3,0.6-0.6,0.6c-0.3,0-0.6-0.3-0.6-0.6c0-0.3,0.3-0.6,0.6-0.6
						C131.7,120.1,132,120.4,132,120.7z"/>
				</g>
				<g>
					<path class="st12" d="M158.7,120.7c0,0.3-0.3,0.6-0.6,0.6c-0.3,0-0.6-0.3-0.6-0.6c0-0.3,0.3-0.6,0.6-0.6
						C158.4,120.1,158.7,120.4,158.7,120.7z"/>
				</g>
			</g>
			<g>
				<g>
					<path class="st11" d="M71.3,120.8c0,0.2-0.2,0.4-0.4,0.4c-0.2,0-0.4-0.2-0.4-0.4c0-0.2,0.2-0.4,0.4-0.4
						C71.1,120.5,71.3,120.6,71.3,120.8z"/>
				</g>
				<g>
					<path class="st11" d="M84.7,120.8c0,0.2-0.2,0.4-0.4,0.4s-0.4-0.2-0.4-0.4c0-0.2,0.2-0.4,0.4-0.4S84.7,120.6,84.7,120.8z"/>
				</g>
				<g>
					<circle class="st11" cx="97.7" cy="120.8" r="0.4"/>
				</g>
				<g>
					<circle class="st11" cx="111.1" cy="120.8" r="0.4"/>
				</g>
				<g>
					<circle class="st11" cx="124.5" cy="120.8" r="0.4"/>
				</g>
				<g>
					<path class="st11" d="M138.3,120.8c0,0.2-0.2,0.4-0.4,0.4s-0.4-0.2-0.4-0.4c0-0.2,0.2-0.4,0.4-0.4S138.3,120.6,138.3,120.8z"/>
				</g>
				<g>
					<path class="st11" d="M151.7,120.8c0,0.2-0.2,0.4-0.4,0.4c-0.2,0-0.4-0.2-0.4-0.4c0-0.2,0.2-0.4,0.4-0.4
						C151.6,120.5,151.7,120.6,151.7,120.8z"/>
				</g>
			</g>
		</g>
		<g>
			<g>
				<g>
					<path class="st11" d="M158.7,115.9c0,0-0.1,0-0.3,0c-0.2,0-0.6,0-1-0.1c-0.9-0.2-2.2-0.5-3.5-1.7c-0.6-0.5-1.2-1.3-1.7-2.2
						c-0.5-0.9-1-1.9-1.8-2.8c-0.8-0.9-1.7-1.8-3-2.1c-0.6-0.2-1.3-0.1-2,0.1c-0.7,0.2-1.3,0.6-1.9,1c-1.1,1-2,2.3-3.1,3.5
						c-0.6,0.6-1.2,1.2-2,1.6c-0.8,0.3-1.7,0.5-2.6,0.2c-0.9-0.2-1.6-1-2-1.8c-0.4-0.8-0.6-1.8-0.9-2.7c-0.2-0.9-0.4-1.9-0.8-2.7
						c-0.2-0.4-0.5-0.8-0.9-1c-0.4-0.2-0.9-0.3-1.4-0.3c-1,0.1-1.9,0.3-2.9,0.5c-0.5,0.1-1,0.2-1.5,0.2c-0.5,0-1.1-0.1-1.6-0.3
						c-0.5-0.2-0.9-0.6-1.3-1c-0.3-0.4-0.6-0.9-0.8-1.4c-0.4-1-0.7-2-1.1-3c-0.2-0.5-0.4-1-0.7-1.4c-0.3-0.4-0.7-0.8-1.2-1
						c-0.1,0-0.2-0.1-0.4-0.1l-0.4,0c-0.3,0-0.5,0-0.7,0.1c-0.4,0.2-0.8,0.7-1.1,1.1c-0.6,0.9-0.9,2-1.2,3.1
						c-0.3,1.1-0.6,2.2-0.8,3.3c-0.4,1.8-0.8,3.7-1.3,5.5c-0.2,0.9-0.5,1.8-0.8,2.7c-0.3,0.9-0.7,1.7-1.4,2.4
						c-0.3,0.3-0.8,0.6-1.3,0.6c-0.5,0-1-0.2-1.4-0.4c-0.8-0.5-1.4-1.2-1.9-1.9c-1-1.5-1.7-3.1-2.3-4.7c-0.6-1.5-1.4-3.1-2.6-4.1
						c-1.2-1-2.9-1.4-4.3-1c-0.7,0.2-1.4,0.5-2,0.9c-0.6,0.4-1.2,0.8-1.8,1.3c-1.1,0.9-2.1,2-3,3l0,0l0,0c-1.4,1.4-2.9,2.6-4.4,3.7
						c-1.5,1-3,1.9-4.5,2.4c-1.5,0.6-3,0.9-4.4,0.7c-1.4-0.1-2.6-0.5-3.7-0.9c-2.1-0.8-3.7-1.6-4.8-2.2c-0.5-0.3-0.9-0.5-1.2-0.7
						c-0.3-0.2-0.4-0.3-0.4-0.3s0.1,0.1,0.4,0.2c0.3,0.2,0.7,0.4,1.2,0.6c1.1,0.5,2.7,1.4,4.8,2.1c1.1,0.4,2.3,0.7,3.6,0.8
						c1.4,0.1,2.8-0.2,4.3-0.8c1.5-0.6,3-1.4,4.5-2.4c1.5-1,3-2.2,4.4-3.7l0,0c0.9-1.1,1.9-2.1,3-3c0.6-0.5,1.2-0.9,1.8-1.3
						c0.6-0.4,1.4-0.7,2.1-0.9c1.5-0.4,3.3,0,4.6,1.1c1.3,1.1,2,2.7,2.7,4.2c0.6,1.6,1.3,3.2,2.3,4.6c0.5,0.7,1.1,1.4,1.8,1.8
						c0.4,0.2,0.8,0.4,1.2,0.4c0.4,0,0.8-0.2,1.1-0.5c0.6-0.6,1-1.4,1.3-2.3c0.3-0.8,0.6-1.7,0.8-2.6c0.5-1.8,0.9-3.6,1.3-5.5
						c0.3-1.1,0.5-2.2,0.9-3.3c0.3-1.1,0.7-2.2,1.3-3.2c0.3-0.5,0.7-1,1.2-1.2c0.3-0.1,0.6-0.2,0.9-0.2l0.4,0c0.1,0,0.3,0.1,0.4,0.1
						c0.6,0.2,1,0.6,1.3,1.1c0.3,0.5,0.5,1,0.7,1.5c0.4,1,0.7,2.1,1.1,3c0.4,0.9,0.9,1.9,1.8,2.3c0.9,0.4,2,0.3,2.9,0.1
						c1-0.2,2-0.5,3-0.5c0.5,0,1,0,1.5,0.3c0.5,0.3,0.8,0.7,1,1.2c0.4,0.9,0.6,1.9,0.8,2.8c0.2,0.9,0.4,1.8,0.8,2.6
						c0.4,0.8,1,1.5,1.8,1.7c0.8,0.2,1.7,0.1,2.4-0.2c0.8-0.3,1.4-0.9,1.9-1.5c1.1-1.2,1.9-2.6,3.1-3.5c0.6-0.5,1.2-0.9,1.9-1.1
						c0.7-0.2,1.4-0.2,2.1-0.1c1.4,0.3,2.4,1.3,3.1,2.2c0.8,0.9,1.3,1.9,1.8,2.8c0.5,0.9,1,1.6,1.6,2.2c1.3,1.1,2.6,1.5,3.4,1.7
						c0.4,0.1,0.8,0.1,1,0.2C158.6,115.9,158.7,115.9,158.7,115.9z"/>
				</g>
			</g>
			<g>
				<path class="st12" d="M79.4,115.9c0,0.8-0.7,1.5-1.5,1.5c-0.8,0-1.5-0.7-1.5-1.5c0-0.8,0.7-1.5,1.5-1.5
					C78.8,114.4,79.4,115.1,79.4,115.9z"/>
			</g>
			<g>
				<path class="st12" d="M91.1,109c0,0.8-0.7,1.5-1.5,1.5c-0.8,0-1.5-0.7-1.5-1.5c0-0.8,0.7-1.5,1.5-1.5
					C90.4,107.5,91.1,108.2,91.1,109z"/>
			</g>
			<g>
				<path class="st12" d="M105.5,109.6c0,0.8-0.7,1.5-1.5,1.5c-0.8,0-1.5-0.7-1.5-1.5c0-0.8,0.7-1.5,1.5-1.5
					C104.9,108.2,105.5,108.8,105.5,109.6z"/>
			</g>
			<g>
				<path class="st12" d="M119.7,97.1c0,0.8-0.7,1.5-1.5,1.5s-1.5-0.7-1.5-1.5c0-0.8,0.7-1.5,1.5-1.5S119.7,96.3,119.7,97.1z"/>
			</g>
			<g>
				<path class="st12" d="M132.9,105.1c0,0.8-0.7,1.5-1.5,1.5c-0.8,0-1.5-0.7-1.5-1.5s0.7-1.5,1.5-1.5
					C132.2,103.6,132.9,104.3,132.9,105.1z"/>
			</g>
			<g>
				<path class="st12" d="M146.2,107.2c0,0.8-0.7,1.5-1.5,1.5s-1.5-0.7-1.5-1.5c0-0.8,0.7-1.5,1.5-1.5S146.2,106.4,146.2,107.2z"/>
			</g>
		</g>
	</g>
	<g>
		<g>
			<path class="st11" d="M79.6,90.7c0,0.1-5.2,0.2-11.6,0.2c-6.4,0-11.6-0.1-11.6-0.2c0-0.1,5.2-0.2,11.6-0.2
				C74.4,90.5,79.6,90.6,79.6,90.7z"/>
		</g>
	</g>
</g>
<g>
	<g>
		<g>
			<g>
				<path class="st13" d="M179.1,89.8h-69.9c-2.4,0-4.3-1.9-4.3-4.3V25.8c0-1.5,1.2-2.7,2.7-2.7h72.8c1.7,0,3,1.4,3,3v59.3
					C183.4,87.8,181.5,89.8,179.1,89.8z"/>
			</g>
			<g>
				<path class="st14" d="M183.3,31.1h-78.5v-5.9c0-1.2,1-2.1,2.1-2.1h73.9c1.4,0,2.5,1.1,2.5,2.5V31.1z"/>
			</g>
			<g>
				<g>
					<path class="st15" d="M183.3,31.1c0,0-17.5,0.1-39.2,0.1c-21.6,0-39.2,0-39.2-0.1c0,0,17.5-0.1,39.2-0.1
						C165.8,31,183.3,31,183.3,31.1z"/>
				</g>
			</g>
			<g>
				<g>
					<path class="st15" d="M109.1,27.3c0,0.4-0.3,0.7-0.7,0.7s-0.7-0.3-0.7-0.7c0-0.4,0.3-0.7,0.7-0.7S109.1,26.8,109.1,27.3z"/>
				</g>
				<g>
					<path class="st15" d="M111.5,27.3c0,0.4-0.3,0.7-0.7,0.7s-0.7-0.3-0.7-0.7c0-0.4,0.3-0.7,0.7-0.7S111.5,26.8,111.5,27.3z"/>
				</g>
				<g>
					<path class="st15" d="M113.9,27.3c0,0.4-0.3,0.7-0.7,0.7s-0.7-0.3-0.7-0.7c0-0.4,0.3-0.7,0.7-0.7S113.9,26.8,113.9,27.3z"/>
				</g>
			</g>
			<g>
				<g>
					<path class="st16" d="M157.2,37.1c0,0-5.7,0.1-12.7,0.1c-7,0-12.7,0-12.7-0.1s5.7-0.1,12.7-0.1C151.5,37,157.2,37,157.2,37.1z"
						/>
				</g>
			</g>
			<g>
				<g>
					<g>
						<path class="st16" d="M145.4,42.4c0,0-6.8,0.1-15.1,0.1c-8.4,0-15.1,0-15.1-0.1c0,0,6.8-0.1,15.1-0.1
							C138.6,42.3,145.4,42.4,145.4,42.4z"/>
					</g>
				</g>
				<g>
					<g>
						<path class="st16" d="M145.4,45.3c0,0-6.8,0.1-15.1,0.1c-8.4,0-15.1,0-15.1-0.1c0,0,6.8-0.1,15.1-0.1
							C138.6,45.2,145.4,45.2,145.4,45.3z"/>
					</g>
				</g>
				<g>
					<g>
						<path class="st16" d="M145.4,48.2c0,0-6.8,0.1-15.1,0.1c-8.4,0-15.1,0-15.1-0.1c0,0,6.8-0.1,15.1-0.1
							C138.6,48.1,145.4,48.1,145.4,48.2z"/>
					</g>
				</g>
				<g>
					<g>
						<path class="st16" d="M145.4,51c0,0-6.8,0.1-15.1,0.1c-8.4,0-15.1,0-15.1-0.1c0,0,6.8-0.1,15.1-0.1
							C138.6,50.9,145.4,51,145.4,51z"/>
					</g>
				</g>
				<g>
					<g>
						<path class="st16" d="M145.4,53.9c0,0-6.8,0.1-15.1,0.1c-8.4,0-15.1,0-15.1-0.1c0,0,6.8-0.1,15.1-0.1
							C138.6,53.8,145.4,53.8,145.4,53.9z"/>
					</g>
				</g>
				<g>
					<g>
						<path class="st16" d="M145.4,61.8c0,0-6.8,0.1-15.1,0.1c-8.4,0-15.1,0-15.1-0.1c0,0,6.8-0.1,15.1-0.1
							C138.6,61.8,145.4,61.8,145.4,61.8z"/>
					</g>
				</g>
				<g>
					<g>
						<path class="st16" d="M145.4,59c0,0-6.8,0.1-15.1,0.1c-8.4,0-15.1,0-15.1-0.1s6.8-0.1,15.1-0.1
							C138.6,58.9,145.4,58.9,145.4,59z"/>
					</g>
				</g>
			</g>
			<g>
				<g>
					<g>
						<g>
							<g>
								<g>
									<g>
										<g>
											<g>
												<g>
													<path class="st17" d="M164.8,41.8c-4.5,0-8.2,3.7-8.2,8.2c0,4.5,3.7,8.2,8.2,8.2c4.5,0,8.2-3.7,8.2-8.2
														C173,45.5,169.3,41.8,164.8,41.8z M164.9,54.9c-2.8,0-5-2.2-5-5c0-2.8,2.2-5,5-5c2.8,0,5,2.2,5,5
														C170,52.7,167.7,54.9,164.9,54.9z"/>
												</g>
											</g>
										</g>
									</g>
								</g>
								<g>
									<g>
										<g>
											<g>
												<g>
													<g>
														<path class="st14" d="M159.9,49.9c0-2,1.2-3.8,3-4.6l-1.3-2.8c-2.9,1.2-5,4.1-5,7.5c0,0.1,0,0.2,0,0.3h3.3
															C159.9,50.2,159.9,50.1,159.9,49.9z"/>
													</g>
												</g>
											</g>
										</g>
									</g>
								</g>
							</g>
						</g>
						<g>
							<g>
								<g>
									<g>
										<g>
											<g>
												<g>
													<path class="st16" d="M171.6,60.3c0,0-3,0.1-6.8,0.1c-3.7,0-6.8,0-6.8-0.1c0,0,3-0.1,6.8-0.1
														C168.5,60.2,171.6,60.2,171.6,60.3z"/>
												</g>
											</g>
										</g>
									</g>
								</g>
							</g>
							<g>
								<g>
									<g>
										<g>
											<g>
												<g>
													<path class="st16" d="M168.6,61.5c0,0-1.7,0.1-3.8,0.1c-2.1,0-3.8,0-3.8-0.1c0,0,1.7-0.1,3.8-0.1
														C166.9,61.4,168.6,61.5,168.6,61.5z"/>
												</g>
											</g>
										</g>
									</g>
								</g>
							</g>
						</g>
					</g>
				</g>
				<g>
					<g>
						<path class="st15" d="M164.2,48.8v0.3l-0.7,1.6H163l0.6-1.5h-0.5v0.3h-0.5v-0.7H164.2z"/>
					</g>
					<g>
						<path class="st15" d="M165.8,50.1c0,0.3-0.3,0.6-0.8,0.6c-0.3,0-0.5-0.1-0.7-0.2l0.2-0.4c0.2,0.1,0.3,0.2,0.5,0.2
							c0.2,0,0.3-0.1,0.3-0.2c0-0.1-0.1-0.2-0.4-0.2h-0.5l0.1-1.1h1.2v0.4h-0.8l0,0.3h0.1C165.6,49.5,165.8,49.8,165.8,50.1z"/>
					</g>
					<g>
						<path class="st15" d="M165.9,49.3c0-0.3,0.2-0.5,0.5-0.5c0.3,0,0.5,0.2,0.5,0.5c0,0.3-0.2,0.5-0.5,0.5
							C166.1,49.9,165.9,49.7,165.9,49.3z M167.5,48.8h0.4l-1.3,1.9h-0.4L167.5,48.8z M166.6,49.3c0-0.2-0.1-0.3-0.2-0.3
							c-0.1,0-0.2,0.1-0.2,0.3s0.1,0.3,0.2,0.3C166.5,49.6,166.6,49.5,166.6,49.3z M167.2,50.2c0-0.3,0.2-0.5,0.5-0.5
							c0.3,0,0.5,0.2,0.5,0.5c0,0.3-0.2,0.5-0.5,0.5C167.4,50.7,167.2,50.6,167.2,50.2z M167.9,50.2c0-0.2-0.1-0.3-0.2-0.3
							c-0.1,0-0.2,0.1-0.2,0.3c0,0.2,0.1,0.3,0.2,0.3C167.8,50.5,167.9,50.4,167.9,50.2z"/>
					</g>
				</g>
			</g>
			<g>
				<g>
					<g>
						<g>
							<g>
								<g>
									<circle class="st17" cx="136.2" cy="69.6" r="0.7"/>
								</g>
							</g>
						</g>
						<g>
							<g>
								<g>
									<path class="st17" d="M136.2,70.8c-0.7,0-1.2-0.6-1.2-1.2c0-0.7,0.6-1.2,1.2-1.2c0.7,0,1.2,0.6,1.2,1.2
										C137.5,70.3,136.9,70.8,136.2,70.8z M136.2,68.5c-0.6,0-1.1,0.5-1.1,1.1c0,0.6,0.5,1.1,1.1,1.1c0.6,0,1.1-0.5,1.1-1.1
										C137.4,69,136.9,68.5,136.2,68.5z"/>
								</g>
							</g>
						</g>
						<g>
							<g>
								<g>
									<path class="st17" d="M114.9,77.9c0,0.4-0.3,0.7-0.7,0.7s-0.7-0.3-0.7-0.7c0-0.4,0.3-0.7,0.7-0.7S114.9,77.5,114.9,77.9z"
										/>
								</g>
							</g>
						</g>
						<g>
							<g>
								<g>
									<path class="st17" d="M114.2,79.2c-0.7,0-1.2-0.6-1.2-1.2c0-0.7,0.6-1.2,1.2-1.2c0.7,0,1.2,0.6,1.2,1.2
										C115.4,78.6,114.9,79.2,114.2,79.2z M114.2,76.8c-0.6,0-1.1,0.5-1.1,1.1c0,0.6,0.5,1.1,1.1,1.1c0.6,0,1.1-0.5,1.1-1.1
										C115.3,77.3,114.8,76.8,114.2,76.8z"/>
								</g>
							</g>
						</g>
					</g>
					<g>
						<path class="st17" d="M157.8,83.1l-7.9-7.4c-5-2.4-12.8-6-13.7-5.9c-1,0.1-20.2,7.6-27.6,10.6l-0.1-0.4
							c1.1-0.4,26.4-10.5,27.7-10.6c0,0,0,0,0,0c1.4,0,12.6,5.4,13.9,6l0,0l7.7,7.3c1.5-0.8,9.9-5.2,10-5.3c0,0,0.2-0.1,11.8-0.1
							v0.4c-4.4,0-11.1,0-11.6,0.1c-0.4,0.2-6.8,3.6-10.1,5.3L157.8,83.1z"/>
					</g>
				</g>
				<g>
					<g>
						<g>
							<path class="st17" d="M150.6,75.3c0,0.4-0.3,0.7-0.7,0.7c-0.4,0-0.7-0.3-0.7-0.7s0.3-0.7,0.7-0.7
								C150.3,74.7,150.6,75,150.6,75.3z"/>
						</g>
					</g>
				</g>
				<g>
					<g>
						<g>
							<path class="st17" d="M149.9,76.6c-0.7,0-1.2-0.6-1.2-1.2s0.6-1.2,1.2-1.2c0.7,0,1.2,0.6,1.2,1.2S150.6,76.6,149.9,76.6z
								 M149.9,74.2c-0.6,0-1.1,0.5-1.1,1.1c0,0.6,0.5,1.1,1.1,1.1c0.6,0,1.1-0.5,1.1-1.1C151.1,74.7,150.6,74.2,149.9,74.2z"/>
						</g>
					</g>
				</g>
				<g>
					<g>
						<g>
							<path class="st17" d="M168.6,77.4c0,0.4-0.3,0.7-0.7,0.7c-0.4,0-0.7-0.3-0.7-0.7s0.3-0.7,0.7-0.7
								C168.3,76.7,168.6,77,168.6,77.4z"/>
						</g>
					</g>
				</g>
				<g>
					<g>
						<g>
							<path class="st17" d="M167.9,78.6c-0.7,0-1.2-0.6-1.2-1.2c0-0.7,0.6-1.2,1.2-1.2c0.7,0,1.2,0.6,1.2,1.2
								C169.2,78.1,168.6,78.6,167.9,78.6z M167.9,76.3c-0.6,0-1.1,0.5-1.1,1.1c0,0.6,0.5,1.1,1.1,1.1c0.6,0,1.1-0.5,1.1-1.1
								C169.1,76.8,168.6,76.3,167.9,76.3z"/>
						</g>
					</g>
				</g>
			</g>
		</g>
		<g>
			<g>
				<path class="st15" d="M179.3,89.8c0,0,0.1,0,0.2,0c0.1,0,0.1,0,0.2,0c0.1,0,0.2,0,0.3,0c0.2,0,0.5-0.1,0.9-0.3
					c0.3-0.1,0.7-0.3,1.1-0.7c0.4-0.3,0.7-0.7,1-1.2c0.3-0.5,0.5-1.1,0.5-1.8c0-1.4,0-3,0-4.8c0-7.2,0-17.6,0-30.5
					c0-6.4,0-13.5,0-21.1c0-0.9,0-1.9,0-2.9c0-0.5,0-1-0.1-1.4c-0.1-0.4-0.4-0.9-0.7-1.2c-0.3-0.3-0.8-0.6-1.2-0.7
					c-0.5-0.1-1-0.1-1.5-0.1c-1,0-2,0-3,0c-4,0-8.2,0-12.4,0c-17,0-35.8,0-55.4,0c-0.6,0-1.2,0-1.8,0c-0.6,0.1-1.1,0.3-1.5,0.8
					c-0.4,0.4-0.6,1-0.6,1.6c0,0.6,0,1.2,0,1.8c0,2.4,0,4.8,0,7.2c0,4.8,0,9.5,0,14.1c0,9.3,0,18.2,0,26.7c0,2.1,0,4.2,0,6.3
					c0,1,0,2.1,0,3.1c0,0.5,0,1,0.1,1.5c0.1,0.5,0.3,1,0.5,1.4c0.5,0.8,1.3,1.5,2.3,1.8c0.5,0.2,1,0.2,1.4,0.2c0.5,0,1,0,1.5,0
					c2,0,3.9,0,5.8,0c7.6,0,14.6,0,21.1,0c12.9,0,23.3,0,30.5,0c3.6,0,6.4,0,8.3,0c0.9,0,1.7,0,2.2,0
					C179,89.8,179.3,89.8,179.3,89.8s-0.2,0-0.7,0c-0.5,0-1.2,0-2.2,0c-1.9,0-4.7,0-8.3,0c-7.2,0-17.6,0-30.5,0
					c-6.4,0-13.5,0-21.1,0c-1.9,0-3.8,0-5.8,0c-0.5,0-1,0-1.5,0c-0.5,0-1,0-1.5-0.2c-1-0.3-1.8-1-2.4-1.8c-0.3-0.4-0.5-0.9-0.6-1.4
					c-0.1-0.5-0.1-1-0.1-1.5c0-1,0-2.1,0-3.1c0-2.1,0-4.2,0-6.3c0-8.5,0-17.5,0-26.7c0-4.6,0-9.4,0-14.1c0-2.4,0-4.8,0-7.2
					c0-0.6,0-1.2,0-1.8c0-0.6,0.2-1.3,0.7-1.7c0.4-0.5,1-0.8,1.7-0.8c0.6,0,1.2,0,1.8,0c19.7,0,38.4,0,55.4,0c4.3,0,8.4,0,12.4,0
					c1,0,2,0,3,0l0.7,0c0.3,0,0.5,0,0.8,0.1c0.5,0.1,0.9,0.4,1.3,0.7c0.4,0.3,0.6,0.8,0.8,1.3c0.2,0.5,0.1,1,0.1,1.5
					c0,1,0,1.9,0,2.9c0,7.6,0,14.6,0,21.1c0,12.9,0,23.3,0,30.5c0,1.8,0,3.4,0,4.8c0,0.7-0.2,1.3-0.5,1.8c-0.3,0.5-0.6,0.9-1,1.2
					c-0.4,0.3-0.7,0.5-1.1,0.6c-0.3,0.1-0.6,0.2-0.9,0.2c-0.1,0-0.2,0-0.3,0c-0.1,0-0.2,0-0.2,0C179.3,89.8,179.3,89.8,179.3,89.8z"
					/>
			</g>
		</g>
	</g>
</g>
</svg>
