<?xml version="1.0" encoding="utf-8"?>
<!-- Generator: Adobe Illustrator 24.1.1, SVG Export Plug-In . SVG Version: 6.00 Build 0)  -->
<svg version="1.1" id="Layer_1" xmlns="http://www.w3.org/2000/svg" xmlns:xlink="http://www.w3.org/1999/xlink" x="0px" y="0px"
	 viewBox="0 0 50 50" style="enable-background:new 0 0 50 50;" xml:space="preserve">
<style type="text/css">
	.st0{fill:none;stroke:#000000;stroke-miterlimit:10;}
	.st1{stroke:#000000;stroke-width:0.5;}
</style>
<g>
	<path class="st0" d="M14.2,11c0,2.8-2.3,5.1-5.1,5.1S4.1,13.8,4.1,11s2.3-5.1,5.1-5.1S14.2,8.2,14.2,11"/>
	<path class="st0" d="M26.8,17.4c0.8-0.6,1-1.7,0.3-2.4c-0.6-0.8-1.7-1-2.4-0.3l-6.4,4.8l-2.9-1.5c-0.3-0.2-0.5-0.2-0.8-0.2H4.4
		c-1,0-1.7,0.8-1.7,1.7v8.9c0,1,0.8,1.7,1.7,1.7v0.1h10.3v-8.8l2.9,1.6c0.6,0.3,1.3,0.3,1.8-0.2L26.8,17.4z"/>
	<path class="st0" d="M15.2,37.2c0,2.2-1.8,4.1-4.1,4.1s-4.1-1.8-4.1-4.1c0-2.2,1.8-4.1,4.1-4.1S15.2,35,15.2,37.2"/>
	<path class="st0" d="M13,42.9H9.4c-2.3,0-4,2.5-4,4.8H17C17,45.4,15.2,42.9,13,42.9z"/>
	<path class="st0" d="M28.4,37.2c0,2.2-1.8,4.1-4.1,4.1s-4.1-1.8-4.1-4.1c0-2.2,1.8-4.1,4.1-4.1S28.4,35,28.4,37.2"/>
	<path class="st0" d="M26.1,42.9h-3.5c-2.3,0-4,2.5-4,4.8h11.6C30.2,45.4,28.3,42.9,26.1,42.9z"/>
	<path class="st0" d="M41.6,37.2c0,2.2-1.8,4.1-4.1,4.1c-2.2,0-4.1-1.8-4.1-4.1c0-2.2,1.8-4.1,4.1-4.1C39.8,33.2,41.6,35,41.6,37.2"
		/>
	<path class="st0" d="M39.3,42.9h-3.6c-2.3,0-4,2.5-4,4.8h11.6C43.4,45.4,41.6,42.9,39.3,42.9z"/>
	<path class="st0" d="M20.1,13.2V3.8c0-0.8,0.7-1.5,1.5-1.5h24.3c0.8,0,1.5,0.7,1.5,1.5v19.9c0,0.8-0.7,1.5-1.5,1.5H23.5"/>
	<g>
		<path class="st1" d="M29.5,6.2V9h2.6v1h-2.6v2.8h-1V9.9h-2.6V9h2.6V6.2H29.5z"/>
	</g>
	<g>
		<path class="st1" d="M37.2,15.8l1.9,1.9l1.9-1.9l0.7,0.7l-1.9,1.9l2,2L41,21.1l-2-2L37.2,21l-0.7-0.7l1.9-1.9l-1.9-1.9L37.2,15.8z
			"/>
	</g>
	<g>
		<path class="st1" d="M41.9,8.9v1h-5.7v-1H41.9z"/>
	</g>
</g>
</svg>
