<?xml version="1.0" encoding="utf-8"?>
<!-- Generator: Adobe Illustrator 24.1.1, SVG Export Plug-In . SVG Version: 6.00 Build 0)  -->
<svg version="1.1" id="Layer_1" xmlns="http://www.w3.org/2000/svg" xmlns:xlink="http://www.w3.org/1999/xlink" x="0px" y="0px"
	 viewBox="0 0 212 160" style="enable-background:new 0 0 212 160;" xml:space="preserve">
<style type="text/css">
	.st0{opacity:0.4;fill:#3B66AF;enable-background:new    ;}
	.st1{fill:#B7E0EE;}
	.st2{clip-path:url(#SVGID_2_);}
	.st3{opacity:0.5;}
	.st4{fill:#65E2E2;}
	.st5{fill:#7DEAE8;}
	.st6{fill:#86E9E6;}
	.st7{fill:#7DA4F9;}
	.st8{fill:#BB6B33;}
	.st9{fill:#FFAE73;}
	.st10{fill:#FB995B;}
	.st11{fill:#FFFFFF;}
	.st12{fill:#1F346F;}
	.st13{fill:#172D5C;}
	.st14{fill:#E6F2FF;}
	.st15{fill:#C2DBF3;}
	.st16{fill:#FF8B57;}
	.st17{fill:#E96F48;}
	.st18{fill:#32478F;}
	.st19{fill:#25468F;}
	.st20{fill:#A9C2FF;}
	.st21{fill:#A4563D;}
	.st22{fill:#8B4939;}
	.st23{fill:#8E4D3D;}
	.st24{fill:#9EC5F7;}
	.st25{fill:#752917;}
	.st26{fill:#D68450;}
	.st27{fill:#BA7447;}
	.st28{fill:#C24039;}
	.st29{fill:#B73007;}
	.st30{fill:#F48F4E;}
	.st31{fill:#1C3E7B;}
	.st32{fill:#4CD0CE;}
	.st33{fill:#A8CCFF;}
	.st34{opacity:0.4;}
	.st35{fill:#84ECE6;}
	.st36{fill:#5B9EF6;}
	.st37{fill:#9BD399;}
	.st38{fill:#FC9F38;}
	.st39{fill:#E8F2FA;}
	.st40{fill:#D85800;}
	.st41{fill:#FF912B;}
	.st42{fill:#B53C37;}
	.st43{fill:#CBDBE5;}
	.st44{fill:#D44B40;}
	.st45{fill:#F1DDCB;}
	.st46{fill:#214D9A;}
	.st47{fill:#FFEBD8;}
	.st48{fill:#D8403C;}
	.st49{fill:#5C9CF4;}
	.st50{fill:#448DE8;}
	.st51{fill:#F9D0B3;}
	.st52{fill:#478BE0;}
	.st53{fill:#FC7600;}
</style>
<g>
	<path class="st0" d="M192.2,157.3H27.6c-9.9,0-17.9-8-17.9-17.9v-112c0-9.9,8-17.9,17.9-17.9h164.6c9.9,0,17.9,8,17.9,17.9v112
		C210,149.3,202,157.3,192.2,157.3z"/>
	<path class="st1" d="M184.4,150.5H19.8c-9.9,0-17.9-8-17.9-17.9v-112c0-9.9,8-17.9,17.9-17.9h164.6c9.9,0,17.9,8,17.9,17.9v112
		C202.3,142.5,194.3,150.5,184.4,150.5z"/>
	<g>
		<g>
			<defs>
				<path id="SVGID_1_" d="M184.4,150.5H19.8c-9.9,0-17.9-8-17.9-17.9v-112c0-9.9,8-17.9,17.9-17.9h164.6c9.9,0,17.9,8,17.9,17.9
					v112C202.3,142.5,194.3,150.5,184.4,150.5z"/>
			</defs>
			<clipPath id="SVGID_2_">
				<use xlink:href="#SVGID_1_"  style="overflow:visible;"/>
			</clipPath>
			<g class="st2">
				<g class="st3">
					<g>
						<path class="st4" d="M108.7,103.5H7.4V16c0-3.9,3.1-7,7-7h88.4c3.2,0,5.9,2.6,5.9,5.9V103.5z M9,101.9h98.1v-87
							c0-2.4-1.9-4.3-4.3-4.3H14.4C11.5,10.5,9,13,9,16V101.9z"/>
					</g>
					<rect x="8.2" y="27.3" class="st4" width="99.7" height="1.8"/>
					<rect x="8.2" y="41.6" class="st4" width="99.7" height="1.8"/>
					<rect x="8.2" y="55.8" class="st4" width="99.7" height="1.8"/>
					<rect x="8.2" y="70.1" class="st4" width="99.7" height="1.8"/>
					<g>
						
							<rect x="30" y="60.9" transform="matrix(-1 -1.224647e-16 1.224647e-16 -1 62.4221 131.0076)" class="st4" width="2.5" height="9.3"/>
						
							<rect x="27.2" y="60.1" transform="matrix(-1 -1.224647e-16 1.224647e-16 -1 56.6149 130.2029)" class="st4" width="2.2" height="10.1"/>
						
							<rect x="24.5" y="60.1" transform="matrix(-0.9926 -0.1215 0.1215 -0.9926 42.9981 132.824)" class="st4" width="2.2" height="10.1"/>
						
							<rect x="99.5" y="60.9" transform="matrix(-1 -1.224647e-16 1.224647e-16 -1 201.5083 131.0076)" class="st4" width="2.5" height="9.3"/>
						
							<rect x="96.8" y="60.1" transform="matrix(-1 -1.224647e-16 1.224647e-16 -1 195.7012 130.2029)" class="st4" width="2.2" height="10.1"/>
						
							<rect x="94" y="60.1" transform="matrix(-0.9926 -0.1215 0.1215 -0.9926 181.5694 141.271)" class="st4" width="2.2" height="10.1"/>
						
							<rect x="11.7" y="68.3" transform="matrix(-1 -1.224647e-16 1.224647e-16 -1 33.6439 138.4584)" class="st4" width="10.2" height="1.8"/>
						
							<rect x="10.5" y="67.1" transform="matrix(-1 -1.224647e-16 1.224647e-16 -1 31.155 135.4014)" class="st4" width="10.2" height="1.2"/>
						
							<rect x="11.5" y="65.8" transform="matrix(-1 -1.224647e-16 1.224647e-16 -1 32.7365 132.9102)" class="st4" width="9.8" height="1.2"/>
						
							<rect x="11.3" y="64.9" transform="matrix(-1 -1.224647e-16 1.224647e-16 -1 31.3186 130.7134)" class="st4" width="8.8" height="1"/>
						
							<rect x="60.6" y="68.3" transform="matrix(-1 -1.224647e-16 1.224647e-16 -1 131.3412 138.4584)" class="st4" width="10.2" height="1.8"/>
						
							<rect x="59.3" y="67.1" transform="matrix(-1 -1.224647e-16 1.224647e-16 -1 128.8523 135.4014)" class="st4" width="10.2" height="1.2"/>
						
							<rect x="60.3" y="65.8" transform="matrix(-1 -1.224647e-16 1.224647e-16 -1 130.4337 132.9102)" class="st4" width="9.8" height="1.2"/>
						
							<rect x="60.1" y="64.9" transform="matrix(-1 -1.224647e-16 1.224647e-16 -1 129.0159 130.7134)" class="st4" width="8.8" height="1"/>
						
							<rect x="59" y="63.6" transform="matrix(-1 -1.224647e-16 1.224647e-16 -1 128.1819 128.5164)" class="st4" width="10.2" height="1.2"/>
						
							<rect x="60" y="62.4" transform="matrix(-1 -1.224647e-16 1.224647e-16 -1 129.7635 126.0252)" class="st4" width="9.8" height="1.2"/>
						
							<rect x="59.8" y="61.4" transform="matrix(-1 -1.224647e-16 1.224647e-16 -1 128.3456 123.8282)" class="st4" width="8.8" height="1"/>
						
							<rect x="53" y="60.1" transform="matrix(-1 -1.224647e-16 1.224647e-16 -1 107.6413 130.163)" class="st4" width="1.7" height="10"/>
						
							<rect x="74.3" y="59.6" transform="matrix(-1 -1.224647e-16 1.224647e-16 -1 150.307 129.7035)" class="st4" width="1.7" height="10.5"/>
						
							<rect x="79.5" y="60.1" transform="matrix(-1 -1.224647e-16 1.224647e-16 -1 160.8179 130.163)" class="st4" width="1.7" height="10"/>
						
							<rect x="50.8" y="59.2" transform="matrix(-1 -1.224647e-16 1.224647e-16 -1 103.7139 129.3363)" class="st4" width="2.2" height="10.9"/>
						
							<rect x="81.6" y="59.2" transform="matrix(-1 -1.224647e-16 1.224647e-16 -1 165.4679 129.3363)" class="st4" width="2.2" height="10.9"/>
						
							<rect x="48.6" y="59.8" transform="matrix(-1 -1.224647e-16 1.224647e-16 -1 99.3289 129.8536)" class="st4" width="2.2" height="10.3"/>
						
							<rect x="70.1" y="58.3" transform="matrix(-0.9851 0.172 -0.172 -0.9851 152.2637 115.0673)" class="st4" width="2.2" height="11.7"/>
						
							<rect x="46.4" y="61.3" transform="matrix(-1 -1.224647e-16 1.224647e-16 -1 94.9439 131.4386)" class="st4" width="2.2" height="8.8"/>
						
							<rect x="84.5" y="61.3" transform="matrix(-1 -1.224647e-16 1.224647e-16 -1 171.2053 131.4386)" class="st4" width="2.2" height="8.8"/>
						
							<rect x="44.2" y="60.9" transform="matrix(-1 -1.224647e-16 1.224647e-16 -1 90.5589 130.9677)" class="st4" width="2.2" height="9.2"/>
						
							<rect x="41.6" y="60.9" transform="matrix(-1 -1.224647e-16 1.224647e-16 -1 85.4726 130.9677)" class="st4" width="2.2" height="9.2"/>
						
							<rect x="87" y="60.9" transform="matrix(-1 -1.224647e-16 1.224647e-16 -1 176.1999 130.9677)" class="st4" width="2.2" height="9.2"/>
						
							<rect x="39" y="60.1" transform="matrix(-1 -1.224647e-16 1.224647e-16 -1 80.2681 130.163)" class="st4" width="2.2" height="10"/>
						
							<rect x="77.1" y="60.1" transform="matrix(-1 -1.224647e-16 1.224647e-16 -1 156.4447 130.163)" class="st4" width="2.2" height="10"/>
					</g>
					<rect x="8.2" y="90.1" class="st4" width="99.7" height="1.8"/>
					<g>
						
							<rect x="30" y="80.9" transform="matrix(-1 -1.224647e-16 1.224647e-16 -1 62.4221 171.0271)" class="st4" width="2.5" height="9.3"/>
						
							<rect x="27.2" y="80.1" transform="matrix(-1 -1.224647e-16 1.224647e-16 -1 56.6149 170.2224)" class="st4" width="2.2" height="10.1"/>
						
							<rect x="24.5" y="80.1" transform="matrix(-0.9926 -0.1215 0.1215 -0.9926 40.5655 172.6956)" class="st4" width="2.2" height="10.1"/>
						
							<rect x="99.5" y="80.9" transform="matrix(-1 -1.224647e-16 1.224647e-16 -1 201.5083 171.0271)" class="st4" width="2.5" height="9.3"/>
						
							<rect x="96.8" y="80.1" transform="matrix(-1 -1.224647e-16 1.224647e-16 -1 195.7012 170.2224)" class="st4" width="2.2" height="10.1"/>
						
							<rect x="94" y="80.1" transform="matrix(-0.9926 -0.1215 0.1215 -0.9926 179.1366 181.1443)" class="st4" width="2.2" height="10.1"/>
						
							<rect x="11.7" y="88.3" transform="matrix(-1 -1.224647e-16 1.224647e-16 -1 33.6439 178.4779)" class="st4" width="10.2" height="1.8"/>
						
							<rect x="10.5" y="87.1" transform="matrix(-1 -1.224647e-16 1.224647e-16 -1 31.155 175.4209)" class="st4" width="10.2" height="1.2"/>
						
							<rect x="11.5" y="85.8" transform="matrix(-1 -1.224647e-16 1.224647e-16 -1 32.7365 172.9296)" class="st4" width="9.8" height="1.2"/>
						
							<rect x="11.3" y="84.9" transform="matrix(-1 -1.224647e-16 1.224647e-16 -1 31.3186 170.7327)" class="st4" width="8.8" height="1"/>
						
							<rect x="60.6" y="88.3" transform="matrix(-1 -1.224647e-16 1.224647e-16 -1 131.3412 178.4779)" class="st4" width="10.2" height="1.8"/>
						
							<rect x="59.3" y="87.1" transform="matrix(-1 -1.224647e-16 1.224647e-16 -1 128.8523 175.4209)" class="st4" width="10.2" height="1.2"/>
						
							<rect x="60.3" y="85.8" transform="matrix(-1 -1.224647e-16 1.224647e-16 -1 130.4337 172.9296)" class="st4" width="9.8" height="1.2"/>
						
							<rect x="60.1" y="84.9" transform="matrix(-1 -1.224647e-16 1.224647e-16 -1 129.0159 170.7327)" class="st4" width="8.8" height="1"/>
						
							<rect x="59" y="83.6" transform="matrix(-1 -1.224647e-16 1.224647e-16 -1 128.1819 168.5359)" class="st4" width="10.2" height="1.2"/>
						
							<rect x="60" y="82.4" transform="matrix(-1 -1.224647e-16 1.224647e-16 -1 129.7635 166.0447)" class="st4" width="9.8" height="1.2"/>
						
							<rect x="59.8" y="81.4" transform="matrix(-1 -1.224647e-16 1.224647e-16 -1 128.3456 163.8477)" class="st4" width="8.8" height="1"/>
						
							<rect x="47.6" y="80.1" transform="matrix(-1 -1.224647e-16 1.224647e-16 -1 97.001 170.1825)" class="st4" width="1.7" height="10"/>
						
							<rect x="74.3" y="79.6" transform="matrix(-1 -1.224647e-16 1.224647e-16 -1 150.307 169.7231)" class="st4" width="1.7" height="10.5"/>
						
							<rect x="79.5" y="80.1" transform="matrix(-1 -1.224647e-16 1.224647e-16 -1 160.8179 170.1825)" class="st4" width="1.7" height="10"/>
						
							<rect x="45.4" y="79.3" transform="matrix(-1 -1.224647e-16 1.224647e-16 -1 93.0736 169.3558)" class="st4" width="2.2" height="10.9"/>
						
							<rect x="81.6" y="79.3" transform="matrix(-1 -1.224647e-16 1.224647e-16 -1 165.4679 169.3558)" class="st4" width="2.2" height="10.9"/>
						
							<rect x="43.2" y="79.8" transform="matrix(-1 -1.224647e-16 1.224647e-16 -1 88.6887 169.873)" class="st4" width="2.2" height="10.3"/>
						
							<rect x="70.1" y="78.3" transform="matrix(-0.9851 0.172 -0.172 -0.9851 155.7034 154.7902)" class="st4" width="2.2" height="11.7"/>
						
							<rect x="41.1" y="81.4" transform="matrix(-1 -1.224647e-16 1.224647e-16 -1 84.3036 171.4581)" class="st4" width="2.2" height="8.8"/>
						
							<rect x="84.5" y="81.4" transform="matrix(-1 -1.224647e-16 1.224647e-16 -1 171.2053 171.4581)" class="st4" width="2.2" height="8.8"/>
						
							<rect x="38.9" y="80.9" transform="matrix(-1 -1.224647e-16 1.224647e-16 -1 79.9186 170.9872)" class="st4" width="2.2" height="9.2"/>
						
							<rect x="36.3" y="80.9" transform="matrix(-1 -1.224647e-16 1.224647e-16 -1 74.8324 170.9872)" class="st4" width="2.2" height="9.2"/>
						
							<rect x="87" y="80.9" transform="matrix(-1 -1.224647e-16 1.224647e-16 -1 176.1999 170.9872)" class="st4" width="2.2" height="9.2"/>
						
							<rect x="33.7" y="80.1" transform="matrix(-1 -1.224647e-16 1.224647e-16 -1 69.6279 170.1825)" class="st4" width="2.2" height="10"/>
						
							<rect x="77.1" y="80.1" transform="matrix(-1 -1.224647e-16 1.224647e-16 -1 156.4447 170.1825)" class="st4" width="2.2" height="10"/>
					</g>
					<g>
						<rect x="80" y="18.1" class="st5" width="2.5" height="9.3"/>
						<rect x="83.1" y="17.3" class="st5" width="2.2" height="10.1"/>
						
							<rect x="85.9" y="17.3" transform="matrix(0.9926 -0.1215 0.1215 0.9926 -2.0651 10.7253)" class="st5" width="2.2" height="10.1"/>
						<rect x="40" y="32.3" class="st5" width="2.5" height="9.3"/>
						<rect x="43" y="31.5" class="st6" width="2.2" height="10.1"/>
						
							<rect x="45.8" y="31.5" transform="matrix(0.9926 -0.1214 0.1214 0.9926 -4.0884 5.964)" class="st4" width="2.2" height="10.1"/>
						<rect x="10.5" y="18.1" class="st5" width="2.5" height="9.3"/>
						<rect x="13.6" y="17.3" class="st6" width="2.2" height="10.1"/>
						
							<rect x="16.3" y="17.3" transform="matrix(0.9926 -0.1215 0.1215 0.9926 -2.5801 2.2783)" class="st6" width="2.2" height="10.1"/>
						<rect x="90.6" y="25.5" class="st5" width="10.2" height="1.8"/>
						<rect x="91.8" y="24.3" class="st4" width="10.2" height="1.2"/>
						<rect x="91.2" y="23" class="st5" width="9.8" height="1.2"/>
						<rect x="92.4" y="22.1" class="st5" width="8.8" height="1"/>
						<rect x="41.7" y="25.5" class="st5" width="10.2" height="1.8"/>
						<rect x="43" y="24.3" class="st4" width="10.2" height="1.2"/>
						<rect x="42.4" y="23" class="st5" width="9.8" height="1.2"/>
						<rect x="43.6" y="22.1" class="st5" width="8.8" height="1"/>
						<rect x="43.3" y="20.8" class="st4" width="10.2" height="1.2"/>
						<rect x="42.7" y="19.6" class="st5" width="9.8" height="1.2"/>
						<rect x="43.9" y="18.6" class="st5" width="8.8" height="1"/>
						<rect x="57.8" y="17.3" class="st5" width="1.7" height="10"/>
						<rect x="36.5" y="16.8" class="st5" width="1.7" height="10.5"/>
						<rect x="31.2" y="17.3" class="st5" width="1.7" height="10"/>
						<rect x="59.5" y="16.4" class="st4" width="2.2" height="10.9"/>
						<rect x="28.7" y="16.4" class="st4" width="2.2" height="10.9"/>
						<rect x="61.7" y="17" class="st5" width="2.2" height="10.3"/>
						
							<rect x="40.2" y="15.5" transform="matrix(0.9851 0.172 -0.172 0.9851 4.2839 -6.7915)" class="st5" width="2.2" height="11.7"/>
						<rect x="73.6" y="39.7" class="st6" width="10.2" height="1.8"/>
						<rect x="74.8" y="38.5" class="st5" width="10.2" height="1.2"/>
						<rect x="74.2" y="37.3" class="st4" width="9.8" height="1.2"/>
						<rect x="75.4" y="36.3" class="st5" width="8.8" height="1"/>
						<rect x="75.2" y="35.1" class="st5" width="10.2" height="1.2"/>
						<rect x="74.6" y="33.8" class="st4" width="9.8" height="1.2"/>
						<rect x="75.8" y="32.9" class="st5" width="8.8" height="1"/>
						
							<rect x="72.1" y="29.7" transform="matrix(0.9851 0.172 -0.172 0.9851 7.2043 -12.0576)" class="st6" width="2.2" height="11.7"/>
						<rect x="63.9" y="18.5" class="st6" width="2.2" height="8.8"/>
						<rect x="25.8" y="18.5" class="st5" width="2.2" height="8.8"/>
						<rect x="66.1" y="18.1" class="st4" width="2.2" height="9.2"/>
						<rect x="68.7" y="18.1" class="st6" width="2.2" height="9.2"/>
						<rect x="23.3" y="18.1" class="st5" width="2.2" height="9.2"/>
						<rect x="65.4" y="30.7" class="st6" width="2.2" height="10.9"/>
						<rect x="62.5" y="32.8" class="st6" width="2.2" height="8.8"/>
						<rect x="60.1" y="32.3" class="st5" width="2.2" height="9.2"/>
						<rect x="52.7" y="32.3" class="st6" width="2.2" height="9.2"/>
						<rect x="49.7" y="32.3" class="st6" width="2.2" height="9.2"/>
						<rect x="15.1" y="30.7" class="st4" width="2.2" height="10.9"/>
						
							<rect x="18" y="30.7" transform="matrix(0.9926 -0.1215 0.1215 0.9926 -4.2471 2.5861)" class="st5" width="2.2" height="10.9"/>
						<rect x="12.3" y="32.8" class="st5" width="2.2" height="8.8"/>
						<rect x="9.8" y="32.3" class="st5" width="2.2" height="9.2"/>
						<rect x="71.3" y="17.3" class="st5" width="2.2" height="10"/>
						<rect x="47.9" y="45.8" class="st5" width="1.7" height="10"/>
						<rect x="49.6" y="45" class="st4" width="2.2" height="10.9"/>
						<rect x="51.8" y="45.5" class="st5" width="2.2" height="10.3"/>
						<rect x="54" y="47.1" class="st6" width="2.2" height="8.8"/>
						<rect x="56.2" y="46.6" class="st4" width="2.2" height="9.2"/>
						<rect x="58.7" y="46.6" class="st5" width="2.2" height="9.2"/>
						<rect x="61.3" y="45.8" class="st5" width="2.2" height="10"/>
						<rect x="88.3" y="31.5" class="st6" width="1.7" height="10"/>
						<rect x="90" y="30.7" class="st6" width="2.2" height="10.9"/>
						<rect x="92.2" y="31.2" class="st4" width="2.2" height="10.3"/>
						<rect x="94.4" y="32.8" class="st5" width="2.2" height="8.8"/>
						<rect x="96.6" y="32.3" class="st6" width="2.2" height="9.2"/>
						<rect x="99.1" y="32.3" class="st5" width="2.2" height="9.2"/>
						<rect x="101.8" y="31.5" class="st6" width="2.2" height="10"/>
						<rect x="33.2" y="17.3" class="st5" width="2.2" height="10"/>
						<rect x="84.8" y="54.1" class="st6" width="10.2" height="1.8"/>
						<rect x="86.1" y="52.8" class="st5" width="10.2" height="1.2"/>
						<rect x="85.5" y="51.6" class="st4" width="9.8" height="1.2"/>
						<rect x="86.7" y="50.6" class="st6" width="8.8" height="1"/>
						<rect x="86.4" y="49.4" class="st5" width="10.2" height="1.2"/>
						<rect x="85.8" y="48.1" class="st4" width="9.8" height="1.2"/>
						<rect x="87" y="47.2" class="st5" width="8.8" height="1"/>
						<rect x="79.6" y="45.3" class="st5" width="1.7" height="10.5"/>
						<rect x="74.3" y="45.8" class="st6" width="1.7" height="10"/>
						<rect x="71.7" y="45" class="st6" width="2.2" height="10.9"/>
						
							<rect x="83.3" y="44" transform="matrix(0.9851 0.172 -0.172 0.9851 9.8324 -13.7772)" class="st5" width="2.2" height="11.7"/>
						<rect x="68.9" y="47.1" class="st5" width="2.2" height="8.8"/>
						<rect x="66.4" y="46.6" class="st5" width="2.2" height="9.2"/>
						<rect x="43.3" y="45" class="st5" width="2.2" height="10.9"/>
						<rect x="40.4" y="47.1" class="st6" width="2.2" height="8.8"/>
						<rect x="37.9" y="46.6" class="st5" width="2.2" height="9.2"/>
						<rect x="34.5" y="45" class="st4" width="2.2" height="10.9"/>
						<rect x="31.7" y="47.1" class="st5" width="2.2" height="8.8"/>
						<rect x="29.2" y="46.6" class="st5" width="2.2" height="9.2"/>
						<rect x="76.3" y="45.8" class="st6" width="2.2" height="10"/>
					</g>
				</g>
				<g>
					<g>
						<g>
							<g>
								<g>
									<path class="st7" d="M36.3,109.6C36.3,109.6,36.3,109.6,36.3,109.6c-0.2,0-0.4-0.1-0.4-0.3l-4.2-17.8l0,0l-0.3-1.3l1.4-0.1
										l0.5,2.4l3.2,16.7C36.5,109.5,36.4,109.6,36.3,109.6z"/>
								</g>
								<g>
									<path class="st7" d="M15.2,90.3l-0.7,2.9l-3.8,16.2c0,0.2-0.2,0.3-0.4,0.3c0,0,0,0-0.1,0c-0.1,0-0.2-0.1-0.2-0.2l3.4-17.8
										l0.3-1.3L15.2,90.3z"/>
								</g>
								<path class="st7" d="M15.2,90.3l-0.7,2.9c-0.1-1.2-1-1.7-1-1.7l0.3-1.3L15.2,90.3z"/>
								<path class="st7" d="M33.3,92.6c-0.7-1-1.6-1-1.6-1.1l0,0l-0.3-1.3l1.4-0.1L33.3,92.6z"/>
							</g>
							<path class="st7" d="M33,90.4H12.3c-1,0-1.8-0.8-1.8-1.8v-1.4c0-1,0.8-1.8,1.8-1.8H33c1,0,1.8,0.8,1.8,1.8v1.4
								C34.8,89.6,34,90.4,33,90.4z"/>
						</g>
						<path class="st7" d="M34.1,86.9H11.2c-0.6,0-1.2-0.5-1.2-1.2V66.2c0-0.6,0.5-1.2,1.2-1.2h22.9c0.6,0,1.2,0.5,1.2,1.2v19.6
							C35.3,86.4,34.8,86.9,34.1,86.9z"/>
					</g>
					<path class="st8" d="M23.2,48c0,0-2.8-1-4.4,0.3c-1.6,1.3-2.7,8.1-2.1,9.4c0.5,1.3,2.1,2,2.1,2s-0.3-0.7-0.2-1.3
						c0,0,0.5,1.5,1.7,1.7c1.2,0.3,5.5-0.1,6.4-0.4c1-0.4,1.5-0.8,1.8-2C28.7,56.5,29.7,45.9,23.2,48z"/>
					<path class="st9" d="M30.3,80.8c-0.6-3.3-2.3-7-2.3-7c1.3-5.2,0-11.1,0-11.1c-0.7-0.2-1.4-0.3-2.1-0.4
						c-0.1-0.5-0.3-1.9-0.5-3.1c0-0.1,0-0.3,0-0.4c0-0.3,0-0.7,0-0.9L24.5,58l-3.7,0.2l-0.2,0c0,0,0,0.3,0,0.8c0,0.9,0,2.3-0.3,3.3
						c-1.6,0.2-2.6,0.4-2.6,0.4c-1,0.2-0.8,6.5,1.1,11.4c0.9,2.3-1.6,5.8-1.6,6.7C17.2,81.7,30.5,82,30.3,80.8z"/>
					<path class="st10" d="M25.4,59.3c-0.3,0.4-1.2,1.3-2.3,1.3c-1.4,0-2.4-1.5-2.4-1.5c0-0.3,0.1-0.6,0.1-0.8l3.7-0.2
						c0.4,0.3,0.7,0.7,0.9,0.9C25.4,59,25.4,59.1,25.4,59.3z"/>
					<path class="st9" d="M23.1,59.7L23.1,59.7c-2,0-3.6-1.6-3.6-3.6v-3c0-1.3,1.1-2.4,2.4-2.4h2.2c1.3,0,2.4,1.1,2.4,2.4v3.2
						C26.5,58.1,25,59.7,23.1,59.7z"/>
					<path class="st11" d="M21.9,57.4c0,0,0.1,0.5,1.2,0.5c0,0,1,0,1-0.5C24.1,57.4,23.2,57,21.9,57.4z"/>
					<path class="st12" d="M13.2,86.7c0,0,2.4-5.6,4.7-6.7c2.2-1.1,11.1-0.1,12.4,0.9c1.3,1,3,5.9,3,5.9H13.2z"/>
					<path class="st13" d="M15.5,86.7c0,0,0.9-3.4,2.8-3.5c1.9-0.1,4.5,1.6,5.4,1.2c0.9-0.5,2.7-1.7,4.3-1.4
						c1.6,0.3,4.1,3.7,4.1,3.7H15.5z"/>
					<g>
						<path class="st9" d="M26,107.7l-2.3,0.2c0,0-1.3-3.6-2.7-7.8c-0.1-0.4-0.3-0.8-0.4-1.2c-1.2-3.5-2.4-7.2-3-9.5
							c-0.1-0.6-0.3-1.1-0.3-1.5c-0.7-4,1.1-4.4,1.5-4.5c0.5-0.1,3.3-1.6,5.3,3.5c0.7,1.7,1.7,6.5,1.7,11.1
							C25.7,102.3,26,107.7,26,107.7z"/>
						<path class="st14" d="M26,107.7l-2.3,0.5l-0.6,0.1c0,0-0.9-4.8-2.5-9.5c0,0,1.3,0.1,3-0.3c0.6-0.1,1.3-0.4,1.9-0.7
							C26,102.8,26,107.7,26,107.7z"/>
						<path class="st15" d="M23.7,108.2l-0.6,0.1c0,0-0.9-4.8-2.5-9.5c0,0,1.3,0.1,3-0.3C23.6,98.6,22.9,105.6,23.7,108.2z"/>
						<g>
							<path class="st12" d="M26.5,109c0,0.1,0.1,0.2,0.1,0.3c0.1,0.2-0.1,0.4-0.3,0.5l-2.7,0.6c-0.2,0-0.4-0.1-0.4-0.3
								c0-0.2-0.1-0.3-0.1-0.5c-0.1-0.5,0-0.9,0-1.2c0-0.1,0.1-0.2,0.2-0.3c1.2-0.7,2.2-0.6,2.5-0.5c0.1,0,0.2,0.1,0.2,0.2
								C26.3,108.1,26.4,108.6,26.5,109z"/>
							<g>
								<path class="st12" d="M25.9,107.7c0,0-0.4-0.5-1.4-0.4c-0.9,0.1-1.3,0.8-1.3,0.8l-0.1,0.2c0,0,0.4-1.1,1.4-1.2
									c1-0.1,1.5,0.6,1.5,0.6L25.9,107.7z"/>
							</g>
							<path class="st12" d="M26.5,109c0,0.1,0.1,0.2,0.1,0.3c0.1,0.2-0.1,0.4-0.3,0.5l-2.7,0.6c-0.2,0-0.4-0.1-0.4-0.3
								c0-0.2-0.1-0.3-0.1-0.5c0,0,0.3,0.6,1.9,0.2C26.1,109.5,26.4,109.2,26.5,109z"/>
						</g>
					</g>
					<path class="st16" d="M34.3,76.5l-3.7,0.1c-0.3-0.6-0.8-2.8-1.3-4.1c0.2,0.8,0.4,1.6,0.5,2.4c0.7,3.1,1.1,6.1,1.1,6.7
						c-0.2,1.4-5.8,0.8-7.2,0.4c-1.4-0.3-4.7,0.4-7.3,0.4c-1.5,0-1-4.2-0.4-7.8c0.2-0.9,0.3-1.7,0.5-2.4c-0.8,1.7-1.2,3.8-1.4,4.3
						c0,0-3.6-0.2-3.6-0.2c-0.1-0.6,1.2-10.8,4-12.8c0,0,1.6-1.4,4-1.1c0,0,0.9,1.6,3.5,1.7c2.6,0.1,4-1.7,4-1.7s2.2,0.1,3.1,1
						C31,64.5,33,67.9,34.3,76.5z"/>
					<path class="st17" d="M30.9,81.6c-0.2,1.4-5.8,0.8-7.2,0.4c-1.4-0.3-4.7,0.4-7.3,0.4c-1.5,0-1-4.2-0.4-7.8c0,0,2.8,5,6.4,4.9
						c3.5,0,7.5-4.7,7.5-4.7C30.5,78,31,81,30.9,81.6z"/>
					<path class="st11" d="M20.6,61.4c0,0,1.2,2.4,2.4,2.8c0,0-1.7,0.6-4.2-1.8C18.8,62.4,19.3,61.4,20.6,61.4z"/>
					<path class="st11" d="M25.7,61.4c0,0-1.5,2.4-2.7,2.8c0,0,2,0.6,4.5-1.8C27.5,62.4,27,61.4,25.7,61.4z"/>
					<circle class="st18" cx="23" cy="64.2" r="0.2"/>
					<path class="st17" d="M22.6,69.2c0-0.2,0.2-0.4,0.4-0.4c0.2,0,0.4,0.2,0.4,0.4s-0.2,0.4-0.4,0.4C22.8,69.5,22.6,69.4,22.6,69.2
						z"/>
					<path class="st17" d="M22.6,75.1c0-0.2,0.2-0.4,0.4-0.4c0.2,0,0.4,0.2,0.4,0.4c0,0.2-0.2,0.4-0.4,0.4
						C22.8,75.5,22.6,75.3,22.6,75.1z"/>
					<path class="st9" d="M31.3,76.8l0.6,8.4h1.8c0,0,1.4-8.8,0.4-9.1C33.1,75.9,31.3,76.8,31.3,76.8z"/>
					<path class="st9" d="M33.7,87.2c0.2-0.1,0.1-0.7,0-0.8c-0.5-0.3-1.3-0.6-2-0.4c-1,0.3-0.4,2.3,0.3,2.3
						C32.6,88.2,33.2,87.4,33.7,87.2z"/>
					<path class="st9" d="M33.7,85.3l0,1.4c-0.2,0-1.6,0.5-2-0.1c-0.2-0.2,0.1-0.8,0.2-1.4C31.9,83.5,33.7,85.3,33.7,85.3z"/>
					<path class="st17" d="M30.6,76.6c0,0-0.2,1.2,0.3,1.4c0.6,0.2,3.5,0.3,3.7,0c0.2-0.3-0.1-2.4-0.5-2.5
						C33.7,75.4,30.9,75.9,30.6,76.6z"/>
					<path class="st9" d="M14.4,76.8l-0.6,8.4H12c0,0-1.4-8.8-0.4-9.1C12.6,75.9,14.4,76.8,14.4,76.8z"/>
					<path class="st9" d="M12,87.2c-0.2-0.1-0.1-0.7,0-0.8c0.5-0.3,1.3-0.6,2-0.4c1,0.3,0.4,2.3-0.3,2.3
						C13.1,88.2,12.4,87.4,12,87.2z"/>
					<path class="st9" d="M12,85.3l0,1.4c0.2,0,1.6,0.5,2-0.1c0.2-0.2-0.1-0.8-0.2-1.4C13.8,83.5,12,85.3,12,85.3z"/>
					<path class="st17" d="M15.1,76.6c0,0,0.2,1.2-0.3,1.4c-0.6,0.2-3.5,0.3-3.7,0c-0.2-0.3,0.1-2.4,0.5-2.5
						C12,75.4,14.8,75.9,15.1,76.6z"/>
					<path class="st8" d="M23.5,51.1c0,0,0.5,1.9,1.9,2.5c0,0-0.6-1.1-0.4-1.7c0,0,0.6,2.2,1.5,2.9c0,0,1.3-4.5-2.4-4.8
						c-3.7-0.2-5.2,1.7-5.2,3.1c0,1.4,0.5,2.5,0.5,2.5s0.4-2.6,2-3.3C23.1,51.6,23.5,51.1,23.5,51.1z"/>
					<g>
						<path class="st9" d="M27.3,98.9c-1.5,4.8-3,9.4-3,9.4l-2.6-0.5c0,0,0.5-5,0.6-9.7c0-0.4,0.3-7.5,0.6-9.8
							c0.7-5.5,2.9-5.2,3.4-5.1c0.5,0.1,3.7-0.2,3.6,5.3C29.8,90.3,28.6,94.7,27.3,98.9z"/>
						<path class="st11" d="M27.3,98.9c-0.8,2.8-1.7,5.4-2.3,7.2c-0.4,1.4-0.7,2.2-0.7,2.2l-2.8-0.5c0,0,0.2-4.3,0.8-9.7
							c0.4,0.2,1.2,0.5,2.9,0.7C25.8,98.8,26.5,98.9,27.3,98.9z"/>
						<g>
							<path class="st18" d="M24.3,109.9c0,0.1,0,0.2,0,0.3c0,0.2-0.2,0.4-0.4,0.3l-2.7-0.5c-0.2,0-0.3-0.2-0.3-0.4
								c0-0.2,0.1-0.3,0.1-0.5c0.1-0.5,0.3-0.9,0.4-1.1c0.1-0.1,0.2-0.2,0.3-0.2c1.4-0.2,2.2,0.2,2.5,0.4c0.1,0.1,0.1,0.1,0.1,0.2
								C24.3,108.9,24.3,109.4,24.3,109.9z"/>
							<g>
								<path class="st18" d="M24.2,108.4c0,0-0.2-0.6-1.1-0.8c-0.9-0.3-1.5,0.3-1.5,0.3l-0.2,0.1c0,0,0.7-0.8,1.7-0.6
									c1,0.3,1.2,1.1,1.2,1.1L24.2,108.4z"/>
							</g>
							<path class="st18" d="M24.3,109.9c0,0.1,0,0.2,0,0.3c0,0.2-0.2,0.4-0.4,0.3l-2.7-0.5c-0.2,0-0.3-0.2-0.3-0.4
								c0-0.2,0.1-0.3,0.1-0.5c0,0,0.1,0.6,1.7,0.9C23.6,110.1,24.1,110,24.3,109.9z"/>
						</g>
					</g>
				</g>
				<g>
					<rect x="-2.7" y="83.5" class="st19" width="2.5" height="34.1"/>
					<path class="st20" d="M51.3,83.5H-4.4c-0.8,0-1.5-0.7-1.5-1.5v-0.5c0-0.8,0.7-1.5,1.5-1.5h55.7c0.8,0,1.5,0.7,1.5,1.5V82
						C52.8,82.8,52.1,83.5,51.3,83.5z"/>
					<rect x="48.1" y="83.5" class="st19" width="2.5" height="34.1"/>
					<rect x="-2.8" y="89" class="st20" width="53.4" height="13"/>
				</g>
				<g>
					<g>
						<g>
							<g>
								<g>
									<path class="st7" d="M123.4,110.1C123.4,110.1,123.4,110.1,123.4,110.1c-0.2,0-0.4-0.1-0.4-0.2L119.1,93l0,0l-0.3-1.2
										l1.3-0.1l0.4,2.3l3,15.9C123.7,110,123.6,110.1,123.4,110.1z"/>
								</g>
								<g>
									<path class="st7" d="M103.4,91.8l-0.6,2.8l-3.6,15.3c0,0.1-0.2,0.2-0.3,0.2c0,0,0,0-0.1,0c-0.1,0-0.2-0.1-0.2-0.2l3.2-16.9
										l0.2-1.3L103.4,91.8z"/>
								</g>
								<path class="st7" d="M103.4,91.8l-0.6,2.8c-0.1-1.1-0.9-1.6-0.9-1.6l0.2-1.3L103.4,91.8z"/>
								<path class="st7" d="M120.6,94c-0.7-1-1.5-1-1.5-1l0,0l-0.3-1.2l1.3-0.1L120.6,94z"/>
							</g>
							<path class="st7" d="M120.3,91.9h-19.6c-1,0-1.7-0.8-1.7-1.7v-1.4c0-1,0.8-1.7,1.7-1.7h19.6c1,0,1.7,0.8,1.7,1.7v1.4
								C122,91.1,121.2,91.9,120.3,91.9z"/>
						</g>
						<path class="st7" d="M122,88.6h-21.7c-0.6,0-1.1-0.5-1.1-1.1V68.9c0-0.6,0.5-1.1,1.1-1.1H122c0.6,0,1.1,0.5,1.1,1.1v18.6
							C123.1,88.1,122.6,88.6,122,88.6z"/>
						<path class="st13" d="M111.3,48.3c0,0-3.6-0.8-5.9,0.9c-2.2,1.6-0.7,5.6-1.6,6.6c-0.9,1-1.9,1.4-0.9,3.4c1,2-1,2.6-1,4.1
							c0,1.5,2.1,1.9,2.2,3.2c0.1,1.3,6.6,2.5,9.4,2.6c2.8,0,6-3.3,6.4-4c0.4-0.7,1.4-3.6,0-5.1c-1.4-1.5-0.3-3.5-0.8-4.7
							c-0.5-1.2-2.6-1.8-2.2-2.8S116.6,47.2,111.3,48.3z"/>
						<path class="st21" d="M118.5,81.2c-0.6-3.2-2.3-6.9-2.3-6.9c1.2-5.1,0-10.9,0-10.9c-0.7-0.2-1.4-0.3-2.1-0.4
							c-0.1-0.5-0.3-1.8-0.4-3c0-0.1,0-0.3,0-0.4c0-0.3,0-0.6,0-0.9l-0.9,0.1l-3.6,0.2l-0.2,0c0,0,0,0.3,0,0.8c0,0.9,0,2.2-0.3,3.2
							c-1.5,0.2-2.6,0.4-2.6,0.4c-1,0.2-0.8,6.4,1.1,11.2c0.9,2.2-1.6,5.7-1.6,6.5C105.6,82.1,118.7,82.4,118.5,81.2z"/>
						<path class="st22" d="M113.6,60c-0.3,0.4-1.2,1.2-2.3,1.3c-1.4,0-2.3-1.5-2.3-1.5c0-0.3,0.1-0.6,0.1-0.8l3.6-0.2
							c0.4,0.3,0.7,0.6,0.9,0.8C113.6,59.7,113.6,59.9,113.6,60z"/>
						<path class="st21" d="M111.3,60.4L111.3,60.4c-2,0-3.5-1.6-3.5-3.5v-3c0-1.3,1.1-2.4,2.4-2.4h2.2c1.3,0,2.4,1.1,2.4,2.4v3.1
							C114.7,58.9,113.2,60.4,111.3,60.4z"/>
						<path class="st11" d="M110.2,58.2c0,0,0.1,0.5,1.2,0.5c0,0,1,0,1-0.5C112.4,58.2,111.5,57.8,110.2,58.2z"/>
						<path class="st13" d="M111.5,50.6c0,0-0.3,3.7-3.6,4.4c-3.3,0.8-0.4-6.2,1.8-5.7C111.9,49.9,111.5,50.6,111.5,50.6z"/>
						<path class="st13" d="M111.1,50.6c0,0,0.3,3.7,3.6,4.4c3.3,0.8,0.4-6.2-1.8-5.7C110.7,49.9,111.1,50.6,111.1,50.6z"/>
						<path class="st12" d="M101.7,87c0,0,2.4-5.5,4.6-6.6c2.2-1.1,10.9-0.1,12.2,0.8c1.3,1,3,5.8,3,5.8H101.7z"/>
						<path class="st13" d="M103.9,87c0,0,0.9-3.3,2.7-3.5c1.9-0.1,4.4,1.6,5.3,1.1c0.9-0.5,2.6-1.7,4.2-1.4c1.6,0.3,4,3.7,4,3.7
							H103.9z"/>
						<path class="st21" d="M112.4,107.8l-2.3,0c0,0-1.1-3.6-2.2-7.8c-0.1-0.4-0.2-0.8-0.3-1.2c-1-3.5-1.9-7.2-2.4-9.5
							c-0.1-0.6-0.2-1-0.2-1.5c-0.5-3.9,1.3-4.3,1.7-4.4c0.5-0.1,3.4-1.4,5,3.7c0.5,1.7,1.1,6.5,0.8,11
							C112.1,102.5,112.4,107.8,112.4,107.8z"/>
						<path class="st21" d="M117.6,98.5c-0.9,4.9-2,9.5-2,9.5l-2.6-0.3c0,0,0-4.9-0.4-9.5c0-0.4-0.4-7.4-0.4-9.6
							c0.1-5.5,2.3-5.4,2.8-5.4c0.5,0,3.6-0.6,4,4.8C119.2,89.8,118.5,94.2,117.6,98.5z"/>
						<path class="st11" d="M117.6,98.5c-0.5,2.8-1.1,5.5-1.5,7.3c-0.3,1.4-0.5,2.2-0.5,2.2l-2.8-0.2c0,0-0.2-4.2-0.2-9.6
							c0.4,0.2,1.2,0.4,2.9,0.3C116.2,98.6,116.8,98.5,117.6,98.5z"/>
						<g>
							<path class="st18" d="M115.8,109.4c0,0.1,0,0.2,0,0.3c0,0.2-0.2,0.4-0.4,0.4l-2.7-0.2c-0.2,0-0.3-0.2-0.3-0.4
								c0-0.2,0-0.3,0.1-0.5c0.1-0.5,0.2-0.9,0.3-1.1c0-0.1,0.1-0.2,0.2-0.2c1.4-0.3,2.2,0,2.5,0.2c0.1,0,0.1,0.1,0.2,0.2
								C115.8,108.5,115.8,109,115.8,109.4z"/>
							<g>
								<path class="st18" d="M115.6,108c0,0-0.3-0.6-1.2-0.7c-0.9-0.2-1.4,0.5-1.4,0.5l-0.2,0.1c0,0,0.6-0.9,1.6-0.7
									c1,0.2,1.3,0.9,1.3,0.9L115.6,108z"/>
							</g>
							<path class="st12" d="M115.8,109.4c0,0.1,0,0.2,0,0.3c0,0.2-0.2,0.4-0.4,0.4l-2.7-0.2c-0.2,0-0.3-0.2-0.3-0.4
								c0-0.2,0-0.3,0.1-0.5c0,0,0.1,0.6,1.8,0.7C115.2,109.8,115.7,109.6,115.8,109.4z"/>
						</g>
						<path class="st11" d="M112.4,107.8l-2.3,0.4l-0.6,0.1c0,0-0.7-4.7-2-9.4c0,0,1.3,0.2,3-0.1c0.6-0.1,1.2-0.3,1.9-0.5
							C112.6,103,112.4,107.8,112.4,107.8z"/>
						<g>
							<path class="st18" d="M112.8,109.1c0,0.1,0,0.2,0.1,0.3c0,0.2-0.1,0.4-0.3,0.4l-2.7,0.4c-0.2,0-0.4-0.1-0.4-0.3
								c0-0.2,0-0.3-0.1-0.5c0-0.5,0-0.9,0.1-1.1c0-0.1,0.1-0.2,0.2-0.3c1.3-0.6,2.1-0.5,2.5-0.4c0.1,0,0.2,0.1,0.2,0.2
								C112.6,108.2,112.7,108.7,112.8,109.1z"/>
							<g>
								<path class="st18" d="M112.2,107.8c0,0-0.4-0.5-1.3-0.4c-0.9,0-1.3,0.8-1.3,0.8l-0.1,0.2c0,0,0.4-1,1.4-1.1
									c1,0,1.4,0.6,1.4,0.7L112.2,107.8z"/>
							</g>
							<path class="st12" d="M112.8,109.1c0,0.1,0,0.2,0.1,0.3c0,0.2-0.1,0.4-0.3,0.4l-2.7,0.4c-0.2,0-0.4-0.1-0.4-0.3
								c0-0.2,0-0.3-0.1-0.5c0,0,0.3,0.6,1.9,0.3C112.3,109.6,112.7,109.3,112.8,109.1z"/>
						</g>
						<path class="st16" d="M123.4,78.8l-3.1-1.6l-0.9-0.5c-0.3-0.6-1.2-2.6-1.8-3.7c0.2,0.8,0.4,1.6,0.5,2.4
							c0.6,3.1,1.1,5.9,1.1,6.6c-0.2,1.4-5.7,0.8-7.1,0.4c-1.4-0.3-4.6,0.4-7.2,0.4c-1.5,0-1-4.2-0.4-7.6c0.2-0.8,0.3-1.6,0.5-2.3
							c-0.8,1.7-1.7,3.4-1.9,4l-1.8,0.9l-2,1.1c0,0,0,0,0,0c-0.1-0.6,1.9-12.5,4.7-14.5c0,0,1.5-1.4,3.9-1.1c0,0,0.9,1.6,3.5,1.7
							c2.6,0.1,4-1.7,4-1.7s2.2,0.1,3,1C119.1,65.1,123.3,73.1,123.4,78.8z"/>
						<path class="st17" d="M119.1,82c-0.2,1.4-5.7,0.8-7.1,0.4c-1.4-0.3-4.6,0.4-7.2,0.4c-1.5,0-1-4.2-0.4-7.6c0,0,2.8,4.9,6.3,4.9
							c3.5,0,7.3-4.6,7.3-4.6C118.7,78.5,119.2,81.4,119.1,82z"/>
						<path class="st11" d="M108.9,62.1c0,0,1.2,2.4,2.4,2.7c0,0-1.7,0.6-4.1-1.8C107.1,63.1,107.6,62.1,108.9,62.1z"/>
						<path class="st11" d="M114,62.1c0,0-1.5,2.4-2.7,2.7c0,0,2,0.6,4.4-1.8C115.7,63.1,115.2,62.1,114,62.1z"/>
						<path class="st11" d="M104.4,77.7l-0.9,0.8l-1.8,1.7c-1.9,0.3-2.6-1.3-2.6-1.3c0.4-0.7,1.1-1.2,1.8-1.6
							c0.5-0.3,1.1-0.5,1.5-0.6c0.5-0.1,1,0,1.3,0.3L104.4,77.7z"/>
						<path class="st11" d="M123.4,78.8c0,0-1.1,1.5-4.2,1.3l-0.5-1.9l-0.9-0.9l0.8-0.5c0.4-0.2,0.8-0.3,1.3-0.2
							c0.3,0.1,0.6,0.2,1,0.3C121.8,77.3,122.8,77.9,123.4,78.8z"/>
						<path class="st18" d="M111.1,64.9c0-0.1,0.1-0.2,0.2-0.2c0.1,0,0.2,0.1,0.2,0.2c0,0.1-0.1,0.2-0.2,0.2
							C111.2,65.1,111.1,65,111.1,64.9z"/>
						<path class="st17" d="M110.9,69.7c0-0.2,0.2-0.4,0.4-0.4c0.2,0,0.4,0.2,0.4,0.4c0,0.2-0.2,0.4-0.4,0.4
							C111.1,70.1,110.9,69.9,110.9,69.7z"/>
						<path class="st17" d="M110.9,75.6c0-0.2,0.2-0.4,0.4-0.4c0.2,0,0.4,0.2,0.4,0.4c0,0.2-0.2,0.4-0.4,0.4
							C111.1,76,110.9,75.8,110.9,75.6z"/>
					</g>
					<g>
						<rect x="89.8" y="83.5" class="st19" width="2.5" height="33.5"/>
						<path class="st20" d="M142.8,83.5H88.1c-0.8,0-1.5-0.7-1.5-1.5v-0.5c0-0.8,0.7-1.5,1.5-1.5h54.7c0.8,0,1.5,0.7,1.5,1.5v0.5
							C144.3,82.9,143.6,83.5,142.8,83.5z"/>
						<rect x="139.7" y="83.5" class="st19" width="2.5" height="33.5"/>
						<rect x="89.7" y="89" class="st20" width="52.4" height="12.8"/>
					</g>
					<path class="st23" d="M118.5,77.1l-6.2,1.8v1.3c0,0,7.7,0.3,8.2-0.3c0.3-0.4,0.1-1.3,0-1.8C120.1,77.3,119.3,76.9,118.5,77.1z"
						/>
					<path class="st23" d="M112.3,78.9c0,0-2.4,0.1-2.6,0.2s-1.3,1-1.3,1h4V78.9z"/>
					<path class="st21" d="M103,77.1l6.4,1.8l-0.2,1.3c0,0-8,0.4-8.3-0.3c-0.2-0.4,0-1.3,0.2-1.8C101.4,77.3,102.2,76.9,103,77.1z"
						/>
					<path class="st21" d="M109.4,78.9c0,0,2,0.1,2.3,0.2c0.3,0.1,1.5,1,1.5,1h-4L109.4,78.9z"/>
				</g>
				<g>
					<g>
						<g>
							<g>
								<path class="st24" d="M88.3,144.1C88.3,144.1,88.3,144.1,88.3,144.1c-0.3,0-0.6-0.1-0.6-0.4l-5.8-24.9l0,0l-0.4-1.8l2-0.1
									l0.6,3.4l4.5,23.4C88.6,143.9,88.5,144,88.3,144.1z"/>
							</g>
							<g>
								<path class="st24" d="M58.8,117l-1,4.1l-5.3,22.6c-0.1,0.2-0.3,0.4-0.5,0.4c0,0-0.1,0-0.1,0c-0.2,0-0.3-0.2-0.3-0.3l4.8-25
									l0.4-1.8L58.8,117z"/>
							</g>
							<path class="st24" d="M58.8,117l-1,4.1c-0.1-1.7-1.4-2.3-1.4-2.3l0.4-1.8L58.8,117z"/>
							<path class="st24" d="M84.1,120.3c-1-1.4-2.2-1.4-2.2-1.5l0,0l-0.4-1.8l2-0.1L84.1,120.3z"/>
						</g>
						<path class="st24" d="M83.6,117.2H54.8c-1.4,0-2.6-1.2-2.6-2.6v-2c0-1.4,1.2-2.6,2.6-2.6h28.8c1.4,0,2.6,1.2,2.6,2.6v2
							C86.2,116,85.1,117.2,83.6,117.2z"/>
					</g>
					<path class="st24" d="M86.1,112.3h-32c-0.9,0-1.6-0.7-1.6-1.6V83.3c0-0.9,0.7-1.6,1.6-1.6h32c0.9,0,1.6,0.7,1.6,1.6v27.4
						C87.8,111.5,87,112.3,86.1,112.3z"/>
					<path class="st25" d="M75.2,67.5c0,0,1.9-2.8,2.3-3.5c1.3-2.2,1.6-11.3-7.2-10c0,0-3-0.8-5.1,0.6c-2.2,1.5-4.4,6.8,0.3,12.9
						H75.2z"/>
					<path class="st26" d="M81,101.9c-0.9-4.8-3.4-10.2-3.4-10.2c1.8-7.6,0-16.2,0-16.2c-1-0.3-2-0.5-3.1-0.6
						c-0.1-0.7-0.5-2.7-0.7-4.5c0-0.2,0-0.4,0-0.6c0-0.5,0-1,0-1.3l-1.3,0.1L67.2,69l-0.2,0c0,0,0,0.5,0,1.2c0,1.3,0,3.3-0.5,4.8
						c-2.3,0.2-3.8,0.6-3.8,0.6c-1.5,0.3-1.2,9.5,1.6,16.7c1.3,3.3-2.4,8.4-2.4,9.7C61.9,103.2,81.3,103.6,81,101.9z"/>
					<path class="st27" d="M73.8,70.4c-0.5,0.6-1.8,1.8-3.4,1.9c-2.1,0-3.5-2.2-3.5-2.2c0-0.5,0.1-0.9,0.2-1.2l5.3-0.4
						c0.6,0.5,1,1,1.3,1.2C73.8,70,73.8,70.2,73.8,70.4z"/>
					<path class="st26" d="M70.4,71.1L70.4,71.1c-2.9,0-5.3-2.4-5.3-5.3v-4.4c0-1.9,1.6-3.5,3.5-3.5h3.2c1.9,0,3.5,1.6,3.5,3.5v4.6
						C75.4,68.8,73.2,71.1,70.4,71.1z"/>
					<path class="st25" d="M70.6,56.4c0,0-0.5,5.4-5.3,6.6c-4.8,1.2-0.6-9.2,2.7-8.4C71.2,55.4,70.6,56.4,70.6,56.4z"/>
					<path class="st25" d="M70,56.4c0,0,0.5,5.4,5.3,6.6c4.8,1.2,0.6-9.2-2.7-8.4C69.4,55.4,70,56.4,70,56.4z"/>
					<path class="st12" d="M56.1,110.4c0,0,3.5-8.2,6.8-9.8c3.2-1.6,16.2-0.2,18.1,1.3c1.9,1.4,4.4,8.5,4.4,8.5H56.1z"/>
					<path class="st13" d="M59.3,110.4c0,0,1.3-4.9,4.1-5.1s6.6,2.4,7.9,1.7c1.3-0.7,3.9-2.5,6.2-2c2.4,0.4,5.9,5.5,5.9,5.5H59.3z"
						/>
					<path class="st26" d="M71.9,141.4l-3.4,0c0,0-1.6-5.2-3.3-11.3c-0.2-0.6-0.3-1.2-0.5-1.7c-1.4-5.1-2.9-10.5-3.6-13.8
						c-0.2-0.8-0.3-1.5-0.4-2.2c-0.7-5.7,2-6.2,2.6-6.3c0.7-0.1,5-2.1,7.4,5.4c0.8,2.5,1.6,9.5,1.2,16
						C71.6,133.7,71.9,141.4,71.9,141.4z"/>
					<path class="st26" d="M79.8,127.8c-1.4,7.1-3,13.8-3,13.8l-3.9-0.4c0,0-0.8-21.9-1.2-27.8c-0.5-8,3.4-7.8,4.2-7.8
						c0.7,0,5.4-0.9,5.9,6.9C82.1,115.1,81,121.6,79.8,127.8z"/>
					<path class="st11" d="M79.8,127.5c-0.8,4.1-1.6,8.1-2.2,10.8c-0.4,2-0.7,3.3-0.7,3.3l-4.1-0.3c0,0-0.4-6.2-0.3-14.2
						c0.6,0.3,1.8,0.5,4.3,0.5C77.6,127.6,78.6,127.6,79.8,127.5z"/>
					<g>
						<path class="st28" d="M77.1,143.8c0,0.2,0,0.3,0,0.4c0,0.3-0.3,0.5-0.6,0.5l-4-0.3c-0.3,0-0.5-0.3-0.5-0.6
							c0-0.3,0-0.5,0.1-0.8c0.1-0.8,0.3-1.3,0.5-1.6c0.1-0.2,0.2-0.3,0.4-0.3c2-0.5,3.3,0,3.7,0.3c0.1,0.1,0.2,0.2,0.2,0.3
							C77,142.4,77.1,143.2,77.1,143.8z"/>
						<g>
							<path class="st28" d="M76.7,141.7c0,0-0.4-0.8-1.8-1.1c-1.3-0.2-2.1,0.7-2.1,0.7l-0.2,0.2c0,0,0.9-1.3,2.4-1.1
								c1.4,0.2,1.9,1.4,1.9,1.4L76.7,141.7z"/>
						</g>
						<path class="st28" d="M77.1,143.8c0,0.2,0,0.3,0,0.4c0,0.3-0.3,0.5-0.6,0.5l-4-0.3c-0.3,0-0.5-0.3-0.5-0.6
							c0-0.3,0-0.5,0.1-0.8c0,0,0.2,0.9,2.6,1C76.2,144.3,76.8,144,77.1,143.8z"/>
					</g>
					<path class="st11" d="M71.9,141.4l-3.4,0.5l-0.9,0.1c0,0-1-7-2.9-14c0,0,1.9,0.3,4.4-0.2c0.9-0.2,1.9-0.4,2.8-0.8
						C72.3,134.2,71.9,141.4,71.9,141.4z"/>
					<g>
						<path class="st28" d="M72.6,143.3c0,0.2,0.1,0.3,0.1,0.4c0.1,0.3-0.1,0.6-0.4,0.6l-3.9,0.6c-0.3,0-0.6-0.1-0.6-0.4
							c0-0.3-0.1-0.5-0.1-0.8c0-0.8,0-1.4,0.1-1.7c0-0.2,0.1-0.3,0.3-0.4c1.9-0.9,3.2-0.7,3.7-0.5c0.1,0,0.2,0.1,0.3,0.3
							C72.2,142,72.4,142.7,72.6,143.3z"/>
						<g>
							<path class="st28" d="M71.8,141.3c0,0-0.6-0.7-1.9-0.6c-1.3,0.1-1.9,1.1-1.9,1.1l-0.2,0.2c0-0.1,0.6-1.5,2.1-1.6
								c1.5-0.1,2.1,0.9,2.1,1L71.8,141.3z"/>
						</g>
						<path class="st28" d="M72.6,143.3c0,0.2,0.1,0.3,0.1,0.4c0.1,0.3-0.1,0.6-0.4,0.6l-3.9,0.6c-0.3,0-0.6-0.1-0.6-0.4
							c0-0.3-0.1-0.5-0.1-0.8c0,0,0.4,0.8,2.8,0.4C71.8,144,72.4,143.6,72.6,143.3z"/>
					</g>
					<path class="st16" d="M88.3,98.3L83.6,96l-1.4-0.7c-0.4-0.9-1.8-3.9-2.7-5.6c0.3,1.2,0.5,2.3,0.8,3.5c1,4.5,1.7,8.8,1.6,9.7
						c-0.3,2.1-8.4,1.1-10.5,0.6c-2.1-0.5-6.9,0.6-10.7,0.6c-2.2,0-1.5-6.2-0.6-11.3c0.2-1.2,0.5-2.4,0.7-3.5
						c-1.2,2.5-2.5,5-2.8,5.9l-2.6,1.4l-3,1.6c0,0,0,0,0,0c-0.2-0.9,2.9-18.5,6.9-21.5c0,0,2.3-2,5.8-1.6c0,0,1.3,2.4,5.2,2.5
						c3.8,0.2,5.9-2.4,5.9-2.4s3.2,0.1,4.5,1.5C81.9,78.1,88.1,89.9,88.3,98.3z"/>
					<path class="st17" d="M81.9,103c-0.3,2.1-8.4,1.1-10.5,0.6c-2.1-0.5-6.9,0.6-10.7,0.6c-2.2,0-1.5-6.2-0.6-11.3
						c0,0,4.1,7.2,9.3,7.2c5.2,0,10.9-6.8,10.9-6.8C81.3,97.8,82,102.1,81.9,103z"/>
					<path class="st27" d="M82.5,95.3c0,0-7.8,5.6-11.4,7.3l0.6,2.3c0,0,11.2-2.2,16.4-6.7L82.5,95.3z"/>
					<path class="st27" d="M71.1,102.6c0,0-2.7-0.8-3.5-0.4c-0.8,0.5-2,2.6-1.2,2.6c0.8,0,5.3,0,5.3,0L71.1,102.6z"/>
					<path class="st11" d="M66.8,73.6c0,0,1.8,3.5,3.5,4.1c0,0-2.5,0.9-6.1-2.6C64.2,75,64.9,73.6,66.8,73.6z"/>
					<path class="st11" d="M74.3,73.6c0,0-2.2,3.5-4,4.1c0,0,2.9,0.9,6.6-2.6C76.9,75,76.2,73.6,74.3,73.6z"/>
					<path class="st26" d="M58.1,95.3c0,0,7.8,5.6,11.4,7.3l-0.6,2.3c0,0-11.2-2.2-16.4-6.7L58.1,95.3z"/>
					<path class="st26" d="M69.4,102.6c0,0,2.7-0.8,3.5-0.4c0.8,0.5,2,2.6,1.2,2.6c-0.8,0-5.3,0-5.3,0L69.4,102.6z"/>
					<path class="st11" d="M60.1,96.6l-1.3,1.1l-3.4,2.9c-1.9-0.1-3.2-2.3-3.2-2.3c0.7-1,1.7-1.8,2.6-2.4c1.7-0.9,3.3-1.2,3.3-1.2
						L60.1,96.6z"/>
					<path class="st11" d="M88.3,98.3c0,0-1.3,2.2-3.2,2.3l-3.8-3.3l-0.8-0.7l1.6-1.8c0,0,1.2,0.2,2.6,0.7
						C85.9,96.1,87.4,97,88.3,98.3z"/>
					<path class="st18" d="M70.1,77.6c0-0.2,0.1-0.3,0.3-0.3c0.2,0,0.3,0.1,0.3,0.3s-0.1,0.3-0.3,0.3C70.2,77.9,70.1,77.8,70.1,77.6
						z"/>
					<path class="st17" d="M69.8,84.9c0-0.3,0.2-0.5,0.5-0.5c0.3,0,0.5,0.2,0.5,0.5c0,0.3-0.2,0.5-0.5,0.5
						C70,85.4,69.8,85.2,69.8,84.9z"/>
					<path class="st17" d="M69.8,93.6c0-0.3,0.2-0.5,0.5-0.5c0.3,0,0.5,0.2,0.5,0.5c0,0.3-0.2,0.5-0.5,0.5
						C70,94.1,69.8,93.9,69.8,93.6z"/>
					<path class="st25" d="M65.6,68c0,0-0.8,2.4-4.1,3.1c-3.3,0.6-2.8,4.4-2.8,4.4s0.6-1.8,1.4-1.9c0,0-1.6,3.7-0.1,6.3
						c1.5,2.6,2.1,4.9,1.7,5.5c0,0,3.5-1.9,3.4-4.4c0-2.4-0.1-5.7,0.8-6.2c0,0,1.1-0.3,0.8-1.2c-0.2-0.9-0.4-4.4-0.4-4.4
						S65.8,68.3,65.6,68z"/>
					<path class="st11" d="M68.4,68.2c0,0,0.1,0.7,1.7,0.8c0,0,1.4,0.1,1.5-0.6C71.7,68.4,70.4,67.7,68.4,68.2z"/>
				</g>
				<g>
					<rect x="32.2" y="98.7" class="st19" width="3.5" height="48"/>
					<path class="st7" d="M108.3,98.7H29.8c-1.2,0-2.1-1-2.1-2.1v-0.6c0-1.2,1-2.1,2.1-2.1h78.6c1.2,0,2.1,1,2.1,2.1v0.6
						C110.5,97.8,109.5,98.7,108.3,98.7z"/>
					<rect x="103.8" y="98.7" class="st19" width="3.5" height="48"/>
					<rect x="32" y="106.5" class="st7" width="75.3" height="18.4"/>
				</g>
				<g>
					<g>
						<g>
							<g>
								<path class="st24" d="M176.7,146.7C176.7,146.7,176.7,146.7,176.7,146.7c-0.3,0-0.6-0.1-0.6-0.4l-5.8-24.9l0,0l-0.4-1.8
									l2-0.1l0.6,3.4l4.5,23.4C177,146.5,176.9,146.7,176.7,146.7z"/>
							</g>
							<g>
								<path class="st24" d="M147.2,119.6l-1,4.1l-5.3,22.6c-0.1,0.2-0.3,0.4-0.5,0.4c0,0-0.1,0-0.1,0c-0.2,0-0.3-0.2-0.3-0.3
									l4.8-25l0.4-1.8L147.2,119.6z"/>
							</g>
							<path class="st24" d="M147.2,119.6l-1,4.1c-0.1-1.7-1.4-2.3-1.4-2.3l0.4-1.8L147.2,119.6z"/>
							<path class="st24" d="M172.5,122.9c-1-1.4-2.2-1.4-2.2-1.5l0,0l-0.4-1.8l2-0.1L172.5,122.9z"/>
						</g>
						<path class="st24" d="M172,119.8h-28.8c-1.4,0-2.6-1.2-2.6-2.6v-2c0-1.4,1.2-2.6,2.6-2.6H172c1.4,0,2.6,1.2,2.6,2.6v2
							C174.6,118.6,173.4,119.8,172,119.8z"/>
					</g>
					<path class="st24" d="M174.5,114.9h-32c-0.9,0-1.6-0.7-1.6-1.6V85.9c0-0.9,0.7-1.6,1.6-1.6h32c0.9,0,1.6,0.7,1.6,1.6v27.4
						C176.2,114.2,175.4,114.9,174.5,114.9z"/>
					<path class="st12" d="M151.6,147c0,0,0-4,1.7-4.3c1.8-0.3,4.4-1.3,4.7,4.3H151.6z"/>
					<path class="st12" d="M160.8,147c0,0,0-4,1.7-4.3c1.8-0.3,4.4-1.3,4.7,4.3H160.8z"/>
					<path class="st13" d="M148.7,104.1c0,0-1.6,3.4-2,7.6h25.1c0,0-2.3-7.4-4.4-8.2C165.3,102.6,148.7,104.1,148.7,104.1z"/>
					<path class="st29" d="M153.7,66.5c0,0-1.7-3.6-2.7-6.4c-1.2-3.3,0.7-8,7.5-7.7c0,0,2.2,0,2.9-0.5c0,0-0.2,0.8-0.4,0.9
						c0,0,5.4,0.3,5.3,2.8c-0.2,7.4-2.1,9.7-2.1,9.7L153.7,66.5z"/>
					<path class="st9" d="M170,102.9c-0.9-4.9-3.5-10.4-3.5-10.4c1.9-7.8,0-16.5,0-16.5c-1-0.3-2.1-0.5-3.1-0.6
						c-0.1-0.7-0.5-2.8-0.7-4.6c0-0.2,0-0.4,0-0.6c0-0.5,0-1,0-1.4l-1.3,0.1l-5.4,0.4l-0.2,0c0,0,0,0.5,0,1.2c0,1.3,0,3.4-0.5,4.9
						c-2.3,0.2-3.9,0.6-3.9,0.6c-1.5,0.3-1.2,9.7,1.7,17c1.3,3.4-2.4,8.6-2.4,9.9C150.5,104.2,170.3,104.7,170,102.9z"/>
					<path class="st10" d="M162.7,70.8c-0.5,0.6-1.8,1.9-3.4,1.9c-2.1,0-3.6-2.2-3.6-2.2c0-0.5,0.1-0.9,0.2-1.2l6.5-1
						c0.3,0.2,0.2,1.3,0.3,1.9C162.6,70.3,162.6,70.5,162.7,70.8z"/>
					<path class="st9" d="M159.1,70.9L159.1,70.9c-3,0-5.4-2.4-5.4-5.4l0-4.5c0-2,1.6-3.6,3.6-3.6l3.3,0c2,0,3.6,1.6,3.6,3.6l0,4.7
						C164.3,68.6,162,70.9,159.1,70.9z"/>
					<path class="st11" d="M157.4,67.5c0,0,0.1,0.7,1.9,0.7c0,0,1.5,0,1.5-0.8C160.7,67.5,159.3,66.9,157.4,67.5z"/>
					<path class="st16" d="M177.5,99.3l-4.7-2.4l-1.4-0.7c-0.4-1-1.9-4-2.7-5.7c0.2,0.9,0.4,1.7,0.6,2.6c0.1,0.3,0.1,0.7,0.2,1
						c1,4.6,1.7,9,1.6,10c-0.3,2.1-8.6,1.2-10.7,0.7c-2.1-0.5-7,0.7-10.9,0.6c-2.2,0-1.6-6.3-0.6-11.6c0.2-1.3,0.5-2.5,0.7-3.6
						c-1.3,2.5-2.6,5.2-2.9,6l-2.7,1.4l-3,1.6l-0.1,0c0,0,0,0,0,0v0c-0.2-1,2.9-18.9,7.1-22c0,0,0.1-0.1,0.4-0.3
						c0.8-0.6,2.8-1.7,5.6-1.3c0,0,1.4,2.4,5.3,2.6c3.9,0.2,6-2.5,6-2.5s1.9,0,3.4,0.7c0.5,0.2,0.9,0.5,1.2,0.8
						C171,78.5,177.3,90.6,177.5,99.3z"/>
					<path class="st17" d="M170.9,104.1c-0.3,2.1-8.6,1.2-10.7,0.7c-2.1-0.5-7,0.7-10.9,0.6c-2.2,0-1.6-6.3-0.6-11.6
						c0,0,4.2,7.4,9.5,7.4c5.3-0.1,11.1-7,11.1-7C170.3,98.8,171,103.1,170.9,104.1z"/>
					<path class="st30" d="M171.5,96c0,0-6.7,7.2-10,9.6l1,2.1c0,0,10.4-3.9,14.8-9.4L171.5,96z"/>
					<path class="st30" d="M162.3,105.1c0,0-2.8,0.8-3.2,1.6c-0.5,0.9-0.3,3.3,0.4,2.9c0.7-0.4,4.5-2.9,4.5-2.9L162.3,105.1z"/>
					<path class="st11" d="M155.5,73.9c0,0,1.8,3.6,3.6,4.2c0,0-2.5,1-6.3-2.7C152.8,75.4,153.6,74,155.5,73.9z"/>
					<path class="st11" d="M163.2,73.9c0,0-2.3,3.6-4.1,4.2c0,0,3,1,6.7-2.7C165.8,75.4,165.1,74,163.2,73.9z"/>
					<path class="st9" d="M146.6,96c0,0,7,6.9,10.4,9.2l-1,2.2c0,0-9.9-3.4-14.5-8.7L146.6,96z"/>
					<path class="st9" d="M154.4,104.6c0,0,2.9,0.2,3.5,0.9c0.6,0.7,0.9,3.2,0.2,2.9c-0.8-0.3-5.1-2-5.1-2L154.4,104.6z"/>
					<path class="st17" d="M158.5,85.5c0-0.3,0.2-0.6,0.6-0.6s0.6,0.2,0.6,0.6c0,0.3-0.2,0.6-0.6,0.6S158.5,85.8,158.5,85.5z"/>
					<path class="st17" d="M158.5,94.4c0-0.3,0.2-0.6,0.6-0.6s0.6,0.2,0.6,0.6c0,0.3-0.2,0.6-0.6,0.6S158.5,94.7,158.5,94.4z"/>
					<path class="st29" d="M164.8,56c-0.1-0.1-9.6-1.4-9.6-1.4l-2.7,1.9l-0.4,2.7l1.6,1.8c0,0,0.5-1.7,1.7-1.8
						c1.2-0.1,5.1,2.2,6.2,1.2c1.1-1,1.9-1.4,2.4-0.7C164.5,60.5,164.9,56.1,164.8,56z"/>
					<path class="st19" d="M159.4,143.2c0,0-1.6,0.7-4,0.7c-1.4,0-3.2-0.2-5.1-0.9c0,0-1.4-9.8-2.2-18.3c-0.5-4.8-0.8-9.1-0.5-10.9
						c0.7-5,2.9-7.8,5.8-7.6c2.8,0.2,5.5,2.2,5.7,4.6C159.2,113.2,159.4,143.2,159.4,143.2z"/>
					<path class="st19" d="M169.1,135.9c-0.5,4.1-0.9,7.1-0.9,7.1c-5,1.9-9.1,0.3-9.1,0.3s0.1-23.2,0.2-30.4c0-1,0-1.7,0.1-2
						c0.2-2.4,2.8-4.4,5.7-4.6c2.8-0.2,5.1,2.6,5.8,7.6C171.3,117,170,128.4,169.1,135.9z"/>
					<path class="st11" d="M150.5,86.4l-1,3.7c-1.3,2.5-2.6,5.2-2.9,6l-2.7,1.4l-3,1.6h-0.1c-0.2-1,2.9-18.9,7.1-22
						c0,0,0.1-0.1,0.4-0.3C149.6,79.3,152,84.6,150.5,86.4z"/>
					<path class="st11" d="M148.7,97.5l-1.3,1.2l-3.4,3c-1.9-0.1-3.3-2.4-3.3-2.4c0.7-1.1,1.7-1.9,2.7-2.4c1.7-0.9,3.4-1.2,3.4-1.2
						L148.7,97.5z"/>
					<path class="st11" d="M177.5,99.3l-2.8-1.4l-2-1l-1.4-0.7c-0.4-1-1.9-4-2.7-5.7c0.2,0.9,0.4,1.7,0.6,2.6l-2.1-7.6
						c-0.9-1.3,1-7.9,1.4-9.2c0.5,0.2,0.9,0.5,1.2,0.8c0.4,0.5,1.4,2,2.5,4.2l0,0c0,0,0,0,0,0C174.4,86,177.4,93.4,177.5,99.3z"/>
					<path class="st11" d="M177.4,99.3c0,0-1.4,2.2-3.3,2.4l-3.9-3.4l-0.9-0.7l1.6-1.8c0,0,1.2,0.2,2.6,0.8
						C175,97,176.6,97.9,177.4,99.3z"/>
					<path class="st31" d="M169.1,135.9c-0.5,4.1-0.9,7.1-0.9,7.1c-5,1.9-9.1,0.3-9.1,0.3s0.1-23.2,0.2-30.4
						c0.2-0.7,0.3-1.1,0.3-1.2C159.5,112.1,158.1,133,169.1,135.9z"/>
					<path class="st31" d="M155.3,143.9c-1.4,0-3.2-0.2-5.1-0.9c0,0-1.4-9.8-2.2-18.3C148.1,124.9,151,139.1,155.3,143.9z"/>
				</g>
				<g>
					<rect x="119.6" y="97.8" class="st19" width="3.5" height="48"/>
					<path class="st7" d="M194.6,97.8H116c-1.2,0-2.1-1-2.1-2.1v-0.6c0-1.2,1-2.1,2.1-2.1h78.6c1.2,0,2.1,1,2.1,2.1v0.6
						C196.7,96.9,195.8,97.8,194.6,97.8z"/>
					<rect x="191.2" y="97.8" class="st19" width="3.5" height="48"/>
					<rect x="119.5" y="105.6" class="st7" width="75.3" height="18.4"/>
				</g>
				<g class="st3">
					<rect x="125.9" y="8.4" class="st32" width="57.7" height="41.3"/>
					<rect x="127.1" y="9.5" class="st33" width="55.1" height="39"/>
					<g class="st34">
						<g>
							<rect x="127.1" y="9.6" class="st35" width="18.4" height="12.9"/>
							<rect x="145.5" y="9.6" class="st35" width="18.4" height="12.9"/>
							<rect x="163.9" y="9.6" class="st35" width="18.4" height="12.9"/>
						</g>
						<g>
							<rect x="127.1" y="35.3" class="st35" width="18.4" height="12.9"/>
							<rect x="145.5" y="35.3" class="st35" width="18.4" height="12.9"/>
							<rect x="163.9" y="35.3" class="st35" width="18.4" height="12.9"/>
						</g>
						<g>
							
								<rect x="163.9" y="22.4" transform="matrix(-1 -1.224647e-16 1.224647e-16 -1 346.1776 57.5734)" class="st35" width="18.4" height="12.9"/>
							
								<rect x="145.5" y="22.4" transform="matrix(-1 -1.224647e-16 1.224647e-16 -1 309.4366 57.5734)" class="st35" width="18.4" height="12.9"/>
							
								<rect x="127.1" y="22.4" transform="matrix(-1 -1.224647e-16 1.224647e-16 -1 272.6351 57.5734)" class="st35" width="18.4" height="12.9"/>
						</g>
					</g>
					<g>
						<path class="st36" d="M174.3,35.3c0,0-0.4,1.3-1.8,1.3c-1.4,0-1.5,1.3-1.4,2.3c0.1,1,0.2,1.8,1.3,1.4c1.1-0.3,1.3-0.6,2.3,0.5
							c1,1.1,2.8-0.5,2.7-1.5c-0.1-1-0.4-2.7-1.2-2.9C175.4,36.2,174.9,34.9,174.3,35.3z"/>
						<g>
							<path class="st37" d="M175.4,34.5c-0.3,0-0.5,0.3-0.5,0.8c-0.1,0.5-0.4,0.8-0.3,1.1c0.1,0.3,0.5,0.1,0.8,0.1
								c1.1,0.3,0.7-0.6,0.6-1C175.9,35.1,176.1,34.6,175.4,34.5z"/>
							<polygon class="st33" points="175.4,35.5 175.2,37.2 175.5,37.2 							"/>
						</g>
						<g>
							<path class="st37" d="M173.1,35.1c-0.3,0-0.5,0.3-0.5,0.8c-0.1,0.5-0.4,0.8-0.3,1.1s0.5,0.1,0.8,0.1c1.1,0.3,0.7-0.6,0.6-1
								C173.5,35.7,173.8,35.2,173.1,35.1z"/>
							<polygon class="st33" points="173.1,36.1 172.9,37.8 173.2,37.8 							"/>
						</g>
						<path class="st36" d="M137.7,16.4c0,0-2.2,0.3-2.8-0.9c-0.5-1.1-2.5-0.5-2.8,0.5c-0.3,1-2.1,2.1-1.5,2.9
							c0.6,0.8,3.4-0.4,3.7,0.6c0.3,1,0,1.8,0.9,3c0.9,1.2-0.6,2.2-0.1,4c0.5,1.8,3.2,2.9,3.9,2.2c0.7-0.8-0.1-2,1-2.4
							c1.1-0.4,3.5-1.2,3.8-2.5c0.2-1.4,0.4-3.8-1.1-3.4S139,21,139.3,20C139.5,19,139.9,16.3,137.7,16.4z"/>
						<path class="st36" d="M156.8,27.6c0,0-1.3,0.3-1.9-0.4c-0.5-0.7-1.5-0.4-2.2,0c-0.7,0.4-2.6,1.4-2.1,2.9
							c0.5,1.5,1.4,2.6,2.7,2.5c1.3-0.2,2.3,0.8,1.9,1.8c-0.4,0.9-0.3,2.2,0.4,3.1c0.7,1,1.8,2.6,2.8,1.6c1-1,1.4-2.1,2.1-2.9
							c0.8-0.9-0.1-2.8,0.4-3.4c0.5-0.6,0.5-1.5-0.9-1.8C158.4,30.9,157.5,27.3,156.8,27.6z"/>
						<path class="st36" d="M147,33.6c0,0-1.7,0.2-2-0.5c-0.3-0.7-1.3-2.3-2.7-2c-1.4,0.3-3.1,1-3,1.8c0.1,0.8,1.8,3.5,1.3,4.8
							c-0.5,1.3,2,6.5,3,5.5c1-0.9,0.1-2.7,0.9-3.4c0.9-0.7,0.8-3.7,1.3-3.9C146.4,35.8,148.2,33.7,147,33.6z"/>
						<path class="st38" d="M149.2,16c-0.7,0-1.3,0.6-1.3,1.3c0,0.7,1.3,2.4,1.3,2.4s1.3-1.6,1.3-2.4C150.5,16.6,149.9,16,149.2,16z
							 M149.2,17.9c-0.3,0-0.6-0.3-0.6-0.6c0-0.3,0.3-0.6,0.6-0.6c0.3,0,0.6,0.3,0.6,0.6C149.8,17.6,149.5,17.9,149.2,17.9z"/>
						<path class="st38" d="M157.6,36c-0.5,0-0.9,0.4-0.9,0.9c0,0.5,0.9,1.5,0.9,1.5s0.9-1.1,0.9-1.5C158.4,36.3,158.1,36,157.6,36z
							 M157.6,37.2c-0.2,0-0.4-0.2-0.4-0.4c0-0.2,0.2-0.4,0.4-0.4s0.4,0.2,0.4,0.4C158,37,157.8,37.2,157.6,37.2z"/>
						<path class="st39" d="M142.8,12.5c0,0-0.8,1.1-1.8,1.3s-2,1-1.3,1.7c0.7,0.7,0.9,2.1,2.1,2.3c1.3,0.2,2.8-2.7,2.8-3.5
							C144.6,13.8,143.4,11.8,142.8,12.5z"/>
						<path class="st38" d="M137.8,20.9c-0.7,0-1.3,0.6-1.3,1.3c0,0.7,1.3,2.4,1.3,2.4s1.3-1.6,1.3-2.4
							C139.1,21.5,138.5,20.9,137.8,20.9z M137.8,22.8c-0.3,0-0.6-0.3-0.6-0.6c0-0.3,0.3-0.6,0.6-0.6c0.3,0,0.6,0.3,0.6,0.6
							C138.4,22.6,138.1,22.8,137.8,22.8z"/>
						<path class="st36" d="M168.9,14.9c0,0-1.7,1.3-3.3,0.8c-1.6-0.5-3.3,2.5-4.3,2.7c-1,0.2-3.2,2.6-4.1,1.6c-1-1.1-4.3,1-3.6,2
							s-3.3,3.6-2,4.1c1.2,0.4,5.5-1.6,5.9,0c0.4,1.6,1.2,4.3,3.1,3.6c1.9-0.7,4.1-1,4.4,0.1c0.3,1.1,0.8,2.5,1.6,1.9
							c0.8-0.6,1.7-2.6,2.5-2c0.8,0.6,4.6-1.7,4.4-3.4C173.1,24.5,175.5,13.2,168.9,14.9z"/>
						<g>
							<polygon class="st40" points="158.3,16 154.8,14.1 158,14.2 157.7,14.7 158.4,15.4 							"/>
							<polygon class="st41" points="154.8,14.1 158.5,14.7 161.2,16.4 							"/>
							<polygon class="st41" points="158,14.2 154.8,14.1 158.1,13 							"/>
						</g>
						<g>
							<g>
								<polygon class="st33" points="166.9,25.9 163.1,25.9 164.7,22.8 165.1,22 165.6,23 								"/>
								<path class="st14" d="M165.6,23c-0.1,0-0.2-0.1-0.3-0.1c-0.2,0-0.3,0.2-0.4,0c0-0.1-0.1-0.1-0.2-0.1l0.5-0.9L165.6,23z"/>
							</g>
							<g>
								<polygon class="st33" points="164.8,25.9 161.8,25.9 163.1,23.6 163.4,22.9 163.8,23.7 								"/>
								<path class="st14" d="M163.8,23.7c-0.1,0-0.2-0.1-0.3-0.1c-0.1,0-0.2,0.1-0.3,0c0,0-0.1-0.1-0.2-0.1l0.4-0.7L163.8,23.7z"/>
							</g>
						</g>
						<g>
							<path class="st37" d="M165.5,18.6c0.2,0,0.4-0.1,0.4-0.1c-0.6-0.3-0.9-1.3-0.9-1.3s-0.3,1-0.9,1.3c0,0,0.2,0.1,0.4,0.1
								c0,0-0.2,0.5-0.6,0.6c0,0,0.8,0.2,1,0c0.2,0.2,1,0,1,0C165.7,19.1,165.5,18.6,165.5,18.6z"/>
							<polygon class="st42" points="165.1,18.8 165,19.6 165.2,19.6 							"/>
						</g>
						<g>
							<path class="st37" d="M167,19.8c0.2,0,0.4-0.1,0.4-0.1c-0.6-0.3-0.9-1.3-0.9-1.3s-0.3,1-0.9,1.3c0,0,0.2,0.1,0.4,0.1
								c0,0-0.2,0.5-0.6,0.6c0,0,0.8,0.2,1,0c0.2,0.2,1,0,1,0C167.2,20.3,167,19.8,167,19.8z"/>
							<polygon class="st42" points="166.6,19.9 166.5,20.8 166.7,20.8 							"/>
						</g>
						<g>
							<path class="st37" d="M163.9,20c0.2,0,0.4-0.1,0.4-0.1c-0.6-0.3-0.9-1.3-0.9-1.3s-0.3,1-0.9,1.3c0,0,0.2,0.1,0.4,0.1
								c0,0-0.2,0.5-0.6,0.6c0,0,0.8,0.2,1,0c0.2,0.2,1,0,1,0C164.1,20.4,163.9,20,163.9,20z"/>
							<polygon class="st42" points="163.5,20.1 163.4,20.9 163.6,20.9 							"/>
						</g>
						<path class="st36" d="M147.1,28.7c0,0,0.8-1.2,1.8-1.5c0,0-1.6,1.3-1.4,2.2c0,0-1.2-1-1.5-0.8
							C146.1,28.7,146.7,28.5,147.1,28.7z"/>
						<path class="st36" d="M145.1,28.2c0,0,0.5-0.8,1.2-0.9c0,0-1,0.8-0.9,1.4c0,0-0.7-0.6-1-0.5C144.4,28.2,144.8,28,145.1,28.2z"
							/>
						<path class="st36" d="M154.6,41.9c-0.3,0.1-1,0.6-1,0.6c-0.4-0.1-1.1-0.2-1.9-0.3c0-0.1,0.1-0.3,0-0.3c-0.1,0-0.4,0.2-0.5,0.3
							c-0.5,0-1,0-1.5,0.1c-0.3,0.1-0.8,0.5,0,0.6c0.7,0.1,1.9,0.1,3.9-0.2v0l0.7,0.3c0,0-0.1-0.2-0.2-0.4
							C153.9,42.4,154.6,41.9,154.6,41.9z"/>
						<path class="st36" d="M134.5,37.1c-0.2,0.1-0.8,0.4-0.8,0.4c-0.3-0.1-0.8-0.2-1.4-0.2c0-0.1,0.1-0.2,0-0.2
							c-0.1,0-0.3,0.1-0.4,0.2c-0.4,0-0.7,0-1.1,0.1c-0.2,0-0.6,0.3,0,0.4c0.5,0.1,1.4,0.1,2.9-0.2v0l0.5,0.2c0,0-0.1-0.1-0.1-0.3
							C134,37.5,134.5,37.1,134.5,37.1z"/>
						<path class="st36" d="M136.3,38.8c-0.2,0.1-0.8,0.4-0.8,0.4c-0.3-0.1-0.8-0.2-1.4-0.2c0-0.1,0.1-0.2,0-0.2
							c-0.1,0-0.3,0.1-0.4,0.2c-0.4,0-0.7,0-1.1,0.1c-0.2,0-0.6,0.3,0,0.4c0.5,0.1,1.4,0.1,2.9-0.2l0,0l0.5,0.2c0,0-0.1-0.1-0.1-0.3
							C135.8,39.2,136.3,38.8,136.3,38.8z"/>
					</g>
					<g>
						<circle class="st14" cx="178" cy="13.5" r="2.5"/>
						<g>
							<g>
								<polygon class="st43" points="178,11.6 177.8,13.5 178.1,13.5 								"/>
								<polygon class="st43" points="177.9,15.4 178.1,13.5 177.8,13.5 								"/>
							</g>
							<g>
								<polygon class="st43" points="179.8,13.5 178,13.3 178,13.7 								"/>
								<polygon class="st43" points="176.1,13.5 178,13.7 178,13.3 								"/>
							</g>
							<g>
								<polygon class="st43" points="179.1,14.6 178,13.4 177.9,13.5 								"/>
								<polygon class="st43" points="176.7,12.4 177.9,13.5 178,13.4 								"/>
							</g>
							<g>
								<polygon class="st43" points="176.9,14.7 178.1,13.5 177.9,13.4 								"/>
								<polygon class="st43" points="179.1,12.3 177.9,13.4 178.1,13.5 								"/>
							</g>
							<g>
								<polygon class="st36" points="178.4,11.7 177.8,13.5 178.1,13.5 								"/>
								<polygon class="st44" points="177.5,15.3 178.1,13.5 177.8,13.5 								"/>
								<path class="st11" d="M177.8,13.5c0-0.1,0.1-0.1,0.2-0.1c0.1,0,0.1,0.1,0.1,0.2c0,0.1-0.1,0.1-0.2,0.1
									C177.8,13.6,177.8,13.5,177.8,13.5z"/>
							</g>
						</g>
					</g>
					<g>
						<polygon class="st32" points="166,8.4 157.6,5 149.9,8.4 149.8,8.4 157.6,4.6 166.1,8.4 						"/>
					</g>
					<path class="st42" d="M157.3,5.1c0-0.1,0.1-0.3,0.3-0.3c0.1,0,0.3,0.1,0.3,0.3c0,0.1-0.1,0.3-0.3,0.3
						C157.4,5.3,157.3,5.2,157.3,5.1z"/>
				</g>
				<g>
					<g>
						<g>
							<rect x="37" y="92.1" class="st45" width="10.1" height="1.7"/>
							<path class="st46" d="M47.3,93.7H32.1l0-1.5h15.3c0,0,0.1,0,0.1-0.1c0-0.1,0-0.1-0.1-0.1H32h-0.4c-0.1,0-0.2,0.1-0.3,0.2
								c-0.2,0.3-0.5,1,0.1,1.7h0h0.7h15.2C47.3,93.8,47.4,93.8,47.3,93.7C47.4,93.7,47.3,93.7,47.3,93.7z"/>
							<path class="st47" d="M41.5,93.7l-9.8,0c-0.2,0-0.3-0.1-0.3-0.3v-1c0-0.1,0.1-0.2,0.2-0.2h9.9V93.7z"/>
							<polygon class="st45" points="38.6,93 41.5,92.9 41.5,93 							"/>
							<polygon class="st45" points="40.5,93.3 41.5,93.3 41.5,93.3 							"/>
						</g>
						<g>
							<rect x="35.5" y="90.3" class="st45" width="8.9" height="1.7"/>
							<path class="st16" d="M44.6,91.8H31.1l0-1.5h13.5c0,0,0.1,0,0.1-0.1c0-0.1,0-0.1-0.1-0.1H31.1h-0.4c-0.1,0-0.2,0.1-0.2,0.2
								c-0.2,0.3-0.4,1,0.1,1.7h0h0.6h13.4C44.6,92,44.6,91.9,44.6,91.8C44.6,91.8,44.6,91.8,44.6,91.8z"/>
							<path class="st47" d="M39.5,91.8l-8.7,0c-0.2,0-0.3-0.1-0.3-0.3v-1c0-0.1,0.1-0.2,0.2-0.2h8.8V91.8z"/>
							<polygon class="st45" points="36.9,91.1 39.5,91 39.5,91.1 							"/>
							<polygon class="st45" points="38.5,91.4 39.5,91.4 39.5,91.4 							"/>
						</g>
					</g>
					<g>
						<path class="st48" d="M38.9,93c0,0-0.2,0-0.3,0.1c-0.1,0.1-0.2,0.2-0.2,0.3c0,0,0,0.1,0,0.1h-0.8c0,0,0-0.1,0-0.2
							c0-0.1,0-0.2,0.1-0.2c0.1-0.1,0.1-0.1,0.1-0.1H38.9z"/>
						<path class="st42" d="M38.4,93.5c-0.1,0.1-0.3,0.2-0.3,0.2l-0.3-0.1l-0.4,0.1c0,0,0.1-0.1,0.2-0.2H38.4z"/>
						<path class="st42" d="M38.9,93c0,0-0.2,0-0.3,0.1h-0.9c0.1-0.1,0.1-0.1,0.1-0.1H38.9z"/>
					</g>
				</g>
				<g>
					<g>
						<g>
							<path class="st47" d="M179,90.9h-7.4v-2.6h7.4c0.6,0,1,0.5,1,1v0.5C180.1,90.5,179.6,90.9,179,90.9z"/>
							<path class="st49" d="M186.4,89.4v0.4c0,0.2-0.1,0.4-0.2,0.6c-0.2,0.3-0.6,0.6-1,0.6h-13.8c-0.1,0-0.2-0.1-0.2-0.2v-0.1
								c0-0.1,0.1-0.2,0.2-0.2h8.4c0-0.1,0.1-0.1,0.1-0.2c0.1-0.1,0.1-0.3,0.1-0.5v-0.5c0-0.1,0-0.2,0-0.3c0-0.1-0.1-0.3-0.2-0.4
								h-8.4c-0.1,0-0.2-0.1-0.2-0.2v-0.1c0-0.1,0.1-0.2,0.2-0.2h13.9c0.5,0,0.9,0.3,1,0.8C186.4,89.2,186.4,89.3,186.4,89.4z"/>
							<path class="st50" d="M186.3,89.1h-6.3c0-0.1-0.1-0.3-0.2-0.4h-8.4c-0.1,0-0.2-0.1-0.2-0.2v-0.1c0-0.1,0.1-0.2,0.2-0.2h13.9
								C185.8,88.3,186.2,88.7,186.3,89.1z"/>
						</g>
						<polygon class="st51" points="171.7,89.6 172.7,89.7 171.7,89.7 						"/>
						<polygon class="st51" points="171.7,90 174.1,90.1 171.7,90.1 						"/>
					</g>
					<g>
						<g>
							<g>
								<path class="st19" d="M173.4,92.9h7.8v-2h-7.9c-0.5,0-1,0.4-1,1l0,0C172.4,92.5,172.9,92.9,173.4,92.9z"/>
								<path class="st47" d="M180.8,92.9h8.9v-2h-8.9c-0.6,0-1,0.4-1,1v0C179.8,92.5,180.3,92.9,180.8,92.9z"/>
								<path class="st19" d="M179.2,92.9h10.9c0.1,0,0.2-0.1,0.2-0.2l0,0c0-0.1-0.1-0.2-0.2-0.2h-10.9c-0.1,0-0.2,0.1-0.2,0.2l0,0
									C179.1,92.9,179.1,92.9,179.2,92.9z"/>
								<path class="st19" d="M179.2,91.2h10.9c0.1,0,0.2-0.1,0.2-0.2l0,0c0-0.1-0.1-0.2-0.2-0.2h-10.9c-0.1,0-0.2,0.1-0.2,0.2l0,0
									C179.1,91.2,179.1,91.2,179.2,91.2z"/>
							</g>
							<polygon class="st51" points="189.7,91.9 188.5,92 189.7,92 							"/>
							<polygon class="st51" points="189.7,91.5 186.9,91.5 189.7,91.5 							"/>
						</g>
						<g>
							<path class="st49" d="M186.9,91.5c0,0,0.1,0.1,0.2,0.2c0,0,0,0.1,0,0.1c0,0.2,0,0.6,0,0.6l0.4-0.2l0.4,0.2v-0.6
								c0-0.1,0-0.2-0.1-0.3c0,0-0.1-0.1-0.1-0.1H186.9z"/>
							<path class="st52" d="M186.9,91.5c0,0,0.1,0.1,0.2,0.2l0.7,0c0,0,0-0.2-0.2-0.2H186.9z"/>
						</g>
					</g>
					<g>
						<g>
							<g>
								<path class="st47" d="M179.9,88.3h8v-3h-8c-0.6,0-1.2,0.5-1.2,1.2v0.6C178.7,87.8,179.3,88.3,179.9,88.3z"/>
								<path class="st16" d="M178.9,86.5v0.6c0,0.3,0.2,0.5,0.4,0.6c0.1,0.1,0.2,0.1,0.4,0.1h8.7c0.1,0,0.2,0.1,0.2,0.2v0.1
									c0,0.1-0.1,0.2-0.2,0.2h-15c-0.4,0-0.8-0.2-1-0.5c-0.1-0.2-0.2-0.5-0.2-0.7v-0.5c0-0.2,0-0.4,0.1-0.5
									c0.2-0.4,0.6-0.7,1.1-0.7h15.1c0.1,0,0.2,0.1,0.2,0.2v0.1c0,0.1-0.1,0.2-0.2,0.2h-8.7c-0.2,0-0.4,0.1-0.5,0.2
									C179,86.2,178.9,86.3,178.9,86.5z"/>
							</g>
							<polygon class="st51" points="187.9,86.8 186.8,86.9 187.9,86.9 							"/>
							<polygon class="st51" points="187.9,86.2 185.3,86.2 187.9,86.2 							"/>
						</g>
						<g>
							<path class="st41" d="M185.3,86.2c0,0,0.2,0.1,0.2,0.2c0,0,0,0.1,0,0.1c0,0.2,0,0.7,0,0.7l0.5-0.2l0.5,0.2v-0.6
								c0-0.1,0-0.2-0.1-0.3c0,0-0.1-0.1-0.1-0.1H185.3z"/>
							<path class="st53" d="M185.3,86.2c0,0,0.2,0.1,0.2,0.2l1,0c0,0,0-0.2-0.3-0.3H185.3z"/>
						</g>
					</g>
				</g>
				<g>
					<g>
						<g>
							<path class="st47" d="M134,78.6h-5.4v-1.9h5.5c0.4,0,0.8,0.3,0.8,0.8v0.4C134.8,78.3,134.5,78.6,134,78.6z"/>
							<path class="st49" d="M139.5,77.5v0.3c0,0.2,0,0.3-0.1,0.4c-0.1,0.3-0.4,0.4-0.7,0.4h-10.2c-0.1,0-0.1-0.1-0.1-0.1v0
								c0-0.1,0.1-0.1,0.1-0.1h6.2c0,0,0.1-0.1,0.1-0.1c0.1-0.1,0.1-0.2,0.1-0.4v-0.4c0-0.1,0-0.1,0-0.2c0-0.1-0.1-0.2-0.1-0.3h-6.2
								c-0.1,0-0.1-0.1-0.1-0.1v0c0-0.1,0.1-0.1,0.1-0.1h10.3c0.4,0,0.7,0.2,0.8,0.6C139.5,77.3,139.5,77.4,139.5,77.5z"/>
							<path class="st50" d="M139.4,77.3h-4.6c0-0.1-0.1-0.2-0.1-0.3h-6.2c-0.1,0-0.1-0.1-0.1-0.1v0c0-0.1,0.1-0.1,0.1-0.1h10.3
								C139,76.7,139.3,76.9,139.4,77.3z"/>
						</g>
						<polygon class="st51" points="128.6,77.7 129.4,77.7 128.6,77.7 						"/>
						<polygon class="st51" points="128.6,78 130.4,78 128.6,78 						"/>
					</g>
					<g>
						<g>
							<g>
								<path class="st19" d="M129.9,80.1h5.8v-1.5h-5.8c-0.4,0-0.7,0.3-0.7,0.7l0,0C129.1,79.8,129.5,80.1,129.9,80.1z"/>
								<path class="st47" d="M135.4,80.1h6.6v-1.5h-6.6c-0.4,0-0.7,0.3-0.7,0.7v0C134.6,79.8,134.9,80.1,135.4,80.1z"/>
								<path class="st19" d="M134.2,80.1h8c0.1,0,0.1-0.1,0.1-0.1l0,0c0-0.1-0.1-0.1-0.1-0.1h-8c-0.1,0-0.1,0.1-0.1,0.1l0,0
									C134.1,80.1,134.1,80.1,134.2,80.1z"/>
								<path class="st19" d="M134.2,78.8h8c0.1,0,0.1-0.1,0.1-0.1l0,0c0-0.1-0.1-0.1-0.1-0.1h-8c-0.1,0-0.1,0.1-0.1,0.1l0,0
									C134.1,78.8,134.1,78.8,134.2,78.8z"/>
							</g>
							<polygon class="st51" points="142,79.4 141.1,79.4 142,79.4 							"/>
							<polygon class="st51" points="142,79 139.8,79 142,79.1 							"/>
						</g>
						<g>
							<path class="st49" d="M139.9,79c0,0,0.1,0.1,0.1,0.2c0,0,0,0,0,0.1c0,0.1,0,0.5,0,0.5l0.3-0.2l0.3,0.2v-0.4
								c0-0.1,0-0.2-0.1-0.2c0,0,0,0-0.1,0H139.9z"/>
							<path class="st52" d="M139.9,79c0,0,0.1,0.1,0.1,0.2l0.5,0c0,0,0-0.2-0.1-0.2H139.9z"/>
						</g>
					</g>
				</g>
			</g>
		</g>
	</g>
</g>
</svg>
