<?xml version="1.0" encoding="utf-8"?>
<!-- Generator: Adobe Illustrator 24.1.1, SVG Export Plug-In . SVG Version: 6.00 Build 0)  -->
<svg version="1.1" id="Layer_1" xmlns="http://www.w3.org/2000/svg" xmlns:xlink="http://www.w3.org/1999/xlink" x="0px" y="0px"
	 viewBox="0 0 212 160" style="enable-background:new 0 0 212 160;" xml:space="preserve">
<style type="text/css">
	.st0{opacity:0.4;fill:#3B66AF;enable-background:new    ;}
	.st1{fill:#B7E0EE;}
	.st2{fill:#375A64;}
	.st3{fill:#FFBF9D;}
	.st4{fill:#FF9260;}
	.st5{fill:#1A2E35;}
	.st6{fill:#FAFAFA;}
	.st7{opacity:0.3;}
	.st8{fill:#93241A;}
	.st9{fill:#92574D;}
	.st10{fill:#A75D41;}
	.st11{fill:#43190B;}
	.st12{fill:#6C4643;}
	.st13{fill:#FFC100;}
	.st14{fill:#B66955;}
	.st15{fill:#8E3823;}
	.st16{fill:#FF7347;}
	.st17{fill:#FC5959;}
	.st18{fill:#2B95F9;}
	.st19{fill:#2B95F9;stroke:#2B95F9;stroke-miterlimit:10;}
</style>
<g>
	<path class="st0" d="M192.2,157.3H27.6c-9.9,0-17.9-8-17.9-17.9v-112c0-9.9,8-17.9,17.9-17.9h164.6c9.9,0,17.9,8,17.9,17.9v112
		C210,149.3,202,157.3,192.2,157.3z"/>
	<path class="st1" d="M184.4,150.5H19.8c-9.9,0-17.9-8-17.9-17.9v-112c0-9.9,8-17.9,17.9-17.9h164.6c9.9,0,17.9,8,17.9,17.9v112
		C202.3,142.5,194.3,150.5,184.4,150.5z"/>
</g>
<g>
	<g>
		<g>
			<polygon class="st2" points="180.8,134 36.1,134 35.6,139.2 67.7,139.2 67.7,150.2 70.8,150.2 70.8,139.2 172.2,139.2 
				172.2,150.3 175.3,150.3 175.3,139.2 180.8,139.2 			"/>
		</g>
	</g>
	<g>
		<g>
			<g>
				<path class="st3" d="M140.7,93.5c0-0.2-3.4-15.3-3.6-16.4l2.9-4.2c0,0,1-1,0.7-1.4c-0.3-0.4-0.9-0.5-1.5-0.1
					c-0.4,0.3-2.4,1.3-2.4,1.3s-0.8-6.1-0.9-6.6c-0.2-0.4-0.6-0.7-0.9-0.3c-0.3,0.3-0.2,4.5-0.2,4.5s-1.7-5.1-2-5.3
					c-0.5-0.3-1,0.2-1,0.4c0,0.2,1.1,5.7,1.1,5.7s-2.6-5-3.1-4.8c-0.4,0.2-0.6,0.4-0.6,0.8c0,0.4,1.8,5.6,1.8,5.6s-2-3.9-2.4-3.7
					c-0.4,0.1-0.5,0.6-0.5,1c0.1,0.4,2.6,8,3,9.4l0,0l1.1,18l7.2,15.6l6.5-9.1C146,103.7,140.7,93.7,140.7,93.5z"/>
			</g>
		</g>
		<g>
			<g>
				<path class="st3" d="M150,98.1c0,0-0.9,12.8,0.8,14.7c1.7,2,5.2,1.5,5.2,1.5l2.3-10.9L150,98.1z"/>
			</g>
		</g>
		<g>
			<g>
				<g>
					<g>
						<g>
							<path class="st4" d="M146.2,103.7l3.3,4.7l7.5,3.9l17,8.9c1.8,0.9,2.7,3,2.1,5l-0.6,2l-6.4,15.8l0.3,6.3l-33.9-0.1
								c0,0,7.6-24.8,7.9-26.4c0.2-1.6-1.2-3.7-1.2-3.7s-4.4-3.1-4.4-3.4C137.7,116.4,138.3,104.4,146.2,103.7z"/>
						</g>
					</g>
					<g>
						<g>
							<g>
								<path class="st5" d="M145.4,130.1c0,0,0-0.6-0.1-1.6c0-0.5-0.1-1.1-0.3-1.7c-0.1-0.6-0.3-1.3-0.6-2
									c-0.5-1.4-1.2-2.6-1.7-3.4c-0.5-0.8-0.9-1.3-0.8-1.3c0,0,0.1,0.1,0.3,0.3c0.2,0.2,0.4,0.5,0.7,0.9c0.5,0.8,1.2,2,1.8,3.4
									c0.3,0.7,0.5,1.4,0.6,2c0.1,0.6,0.2,1.2,0.2,1.7c0,0.2,0,0.5,0,0.7c0,0.2,0,0.4,0,0.5C145.4,129.9,145.4,130.1,145.4,130.1z
									"/>
							</g>
						</g>
					</g>
				</g>
				<g>
					<g>
						<g>
							<path class="st5" d="M164.7,142.2c0,0-0.2,0.1-0.7,0.2c-0.4,0.1-1,0.3-1.8,0.6c-1.5,0.5-3.7,1.1-6,1.7
								c-2.4,0.6-4.5,1.2-6.1,1.5c-0.8,0.2-1.4,0.3-1.9,0.4c-0.4,0.1-0.7,0.1-0.7,0.1c0,0,0.2-0.1,0.7-0.2c0.5-0.1,1.1-0.3,1.8-0.5
								c1.6-0.4,3.7-1,6.1-1.6c2.3-0.7,4.5-1.2,6.1-1.7c0.7-0.2,1.4-0.4,1.8-0.5C164.4,142.2,164.7,142.2,164.7,142.2z"/>
						</g>
					</g>
				</g>
			</g>
			<g>
				<g>
					<g>
						<path class="st6" d="M175.8,126.5c0,0-0.1,0-0.3-0.1c-0.2-0.1-0.5-0.2-0.8-0.2c-0.7-0.2-1.8-0.4-3.2-0.3
							c-1.4,0.1-3.1,0.6-4.8,1.8c-0.8,0.6-1.6,1.3-2.2,2.3c-0.6,0.9-1.2,2-1.4,3.3c-0.1,0.6-0.1,1.3,0,1.9c0.2,0.6,0.5,1.2,1.1,1.6
							c1.1,0.8,2.8,0.8,4,0c1.2-0.9,1.7-2.5,1.4-4c-0.3-1.5-1.5-2.9-3-3.6c-1.5-0.7-3.3-0.7-5-0.3c-0.8,0.2-1.7,0.6-2.4,1
							c-0.8,0.4-1.5,0.9-2.2,1.5c-1.4,1.2-2.5,2.7-3.2,4.4c-0.4,0.9-0.6,1.8-0.8,2.7c0,0.5-0.1,0.9-0.1,1.4c0,0.5,0.1,0.9,0.4,1.3
							c0.3,0.4,0.7,0.6,1.1,0.7c0.5,0.1,0.9,0,1.4-0.1c0.9-0.2,1.7-0.8,2.2-1.5c1.1-1.5,0.8-3.7-0.5-5c-0.6-0.6-1.5-1-2.3-1.3
							c-0.8-0.2-1.7-0.3-2.6-0.3c-1.7,0.1-3.4,0.6-4.9,1.4c-1.5,0.8-2.7,1.9-3.6,3.2c-0.9,1.3-1.6,2.7-1.5,4.2c0,1.5,1,2.8,2.3,3.2
							c0.6,0.2,1.3,0.1,1.9-0.2c0.6-0.3,1-0.8,1.3-1.3c0.6-1.1,0.6-2.4,0.4-3.5c-0.2-1.1-0.6-2.1-1.1-3c-1-1.7-2.6-2.8-4-2.9
							c-0.7-0.1-1.3,0.1-1.8,0.2c-0.5,0.2-0.9,0.4-1.2,0.7c-0.5,0.5-0.7,0.9-0.7,0.9c0,0,0-0.1,0.1-0.3c0.1-0.2,0.3-0.4,0.5-0.7
							c0.5-0.5,1.6-1.1,3-1c1.5,0.1,3.1,1.1,4.1,2.9c0.5,0.9,0.9,1.9,1.2,3c0.2,1.1,0.2,2.4-0.4,3.6c-0.3,0.6-0.8,1.1-1.4,1.4
							c-0.6,0.3-1.3,0.4-2,0.2c-1.4-0.4-2.4-1.8-2.4-3.4c-0.1-1.5,0.6-3.1,1.6-4.3c1-1.3,2.2-2.4,3.7-3.2c1.5-0.8,3.2-1.4,5-1.5
							c0.9,0,1.8,0,2.7,0.3c0.9,0.2,1.7,0.7,2.4,1.3c1.4,1.3,1.6,3.7,0.5,5.3c-0.6,0.8-1.4,1.4-2.4,1.6c-0.5,0.1-1,0.2-1.5,0.1
							c-0.5-0.1-1-0.3-1.3-0.8c-0.3-0.4-0.4-0.9-0.4-1.4c0-0.5,0-1,0.1-1.5c0.1-1,0.4-1.9,0.8-2.8c0.7-1.8,1.9-3.3,3.3-4.5
							c0.7-0.6,1.4-1.1,2.2-1.6c0.8-0.4,1.6-0.8,2.5-1c1.7-0.5,3.6-0.4,5.1,0.3c1.5,0.7,2.8,2.1,3.1,3.7c0.3,1.6-0.3,3.3-1.5,4.2
							c-1.3,0.9-3,0.8-4.2,0c-0.6-0.4-0.9-1.1-1.1-1.7c-0.2-0.7-0.1-1.3,0-2c0.2-1.3,0.8-2.4,1.5-3.3c0.7-0.9,1.5-1.7,2.3-2.3
							c1.7-1.2,3.4-1.6,4.8-1.7c1.4-0.1,2.5,0.1,3.3,0.3C175.4,126.4,175.8,126.5,175.8,126.5z"/>
					</g>
				</g>
			</g>
			<g>
				<g>
					<g>
						<path class="st6" d="M153.1,112.7c0,0-0.2,0.5-0.9,1.1c-0.6,0.6-1.8,1.5-3.4,1.8c-0.8,0.2-1.7,0.2-2.7-0.1
							c-0.9-0.2-1.9-0.7-2.7-1.4c-0.4-0.4-0.8-0.8-1.1-1.3c-0.3-0.5-0.6-1-0.7-1.6c-0.1-0.6-0.1-1.3,0.2-1.8c0.3-0.6,1-0.9,1.6-0.9
							c0.6,0,1.3,0.2,1.8,0.5c0.5,0.3,1,0.8,1.3,1.3c0.7,1,0.9,2.2,0.9,3.3c0,0.5-0.1,1.1-0.3,1.6c-0.2,0.5-0.4,0.9-0.7,1.3
							c-0.6,0.8-1.3,1.3-2.1,1.7c-1.5,0.7-2.9,0.7-3.8,0.5c-0.9-0.2-1.4-0.4-1.4-0.4c0,0,0.5,0.2,1.4,0.3c0.9,0.1,2.2,0.1,3.7-0.6
							c0.7-0.3,1.4-0.9,2-1.6c0.3-0.4,0.5-0.8,0.7-1.3c0.2-0.5,0.2-1,0.3-1.5c0-1-0.2-2.2-0.9-3.1c-0.3-0.5-0.7-0.9-1.2-1.2
							c-0.5-0.3-1.1-0.5-1.7-0.4c-0.6,0-1.2,0.3-1.5,0.8c-0.3,0.5-0.3,1.1-0.2,1.6c0.1,0.6,0.4,1.1,0.7,1.5c0.3,0.5,0.7,0.9,1.1,1.2
							c0.8,0.7,1.7,1.2,2.6,1.4c0.9,0.2,1.8,0.3,2.6,0.1c1.6-0.3,2.7-1.1,3.3-1.7C152.8,113.1,153,112.7,153.1,112.7z"/>
					</g>
				</g>
			</g>
			<g>
				<g>
					<g>
						<path class="st6" d="M168.7,148.9c0,0-0.4-0.2-1-0.5c-0.7-0.3-1.7-0.5-2.7-0.3c-1.1,0.2-1.9,0.7-2.5,1.2
							c-0.5,0.5-0.8,0.9-0.8,0.8c0,0,0-0.1,0.1-0.3c0.1-0.2,0.3-0.4,0.6-0.7c0.5-0.5,1.4-1.1,2.5-1.3c1.1-0.2,2.2,0.1,2.8,0.4
							c0.3,0.2,0.6,0.3,0.8,0.4C168.6,148.8,168.7,148.9,168.7,148.9z"/>
					</g>
				</g>
			</g>
		</g>
		<g>
			<g class="st7">
				<g>
					<g>
						<path d="M163.8,113.7c-3.3-1.4-7-1.6-10.5-3.2l-4.1-2.1c0.4,0.6,1.5,1.1,1.8,2.1c0.3,0.9,0.2,2,0.1,2.9
							c-0.1,2.6,0.1,5.3,0.7,7.8c0.4,1.6,1.1,3.4,2.6,3.9c1,0.4,2.2,0,3.2-0.3c4.7-1.4,10.3-2.9,15-4.3
							C171.3,117.3,167.1,115.2,163.8,113.7z"/>
					</g>
				</g>
			</g>
			<g>
				<g>
					<path class="st8" d="M174.5,98.6c-0.5-2.5-1.3-5-2.9-6.9c-1.9-2.2-4.9-3.3-7.8-3.5c-2.5-0.2-3-1.4-5.6-1
						c-1,0.2-1.9,0.5-2.8,1.1c-3.6,2.2-5.6,5.8-6.6,10.1c-0.4,1.6-0.4,3.6,0.9,4.5c1,0.7,2.3,0.6,3.3,1.3c1.1,0.8,1.4,2.3,1.1,3.6
						c-0.2,1.3-0.8,2.5-1.2,3.8c-0.9,3.1-0.2,6.4,0.4,9.5c6.2-0.2,12.5-0.4,18.7-0.5c0.7,0,1.5-0.1,2-0.6c0.4-0.4,0.6-1.1,0.7-1.7
						C176,111.8,175.9,105.1,174.5,98.6z"/>
				</g>
			</g>
			<g>
				<g>
					<g>
						<path class="st9" d="M150.2,99c0,0,0-0.2,0-0.5c0-0.2,0-0.4,0.1-0.6c0.1-0.2,0.1-0.5,0.2-0.8c0.1-0.6,0.4-1.2,0.7-2
							c0.3-0.7,0.7-1.5,1.3-2.2c0.5-0.7,1.1-1.4,1.6-2c0.6-0.6,1.1-1,1.6-1.4c0.2-0.2,0.5-0.3,0.7-0.4c0.2-0.1,0.4-0.2,0.5-0.3
							c0.3-0.2,0.5-0.2,0.5-0.2c0,0-0.6,0.4-1.6,1.1c-0.5,0.4-1,0.8-1.5,1.4c-0.5,0.6-1.1,1.2-1.6,1.9c-0.5,0.7-0.9,1.5-1.3,2.2
							c-0.3,0.7-0.6,1.4-0.7,1.9C150.4,98.3,150.3,99,150.2,99z"/>
					</g>
				</g>
			</g>
			<g>
				<g>
					<g>
						<path class="st9" d="M152.5,101.6c0,0,0-0.5,0-1.2c0.1-0.8,0.2-1.8,0.5-3c0.3-1.1,0.7-2.1,1-2.9c0.3-0.7,0.5-1.1,0.6-1.1
							c0,0-0.2,0.5-0.4,1.2c-0.3,0.7-0.6,1.7-0.9,2.9c-0.3,1.1-0.5,2.2-0.6,2.9C152.5,101.2,152.5,101.6,152.5,101.6z"/>
					</g>
				</g>
			</g>
			<g>
				<g>
					<g>
						<path class="st9" d="M170.7,117.2c0,0,0-0.1-0.1-0.3c-0.1-0.2-0.1-0.5-0.2-0.9c-0.1-0.8-0.2-1.9-0.3-3.3c0-1.4,0.1-3,0.2-4.9
							c0.1-1.8,0.3-3.8,0.3-5.9c-0.1-2.1-0.4-4.1-1.1-5.8c-0.7-1.7-1.7-3-2.7-4c-1-0.9-2-1.5-2.7-1.7c-0.4-0.1-0.6-0.2-0.8-0.3
							c-0.2-0.1-0.3-0.1-0.3-0.1c0,0,0.1,0,0.3,0c0.2,0,0.5,0.1,0.9,0.2c0.7,0.2,1.8,0.8,2.8,1.7c1,0.9,2.1,2.3,2.8,4
							c0.7,1.7,1,3.8,1.1,5.9c0.1,2.1-0.1,4.1-0.3,6c-0.2,1.8-0.3,3.5-0.3,4.9c0,1.4,0.1,2.5,0.2,3.3c0.1,0.4,0.1,0.7,0.1,0.9
							C170.7,117.1,170.7,117.2,170.7,117.2z"/>
					</g>
				</g>
			</g>
			<g>
				<g>
					<g>
						<path class="st9" d="M169,116.9c0,0-0.1-0.5-0.2-1.4c-0.1-0.9-0.1-2.1-0.1-3.4c0-1.3,0.1-2.5,0.2-3.4c0.1-0.9,0.2-1.4,0.2-1.4
							c0,0,0,0.5,0,1.4c0,0.9-0.1,2.1-0.1,3.4c0,1.3,0,2.5,0,3.4C169,116.4,169,116.9,169,116.9z"/>
					</g>
				</g>
			</g>
		</g>
	</g>
	<g>
		<g>
			<g>
				<g>
					<path class="st10" d="M111.2,104.6c0.2,2.4,0.4,4.8,0.5,7.2c-1.8,0.3-3.7,0.5-5.5,0.1c-1.8-0.4-3.5-1.6-4.2-3.3
						c-0.1-0.3-0.2-0.7-0.1-1c0.1-0.3,0.4-0.7,0.7-0.7"/>
				</g>
			</g>
			<g>
				<g>
					<path class="st11" d="M116.1,96.9c0.3-0.9,1.5-1.4,1.5-2.4c0-1-1.3-1.5-1.6-2.4c-0.6-1.4,1.1-2.8,0.7-4.2
						c-0.5-1.7-3.4-1.9-3.9-3.5c-0.2-0.7,0-1.6-0.6-2.1c-0.7-0.6-2,0-2.9-0.4c-0.9-0.4-1.1-1.5-1.9-1.9c-0.9-0.4-1.9,0.3-2.8,0.7
						c-0.3,0.1-0.6,0.3-0.9,0.5c-1.4-0.5-3.8-0.4-4.7,0.4c-1.2,0.9-2.1,2.1-3.3,2.9c-1.1,0.7-2.6,0.9-3.5,1.8
						c-1.6,1.6-0.7,4.3-1.6,6.4c-0.3,0.7-0.8,1.3-1.1,2.1c-0.3,0.7-0.4,1.6,0.1,2.2c0.5,0.6,1.4,1,1.5,1.7c0,0.7-1,1.3-0.9,2
						c0.1,0.8,1.3,1,1.8,1.6c0.7,0.8,0,2.2,0.6,3.1c0.6,1,2.2,0.8,3.4,1c2.1,0.5,3.6,2.7,5.7,2.4c0.8-0.1,1.5-0.6,2.3-0.8
						c1.1-0.2,2.1,0.4,3.2,0.5c2,0.2,3.8-0.9,5.4-1.9c0.8-0.5,1.7-1.2,1.9-2.1c0.2-0.8-0.2-1.8,0.2-2.5c0.4-0.7,1.4-0.9,1.8-1.7
						C117.1,99.4,115.7,98.1,116.1,96.9z"/>
				</g>
			</g>
			<g>
				<g>
					<g>
						<path class="st12" d="M95.2,88.2c0,0,0-0.1-0.1-0.2c0-0.1-0.1-0.3,0-0.5c0-0.4,0.2-1.1,0.8-1.7c0.6-0.6,1.4-1,2.5-1.2
							c0.5-0.1,1.1,0,1.6,0.4c0.2,0.2,0.4,0.4,0.5,0.7c0.1,0.3,0.1,0.6,0,0.9c-0.1,0.3-0.4,0.6-0.7,0.6c-0.2,0-0.3,0-0.5-0.1
							c-0.1-0.1-0.3-0.2-0.3-0.4c-0.1-0.3,0-0.6,0.2-0.9c0.2-0.2,0.4-0.4,0.7-0.5c1-0.4,2.1,0.1,2.5,0.8c0.4,0.7,0.4,1.4,0.4,1.8
							c0,0.2-0.1,0.4-0.1,0.5c0,0.1-0.1,0.2-0.1,0.2c0,0,0.1-0.2,0.1-0.7c0-0.4,0-1.1-0.4-1.7c-0.2-0.3-0.5-0.6-0.9-0.7
							c-0.4-0.1-0.9-0.2-1.3,0c-0.2,0.1-0.4,0.3-0.6,0.5c-0.1,0.2-0.2,0.5-0.1,0.7c0.1,0.2,0.3,0.4,0.5,0.3c0.2-0.1,0.5-0.2,0.6-0.5
							c0.2-0.5-0.1-1.1-0.5-1.4c-0.4-0.3-1-0.4-1.4-0.3c-1,0.1-1.8,0.6-2.4,1.1c-0.6,0.5-0.8,1.1-0.8,1.6
							C95.1,88,95.2,88.2,95.2,88.2z"/>
					</g>
				</g>
			</g>
			<g>
				<g>
					<g>
						<path class="st12" d="M93,96.7c0,0-0.1-0.1-0.2-0.4c-0.1-0.3-0.1-0.8,0-1.3c0.1-0.5,0.4-1.2,1-1.7c0.6-0.5,1.5-0.8,2.3-0.6
							l-0.1,0.1c0-0.3-0.1-0.6,0-1c0.1-1,0.7-1.9,1.4-2.3c0.7-0.5,1.5-0.6,2.2-0.5c0.7,0.1,1.1,0.3,1.4,0.5c0.1,0.1,0.3,0.2,0.3,0.3
							c0.1,0.1,0.1,0.1,0.1,0.1c0,0-0.2-0.1-0.5-0.3c-0.3-0.2-0.8-0.4-1.4-0.4c-0.6,0-1.4,0.1-2.1,0.5c-0.7,0.5-1.2,1.3-1.3,2.2
							c0,0.3,0,0.6,0,0.9l0,0.2l-0.2,0c-0.8-0.1-1.6,0.1-2.2,0.5c-0.6,0.4-0.9,1-1,1.5c-0.1,0.5-0.1,1,0,1.3
							C93,96.6,93.1,96.7,93,96.7z"/>
					</g>
				</g>
			</g>
			<g>
				<g>
					<g>
						<path class="st12" d="M108.3,84.7c0,0-0.3-0.1-0.8-0.1c-0.5,0-1.2,0-1.8,0.4c-0.7,0.3-1.1,0.8-1.4,1.2
							c-0.3,0.4-0.4,0.7-0.4,0.7c0,0,0-0.3,0.3-0.8c0.2-0.4,0.7-1,1.4-1.4c0.7-0.4,1.4-0.4,1.9-0.3C108,84.5,108.3,84.7,108.3,84.7z
							"/>
					</g>
				</g>
			</g>
			<g>
				<g>
					<g>
						<path class="st12" d="M114.7,96.3c0,0,0.1-0.2,0.2-0.5c0.1-0.3,0.2-0.7,0.2-1.3c0-0.6-0.3-1.2-0.8-1.7
							c-0.5-0.5-1.4-0.8-2.2-0.7c-0.4,0-0.7,0.2-1.1,0.3l-0.2,0.1l0.1-0.3c0.2-0.7-0.1-1.4-0.4-1.8c-0.4-0.5-0.9-0.6-1.4-0.7
							c-0.5,0-0.8,0.1-1,0.2c-0.2,0.1-0.3,0.2-0.4,0.2c0,0,0.1-0.1,0.3-0.2c0.2-0.1,0.6-0.3,1.1-0.3c0.5,0,1.1,0.2,1.5,0.7
							c0.4,0.5,0.7,1.3,0.5,2l-0.2-0.1c0.3-0.2,0.7-0.3,1.2-0.4c0.9-0.1,1.8,0.2,2.4,0.8c0.6,0.6,0.8,1.3,0.8,1.9
							c0,0.6-0.1,1.1-0.3,1.4C114.9,96,114.8,96.1,114.7,96.3C114.7,96.3,114.7,96.3,114.7,96.3z"/>
					</g>
				</g>
			</g>
		</g>
		<g>
			<g>
				<g>
					<path class="st13" d="M91.1,137.1c0,0-5.4,1.1-6.2,0.5s-3.8-2.6-3.4-5.2c0.5-2.7,6-21.7,7.2-23.1c1.2-1.4,2.3-2.8,4.6-2.7
						c2.3,0.1,17.5,3.4,17.5,3.4s6.3-0.3,7.5,0.6c1.3,0.9,4.2,2.7,4.2,5.9c0,3.2-0.6,25.5-0.6,25.5l1.7,8.2H90.2L91.1,137.1"/>
				</g>
			</g>
			<g>
				<g>
					<g>
						<path class="st5" d="M91.1,137.1c-0.1,0-0.5-4.4-0.9-9.9c-0.4-5.5-0.7-9.9-0.7-9.9c0.1,0,0.5,4.4,0.9,9.9
							C90.9,132.6,91.2,137.1,91.1,137.1z"/>
					</g>
				</g>
			</g>
			<g>
				<g>
					<g>
						<path class="st6" d="M122.5,115.9c0,0-0.1,0-0.3,0c-0.2,0-0.6-0.1-1-0.2c-0.9-0.2-2.1-0.4-3.6-0.7c-3.1-0.5-7.3-1.3-12.1-1.9
							c-4.7-0.7-9-1.1-12.1-1.5c-1.5-0.2-2.8-0.3-3.7-0.4c-0.4,0-0.8-0.1-1-0.1c-0.2,0-0.3,0-0.3-0.1c0,0,0.1,0,0.4,0
							c0.3,0,0.6,0,1,0.1c0.9,0.1,2.1,0.2,3.7,0.3c3.1,0.3,7.4,0.7,12.1,1.4c4.7,0.7,9,1.4,12.1,2c1.5,0.3,2.8,0.5,3.6,0.7
							c0.4,0.1,0.7,0.2,1,0.2C122.4,115.9,122.5,115.9,122.5,115.9z"/>
					</g>
				</g>
			</g>
			<g>
				<g>
					<g>
						<path class="st6" d="M121.9,124c0,0-0.1,0-0.3,0c-0.2,0-0.5,0-0.9,0c-0.8,0-2-0.1-3.5-0.1c-2.9-0.1-6.9-0.4-11.4-0.8
							c-4.4-0.4-8.4-0.9-11.3-1.3c-1.4-0.2-2.6-0.4-3.4-0.5c-0.4-0.1-0.7-0.1-0.9-0.1c-0.2,0-0.3-0.1-0.3-0.1s0.1,0,0.3,0
							c0.2,0,0.5,0.1,0.9,0.1c0.8,0.1,2,0.2,3.4,0.4c2.9,0.3,6.9,0.8,11.3,1.2c4.4,0.4,8.4,0.7,11.4,0.9c1.4,0.1,2.6,0.2,3.4,0.2
							c0.4,0,0.7,0,0.9,0.1C121.8,124,121.9,124,121.9,124z"/>
					</g>
				</g>
			</g>
			<g>
				<g>
					<g>
						<path class="st6" d="M122.4,131.6c0,0-0.1,0-0.3,0.1c-0.2,0-0.5,0.1-0.9,0.1c-0.8,0.1-1.9,0.3-3.3,0.4
							c-2.8,0.3-6.7,0.5-11.1,0.6c-4.3,0-8.2-0.3-11.1-0.5c-1.4-0.1-2.6-0.3-3.3-0.4c-0.4-0.1-0.7-0.1-0.9-0.1
							c-0.2,0-0.3-0.1-0.3-0.1c0,0,0.1,0,0.3,0c0.2,0,0.5,0.1,0.9,0.1c0.8,0.1,1.9,0.2,3.3,0.3c2.8,0.2,6.7,0.5,11.1,0.5
							c4.3,0,8.2-0.2,11-0.5c1.4-0.1,2.6-0.2,3.3-0.3c0.4,0,0.7-0.1,0.9-0.1C122.3,131.6,122.4,131.6,122.4,131.6z"/>
					</g>
				</g>
			</g>
			<g>
				<g>
					<g>
						<path class="st6" d="M121.8,142.8c0,0-0.1,0-0.3,0c-0.2,0-0.5,0-0.9,0c-0.8,0-1.9,0.1-3.3,0.1c-2.8,0.1-6.7,0.2-11,0.2
							c-4.3,0-8.2,0-11-0.1c-1.4-0.1-2.5-0.1-3.3-0.2c-0.4,0-0.7,0-0.9-0.1c-0.2,0-0.3,0-0.3,0c0,0,0.1,0,0.3,0c0.2,0,0.5,0,0.9,0
							c0.8,0,1.9,0,3.3,0.1c2.8,0.1,6.7,0.1,11,0c4.3,0,8.2-0.1,11-0.1c1.4,0,2.5,0,3.3,0c0.4,0,0.7,0,0.9,0
							C121.7,142.8,121.8,142.8,121.8,142.8z"/>
					</g>
				</g>
			</g>
			<g>
				<g>
					<g>
						<path class="st6" d="M90.3,127.4c0,0.1-1.6-0.4-3.5-0.9c-1.9-0.6-3.5-1.1-3.4-1.2c0-0.1,1.6,0.4,3.5,0.9
							C88.8,126.8,90.3,127.3,90.3,127.4z"/>
					</g>
				</g>
			</g>
		</g>
	</g>
	<g>
		<g>
			<g>
				<g>
					<path class="st14" d="M41.8,112c-0.1-2.6-2.3-7.3-3.3-11.8c-0.5-2.3-0.7-4.4,0.8-6.3c1.3-1.6,3.1-2.6,4.8-3.6
						c2.8-1.6,5.8-3.2,9-3.3c2.1-0.1,4.4,0.5,5.7,2.1c1.1,1.3,1.4,3.1,1.6,4.8c0.4,2.9,0.6,5.7,0.6,8.6c0,1.5,0,3-0.4,4.4
						c-0.4,1.4-1.3,2.8-2.6,3.5c-1.1,0.6-2.5,0.6-3.7,1.2c-1.1,0.6-2,2.2-1.1,3.2l-7.6,2.1L41.8,112z"/>
				</g>
			</g>
			<g>
				<g>
					<path class="st5" d="M40.2,108.2c0.8,1.6,2.2,2.9,3.9,3.5c1.7,0.5,3.7,0.1,5-1.2c0.7-0.8,1.2-1.8,1.7-2.7
						c0.5-0.9,1.1-1.9,2.1-2.4c1-0.5,2.3-0.3,2.8,0.6c0.2,0.3,0.3,0.7,0.6,0.8c0.4,0.2,0.9-0.1,1-0.5c0.2-0.4,0.1-0.8,0-1.3
						c-0.3-1.6-0.6-3.2-0.5-4.7c0.1-1.6,0.5-3.2,1.6-4.4c0.8-0.9,2-1.4,3-2.1c1-0.7,1.9-1.7,2-2.9c0.1-1.1-0.6-2.1-1.4-2.9
						c-1.8-1.6-8.7-2.8-10.9-1.9c0,0-9.3,4-9.8,4.4c-0.5,0.3-3.8,1.5-3.7,5.6C37.8,100.2,40.2,108.2,40.2,108.2z"/>
				</g>
			</g>
			<g>
				<g>
					<path class="st14" d="M41.8,112c-0.1-2.6-2.3-7.3-3.3-11.8c-0.5-2.3-0.7-4.4,0.8-6.3c1.3-1.6,3.1-2.6,4.8-3.6
						c2.8-1.6,5.8-3.2,9-3.3c2.1-0.1,4.4,0.5,5.7,2.1c1.1,1.3,1.4,3.1,1.6,4.8c0.4,2.9,0.6,5.7,0.6,8.6c0,1.5,0,3-0.4,4.4
						c-0.4,1.4-1.3,2.8-2.6,3.5c-1.1,0.6-2.5,0.6-3.7,1.2c-1.1,0.6-2,2.2-1.1,3.2l-7.6,2.1L41.8,112z"/>
				</g>
			</g>
			<g>
				<g>
					<path class="st5" d="M63.7,87.8c-0.4-0.4-1.3-0.5-1.7,0.1c0.6-0.8,0.4-2-0.4-2.6c-0.8-0.6-2-0.4-2.6,0.3
						c0.4-0.8,0.1-1.8-0.6-2.4c-0.7-0.5-1.7-0.6-2.6-0.4c-0.9,0.2-1.6,0.7-2.4,1.2c0-0.6-0.4-1.1-0.9-1.4c-0.5-0.3-1.1-0.3-1.7-0.3
						c-2.3,0.1-4.5,1.5-5.6,3.5c-1.2-0.5-2.6-0.2-3.5,0.7c-0.9,0.9-1.2,2.3-0.8,3.5c-1.2,0.2-2.2,1.4-2.2,2.7c-0.6,0.8-1,1.9-1,3.4
						c0.1,4.1,2.5,12.1,2.5,12.1c0.8,1.6,2.2,2.9,3.9,3.5c1.7,0.5,3.7,0.1,5-1.2c0.7-0.8,1.2-1.8,1.7-2.7c0.5-0.9,1.1-1.9,2.1-2.4
						c1-0.5,2-0.1,3.1,0.1c0.9,0.3,0.9-0.3,1-1l-0.1-4.2c0.1-1.6,0.5-3.2,1.6-4.4c0.8-0.9,2-1.4,3-2.1c1-0.7,1.9-1.7,2-2.9
						c0-0.2,0-0.4,0-0.5c0.2-0.2,0.4-0.5,0.5-0.8C64.2,89,64.1,88.3,63.7,87.8z"/>
				</g>
			</g>
			<g>
				<g>
					<g>
						<path class="st2" d="M51.2,94.8c0,0,0,0.2-0.1,0.4c-0.1,0.3-0.3,0.7-0.7,1c-0.4,0.4-1,0.7-1.8,0.7c-0.7,0-1.6-0.3-2.1-1l0.2,0
							c-0.2,0.3-0.4,0.5-0.7,0.7c-0.8,0.6-1.8,0.8-2.6,0.7c-0.9-0.2-1.5-0.6-1.9-1.1c-0.4-0.5-0.6-1-0.7-1.3c0-0.2-0.1-0.3,0-0.4
							c0-0.1,0-0.1,0-0.1c0,0,0,0.2,0.1,0.5c0.1,0.3,0.3,0.8,0.7,1.3c0.4,0.5,1,0.9,1.8,1c0.8,0.1,1.7-0.1,2.4-0.6
							c0.3-0.2,0.5-0.4,0.6-0.7l0.1-0.1l0.1,0.1c0.5,0.6,1.3,0.9,2,0.9c0.7,0,1.3-0.3,1.7-0.6c0.4-0.3,0.6-0.7,0.8-1
							C51.1,94.9,51.2,94.8,51.2,94.8z"/>
					</g>
				</g>
			</g>
			<g>
				<g>
					<g>
						<path class="st2" d="M57.3,92c0,0,0.2,0.3,0.1,0.7c-0.1,0.2-0.2,0.5-0.4,0.7c-0.2,0.2-0.5,0.4-0.9,0.5c-0.7,0.2-1.4,0-1.8-0.2
							c-0.4-0.2-0.7-0.3-0.7-0.4c0,0,0.3,0.1,0.7,0.2c0.4,0.1,1,0.3,1.7,0.1c0.3-0.1,0.6-0.2,0.8-0.4c0.2-0.2,0.3-0.4,0.4-0.6
							C57.3,92.3,57.2,92,57.3,92z"/>
					</g>
				</g>
			</g>
			<g>
				<g>
					<g>
						<path class="st2" d="M61.6,90.5c0,0,0.1,0.3-0.1,0.7c-0.2,0.4-0.6,1-1.2,1.3c-0.7,0.3-1.4,0.2-1.8,0.1
							c-0.4-0.2-0.7-0.4-0.6-0.4c0,0,0.3,0.1,0.7,0.2c0.4,0.1,1.1,0.1,1.7-0.1c0.6-0.3,1-0.8,1.2-1.2C61.5,90.8,61.5,90.5,61.6,90.5
							z"/>
					</g>
				</g>
			</g>
			<g>
				<g>
					<g>
						<path class="st2" d="M56.3,87.5c0,0-0.4-0.4-1.3-0.5c-0.4-0.1-1-0.1-1.5,0.2c-0.5,0.2-1,0.7-1.3,1.3c-0.2,0.3-0.3,0.7-0.3,1
							l-0.2,0c0-0.5-0.4-0.9-0.8-1c-0.4-0.1-0.8,0.1-1.1,0.2c-0.6,0.4-0.8,0.7-0.8,0.7c0,0,0-0.1,0.2-0.2c0.1-0.1,0.3-0.4,0.6-0.6
							c0.3-0.2,0.7-0.4,1.2-0.3c0.2,0.1,0.5,0.2,0.7,0.4c0.2,0.2,0.4,0.5,0.3,0.8l-0.2,0c0-0.4,0.1-0.7,0.3-1.1
							c0.3-0.6,0.9-1.1,1.4-1.3c0.6-0.2,1.2-0.2,1.6-0.1c0.5,0.1,0.8,0.3,1,0.4C56.2,87.4,56.3,87.5,56.3,87.5z"/>
					</g>
				</g>
			</g>
			<g>
				<g>
					<g>
						<path class="st2" d="M52.2,84.3c0,0-0.2,0-0.5,0.1c-0.3,0.1-0.7,0.3-1,0.7c-0.3,0.4-0.4,0.8-0.4,1.2c0,0.3,0,0.5,0,0.5
							c0,0-0.1-0.2-0.2-0.5c0-0.3,0.1-0.9,0.4-1.3c0.3-0.4,0.8-0.7,1.1-0.7C52,84.3,52.2,84.3,52.2,84.3z"/>
					</g>
				</g>
			</g>
			<g>
				<g>
					<g>
						<path class="st2" d="M43.6,89.5c0,0,0-0.3,0.5-0.6c0.2-0.1,0.5-0.3,0.8-0.3c0.3-0.1,0.7,0,1.1,0.1c0.7,0.2,1.2,0.7,1.6,1
							c0.3,0.3,0.5,0.6,0.5,0.6c0,0-0.2-0.2-0.6-0.5c-0.4-0.3-0.9-0.7-1.5-0.9c-0.3-0.1-0.7-0.1-1-0.1c-0.3,0-0.5,0.1-0.7,0.3
							C43.8,89.2,43.7,89.5,43.6,89.5z"/>
					</g>
				</g>
			</g>
			<g>
				<g>
					<g>
						<path class="st2" d="M48.1,93c-0.1,0-0.3-0.5-0.1-1.2c0.2-0.7,0.7-1.1,0.7-1c0,0-0.3,0.5-0.5,1.1C48,92.4,48.2,93,48.1,93z"/>
					</g>
				</g>
			</g>
		</g>
		<g>
			<g>
				<g>
					<path class="st14" d="M72.8,110l-6.4,2.1l1.2,11.7l-0.5,0.9l-4.7,7.8c-0.1,0.1,4.8,1.3,6.7,1.7c2.3,0.5,8.4,0,7.5-7.6
						C75.9,121.1,72.8,110,72.8,110z"/>
				</g>
			</g>
			<g>
				<g>
					<g>
						<g>
							<path class="st14" d="M65.9,101.6c-1,0.5-1.7,1.6-1.7,2.7c0,0.2,0,0.3,0.1,0.5c0.2,0.2,0.5,0.3,0.8,0.2
								c0.3-0.1,0.4-0.4,0.6-0.6"/>
						</g>
					</g>
					<g>
						<g>
							<g>
								<path class="st15" d="M65.6,104.3c0,0,0,0.1-0.1,0.2c-0.1,0.1-0.2,0.3-0.4,0.4c-0.1,0.1-0.3,0.1-0.4,0.1
									c-0.2,0-0.4-0.1-0.5-0.2c-0.1-0.2-0.1-0.4-0.1-0.6c0-0.2,0-0.4,0.1-0.6c0.2-0.8,0.7-1.4,1.1-1.7c0.4-0.3,0.7-0.4,0.7-0.4
									c0,0-0.3,0.2-0.6,0.5c-0.4,0.3-0.8,0.9-0.9,1.6c0,0.2-0.1,0.4-0.1,0.5c0,0.2,0,0.3,0.1,0.4c0.2,0.2,0.5,0.2,0.7,0.1
									c0.2-0.1,0.3-0.3,0.4-0.4C65.6,104.3,65.6,104.3,65.6,104.3z"/>
							</g>
						</g>
					</g>
				</g>
				<g>
					<g>
						<path class="st14" d="M69.6,101.6c0,0-3.1,1.3-3.5,2.3c-0.4,1-1.1,4.8-1.1,4.8l1.4,3.7l6.2-1.2c0,0,1-7.4,1-7.7
							c0,0,2.2-6.2,2.2-6.8c0-0.8-0.6-1-1.4-0.1c-0.8,0.9-2.4,4.3-2.4,4.3L69.6,101.6z"/>
					</g>
				</g>
				<g>
					<g>
						<g>
							<path class="st14" d="M69,100.1c-0.6,0-1.3,0-1.9,0.2c-0.5,0.3-0.9,0.8-1.1,1.4c-0.2,0.6-0.3,1.2-0.4,1.8
								c-0.1,0.5-0.1,1,0.3,1.3c0.2,0.1,0.4,0.2,0.6,0.1c0.2-0.1,0.4-0.3,0.4-0.5"/>
						</g>
					</g>
					<g>
						<g>
							<g>
								<path class="st15" d="M67,104.4c0,0,0,0.1-0.1,0.3c-0.1,0.1-0.2,0.2-0.3,0.3c-0.2,0.1-0.4,0.1-0.5,0
									c-0.2-0.1-0.4-0.3-0.4-0.5c-0.1-0.2-0.1-0.5-0.1-0.7c0.1-0.5,0.1-1,0.3-1.6c0.2-0.6,0.4-1.1,0.8-1.4
									c0.4-0.4,0.8-0.5,1.2-0.6c0.4-0.1,0.7,0,0.9,0c0.2,0,0.3,0,0.3,0.1c0,0-0.5,0-1.2,0.1c-0.4,0.1-0.8,0.2-1.1,0.6
									c-0.3,0.3-0.6,0.8-0.7,1.4c-0.1,0.5-0.2,1.1-0.3,1.6c0,0.2,0,0.5,0,0.7c0.1,0.2,0.2,0.3,0.3,0.4c0.3,0.2,0.6,0,0.7-0.2
									C67,104.5,67,104.4,67,104.4z"/>
							</g>
						</g>
					</g>
				</g>
				<g>
					<g>
						<g>
							<path class="st14" d="M71.9,100.7c-0.4-0.4-0.8-0.8-1.4-0.9c-0.6-0.1-1.2,0.1-1.7,0.5c-0.5,0.4-0.8,1-1,1.5
								c-0.2,0.5-0.4,0.9-0.6,1.4c-0.1,0.3-0.2,0.5-0.2,0.8c0,0.3,0,0.6,0.2,0.8c0.3,0.3,0.8,0.4,1.2,0.2c0.4-0.2,0.6-0.6,0.8-1"/>
						</g>
					</g>
					<g>
						<g>
							<g>
								<path class="st15" d="M69.1,104c0,0,0,0.2-0.1,0.4c-0.1,0.2-0.4,0.6-1,0.7c-0.3,0-0.6,0-0.8-0.3c-0.2-0.2-0.3-0.6-0.3-1
									c0-0.4,0.2-0.7,0.3-1c0.1-0.3,0.3-0.7,0.5-1c0.3-0.7,0.7-1.4,1.3-1.8c0.5-0.4,1.2-0.6,1.7-0.4c0.5,0.2,0.8,0.5,1,0.7
									c0.2,0.2,0.3,0.3,0.3,0.3c0,0-0.1-0.1-0.3-0.3c-0.2-0.2-0.5-0.5-1-0.6c-0.5-0.1-1.1,0-1.6,0.4c-0.5,0.4-0.9,1-1.2,1.7
									c-0.2,0.3-0.3,0.7-0.5,1c-0.2,0.3-0.3,0.6-0.3,1c0,0.3,0,0.6,0.2,0.8c0.2,0.2,0.5,0.2,0.7,0.2c0.5,0,0.8-0.4,0.9-0.6
									C69,104.2,69.1,104,69.1,104z"/>
							</g>
						</g>
					</g>
				</g>
				<g>
					<g>
						<g>
							<path class="st14" d="M69.7,106.4c-0.1-0.7-0.3-1.4-0.4-2.1c-0.8-0.1-1.5-0.4-2.2-0.9c-0.2-0.6,0.1-0.9,0.9-1.1
								c0.8-0.2,3.3,0.1,3.6,0.3c1,0.5,1.1,1.9,1.2,2.9"/>
						</g>
					</g>
					<g>
						<g>
							<g>
								<path class="st15" d="M72.8,105.4c0,0-0.1-0.2-0.1-0.5c-0.1-0.3-0.1-0.8-0.3-1.3c-0.1-0.3-0.3-0.5-0.5-0.8
									c-0.1-0.1-0.3-0.2-0.4-0.3c-0.2,0-0.4-0.1-0.6-0.1c-0.8-0.1-1.6-0.2-2.5-0.2c-0.3,0-0.7,0.1-0.9,0.3
									c-0.1,0.1-0.2,0.2-0.2,0.3c0,0.1,0,0.3,0,0.4l0,0c0.7,0.5,1.5,0.8,2.1,0.9l0.1,0l0,0.1c0.1,0.6,0.2,1.2,0.3,1.6
									c0.1,0.4,0.1,0.6,0.1,0.6c0,0-0.1-0.2-0.2-0.6c-0.1-0.4-0.2-0.9-0.3-1.6l0.1,0.1c-0.7-0.1-1.5-0.4-2.2-0.9l0,0l0,0
									c-0.1-0.2-0.1-0.3-0.1-0.5c0-0.2,0.2-0.4,0.3-0.5c0.3-0.2,0.6-0.3,1-0.4c0.9-0.1,1.8,0.1,2.6,0.2c0.2,0,0.4,0.1,0.6,0.1
									c0.2,0.1,0.3,0.2,0.5,0.3c0.3,0.3,0.4,0.6,0.5,0.9c0.2,0.6,0.2,1.1,0.3,1.4C72.8,105.2,72.8,105.4,72.8,105.4z"/>
							</g>
						</g>
					</g>
				</g>
				<g>
					<g>
						<g>
							<path class="st15" d="M69.1,105.7c0,0-0.2,0-0.6,0.1c-0.4,0.1-0.8,0.2-1.3,0.5c-0.4,0.3-0.7,0.7-0.9,1
								c-0.2,0.3-0.2,0.5-0.3,0.5c0,0,0-0.2,0.1-0.6c0.1-0.3,0.4-0.8,0.9-1.1c0.5-0.3,1-0.5,1.4-0.5
								C68.9,105.6,69.1,105.6,69.1,105.7z"/>
						</g>
					</g>
				</g>
			</g>
			<g>
				<g>
					<g>
						<path class="st15" d="M71.4,125.7c0,0.1-0.9-0.4-2-0.8c-1.1-0.5-2-0.8-2-0.9c0-0.1,1,0.2,2.1,0.6
							C70.6,125.2,71.5,125.7,71.4,125.7z"/>
					</g>
				</g>
			</g>
		</g>
		<g>
			<g>
				<g>
					<path class="st4" d="M49.9,113.3c0.4-0.1,6.7,1,8.6,1.8c1,0.5,9.8,7.6,9.8,7.6l-6.5,10.6l-4.2-1.5l0,18.5l-26.4-0.1l0.6-29.6
						c0,0,1.9-7.8,5.1-8.7C40.1,111,49.9,113.3,49.9,113.3z"/>
				</g>
			</g>
			<g>
				<g>
					<g>
						<path class="st16" d="M57.1,132.1c0,0-0.1,0-0.2,0c-0.1,0-0.4-0.1-0.6-0.1c-0.5-0.1-1.3-0.4-2.1-1c-0.8-0.5-1.7-1.3-2.4-2.4
							c-0.7-1.1-1.3-2.4-1.4-3.9c-0.1-1.5,0.2-2.9,0.8-4.1c0.5-1.2,1.3-2.1,2-2.8c0.7-0.7,1.4-1.1,1.9-1.3c0.2-0.1,0.4-0.2,0.6-0.2
							c0.1-0.1,0.2-0.1,0.2-0.1c0,0.1-1.2,0.4-2.6,1.7c-0.7,0.7-1.4,1.6-1.9,2.7c-0.5,1.2-0.8,2.6-0.7,4c0.1,1.5,0.7,2.8,1.4,3.8
							c0.7,1.1,1.6,1.9,2.3,2.4C55.8,131.9,57.1,132,57.1,132.1z"/>
					</g>
				</g>
			</g>
			<g>
				<g>
					<g>
						<path class="st16" d="M52.6,149c-0.1,0,0.1-3.7,0.4-8.3c0.3-4.6,0.5-8.3,0.6-8.3c0.1,0-0.1,3.7-0.4,8.3
							C52.9,145.3,52.6,149,52.6,149z"/>
					</g>
				</g>
			</g>
			<g>
				<g>
					<g>
						<path class="st16" d="M45.9,138c0,0-0.1,0.1-0.4,0.4c-0.2,0.2-0.6,0.6-1.1,1c-0.9,0.8-2.2,1.9-3.7,3c-1.5,1.1-2.9,2.1-4,2.7
							c-0.5,0.3-0.9,0.6-1.2,0.8c-0.3,0.2-0.5,0.3-0.5,0.2c0,0,0.1-0.1,0.4-0.3c0.3-0.2,0.7-0.5,1.2-0.8c1-0.7,2.4-1.7,3.9-2.8
							c1.5-1.1,2.8-2.2,3.8-3c0.4-0.4,0.8-0.7,1.1-0.9C45.7,138.1,45.9,138,45.9,138z"/>
					</g>
				</g>
			</g>
			<g>
				<g>
					<g>
						<path class="st16" d="M35.5,120.2c-0.1,0,0.5-0.8,1-1.8c0.5-1,0.9-1.8,0.9-1.8c0.1,0-0.2,0.9-0.7,1.9
							C36.1,119.5,35.5,120.2,35.5,120.2z"/>
					</g>
				</g>
			</g>
			<g>
				<g>
					<g>
						<path class="st16" d="M37.3,130c0,0-0.7-0.7-1.3-1.6c-0.6-1-1-1.9-0.9-1.9c0.1,0,0.5,0.8,1.1,1.8
							C36.8,129.2,37.3,130,37.3,130z"/>
					</g>
				</g>
			</g>
			<g>
				<g>
					<g>
						<path class="st16" d="M44.3,121.2c0,0-0.6,0.8-1.5,1.8c-0.9,1-1.6,1.7-1.6,1.6c0,0,0.6-0.8,1.5-1.8
							C43.6,121.8,44.3,121.1,44.3,121.2z"/>
					</g>
				</g>
			</g>
			<g>
				<g>
					<g>
						<path class="st16" d="M46.5,132.7c-0.1,0,0.4-1.1,0.9-2.5c0.5-1.4,0.8-2.5,0.9-2.5c0.1,0-0.2,1.2-0.7,2.6
							C47.1,131.7,46.6,132.8,46.5,132.7z"/>
					</g>
				</g>
			</g>
			<g>
				<g>
					<g>
						<path class="st16" d="M42,137.9c-0.1,0-0.2-0.8-0.2-1.9c0-1.1,0-1.9,0-1.9c0.1,0,0.2,0.8,0.2,1.9C42,137.1,42,137.9,42,137.9z
							"/>
					</g>
				</g>
			</g>
			<g>
				<g>
					<g>
						<path class="st16" d="M37.7,143.6c0,0-0.7-0.8-1.5-1.8c-0.8-1-1.4-1.9-1.4-1.9c0,0,0.7,0.8,1.5,1.8
							C37.1,142.7,37.8,143.6,37.7,143.6z"/>
					</g>
				</g>
			</g>
			<g>
				<g>
					<g>
						<path class="st16" d="M43.5,147.3c-0.1,0-0.2-0.7-0.3-1.5c-0.1-0.8-0.1-1.5,0-1.5c0.1,0,0.2,0.7,0.3,1.5
							C43.5,146.6,43.5,147.3,43.5,147.3z"/>
					</g>
				</g>
			</g>
			<g>
				<g>
					<g>
						<path class="st16" d="M49.9,144.6c-0.1,0-0.6-0.7-1.2-1.6c-0.6-0.9-1.1-1.7-1-1.7c0.1,0,0.6,0.7,1.2,1.6
							C49.5,143.8,49.9,144.6,49.9,144.6z"/>
					</g>
				</g>
			</g>
			<g>
				<g>
					<g>
						<path class="st16" d="M52.1,135.8c0,0.1-0.4,0.1-1,0c-0.5-0.1-0.9-0.2-0.9-0.2c0-0.1,0.4-0.1,1,0
							C51.7,135.7,52.1,135.8,52.1,135.8z"/>
					</g>
				</g>
			</g>
			<g>
				<g>
					<g>
						<path class="st16" d="M56.6,140.7c-0.1,0-0.6-0.7-1.1-1.7c-0.6-1-1-1.8-0.9-1.8c0.1,0,0.6,0.7,1.1,1.7
							C56.3,139.9,56.7,140.7,56.6,140.7z"/>
					</g>
				</g>
			</g>
			<g>
				<g>
					<g>
						<path class="st16" d="M56.5,144.9c0.1,0-0.2,0.7-0.5,1.5c-0.3,0.8-0.7,1.5-0.7,1.5c-0.1,0,0.2-0.7,0.5-1.5
							C56.2,145.5,56.5,144.8,56.5,144.9z"/>
					</g>
				</g>
			</g>
			<g>
				<g>
					<g>
						<path class="st16" d="M53.8,126c-0.1,0-0.4-0.7-0.6-1.8c-0.2-1-0.1-1.9,0-1.9c0.1,0,0.1,0.8,0.3,1.8
							C53.6,125.2,53.8,125.9,53.8,126z"/>
					</g>
				</g>
			</g>
			<g>
				<g>
					<g>
						<path class="st16" d="M56.3,119.4c0-0.1,0.5-0.3,1.2-0.6c0.7-0.3,1.2-0.5,1.3-0.4c0,0.1-0.5,0.3-1.2,0.6
							C56.9,119.3,56.3,119.5,56.3,119.4z"/>
					</g>
				</g>
			</g>
			<g>
				<g>
					<g>
						<path class="st16" d="M59.5,125.2c-0.1,0-0.5-0.6-0.9-1.4c-0.4-0.8-0.7-1.5-0.7-1.5c0.1,0,0.5,0.6,0.9,1.4
							C59.2,124.5,59.5,125.2,59.5,125.2z"/>
					</g>
				</g>
			</g>
			<g>
				<g>
					<g>
						<path class="st16" d="M63.8,123.3c-0.1,0-0.5-0.6-1-1.4c-0.5-0.8-0.9-1.5-0.8-1.5c0.1,0,0.5,0.6,1,1.4
							C63.5,122.6,63.8,123.3,63.8,123.3z"/>
					</g>
				</g>
			</g>
			<g>
				<g>
					<g>
						<path class="st16" d="M62.5,128.6c0,0.1-0.8,0.3-1.7,0.6c-1,0.3-1.8,0.4-1.8,0.4c0-0.1,0.8-0.3,1.7-0.6
							C61.6,128.7,62.4,128.6,62.5,128.6z"/>
					</g>
				</g>
			</g>
			<g>
				<g>
					<g>
						<path class="st16" d="M48.9,117.1c0,0.1-0.8-0.2-1.7-0.9c-0.8-0.6-1.4-1.3-1.3-1.3c0,0,0.6,0.5,1.5,1.1
							C48.2,116.6,48.9,117,48.9,117.1z"/>
					</g>
				</g>
			</g>
		</g>
		<g>
			<g>
				<g>
					<path class="st6" d="M39.4,113.7c0,0.1-0.6,0.1-1.3-0.1c-0.7-0.2-1.2-0.6-1.2-0.6c0-0.1,0.5,0.2,1.2,0.4
						C38.8,113.6,39.4,113.7,39.4,113.7z"/>
				</g>
			</g>
		</g>
	</g>
</g>
<path class="st17" d="M94.3,54.3c0,1.6,1.3,2.9,2.9,2.9h11.5c1.6,0,2.9-1.3,2.9-2.9V37H94.3V54.3z M97.2,39.9h11.5v14.4H97.2V39.9z
	 M108,32.7l-1.4-1.4h-7.2l-1.4,1.4h-5v2.9H113v-2.9H108z"/>
<g>
	<path class="st18" d="M56.7,45.5c0-0.7,0.6-1.2,1.2-1.2s1.2,0.6,1.2,1.2v7c0,2-1.6,3.6-3.6,3.6H41.7c-2,0-3.6-1.6-3.6-3.6l0-13.9
		c0-2,1.6-3.6,3.6-3.6c5,0,5,0,7.6,0c0.7,0,1.2,0.6,1.2,1.2s-0.6,1.2-1.2,1.2c-2.6,0-2.6,0-7.6,0c-0.6,0-1.1,0.5-1.1,1.1l0,13.9
		c0,0.6,0.5,1.1,1.1,1.1h13.9c0.6,0,1.1-0.5,1.1-1.1V45.5z"/>
	<path class="st18" d="M58.1,34.3l-9.3,9.3l-0.4,2.2l2.2-0.4l9.3-9.3L58.1,34.3z M58.9,31.7l3.5,3.5c0.5,0.5,0.5,1.3,0,1.8L52,47.4
		c-0.2,0.2-0.4,0.3-0.6,0.3L47,48.6c-0.9,0.2-1.6-0.6-1.5-1.5l0.9-4.4c0-0.2,0.2-0.5,0.3-0.6l10.4-10.4
		C57.7,31.2,58.4,31.2,58.9,31.7z"/>
	<polygon class="st18" points="54,36.5 55.7,34.7 59.4,38.4 57.7,40.2 	"/>
</g>
<g transform="translate(0,-1020.3622)">
	<path class="st19" d="M148.7,1067.9c0,0.2,0.2,0.4,0.5,0.4c0.1,0,0.2-0.1,0.3-0.2l0.9-1.2c1,5.9,6.5,10.1,12.5,9.4
		c0.8-0.1,1.5-0.3,2.2-0.5c0.7-0.2,1.4-0.5,2-0.9c0.6-0.4,1.2-0.8,1.8-1.3c0.6-0.5,1.1-1,1.5-1.6c0.5-0.6,0.8-1.2,1.2-1.8
		c0.3-0.6,0.6-1.3,0.8-2c0.1-0.2,0-0.5-0.3-0.6c-0.2-0.1-0.5,0-0.6,0.3c0,0,0,0,0,0c-0.2,0.7-0.4,1.3-0.8,1.9
		c-0.3,0.6-0.7,1.2-1.1,1.7c-0.4,0.5-0.9,1-1.4,1.5c-0.5,0.4-1.1,0.8-1.7,1.2s-1.2,0.6-1.9,0.8c-0.7,0.2-1.4,0.4-2.1,0.5
		c-5.5,0.6-10.5-3.1-11.5-8.5l1.1,0.8c0.2,0.2,0.5,0.1,0.6-0.1c0.2-0.2,0.1-0.5-0.1-0.6c0,0,0,0,0,0l-1.9-1.5
		c-0.2-0.2-0.5-0.1-0.6,0.1c0,0,0,0,0,0l-1.5,1.9C148.8,1067.7,148.7,1067.8,148.7,1067.9z M150.7,1062.2c0,0.2,0.3,0.4,0.5,0.3
		c0.2,0,0.3-0.2,0.3-0.3c0.2-0.7,0.4-1.3,0.8-1.9c0.3-0.6,0.7-1.2,1.1-1.7c0.4-0.5,0.9-1,1.4-1.5c0.5-0.4,1.1-0.8,1.7-1.2
		c0.6-0.3,1.2-0.6,1.9-0.8c0.7-0.2,1.4-0.4,2.1-0.5c5.5-0.6,10.6,3.2,11.5,8.6l-1.1-0.9c-0.2-0.2-0.5-0.1-0.6,0.1
		c-0.1,0.1-0.1,0.2-0.1,0.3c0,0.1,0.1,0.2,0.2,0.3l1.9,1.5c0.2,0.1,0.5,0.1,0.6-0.1l1.5-1.9c0.2-0.2,0.1-0.5-0.1-0.6
		c-0.2-0.2-0.5-0.1-0.6,0.1c0,0,0,0,0,0l-0.9,1.1c-1-5.9-6.5-10.1-12.5-9.4c-0.8,0.1-1.5,0.3-2.2,0.5c-0.7,0.2-1.4,0.5-2,0.9
		c-0.6,0.4-1.2,0.8-1.8,1.3c-0.6,0.5-1.1,1-1.5,1.6c-0.5,0.6-0.8,1.2-1.2,1.8c-0.3,0.6-0.6,1.3-0.8,2
		C150.7,1062,150.7,1062,150.7,1062.2C150.7,1062.1,150.7,1062.1,150.7,1062.2z"/>
</g>
<path class="st18" d="M160.4,48.2c-0.2,0-0.4-0.1-0.5-0.2l-3.1-3.1c-0.3-0.3-0.3-0.7,0-1c0.3-0.3,0.7-0.3,1,0l2.6,2.6l5.7-5.7
	c0.3-0.3,0.7-0.3,1,0s0.3,0.7,0,1l-6.2,6.2C160.8,48.1,160.6,48.2,160.4,48.2z"/>
</svg>
