<?xml version="1.0" encoding="utf-8"?>
<!-- Generator: Adobe Illustrator 24.1.1, SVG Export Plug-In . SVG Version: 6.00 Build 0)  -->
<svg version="1.1" id="Layer_1" xmlns="http://www.w3.org/2000/svg" xmlns:xlink="http://www.w3.org/1999/xlink" x="0px" y="0px"
	 viewBox="0 0 500 550" style="enable-background:new 0 0 500 550;" xml:space="preserve">
<style type="text/css">
	.st0{opacity:0.4;fill:#3267C1;}
	.st1{fill:#B6E0EE;}
	.st2{fill:#B06C50;}
	.st3{fill:#834127;}
	.st4{fill:#003781;}
</style>
<path class="st0" d="M436.1,484.7h-356c-12.3,0-22.3-10-22.3-22.3V157.1c0-12.3,10-22.3,22.3-22.3h356c12.3,0,22.3,10,22.3,22.3
	v305.2C458.5,474.7,448.5,484.7,436.1,484.7z"/>
<path class="st1" d="M456.1,464.7h-356c-12.3,0-22.3-10-22.3-22.3V137.1c0-12.3,10-22.3,22.3-22.3h356c12.3,0,22.3,10,22.3,22.3
	v305.2C478.5,454.7,468.5,464.7,456.1,464.7z"/>
<g>
	<g>
		<path class="st2" d="M424.8,230.9c1-3.5,3.7-6.2,4.3-10.1c1.4-9-2.6-18.1-7.7-25.4c-25.4-36-71.3-41.3-112.2-42.6
			c15.1-26.9,16.8-65.7-5.7-88.6c-10-10.2-33.4-18-36.1,2.6c-1.2,8.7,0.9,17.6,0,26.3c-0.9,9-3.2,18-6.8,26.4
			c-7.7,17.7-21.6,30.2-34.1,44.4c-12.4,14-20.1,28.8-21.6,47.6c-0.8,9.4-0.3,18.9-2,28.2c-1.5,8-8.2,7.4-14.9,8.4
			c-5.9,0.9-11.8,1.7-17.6,2.6c-11.6,1.7-23.1,3.4-34.6,5.1c-9.7,1.5-14.4,6-17.4,15.3c-6.6,20.9-2.4,45.8,1.6,66.8
			c4.5,23.7,12.3,46.6,22.9,68.3c1.5,3,4.4,3.1,6.6,1.7c1,0.1,2.1,0,3.2-0.8c11.6-7.7,23.5-15,35.7-21.7
			c11.9-6.6,23.8-14.1,37.9-13.1c11.8,0.8,23.3,4.5,35.1,5.4c13.6,1,27.4,0,41-0.4c14.6-0.4,29.1-0.8,43.7-1.3
			c13.7-0.4,27.9,0.2,41.4-1.8c21.3-3.1,34.8-21.9,30-43c-1-4.2,0.3-4.2,3.4-6.5c2.1-1.6,3.9-3.4,5.5-5.5c2.9-4,4.7-8.7,5.3-13.6
			c1.1-8.2-1.1-16.7-6.3-23c10.6-10.7,13.4-27.9,6.1-41.5c-1-1.9-2.2-3.6-3.6-5.2c-0.7-0.9-1.5-1.7-2.3-2.4
			C423.8,232.8,423.6,231.9,424.8,230.9z"/>
		<g>
			<path class="st3" d="M285.8,183.8l14.7-21.8c0.8-1.2,2.4-1.5,3.6-0.7c1.2,0.8,1.5,2.4,0.7,3.6l-14.7,21.9c-0.9,1.3-2,3.3-1.6,4.3
				c0.4,0.9,1.9,1.5,4.7,1.7c18.2,1.5,36.7,2.5,55.1,2.8c-3.5-4.1-7.7-7.8-12.4-10.6c-1.2-0.8-1.6-2.3-0.9-3.5
				c0.8-1.2,2.4-1.6,3.5-0.9c6.3,3.9,11.8,9.1,16.2,15.1c4.3,0,8.6,0.1,12.9,0.1c1.4,0,2.6,1.1,2.6,2.6c0,1.4-1.1,2.6-2.6,2.6
				c-4.4,0-8.8,0-13.3-0.1c-0.4,0.1-0.7,0.2-1.1,0.1c-0.1,0-0.3-0.1-0.4-0.1c-20.1-0.3-40.3-1.2-60.2-2.9c-0.3,0-0.7-0.1-1.1-0.1
				c-2.4-0.3-6.4-1.2-7.9-4.8C282.2,189.2,284.6,185.5,285.8,183.8z"/>
			<path class="st3" d="M400.4,245.9c0.5,0.1,1,0,1.5-0.3l17.4-9.4c1.3-0.7,1.7-2.2,1-3.5s-2.3-1.7-3.5-1l-17.4,9.4
				c-1.3,0.7-1.7,2.2-1,3.5C398.9,245.4,399.6,245.8,400.4,245.9z"/>
			<path class="st3" d="M399,293c0.4,0,0.9,0,1.3-0.2l17.3-7.1c1.3-0.5,2-2,1.4-3.4c-0.5-1.3-2-1.9-3.4-1.4l-17.3,7.1
				c-1.3,0.5-2,2-1.4,3.4C397.3,292.3,398.1,292.9,399,293z"/>
			<path class="st3" d="M392.3,335.4c0.3,0,0.7,0,1-0.1l17.5-5.2c1.4-0.4,2.1-1.8,1.7-3.2c-0.4-1.4-1.8-2.1-3.2-1.7l-17.5,5.2
				c-1.4,0.4-2.1,1.8-1.7,3.2C390.4,334.6,391.3,335.3,392.3,335.4z"/>
		</g>
	</g>
	<path class="st4" d="M176.3,419.9c0,0-2.3-95.9-37.6-180.4l-60.8,11.8v191L176.3,419.9"/>
</g>
</svg>
