<?xml version="1.0" standalone="no"?>
<!DOCTYPE svg PUBLIC "-//W3C//DTD SVG 20010904//EN"
 "http://www.w3.org/TR/2001/REC-SVG-20010904/DTD/svg10.dtd">
<svg version="1.0" xmlns="http://www.w3.org/2000/svg"
 width="1174.000000pt" height="1569.000000pt" viewBox="0 0 1174.000000 1569.000000"
 preserveAspectRatio="xMidYMid meet">
<metadata>
Created by potrace 1.16, written by Peter Selinger 2001-2019
</metadata>
<g transform="translate(0.000000,1569.000000) scale(0.100000,-0.100000)"
fill="#EE4521" stroke="none">
<path d="M8478 15663 c-9 -10 -39 -94 -67 -188 -65 -213 -621 -1877 -631
-1889 -5 -5 -82 3 -177 18 -1425 220 -2720 76 -3843 -429 -1048 -471 -1953
-1263 -2654 -2322 -284 -431 -548 -939 -722 -1391 -31 -81 -63 -159 -70 -174
-16 -31 -18 -48 -5 -48 19 0 161 102 251 180 311 269 812 630 1200 862 941
565 1834 889 2770 1005 179 22 798 25 1005 5 525 -51 942 -135 1320 -264 190
-65 310 -121 308 -143 -1 -10 -151 -540 -334 -1178 l-333 -1160 24 -19 c35
-28 70 -19 255 69 88 41 331 156 540 255 1080 511 3399 1575 4105 1884 283
124 282 123 305 166 16 31 18 43 9 75 -6 23 -637 977 -1555 2350 -1418 2124
-1547 2314 -1585 2333 -50 25 -96 26 -116 3z"/>
<path d="M5005 7080 c-135 -48 -1249 -561 -3665 -1685 -635 -296 -1193 -555
-1240 -576 -47 -21 -86 -44 -88 -52 -1 -7 13 -33 32 -58 38 -51 281 -421 906
-1379 1622 -2488 2147 -3278 2207 -3317 23 -15 25 -15 54 13 20 20 38 55 58
119 678 2119 646 2021 663 2018 129 -22 479 -67 633 -83 1769 -177 3309 230
4562 1207 919 715 1696 1786 2129 2932 75 198 82 225 63 237 -13 8 -52 -21
-220 -167 -1126 -972 -2426 -1663 -3564 -1894 -340 -69 -565 -93 -945 -102
-610 -14 -1157 64 -1630 234 -142 50 -430 187 -430 204 0 6 136 511 302 1122
166 616 301 1131 301 1154 0 51 -25 93 -56 92 -12 0 -44 -9 -72 -19z"/>
</g>
</svg>
