<?xml version="1.0" encoding="utf-8"?>
<!-- Generator: Adobe Illustrator 16.0.0, SVG Export Plug-In . SVG Version: 6.00 Build 0)  -->
<!DOCTYPE svg PUBLIC "-//W3C//DTD SVG 1.1//EN" "http://www.w3.org/Graphics/SVG/1.1/DTD/svg11.dtd">
<svg version="1.1" id="Layer_1" xmlns="http://www.w3.org/2000/svg" xmlns:xlink="http://www.w3.org/1999/xlink" x="0px" y="0px"
	 width="55.23px" height="51.91px" viewBox="0 0 55.23 51.91" enable-background="new 0 0 55.23 51.91" xml:space="preserve">
<path opacity="0.4" fill="#3D68B1" enable-background="new    " d="M49.677,51.911H2.927c-1.614,0-2.928-1.313-2.928-2.929V8.891
	c0-1.615,1.313-2.929,2.928-2.929h46.75c1.615,0,2.93,1.313,2.93,2.929v40.08C52.619,50.598,51.305,51.911,49.677,51.911z"/>
<path fill="#ABF6FF" d="M52.303,49.284H5.553c-1.615,0-2.929-1.313-2.929-2.929V6.264c0-1.615,1.313-2.928,2.929-2.928h46.75
	c1.614,0,2.93,1.313,2.93,2.928v40.079C55.245,47.973,53.932,49.284,52.303,49.284z"/>
<g>
	<g>
		<path fill="#203F7C" d="M51.437,0.866v30.336c0,0.473-0.381,0.866-0.866,0.866H7.326c-0.473,0-0.867-0.381-0.867-0.866V0.866
			C6.459,0.394,6.84,0,7.326,0H50.57C51.043,0,51.437,0.394,51.437,0.866z"/>
		<path fill="#256EB6" d="M50.242,2.088V29.98c0,0.484-0.395,0.879-0.881,0.879H8.534c-0.104,0-0.21-0.014-0.302-0.053
			c-0.329-0.117-0.565-0.445-0.565-0.826V2.088c0-0.485,0.395-0.88,0.88-0.88h40.828c0.118,0,0.236,0.026,0.328,0.065
			C50.019,1.405,50.242,1.721,50.242,2.088z"/>
		<g>
			<path opacity="0.6" fill="#B2E2F4" enable-background="new    " d="M50.242,2.088v1.3H7.654v-1.3c0-0.485,0.394-0.88,0.88-0.88
				h40.827C49.848,1.222,50.242,1.603,50.242,2.088z"/>
			<g>
				<g>
					<circle fill="#F1C12C" cx="46.026" cy="2.246" r="0.565"/>
				</g>
				<path fill="#203F7C" d="M44.503,2.245c0,0.315-0.249,0.565-0.563,0.565c-0.315,0-0.565-0.25-0.565-0.565
					c0-0.314,0.25-0.564,0.565-0.564C44.254,1.694,44.503,1.943,44.503,2.245z"/>
				<g>
					<path fill="#F69267" d="M48.652,2.245c0,0.315-0.249,0.565-0.564,0.565c-0.313,0-0.563-0.25-0.563-0.565
						c0-0.314,0.25-0.564,0.563-0.564C48.403,1.694,48.652,1.943,48.652,2.245z"/>
				</g>
			</g>
		</g>
	</g>
	<g>
		<rect x="23.912" y="32.068" fill="#1A3562" width="9.219" height="8.142"/>
	</g>
	<path fill="#203F7C" d="M38.423,41.932H18.62v-1.654c0-0.631,0.512-1.144,1.144-1.144h17.53c0.631,0,1.144,0.513,1.144,1.144v1.654
		H38.423z"/>
	<g>
		<g>
			<path fill="#F1C12C" d="M43.256,32.594h-2.271c-0.118,0-0.21-0.092-0.21-0.21v-0.315h2.69v0.315
				C43.465,32.488,43.373,32.594,43.256,32.594z"/>
		</g>
		<g>
			<path fill="#F1C12C" d="M47.379,32.594h-2.271c-0.119,0-0.211-0.092-0.211-0.21v-0.315h2.691v0.315
				C47.589,32.488,47.497,32.594,47.379,32.594z"/>
		</g>
		<g>
			<path fill="#F1C12C" d="M39.132,32.594H36.86c-0.118,0-0.21-0.092-0.21-0.21v-0.315h2.69v0.315
				C39.342,32.488,39.236,32.594,39.132,32.594z"/>
		</g>
	</g>
	<g enable-background="new    ">
		<path fill="#B2E2F4" d="M14.128,14.892c0.04-0.302,0.131-0.578,0.264-0.814c0.132-0.236,0.289-0.42,0.473-0.577
			c0.184-0.158,0.407-0.276,0.657-0.354c0.25-0.079,0.512-0.118,0.801-0.118c0.302,0,0.564,0.039,0.801,0.131
			c0.236,0.079,0.447,0.197,0.604,0.354c0.171,0.145,0.302,0.328,0.394,0.525c0.092,0.197,0.131,0.42,0.131,0.656
			c0,0.211-0.025,0.381-0.064,0.539c-0.04,0.157-0.118,0.289-0.197,0.407c-0.079,0.118-0.197,0.21-0.315,0.288
			c-0.131,0.079-0.275,0.145-0.434,0.197c0.381,0.118,0.67,0.302,0.867,0.552c0.184,0.249,0.289,0.564,0.289,0.933
			c0,0.314-0.054,0.604-0.185,0.84c-0.119,0.25-0.275,0.446-0.473,0.617c-0.197,0.171-0.433,0.289-0.696,0.381
			c-0.263,0.092-0.539,0.132-0.84,0.132c-0.329,0-0.604-0.04-0.841-0.105c-0.236-0.079-0.446-0.184-0.63-0.328
			c-0.185-0.145-0.328-0.328-0.446-0.538c-0.118-0.211-0.236-0.447-0.314-0.723l0.485-0.197c0.131-0.052,0.25-0.065,0.354-0.039
			c0.104,0.026,0.196,0.079,0.235,0.184c0.054,0.105,0.118,0.21,0.171,0.303c0.065,0.104,0.145,0.184,0.224,0.262
			c0.092,0.079,0.197,0.145,0.314,0.185c0.118,0.039,0.264,0.078,0.435,0.078c0.184,0,0.354-0.025,0.485-0.092
			c0.132-0.065,0.25-0.145,0.342-0.236c0.091-0.091,0.157-0.21,0.21-0.328c0.053-0.118,0.065-0.236,0.065-0.367
			c0-0.158-0.013-0.289-0.053-0.421c-0.039-0.131-0.104-0.236-0.21-0.314c-0.105-0.079-0.25-0.158-0.446-0.211
			c-0.196-0.052-0.446-0.078-0.774-0.078v-0.775c0.275,0,0.499-0.026,0.669-0.078c0.171-0.053,0.314-0.118,0.42-0.197
			c0.104-0.079,0.184-0.184,0.223-0.302c0.04-0.118,0.066-0.25,0.066-0.395c0-0.302-0.079-0.525-0.25-0.683
			c-0.171-0.157-0.395-0.236-0.67-0.236c-0.131,0-0.25,0.013-0.354,0.053c-0.104,0.039-0.21,0.092-0.302,0.157
			s-0.157,0.145-0.223,0.236c-0.065,0.092-0.105,0.184-0.132,0.289c-0.052,0.131-0.117,0.224-0.196,0.275
			c-0.079,0.053-0.197,0.053-0.341,0.026L14.128,14.892z"/>
		<path fill="#B2E2F4" d="M22.454,16.165c0.395,0.132,0.684,0.315,0.867,0.578c0.184,0.263,0.276,0.578,0.276,0.959
			c0,0.289-0.053,0.538-0.158,0.774s-0.263,0.434-0.459,0.591c-0.197,0.158-0.434,0.289-0.709,0.381
			c-0.276,0.092-0.578,0.132-0.906,0.132s-0.63-0.04-0.906-0.132c-0.274-0.092-0.512-0.21-0.709-0.381
			c-0.196-0.157-0.341-0.354-0.459-0.591s-0.158-0.485-0.158-0.774c0-0.381,0.093-0.696,0.276-0.959
			c0.184-0.263,0.473-0.46,0.867-0.578c-0.315-0.131-0.539-0.314-0.696-0.551c-0.158-0.236-0.237-0.525-0.237-0.867
			c0-0.249,0.054-0.473,0.146-0.683c0.104-0.21,0.236-0.394,0.42-0.552c0.184-0.157,0.394-0.275,0.644-0.367
			c0.25-0.093,0.513-0.132,0.814-0.132s0.565,0.039,0.814,0.132c0.25,0.092,0.459,0.21,0.643,0.367
			c0.184,0.158,0.315,0.342,0.42,0.552c0.105,0.21,0.146,0.434,0.146,0.683c0,0.342-0.079,0.631-0.236,0.867
			C23.006,15.851,22.77,16.047,22.454,16.165z M21.377,18.727c0.185,0,0.341-0.026,0.474-0.079c0.132-0.053,0.25-0.118,0.341-0.21
			c0.092-0.092,0.158-0.197,0.21-0.328c0.052-0.132,0.064-0.263,0.064-0.407c0-0.354-0.092-0.617-0.289-0.801
			c-0.196-0.185-0.46-0.276-0.801-0.276s-0.617,0.092-0.801,0.276c-0.197,0.184-0.289,0.446-0.289,0.801
			c0,0.145,0.026,0.289,0.065,0.407c0.04,0.118,0.117,0.236,0.21,0.328c0.092,0.092,0.21,0.171,0.341,0.21
			C21.036,18.7,21.194,18.727,21.377,18.727z M21.377,13.854c-0.158,0-0.302,0.026-0.42,0.078c-0.118,0.053-0.21,0.118-0.302,0.197
			c-0.079,0.079-0.131,0.184-0.171,0.289c-0.039,0.105-0.052,0.224-0.052,0.342c0,0.131,0.013,0.249,0.052,0.367
			c0.025,0.118,0.079,0.224,0.158,0.315c0.079,0.091,0.171,0.171,0.289,0.223c0.117,0.053,0.274,0.079,0.445,0.079
			s0.328-0.026,0.446-0.079c0.119-0.052,0.224-0.131,0.289-0.223c0.066-0.092,0.131-0.197,0.158-0.315
			c0.026-0.118,0.052-0.249,0.052-0.367c0-0.118-0.013-0.236-0.052-0.342s-0.092-0.21-0.171-0.289s-0.17-0.145-0.289-0.197
			C21.68,13.881,21.535,13.854,21.377,13.854z"/>
		<path fill="#B2E2F4" d="M26.709,15.352h3.928v0.813h-3.928V15.352z M26.709,16.901h3.928v0.813h-3.928V16.901z"/>
		<path fill="#B2E2F4" d="M33.893,14.892c0.039-0.302,0.131-0.578,0.262-0.814c0.132-0.236,0.289-0.42,0.474-0.577
			c0.196-0.158,0.407-0.276,0.656-0.354c0.249-0.079,0.513-0.118,0.802-0.118c0.302,0,0.564,0.039,0.802,0.131
			c0.236,0.092,0.445,0.197,0.604,0.354c0.171,0.145,0.303,0.328,0.396,0.525c0.092,0.197,0.131,0.42,0.131,0.656
			c0,0.211-0.026,0.381-0.065,0.539c-0.053,0.157-0.118,0.289-0.197,0.407c-0.079,0.118-0.195,0.21-0.314,0.288
			c-0.117,0.079-0.275,0.145-0.435,0.197c0.382,0.118,0.67,0.302,0.854,0.552c0.184,0.249,0.288,0.564,0.288,0.933
			c0,0.314-0.064,0.604-0.185,0.84c-0.116,0.236-0.274,0.446-0.473,0.617c-0.198,0.171-0.434,0.289-0.695,0.381
			c-0.264,0.079-0.539,0.132-0.841,0.132c-0.328,0-0.604-0.04-0.841-0.105s-0.446-0.184-0.63-0.328
			c-0.186-0.145-0.329-0.328-0.46-0.538c-0.131-0.211-0.236-0.447-0.314-0.723l0.485-0.197c0.132-0.052,0.249-0.065,0.354-0.039
			c0.105,0.026,0.197,0.079,0.236,0.184c0.053,0.105,0.118,0.21,0.171,0.303c0.052,0.092,0.146,0.184,0.225,0.262
			c0.092,0.079,0.195,0.145,0.313,0.185c0.119,0.039,0.263,0.078,0.435,0.078c0.184,0,0.354-0.025,0.485-0.092
			c0.131-0.065,0.249-0.145,0.341-0.236c0.094-0.092,0.157-0.21,0.21-0.328c0.054-0.118,0.066-0.236,0.066-0.367
			c0-0.158-0.014-0.289-0.053-0.421c-0.039-0.131-0.105-0.236-0.197-0.314c-0.105-0.093-0.25-0.158-0.446-0.211
			c-0.196-0.052-0.46-0.078-0.773-0.078v-0.775c0.262,0,0.498-0.026,0.67-0.078c0.17-0.053,0.313-0.118,0.42-0.197
			c0.104-0.079,0.184-0.184,0.223-0.302c0.039-0.118,0.066-0.25,0.066-0.395c0-0.302-0.079-0.525-0.25-0.683
			c-0.171-0.158-0.396-0.236-0.67-0.236c-0.131,0-0.25,0.013-0.354,0.053c-0.104,0.039-0.21,0.092-0.302,0.157
			s-0.158,0.145-0.224,0.236c-0.066,0.091-0.104,0.184-0.133,0.289c-0.052,0.131-0.116,0.224-0.195,0.275
			c-0.079,0.053-0.196,0.053-0.341,0.026L33.893,14.892z"/>
		<path fill="#B2E2F4" d="M42.218,16.165c0.395,0.132,0.684,0.315,0.867,0.578c0.185,0.263,0.275,0.578,0.275,0.959
			c0,0.289-0.052,0.538-0.157,0.774c-0.104,0.236-0.263,0.434-0.46,0.591c-0.196,0.158-0.433,0.289-0.709,0.381
			c-0.276,0.092-0.577,0.132-0.906,0.132c-0.328,0-0.63-0.04-0.905-0.132c-0.275-0.092-0.513-0.21-0.709-0.381
			c-0.196-0.157-0.342-0.354-0.46-0.591c-0.117-0.236-0.157-0.485-0.157-0.774c0-0.381,0.092-0.696,0.275-0.959
			c0.185-0.263,0.474-0.46,0.866-0.578c-0.314-0.131-0.538-0.314-0.696-0.551c-0.156-0.236-0.235-0.525-0.235-0.867
			c0-0.249,0.053-0.473,0.145-0.683c0.105-0.21,0.236-0.394,0.42-0.552c0.186-0.157,0.396-0.275,0.646-0.367
			c0.249-0.093,0.524-0.132,0.813-0.132c0.289,0,0.565,0.039,0.814,0.132c0.249,0.092,0.46,0.21,0.644,0.367
			c0.185,0.158,0.314,0.342,0.42,0.552c0.106,0.21,0.146,0.434,0.146,0.683c0,0.342-0.078,0.631-0.236,0.867
			C42.758,15.85,42.52,16.047,42.218,16.165z M41.128,18.727c0.186,0,0.341-0.026,0.474-0.079c0.132-0.053,0.249-0.118,0.342-0.21
			c0.092-0.092,0.171-0.197,0.21-0.328c0.039-0.132,0.064-0.263,0.064-0.407c0-0.354-0.092-0.617-0.287-0.801
			c-0.197-0.185-0.462-0.276-0.803-0.276s-0.616,0.092-0.801,0.276c-0.197,0.184-0.289,0.446-0.289,0.801
			c0,0.145,0.026,0.289,0.065,0.407c0.053,0.131,0.118,0.236,0.211,0.328c0.092,0.092,0.209,0.171,0.341,0.21
			C40.787,18.7,40.944,18.727,41.128,18.727z M41.128,13.854c-0.156,0-0.302,0.026-0.42,0.078c-0.118,0.053-0.21,0.118-0.302,0.197
			c-0.079,0.079-0.132,0.184-0.172,0.289c-0.039,0.105-0.052,0.224-0.052,0.342c0,0.131,0.013,0.249,0.052,0.367
			c0.027,0.118,0.08,0.224,0.158,0.315c0.079,0.092,0.171,0.171,0.289,0.223c0.117,0.053,0.274,0.079,0.445,0.079
			s0.329-0.026,0.446-0.079c0.119-0.052,0.224-0.131,0.289-0.223c0.066-0.092,0.131-0.197,0.158-0.315
			c0.024-0.118,0.053-0.249,0.053-0.367c0-0.118-0.014-0.236-0.053-0.342c-0.04-0.105-0.092-0.21-0.172-0.289
			c-0.078-0.079-0.17-0.145-0.288-0.197C41.43,13.881,41.299,13.854,41.128,13.854z"/>
	</g>
</g>
</svg>
