<?xml version="1.0" encoding="utf-8"?>
<!-- Generator: Adobe Illustrator 24.1.1, SVG Export Plug-In . SVG Version: 6.00 Build 0)  -->
<svg version="1.1" id="Layer_1" xmlns="http://www.w3.org/2000/svg" xmlns:xlink="http://www.w3.org/1999/xlink" x="0px" y="0px"
	 viewBox="0 0 80 80" style="enable-background:new 0 0 80 80;" xml:space="preserve">
<style type="text/css">
	.st0{opacity:0.3;}
	.st1{fill:url(#SVGID_1_);}
	.st2{fill:#FFFFFD;}
	.st3{fill:#F6F4EE;}
	.st4{fill:url(#SVGID_2_);stroke:#FBFAF6;stroke-width:0.2657;stroke-miterlimit:10;}
	.st5{fill:url(#SVGID_3_);stroke:#FBFAF6;stroke-width:0.2657;stroke-miterlimit:10;}
	.st6{fill:url(#SVGID_4_);stroke:#FBFAF6;stroke-width:0.2657;stroke-miterlimit:10;}
	.st7{fill:url(#SVGID_5_);stroke:#FBFAF6;stroke-width:0.2657;stroke-miterlimit:10;}
	.st8{fill:url(#SVGID_6_);stroke:#FBFAF6;stroke-width:0.2657;stroke-miterlimit:10;}
	.st9{fill:url(#SVGID_7_);stroke:#FBFAF6;stroke-width:0.2657;stroke-miterlimit:10;}
	.st10{fill:url(#SVGID_8_);stroke:#FBFAF6;stroke-width:0.2657;stroke-miterlimit:10;}
	.st11{fill:url(#SVGID_9_);stroke:#FBFAF6;stroke-width:0.2657;stroke-miterlimit:10;}
</style>
<g>
	<g class="st0">
		<path d="M63.1,77.4H21.6c-7.9,0-14.2-6.4-14.2-14.2V21.6c0-7.9,6.4-14.2,14.2-14.2h41.6c7.9,0,14.2,6.4,14.2,14.2v41.6
			C77.4,71,71,77.4,63.1,77.4z"/>
	</g>
	<g>
		<linearGradient id="SVGID_1_" gradientUnits="userSpaceOnUse" x1="8.9096" y1="7.4269" x2="66.7277" y2="68.1589">
			<stop  offset="1.065558e-07" style="stop-color:#FCFCF6"/>
			<stop  offset="1" style="stop-color:#C9BFC2"/>
		</linearGradient>
		<path class="st1" d="M58.4,72.6H16.9C9,72.6,2.6,66.2,2.6,58.4V16.8C2.6,9,9,2.6,16.9,2.6h41.6c7.9,0,14.2,6.4,14.2,14.2v41.6
			C72.6,66.2,66.3,72.6,58.4,72.6z"/>
		<path class="st2" d="M42.3,71.3H33c-16,0-29-13-29-29V33C4,17,14.3,3.2,33,4h9.2C59.5,3.2,71,17,71,33v9.2
			C71,58.3,59.1,72,42.3,71.3z"/>
		<path class="st3" d="M42.3,71H33C17.1,71,4.3,58.1,4.3,42.3v-9.3C4.3,17.1,17.1,4.2,33,4.2h9.3C58.2,4.2,71,17.1,71,32.9v9.3
			C71,58.1,58.2,71,42.3,71z"/>
		<g>
			<radialGradient id="SVGID_2_" cx="24.7894" cy="44.9405" r="5.9464" gradientUnits="userSpaceOnUse">
				<stop  offset="5.327789e-08" style="stop-color:#727272"/>
				<stop  offset="0.1743" style="stop-color:#545453"/>
				<stop  offset="0.3587" style="stop-color:#3C3C3B"/>
				<stop  offset="0.5521" style="stop-color:#2B2B29"/>
				<stop  offset="0.7585" style="stop-color:#20201E"/>
				<stop  offset="1" style="stop-color:#1D1D1B"/>
			</radialGradient>
			<circle class="st4" cx="24.8" cy="44.9" r="5.9"/>
			<radialGradient id="SVGID_3_" cx="50.5046" cy="44.9405" r="5.9464" gradientUnits="userSpaceOnUse">
				<stop  offset="5.327789e-08" style="stop-color:#727272"/>
				<stop  offset="0.1743" style="stop-color:#545453"/>
				<stop  offset="0.3587" style="stop-color:#3C3C3B"/>
				<stop  offset="0.5521" style="stop-color:#2B2B29"/>
				<stop  offset="0.7585" style="stop-color:#20201E"/>
				<stop  offset="1" style="stop-color:#1D1D1B"/>
			</radialGradient>
			<circle class="st5" cx="50.5" cy="44.9" r="5.9"/>
			<radialGradient id="SVGID_4_" cx="24.7894" cy="30.2846" r="5.9464" gradientUnits="userSpaceOnUse">
				<stop  offset="5.327789e-08" style="stop-color:#727272"/>
				<stop  offset="0.1743" style="stop-color:#545453"/>
				<stop  offset="0.3587" style="stop-color:#3C3C3B"/>
				<stop  offset="0.5521" style="stop-color:#2B2B29"/>
				<stop  offset="0.7585" style="stop-color:#20201E"/>
				<stop  offset="1" style="stop-color:#1D1D1B"/>
			</radialGradient>
			<circle class="st6" cx="24.8" cy="30.3" r="5.9"/>
			<radialGradient id="SVGID_5_" cx="50.5046" cy="30.2846" r="5.9464" gradientUnits="userSpaceOnUse">
				<stop  offset="5.327789e-08" style="stop-color:#727272"/>
				<stop  offset="0.1743" style="stop-color:#545453"/>
				<stop  offset="0.3587" style="stop-color:#3C3C3B"/>
				<stop  offset="0.5521" style="stop-color:#2B2B29"/>
				<stop  offset="0.7585" style="stop-color:#20201E"/>
				<stop  offset="1" style="stop-color:#1D1D1B"/>
			</radialGradient>
			<circle class="st7" cx="50.5" cy="30.3" r="5.9"/>
			<radialGradient id="SVGID_6_" cx="24.7894" cy="59.5963" r="5.9464" gradientUnits="userSpaceOnUse">
				<stop  offset="5.327789e-08" style="stop-color:#727272"/>
				<stop  offset="0.1743" style="stop-color:#545453"/>
				<stop  offset="0.3587" style="stop-color:#3C3C3B"/>
				<stop  offset="0.5521" style="stop-color:#2B2B29"/>
				<stop  offset="0.7585" style="stop-color:#20201E"/>
				<stop  offset="1" style="stop-color:#1D1D1B"/>
			</radialGradient>
			<circle class="st8" cx="24.8" cy="59.6" r="5.9"/>
			<radialGradient id="SVGID_7_" cx="50.5046" cy="59.5963" r="5.9464" gradientUnits="userSpaceOnUse">
				<stop  offset="5.327789e-08" style="stop-color:#727272"/>
				<stop  offset="0.1743" style="stop-color:#545453"/>
				<stop  offset="0.3587" style="stop-color:#3C3C3B"/>
				<stop  offset="0.5521" style="stop-color:#2B2B29"/>
				<stop  offset="0.7585" style="stop-color:#20201E"/>
				<stop  offset="1" style="stop-color:#1D1D1B"/>
			</radialGradient>
			<circle class="st9" cx="50.5" cy="59.6" r="5.9"/>
			<radialGradient id="SVGID_8_" cx="24.7894" cy="15.6288" r="5.9464" gradientUnits="userSpaceOnUse">
				<stop  offset="5.327789e-08" style="stop-color:#727272"/>
				<stop  offset="0.1743" style="stop-color:#545453"/>
				<stop  offset="0.3587" style="stop-color:#3C3C3B"/>
				<stop  offset="0.5521" style="stop-color:#2B2B29"/>
				<stop  offset="0.7585" style="stop-color:#20201E"/>
				<stop  offset="1" style="stop-color:#1D1D1B"/>
			</radialGradient>
			<circle class="st10" cx="24.8" cy="15.6" r="5.9"/>
			<radialGradient id="SVGID_9_" cx="50.5046" cy="15.6288" r="5.9464" gradientUnits="userSpaceOnUse">
				<stop  offset="5.327789e-08" style="stop-color:#727272"/>
				<stop  offset="0.1743" style="stop-color:#545453"/>
				<stop  offset="0.3587" style="stop-color:#3C3C3B"/>
				<stop  offset="0.5521" style="stop-color:#2B2B29"/>
				<stop  offset="0.7585" style="stop-color:#20201E"/>
				<stop  offset="1" style="stop-color:#1D1D1B"/>
			</radialGradient>
			<circle class="st11" cx="50.5" cy="15.6" r="5.9"/>
		</g>
	</g>
</g>
</svg>
