<?xml version="1.0" encoding="utf-8"?>
<!-- Generator: Adobe Illustrator 24.1.1, SVG Export Plug-In . SVG Version: 6.00 Build 0)  -->
<svg version="1.1" id="Layer_1" xmlns="http://www.w3.org/2000/svg" xmlns:xlink="http://www.w3.org/1999/xlink" x="0px" y="0px"
	 viewBox="0 0 80 80" style="enable-background:new 0 0 80 80;" xml:space="preserve">
<style type="text/css">
	.st0{opacity:0.3;}
	.st1{fill:url(#SVGID_1_);}
	.st2{fill:#FFFFFD;}
	.st3{fill:#F6F4EE;}
	.st4{enable-background:new    ;}
</style>
<g>
	<g class="st0">
		<path d="M63.2,77.4H21.6c-7.9,0-14.2-6.4-14.2-14.2V21.6c0-7.9,6.4-14.2,14.2-14.2h41.6c7.9,0,14.2,6.4,14.2,14.2v41.6
			C77.3,71,71,77.4,63.2,77.4z"/>
	</g>
	<g>
		
			<linearGradient id="SVGID_1_" gradientUnits="userSpaceOnUse" x1="8.9483" y1="-559.3803" x2="66.7665" y2="-620.1123" gradientTransform="matrix(1 0 0 -1 0 -552)">
			<stop  offset="1.065558e-07" style="stop-color:#FCFCF6"/>
			<stop  offset="1" style="stop-color:#C9BFC2"/>
		</linearGradient>
		<path class="st1" d="M58.5,72.6H16.9c-7.8,0-14.2-6.4-14.2-14.2V16.8C2.7,9,9.1,2.6,16.9,2.6h41.6c7.9,0,14.2,6.4,14.2,14.2v41.6
			C72.7,66.2,66.3,72.6,58.5,72.6z"/>
		<path class="st2" d="M42.3,71.2H33c-16,0-29-13-29-29V33C4,17,14.3,3.2,33,4h9.2C59.5,3.3,71,17,71,33v9.2
			C71.1,58.2,59.1,72,42.3,71.2z"/>
		<path class="st3" d="M42.4,71h-9.3C17.2,71,4.3,58.1,4.3,42.3V33C4.3,17.1,17.2,4.2,33,4.2h9.3C58,4.2,71,17,71,32.9v9.3
			C71.1,58.1,58.2,71,42.4,71z"/>
		<g class="st4">
			<path d="M33.9,45.9c0.6,0,1.1,0.2,1.4,0.5c0.3,0.3,0.5,0.8,0.5,1.3v3.2H17.4v-1.8c0-0.3,0.1-0.7,0.2-1.1c0.1-0.4,0.4-0.8,0.8-1.1
				l7.6-7.6c0.6-0.6,1.2-1.3,1.7-1.9c0.5-0.6,0.9-1.2,1.2-1.7c0.3-0.6,0.5-1.1,0.7-1.7c0.2-0.6,0.2-1.2,0.2-1.8c0-1-0.2-1.8-0.7-2.4
				c-0.5-0.6-1.3-0.8-2.3-0.8c-0.8,0-1.5,0.2-2.1,0.7c-0.6,0.4-1,1-1.2,1.6c-0.3,0.7-0.6,1.1-1,1.3c-0.4,0.2-1,0.3-1.7,0.1l-3-0.5
				c0.2-1.3,0.6-2.4,1.1-3.4c0.5-1,1.2-1.8,2-2.4c0.8-0.6,1.7-1.1,2.8-1.4c1-0.3,2.2-0.5,3.4-0.5c1.3,0,2.5,0.2,3.5,0.6
				c1,0.4,1.9,0.9,2.7,1.6s1.3,1.5,1.7,2.4s0.6,2,0.6,3.1c0,1-0.1,1.8-0.4,2.7c-0.3,0.8-0.6,1.6-1.1,2.3c-0.5,0.7-1,1.5-1.6,2.1
				c-0.6,0.7-1.3,1.4-2,2.1l-5.1,5.3c0.7-0.2,1.3-0.4,2-0.5s1.2-0.2,1.8-0.2H33.9z"/>
			<path d="M57.4,37.8c0,2.3-0.2,4.3-0.7,6c-0.5,1.7-1.2,3.1-2,4.2c-0.9,1.1-1.9,1.9-3.1,2.5c-1.2,0.5-2.5,0.8-3.9,0.8
				c-1.4,0-2.7-0.3-3.9-0.8c-1.2-0.5-2.2-1.4-3.1-2.5c-0.9-1.1-1.5-2.5-2-4.2c-0.5-1.7-0.7-3.7-0.7-6s0.2-4.3,0.7-6
				c0.5-1.7,1.2-3.1,2-4.2c0.9-1.1,1.9-1.9,3.1-2.5c1.2-0.5,2.5-0.8,3.9-0.8c1.4,0,2.7,0.3,3.9,0.8c1.2,0.5,2.2,1.4,3.1,2.5
				s1.6,2.5,2,4.2C57.1,33.5,57.4,35.5,57.4,37.8z M51.6,37.8c0-1.8-0.1-3.3-0.3-4.5s-0.5-2.1-0.9-2.7s-0.8-1.1-1.3-1.4
				c-0.5-0.2-1-0.4-1.5-0.4s-1,0.1-1.4,0.4c-0.5,0.2-0.9,0.7-1.3,1.4s-0.7,1.6-0.9,2.7s-0.3,2.6-0.3,4.5c0,1.8,0.1,3.3,0.3,4.5
				c0.2,1.2,0.5,2.1,0.9,2.7s0.8,1.1,1.3,1.4c0.5,0.2,1,0.4,1.4,0.4s1-0.1,1.5-0.4c0.5-0.2,0.9-0.7,1.3-1.4s0.7-1.6,0.9-2.7
				C51.5,41.1,51.6,39.6,51.6,37.8z"/>
		</g>
	</g>
</g>
</svg>
