<?xml version="1.0" encoding="utf-8"?>
<!-- Generator: Adobe Illustrator 24.1.1, SVG Export Plug-In . SVG Version: 6.00 Build 0)  -->
<svg version="1.1" id="Layer_1" xmlns="http://www.w3.org/2000/svg" xmlns:xlink="http://www.w3.org/1999/xlink" x="0px" y="0px"
	 viewBox="0 0 80 80" style="enable-background:new 0 0 80 80;" xml:space="preserve">
<style type="text/css">
	.st0{opacity:0.3;}
	.st1{fill:url(#SVGID_1_);}
	.st2{fill:#FFFFFD;}
	.st3{fill:#F6F4EE;}
	.st4{fill:url(#SVGID_2_);stroke:#FBFAF6;stroke-width:0.2657;stroke-miterlimit:10;}
</style>
<g>
	<g>
		<g class="st0">
			<path d="M63.5,77.4H21.9c-7.9,0-14.2-6.4-14.2-14.2V21.6c0-7.9,6.4-14.2,14.2-14.2h41.6c7.9,0,14.2,6.4,14.2,14.2v41.6
				C77.7,71,71.4,77.4,63.5,77.4z"/>
		</g>
	</g>
	<g>
		<linearGradient id="SVGID_1_" gradientUnits="userSpaceOnUse" x1="8.5453" y1="7.4269" x2="66.3635" y2="68.1589">
			<stop  offset="1.065558e-07" style="stop-color:#FCFCF6"/>
			<stop  offset="1" style="stop-color:#C9BFC2"/>
		</linearGradient>
		<path class="st1" d="M58.1,72.6H16.5c-7.9,0-14.2-6.4-14.2-14.2V16.8C2.3,9,8.6,2.6,16.5,2.6h41.6c7.9,0,14.2,6.4,14.2,14.2v41.6
			C72.3,66.2,65.9,72.6,58.1,72.6z"/>
		<path class="st2" d="M41.9,71.3h-9.2c-16,0-29-13-29-29V33c0-16,10.3-29.8,29-29h9.2c17.3-0.7,28.8,13,28.8,29v9.2
			C70.7,58.3,58.7,72,41.9,71.3z"/>
		<path class="st3" d="M42,71h-9.3C16.8,71,3.9,58.1,3.9,42.3v-9.3c0-15.8,12.8-28.7,28.7-28.7H42c15.8,0,28.7,12.8,28.7,28.7v9.3
			C70.7,58.1,57.8,71,42,71z"/>
		<g>
			<radialGradient id="SVGID_2_" cx="37.2827" cy="37.6126" r="5.9464" gradientUnits="userSpaceOnUse">
				<stop  offset="5.327789e-08" style="stop-color:#727272"/>
				<stop  offset="0.1743" style="stop-color:#545453"/>
				<stop  offset="0.3587" style="stop-color:#3C3C3B"/>
				<stop  offset="0.5521" style="stop-color:#2B2B29"/>
				<stop  offset="0.7585" style="stop-color:#20201E"/>
				<stop  offset="1" style="stop-color:#1D1D1B"/>
			</radialGradient>
			<circle class="st4" cx="37.3" cy="37.6" r="5.9"/>
		</g>
	</g>
</g>
</svg>
