<?xml version="1.0" encoding="utf-8"?>
<!-- Generator: Adobe Illustrator 24.1.1, SVG Export Plug-In . SVG Version: 6.00 Build 0)  -->
<svg version="1.1" id="Layer_1" xmlns="http://www.w3.org/2000/svg" xmlns:xlink="http://www.w3.org/1999/xlink" x="0px" y="0px"
	 viewBox="0 0 20 56" style="enable-background:new 0 0 20 56;" xml:space="preserve">
<style type="text/css">
	.st0{fill:url(#SVGID_1_);}
	.st1{opacity:0.54;}
	.st2{opacity:0;fill:#D7D8D8;}
	.st3{opacity:2.439024e-02;fill:#D8D9D9;}
	.st4{opacity:4.878049e-02;fill:#D9DADA;}
	.st5{opacity:7.317073e-02;fill:#DADBDB;}
	.st6{opacity:9.756097e-02;fill:#DBDCDC;}
	.st7{opacity:0.122;fill:#DCDDDD;}
	.st8{opacity:0.1463;fill:#DDDEDE;}
	.st9{opacity:0.1707;fill:#DEDFDF;}
	.st10{opacity:0.1951;fill:#DFE0E0;}
	.st11{opacity:0.2195;fill:#E0E1E1;}
	.st12{opacity:0.2439;fill:#E1E2E2;}
	.st13{opacity:0.2683;fill:#E2E2E2;}
	.st14{opacity:0.2927;fill:#E3E3E3;}
	.st15{opacity:0.3171;fill:#E4E4E4;}
	.st16{opacity:0.3415;fill:#E5E5E5;}
	.st17{opacity:0.3659;fill:#E6E6E6;}
	.st18{opacity:0.3902;fill:#E7E7E7;}
	.st19{opacity:0.4146;fill:#E8E8E8;}
	.st20{opacity:0.439;fill:#E9E9E9;}
	.st21{opacity:0.4634;fill:#EAEAEA;}
	.st22{opacity:0.4878;fill:#EBEBEB;}
	.st23{opacity:0.5122;fill:#EBECEC;}
	.st24{opacity:0.5366;fill:#ECEDED;}
	.st25{opacity:0.561;fill:#EDEEEE;}
	.st26{opacity:0.5854;fill:#EEEFEF;}
	.st27{opacity:0.6098;fill:#EFF0F0;}
	.st28{opacity:0.6341;fill:#F0F1F1;}
	.st29{opacity:0.6585;fill:#F1F2F2;}
	.st30{opacity:0.6829;fill:#F2F3F3;}
	.st31{opacity:0.7073;fill:#F3F4F4;}
	.st32{opacity:0.7317;fill:#F4F5F5;}
	.st33{opacity:0.7561;fill:#F5F5F5;}
	.st34{opacity:0.7805;fill:#F6F6F6;}
	.st35{opacity:0.8049;fill:#F7F7F7;}
	.st36{opacity:0.8293;fill:#F8F8F8;}
	.st37{opacity:0.8537;fill:#F9F9F9;}
	.st38{opacity:0.878;fill:#FAFAFA;}
	.st39{opacity:0.9024;fill:#FBFBFB;}
	.st40{opacity:0.9268;fill:#FCFCFC;}
	.st41{opacity:0.9512;fill:#FDFDFD;}
	.st42{opacity:0.9756;fill:#FEFEFE;}
	.st43{fill:#FFFFFF;}
	.st44{opacity:0;fill:#DBDBDB;}
	.st45{opacity:2.702703e-02;fill:#DCDCDC;}
	.st46{opacity:5.405406e-02;fill:#DDDDDD;}
	.st47{opacity:8.108108e-02;fill:#DEDEDE;}
	.st48{opacity:0.1081;fill:#DFDFDF;}
	.st49{opacity:0.1351;fill:#E0E0E0;}
	.st50{opacity:0.1622;fill:#E1E1E1;}
	.st51{opacity:0.1892;fill:#E2E2E2;}
	.st52{opacity:0.2162;fill:#E3E3E3;}
	.st53{opacity:0.2432;fill:#E4E4E4;}
	.st54{opacity:0.2703;fill:#E5E5E5;}
	.st55{opacity:0.2973;fill:#E6E6E6;}
	.st56{opacity:0.3243;fill:#E7E7E7;}
	.st57{opacity:0.3514;fill:#E8E8E8;}
	.st58{opacity:0.3784;fill:#E9E9E9;}
	.st59{opacity:0.4054;fill:#EAEAEA;}
	.st60{opacity:0.4324;fill:#EBEBEB;}
	.st61{opacity:0.4595;fill:#ECECEC;}
	.st62{opacity:0.4865;fill:#EDEDED;}
	.st63{opacity:0.5135;fill:#EDEDED;}
	.st64{opacity:0.5405;fill:#EEEEEE;}
	.st65{opacity:0.5676;fill:#EFEFEF;}
	.st66{opacity:0.5946;fill:#F0F0F0;}
	.st67{opacity:0.6216;fill:#F1F1F1;}
	.st68{opacity:0.6486;fill:#F2F2F2;}
	.st69{opacity:0.6757;fill:#F3F3F3;}
	.st70{opacity:0.7027;fill:#F4F4F4;}
	.st71{opacity:0.7297;fill:#F5F5F5;}
	.st72{opacity:0.7568;fill:#F6F6F6;}
	.st73{opacity:0.7838;fill:#F7F7F7;}
	.st74{opacity:0.8108;fill:#F8F8F8;}
	.st75{opacity:0.8378;fill:#F9F9F9;}
	.st76{opacity:0.8649;fill:#FAFAFA;}
	.st77{opacity:0.8919;fill:#FBFBFB;}
	.st78{opacity:0.9189;fill:#FCFCFC;}
	.st79{opacity:0.9459;fill:#FDFDFD;}
	.st80{opacity:0.973;fill:#FEFEFE;}
</style>
<g>
	
		<linearGradient id="SVGID_1_" gradientUnits="userSpaceOnUse" x1="-0.5744" y1="29.2715" x2="17.6088" y2="29.2715" gradientTransform="matrix(1 -5.100000e-03 5.100000e-03 1 1.3335 -1.2281)">
		<stop  offset="5.463260e-07" style="stop-color:#FFFFFF"/>
		<stop  offset="0.2337" style="stop-color:#B9B9B9"/>
		<stop  offset="0.5953" style="stop-color:#CBCBCB"/>
		<stop  offset="1" style="stop-color:#FFFFFF"/>
	</linearGradient>
	<path class="st0" d="M10.1,55.2L10.1,55.2c-5,0-9.1-7.6-9.1-17.1L0.9,18c0-9.5,4-17.2,9-17.2h0c5,0,9.1,7.6,9.1,17.1L19.1,38
		C19.1,47.4,15.1,55.2,10.1,55.2z"/>
	<g class="st1">
		
			<ellipse transform="matrix(1 -2.584263e-03 2.584263e-03 1 -6.321052e-02 9.118323e-03)" class="st2" cx="3.5" cy="24.5" rx="1.9" ry="15.8"/>
		<path class="st3" d="M5.4,24.4C5.4,33,4.6,40,3.5,40c-1.1,0-1.9-6.9-1.9-15.5c0-8.6,0.8-15.6,1.9-15.6C4.5,8.9,5.4,15.9,5.4,24.4z
			"/>
		<path class="st4" d="M5.4,24.4c0,8.4-0.8,15.3-1.8,15.3c-1,0-1.9-6.8-1.9-15.3C1.6,16,2.4,9.2,3.5,9.2C4.5,9.2,5.3,16,5.4,24.4z"
			/>
		<path class="st5" d="M5.3,24.4c0,8.3-0.8,15-1.8,15.1c-1,0-1.8-6.7-1.9-15c0-8.3,0.8-15,1.8-15C4.5,9.4,5.3,16.1,5.3,24.4z"/>
		<path class="st6" d="M5.3,24.4c0,8.2-0.7,14.8-1.7,14.8c-1,0-1.8-6.6-1.8-14.8c0-8.2,0.7-14.8,1.7-14.8C4.5,9.7,5.3,16.3,5.3,24.4
			z"/>
		<path class="st7" d="M5.2,24.4c0,8-0.7,14.5-1.7,14.5c-1,0-1.8-6.5-1.8-14.5c0-8,0.7-14.5,1.7-14.5C4.4,9.9,5.2,16.4,5.2,24.4z"/>
		<path class="st8" d="M5.2,24.4c0,7.9-0.7,14.3-1.7,14.3c-1,0-1.7-6.4-1.7-14.2c0-7.9,0.7-14.2,1.7-14.3
			C4.4,10.2,5.2,16.6,5.2,24.4z"/>
		<path class="st9" d="M5.2,24.4c0,7.7-0.7,14-1.6,14c-0.9,0-1.7-6.2-1.7-14c0-7.7,0.7-14,1.6-14C4.4,10.5,5.1,16.7,5.2,24.4z"/>
		<path class="st10" d="M5.1,24.4c0,7.6-0.7,13.7-1.6,13.7c-0.9,0-1.6-6.1-1.6-13.7c0-7.6,0.6-13.7,1.6-13.7
			C4.4,10.7,5.1,16.9,5.1,24.4z"/>
		<path class="st11" d="M5.1,24.4c0,7.4-0.6,13.5-1.5,13.5c-0.9,0-1.6-6-1.6-13.4C1.9,17,2.6,11,3.5,11C4.4,11,5.1,17,5.1,24.4z"/>
		<path class="st12" d="M5.1,24.4c0,7.3-0.6,13.2-1.5,13.2C2.6,37.7,2,31.8,2,24.5c0-7.3,0.6-13.2,1.5-13.2
			C4.4,11.3,5,17.2,5.1,24.4z"/>
		<path class="st13" d="M5,24.4c0,7.1-0.6,12.9-1.5,12.9C2.7,37.4,2,31.6,2,24.5c0-7.1,0.6-12.9,1.5-12.9C4.3,11.5,5,17.3,5,24.4z"
			/>
		<path class="st14" d="M5,24.4c0,7-0.6,12.7-1.4,12.7c-0.9,0-1.5-5.7-1.5-12.7c0-7,0.6-12.7,1.4-12.7C4.3,11.8,5,17.5,5,24.4z"/>
		<path class="st15" d="M4.9,24.4c0,6.8-0.6,12.4-1.4,12.4c-0.8,0-1.4-5.5-1.4-12.4c0-6.8,0.5-12.4,1.4-12.4
			C4.3,12.1,4.9,17.6,4.9,24.4z"/>
		<path class="st16" d="M4.9,24.4c0,6.7-0.5,12.1-1.4,12.1c-0.8,0-1.4-5.4-1.4-12.1c0-6.7,0.5-12.1,1.3-12.1
			C4.3,12.3,4.9,17.7,4.9,24.4z"/>
		<path class="st17" d="M4.9,24.4c0,6.6-0.5,11.9-1.3,11.9c-0.8,0-1.3-5.3-1.4-11.9c0-6.6,0.5-11.9,1.3-11.9
			C4.3,12.6,4.8,17.9,4.9,24.4z"/>
		<path class="st18" d="M4.8,24.4c0,6.4-0.5,11.6-1.3,11.6c-0.8,0-1.3-5.2-1.3-11.6c0-6.4,0.5-11.6,1.3-11.6
			C4.3,12.8,4.8,18,4.8,24.4z"/>
		<path class="st19" d="M4.8,24.4c0,6.3-0.5,11.4-1.2,11.4c-0.8,0-1.3-5.1-1.3-11.3c0-6.3,0.4-11.3,1.2-11.3
			C4.2,13.1,4.8,18.2,4.8,24.4z"/>
		<path class="st20" d="M4.7,24.4c0,6.1-0.5,11.1-1.2,11.1c-0.8,0-1.2-5-1.2-11.1c0-6.1,0.4-11.1,1.2-11.1
			C4.2,13.4,4.7,18.3,4.7,24.4z"/>
		<path class="st21" d="M4.7,24.4c0,6-0.4,10.8-1.2,10.8c-0.7,0-1.2-4.8-1.2-10.8c0-6,0.4-10.8,1.1-10.8C4.2,13.6,4.7,18.5,4.7,24.4
			z"/>
		<path class="st22" d="M4.7,24.4C4.7,30.3,4.3,35,3.5,35c-0.7,0-1.1-4.7-1.1-10.6c0-5.8,0.4-10.5,1.1-10.6
			C4.2,13.9,4.6,18.6,4.7,24.4z"/>
		<path class="st23" d="M4.6,24.4c0,5.7-0.4,10.3-1.1,10.3c-0.7,0-1.1-4.6-1.1-10.3c0-5.7,0.4-10.3,1.1-10.3
			C4.2,14.2,4.6,18.8,4.6,24.4z"/>
		<path class="st24" d="M4.6,24.4c0,5.5-0.4,10-1,10c-0.7,0-1.1-4.5-1.1-10c0-5.5,0.3-10,1-10C4.2,14.4,4.6,18.9,4.6,24.4z"/>
		<path class="st25" d="M4.5,24.4c0,5.4-0.3,9.8-1,9.8c-0.7,0-1-4.4-1-9.8c0-5.4,0.3-9.8,1-9.8C4.2,14.7,4.5,19.1,4.5,24.4z"/>
		<path class="st26" d="M4.5,24.4c0,5.2-0.3,9.5-1,9.5c-0.6,0-1-4.3-1-9.5c0-5.2,0.3-9.5,0.9-9.5C4.1,14.9,4.5,19.2,4.5,24.4z"/>
		<path class="st27" d="M4.5,24.4c0,5.1-0.3,9.2-0.9,9.2c-0.6,0-0.9-4.1-0.9-9.2c0-5.1,0.3-9.2,0.9-9.2C4.1,15.2,4.5,19.3,4.5,24.4z
			"/>
		<path class="st28" d="M4.4,24.4c0,5-0.3,9-0.9,9c-0.6,0-0.9-4-0.9-9c0-5,0.2-9,0.9-9C4.1,15.5,4.4,19.5,4.4,24.4z"/>
		<path class="st29" d="M4.4,24.4c0,4.8-0.3,8.7-0.9,8.7c-0.6,0-0.8-3.9-0.9-8.7c0-4.8,0.2-8.7,0.8-8.7C4.1,15.7,4.4,19.6,4.4,24.4z
			"/>
		<path class="st30" d="M4.4,24.4c0,4.7-0.2,8.5-0.8,8.5c-0.6,0-0.8-3.8-0.8-8.5c0-4.7,0.2-8.4,0.8-8.4C4.1,16,4.3,19.8,4.4,24.4z"
			/>
		<path class="st31" d="M4.3,24.4c0,4.5-0.2,8.2-0.8,8.2c-0.6,0-0.8-3.7-0.8-8.2c0-4.5,0.2-8.2,0.7-8.2C4.1,16.3,4.3,19.9,4.3,24.4z
			"/>
		<path class="st32" d="M4.3,24.4c0,4.4-0.2,7.9-0.7,7.9c-0.5,0-0.7-3.6-0.7-7.9c0-4.4,0.2-7.9,0.7-7.9C4,16.5,4.3,20.1,4.3,24.4z"
			/>
		<path class="st33" d="M4.2,24.4c0,4.2-0.2,7.7-0.7,7.7c-0.5,0-0.7-3.4-0.7-7.7c0-4.2,0.1-7.6,0.7-7.6C4,16.8,4.2,20.2,4.2,24.4z"
			/>
		<path class="st34" d="M4.2,24.4c0,4.1-0.2,7.4-0.7,7.4c-0.5,0-0.6-3.3-0.7-7.4c0-4.1,0.1-7.4,0.6-7.4C4,17.1,4.2,20.4,4.2,24.4z"
			/>
		<path class="st35" d="M4.2,24.4c0,3.9-0.1,7.1-0.6,7.1c-0.5,0-0.6-3.2-0.6-7.2c0-3.9,0.1-7.1,0.6-7.1C4,17.3,4.2,20.5,4.2,24.4z"
			/>
		<path class="st36" d="M4.1,24.4c0,3.8-0.1,6.9-0.6,6.9c-0.5,0-0.6-3.1-0.6-6.9c0-3.8,0.1-6.8,0.5-6.8C4,17.6,4.1,20.7,4.1,24.4z"
			/>
		<path class="st37" d="M4.1,24.4c0,3.6-0.1,6.6-0.5,6.6c-0.4,0-0.5-3-0.5-6.6c0-3.6,0-6.6,0.5-6.6C4,17.8,4.1,20.8,4.1,24.4z"/>
		<path class="st38" d="M4,24.4c0,3.5-0.1,6.3-0.5,6.3c-0.4,0-0.5-2.9-0.5-6.4c0-3.5,0-6.3,0.4-6.3C3.9,18.1,4,20.9,4,24.4z"/>
		<path class="st39" d="M4,24.4c0,3.4-0.1,6.1-0.5,6.1c-0.4,0-0.4-2.7-0.4-6.1c0-3.4,0-6,0.4-6.1C3.9,18.4,4,21.1,4,24.4z"/>
		<path class="st40" d="M4,24.4c0,3.2,0,5.8-0.4,5.8c-0.4,0-0.4-2.6-0.4-5.8c0-3.2,0-5.8,0.4-5.8C3.9,18.6,4,21.2,4,24.4z"/>
		<path class="st41" d="M3.9,24.4c0,3.1,0,5.5-0.4,5.6c-0.4,0-0.4-2.5-0.4-5.6c0-3.1,0-5.5,0.3-5.5C3.9,18.9,3.9,21.4,3.9,24.4z"/>
		<path class="st42" d="M3.9,24.4c0,2.9,0,5.3-0.3,5.3c-0.4,0-0.3-2.4-0.3-5.3c0-2.9-0.1-5.3,0.3-5.3C3.9,19.2,3.9,21.5,3.9,24.4z"
			/>
		<path class="st43" d="M3.9,24.4c0,2.8,0,5-0.3,5c-0.3,0-0.3-2.3-0.3-5.1c0-2.8-0.1-5,0.2-5C3.9,19.4,3.8,21.7,3.9,24.4z"/>
	</g>
	<g class="st1">
		
			<ellipse transform="matrix(1 -2.578971e-03 2.578971e-03 1 -6.378907e-02 4.330992e-02)" class="st44" cx="16.8" cy="24.8" rx="1.9" ry="15.4"/>
		<path class="st45" d="M18.7,24.7c0,8.4-0.8,15.1-1.9,15.1c-1.1,0-1.9-6.8-1.9-15.1c0-8.4,0.8-15.1,1.9-15.1
			C17.8,9.6,18.6,16.4,18.7,24.7z"/>
		<path class="st46" d="M18.6,24.7c0,8.2-0.8,14.8-1.8,14.9c-1,0-1.9-6.6-1.9-14.8c0-8.2,0.8-14.8,1.8-14.9
			C17.8,9.9,18.6,16.5,18.6,24.7z"/>
		<path class="st47" d="M18.6,24.7c0,8-0.8,14.6-1.8,14.6c-1,0-1.8-6.5-1.8-14.5c0-8,0.8-14.6,1.8-14.6
			C17.7,10.2,18.6,16.7,18.6,24.7z"/>
		<path class="st48" d="M18.5,24.7c0,7.9-0.7,14.3-1.7,14.3c-1,0-1.8-6.4-1.8-14.3c0-7.9,0.7-14.3,1.7-14.3
			C17.7,10.5,18.5,16.9,18.5,24.7z"/>
		<path class="st49" d="M18.5,24.7c0,7.7-0.7,14-1.7,14c-1,0-1.7-6.2-1.8-14c0-7.7,0.7-14,1.7-14C17.7,10.8,18.5,17,18.5,24.7z"/>
		<path class="st50" d="M18.4,24.7c0,7.6-0.7,13.7-1.6,13.7c-1,0-1.7-6.1-1.7-13.7c0-7.6,0.7-13.7,1.6-13.7
			C17.7,11,18.4,17.2,18.4,24.7z"/>
		<path class="st51" d="M18.4,24.7c0,7.4-0.7,13.4-1.6,13.4c-0.9,0-1.6-6-1.7-13.4c0-7.4,0.7-13.4,1.6-13.4
			C17.7,11.3,18.4,17.3,18.4,24.7z"/>
		<path class="st52" d="M18.4,24.7c0,7.3-0.6,13.1-1.6,13.1c-0.9,0-1.6-5.9-1.6-13.1c0-7.3,0.6-13.1,1.5-13.1
			C17.6,11.6,18.3,17.5,18.4,24.7z"/>
		<path class="st53" d="M18.3,24.7c0,7.1-0.6,12.9-1.5,12.9c-0.9,0-1.5-5.7-1.6-12.8c0-7.1,0.6-12.8,1.5-12.9
			C17.6,11.9,18.3,17.6,18.3,24.7z"/>
		<path class="st54" d="M18.3,24.7c0,6.9-0.6,12.6-1.5,12.6c-0.9,0-1.5-5.6-1.5-12.6c0-6.9,0.6-12.6,1.5-12.6
			C17.6,12.2,18.3,17.8,18.3,24.7z"/>
		<path class="st55" d="M18.2,24.7c0,6.8-0.6,12.3-1.4,12.3c-0.9,0-1.5-5.5-1.5-12.3c0-6.8,0.6-12.3,1.4-12.3
			C17.6,12.5,18.2,18,18.2,24.7z"/>
		<path class="st56" d="M18.2,24.7c0,6.6-0.5,12-1.4,12c-0.8,0-1.4-5.4-1.4-12c0-6.6,0.5-12,1.4-12C17.6,12.7,18.2,18.1,18.2,24.7z"
			/>
		<path class="st57" d="M18.1,24.7c0,6.5-0.5,11.7-1.3,11.7c-0.8,0-1.4-5.2-1.4-11.7c0-6.5,0.5-11.7,1.3-11.7
			C17.6,13,18.1,18.3,18.1,24.7z"/>
		<path class="st58" d="M18.1,24.7c0,6.3-0.5,11.4-1.3,11.4c-0.8,0-1.3-5.1-1.3-11.4c0-6.3,0.5-11.4,1.3-11.4
			C17.5,13.3,18.1,18.4,18.1,24.7z"/>
		<path class="st59" d="M18.1,24.7c0,6.2-0.5,11.1-1.3,11.2c-0.8,0-1.3-5-1.3-11.1c0-6.2,0.5-11.1,1.2-11.1
			C17.5,13.6,18,18.6,18.1,24.7z"/>
		<path class="st60" d="M18,24.7c0,6-0.5,10.9-1.2,10.9c-0.8,0-1.2-4.9-1.2-10.9c0-6,0.4-10.8,1.2-10.9C17.5,13.9,18,18.7,18,24.7z"
			/>
		<path class="st61" d="M18,24.7c0,5.8-0.4,10.6-1.2,10.6c-0.7,0-1.2-4.7-1.2-10.6c0-5.8,0.4-10.6,1.1-10.6
			C17.5,14.2,18,18.9,18,24.7z"/>
		<path class="st62" d="M17.9,24.7c0,5.7-0.4,10.3-1.1,10.3c-0.7,0-1.1-4.6-1.2-10.3c0-5.7,0.4-10.3,1.1-10.3
			C17.5,14.5,17.9,19.1,17.9,24.7z"/>
		<path class="st63" d="M17.9,24.7c0,5.5-0.4,10-1.1,10c-0.7,0-1.1-4.5-1.1-10c0-5.5,0.4-10,1.1-10C17.4,14.7,17.9,19.2,17.9,24.7z"
			/>
		<path class="st64" d="M17.8,24.7c0,5.4-0.4,9.7-1,9.7c-0.7,0-1-4.4-1.1-9.7c0-5.4,0.3-9.7,1-9.7C17.4,15,17.8,19.4,17.8,24.7z"/>
		<path class="st65" d="M17.8,24.7c0,5.2-0.3,9.4-1,9.4c-0.7,0-1-4.2-1-9.4c0-5.2,0.3-9.4,1-9.4C17.4,15.3,17.8,19.5,17.8,24.7z"/>
		<path class="st66" d="M17.8,24.7c0,5.1-0.3,9.2-1,9.2c-0.6,0-1-4.1-1-9.2c0-5.1,0.3-9.1,0.9-9.1C17.4,15.6,17.7,19.7,17.8,24.7z"
			/>
		<path class="st67" d="M17.7,24.7c0,4.9-0.3,8.9-0.9,8.9c-0.6,0-0.9-4-0.9-8.9c0-4.9,0.3-8.9,0.9-8.9
			C17.4,15.9,17.7,19.8,17.7,24.7z"/>
		<path class="st68" d="M17.7,24.7c0,4.7-0.3,8.6-0.9,8.6c-0.6,0-0.9-3.9-0.9-8.6c0-4.7,0.2-8.6,0.8-8.6
			C17.4,16.2,17.7,20,17.7,24.7z"/>
		<path class="st69" d="M17.6,24.7c0,4.6-0.2,8.3-0.8,8.3c-0.6,0-0.8-3.7-0.8-8.3c0-4.6,0.2-8.3,0.8-8.3
			C17.3,16.4,17.6,20.2,17.6,24.7z"/>
		<path class="st70" d="M17.6,24.7c0,4.4-0.2,8-0.8,8c-0.6,0-0.8-3.6-0.8-8c0-4.4,0.2-8,0.7-8C17.3,16.7,17.6,20.3,17.6,24.7z"/>
		<path class="st71" d="M17.5,24.7c0,4.3-0.2,7.7-0.7,7.7c-0.5,0-0.7-3.5-0.7-7.7c0-4.3,0.2-7.7,0.7-7.7
			C17.3,17,17.5,20.5,17.5,24.7z"/>
		<path class="st72" d="M17.5,24.7c0,4.1-0.2,7.4-0.7,7.5c-0.5,0-0.7-3.4-0.7-7.5c0-4.1,0.1-7.4,0.7-7.4
			C17.3,17.3,17.5,20.6,17.5,24.7z"/>
		<path class="st73" d="M17.5,24.7c0,4-0.2,7.2-0.7,7.2c-0.5,0-0.6-3.2-0.6-7.2c0-4,0.1-7.1,0.6-7.1C17.3,17.6,17.5,20.8,17.5,24.7z
			"/>
		<path class="st74" d="M17.4,24.7c0,3.8-0.1,6.9-0.6,6.9c-0.5,0-0.6-3.1-0.6-6.9c0-3.8,0.1-6.9,0.6-6.9
			C17.2,17.9,17.4,20.9,17.4,24.7z"/>
		<path class="st75" d="M17.4,24.7c0,3.6-0.1,6.6-0.6,6.6c-0.5,0-0.5-3-0.6-6.6c0-3.6,0.1-6.6,0.5-6.6
			C17.2,18.1,17.4,21.1,17.4,24.7z"/>
		<path class="st76" d="M17.3,24.7c0,3.5-0.1,6.3-0.5,6.3c-0.4,0-0.5-2.8-0.5-6.3c0-3.5,0-6.3,0.5-6.3
			C17.2,18.4,17.3,21.3,17.3,24.7z"/>
		<path class="st77" d="M17.3,24.7c0,3.3-0.1,6-0.5,6c-0.4,0-0.5-2.7-0.5-6c0-3.3,0-6,0.4-6C17.2,18.7,17.3,21.4,17.3,24.7z"/>
		<path class="st78" d="M17.2,24.7c0,3.2,0,5.7-0.4,5.7c-0.4,0-0.4-2.6-0.4-5.8c0-3.2,0-5.7,0.4-5.7C17.2,19,17.2,21.6,17.2,24.7z"
			/>
		<path class="st79" d="M17.2,24.7c0,3,0,5.5-0.4,5.5c-0.4,0-0.4-2.5-0.4-5.5c0-3,0-5.4,0.3-5.4C17.2,19.3,17.2,21.7,17.2,24.7z"/>
		<path class="st80" d="M17.2,24.7c0,2.9,0,5.2-0.4,5.2c-0.4,0-0.3-2.3-0.3-5.2c0-2.9-0.1-5.1,0.3-5.1
			C17.1,19.6,17.2,21.9,17.2,24.7z"/>
		<path class="st43" d="M17.1,24.7c0,2.7,0,4.9-0.3,4.9c-0.3,0-0.3-2.2-0.3-4.9c0-2.7-0.1-4.9,0.2-4.9C17.1,19.8,17.1,22,17.1,24.7z
			"/>
	</g>
</g>
</svg>
