<?xml version="1.0" encoding="utf-8"?>
<!-- Generator: Adobe Illustrator 24.1.1, SVG Export Plug-In . SVG Version: 6.00 Build 0)  -->
<svg version="1.1" id="Layer_1" xmlns="http://www.w3.org/2000/svg" xmlns:xlink="http://www.w3.org/1999/xlink" x="0px" y="0px"
	 viewBox="0 0 20 56" style="enable-background:new 0 0 20 56;" xml:space="preserve">
<style type="text/css">
	.st0{fill:url(#SVGID_1_);}
	.st1{opacity:0.54;}
	.st2{opacity:0;fill:#D8926F;}
	.st3{opacity:6.944444e-03;fill:#D89370;}
	.st4{opacity:1.388889e-02;fill:#D99471;}
	.st5{opacity:2.083333e-02;fill:#D99572;}
	.st6{opacity:2.777778e-02;fill:#D99673;}
	.st7{opacity:3.472222e-02;fill:#DA9674;}
	.st8{opacity:4.166667e-02;fill:#DA9775;}
	.st9{opacity:4.861111e-02;fill:#DA9876;}
	.st10{opacity:5.555556e-02;fill:#DA9977;}
	.st11{opacity:6.250000e-02;fill:#DB9978;}
	.st12{opacity:6.944445e-02;fill:#DB9A79;}
	.st13{opacity:7.638889e-02;fill:#DB9B7A;}
	.st14{opacity:8.333334e-02;fill:#DB9C7B;}
	.st15{opacity:9.027778e-02;fill:#DC9C7C;}
	.st16{opacity:9.722222e-02;fill:#DC9D7D;}
	.st17{opacity:0.1042;fill:#DC9E7E;}
	.st18{opacity:0.1111;fill:#DC9F7E;}
	.st19{opacity:0.1181;fill:#DD9F7F;}
	.st20{opacity:0.125;fill:#DDA080;}
	.st21{opacity:0.1319;fill:#DDA181;}
	.st22{opacity:0.1389;fill:#DEA282;}
	.st23{opacity:0.1458;fill:#DEA383;}
	.st24{opacity:0.1528;fill:#DEA384;}
	.st25{opacity:0.1597;fill:#DEA485;}
	.st26{opacity:0.1667;fill:#DFA586;}
	.st27{opacity:0.1736;fill:#DFA687;}
	.st28{opacity:0.1806;fill:#DFA788;}
	.st29{opacity:0.1875;fill:#DFA789;}
	.st30{opacity:0.1944;fill:#E0A88A;}
	.st31{opacity:0.2014;fill:#E0A98B;}
	.st32{opacity:0.2083;fill:#E0AA8C;}
	.st33{opacity:0.2153;fill:#E1AA8D;}
	.st34{opacity:0.2222;fill:#E1AB8E;}
	.st35{opacity:0.2292;fill:#E1AC8F;}
	.st36{opacity:0.2361;fill:#E1AD90;}
	.st37{opacity:0.2431;fill:#E2AD91;}
	.st38{opacity:0.25;fill:#E2AE92;}
	.st39{opacity:0.2569;fill:#E2AF93;}
	.st40{opacity:0.2639;fill:#E2B094;}
	.st41{opacity:0.2708;fill:#E3B195;}
	.st42{opacity:0.2778;fill:#E3B196;}
	.st43{opacity:0.2847;fill:#E3B297;}
	.st44{opacity:0.2917;fill:#E4B398;}
	.st45{opacity:0.2986;fill:#E4B499;}
	.st46{opacity:0.3056;fill:#E4B49A;}
	.st47{opacity:0.3125;fill:#E4B59B;}
	.st48{opacity:0.3194;fill:#E5B69C;}
	.st49{opacity:0.3264;fill:#E5B79D;}
	.st50{opacity:0.3333;fill:#E5B79E;}
	.st51{opacity:0.3403;fill:#E5B89F;}
	.st52{opacity:0.3472;fill:#E6B9A0;}
	.st53{opacity:0.3542;fill:#E6BAA1;}
	.st54{opacity:0.3611;fill:#E6BAA2;}
	.st55{opacity:0.3681;fill:#E7BBA3;}
	.st56{opacity:0.375;fill:#E7BCA4;}
	.st57{opacity:0.3819;fill:#E7BDA5;}
	.st58{opacity:0.3889;fill:#E7BDA6;}
	.st59{opacity:0.3958;fill:#E8BEA7;}
	.st60{opacity:0.4028;fill:#E8BFA8;}
	.st61{opacity:0.4097;fill:#E8C0A9;}
	.st62{opacity:0.4167;fill:#E9C0AA;}
	.st63{opacity:0.4236;fill:#E9C1AB;}
	.st64{opacity:0.4306;fill:#E9C2AC;}
	.st65{opacity:0.4375;fill:#E9C3AD;}
	.st66{opacity:0.4444;fill:#EAC3AE;}
	.st67{opacity:0.4514;fill:#EAC4AF;}
	.st68{opacity:0.4583;fill:#EAC5B0;}
	.st69{opacity:0.4653;fill:#EAC6B1;}
	.st70{opacity:0.4722;fill:#EBC7B2;}
	.st71{opacity:0.4792;fill:#EBC7B3;}
	.st72{opacity:0.4861;fill:#EBC8B4;}
	.st73{opacity:0.4931;fill:#EBC9B5;}
	.st74{opacity:0.5;fill:#ECCAB6;}
	.st75{opacity:0.5069;fill:#ECCAB7;}
	.st76{opacity:0.5139;fill:#ECCBB8;}
	.st77{opacity:0.5208;fill:#EDCCB9;}
	.st78{opacity:0.5278;fill:#EDCDBA;}
	.st79{opacity:0.5347;fill:#EDCDBB;}
	.st80{opacity:0.5417;fill:#EDCEBC;}
	.st81{opacity:0.5486;fill:#EECFBD;}
	.st82{opacity:0.5556;fill:#EED0BE;}
	.st83{opacity:0.5625;fill:#EED0BF;}
	.st84{opacity:0.5694;fill:#EED1C0;}
	.st85{opacity:0.5764;fill:#EFD2C1;}
	.st86{opacity:0.5833;fill:#EFD3C2;}
	.st87{opacity:0.5903;fill:#EFD3C3;}
	.st88{opacity:0.5972;fill:#F0D4C4;}
	.st89{opacity:0.6042;fill:#F0D5C5;}
	.st90{opacity:0.6111;fill:#F0D6C6;}
	.st91{opacity:0.6181;fill:#F0D6C7;}
	.st92{opacity:0.625;fill:#F1D7C8;}
	.st93{opacity:0.6319;fill:#F1D8C9;}
	.st94{opacity:0.6389;fill:#F1D9CA;}
	.st95{opacity:0.6458;fill:#F2D9CB;}
	.st96{opacity:0.6528;fill:#F2DACC;}
	.st97{opacity:0.6597;fill:#F2DBCD;}
	.st98{opacity:0.6667;fill:#F2DCCE;}
	.st99{opacity:0.6736;fill:#F3DCCF;}
	.st100{opacity:0.6806;fill:#F3DDD0;}
	.st101{opacity:0.6875;fill:#F3DED1;}
	.st102{opacity:0.6944;fill:#F3DED2;}
	.st103{opacity:0.7014;fill:#F4DFD3;}
	.st104{opacity:0.7083;fill:#F4E0D4;}
	.st105{opacity:0.7153;fill:#F4E1D5;}
	.st106{opacity:0.7222;fill:#F4E1D6;}
	.st107{opacity:0.7292;fill:#F5E2D7;}
	.st108{opacity:0.7361;fill:#F5E3D8;}
	.st109{opacity:0.7431;fill:#F5E4D9;}
	.st110{opacity:0.75;fill:#F5E4DA;}
	.st111{opacity:0.7569;fill:#F6E5DB;}
	.st112{opacity:0.7639;fill:#F6E6DC;}
	.st113{opacity:0.7708;fill:#F6E7DD;}
	.st114{opacity:0.7778;fill:#F6E7DE;}
	.st115{opacity:0.7847;fill:#F7E8DF;}
	.st116{opacity:0.7917;fill:#F7E9E0;}
	.st117{opacity:0.7986;fill:#F7E9E1;}
	.st118{opacity:0.8056;fill:#F8EAE2;}
	.st119{opacity:0.8125;fill:#F8EBE3;}
	.st120{opacity:0.8194;fill:#F8ECE4;}
	.st121{opacity:0.8264;fill:#F9ECE6;}
	.st122{opacity:0.8333;fill:#F9EDE7;}
	.st123{opacity:0.8403;fill:#F9EEE8;}
	.st124{opacity:0.8472;fill:#F9EFE9;}
	.st125{opacity:0.8542;fill:#FAF0EA;}
	.st126{opacity:0.8611;fill:#FAF0EB;}
	.st127{opacity:0.8681;fill:#FAF1EC;}
	.st128{opacity:0.875;fill:#FBF2ED;}
	.st129{opacity:0.8819;fill:#FBF3EE;}
	.st130{opacity:0.8889;fill:#FBF3EF;}
	.st131{opacity:0.8958;fill:#FBF4F0;}
	.st132{opacity:0.9028;fill:#FCF5F1;}
	.st133{opacity:0.9097;fill:#FCF6F2;}
	.st134{opacity:0.9167;fill:#FCF6F3;}
	.st135{opacity:0.9236;fill:#FCF7F4;}
	.st136{opacity:0.9306;fill:#FDF8F5;}
	.st137{opacity:0.9375;fill:#FDF9F6;}
	.st138{opacity:0.9444;fill:#FDF9F7;}
	.st139{opacity:0.9514;fill:#FDFAF8;}
	.st140{opacity:0.9583;fill:#FEFBF9;}
	.st141{opacity:0.9653;fill:#FEFCFA;}
	.st142{opacity:0.9722;fill:#FEFCFB;}
	.st143{opacity:0.9792;fill:#FEFDFC;}
	.st144{opacity:0.9861;fill:#FFFEFD;}
	.st145{opacity:0.9931;fill:#FFFEFE;}
	.st146{fill:#FFFFFF;}
</style>
<g>
	
		<linearGradient id="SVGID_1_" gradientUnits="userSpaceOnUse" x1="-0.5682" y1="28.0476" x2="17.6151" y2="28.0476" gradientTransform="matrix(1 -5.100000e-03 5.100000e-03 1 1.3335 -4.100000e-03)">
		<stop  offset="4.500000e-07" style="stop-color:#A22716"/>
		<stop  offset="0.2337" style="stop-color:#681A1A"/>
		<stop  offset="0.5317" style="stop-color:#BB2218"/>
		<stop  offset="1" style="stop-color:#A92C17"/>
	</linearGradient>
	<path class="st0" d="M10.1,55.2L10.1,55.2c-5,0-9.1-7.6-9.1-17.1L0.9,18c0-9.5,4-17.2,9-17.2h0c5,0,9.1,7.6,9.1,17.1L19.1,38
		C19.1,47.4,15.1,55.2,10.1,55.2z"/>
	<g class="st1">
		
			<ellipse transform="matrix(1 -2.584266e-03 2.584266e-03 1 -6.321060e-02 9.118298e-03)" class="st2" cx="3.5" cy="24.5" rx="1.9" ry="15.8"/>
		<path class="st3" d="M5.4,24.4c0,8.7-0.8,15.8-1.9,15.8c-1.1,0-1.9-7-2-15.7S2.4,8.7,3.5,8.7C4.5,8.7,5.4,15.7,5.4,24.4z"/>
		<path class="st4" d="M5.4,24.4c0,8.7-0.8,15.7-1.9,15.7c-1.1,0-1.9-7-2-15.7c0-8.7,0.8-15.7,1.9-15.7C4.5,8.8,5.4,15.8,5.4,24.4z"
			/>
		<path class="st5" d="M5.4,24.4c0,8.6-0.8,15.6-1.9,15.6c-1.1,0-1.9-7-1.9-15.6c0-8.6,0.8-15.6,1.9-15.6C4.5,8.9,5.4,15.8,5.4,24.4
			z"/>
		<path class="st6" d="M5.4,24.4C5.4,33,4.6,40,3.5,40c-1.1,0-1.9-6.9-1.9-15.5c0-8.6,0.8-15.5,1.9-15.5C4.5,8.9,5.4,15.9,5.4,24.4z
			"/>
		<path class="st7" d="M5.4,24.4c0,8.5-0.8,15.5-1.8,15.5c-1,0-1.9-6.9-1.9-15.4C1.6,15.9,2.4,9,3.5,9C4.5,9,5.4,15.9,5.4,24.4z"/>
		<path class="st8" d="M5.4,24.4c0,8.5-0.8,15.4-1.8,15.4c-1,0-1.9-6.9-1.9-15.4C1.6,16,2.4,9.1,3.5,9.1C4.5,9.1,5.3,16,5.4,24.4z"
			/>
		<path class="st9" d="M5.4,24.4c0,8.4-0.8,15.3-1.8,15.3c-1,0-1.9-6.8-1.9-15.3C1.6,16,2.4,9.2,3.5,9.2C4.5,9.2,5.3,16,5.4,24.4z"
			/>
		<path class="st10" d="M5.3,24.4c0,8.4-0.8,15.2-1.8,15.2c-1,0-1.9-6.8-1.9-15.2c0-8.4,0.8-15.2,1.8-15.2C4.5,9.2,5.3,16,5.3,24.4z
			"/>
		<path class="st11" d="M5.3,24.4c0,8.4-0.8,15.2-1.8,15.2c-1,0-1.9-6.8-1.9-15.1c0-8.4,0.8-15.2,1.8-15.2
			C4.5,9.3,5.3,16.1,5.3,24.4z"/>
		<path class="st12" d="M5.3,24.4c0,8.3-0.8,15.1-1.8,15.1c-1,0-1.8-6.7-1.9-15.1c0-8.3,0.8-15.1,1.8-15.1
			C4.5,9.4,5.3,16.1,5.3,24.4z"/>
		<path class="st13" d="M5.3,24.4c0,8.3-0.8,15-1.8,15c-1,0-1.8-6.7-1.9-15c0-8.3,0.8-15,1.8-15C4.5,9.5,5.3,16.2,5.3,24.4z"/>
		<path class="st14" d="M5.3,24.4c0,8.2-0.8,14.9-1.8,14.9c-1,0-1.8-6.7-1.8-14.9c0-8.2,0.7-14.9,1.8-14.9
			C4.5,9.5,5.3,16.2,5.3,24.4z"/>
		<path class="st15" d="M5.3,24.4c0,8.2-0.7,14.9-1.8,14.9c-1,0-1.8-6.6-1.8-14.8c0-8.2,0.7-14.9,1.7-14.9
			C4.5,9.6,5.3,16.2,5.3,24.4z"/>
		<path class="st16" d="M5.3,24.4c0,8.2-0.7,14.8-1.7,14.8c-1,0-1.8-6.6-1.8-14.8c0-8.2,0.7-14.8,1.7-14.8
			C4.5,9.7,5.3,16.3,5.3,24.4z"/>
		<path class="st17" d="M5.3,24.4c0,8.1-0.7,14.7-1.7,14.7c-1,0-1.8-6.6-1.8-14.7c0-8.1,0.7-14.7,1.7-14.7
			C4.5,9.8,5.2,16.3,5.3,24.4z"/>
		<path class="st18" d="M5.3,24.4c0,8.1-0.7,14.6-1.7,14.6c-1,0-1.8-6.5-1.8-14.6c0-8.1,0.7-14.6,1.7-14.6
			C4.5,9.8,5.2,16.4,5.3,24.4z"/>
		<path class="st19" d="M5.2,24.4c0,8-0.7,14.6-1.7,14.6c-1,0-1.8-6.5-1.8-14.5c0-8,0.7-14.6,1.7-14.6C4.4,9.9,5.2,16.4,5.2,24.4z"
			/>
		<path class="st20" d="M5.2,24.4c0,8-0.7,14.5-1.7,14.5c-1,0-1.7-6.5-1.8-14.5c0-8,0.7-14.5,1.7-14.5C4.4,10,5.2,16.5,5.2,24.4z"/>
		<path class="st21" d="M5.2,24.4c0,8-0.7,14.4-1.7,14.4c-1,0-1.7-6.4-1.8-14.4c0-8,0.7-14.4,1.7-14.4C4.4,10.1,5.2,16.5,5.2,24.4z"
			/>
		<path class="st22" d="M5.2,24.4c0,7.9-0.7,14.3-1.7,14.3c-1,0-1.7-6.4-1.7-14.3c0-7.9,0.7-14.3,1.7-14.3
			C4.4,10.1,5.2,16.5,5.2,24.4z"/>
		<path class="st23" d="M5.2,24.4c0,7.9-0.7,14.3-1.7,14.3c-1,0-1.7-6.4-1.7-14.2c0-7.9,0.7-14.3,1.7-14.3
			C4.4,10.2,5.2,16.6,5.2,24.4z"/>
		<path class="st24" d="M5.2,24.4c0,7.8-0.7,14.2-1.7,14.2c-1,0-1.7-6.3-1.7-14.2c0-7.8,0.7-14.2,1.6-14.2
			C4.4,10.3,5.2,16.6,5.2,24.4z"/>
		<path class="st25" d="M5.2,24.4c0,7.8-0.7,14.1-1.6,14.1c-1,0-1.7-6.3-1.7-14.1c0-7.8,0.7-14.1,1.6-14.1
			C4.4,10.4,5.2,16.7,5.2,24.4z"/>
		<path class="st26" d="M5.2,24.4c0,7.7-0.7,14-1.6,14c-0.9,0-1.7-6.3-1.7-14c0-7.7,0.7-14,1.6-14C4.4,10.4,5.2,16.7,5.2,24.4z"/>
		<path class="st27" d="M5.2,24.4c0,7.7-0.7,14-1.6,14c-0.9,0-1.7-6.2-1.7-13.9c0-7.7,0.7-14,1.6-14C4.4,10.5,5.1,16.7,5.2,24.4z"/>
		<path class="st28" d="M5.2,24.4c0,7.7-0.7,13.9-1.6,13.9c-0.9,0-1.7-6.2-1.7-13.9c0-7.7,0.7-13.9,1.6-13.9
			C4.4,10.6,5.1,16.8,5.2,24.4z"/>
		<path class="st29" d="M5.1,24.4c0,7.6-0.7,13.8-1.6,13.8c-0.9,0-1.6-6.2-1.7-13.8c0-7.6,0.7-13.8,1.6-13.8
			C4.4,10.7,5.1,16.8,5.1,24.4z"/>
		<path class="st30" d="M5.1,24.4c0,7.6-0.7,13.7-1.6,13.7c-0.9,0-1.6-6.1-1.7-13.7c0-7.6,0.6-13.7,1.6-13.7
			C4.4,10.7,5.1,16.9,5.1,24.4z"/>
		<path class="st31" d="M5.1,24.4c0,7.5-0.7,13.7-1.6,13.7c-0.9,0-1.6-6.1-1.6-13.6c0-7.5,0.6-13.6,1.6-13.7
			C4.4,10.8,5.1,16.9,5.1,24.4z"/>
		<path class="st32" d="M5.1,24.4C5.1,31.9,4.5,38,3.5,38C2.6,38,1.9,32,1.9,24.5c0-7.5,0.6-13.6,1.6-13.6
			C4.4,10.9,5.1,16.9,5.1,24.4z"/>
		<path class="st33" d="M5.1,24.4C5.1,31.9,4.5,38,3.5,38c-0.9,0-1.6-6-1.6-13.5C1.9,17,2.6,11,3.5,11C4.4,11,5.1,17,5.1,24.4z"/>
		<path class="st34" d="M5.1,24.4c0,7.4-0.6,13.4-1.5,13.4c-0.9,0-1.6-6-1.6-13.4C1.9,17.1,2.6,11,3.5,11C4.4,11,5.1,17,5.1,24.4z"
			/>
		<path class="st35" d="M5.1,24.4c0,7.4-0.6,13.4-1.5,13.4c-0.9,0-1.6-6-1.6-13.3c0-7.4,0.6-13.3,1.5-13.4
			C4.4,11.1,5.1,17.1,5.1,24.4z"/>
		<path class="st36" d="M5.1,24.4c0,7.3-0.6,13.3-1.5,13.3C2.6,37.7,2,31.8,2,24.5c0-7.3,0.6-13.3,1.5-13.3
			C4.4,11.2,5,17.1,5.1,24.4z"/>
		<path class="st37" d="M5.1,24.4c0,7.3-0.6,13.2-1.5,13.2C2.6,37.7,2,31.8,2,24.5c0-7.3,0.6-13.2,1.5-13.2
			C4.4,11.3,5,17.2,5.1,24.4z"/>
		<path class="st38" d="M5,24.4c0,7.2-0.6,13.1-1.5,13.1C2.7,37.6,2,31.7,2,24.5c0-7.2,0.6-13.1,1.5-13.1C4.4,11.3,5,17.2,5,24.4z"
			/>
		<path class="st39" d="M5,24.4c0,7.2-0.6,13.1-1.5,13.1c-0.9,0-1.5-5.8-1.5-13c0-7.2,0.6-13,1.5-13.1C4.4,11.4,5,17.2,5,24.4z"/>
		<path class="st40" d="M5,24.4c0,7.2-0.6,13-1.5,13c-0.9,0-1.5-5.8-1.5-13c0-7.2,0.6-13,1.5-13C4.3,11.5,5,17.3,5,24.4z"/>
		<path class="st41" d="M5,24.4c0,7.1-0.6,12.9-1.5,12.9C2.7,37.4,2,31.6,2,24.5c0-7.1,0.6-12.9,1.5-12.9C4.3,11.6,5,17.3,5,24.4z"
			/>
		<path class="st42" d="M5,24.4c0,7.1-0.6,12.8-1.5,12.8c-0.9,0-1.5-5.7-1.5-12.8c0-7.1,0.6-12.8,1.4-12.8C4.3,11.6,5,17.4,5,24.4z"
			/>
		<path class="st43" d="M5,24.4c0,7-0.6,12.8-1.4,12.8c-0.9,0-1.5-5.7-1.5-12.7c0-7,0.6-12.7,1.4-12.8C4.3,11.7,5,17.4,5,24.4z"/>
		<path class="st44" d="M5,24.4c0,7-0.6,12.7-1.4,12.7c-0.9,0-1.5-5.7-1.5-12.7c0-7,0.6-12.7,1.4-12.7C4.3,11.8,5,17.4,5,24.4z"/>
		<path class="st45" d="M5,24.4c0,7-0.6,12.6-1.4,12.6c-0.9,0-1.5-5.6-1.5-12.6c0-7,0.6-12.6,1.4-12.6C4.3,11.9,4.9,17.5,5,24.4z"/>
		<path class="st46" d="M5,24.4C5,31.4,4.4,37,3.5,37c-0.8,0-1.4-5.6-1.5-12.5c0-6.9,0.5-12.5,1.4-12.5C4.3,11.9,4.9,17.5,5,24.4z"
			/>
		<path class="st47" d="M4.9,24.4c0,6.9-0.6,12.5-1.4,12.5c-0.8,0-1.4-5.6-1.4-12.4C2.1,17.6,2.6,12,3.5,12
			C4.3,12,4.9,17.6,4.9,24.4z"/>
		<path class="st48" d="M4.9,24.4c0,6.8-0.6,12.4-1.4,12.4c-0.8,0-1.4-5.5-1.4-12.4c0-6.8,0.5-12.4,1.4-12.4
			C4.3,12.1,4.9,17.6,4.9,24.4z"/>
		<path class="st49" d="M4.9,24.4c0,6.8-0.5,12.3-1.4,12.3c-0.8,0-1.4-5.5-1.4-12.3c0-6.8,0.5-12.3,1.4-12.3
			C4.3,12.2,4.9,17.7,4.9,24.4z"/>
		<path class="st50" d="M4.9,24.4c0,6.8-0.5,12.2-1.4,12.2c-0.8,0-1.4-5.5-1.4-12.2c0-6.8,0.5-12.2,1.3-12.2
			C4.3,12.2,4.9,17.7,4.9,24.4z"/>
		<path class="st51" d="M4.9,24.4c0,6.7-0.5,12.2-1.4,12.2c-0.8,0-1.4-5.4-1.4-12.1c0-6.7,0.5-12.1,1.3-12.2
			C4.3,12.3,4.9,17.7,4.9,24.4z"/>
		<path class="st52" d="M4.9,24.4c0,6.7-0.5,12.1-1.3,12.1c-0.8,0-1.4-5.4-1.4-12.1c0-6.7,0.5-12.1,1.3-12.1
			C4.3,12.4,4.9,17.8,4.9,24.4z"/>
		<path class="st53" d="M4.9,24.4c0,6.6-0.5,12-1.3,12c-0.8,0-1.4-5.4-1.4-12c0-6.6,0.5-12,1.3-12C4.3,12.5,4.9,17.8,4.9,24.4z"/>
		<path class="st54" d="M4.9,24.4c0,6.6-0.5,11.9-1.3,11.9c-0.8,0-1.3-5.3-1.4-11.9c0-6.6,0.5-11.9,1.3-11.9
			C4.3,12.5,4.8,17.9,4.9,24.4z"/>
		<path class="st55" d="M4.9,24.4c0,6.5-0.5,11.9-1.3,11.9c-0.8,0-1.3-5.3-1.4-11.8c0-6.5,0.5-11.8,1.3-11.8
			C4.3,12.6,4.8,17.9,4.9,24.4z"/>
		<path class="st56" d="M4.8,24.4c0,6.5-0.5,11.8-1.3,11.8c-0.8,0-1.3-5.3-1.3-11.8c0-6.5,0.5-11.8,1.3-11.8
			C4.3,12.7,4.8,17.9,4.8,24.4z"/>
		<path class="st57" d="M4.8,24.4c0,6.5-0.5,11.7-1.3,11.7c-0.8,0-1.3-5.2-1.3-11.7c0-6.5,0.5-11.7,1.3-11.7
			C4.3,12.8,4.8,18,4.8,24.4z"/>
		<path class="st58" d="M4.8,24.4c0,6.4-0.5,11.6-1.3,11.6c-0.8,0-1.3-5.2-1.3-11.6c0-6.4,0.5-11.6,1.3-11.6
			C4.3,12.8,4.8,18,4.8,24.4z"/>
		<path class="st59" d="M4.8,24.4C4.8,30.8,4.3,36,3.5,36c-0.8,0-1.3-5.2-1.3-11.5c0-6.4,0.5-11.5,1.2-11.5
			C4.3,12.9,4.8,18.1,4.8,24.4z"/>
		<path class="st60" d="M4.8,24.4c0,6.3-0.5,11.5-1.3,11.5c-0.8,0-1.3-5.1-1.3-11.5C2.2,18.1,2.7,13,3.5,13
			C4.3,13,4.8,18.1,4.8,24.4z"/>
		<path class="st61" d="M4.8,24.4c0,6.3-0.5,11.4-1.2,11.4c-0.8,0-1.3-5.1-1.3-11.4c0-6.3,0.5-11.4,1.2-11.4
			C4.3,13.1,4.8,18.1,4.8,24.4z"/>
		<path class="st62" d="M4.8,24.4c0,6.3-0.5,11.3-1.2,11.3c-0.8,0-1.3-5.1-1.3-11.3c0-6.3,0.4-11.3,1.2-11.3
			C4.2,13.1,4.8,18.2,4.8,24.4z"/>
		<path class="st63" d="M4.8,24.4c0,6.2-0.5,11.3-1.2,11.3c-0.8,0-1.2-5-1.3-11.3c0-6.2,0.4-11.2,1.2-11.2
			C4.2,13.2,4.7,18.2,4.8,24.4z"/>
		<path class="st64" d="M4.8,24.4c0,6.2-0.5,11.2-1.2,11.2c-0.8,0-1.2-5-1.2-11.2c0-6.2,0.4-11.2,1.2-11.2
			C4.2,13.3,4.7,18.3,4.8,24.4z"/>
		<path class="st65" d="M4.7,24.4c0,6.1-0.5,11.1-1.2,11.1c-0.8,0-1.2-5-1.2-11.1c0-6.1,0.4-11.1,1.2-11.1
			C4.2,13.4,4.7,18.3,4.7,24.4z"/>
		<path class="st66" d="M4.7,24.4c0,6.1-0.4,11-1.2,11c-0.7,0-1.2-4.9-1.2-11c0-6.1,0.4-11,1.2-11C4.2,13.4,4.7,18.4,4.7,24.4z"/>
		<path class="st67" d="M4.7,24.4c0,6-0.4,11-1.2,11c-0.7,0-1.2-4.9-1.2-11c0-6,0.4-10.9,1.2-10.9C4.2,13.5,4.7,18.4,4.7,24.4z"/>
		<path class="st68" d="M4.7,24.4c0,6-0.4,10.9-1.2,10.9c-0.7,0-1.2-4.9-1.2-10.9c0-6,0.4-10.9,1.1-10.9C4.2,13.6,4.7,18.4,4.7,24.4
			z"/>
		<path class="st69" d="M4.7,24.4c0,6-0.4,10.8-1.2,10.8c-0.7,0-1.2-4.8-1.2-10.8c0-6,0.4-10.8,1.1-10.8C4.2,13.7,4.7,18.5,4.7,24.4
			z"/>
		<path class="st70" d="M4.7,24.4c0,5.9-0.4,10.7-1.1,10.7c-0.7,0-1.2-4.8-1.2-10.7c0-5.9,0.4-10.7,1.1-10.7
			C4.2,13.7,4.7,18.5,4.7,24.4z"/>
		<path class="st71" d="M4.7,24.4c0,5.9-0.4,10.7-1.1,10.7c-0.7,0-1.1-4.8-1.2-10.7c0-5.9,0.4-10.6,1.1-10.6
			C4.2,13.8,4.7,18.6,4.7,24.4z"/>
		<path class="st72" d="M4.7,24.4C4.7,30.3,4.3,35,3.5,35c-0.7,0-1.1-4.7-1.2-10.6c0-5.8,0.4-10.6,1.1-10.6
			C4.2,13.9,4.7,18.6,4.7,24.4z"/>
		<path class="st73" d="M4.7,24.4c0,5.8-0.4,10.5-1.1,10.5c-0.7,0-1.1-4.7-1.1-10.5C2.4,18.7,2.8,14,3.5,14
			C4.2,14,4.6,18.6,4.7,24.4z"/>
		<path class="st74" d="M4.6,24.4c0,5.8-0.4,10.4-1.1,10.4c-0.7,0-1.1-4.7-1.1-10.4C2.4,18.7,2.8,14,3.5,14
			C4.2,14,4.6,18.7,4.6,24.4z"/>
		<path class="st75" d="M4.6,24.4c0,5.7-0.4,10.4-1.1,10.4c-0.7,0-1.1-4.6-1.1-10.4c0-5.7,0.4-10.3,1.1-10.3
			C4.2,14.1,4.6,18.7,4.6,24.4z"/>
		<path class="st76" d="M4.6,24.4c0,5.7-0.4,10.3-1.1,10.3c-0.7,0-1.1-4.6-1.1-10.3c0-5.7,0.4-10.3,1-10.3
			C4.2,14.2,4.6,18.8,4.6,24.4z"/>
		<path class="st77" d="M4.6,24.4c0,5.6-0.4,10.2-1.1,10.2c-0.7,0-1.1-4.6-1.1-10.2c0-5.6,0.3-10.2,1-10.2
			C4.2,14.3,4.6,18.8,4.6,24.4z"/>
		<path class="st78" d="M4.6,24.4c0,5.6-0.4,10.1-1.1,10.1c-0.7,0-1.1-4.5-1.1-10.1c0-5.6,0.3-10.1,1-10.1
			C4.2,14.3,4.6,18.9,4.6,24.4z"/>
		<path class="st79" d="M4.6,24.4c0,5.5-0.4,10.1-1,10.1c-0.7,0-1.1-4.5-1.1-10.1c0-5.5,0.3-10,1-10C4.2,14.4,4.6,18.9,4.6,24.4z"/>
		<path class="st80" d="M4.6,24.4c0,5.5-0.4,10-1,10c-0.7,0-1-4.5-1.1-10c0-5.5,0.3-10,1-10C4.2,14.5,4.6,18.9,4.6,24.4z"/>
		<path class="st81" d="M4.6,24.4c0,5.5-0.4,9.9-1,9.9c-0.7,0-1-4.4-1-9.9c0-5.5,0.3-9.9,1-9.9C4.2,14.6,4.6,19,4.6,24.4z"/>
		<path class="st82" d="M4.6,24.4c0,5.4-0.4,9.8-1,9.8c-0.7,0-1-4.4-1-9.8c0-5.4,0.3-9.8,1-9.8C4.2,14.6,4.5,19,4.6,24.4z"/>
		<path class="st83" d="M4.5,24.4c0,5.4-0.3,9.8-1,9.8c-0.7,0-1-4.4-1-9.8c0-5.4,0.3-9.7,1-9.7C4.1,14.7,4.5,19.1,4.5,24.4z"/>
		<path class="st84" d="M4.5,24.4c0,5.3-0.3,9.7-1,9.7c-0.7,0-1-4.3-1-9.7c0-5.3,0.3-9.7,1-9.7C4.1,14.8,4.5,19.1,4.5,24.4z"/>
		<path class="st85" d="M4.5,24.4c0,5.3-0.3,9.6-1,9.6c-0.6,0-1-4.3-1-9.6c0-5.3,0.3-9.6,0.9-9.6C4.1,14.8,4.5,19.1,4.5,24.4z"/>
		<path class="st86" d="M4.5,24.4c0,5.3-0.3,9.5-1,9.5c-0.6,0-1-4.3-1-9.5c0-5.3,0.3-9.5,0.9-9.5C4.1,14.9,4.5,19.2,4.5,24.4z"/>
		<path class="st87" d="M4.5,24.4c0,5.2-0.3,9.5-1,9.5c-0.6,0-1-4.2-1-9.5c0-5.2,0.3-9.4,0.9-9.4C4.1,15,4.5,19.2,4.5,24.4z"/>
		<path class="st88" d="M4.5,24.4c0,5.2-0.3,9.4-0.9,9.4c-0.6,0-0.9-4.2-1-9.4c0-5.2,0.3-9.4,0.9-9.4C4.1,15.1,4.5,19.3,4.5,24.4z"
			/>
		<path class="st89" d="M4.5,24.4c0,5.1-0.3,9.3-0.9,9.3c-0.6,0-0.9-4.2-1-9.3c0-5.1,0.3-9.3,0.9-9.3C4.1,15.1,4.5,19.3,4.5,24.4z"
			/>
		<path class="st90" d="M4.5,24.4c0,5.1-0.3,9.2-0.9,9.2c-0.6,0-0.9-4.1-0.9-9.2c0-5.1,0.3-9.2,0.9-9.2C4.1,15.2,4.5,19.4,4.5,24.4z
			"/>
		<path class="st91" d="M4.5,24.4c0,5.1-0.3,9.2-0.9,9.2c-0.6,0-0.9-4.1-0.9-9.2c0-5.1,0.3-9.1,0.9-9.1C4.1,15.3,4.4,19.4,4.5,24.4z
			"/>
		<path class="st92" d="M4.4,24.4c0,5-0.3,9.1-0.9,9.1c-0.6,0-0.9-4.1-0.9-9.1c0-5,0.3-9.1,0.9-9.1C4.1,15.4,4.4,19.4,4.4,24.4z"/>
		<path class="st93" d="M4.4,24.4c0,5-0.3,9-0.9,9c-0.6,0-0.9-4-0.9-9c0-5,0.2-9,0.9-9C4.1,15.4,4.4,19.5,4.4,24.4z"/>
		<path class="st94" d="M4.4,24.4c0,4.9-0.3,8.9-0.9,8.9c-0.6,0-0.9-4-0.9-8.9c0-4.9,0.2-8.9,0.8-8.9C4.1,15.5,4.4,19.5,4.4,24.4z"
			/>
		<path class="st95" d="M4.4,24.4c0,4.9-0.3,8.9-0.9,8.9c-0.6,0-0.9-4-0.9-8.9c0-4.9,0.2-8.8,0.8-8.8C4.1,15.6,4.4,19.6,4.4,24.4z"
			/>
		<path class="st96" d="M4.4,24.4c0,4.8-0.3,8.8-0.9,8.8c-0.6,0-0.9-3.9-0.9-8.8c0-4.8,0.2-8.8,0.8-8.8C4.1,15.7,4.4,19.6,4.4,24.4z
			"/>
		<path class="st97" d="M4.4,24.4c0,4.8-0.3,8.7-0.9,8.7c-0.6,0-0.8-3.9-0.9-8.7c0-4.8,0.2-8.7,0.8-8.7C4.1,15.7,4.4,19.6,4.4,24.4z
			"/>
		<path class="st98" d="M4.4,24.4c0,4.8-0.3,8.6-0.8,8.6c-0.6,0-0.8-3.9-0.8-8.6c0-4.8,0.2-8.6,0.8-8.6C4.1,15.8,4.4,19.7,4.4,24.4z
			"/>
		<path class="st99" d="M4.4,24.4c0,4.7-0.3,8.6-0.8,8.6c-0.6,0-0.8-3.8-0.8-8.6c0-4.7,0.2-8.5,0.8-8.5C4.1,15.9,4.4,19.7,4.4,24.4z
			"/>
		<path class="st100" d="M4.4,24.4c0,4.7-0.2,8.5-0.8,8.5c-0.6,0-0.8-3.8-0.8-8.5c0-4.7,0.2-8.5,0.8-8.5C4.1,16,4.3,19.8,4.4,24.4z"
			/>
		<path class="st101" d="M4.3,24.4c0,4.6-0.2,8.4-0.8,8.4c-0.6,0-0.8-3.8-0.8-8.4c0-4.6,0.2-8.4,0.8-8.4C4.1,16,4.3,19.8,4.3,24.4z"
			/>
		<path class="st102" d="M4.3,24.4c0,4.6-0.2,8.3-0.8,8.3c-0.6,0-0.8-3.7-0.8-8.3c0-4.6,0.2-8.3,0.8-8.3C4.1,16.1,4.3,19.8,4.3,24.4
			z"/>
		<path class="st103" d="M4.3,24.4c0,4.6-0.2,8.3-0.8,8.3c-0.6,0-0.8-3.7-0.8-8.3c0-4.6,0.2-8.2,0.7-8.2C4.1,16.2,4.3,19.9,4.3,24.4
			z"/>
		<path class="st104" d="M4.3,24.4c0,4.5-0.2,8.2-0.8,8.2c-0.6,0-0.8-3.7-0.8-8.2c0-4.5,0.2-8.2,0.7-8.2C4.1,16.3,4.3,19.9,4.3,24.4
			z"/>
		<path class="st105" d="M4.3,24.4c0,4.5-0.2,8.1-0.8,8.1c-0.5,0-0.7-3.6-0.8-8.1c0-4.5,0.2-8.1,0.7-8.1C4,16.3,4.3,20,4.3,24.4z"/>
		<path class="st106" d="M4.3,24.4c0,4.4-0.2,8-0.8,8c-0.5,0-0.7-3.6-0.7-8c0-4.4,0.2-8,0.7-8C4,16.4,4.3,20,4.3,24.4z"/>
		<path class="st107" d="M4.3,24.4c0,4.4-0.2,8-0.7,8c-0.5,0-0.7-3.6-0.7-8c0-4.4,0.2-7.9,0.7-7.9C4,16.5,4.3,20.1,4.3,24.4z"/>
		<path class="st108" d="M4.3,24.4c0,4.3-0.2,7.9-0.7,7.9c-0.5,0-0.7-3.5-0.7-7.9c0-4.3,0.2-7.9,0.7-7.9C4,16.6,4.3,20.1,4.3,24.4z"
			/>
		<path class="st109" d="M4.3,24.4c0,4.3-0.2,7.8-0.7,7.8c-0.5,0-0.7-3.5-0.7-7.8c0-4.3,0.1-7.8,0.7-7.8C4,16.6,4.2,20.1,4.3,24.4z"
			/>
		<path class="st110" d="M4.3,24.4c0,4.3-0.2,7.7-0.7,7.7c-0.5,0-0.7-3.5-0.7-7.7c0-4.3,0.1-7.7,0.7-7.7C4,16.7,4.2,20.2,4.3,24.4z"
			/>
		<path class="st111" d="M4.2,24.4c0,4.2-0.2,7.7-0.7,7.7c-0.5,0-0.7-3.4-0.7-7.7c0-4.2,0.1-7.6,0.6-7.6C4,16.8,4.2,20.2,4.2,24.4z"
			/>
		<path class="st112" d="M4.2,24.4c0,4.2-0.2,7.6-0.7,7.6c-0.5,0-0.7-3.4-0.7-7.6c0-4.2,0.1-7.6,0.6-7.6C4,16.9,4.2,20.3,4.2,24.4z"
			/>
		<path class="st113" d="M4.2,24.4c0,4.1-0.2,7.5-0.7,7.5c-0.5,0-0.7-3.4-0.7-7.5C2.9,20.3,3,17,3.5,17C4,16.9,4.2,20.3,4.2,24.4z"
			/>
		<path class="st114" d="M4.2,24.4c0,4.1-0.2,7.4-0.7,7.4c-0.5,0-0.6-3.3-0.7-7.4C2.9,20.3,3,17,3.5,17C4,17,4.2,20.3,4.2,24.4z"/>
		<path class="st115" d="M4.2,24.4c0,4.1-0.2,7.3-0.7,7.4c-0.5,0-0.6-3.3-0.6-7.4c0-4.1,0.1-7.3,0.6-7.3C4,17.1,4.2,20.4,4.2,24.4z"
			/>
		<path class="st116" d="M4.2,24.4c0,4-0.1,7.3-0.6,7.3c-0.5,0-0.6-3.3-0.6-7.3c0-4,0.1-7.2,0.6-7.3C4,17.2,4.2,20.4,4.2,24.4z"/>
		<path class="st117" d="M4.2,24.4c0,4-0.1,7.2-0.6,7.2c-0.5,0-0.6-3.2-0.6-7.2c0-4,0.1-7.2,0.6-7.2C4,17.2,4.2,20.5,4.2,24.4z"/>
		<path class="st118" d="M4.2,24.4c0,3.9-0.1,7.1-0.6,7.1c-0.5,0-0.6-3.2-0.6-7.1c0-3.9,0.1-7.1,0.6-7.1C4,17.3,4.2,20.5,4.2,24.4z"
			/>
		<path class="st119" d="M4.2,24.4c0,3.9-0.1,7-0.6,7.1c-0.5,0-0.6-3.2-0.6-7.1c0-3.9,0.1-7,0.6-7C4,17.4,4.1,20.6,4.2,24.4z"/>
		<path class="st120" d="M4.1,24.4c0,3.9-0.1,7-0.6,7c-0.5,0-0.6-3.1-0.6-7c0-3.9,0.1-6.9,0.5-7C4,17.5,4.1,20.6,4.1,24.4z"/>
		<path class="st121" d="M4.1,24.4c0,3.8-0.1,6.9-0.6,6.9c-0.5,0-0.6-3.1-0.6-6.9c0-3.8,0.1-6.9,0.5-6.9C4,17.5,4.1,20.6,4.1,24.4z"
			/>
		<path class="st122" d="M4.1,24.4c0,3.8-0.1,6.8-0.6,6.8c-0.5,0-0.5-3.1-0.6-6.8c0-3.8,0.1-6.8,0.5-6.8C4,17.6,4.1,20.7,4.1,24.4z"
			/>
		<path class="st123" d="M4.1,24.4c0,3.7-0.1,6.7-0.6,6.8c-0.5,0-0.5-3-0.5-6.8c0-3.7,0.1-6.7,0.5-6.7C4,17.7,4.1,20.7,4.1,24.4z"/>
		<path class="st124" d="M4.1,24.4c0,3.7-0.1,6.7-0.6,6.7c-0.5,0-0.5-3-0.5-6.7c0-3.7,0-6.6,0.5-6.7C4,17.8,4.1,20.8,4.1,24.4z"/>
		<path class="st125" d="M4.1,24.4C4.1,28.1,4,31,3.5,31c-0.4,0-0.5-3-0.5-6.6c0-3.6,0-6.6,0.5-6.6C4,17.8,4.1,20.8,4.1,24.4z"/>
		<path class="st126" d="M4.1,24.4C4.1,28,4,31,3.5,31C3.1,31,3,28,3,24.4c0-3.6,0-6.5,0.5-6.5C3.9,17.9,4.1,20.8,4.1,24.4z"/>
		<path class="st127" d="M4.1,24.4c0,3.6-0.1,6.4-0.5,6.5c-0.4,0-0.5-2.9-0.5-6.5c0-3.6,0-6.4,0.5-6.4C3.9,18,4.1,20.9,4.1,24.4z"/>
		<path class="st128" d="M4.1,24.4c0,3.5-0.1,6.4-0.5,6.4c-0.4,0-0.5-2.9-0.5-6.4c0-3.5,0-6.3,0.5-6.3C3.9,18.1,4,20.9,4.1,24.4z"/>
		<path class="st129" d="M4,24.4c0,3.5-0.1,6.3-0.5,6.3c-0.4,0-0.5-2.8-0.5-6.3c0-3.5,0-6.3,0.4-6.3C3.9,18.1,4,21,4,24.4z"/>
		<path class="st130" d="M4,24.4c0,3.4-0.1,6.2-0.5,6.2c-0.4,0-0.5-2.8-0.5-6.2c0-3.4,0-6.2,0.4-6.2C3.9,18.2,4,21,4,24.4z"/>
		<path class="st131" d="M4,24.4c0,3.4-0.1,6.1-0.5,6.2c-0.4,0-0.4-2.8-0.5-6.2c0-3.4,0-6.1,0.4-6.1C3.9,18.3,4,21,4,24.4z"/>
		<path class="st132" d="M4,24.4c0,3.4-0.1,6.1-0.5,6.1c-0.4,0-0.4-2.7-0.4-6.1c0-3.4,0-6,0.4-6C3.9,18.4,4,21.1,4,24.4z"/>
		<path class="st133" d="M4,24.4c0,3.3,0,6-0.5,6c-0.4,0-0.4-2.7-0.4-6c0-3.3,0-6,0.4-6C3.9,18.4,4,21.1,4,24.4z"/>
		<path class="st134" d="M4,24.4c0,3.3,0,5.9-0.4,5.9c-0.4,0-0.4-2.7-0.4-5.9c0-3.3,0-5.9,0.4-5.9C3.9,18.5,4,21.2,4,24.4z"/>
		<path class="st135" d="M4,24.4c0,3.2,0,5.8-0.4,5.9c-0.4,0-0.4-2.6-0.4-5.9c0-3.2,0-5.8,0.4-5.8C3.9,18.6,4,21.2,4,24.4z"/>
		<path class="st136" d="M4,24.4c0,3.2,0,5.8-0.4,5.8c-0.4,0-0.4-2.6-0.4-5.8c0-3.2,0-5.7,0.4-5.7C3.9,18.7,4,21.3,4,24.4z"/>
		<path class="st137" d="M4,24.4c0,3.1,0,5.7-0.4,5.7c-0.4,0-0.4-2.6-0.4-5.7c0-3.1,0-5.7,0.4-5.7C3.9,18.7,3.9,21.3,4,24.4z"/>
		<path class="st138" d="M3.9,24.4c0,3.1,0,5.6-0.4,5.6c-0.4,0-0.4-2.5-0.4-5.6c0-3.1,0-5.6,0.3-5.6C3.9,18.8,3.9,21.3,3.9,24.4z"/>
		<path class="st139" d="M3.9,24.4c0,3.1,0,5.5-0.4,5.6c-0.4,0-0.4-2.5-0.4-5.6c0-3.1,0-5.5,0.3-5.5C3.9,18.9,3.9,21.4,3.9,24.4z"/>
		<path class="st140" d="M3.9,24.4c0,3,0,5.5-0.4,5.5c-0.4,0-0.3-2.5-0.3-5.5c0-3-0.1-5.4,0.3-5.4C3.9,19,3.9,21.4,3.9,24.4z"/>
		<path class="st141" d="M3.9,24.4c0,3,0,5.4-0.4,5.4c-0.4,0-0.3-2.4-0.3-5.4c0-3-0.1-5.4,0.3-5.4C3.9,19,3.9,21.5,3.9,24.4z"/>
		<path class="st142" d="M3.9,24.4c0,2.9,0,5.3-0.4,5.3c-0.4,0-0.3-2.4-0.3-5.4c0-2.9-0.1-5.3,0.3-5.3C3.9,19.1,3.9,21.5,3.9,24.4z"
			/>
		<path class="st143" d="M3.9,24.4c0,2.9,0,5.2-0.3,5.3c-0.4,0-0.3-2.4-0.3-5.3c0-2.9-0.1-5.2,0.3-5.2C3.9,19.2,3.9,21.5,3.9,24.4z"
			/>
		<path class="st144" d="M3.9,24.4c0,2.9,0,5.2-0.3,5.2c-0.4,0-0.3-2.3-0.3-5.2c0-2.9-0.1-5.1,0.3-5.1C3.9,19.3,3.9,21.6,3.9,24.4z"
			/>
		<path class="st145" d="M3.9,24.4c0,2.8,0,5.1-0.3,5.1c-0.3,0-0.3-2.3-0.3-5.1c0-2.8-0.1-5.1,0.3-5.1C3.9,19.3,3.9,21.6,3.9,24.4z"
			/>
		<path class="st146" d="M3.9,24.4c0,2.8,0,5-0.3,5c-0.3,0-0.3-2.3-0.3-5.1c0-2.8-0.1-5,0.2-5C3.9,19.4,3.8,21.7,3.9,24.4z"/>
	</g>
	<g class="st1">
		
			<ellipse transform="matrix(1 -2.578975e-03 2.578975e-03 1 -6.378915e-02 4.331003e-02)" class="st2" cx="16.8" cy="24.8" rx="1.9" ry="15.4"/>
		<path class="st3" d="M18.7,24.7c0,8.5-0.8,15.3-1.9,15.4c-1.1,0-1.9-6.8-2-15.3c0-8.5,0.8-15.3,1.9-15.4
			C17.8,9.4,18.7,16.3,18.7,24.7z"/>
		<path class="st4" d="M18.7,24.7c0,8.4-0.8,15.3-1.9,15.3c-1.1,0-1.9-6.8-2-15.2c0-8.4,0.8-15.3,1.9-15.3
			C17.8,9.5,18.7,16.3,18.7,24.7z"/>
		<path class="st5" d="M18.7,24.7c0,8.4-0.8,15.2-1.9,15.2c-1.1,0-1.9-6.8-1.9-15.2c0-8.4,0.8-15.2,1.9-15.2
			C17.8,9.6,18.6,16.3,18.7,24.7z"/>
		<path class="st6" d="M18.7,24.7c0,8.3-0.8,15.1-1.9,15.1c-1.1,0-1.9-6.7-1.9-15.1c0-8.3,0.8-15.1,1.9-15.1
			C17.8,9.6,18.6,16.4,18.7,24.7z"/>
		<path class="st7" d="M18.6,24.7c0,8.3-0.8,15-1.8,15.1c-1,0-1.9-6.7-1.9-15c0-8.3,0.8-15,1.8-15.1C17.8,9.7,18.6,16.4,18.6,24.7z"
			/>
		<path class="st8" d="M18.6,24.7c0,8.3-0.8,15-1.8,15c-1,0-1.9-6.7-1.9-15c0-8.3,0.8-15,1.8-15C17.8,9.8,18.6,16.5,18.6,24.7z"/>
		<path class="st9" d="M18.6,24.7c0,8.2-0.8,14.9-1.8,14.9c-1,0-1.9-6.7-1.9-14.9c0-8.2,0.8-14.9,1.8-14.9
			C17.8,9.9,18.6,16.5,18.6,24.7z"/>
		<path class="st10" d="M18.6,24.7c0,8.2-0.8,14.8-1.8,14.8c-1,0-1.9-6.6-1.9-14.8c0-8.2,0.8-14.8,1.8-14.8
			C17.8,9.9,18.6,16.6,18.6,24.7z"/>
		<path class="st11" d="M18.6,24.7c0,8.1-0.8,14.8-1.8,14.8c-1,0-1.9-6.6-1.9-14.7c0-8.1,0.8-14.8,1.8-14.8
			C17.7,10,18.6,16.6,18.6,24.7z"/>
		<path class="st12" d="M18.6,24.7c0,8.1-0.8,14.7-1.8,14.7c-1,0-1.8-6.6-1.9-14.7c0-8.1,0.8-14.7,1.8-14.7
			C17.7,10.1,18.6,16.6,18.6,24.7z"/>
		<path class="st13" d="M18.6,24.7c0,8.1-0.8,14.6-1.8,14.6c-1,0-1.8-6.5-1.9-14.6c0-8.1,0.8-14.6,1.8-14.6
			C17.7,10.1,18.6,16.7,18.6,24.7z"/>
		<path class="st14" d="M18.6,24.7c0,8-0.8,14.5-1.8,14.5c-1,0-1.8-6.5-1.8-14.5c0-8,0.8-14.5,1.8-14.5
			C17.7,10.2,18.5,16.7,18.6,24.7z"/>
		<path class="st15" d="M18.6,24.7c0,8-0.7,14.5-1.8,14.5c-1,0-1.8-6.5-1.8-14.4c0-8,0.7-14.5,1.7-14.5
			C17.7,10.3,18.5,16.8,18.6,24.7z"/>
		<path class="st16" d="M18.5,24.7c0,7.9-0.7,14.4-1.7,14.4c-1,0-1.8-6.4-1.8-14.4c0-7.9,0.7-14.4,1.7-14.4
			C17.7,10.4,18.5,16.8,18.5,24.7z"/>
		<path class="st17" d="M18.5,24.7c0,7.9-0.7,14.3-1.7,14.3c-1,0-1.8-6.4-1.8-14.3c0-7.9,0.7-14.3,1.7-14.3
			C17.7,10.4,18.5,16.8,18.5,24.7z"/>
		<path class="st18" d="M18.5,24.7c0,7.9-0.7,14.2-1.7,14.3c-1,0-1.8-6.4-1.8-14.2c0-7.9,0.7-14.2,1.7-14.3
			C17.7,10.5,18.5,16.9,18.5,24.7z"/>
		<path class="st19" d="M18.5,24.7c0,7.8-0.7,14.2-1.7,14.2c-1,0-1.8-6.3-1.8-14.2c0-7.8,0.7-14.2,1.7-14.2
			C17.7,10.6,18.5,16.9,18.5,24.7z"/>
		<path class="st20" d="M18.5,24.7c0,7.8-0.7,14.1-1.7,14.1c-1,0-1.7-6.3-1.8-14.1c0-7.8,0.7-14.1,1.7-14.1
			C17.7,10.7,18.5,17,18.5,24.7z"/>
		<path class="st21" d="M18.5,24.7c0,7.7-0.7,14-1.7,14c-1,0-1.7-6.3-1.8-14c0-7.7,0.7-14,1.7-14C17.7,10.7,18.5,17,18.5,24.7z"/>
		<path class="st22" d="M18.5,24.7c0,7.7-0.7,14-1.7,14c-1,0-1.7-6.2-1.7-13.9c0-7.7,0.7-13.9,1.7-14C17.7,10.8,18.5,17,18.5,24.7z"
			/>
		<path class="st23" d="M18.5,24.7c0,7.7-0.7,13.9-1.7,13.9c-1,0-1.7-6.2-1.7-13.9c0-7.7,0.7-13.9,1.7-13.9
			C17.7,10.9,18.4,17.1,18.5,24.7z"/>
		<path class="st24" d="M18.5,24.7c0,7.6-0.7,13.8-1.7,13.8c-1,0-1.7-6.2-1.7-13.8c0-7.6,0.7-13.8,1.6-13.8
			C17.7,10.9,18.4,17.1,18.5,24.7z"/>
		<path class="st25" d="M18.4,24.7c0,7.6-0.7,13.7-1.6,13.7c-1,0-1.7-6.1-1.7-13.7c0-7.6,0.7-13.7,1.6-13.7
			C17.7,11,18.4,17.2,18.4,24.7z"/>
		<path class="st26" d="M18.4,24.7c0,7.5-0.7,13.7-1.6,13.7c-0.9,0-1.7-6.1-1.7-13.6c0-7.5,0.7-13.7,1.6-13.7
			C17.7,11.1,18.4,17.2,18.4,24.7z"/>
		<path class="st27" d="M18.4,24.7c0,7.5-0.7,13.6-1.6,13.6c-0.9,0-1.7-6.1-1.7-13.6c0-7.5,0.7-13.6,1.6-13.6
			C17.7,11.2,18.4,17.2,18.4,24.7z"/>
		<path class="st28" d="M18.4,24.7c0,7.5-0.7,13.5-1.6,13.5c-0.9,0-1.7-6-1.7-13.5c0-7.5,0.7-13.5,1.6-13.5
			C17.7,11.2,18.4,17.3,18.4,24.7z"/>
		<path class="st29" d="M18.4,24.7c0,7.4-0.7,13.4-1.6,13.4c-0.9,0-1.6-6-1.7-13.4c0-7.4,0.7-13.4,1.6-13.4
			C17.7,11.3,18.4,17.3,18.4,24.7z"/>
		<path class="st30" d="M18.4,24.7c0,7.4-0.7,13.4-1.6,13.4c-0.9,0-1.6-6-1.6-13.4c0-7.4,0.6-13.4,1.6-13.4
			C17.7,11.4,18.4,17.4,18.4,24.7z"/>
		<path class="st31" d="M18.4,24.7c0,7.3-0.7,13.3-1.6,13.3c-0.9,0-1.6-5.9-1.6-13.3c0-7.3,0.6-13.3,1.6-13.3
			C17.7,11.5,18.4,17.4,18.4,24.7z"/>
		<path class="st32" d="M18.4,24.7c0,7.3-0.6,13.2-1.6,13.2c-0.9,0-1.6-5.9-1.6-13.2c0-7.3,0.6-13.2,1.6-13.2
			C17.7,11.5,18.4,17.4,18.4,24.7z"/>
		<path class="st33" d="M18.4,24.7c0,7.3-0.6,13.1-1.6,13.2c-0.9,0-1.6-5.9-1.6-13.1c0-7.3,0.6-13.1,1.5-13.2
			C17.6,11.6,18.3,17.5,18.4,24.7z"/>
		<path class="st34" d="M18.3,24.7c0,7.2-0.6,13.1-1.5,13.1c-0.9,0-1.6-5.8-1.6-13.1c0-7.2,0.6-13.1,1.5-13.1
			C17.6,11.7,18.3,17.5,18.3,24.7z"/>
		<path class="st35" d="M18.3,24.7c0,7.2-0.6,13-1.5,13c-0.9,0-1.6-5.8-1.6-13c0-7.2,0.6-13,1.5-13C17.6,11.7,18.3,17.6,18.3,24.7z"
			/>
		<path class="st36" d="M18.3,24.7c0,7.1-0.6,12.9-1.5,12.9c-0.9,0-1.6-5.8-1.6-12.9c0-7.1,0.6-12.9,1.5-12.9
			C17.6,11.8,18.3,17.6,18.3,24.7z"/>
		<path class="st37" d="M18.3,24.7c0,7.1-0.6,12.9-1.5,12.9c-0.9,0-1.5-5.7-1.6-12.8c0-7.1,0.6-12.8,1.5-12.9
			C17.6,11.9,18.3,17.6,18.3,24.7z"/>
		<path class="st38" d="M18.3,24.7c0,7.1-0.6,12.8-1.5,12.8c-0.9,0-1.5-5.7-1.6-12.8c0-7.1,0.6-12.8,1.5-12.8
			C17.6,12,18.3,17.7,18.3,24.7z"/>
		<path class="st39" d="M18.3,24.7c0,7-0.6,12.7-1.5,12.7c-0.9,0-1.5-5.7-1.5-12.7c0-7,0.6-12.7,1.5-12.7
			C17.6,12,18.3,17.7,18.3,24.7z"/>
		<path class="st40" d="M18.3,24.7c0,7-0.6,12.6-1.5,12.6c-0.9,0-1.5-5.6-1.5-12.6c0-7,0.6-12.6,1.5-12.6
			C17.6,12.1,18.3,17.8,18.3,24.7z"/>
		<path class="st41" d="M18.3,24.7c0,6.9-0.6,12.6-1.5,12.6c-0.9,0-1.5-5.6-1.5-12.6c0-6.9,0.6-12.6,1.5-12.6
			C17.6,12.2,18.3,17.8,18.3,24.7z"/>
		<path class="st42" d="M18.3,24.7c0,6.9-0.6,12.5-1.5,12.5c-0.9,0-1.5-5.6-1.5-12.5c0-6.9,0.6-12.5,1.4-12.5
			C17.6,12.3,18.2,17.8,18.3,24.7z"/>
		<path class="st43" d="M18.3,24.7c0,6.9-0.6,12.4-1.4,12.4c-0.9,0-1.5-5.6-1.5-12.4c0-6.9,0.6-12.4,1.4-12.4
			C17.6,12.3,18.2,17.9,18.3,24.7z"/>
		<path class="st44" d="M18.2,24.7c0,6.8-0.6,12.3-1.4,12.4c-0.9,0-1.5-5.5-1.5-12.3c0-6.8,0.6-12.3,1.4-12.3
			C17.6,12.4,18.2,17.9,18.2,24.7z"/>
		<path class="st45" d="M18.2,24.7c0,6.8-0.6,12.3-1.4,12.3c-0.9,0-1.5-5.5-1.5-12.3c0-6.8,0.6-12.3,1.4-12.3
			C17.6,12.5,18.2,18,18.2,24.7z"/>
		<path class="st46" d="M18.2,24.7c0,6.7-0.6,12.2-1.4,12.2c-0.8,0-1.4-5.5-1.5-12.2c0-6.7,0.5-12.2,1.4-12.2
			C17.6,12.6,18.2,18,18.2,24.7z"/>
		<path class="st47" d="M18.2,24.7c0,6.7-0.6,12.1-1.4,12.1c-0.8,0-1.4-5.4-1.4-12.1c0-6.7,0.5-12.1,1.4-12.1
			C17.6,12.6,18.2,18,18.2,24.7z"/>
		<path class="st48" d="M18.2,24.7c0,6.7-0.6,12.1-1.4,12.1c-0.8,0-1.4-5.4-1.4-12c0-6.7,0.5-12,1.4-12
			C17.6,12.7,18.2,18.1,18.2,24.7z"/>
		<path class="st49" d="M18.2,24.7c0,6.6-0.5,12-1.4,12c-0.8,0-1.4-5.4-1.4-12c0-6.6,0.5-12,1.4-12C17.6,12.8,18.2,18.1,18.2,24.7z"
			/>
		<path class="st50" d="M18.2,24.7c0,6.6-0.5,11.9-1.4,11.9c-0.8,0-1.4-5.3-1.4-11.9c0-6.6,0.5-11.9,1.3-11.9
			C17.6,12.8,18.2,18.2,18.2,24.7z"/>
		<path class="st51" d="M18.2,24.7c0,6.5-0.5,11.8-1.4,11.8c-0.8,0-1.4-5.3-1.4-11.8c0-6.5,0.5-11.8,1.3-11.8
			C17.6,12.9,18.1,18.2,18.2,24.7z"/>
		<path class="st52" d="M18.2,24.7c0,6.5-0.5,11.8-1.3,11.8c-0.8,0-1.4-5.3-1.4-11.8c0-6.5,0.5-11.7,1.3-11.8
			C17.6,13,18.1,18.2,18.2,24.7z"/>
		<path class="st53" d="M18.1,24.7c0,6.5-0.5,11.7-1.3,11.7c-0.8,0-1.4-5.2-1.4-11.7c0-6.5,0.5-11.7,1.3-11.7
			C17.6,13.1,18.1,18.3,18.1,24.7z"/>
		<path class="st54" d="M18.1,24.7c0,6.4-0.5,11.6-1.3,11.6c-0.8,0-1.3-5.2-1.4-11.6c0-6.4,0.5-11.6,1.3-11.6
			C17.5,13.1,18.1,18.3,18.1,24.7z"/>
		<path class="st55" d="M18.1,24.7c0,6.4-0.5,11.5-1.3,11.5c-0.8,0-1.3-5.2-1.4-11.5c0-6.4,0.5-11.5,1.3-11.5
			C17.5,13.2,18.1,18.4,18.1,24.7z"/>
		<path class="st56" d="M18.1,24.7c0,6.3-0.5,11.5-1.3,11.5c-0.8,0-1.3-5.1-1.3-11.5c0-6.3,0.5-11.5,1.3-11.5
			C17.5,13.3,18.1,18.4,18.1,24.7z"/>
		<path class="st57" d="M18.1,24.7c0,6.3-0.5,11.4-1.3,11.4c-0.8,0-1.3-5.1-1.3-11.4c0-6.3,0.5-11.4,1.3-11.4
			C17.5,13.4,18.1,18.4,18.1,24.7z"/>
		<path class="st58" d="M18.1,24.7c0,6.2-0.5,11.3-1.3,11.3c-0.8,0-1.3-5.1-1.3-11.3c0-6.2,0.5-11.3,1.3-11.3
			C17.5,13.4,18.1,18.5,18.1,24.7z"/>
		<path class="st59" d="M18.1,24.7c0,6.2-0.5,11.2-1.3,11.3c-0.8,0-1.3-5-1.3-11.2c0-6.2,0.5-11.2,1.2-11.2
			C17.5,13.5,18.1,18.5,18.1,24.7z"/>
		<path class="st60" d="M18.1,24.7c0,6.2-0.5,11.2-1.3,11.2c-0.8,0-1.3-5-1.3-11.2c0-6.2,0.5-11.2,1.2-11.2
			C17.5,13.6,18,18.6,18.1,24.7z"/>
		<path class="st61" d="M18.1,24.7c0,6.1-0.5,11.1-1.2,11.1c-0.8,0-1.3-5-1.3-11.1c0-6.1,0.5-11.1,1.2-11.1
			C17.5,13.6,18,18.6,18.1,24.7z"/>
		<path class="st62" d="M18,24.7c0,6.1-0.5,11-1.2,11c-0.8,0-1.3-4.9-1.3-11c0-6.1,0.4-11,1.2-11C17.5,13.7,18,18.6,18,24.7z"/>
		<path class="st63" d="M18,24.7c0,6-0.5,11-1.2,11c-0.8,0-1.2-4.9-1.3-11c0-6,0.4-10.9,1.2-10.9C17.5,13.8,18,18.7,18,24.7z"/>
		<path class="st64" d="M18,24.7c0,6-0.5,10.9-1.2,10.9c-0.8,0-1.2-4.9-1.2-10.9c0-6,0.4-10.9,1.2-10.9C17.5,13.9,18,18.7,18,24.7z"
			/>
		<path class="st65" d="M18,24.7c0,6-0.5,10.8-1.2,10.8c-0.8,0-1.2-4.8-1.2-10.8c0-6,0.4-10.8,1.2-10.8C17.5,13.9,18,18.8,18,24.7z"
			/>
		<path class="st66" d="M18,24.7c0,5.9-0.4,10.7-1.2,10.7c-0.7,0-1.2-4.8-1.2-10.7c0-5.9,0.4-10.7,1.2-10.7C17.5,14,18,18.8,18,24.7
			z"/>
		<path class="st67" d="M18,24.7c0,5.9-0.4,10.7-1.2,10.7c-0.7,0-1.2-4.8-1.2-10.7c0-5.9,0.4-10.6,1.2-10.7
			C17.5,14.1,18,18.9,18,24.7z"/>
		<path class="st68" d="M18,24.7c0,5.8-0.4,10.6-1.2,10.6c-0.7,0-1.2-4.7-1.2-10.6c0-5.8,0.4-10.6,1.1-10.6
			C17.5,14.2,18,18.9,18,24.7z"/>
		<path class="st69" d="M18,24.7c0,5.8-0.4,10.5-1.2,10.5c-0.7,0-1.2-4.7-1.2-10.5c0-5.8,0.4-10.5,1.1-10.5
			C17.5,14.2,17.9,18.9,18,24.7z"/>
		<path class="st70" d="M18,24.7c0,5.8-0.4,10.4-1.1,10.5c-0.7,0-1.2-4.7-1.2-10.4c0-5.8,0.4-10.4,1.1-10.4
			C17.5,14.3,17.9,19,18,24.7z"/>
		<path class="st71" d="M17.9,24.7c0,5.7-0.4,10.4-1.1,10.4c-0.7,0-1.1-4.6-1.2-10.4c0-5.7,0.4-10.4,1.1-10.4
			C17.5,14.4,17.9,19,17.9,24.7z"/>
		<path class="st72" d="M17.9,24.7c0,5.7-0.4,10.3-1.1,10.3c-0.7,0-1.1-4.6-1.2-10.3c0-5.7,0.4-10.3,1.1-10.3
			C17.5,14.4,17.9,19.1,17.9,24.7z"/>
		<path class="st73" d="M17.9,24.7c0,5.6-0.4,10.2-1.1,10.2c-0.7,0-1.1-4.6-1.1-10.2c0-5.6,0.4-10.2,1.1-10.2
			C17.5,14.5,17.9,19.1,17.9,24.7z"/>
		<path class="st74" d="M17.9,24.7c0,5.6-0.4,10.2-1.1,10.2c-0.7,0-1.1-4.5-1.1-10.2c0-5.6,0.4-10.1,1.1-10.1
			C17.5,14.6,17.9,19.1,17.9,24.7z"/>
		<path class="st75" d="M17.9,24.7c0,5.6-0.4,10.1-1.1,10.1c-0.7,0-1.1-4.5-1.1-10.1c0-5.6,0.4-10.1,1.1-10.1
			C17.5,14.7,17.9,19.2,17.9,24.7z"/>
		<path class="st76" d="M17.9,24.7c0,5.5-0.4,10-1.1,10c-0.7,0-1.1-4.5-1.1-10c0-5.5,0.4-10,1.1-10C17.4,14.7,17.9,19.2,17.9,24.7z"
			/>
		<path class="st77" d="M17.9,24.7c0,5.5-0.4,9.9-1.1,9.9c-0.7,0-1.1-4.5-1.1-9.9c0-5.5,0.3-9.9,1-9.9
			C17.4,14.8,17.9,19.3,17.9,24.7z"/>
		<path class="st78" d="M17.9,24.7c0,5.4-0.4,9.9-1.1,9.9c-0.7,0-1.1-4.4-1.1-9.9c0-5.4,0.3-9.8,1-9.8
			C17.4,14.9,17.9,19.3,17.9,24.7z"/>
		<path class="st79" d="M17.9,24.7c0,5.4-0.4,9.8-1,9.8c-0.7,0-1.1-4.4-1.1-9.8c0-5.4,0.3-9.8,1-9.8C17.4,15,17.8,19.3,17.9,24.7z"
			/>
		<path class="st80" d="M17.8,24.7c0,5.4-0.4,9.7-1,9.7c-0.7,0-1-4.4-1.1-9.7c0-5.4,0.3-9.7,1-9.7C17.4,15,17.8,19.4,17.8,24.7z"/>
		<path class="st81" d="M17.8,24.7c0,5.3-0.4,9.6-1,9.6c-0.7,0-1-4.3-1-9.6c0-5.3,0.3-9.6,1-9.6C17.4,15.1,17.8,19.4,17.8,24.7z"/>
		<path class="st82" d="M17.8,24.7c0,5.3-0.4,9.6-1,9.6c-0.7,0-1-4.3-1-9.6c0-5.3,0.3-9.5,1-9.6C17.4,15.2,17.8,19.5,17.8,24.7z"/>
		<path class="st83" d="M17.8,24.7c0,5.2-0.3,9.5-1,9.5c-0.7,0-1-4.3-1-9.5c0-5.2,0.3-9.5,1-9.5C17.4,15.3,17.8,19.5,17.8,24.7z"/>
		<path class="st84" d="M17.8,24.7c0,5.2-0.3,9.4-1,9.4c-0.7,0-1-4.2-1-9.4c0-5.2,0.3-9.4,1-9.4C17.4,15.3,17.8,19.5,17.8,24.7z"/>
		<path class="st85" d="M17.8,24.7c0,5.2-0.3,9.3-1,9.4c-0.6,0-1-4.2-1-9.4c0-5.2,0.3-9.3,0.9-9.3C17.4,15.4,17.8,19.6,17.8,24.7z"
			/>
		<path class="st86" d="M17.8,24.7c0,5.1-0.3,9.3-1,9.3c-0.6,0-1-4.2-1-9.3c0-5.1,0.3-9.3,0.9-9.3C17.4,15.5,17.8,19.6,17.8,24.7z"
			/>
		<path class="st87" d="M17.8,24.7c0,5.1-0.3,9.2-1,9.2c-0.6,0-1-4.1-1-9.2c0-5.1,0.3-9.2,0.9-9.2C17.4,15.5,17.8,19.7,17.8,24.7z"
			/>
		<path class="st88" d="M17.8,24.7c0,5-0.3,9.1-1,9.1c-0.6,0-0.9-4.1-1-9.1c0-5,0.3-9.1,0.9-9.1C17.4,15.6,17.7,19.7,17.8,24.7z"/>
		<path class="st89" d="M17.7,24.7c0,5-0.3,9.1-0.9,9.1c-0.6,0-0.9-4.1-1-9.1c0-5,0.3-9,0.9-9C17.4,15.7,17.7,19.7,17.7,24.7z"/>
		<path class="st90" d="M17.7,24.7c0,5-0.3,9-0.9,9c-0.6,0-0.9-4-0.9-9c0-5,0.3-9,0.9-9C17.4,15.8,17.7,19.8,17.7,24.7z"/>
		<path class="st91" d="M17.7,24.7c0,4.9-0.3,8.9-0.9,8.9c-0.6,0-0.9-4-0.9-8.9c0-4.9,0.3-8.9,0.9-8.9
			C17.4,15.8,17.7,19.8,17.7,24.7z"/>
		<path class="st92" d="M17.7,24.7c0,4.9-0.3,8.8-0.9,8.8c-0.6,0-0.9-4-0.9-8.8c0-4.9,0.3-8.8,0.9-8.8
			C17.4,15.9,17.7,19.9,17.7,24.7z"/>
		<path class="st93" d="M17.7,24.7c0,4.8-0.3,8.8-0.9,8.8c-0.6,0-0.9-3.9-0.9-8.8c0-4.8,0.2-8.7,0.9-8.7
			C17.4,16,17.7,19.9,17.7,24.7z"/>
		<path class="st94" d="M17.7,24.7c0,4.8-0.3,8.7-0.9,8.7c-0.6,0-0.9-3.9-0.9-8.7c0-4.8,0.2-8.7,0.8-8.7
			C17.4,16.1,17.7,19.9,17.7,24.7z"/>
		<path class="st95" d="M17.7,24.7c0,4.8-0.3,8.6-0.9,8.6c-0.6,0-0.9-3.9-0.9-8.6c0-4.8,0.2-8.6,0.8-8.6
			C17.4,16.1,17.7,20,17.7,24.7z"/>
		<path class="st96" d="M17.7,24.7c0,4.7-0.3,8.5-0.9,8.5c-0.6,0-0.9-3.8-0.9-8.6c0-4.7,0.2-8.5,0.8-8.5
			C17.4,16.2,17.7,20,17.7,24.7z"/>
		<path class="st97" d="M17.7,24.7c0,4.7-0.3,8.5-0.9,8.5c-0.6,0-0.8-3.8-0.9-8.5c0-4.7,0.2-8.4,0.8-8.5
			C17.3,16.3,17.6,20.1,17.7,24.7z"/>
		<path class="st98" d="M17.6,24.7c0,4.6-0.3,8.4-0.8,8.4c-0.6,0-0.8-3.8-0.8-8.4c0-4.6,0.2-8.4,0.8-8.4
			C17.3,16.3,17.6,20.1,17.6,24.7z"/>
		<path class="st99" d="M17.6,24.7c0,4.6-0.3,8.3-0.8,8.3c-0.6,0-0.8-3.7-0.8-8.3c0-4.6,0.2-8.3,0.8-8.3
			C17.3,16.4,17.6,20.1,17.6,24.7z"/>
		<path class="st100" d="M17.6,24.7c0,4.6-0.2,8.3-0.8,8.3c-0.6,0-0.8-3.7-0.8-8.3c0-4.6,0.2-8.2,0.8-8.2
			C17.3,16.5,17.6,20.2,17.6,24.7z"/>
		<path class="st101" d="M17.6,24.7c0,4.5-0.2,8.2-0.8,8.2c-0.6,0-0.8-3.7-0.8-8.2c0-4.5,0.2-8.2,0.8-8.2
			C17.3,16.6,17.6,20.2,17.6,24.7z"/>
		<path class="st102" d="M17.6,24.7c0,4.5-0.2,8.1-0.8,8.1c-0.6,0-0.8-3.6-0.8-8.1c0-4.5,0.2-8.1,0.8-8.1
			C17.3,16.6,17.6,20.3,17.6,24.7z"/>
		<path class="st103" d="M17.6,24.7c0,4.4-0.2,8-0.8,8c-0.6,0-0.8-3.6-0.8-8c0-4.4,0.2-8,0.7-8C17.3,16.7,17.6,20.3,17.6,24.7z"/>
		<path class="st104" d="M17.6,24.7c0,4.4-0.2,8-0.8,8c-0.6,0-0.8-3.6-0.8-8c0-4.4,0.2-7.9,0.7-7.9C17.3,16.8,17.6,20.3,17.6,24.7z"
			/>
		<path class="st105" d="M17.6,24.7c0,4.4-0.2,7.9-0.8,7.9c-0.5,0-0.7-3.5-0.8-7.9c0-4.4,0.2-7.9,0.7-7.9
			C17.3,16.9,17.6,20.4,17.6,24.7z"/>
		<path class="st106" d="M17.6,24.7c0,4.3-0.2,7.8-0.8,7.8c-0.5,0-0.7-3.5-0.7-7.8c0-4.3,0.2-7.8,0.7-7.8
			C17.3,16.9,17.5,20.4,17.6,24.7z"/>
		<path class="st107" d="M17.5,24.7c0,4.3-0.2,7.7-0.7,7.7c-0.5,0-0.7-3.5-0.7-7.8c0-4.3,0.2-7.7,0.7-7.7
			C17.3,17,17.5,20.5,17.5,24.7z"/>
		<path class="st108" d="M17.5,24.7c0,4.2-0.2,7.7-0.7,7.7c-0.5,0-0.7-3.4-0.7-7.7c0-4.2,0.2-7.6,0.7-7.6
			C17.3,17.1,17.5,20.5,17.5,24.7z"/>
		<path class="st109" d="M17.5,24.7c0,4.2-0.2,7.6-0.7,7.6c-0.5,0-0.7-3.4-0.7-7.6c0-4.2,0.1-7.6,0.7-7.6
			C17.3,17.1,17.5,20.5,17.5,24.7z"/>
		<path class="st110" d="M17.5,24.7c0,4.2-0.2,7.5-0.7,7.5c-0.5,0-0.7-3.4-0.7-7.5c0-4.2,0.1-7.5,0.7-7.5
			C17.3,17.2,17.5,20.6,17.5,24.7z"/>
		<path class="st111" d="M17.5,24.7c0,4.1-0.2,7.4-0.7,7.5c-0.5,0-0.7-3.4-0.7-7.5c0-4.1,0.1-7.4,0.6-7.4
			C17.3,17.3,17.5,20.6,17.5,24.7z"/>
		<path class="st112" d="M17.5,24.7c0,4.1-0.2,7.4-0.7,7.4c-0.5,0-0.7-3.3-0.7-7.4c0-4.1,0.1-7.4,0.6-7.4
			C17.3,17.4,17.5,20.7,17.5,24.7z"/>
		<path class="st113" d="M17.5,24.7c0,4-0.2,7.3-0.7,7.3c-0.5,0-0.7-3.3-0.7-7.3c0-4,0.1-7.3,0.6-7.3C17.3,17.4,17.5,20.7,17.5,24.7
			z"/>
		<path class="st114" d="M17.5,24.7c0,4-0.2,7.2-0.7,7.2c-0.5,0-0.6-3.3-0.7-7.2c0-4,0.1-7.2,0.6-7.2C17.3,17.5,17.5,20.7,17.5,24.7
			z"/>
		<path class="st115" d="M17.5,24.7c0,4-0.2,7.2-0.7,7.2c-0.5,0-0.6-3.2-0.6-7.2c0-4,0.1-7.1,0.6-7.1C17.3,17.6,17.4,20.8,17.5,24.7
			z"/>
		<path class="st116" d="M17.4,24.7c0,3.9-0.1,7.1-0.6,7.1c-0.5,0-0.6-3.2-0.6-7.1c0-3.9,0.1-7.1,0.6-7.1
			C17.3,17.7,17.4,20.8,17.4,24.7z"/>
		<path class="st117" d="M17.4,24.7c0,3.9-0.1,7-0.6,7c-0.5,0-0.6-3.2-0.6-7c0-3.9,0.1-7,0.6-7C17.3,17.7,17.4,20.9,17.4,24.7z"/>
		<path class="st118" d="M17.4,24.7c0,3.8-0.1,6.9-0.6,6.9c-0.5,0-0.6-3.1-0.6-7c0-3.8,0.1-6.9,0.6-6.9
			C17.3,17.8,17.4,20.9,17.4,24.7z"/>
		<path class="st119" d="M17.4,24.7c0,3.8-0.1,6.9-0.6,6.9c-0.5,0-0.6-3.1-0.6-6.9c0-3.8,0.1-6.8,0.6-6.8
			C17.2,17.9,17.4,20.9,17.4,24.7z"/>
		<path class="st120" d="M17.4,24.7c0,3.7-0.1,6.8-0.6,6.8c-0.5,0-0.6-3.1-0.6-6.8c0-3.7,0.1-6.8,0.5-6.8
			C17.2,17.9,17.4,21,17.4,24.7z"/>
		<path class="st121" d="M17.4,24.7c0,3.7-0.1,6.7-0.6,6.7c-0.5,0-0.6-3-0.6-6.7c0-3.7,0.1-6.7,0.5-6.7C17.2,18,17.4,21,17.4,24.7z"
			/>
		<path class="st122" d="M17.4,24.7c0,3.7-0.1,6.6-0.6,6.6c-0.5,0-0.5-3-0.6-6.7c0-3.7,0.1-6.6,0.5-6.6
			C17.2,18.1,17.4,21.1,17.4,24.7z"/>
		<path class="st123" d="M17.4,24.7c0,3.6-0.1,6.6-0.6,6.6c-0.5,0-0.5-3-0.5-6.6c0-3.6,0.1-6.5,0.5-6.5
			C17.2,18.2,17.4,21.1,17.4,24.7z"/>
		<path class="st124" d="M17.4,24.7c0,3.6-0.1,6.5-0.6,6.5c-0.5,0-0.5-2.9-0.5-6.5c0-3.6,0-6.5,0.5-6.5
			C17.2,18.2,17.4,21.1,17.4,24.7z"/>
		<path class="st125" d="M17.4,24.7c0,3.5-0.1,6.4-0.5,6.4c-0.4,0-0.5-2.9-0.5-6.4c0-3.5,0-6.4,0.5-6.4
			C17.2,18.3,17.3,21.2,17.4,24.7z"/>
		<path class="st126" d="M17.3,24.7c0,3.5-0.1,6.4-0.5,6.4c-0.4,0-0.5-2.9-0.5-6.4c0-3.5,0-6.3,0.5-6.3
			C17.2,18.4,17.3,21.2,17.3,24.7z"/>
		<path class="st127" d="M17.3,24.7c0,3.5-0.1,6.3-0.5,6.3c-0.4,0-0.5-2.8-0.5-6.3c0-3.5,0-6.3,0.5-6.3
			C17.2,18.5,17.3,21.3,17.3,24.7z"/>
		<path class="st128" d="M17.3,24.7c0,3.4-0.1,6.2-0.5,6.2c-0.4,0-0.5-2.8-0.5-6.2c0-3.4,0-6.2,0.5-6.2
			C17.2,18.5,17.3,21.3,17.3,24.7z"/>
		<path class="st129" d="M17.3,24.7c0,3.4-0.1,6.1-0.5,6.1c-0.4,0-0.5-2.8-0.5-6.2c0-3.4,0-6.1,0.4-6.1
			C17.2,18.6,17.3,21.4,17.3,24.7z"/>
		<path class="st130" d="M17.3,24.7c0,3.3-0.1,6.1-0.5,6.1c-0.4,0-0.5-2.7-0.5-6.1c0-3.3,0-6,0.4-6C17.2,18.7,17.3,21.4,17.3,24.7z"
			/>
		<path class="st131" d="M17.3,24.7c0,3.3-0.1,6-0.5,6c-0.4,0-0.4-2.7-0.5-6c0-3.3,0-6,0.4-6C17.2,18.8,17.3,21.4,17.3,24.7z"/>
		<path class="st132" d="M17.3,24.7c0,3.3-0.1,5.9-0.5,5.9c-0.4,0-0.4-2.7-0.4-5.9c0-3.3,0-5.9,0.4-5.9
			C17.2,18.8,17.3,21.5,17.3,24.7z"/>
		<path class="st133" d="M17.3,24.7c0,3.2,0,5.8-0.5,5.8c-0.4,0-0.4-2.6-0.4-5.9c0-3.2,0-5.8,0.4-5.8C17.2,18.9,17.3,21.5,17.3,24.7
			z"/>
		<path class="st134" d="M17.3,24.7c0,3.2,0,5.8-0.4,5.8c-0.4,0-0.4-2.6-0.4-5.8c0-3.2,0-5.7,0.4-5.7C17.2,19,17.2,21.6,17.3,24.7z"
			/>
		<path class="st135" d="M17.2,24.7c0,3.1,0,5.7-0.4,5.7c-0.4,0-0.4-2.6-0.4-5.7c0-3.1,0-5.7,0.4-5.7C17.2,19,17.2,21.6,17.2,24.7z"
			/>
		<path class="st136" d="M17.2,24.7c0,3.1,0,5.6-0.4,5.6c-0.4,0-0.4-2.5-0.4-5.6c0-3.1,0-5.6,0.4-5.6C17.2,19.1,17.2,21.6,17.2,24.7
			z"/>
		<path class="st137" d="M17.2,24.7c0,3.1,0,5.5-0.4,5.6c-0.4,0-0.4-2.5-0.4-5.6c0-3.1,0-5.5,0.4-5.5C17.2,19.2,17.2,21.7,17.2,24.7
			z"/>
		<path class="st138" d="M17.2,24.7c0,3,0,5.5-0.4,5.5c-0.4,0-0.4-2.5-0.4-5.5c0-3,0-5.4,0.3-5.4C17.2,19.3,17.2,21.7,17.2,24.7z"/>
		<path class="st139" d="M17.2,24.7c0,3,0,5.4-0.4,5.4c-0.4,0-0.4-2.4-0.4-5.4c0-3,0-5.4,0.3-5.4C17.2,19.3,17.2,21.8,17.2,24.7z"/>
		<path class="st140" d="M17.2,24.7c0,2.9,0,5.3-0.4,5.3c-0.4,0-0.3-2.4-0.3-5.4c0-2.9-0.1-5.3,0.3-5.3
			C17.1,19.4,17.2,21.8,17.2,24.7z"/>
		<path class="st141" d="M17.2,24.7c0,2.9,0,5.3-0.4,5.3c-0.4,0-0.3-2.4-0.3-5.3c0-2.9-0.1-5.2,0.3-5.2
			C17.1,19.5,17.2,21.8,17.2,24.7z"/>
		<path class="st142" d="M17.2,24.7c0,2.9,0,5.2-0.4,5.2c-0.4,0-0.3-2.3-0.3-5.2c0-2.9-0.1-5.2,0.3-5.2
			C17.1,19.6,17.2,21.9,17.2,24.7z"/>
		<path class="st143" d="M17.2,24.7c0,2.8,0,5.1-0.3,5.1c-0.4,0-0.3-2.3-0.3-5.1c0-2.8-0.1-5.1,0.3-5.1
			C17.1,19.6,17.1,21.9,17.2,24.7z"/>
		<path class="st144" d="M17.1,24.7c0,2.8,0,5-0.3,5c-0.4,0-0.3-2.3-0.3-5.1c0-2.8-0.1-5,0.3-5C17.1,19.7,17.1,22,17.1,24.7z"/>
		<path class="st145" d="M17.1,24.7c0,2.7,0,5-0.3,5c-0.3,0-0.3-2.3-0.3-5c0-2.7-0.1-4.9,0.3-4.9C17.1,19.8,17.1,22,17.1,24.7z"/>
		<path class="st146" d="M17.1,24.7c0,2.7,0,4.9-0.3,4.9c-0.3,0-0.3-2.2-0.3-4.9c0-2.7-0.1-4.9,0.2-4.9C17.1,19.8,17.1,22,17.1,24.7
			z"/>
	</g>
</g>
</svg>
