<?xml version="1.0" standalone="no"?>
<!DOCTYPE svg PUBLIC "-//W3C//DTD SVG 1.1//EN" "http://www.w3.org/Graphics/SVG/1.1/DTD/svg11.dtd" >
<svg xmlns="http://www.w3.org/2000/svg">
<metadata>Generated by IcoMoon</metadata>
<defs>
<font id="icomoon" horiz-adv-x="1024">
<font-face units-per-em="1024" ascent="960" descent="-64" />
<missing-glyph horiz-adv-x="1024" />
<glyph unicode="&#x20;" horiz-adv-x="512" d="" />
<glyph unicode="&#xe900;" glyph-name="code" horiz-adv-x="1434" d="M1407.317 943.002h-1381.035c-10.718 0-19.388-8.67-19.388-19.319v-954.231c0-10.718 8.67-19.319 19.388-19.319h1381.035c10.65 0 19.319 8.602 19.319 19.319v954.231c0 10.65-8.67 19.319-19.319 19.319zM45.602 904.363h1342.396v-915.593h-1342.396v915.593zM855.859 387.789l-82.125 50.244 82.125 50.244c1.434 0.887 2.458 2.185 2.867 3.823 0.341 1.638 0.068 3.413-0.819 4.71l-24.166 39.458c-1.707 2.935-5.666 3.891-8.602 2.048l-78.438-47.923v92.092c0 3.345-2.867 6.144-6.281 6.144h-46.148c-3.55 0-6.281-2.799-6.281-6.144v-91.955l-78.507 47.923c-2.867 1.843-6.827 0.887-8.533-2.048l-24.235-39.526c-0.819-1.365-1.161-3.072-0.683-4.71s1.434-2.935 2.799-3.823l82.193-50.244-82.193-50.313c-1.434-0.956-2.321-2.389-2.799-4.096-0.478-1.434-0.137-3.14 0.683-4.506l24.166-39.595c1.775-2.935 5.666-3.823 8.533-2.116l78.507 48.128v-91.955c0-3.618 2.731-6.349 6.281-6.349h46.148c3.482 0 6.281 2.731 6.281 6.349v91.955l78.438-48.128c2.935-1.638 6.895-0.819 8.602 2.116l24.166 39.595c0.887 1.434 1.161 3.14 0.819 4.506-0.341 1.911-1.297 3.14-2.799 4.096zM508.041 387.721l-82.125 50.313 82.125 50.244c1.434 0.956 2.458 2.253 2.867 3.891 0.341 1.57 0 3.345-0.751 4.642l-24.166 39.526c-1.775 2.935-5.666 3.891-8.602 2.116l-78.438-47.923v91.955c0 3.413-2.867 6.212-6.281 6.212h-46.217c-3.55 0-6.281-2.799-6.281-6.212v-91.955l-78.507 47.923c-2.867 1.775-6.827 0.887-8.533-2.116l-24.166-39.526c-0.956-1.297-1.229-3.072-0.819-4.642 0.478-1.638 1.434-2.935 2.867-3.891l82.193-50.244-82.193-50.313c-1.434-0.887-2.389-2.389-2.867-3.959-0.41-1.434-0.137-3.14 0.819-4.574l24.166-39.663c1.775-2.799 5.666-3.823 8.533-2.048l78.507 48.128v-91.955c0-3.618 2.731-6.349 6.281-6.349h46.217c3.413 0 6.281 2.731 6.281 6.349v91.955l78.438-48.128c2.867-1.707 6.827-0.751 8.602 2.048l24.166 39.663c0.819 1.434 1.092 3.14 0.751 4.506-0.341 1.911-1.434 3.14-2.867 4.028zM1187.772 387.857l-82.193 50.244 82.193 50.313c1.434 0.887 2.321 2.185 2.799 3.823 0.341 1.638 0.068 3.413-0.819 4.71l-24.098 39.458c-1.843 3.004-5.803 3.891-8.602 2.048l-78.438-47.855v91.955c0 3.345-2.799 6.212-6.212 6.212h-46.285c-3.618 0-6.281-2.867-6.281-6.212v-91.955l-78.507 47.923c-2.867 1.843-6.758 0.956-8.533-2.048l-24.166-39.526c-0.887-1.365-1.229-3.072-0.751-4.71 0.41-1.638 1.434-2.935 2.799-3.823l82.193-50.313-82.193-50.244c-1.434-0.956-2.389-2.389-2.799-4.028-0.478-1.434-0.137-3.209 0.751-4.574l24.166-39.595c1.775-2.935 5.666-3.823 8.533-2.116l78.507 48.128v-91.955c0-3.618 2.662-6.417 6.281-6.417h46.285c3.413 0 6.212 2.799 6.212 6.417v91.955l78.507-48.128c2.799-1.638 6.758-0.819 8.602 2.116l24.098 39.595c0.887 1.434 1.161 3.14 0.819 4.574-0.478 1.843-1.434 3.072-2.867 4.028z" />
<glyph unicode="&#xe901;" glyph-name="envelope" horiz-adv-x="1387" d="M1235.308 36.62h-1083.878c-8.335 0-15.203 6.801-15.203 15.203v792.421c0 8.335 6.801 15.203 15.203 15.203h1083.945c8.335 0 15.136-6.801 15.136-15.203v-792.488c0-8.402-6.868-15.136-15.203-15.136zM166.566 67.026h1053.606v762.016h-1053.606v-762.016zM693.335 328.343c-3.601 0-7.401 1.334-10.269 4.001l-542.039 500.764c-6.068 5.601-6.535 15.27-0.733 21.471 5.668 6.135 15.27 6.535 21.404 0.8l531.637-491.163 531.637 491.163c6.135 5.668 15.736 5.334 21.404-0.8 5.734-6.201 5.334-15.803-0.867-21.471l-541.839-500.764c-2.867-2.734-6.601-4.001-10.335-4.001z" />
<glyph unicode="&#xe902;" glyph-name="lock" horiz-adv-x="797" d="M782.298-64h-768.063c-7.847 0-14.235 6.388-14.235 14.235v617.207c0 7.847 6.388 14.235 14.235 14.235h768.063c7.897 0 14.286-6.388 14.286-14.235v-617.207c0-7.847-6.388-14.235-14.286-14.235zM28.521-35.479h739.592v588.635h-739.592v-588.635zM652.67 553.157c-7.897 0-14.235 6.388-14.235 14.235v128.824c0 129.729-109.105 235.263-243.211 235.263s-243.16-105.534-243.16-235.263v-128.824c0-7.847-6.388-14.235-14.235-14.235-7.897 0-14.286 6.388-14.286 14.235v128.824c-0.050 145.423 121.882 263.784 271.631 263.784 149.85 0 271.682-118.361 271.682-263.784v-128.824c0.050-7.847-6.288-14.235-14.185-14.235zM398.292 150.639c-7.897 0-14.286 6.388-14.286 14.235v187.828c0 7.847 6.388 14.235 14.286 14.235 7.847 0 14.235-6.388 14.235-14.235v-187.828c0-7.847-6.388-14.235-14.235-14.235z" />
<glyph unicode="&#xe903;" glyph-name="user" horiz-adv-x="784" d="M385.448 431.621c-145.721 0-264.216 118.547-264.216 264.216 0.053 145.616 118.547 264.163 264.216 264.163s264.216-118.547 264.216-264.163c0-145.669-118.494-264.216-264.216-264.216zM385.448 930.139c-129.185 0-234.355-105.117-234.355-234.302s105.17-234.302 234.355-234.302c129.185 0 234.302 105.117 234.302 234.302 0.053 129.185-105.117 234.302-234.302 234.302zM768.79-64h-753.833c-8.268 0-14.904 6.688-14.904 14.904v171.369c0 187.063 204.758 339.209 391.768 339.209s391.821-152.199 391.821-339.209v-171.369c0.053-8.216-6.583-14.904-14.851-14.904zM29.861-34.139h723.973v156.465c0 170.579-191.434 309.401-361.96 309.401-170.579 0-362.013-138.77-362.013-309.401v-156.465z" />
<glyph unicode="&#xe904;" glyph-name="black-circle" d="M512.018 960c-281.198 0-512.018-230.855-512.018-511.947 0-281.304 230.82-512.053 512.018-512.053 281.304 0 511.982 230.749 511.982 512.053-0.035 281.093-230.679 511.947-511.982 511.947z" />
<glyph unicode="&#xe905;" glyph-name="delete" horiz-adv-x="796" d="M56.889 49.778c0-62.578 51.2-113.778 113.778-113.778h455.111c62.578 0 113.778 51.2 113.778 113.778v682.667h-682.667v-682.667zM170.667 618.667h455.111v-568.889h-455.111v568.889zM597.333 903.111l-56.889 56.889h-284.444l-56.889-56.889h-199.111v-113.778h796.444v113.778h-199.111z" />
<glyph unicode="&#xe906;" glyph-name="edit" horiz-adv-x="1022" d="M769.385 371.985c0 28.313 22.928 51.292 51.292 51.292s51.292-22.979 51.292-51.292v-288.519c0-81.452-66.013-147.465-147.465-147.465h-577.039c-81.452 0-147.465 66.013-147.465 147.465v577.039c0 81.452 66.013 147.465 147.465 147.465h312.575c28.313 0 51.292-22.979 51.292-51.292s-22.928-51.292-51.292-51.292h-312.575c-24.774 0-44.881-20.107-44.881-44.881v-577.039c0-24.774 20.107-44.881 44.881-44.881h577.039c24.774 0 44.881 20.107 44.881 44.881v288.519zM826.114 836.078l-383.564-384.898-18.157-90.787 90.634 18.157 383.615 385-72.527 72.527zM862.378 944.971l145.055-145.055c20.055-20.004 20.055-52.472 0.051-72.476l-430.702-432.292c-7.181-7.232-16.311-12.156-26.313-14.105l-181.318-36.264c-35.905-7.181-67.552 24.518-60.371 60.371l36.264 181.37c2 9.899 6.822 18.978 13.952 26.108l430.753 432.343c20.004 20.055 52.523 20.055 72.63 0zM882.583 664.745l-72.538-72.538-153.889 153.889 72.538 72.538 153.889-153.889z" />
<glyph unicode="&#xe907;" glyph-name="search" horiz-adv-x="963" d="M933.175 58.727l-229.722 238.911c59.055 70.28 91.438 158.654 91.438 250.683 0 214.931-174.846 389.776-389.864 389.776-214.909 0-389.776-174.868-389.776-389.776 0-215.018 174.868-389.864 389.776-389.864 80.695 0 157.67 24.309 223.355 70.608l231.582-240.837c9.671-10.109 22.646-15.623 36.65-15.623 13.172 0 25.644 5.032 35.162 14.2 20.283 19.43 20.852 51.638 1.4 71.921zM405.027 836.376c158.873 0 288.142-129.269 288.142-288.077 0-158.895-129.269-288.142-288.142-288.142-158.808 0-288.077 129.247-288.077 288.142 0.022 158.808 129.269 288.077 288.077 288.077z" />
<glyph unicode="&#xe908;" glyph-name="students" horiz-adv-x="788" d="M696.241-64h-558.789c-20.913 0-40.527 9.295-53.681 25.364-13.273 16.148-18.59 37.061-14.533 57.659l31.902 161.595c10.831 55.217 51.239 99.17 105.472 114.649l114.649 32.768c4.884 1.3 9.649 2.442 14.415 3.23 6.656 1.063 13.627 1.654 20.362 1.654h121.817c6.892 0 13.745-0.591 20.48-1.654 4.923-0.827 9.649-1.93 14.415-3.23l114.53-32.768c54.114-15.518 94.484-59.431 105.511-114.649l31.862-161.595c4.096-20.48-1.221-41.511-14.494-57.659-13.43-16.187-33.004-25.364-53.918-25.364zM355.919 288.492c-4.411 0-8.862-0.354-13.273-1.103-3.072-0.473-6.183-1.182-9.295-2.127l-114.688-32.61c-38.085-10.831-66.521-41.787-74.161-80.581l-31.862-161.556c-1.457-7.404 0.433-15.045 5.317-20.913s11.973-9.177 19.495-9.177h558.789c7.641 0 14.73 3.308 19.456 9.177 4.844 5.868 6.774 13.509 5.317 20.913l-31.862 161.595c-7.641 38.794-36.076 69.75-74.161 80.581l-114.649 32.729c-3.111 0.866-6.223 1.536-9.177 2.127h-0.118c-4.332 0.67-8.743 1.103-13.312 1.103h-121.817v-0.158zM416.807 344.576c-28.554 0-56.674 7.956-83.456 23.631-24.103 14.021-46.159 33.713-65.418 58.289-36.943 47.498-59.077 108.78-59.077 164.037 0 0.551 0.079 53.563 0.433 58.644 0.788 11.973 10.87 21.15 22.804 20.677 4.884-0.079 9.413-1.89 12.958-4.766h357.494c11.973 0 21.701-9.413 22.174-21.346 0.079-2.993 0.079-52.775 0.079-53.248 0-55.217-22.174-116.539-59.077-164.037-19.298-24.694-41.314-44.268-65.457-58.289-26.821-15.714-54.902-23.591-83.456-23.591zM253.086 620.859c-0.118-12.839-0.118-26.348-0.118-30.326 0-45.726 18.59-96.807 49.822-136.783 32.65-41.866 73.137-64.866 114.018-64.866 40.842 0 81.329 23.040 113.979 64.866 31.114 39.975 49.703 91.097 49.703 136.783v30.326h-327.404zM602.506 673.831c-4.017 0-7.956 1.103-11.54 3.23-6.538 3.978-10.634 11.185-10.634 18.905v49.585c-50.452 25.679-106.693 39.306-163.446 39.306s-112.994-13.627-163.446-39.306v-49.585c0-7.759-3.978-14.809-10.634-18.905-6.538-3.978-14.73-4.293-21.543-0.788l-142.69 72.94c-7.404 3.781-12.091 11.422-12.091 19.692s4.647 15.951 12.091 19.692l328.271 167.778c6.302 3.19 13.824 3.19 20.126 0l328.271-167.778c7.404-3.742 12.052-11.422 12.052-19.692 0-8.31-4.647-15.951-12.052-19.692l-142.651-72.94c-3.23-1.654-6.695-2.442-10.082-2.442zM137.216 768.906l71.956-36.746v26.703c0 8.074 4.293 15.518 11.422 19.377 59.865 33.319 127.842 50.885 196.332 50.885 68.529 0 136.507-17.566 196.332-50.885 6.971-3.899 11.422-11.303 11.422-19.377v-26.663l71.916 36.746-279.71 143.006-279.67-143.045zM602.506 620.859h-371.2c-12.17 0-22.134 9.964-22.134 22.134v115.87c0 8.074 4.293 15.518 11.422 19.377 59.865 33.319 127.842 50.885 196.332 50.885 68.529 0 136.507-17.566 196.332-50.885 6.971-3.899 11.422-11.303 11.422-19.377v-115.87c-0.039-12.288-10.043-22.134-22.174-22.134zM253.44 665.127h326.932v80.423c-50.452 25.679-106.693 39.306-163.446 39.306s-113.034-13.509-163.486-39.306v-80.423zM134.656 516.923h-92.042c-7.326 0-14.060 3.545-18.274 9.531-4.096 5.986-5.081 13.627-2.442 20.48l46.041 121.068c3.308 8.625 11.5 14.257 20.677 14.257 9.216 0 17.369-5.632 20.716-14.257l46.041-121.068c2.56-6.735 1.654-14.375-2.442-20.48-4.214-5.986-11.067-9.531-18.274-9.531zM74.673 561.191h27.884l-13.942 36.628-13.942-36.628zM88.615 637.991c-12.17 0-22.134 9.964-22.134 22.134v108.78c0 12.17 9.964 22.134 22.134 22.134 12.209 0 22.134-9.964 22.134-22.134v-108.82c0-12.13-9.925-22.095-22.134-22.095zM526.927 126.464c-4.647 0-9.216 1.457-12.958 4.214l-110.041 79.754c-5.199 3.781-8.507 9.649-9.058 15.951-0.551 6.38 1.694 12.721 6.105 17.25l77.785 80.896c5.002 5.199 12.327 7.641 19.495 6.498 4.884-0.748 9.728-1.89 14.375-3.19l44.623-12.721c10.831-3.111 17.605-13.863 15.714-24.891l-24.222-145.29c-1.221-7.483-6.341-13.942-13.43-16.817-2.796-1.103-5.553-1.654-8.389-1.654zM450.402 231.385l60.534-43.835 15.084 90.545-23.985 6.892-51.633-53.602zM306.885 126.464c-2.875 0-5.671 0.551-8.428 1.694-7.089 2.836-12.17 9.295-13.391 16.817l-24.222 145.29c-1.89 11.028 4.962 21.78 15.675 24.891l44.623 12.721c4.884 1.3 9.61 2.481 14.375 3.19 7.207 1.142 14.375-1.3 19.495-6.498l77.824-80.896c4.372-4.647 6.617-10.988 6.065-17.25-0.551-6.302-3.86-12.209-9.098-15.951l-109.962-79.754c-3.899-2.796-8.428-4.254-12.958-4.254zM307.751 278.095l15.045-90.545 60.534 43.835-51.476 53.563-24.103-6.853z" />
<glyph unicode="&#xe909;" glyph-name="teachers" d="M97.713 790.528c0-66.56 53.957-120.556 120.556-120.556 66.56 0 120.556 53.957 120.556 120.556s-53.957 120.556-120.556 120.556c-66.521-0.079-120.478-53.996-120.556-120.556zM287.902 790.528c0-38.439-31.193-69.632-69.632-69.632-38.479 0-69.671 31.193-69.671 69.632 0 38.479 31.193 69.671 69.671 69.671 38.439-0.079 69.593-31.232 69.632-69.671zM37.849 346.348c3.466-31.114 21.622-58.565 48.876-73.925l39.7-249.817c3.308-29.538 28.318-51.83 58.053-51.83h65.969c29.735 0 54.705 22.331 58.053 51.909l19.535 137.295 38.912 297.314 43.559-35.919c25.442-21.031 62.149-21.465 88.064-1.024l131.308 103.503c28.514 22.016 36.155 61.794 17.802 92.751-20.165 33.044-63.37 43.481-96.374 23.276-2.402-1.457-4.647-3.033-6.814-4.726l-88.379-69.632-89.206 73.649c-12.524 10.319-28.278 16.030-44.583 16.069h-40.724c-9.177 0.276-17.959-3.663-23.828-10.713l-40.724-50.294-39.7 49.782c-5.632 7.089-14.178 11.264-23.198 11.225h-31.232c-61.007-0.039-110.474-49.506-110.434-110.513 0-4.332 0.236-8.586 0.748-12.879l24.615-185.502zM78.612 584.389c11.146 12.918 27.412 20.362 44.465 20.362h20.992l45.607-56.911c12.327-15.399 34.777-17.959 50.215-5.671 2.087 1.654 4.017 3.545 5.671 5.671l45.726 56.99h31.153c4.45 0 8.783-1.536 12.209-4.372l105.354-87.276c9.334-7.522 22.646-7.522 31.98 0l104.566 82.353c3.426 2.678 7.562 4.096 11.934 4.096 6.774 0 12.958-3.545 16.502-9.295 4.844-8.98 2.284-20.165-5.986-26.151l-131.978-103.857c-7.089-5.553-17.014-5.553-24.103 0l-79.006 65.26c-10.831 8.94-26.9 7.404-35.84-3.426-3.033-3.663-4.962-8.113-5.593-12.879l-45.292-343.276-19.141-137.728c-0.433-3.82-3.623-6.735-7.444-6.774h-66.087c-4.017 0.118-7.286 3.23-7.522 7.247l-41.669 264.192c-1.3 9.334-7.641 17.172-16.384 20.362-16.857 6.144-28.711 21.307-30.562 39.148l-25.049 185.58c-1.93 16.935 3.623 33.871 15.163 46.395l0.118-0.039zM398.494 848.148v-183.217c0-14.060 11.422-25.442 25.442-25.442 14.060 0 25.442 11.382 25.442 25.442v157.893h509.873v-438.745h-535.316c-14.021 0-25.442-11.382-25.442-25.442s11.422-25.442 25.442-25.442h560.404c14.021 0 25.442 11.382 25.442 25.442v489.511c0 14.1-11.382 25.482-25.442 25.482h-560.404c-14.060 0-25.442-11.382-25.442-25.482z" />
<glyph unicode="&#xe90a;" glyph-name="close" d="M843.52 960l-331.52-331.52-331.52 331.52-180.48-180.48 331.52-331.648-331.52-331.392 180.48-180.48 331.52 331.52 331.52-331.52 180.48 180.48-331.52 331.392 331.52 331.648z" />
<glyph unicode="&#xe90b;" glyph-name="dashboard" d="M402.078 607.902h-299.796c-38.558 0-69.947 31.35-69.947 69.947v179.87c0 38.558 31.39 69.947 69.947 69.947h299.796c38.558 0 69.947-31.39 69.947-69.947v-179.87c0-38.597-31.39-69.947-69.947-69.947zM102.282 867.722c-5.514 0-10.004-4.49-10.004-10.004v-179.87c0-5.514 4.49-9.964 10.004-9.964h299.796c5.514 0 9.964 4.45 9.964 9.964v179.87c0 5.514-4.45 10.004-9.964 10.004h-299.796zM402.078-31.705h-299.796c-38.558 0-69.947 31.39-69.947 69.947v419.761c0 38.558 31.39 69.947 69.947 69.947h299.796c38.558 0 69.947-31.35 69.947-69.947v-419.722c0-38.597-31.39-69.986-69.947-69.986zM102.282 467.968c-5.514 0-10.004-4.45-10.004-9.964v-419.722c0-5.553 4.49-10.004 10.004-10.004h299.796c5.514 0 9.964 4.45 9.964 10.004v419.722c0 5.514-4.45 9.964-9.964 9.964h-299.796zM921.718-31.705h-299.796c-38.558 0-69.947 31.39-69.947 69.947v179.87c0 38.558 31.39 69.947 69.947 69.947h299.796c38.558 0 69.947-31.39 69.947-69.947v-179.87c0.039-38.558-31.35-69.947-69.947-69.947zM621.922 228.155c-5.514 0-10.004-4.49-10.004-10.004v-179.87c0-5.553 4.49-10.004 10.004-10.004h299.796c5.553 0 10.004 4.45 10.004 10.004v179.87c0 5.514-4.45 10.004-10.004 10.004h-299.796zM921.718 368.049h-299.796c-38.558 0-69.947 31.39-69.947 69.947v419.722c0 38.558 31.39 69.947 69.947 69.947h299.796c38.558 0 69.947-31.39 69.947-69.947v-419.722c0.039-38.558-31.35-69.947-69.947-69.947zM621.922 867.722c-5.514 0-10.004-4.49-10.004-10.004v-419.722c0-5.514 4.49-9.964 10.004-9.964h299.796c5.553 0 10.004 4.45 10.004 9.964v419.722c0 5.514-4.45 10.004-10.004 10.004h-299.796z" />
<glyph unicode="&#xe90c;" glyph-name="addition-subtraction" d="M70.4 873.6h406.4v-406.4h-406.4v406.4zM547.2 432h406.4v-406.4h-406.4v406.4zM108.8 432h332.8c41.6 0 73.6 32 73.6 73.6v332.8c0 41.6-32 73.6-73.6 73.6h-332.8c-41.6 0-73.6-32-73.6-73.6v-332.8c0-41.6 32-73.6 73.6-73.6zM115.2 707.2h124.8v124.8h70.4v-124.8h124.8v-70.4h-124.8v-124.8h-70.4v124.8h-124.8v70.4zM508.8 57.6c0-41.6 32-73.6 73.6-73.6v0h332.8c41.6 0 73.6 32 73.6 73.6v0 332.8c0 41.6-32 73.6-73.6 73.6v0h-332.8c-41.6 0-73.6-32-73.6-73.6v0c0 0 0-332.8 0-332.8zM588.8 259.2h320v-70.4h-320v70.4z" />
<glyph unicode="&#xe90d;" glyph-name="graduation-cap" d="M505.6 553.6c-6.4 3.2-9.6 3.2-16 0l-467.2-176 470.4-176c6.4-3.2 9.6-3.2 16 0l412.8 153.6c12.8 3.2 19.2 19.2 12.8 28.8-3.2 6.4-6.4 12.8-12.8 12.8l-416 156.8zM227.2 246.4c-6.4 3.2-12.8 0-16-6.4 0 0 0-3.2 0-3.2v-131.2c0-57.6 128-105.6 288-105.6 108.8 0 201.6 22.4 249.6 54.4 22.4 16 38.4 32 38.4 51.2v134.4c0 6.4-6.4 12.8-12.8 12.8 0 0-3.2 0-3.2 0l-268.8-99.2c-3.2 0-6.4 0-9.6 0l-265.6 92.8zM963.2 345.6c-3.2 0-6.4-6.4-6.4-9.6l-6.4-44.8-19.2-140.8c0-6.4 3.2-12.8 9.6-12.8 0 0 0 0 3.2 0h48c6.4 0 12.8 6.4 12.8 12.8 0 0 0 0 0 0l-25.6 185.6c-3.2 9.6-6.4 12.8-16 9.6 0 3.2 0 3.2 0 0v0z" />
<glyph unicode="&#xe90e;" glyph-name="multiplication-division" d="M70.4 873.6h406.4v-406.4h-406.4v406.4zM547.2 432h406.4v-406.4h-406.4v406.4zM918.4 460.8h-332.8c-41.6 0-73.6-32-73.6-73.6v0-332.8c0-41.6 32-73.6 73.6-73.6v0h332.8c41.6 0 73.6 32 73.6 73.6v0 336c-3.2 38.4-35.2 70.4-73.6 70.4v0zM752 380.8c19.2 0 35.2-16 35.2-35.2s-16-35.2-35.2-35.2-35.2 16-35.2 35.2 16 35.2 35.2 35.2zM752 64c-19.2 0-35.2 16-35.2 35.2s16 35.2 35.2 35.2 35.2-16 35.2-35.2-16-35.2-35.2-35.2v0zM908.8 188.8h-316.8v70.4h316.8v-70.4zM441.6 912h-332.8c-41.6 0-73.6-32-73.6-73.6v-336c0-41.6 32-73.6 73.6-73.6h336c41.6 0 73.6 32 73.6 73.6v336c-3.2 41.6-35.2 73.6-76.8 73.6zM412.8 582.4l-48-48-89.6 89.6-89.6-89.6-48 48 89.6 89.6-89.6 89.6 48 48 89.6-89.6 89.6 89.6 48-48-89.6-89.6 89.6-89.6z" />
<glyph unicode="&#xe90f;" glyph-name="warm-up" d="M262.4 432h236.8v32h-211.2l-54.4 204.8-32-9.6 60.8-224zM832 694.4c0-51.252-41.548-92.8-92.8-92.8s-92.8 41.548-92.8 92.8c0 51.252 41.548 92.8 92.8 92.8s92.8-41.548 92.8-92.8zM963.2 486.4h-44.8v-268.8h-243.2v-70.4h316.8v339.2zM876.8 230.4h9.6c9.6 0 19.2 19.2 19.2 44.8l-67.2 304h-73.6l-9.6-22.4-80-44.8h-137.6c-19.2 0-35.2-12.8-35.2-28.8s16-28.8 35.2-28.8h163.2l57.6 32v-166.4h-163.2c-22.4-3.2-38.4-22.4-38.4-44.8v-233.6c0-25.6 19.2-44.8 44.8-44.8s44.8 19.2 44.8 44.8v188.8h128c0 0 102.4 0 102.4 0zM32 422.4v0-422.4h92.8v329.6h323.2v-329.6h89.6v422.4h-409.6zM499.2 729.6c-9.6 0-16-6.4-16-16s6.4-16 16-16 16 6.4 16 16c0 9.6-6.4 16-16 16zM499.2 713.6c0 0-3.2 0 0 0-3.2 3.2-3.2 6.4 0 6.4s3.2-3.2 0-6.4c3.2 0 0 0 0 0zM489.6 800c3.2 3.2 6.4 3.2 9.6 3.2 6.4 0 6.4-3.2 6.4-6.4s-3.2-9.6-9.6-16c-6.4-9.6-12.8-19.2-9.6-28.8v-9.6h25.6v9.6c0 6.4 0 9.6 6.4 16 6.4 9.6 12.8 16 12.8 28.8s-9.6 25.6-28.8 25.6c-9.6 0-19.2-3.2-25.6-6.4l-3.2-3.2 6.4-22.4 9.6 9.6zM569.6 729.6c-9.6 0-16-6.4-16-16s6.4-16 16-16 16 6.4 16 16c0 9.6-6.4 16-16 16zM569.6 713.6c0 0-3.2 0 0 0-3.2 3.2-3.2 6.4 0 6.4s3.2-3.2 0-6.4c3.2 0 0 0 0 0zM560 800c3.2 3.2 6.4 3.2 9.6 3.2 6.4 0 6.4-3.2 6.4-6.4s-3.2-9.6-9.6-16c-6.4-9.6-12.8-19.2-9.6-28.8v-9.6h22.4v9.6c0 6.4 3.2 9.6 6.4 16 6.4 9.6 12.8 16 12.8 28.8s-9.6 25.6-28.8 25.6c-9.6 0-19.2-3.2-25.6-6.4v0l6.4-22.4 9.6 6.4z" />
<glyph unicode="&#xe910;" glyph-name="reassess" d="M425.984 934.969c-58.254-12.288-123.335-39.595-170.667-71.908-29.582-20.025-79.644-69.177-103.31-100.58-41.415-54.613-78.734-141.995-70.087-164.295 6.372-16.384 24.121-26.396 40.505-22.756 17.294 3.641 20.025 7.282 34.588 45.511 51.883 137.899 172.032 232.562 314.027 247.125 151.552 15.929 296.277-59.164 371.371-192.057 16.384-30.037 17.294-29.582-23.666-13.653-17.749 6.827-23.211 6.827-35.044 2.276-24.121-10.012-28.672-41.87-8.647-58.709 3.641-3.186 40.505-19.115 81.465-35.044 68.722-27.307 74.638-29.127 80.1-21.39 3.186 4.096 21.39 38.684 40.505 76.914l35.044 69.177-7.737 15.929c-14.564 30.948-46.421 27.762-67.356-6.372-7.737-12.743-15.019-22.756-15.929-22.756s-7.737 11.833-15.019 26.396c-26.396 51.883-86.471 119.239-138.809 155.193-32.313 22.3-101.49 54.158-141.54 64.626-46.876 12.743-152.917 15.929-199.794 6.372zM638.976 614.571c-10.923-4.551-34.588-31.403-120.149-136.078l-60.53-74.183-35.044 34.588c-30.492 29.582-37.319 34.133-51.428 34.133-21.845 0-36.409-7.282-45.511-22.756-9.557-15.474-10.012-32.768-1.365-49.152 3.641-6.827 30.037-35.499 58.709-63.26l52.338-51.428h25.486c21.39 0 27.307 1.82 38.684 12.743 7.282 6.827 56.434 65.536 109.227 130.162 91.932 112.868 96.028 118.784 96.028 137.899 0 34.588-35.954 60.075-66.446 47.332zM75.548 326.030c-8.647-15.474-26.396-50.062-39.595-76.914-21.845-45.511-23.211-49.607-17.749-62.805 15.019-36.409 50.972-29.582 74.183 13.653l8.192 15.474 23.666-40.96c30.037-51.428 104.22-126.976 151.097-154.283 78.279-45.511 132.892-61.44 220.729-64.626 95.118-3.641 167.026 14.564 247.58 61.895 41.415 24.576 97.849 75.093 127.886 115.598 23.666 31.403 55.979 92.843 68.267 129.707 6.372 19.57 6.827 26.396 2.276 37.319-6.827 16.384-28.217 25.941-44.601 20.025-13.198-4.551-15.929-9.557-38.229-63.26-20.025-47.332-44.601-84.196-81.010-120.604-51.428-51.428-118.784-88.292-187.506-102.855-47.787-10.012-124.7-9.102-169.756 2.731-75.548 19.115-154.738 69.632-201.159 127.886-20.48 26.396-51.428 75.548-51.428 82.83 0 1.365 11.378-1.365 25.031-5.916 38.684-13.198 61.44-1.82 61.44 30.948 0 16.384-13.653 29.127-40.96 38.684-11.378 3.641-43.691 15.019-71.452 25.486l-50.972 18.204-15.929-28.217z" />
<glyph unicode="&#xe911;" glyph-name="code-lock" horiz-adv-x="770" d="M385.219 69.387c-51.101 0-100.687 10.014-147.381 29.764-45.088 19.071-85.576 46.366-120.338 81.129s-62.058 75.251-81.129 120.339c-19.75 46.694-29.764 96.28-29.764 147.381s10.014 100.687 29.764 147.381c19.071 45.088 46.366 85.576 81.129 120.338s75.25 62.058 120.338 81.129c46.694 19.75 96.28 29.764 147.381 29.764s100.687-10.014 147.381-29.764c45.088-19.071 85.576-46.366 120.339-81.129s62.058-75.25 81.129-120.338c19.75-46.694 29.764-96.28 29.764-147.381s-10.014-100.687-29.764-147.381c-19.071-45.088-46.366-85.576-81.129-120.339s-75.251-62.058-120.339-81.129c-46.694-19.75-96.28-29.764-147.381-29.764zM385.219 773.788c-179.64 0-325.788-146.148-325.788-325.788s146.148-325.788 325.788-325.788c179.64 0 325.788 146.148 325.788 325.788s-146.148 325.788-325.788 325.788zM513.583 260.162h-256.729l52.442 157.325c-14.2 10.54-25.503 24.808-32.402 41.297-15.184 28.978-18.226 61.497-8.55 91.735 9.641 30.128 31.066 55.398 60.327 71.154 18.221 9.811 37.575 14.786 57.522 14.786 21.627 0 42.905-6.060 61.535-17.524 18.68-11.496 34.285-28.216 45.128-48.351 15.778-29.302 19.059-62.341 9.238-93.030-7.417-23.179-21.809-43.481-41.378-58.789l52.867-158.603zM330.146 312.988h110.146l-43.13 129.392 19.56 10.533c35.711 19.229 48.169 58.185 29.623 92.629-12.844 23.854-35.33 38.095-60.151 38.095-11.111 0-22.038-2.851-32.478-8.472-17.158-9.239-29.609-23.708-35.060-40.743-5.409-16.903-3.478-35.329 5.437-51.886l0.711-1.321 0.557-1.393c4.656-11.64 14.002-20.986 25.642-25.642l23.124-9.249-43.982-131.942z" />
<glyph unicode="&#xe912;" glyph-name="arrow-right" horiz-adv-x="1229" d="M752.112 945.881c-20.458 19.482-52.89 18.714-72.372-1.766-19.507-20.48-18.688-52.89 1.766-72.398l392.76-372.51h-1023.066c-28.263 0-51.201-22.938-51.201-51.201s22.938-51.201 51.201-51.201h1021.427l-391.122-372.536c-20.477-19.507-21.271-51.917-1.766-72.398 10.061-10.547 23.552-15.872 37.069-15.872 12.698 0 25.396 4.685 35.303 14.131l446.7 425.477c19.354 19.328 30.004 45.031 30.004 72.398s-10.65 53.069-30.9 73.268l-445.804 424.607z" />
<glyph unicode="&#xe913;" glyph-name="arrow-top" horiz-adv-x="853" d="M841.563 557.424c16.235-17.048 15.597-44.075-1.472-60.309-17.067-16.256-44.075-15.573-60.331 1.472l-310.421 327.296v-852.544c0-23.552-19.115-42.667-42.667-42.667s-42.667 19.115-42.667 42.667v851.179l-310.443-325.931c-16.256-17.064-43.264-17.725-60.331-1.472-8.789 8.384-13.227 19.627-13.227 30.891 0 10.581 3.904 21.163 11.776 29.419l354.56 372.245c16.107 16.128 37.525 25.003 60.331 25.003 22.808 0 44.224-8.875 61.056-25.749l353.835-371.499z" />
<glyph unicode="&#xe914;" glyph-name="arrow-bottom" horiz-adv-x="853" d="M841.563 327.92c16.235 17.048 15.597 44.075-1.472 60.309-17.067 16.256-44.075 15.573-60.331-1.472l-310.421-327.296v852.544c0 23.552-19.115 42.667-42.667 42.667s-42.667-19.115-42.667-42.667v-851.179l-310.443 325.931c-16.256 17.064-43.264 17.725-60.331 1.472-8.789-8.384-13.227-19.627-13.227-30.891 0-10.581 3.904-21.163 11.776-29.419l354.56-372.245c16.107-16.128 37.525-25.003 60.331-25.003 22.808 0 44.224 8.875 61.056 25.749l353.835 371.499z" />
<glyph unicode="&#xe915;" glyph-name="arrow-left" horiz-adv-x="1229" d="M476.704 945.881c20.458 19.482 52.89 18.714 72.372-1.766 19.507-20.48 18.688-52.89-1.766-72.398l-392.76-372.51h1023.066c28.263 0 51.201-22.938 51.201-51.201s-22.938-51.201-51.201-51.201h-1021.427l391.125-372.536c20.477-19.507 21.271-51.917 1.766-72.398-10.061-10.547-23.552-15.872-37.069-15.872-12.698 0-25.396 4.685-35.303 14.131l-446.703 425.477c-19.354 19.328-30.004 45.031-30.004 72.398s10.65 53.069 30.9 73.268l445.804 424.607z" />
<glyph unicode="&#xe916;" glyph-name="filltheblanks" d="M806.699-55.433h-592.368c-114.301 0-207.298 93.007-207.298 207.318v592.358c0 114.301 92.997 207.298 207.298 207.298h594.197c55.69 0 107.888-21.885 146.966-61.631 38.635-39.284 59.418-91.069 58.503-145.835v-592.191c0.010-114.311-92.987-207.318-207.298-207.318zM214.331 931.87c-103.462 0-187.627-84.165-187.627-187.627v-592.358c0-103.472 84.165-187.646 187.627-187.646h592.368c103.472 0 187.637 84.184 187.637 187.646v592.358c0.826 49.602-17.95 96.381-52.857 131.878-35.36 35.94-82.581 55.749-132.95 55.749h-594.197z" />
<glyph unicode="&#xe917;" glyph-name="levellifter" d="M357.159 850.104c0-42.762-34.666-77.428-77.428-77.428s-77.428 34.666-77.428 77.428c0 42.762 34.666 77.428 77.428 77.428s77.428-34.666 77.428-77.428zM64.946 675.272l-10.003-112.384c-2.498-14.98 9.993-27.472 24.983-29.97h2.498c14.98 0 27.472 9.993 27.472 24.973l9.993 99.903 54.943 44.95-34.966-234.772c0-2.498-2.498-4.997-2.498-9.993l-4.997-172.324-77.428-119.879c-4.997-7.495-7.495-17.488-4.997-27.481h67.435l77.428 117.391c2.498 4.997 4.997 9.993 4.997 17.488l7.495 182.317c0 4.997 0 7.495-2.498 9.993l24.973 22.475 97.404-19.977 22.475-202.304c0-2.498 2.498-7.495 2.498-9.993h54.943c2.498 4.997 2.498 9.993 2.498 14.99l-24.973 224.779c-2.498 12.492-12.492 24.983-24.973 27.481l-89.919 17.478c12.492 24.973 29.97 64.936 42.461 99.903l37.465-49.956c2.498-2.498 4.997-7.495 9.993-7.495l79.916-39.963c4.997-2.498 7.495-2.498 12.492-2.498 9.993 0 19.977 4.997 24.973 14.98 7.495 12.492 2.498 29.97-12.492 37.465l-74.929 37.475-52.455 72.421c-2.498 2.498-4.997 4.997-7.495 7.495-2.498 4.997-4.997 7.495-9.993 9.993-19.986 14.98-44.96 24.973-67.435 32.478-9.993 2.498-19.986 7.495-32.468 9.993-4.997 2.498-12.492 2.498-17.478 4.997-12.492 2.498-24.983 9.993-37.465 0l-89.909-69.933c-4.977-7.505-7.475-12.501-9.964-22.495zM5.075-36.469v154.708h222.28v117.381h219.792v119.889h219.792v127.374h351.995v-516.834l-1013.859-2.518zM14.911 108.403v-135.017l994.188 2.479v497.182h-332.324v-127.374h-219.792v-119.879h-219.792v-117.391h-222.28z" />
<glyph unicode="&#xe918;" glyph-name="numberline" d="M624.438 428.097l-10.151 14.173c-42.324 59.104-86.929 88.316-132.076 87.51-72.716-1.662-125.535-81.736-126.056-82.542l-7.456-11.478-8.508 10.721c-45.914 57.933-92.427 85.798-138.479 82.778-71.595-4.672-119.279-82.906-119.751-83.693l-16.878 10.111c2.154 3.58 53.576 87.883 135.351 93.214 50.005 3.147 99.322-23.695 146.967-80.152 18.383 23.97 67.818 79.129 134.259 80.703 0.964 0.020 1.928 0.030 2.892 0.030 47.743 0 93.568-27.983 136.443-83.28 16.76 27.462 61.759 84.844 145.039 84.844 54.628 0 121.63-26.616 145.895-101.319l-18.708-6.079c-27.117 83.496-110.702 87.726-127.187 87.726-96.116 0-134.338-86.388-134.712-87.254l-6.885-16.013zM7.22 414.514h1016.79v-19.672h-1016.79v19.672zM80.083 367.253c0-1.967 0-3.934-0.659-5.911-0.659-1.308-1.308-2.626-1.967-3.934s-1.967-1.967-2.626-2.626c-0.649-0.649-1.967-0.649-3.275-0.649s-2.626 0-3.275 0.649c-0.659 0.649-1.967 1.318-2.626 2.626-0.659 1.318-1.318 2.636-1.967 3.934-0.659 1.318-0.659 3.285-0.659 5.911 0 1.967 0 3.934 0.659 5.911 0.649 1.967 1.308 2.636 1.967 3.934 0.659 1.318 1.967 1.967 2.626 2.636 0.649 0.649 1.967 0.649 3.275 0.649s2.626 0 3.275-0.649c0.659-0.659 1.967-1.318 2.626-2.636 0.659-1.308 1.308-2.626 1.967-3.934s0.659-3.275 0.659-5.911zM76.798 367.253c0 1.967 0 3.285-0.649 4.603 0 1.308-0.659 2.626-1.318 3.275-0.649 0.659-1.308 1.318-1.967 1.967-0.649 0.659-1.308 0.659-1.967 0.659-0.649 0-1.308 0-1.967-0.659-0.649-0.649-1.308-0.649-1.967-1.967-0.649-0.649-0.649-1.967-1.308-3.275 0-1.318-0.659-2.636-0.659-4.603s0-3.275 0.659-4.593c0-1.318 0.659-2.626 1.308-3.285 0.659-0.649 1.318-1.308 1.967-1.967 0.659-0.649 1.318-0.649 1.967-0.649 0.659 0 1.318 0 1.967 0.649 0.659 0.659 1.318 0.659 1.967 1.967 0.659 0.659 0.659 1.967 1.318 3.285 0.649 1.318 0.649 2.626 0.649 4.593zM71.546 351.673c-1.623 0-3.649 0-5.016 1.377-0.128 0.128-0.305 0.246-0.492 0.393-0.748 0.58-1.879 1.436-2.587 2.862l-1.977 3.944c-0.915 1.839-0.915 4.111-0.915 7.003 0 2.036 0 4.338 0.787 6.688 0.521 1.574 1.062 2.479 1.544 3.275 0.187 0.305 0.374 0.62 0.561 0.993 0.708 1.416 1.829 2.272 2.577 2.852 0.187 0.148 0.374 0.266 0.502 0.403 1.377 1.387 3.403 1.387 5.026 1.387s3.649 0 5.016-1.377c0.138-0.148 0.325-0.266 0.511-0.413 0.748-0.58 1.869-1.436 2.577-2.862l1.967-3.934c0.915-1.82 0.915-4.102 0.915-7.003 0-2.036 0-4.338-0.787-6.688l-2.105-4.259c-0.718-1.436-1.849-2.292-2.597-2.872-0.187-0.148-0.374-0.266-0.502-0.403-1.357-1.367-3.384-1.367-5.006-1.367zM68.074 371.266c-0.059-0.629-0.187-1.22-0.315-1.79-0.167-0.728-0.315-1.426-0.315-2.233 0-1.869 0.010-2.725 0.403-3.492l0.256-1.092c0-0.61 0.354-1.308 0.61-1.554l1.967-1.967 0.62 0.089c0.167 0.266 0.511 0.511 0.856 0.748 0.325 0.207 0.334 0.216 0.472 0.502l0.452 0.629c-0.059 0.010 0.020 0.295 0.098 0.551 0.187 0.659 0.403 1.387 0.767 2.105 0.384 0.767 0.393 1.623 0.393 3.492 0 1.879-0.010 2.734-0.403 3.502l-0.256 1.092c0 0.629-0.384 1.318-0.59 1.525l-1.967 1.967-0.236-0.049c-0.128 0-0.266 0.010-0.393-0.010-0.187-0.275-0.521-0.521-0.866-0.748-0.325-0.207-0.334-0.216-0.482-0.511l-0.452-0.629c0.039-0.020-0.010-0.266-0.079-0.531-0.148-0.492-0.305-1.043-0.541-1.593zM151.639 357.407v-2.626h-13.131v2.626h5.252v17.065c0 0.649 0 1.318 0 1.318l-4.593-3.934c0 0 0 0-0.659 0 0 0 0 0-0.659 0 0 0 0 0-0.649 0-0.659 0 0 0 0 0l-0.659 1.308 7.22 6.57h2.626v-22.327h5.252zM154.098 352.332h-18.049v7.534h5.252v10.583l-1.229-1.052h-4.397l-2.174 4.328 9.305 8.469h6.029v-22.327h5.262zM215.307 358.066c0.659 0 0.659 0 0.659 0v-2.626h-16.406v1.308c0 0 0 0.649 0.659 0.649l7.879 7.879c0.659 0.659 1.308 1.318 1.967 1.967 0.659 0.659 1.308 1.318 1.308 1.967 0.659 0.659 0.659 1.318 0.659 1.967 0 0.659 0 1.318 0 1.967 0 0.659 0 1.318-0.659 1.967 0 0.659-0.649 1.318-0.649 1.318-0.659 0.649-0.659 0.649-1.318 0.649-0.649 0-1.308 0-1.967 0-0.649 0-1.308 0-1.967 0-0.649 0-1.308-0.649-1.308-0.649s-0.659-0.649-1.308-1.318c-0.659-0.649 0.649-0.649 0.649-1.308s0-0.659-0.649-0.659c0 0-0.659 0-1.318 0h-1.308c0 1.318 0.649 1.967 0.649 3.285 0.659 0.649 1.318 1.318 1.977 1.967 0.649 0.649 1.308 1.318 2.626 1.318 0.659 0 1.967 0.649 2.626 0.649 1.308 0 1.967 0 2.626-0.649 0.649 0 1.967-0.659 2.626-1.318 0.659-0.649 1.318-1.318 1.318-1.967 0.649-0.649 0.649-1.967 0.649-2.626s0-1.967-0.649-2.636c0-0.649-0.659-1.308-1.318-1.967-0.649-0.649-1.308-1.308-1.308-1.967-0.659-0.649-1.308-1.308-1.967-1.967l-6.561-6.561c0.659 0 0.659 0 1.318 0 0.649 0 0.649 0 1.308 0h9.187v-0.639zM218.425 352.981h-21.324v3.777c0 1.161 0.669 2.351 1.849 2.852l9.383 9.393c0.246 0.236 0.61 0.62 0.708 0.767v1.013l0.6 0.177-0.059 2.213-0.728 0.718 0.039 0.757h-3.049c0.079-0.256 0.118-0.531 0.118-0.816 0-2.016-1.102-3.118-3.108-3.118h-5.085v2.459c0 1.052 0.256 1.849 0.452 2.42 0.138 0.413 0.207 0.62 0.207 0.866v1.023l2.695 2.685c0.757 0.757 2.036 2.026 4.357 2.026 0.039 0.030 0.285 0.118 0.541 0.207 1.82 0.6 3.875 0.925 5.764-0.344 1.229-0.325 2.538-1.121 3.315-1.888 0.669-0.659 1.544-1.534 1.888-2.685 0.807-1.288 0.807-2.833 0.807-3.639s0-2.351-0.807-3.649c-0.344-1.131-1.19-1.987-1.849-2.656-0.285-0.295-0.649-0.649-0.738-0.807v-1.023l-0.61-0.187-4.328-4.318h8.331v-0.649h0.659v-7.574zM273.073 373.164c0 1.318 0.659 1.967 0.659 3.285 0.649 0.649 1.308 1.318 1.967 1.967 0.649 0.649 1.308 1.318 2.626 1.318 0.649 0 1.967 0.649 2.626 0.649 1.318 0 1.967 0 2.626-0.649 0.659 0 1.967-0.659 1.967-1.318 0.659-0.649 1.308-1.318 1.308-1.967 0.659-0.649 0.659-1.967 0.659-2.626s0-1.318 0-1.967c0-0.659-0.659-1.318-0.659-1.318-0.649-0.649-0.649-0.649-1.308-1.318-0.659 0-1.308-0.649-1.967-0.649 1.308-0.649 2.626-1.318 3.934-1.967 0.659-1.318 1.308-1.967 1.308-3.934 0-1.318 0-1.967-0.649-3.285-0.659-0.649-1.318-1.967-1.967-2.626-0.659-0.649-1.318-1.318-2.626-1.318s-1.967-0.649-3.275-0.649c-1.318 0-2.626 0-3.285 0.649-0.659 0.659-1.308 0.659-1.967 1.318s-1.308 1.318-1.308 1.967c-0.659 0.649-0.659 1.967-1.318 2.626l1.318 0.659c0.649 0 0.649 0 1.308 0s0.659 0 0.659-0.659c0 0 0.649-0.649 0.649-1.308s0.659-0.659 0.659-1.318 0.659-0.649 1.318-1.318c0.649 0 1.308-0.649 2.626-0.649 0.659 0 1.318 0 1.967 0.649 0.659 0 1.318 0.659 1.318 1.318 0.649 0.649 0.649 0.649 0.649 1.318 0 0.649 0 1.308 0 1.308 0 0.659 0 1.318 0 1.967 0 0.659-0.649 1.318-0.649 1.318-0.659 0.649-1.318 0.649-1.967 0.649-0.659 0-1.967 0.659-3.285 0.659v1.967c1.318 0 1.967 0 2.626 0.649s1.308 0.649 1.967 0.649c0.659 0.659 0.659 0.659 1.308 1.318 0 0.649 0 1.318 0 1.967s0 1.318-0.649 1.967c0 0.649-0.659 0.649-0.659 1.318-0.659 0.649-0.659 0.649-1.308 0.649-0.659 0-1.318 0-1.967 0-0.659 0-1.318 0-1.967 0-0.659 0-1.318-0.649-1.318-0.649s-0.649-0.659-1.308-1.318-0.659-0.649-0.659-1.318c0-0.649-0.659-0.649-0.659-0.649h-0.669l-0.659 0.669zM280.292 352.332c-1.623 0-3.639 0-5.016 1.367-0.757 0.413-1.367 0.718-1.967 1.318-0.669 0.669-1.544 1.534-1.888 2.695-0.344 0.551-0.531 1.102-0.679 1.544l-2.42 2.41 4.829 2.803h1.898c0.57 0 1.062-0.089 1.475-0.256v5.124l-1.544 0.767c-0.197-0.039-0.393-0.059-0.59-0.059h-1.662l-2.105 2.085v1.023c0 1.052 0.266 1.849 0.452 2.42 0.138 0.423 0.207 0.62 0.207 0.866v1.023l2.695 2.695c0.757 0.757 2.036 2.026 4.357 2.026 0.039 0.030 0.285 0.118 0.541 0.207 1.81 0.6 3.875 0.925 5.774-0.354 1.161-0.315 2.488-1.092 3.069-2.311 0.58-0.6 1.19-1.338 1.456-2.252 0.807-1.288 0.807-2.833 0.807-3.639v-1.967c0-1.544-1.033-2.705-1.377-3.049l1.466-1.77c0.57-1.023 1.22-2.184 1.22-4.377 0-1.426 0-2.547-0.905-4.377l-0.472-0.649c-0.236-0.226-0.443-0.59-0.679-0.934-0.423-0.639-0.856-1.259-1.279-1.682-0.777-0.777-2.046-2.036-4.367-2.036-0.246 0-0.443-0.059-0.866-0.207-0.59-0.197-1.377-0.452-2.429-0.452zM279.417 359.709c0.266-0.089 0.502-0.187 0.708-0.266 0.374-0.148 0.561-0.216 0.826-0.216l0.718 0.718 0.285-0.020 0.472 0.482v2.921c-0.797-0.492-1.367-0.315-1.967-0.148-0.502 0.157-1.062 0.315-1.475 0.315h-1.466c0.256-0.315 0.443-0.698 0.551-1.161 0.266-0.403 0.551-0.934 0.679-1.554 0.197-0.236 0.413-0.57 0.561-0.984 0.020-0.039 0.059-0.069 0.108-0.089zM276.643 371.030h4.161c0.541 0.344 1.111 0.511 1.623 0.59v0.885l-0.718 0.718 0.030 0.649c-0.020 0.030-0.049 0.069-0.079 0.108h-3.334l-0.866-1.21c-0.108-0.718-0.403-1.298-0.816-1.741zM353.815 363.977v-2.626c0 0 0 0-0.659 0h-3.285v-6.561h-2.626v6.561h-11.813c0 0 0 0 0 0.659v1.308l11.813 15.757h2.626v-15.757h3.944v0.659zM347.245 363.977v10.495c0 0.649 0 0.649 0 1.318l-9.197-12.482h9.197v0.669zM352.33 352.332h-7.544v6.551h-11.813v5.252l13.042 17.39h2.4l1.288 1.751 0.167-1.751h2.459v-15.747h3.944v-6.895h-3.944zM414.197 370.538c1.308 0 2.626 0.649 3.275 0.649 1.318 0 2.626 0 3.285-0.649 0.649-0.649 1.967-0.649 2.626-1.318 0.659-0.649 1.318-1.308 1.318-2.626 0.649-0.649 0.649-1.967 0.649-3.285 0-1.308 0-2.626-0.649-3.275-0.659-1.318-1.318-1.967-1.967-2.636-0.659-0.649-1.967-1.308-2.626-1.967-1.308-0.649-1.967-0.649-3.275-0.649-0.659 0-1.318 0-1.967 0-0.659 0-1.318 0.649-1.967 0.649-0.659 0-1.318 0.659-1.318 0.659-0.649 0-0.649 0.649-1.308 0.649l0.659 1.318 0.649 0.649h0.659c0 0 0.659-0.649 1.308-0.649 0.659 0 0.659-0.659 1.318-0.659 0.649 0 1.308 0 1.967 0 0.649 0 1.308 0 2.626 0.659 1.318 0.649 1.318 0.649 1.967 1.308 0.659 0.659 0.659 1.318 1.318 1.967 0 0.659 0.649 1.318 0.649 2.636 0 0.649 0 1.308-0.649 1.967 0 0.649-0.659 1.308-1.318 1.308-0.649 0.659-1.308 0.659-1.967 1.318-0.649 0-1.308 0.649-2.626 0.649-0.659 0-1.318 0-1.967 0-0.659 0-1.318 0-1.967-0.649l-1.967 0.649 1.967 11.813h11.813v-1.308c0-0.659 0-0.659-0.659-1.318s-0.659-0.649-1.308-0.649h-7.879l-0.669-7.21zM416.823 352.332h-1.967c-0.905 0-1.613 0.354-2.085 0.59-0.944 0.049-1.78 0.521-2.331 0.934-0.334 0.128-0.61 0.285-0.816 0.452h-3.334l3.551 6.167 0.718 0.718h2.685l0.718-0.708c0.62-0.069 1.18-0.285 1.554-0.61h1.308c0.482 0 0.728 0 1.515 0.393 0.974 0.492 0.974 0.492 1.338 0.856 0.256 0.482 0.472 0.905 0.757 1.308 0.079 0.275 0.187 0.521 0.266 0.728 0.157 0.374 0.226 0.561 0.226 0.826l-0.708 0.718 0.010 0.256-0.57 0.57c-0.472 0.256-0.885 0.472-1.288 0.748-0.275 0.079-0.521 0.187-0.728 0.266-0.374 0.148-0.561 0.216-0.826 0.216h-1.967l-1.072-1.072-5.636 1.859 2.656 15.944h16.357v-3.767c0-1.525-0.423-2.105-1.387-3.069-0.964-0.954-1.534-1.367-3.049-1.367h-5.636l-0.157-1.692c1.761 0.256 4.023 0.197 5.547-1.328 1.003-0.285 1.898-0.59 2.646-1.338 0.639-0.639 1.692-1.692 1.957-3.482 0.718-1.279 0.718-2.843 0.718-4.151 0-1.485 0-3.315-1.062-4.662-0.777-1.456-1.574-2.262-2.233-2.931-0.482-0.482-1.092-0.915-1.721-1.338-0.334-0.216-0.797-0.531-0.954-0.679l-0.649-0.472c-1.8-0.885-2.921-0.885-4.347-0.885zM479.842 370.538l-0.659-0.649-0.659-0.659c0.659 0.659 1.318 0.659 1.967 0.659 0.659 0 1.318 0 1.977 0 1.308 0 1.967 0 2.626-0.659 0.659 0 1.967-0.649 2.626-1.308s1.308-1.318 1.308-2.636c0-1.308 0.659-1.967 0.659-3.275 0-1.318 0-1.967-0.659-3.285-0.649-1.318-1.308-1.967-1.967-2.626-0.649-0.659-1.308-1.318-2.626-1.967-1.318-0.659-1.967-0.659-3.285-0.659-1.308 0-2.626 0-3.275 0.659-1.318 0.649-1.967 0.649-2.626 1.967-0.659 0.649-1.308 1.308-1.308 2.626s-0.659 1.967-0.659 3.285c0 1.308 0 1.967 0.659 3.275 0.649 1.318 1.308 2.636 1.967 3.934l6.561 8.538 0.649 0.649h3.285l-6.561-7.869zM481.809 357.407c0.659 0 1.308 0 1.967 0.659 0.659 0 1.308 0.649 1.967 1.308s0.659 1.318 1.308 1.967c0 0.659 0.659 1.318 0.659 1.967 0 0.659 0 1.318-0.659 1.967 0 0.659-0.649 1.318-1.308 1.967-0.659 0.659-1.308 0.659-1.967 1.318-0.659 0-1.308 0.649-1.967 0.649s-1.318 0-1.967-0.649c-0.659 0-1.318-0.649-1.967-1.318-0.659-0.649-0.659-1.308-1.318-1.967 0-0.649-0.649-1.308-0.649-1.967 0-0.649 0-1.308 0.649-1.967 0-0.649 0.659-1.308 1.318-1.967 0.649-0.649 0.649-0.649 1.308-1.308s1.967-0.659 2.626-0.659zM481.15 351.014c-1.475 0-3.275 0-4.623 1.023l-0.413 0.197c-0.885 0.393-1.987 0.866-2.872 2.38-0.757 0.787-1.78 2.016-1.78 4.111 0 0.246-0.059 0.443-0.207 0.866-0.197 0.58-0.452 1.367-0.452 2.42 0 1.436 0 2.557 0.925 4.377l1.967 3.934 8.4 10.544h9.551l-7.21-8.656c0.58-0.108 1.151-0.305 1.702-0.689 1.229-0.315 2.528-1.102 3.295-1.859 0.777-0.787 2.036-2.056 2.036-4.377 0-0.236 0.059-0.443 0.207-0.856 0.197-0.58 0.452-1.367 0.452-2.42 0-1.426 0-2.547-0.915-4.377-0.826-1.682-1.721-2.567-2.439-3.275-0.639-0.649-1.554-1.574-3.266-2.42-1.8-0.925-2.931-0.925-4.357-0.925zM479.094 361.518c0.118 0 0.334-0.216 0.492-0.384l1.328-1.318c0.030 0.049 0.679 0.049 0.895 0.049l0.718 0.728 1.151-0.059c-0.207 0.049 0.108 0.354 0.325 0.57 0.266 0.492 0.482 0.915 0.767 1.318 0.128 0.413 0.295 0.748 0.423 1.023l-0.728 0.718 0.118 1.003c-0.069-0.148-0.374 0.157-0.57 0.344-0.482 0.266-0.905 0.492-1.308 0.767-0.403 0.128-0.748 0.285-1.003 0.423l0.108 0.069c-0.138 0-0.266 0.010-0.403-0.010l-0.718-0.718-0.748 0.069c0.187-0.059-0.148-0.403-0.315-0.58-0.266-0.492-0.492-0.915-0.777-1.318-0.128-0.403-0.285-0.738-0.413-1.003l0.708-0.718-0.108-1.013c0.010 0.030 0.030 0.039 0.059 0.039zM563.2 379.734v-1.318c0-0.649 0-0.649 0-0.649v-0.659l-10.495-21-0.659-0.659c0 0-0.649 0-1.308 0h-1.967l10.495 20.35c0 0 0 0.649 0.659 0.649 0.649 0 0.649 0.649 0.649 0.649h-13.78c0 0 0 0 0 0.659v1.967h16.406zM553.060 352.981h-8.331l11.174 21.659h-11.567v7.554h21.324l-0.256-6.187-11.626-22.308zM630.822 367.912c1.308-0.659 2.626-1.318 3.275-1.967 0.659-1.318 1.318-2.636 1.318-3.934 0-1.318 0-1.967-0.649-2.636-0.659-0.649-0.659-1.308-1.977-1.967-1.308-0.649-1.308-1.308-2.626-1.308s-1.967-0.659-3.275-0.659c-1.328 0-2.636 0-3.285 0.659-0.649 0.649-1.977 0.649-2.636 1.308-0.649 0.659-1.308 1.318-1.957 1.967-0.659 0.659-0.659 1.967-0.659 2.636 0 1.308 0.659 2.626 1.318 3.934 0.649 1.308 1.957 1.967 3.285 1.967-1.328 0.649-1.977 1.308-2.636 1.967-0.649 0.649-1.308 1.967-1.308 3.275 0 0.659 0 1.967 0.649 2.636 0.649 0.649 0.649 1.308 1.308 1.967 0.649 0.649 1.318 1.308 2.636 1.308 0.649 0.659 1.957 0.659 3.285 0.659 1.308 0 1.957 0 3.275-0.659 0.659 0 1.967-0.649 2.626-1.308 0.649-0.659 1.318-1.318 1.318-1.967 0.659-0.659 0.659-1.318 0.659-2.636 0-1.308-0.659-2.626-1.328-3.275 0.010-0.659-1.308-1.308-2.616-1.967zM627.537 357.407c0.649 0 1.308 0 1.957 0.659 0.659 0.649 1.328 0.649 1.328 0.649 0.649 0.649 0.649 0.649 1.308 1.318 0 0.649 0.649 1.308 0.649 1.967 0 0.649 0 1.308-0.649 1.967-0.649 0.649-0.649 1.308-1.308 1.308s-1.328 0.659-1.977 0.659-1.308 0-1.957 0c-0.659 0-1.328 0-1.977 0s-1.308-0.659-1.957-0.659c-0.659-0.649-0.659-0.649-1.328-1.308-0.649-0.659-0.649-1.318-0.649-1.967 0-0.659 0-1.318 0.649-1.967 0-0.659 0.659-1.318 1.328-1.318 0.649-0.649 0.649-0.649 1.308-0.649 1.298-0.659 2.626-0.659 3.275-0.659zM627.537 377.757c-0.649 0-1.318 0-1.977 0-0.649 0-1.308-0.659-1.308-0.659-0.649-1.308-0.649-1.308-1.308-1.967 0-0.649 0-1.308 0-1.308 0-0.659 0-1.318 0-1.318l0.649-1.318c0.649-0.649 0.649-0.649 1.308-0.649s1.318-0.649 1.977-0.649c0.649 0 1.308 0 1.957 0.649 0.649 0 1.318 0.649 1.318 0.649 0.659 0.659 0.659 0.659 0.659 1.318s0 1.318 0 1.318c0 0.649 0 1.308 0 1.308 0 0.659-0.659 0.659-0.659 1.318s-0.659 0.649-1.308 0.649-0.649 0.659-1.308 0.659zM626.888 352.981c-1.633 0-3.659 0-5.036 1.397-0.993 0.256-1.879 0.561-2.626 1.298l-1.957 1.967c-1.387 1.387-1.387 3.403-1.387 4.367 0 1.859 0.816 3.511 1.544 4.977 0.246 0.511 0.57 0.974 0.934 1.387-1.102 1.22-1.82 3.079-1.82 4.79 0 0.974 0 2.98 1.367 4.357 0.403 0.748 0.698 1.357 1.308 1.967 0.659 0.659 1.711 1.711 3.502 1.967 1.279 0.728 2.843 0.728 4.161 0.728s2.37 0 3.974-0.728c1.328-0.246 2.813-1.111 3.659-1.957 0.679-0.689 1.505-1.525 1.859-2.626 0.836-1.2 0.836-2.479 0.836-3.718 0-1.564-0.6-3.246-1.554-4.465-0.089-0.207-0.197-0.393-0.315-0.57 0.177-0.148 0.334-0.285 0.492-0.443l0.462-0.629c0.738-1.466 1.574-3.128 1.574-5.046 0-1.456 0-2.98-1.367-4.357-0.698-1.023-1.288-1.77-2.626-2.439-0.266-0.128-0.413-0.246-0.62-0.423-0.718-0.58-1.544-1.141-3.098-1.141-0.246 0-0.443-0.059-0.856-0.207-0.57-0.187-1.357-0.452-2.41-0.452zM624.655 360.495l0.708-0.226c0.777-0.393 1.652-0.393 2.174-0.393 0.757 0.61 1.475 0.944 2.066 1.111l0.275 0.285c0.118 0.334 0.256 0.62 0.374 0.846-0.197 0.334-0.364 0.629-0.502 0.875-0.423 0.128-0.767 0.295-1.033 0.433l-3.541 0.069c-0.325-0.167-0.649-0.315-1.003-0.443l-0.826-0.816 0.089-0.62 1.22-1.121zM693.181 364.626c0 0.649 0.649 0.649 0.649 0.649l0.649 0.659c-0.649-0.659-1.308-0.659-1.967-1.318-0.649 0-1.318-0.649-2.626-0.649-0.649 0-1.967 0-2.636 0.649-0.649 0-1.308 0.649-1.957 1.318-0.659 0.649-1.318 1.308-1.318 1.967 0 0.649-0.659 1.967-0.659 3.275 0 1.318 0 1.967 0.659 3.285 0.649 0.649 0.649 1.967 1.967 2.626 0.649 0.659 1.308 1.318 2.626 1.967 1.318 0.659 1.967 0.659 3.285 0.659s1.967 0 3.275-0.659c0.659-0.649 1.977-0.649 2.636-1.308 0.649-0.659 1.308-1.318 1.308-2.636 0.659-0.649 0.659-1.967 0.659-3.275 0-0.659 0-1.318 0-1.967 0-0.659 0-1.318-0.659-1.967 0-0.659-0.649-1.318-0.649-1.967-0.649-0.659-0.649-1.318-1.308-1.967l-5.921-8.538-0.649-0.649h-3.285l5.921 9.846zM686.611 372.505c0-0.649 0-1.318 0.649-1.967 0.659-0.649 0.659-1.318 0.659-1.318 0.649-0.649 0.649-0.649 1.318-0.649 0.649 0 1.308-0.649 1.957-0.649 0.659 0 1.318 0 1.977 0.649 0.649 0 1.308 0.649 1.308 1.318 0.649 0.649 0.649 0.649 1.318 1.308 0.659 0.659 0.659 1.318 0.659 1.967 0 0.659 0 1.318-0.659 1.967 0 0.659-0.659 1.318-1.318 1.318s-0.649 0.649-1.308 1.318c-0.659 0-1.318 0.649-1.977 0.649-0.649 0-1.308 0-1.957-0.649-0.659 0-1.318-0.659-1.318-1.318s-0.659-0.649-1.318-1.318c0.010-1.308 0.010-1.967 0.010-2.626zM691.568 352.332h-8.656l5.567 9.256c-0.708 0.089-1.505 0.285-2.233 0.728-1.161 0.344-2.036 1.22-2.695 1.898-0.846 0.826-2.026 1.997-2.026 3.698-0.364 1.141-0.659 2.154-0.659 3.275 0 1.436 0 2.557 0.925 4.387l0.462 0.629c0.354 0.856 0.895 2.046 2.203 2.852 0.659 0.669 1.525 1.446 3.039 2.203 1.829 0.925 2.951 0.925 4.377 0.925s2.557 0 4.387-0.934l0.62-0.443c1.013-0.275 1.898-0.58 2.646-1.318 0.669-0.679 1.702-1.721 1.957-3.492 0.728-1.279 0.728-2.843 0.728-4.151v-1.967c0-0.689 0-1.869-0.826-3.059-0.128-0.403-0.285-0.738-0.423-1.003v-1.013l-0.777-0.61c-0.403-0.757-0.698-1.367-1.318-1.977l-7.298-9.885zM690.014 370.931c0.58-0.128 1.003-0.334 1.308-0.492l0.718 0.708 0.207-0.030 1.829 1.82-0.079 0.62-0.629 0.62c-0.885 0.334-1.387 1.013-1.643 1.426-0.236 0.098-0.452 0.207-0.62 0.285l0.108 0.069c-0.138 0-0.256 0.010-0.393-0.010l-0.62-0.62c-0.256-0.698-0.738-1.151-1.121-1.446v-1.377c0.443-0.551 0.738-1.092 0.934-1.574zM762.76 357.407v-2.626h-13.131v2.626h5.252v17.065c0 0.649 0 1.318 0 1.318l-4.603-3.934c0 0 0 0-0.649 0 0 0 0 0-0.659 0 0 0 0 0-0.649 0s0 0 0 0l-0.649 1.308 7.22 6.57h2.626v-22.327h5.243zM765.219 352.332h-18.049v7.534h5.262v10.583l-1.229-1.052h-4.406l-2.164 4.328 9.305 8.469h6.029v-22.327h5.252zM784.409 367.253c0-1.967 0-3.934-0.649-5.911-0.649-1.308-1.308-2.626-1.957-3.934-0.659-1.308-1.977-1.967-2.636-2.626-1.308-0.649-1.967-0.649-3.285-0.649-1.308 0-2.626 0-3.285 0.649-1.308 0.649-1.957 1.318-2.616 2.626-0.659 1.318-1.328 2.636-1.977 3.934-0.649 1.318-0.649 3.285-0.649 5.911 0 1.967 0 3.934 0.649 5.911 0.649 1.318 1.318 2.636 1.977 3.934 0.649 1.318 1.957 1.967 2.616 2.636 1.328 0.649 1.977 0.649 3.285 0.649 1.318 0 2.636 0 3.285-0.649 1.308-0.659 1.967-1.318 2.636-2.636 0.649-1.308 1.308-2.626 1.957-3.934 0.649-1.977 0.649-3.275 0.649-5.911zM781.133 367.253c0 1.967 0 3.285-0.659 4.603-0.649 1.308-0.649 2.626-1.308 3.275-0.649 0.659-1.308 1.318-1.967 1.967-0.659 0.659-1.318 0.659-1.967 0.659s-1.308 0-1.967-0.659c-0.659-0.649-1.318-0.649-1.967-1.967-0.649-0.649-0.649-1.967-1.308-3.275-0.659-1.318-0.659-2.636-0.659-4.603s0-3.275 0.659-4.593c0.649-1.318 0.649-2.626 1.308-3.285 0.649-0.649 1.308-1.308 1.967-1.967 0.659-0.649 1.318-0.649 1.967-0.649s1.308 0 1.967 0.649c0.659 0.659 1.318 0.659 1.967 1.967 0.649 0.659 0.649 1.967 1.308 3.285s0.659 2.626 0.659 4.593zM775.881 351.673c-1.485 0-3.315 0-4.672 1.052-1.603 0.856-2.587 1.879-3.433 3.58l-1.977 3.934c-0.915 1.839-0.915 4.111-0.915 7.003 0 2.036 0 4.328 0.777 6.688l2.125 4.279c0.689 1.407 1.82 2.262 2.557 2.833 0.187 0.157 0.364 0.275 0.502 0.413l0.659 0.482c1.839 0.905 2.961 0.905 4.367 0.905 1.495 0 3.325 0 4.682-1.062 1.613-0.875 2.597-1.888 3.443-3.57l1.957-3.944c0.915-2.675 0.915-4.318 0.915-7.013 0-2.036 0-4.328-0.777-6.688l-2.095-4.259c-0.718-1.426-1.849-2.282-2.597-2.862-0.197-0.148-0.364-0.266-0.502-0.403l-0.639-0.462c-1.82-0.905-2.941-0.905-4.377-0.905zM775.025 375.298c-0.059 0-0.128 0-0.197-0.010-0.197-0.285-0.531-0.521-0.866-0.748-0.325-0.207-0.334-0.207-0.482-0.511l-0.462-0.639c0.039-0.020-0.010-0.266-0.089-0.531-0.187-0.659-0.393-1.387-0.757-2.105-0.384-0.767-0.403-1.633-0.403-3.502 0-1.859 0.020-2.725 0.403-3.482 0.364-0.738 0.58-1.456 0.757-2.115 0.079-0.256 0.177-0.61 0.226-0.708l1.829-1.8 0.62 0.079c0.187 0.266 0.531 0.511 0.875 0.748 0.315 0.207 0.325 0.216 0.472 0.502l0.452 0.629c-0.059-0.049 0.010 0.246 0.098 0.551 0.187 0.649 0.393 1.377 0.757 2.105 0.384 0.767 0.403 1.633 0.403 3.492 0 1.869-0.020 2.734-0.403 3.492-0.364 0.728-0.58 1.446-0.757 2.115-0.079 0.256-0.128 0.511-0.216 0.698l-1.829 1.79-0.236-0.049c-0.059 0-0.128 0-0.197 0zM829.063 357.407v-2.626h-13.131v2.626h5.252v17.065c0 0.649 0 1.318 0 1.318l-4.593-3.934c0 0 0 0-0.659 0 0 0 0 0-0.659 0 0 0 0 0-0.649 0s0 0 0 0l-0.649 1.308 7.22 6.57h2.626v-22.327h5.243zM831.522 352.332h-18.049v7.534h5.252v10.574l-1.22-1.043h-4.406l-2.174 4.328 9.305 8.469h6.029v-22.327h5.262zM849.404 357.407v-2.626h-13.121v2.626h5.243v17.065c0 0.649 0 1.318 0 1.318l-4.593-3.934c0 0 0 0-0.649 0 0 0 0 0-0.659 0 0 0 0 0-0.649 0-0.659 0 0 0 0 0l-0.659 1.308 7.22 6.57h2.636v-22.327h5.233zM851.863 352.332h-18.039v7.534h5.243v10.574l-1.22-1.043h-4.387l-2.203 4.318 9.315 8.478h6.049v-22.327h5.243zM896.006 357.407v-2.626h-13.121v2.626h5.243v17.065c0 0.649 0 1.318 0 1.318l-4.593-3.934c0 0 0 0-0.649 0 0 0 0 0-0.659 0 0 0 0 0-0.649 0-0.659 0 0 0 0 0l-0.659 1.308 7.22 6.57h2.636v-22.327h5.233zM898.465 352.332h-18.039v7.534h5.243v10.574l-1.22-1.043h-4.387l-2.203 4.318 9.324 8.478h6.039v-22.327h5.243zM915.048 358.066c0.649 0 0.649 0 0.649 0v-2.626h-16.406v1.308c0 0 0 0.649 0.649 0.649l7.879 7.879c0.659 0.659 1.318 1.318 1.977 1.967 0.649 0.659 1.308 1.318 1.308 1.967 0.649 0.659 0.649 1.318 0.649 1.967 0 0.659 0 1.318 0 1.967 0 0.659 0 1.318-0.649 1.967-0.649 0.659-0.649 1.318-0.649 1.318-0.649 0.649-0.649 0.649-1.318 0.649-0.649 0-1.318 0-1.967 0s-1.308 0-1.967 0c-0.649 0-1.318-0.649-1.318-0.649-0.649 0-0.649-0.649-1.308-1.318-0.649-0.649-0.649-0.649-0.649-1.308s0-0.659-0.659-0.659c0 0-0.649 0-1.318 0h-1.308c0 1.318 0.649 1.967 0.649 3.285 0.649 0.649 1.318 1.318 1.967 1.967 0.659 0.649 1.318 1.318 2.626 1.318 0.659 0 1.977 0.649 2.636 0.649 1.308 0 1.967 0 2.626-0.649 0.659 0 1.967-0.659 2.626-1.318 0.659-0.649 1.318-1.318 1.318-1.967 0.659-0.649 0.659-1.967 0.659-2.626s0-1.967-0.659-2.636c0-0.649-0.649-1.308-1.318-1.967-0.649-0.649-1.308-1.308-1.308-1.967-0.649-0.649-1.318-1.308-1.967-1.967l-6.561-6.561c0.649 0 0.649 0 1.308 0s0.649 0 1.318 0h10.495v-0.639zM918.156 352.981h-21.324v3.285h-0.846l0.866 0.875c0.138 1.023 0.777 2.016 1.82 2.469l9.403 9.393c0.236 0.246 0.61 0.62 0.689 0.757v1.013l0.6 0.187-0.059 2.213c-0.413 0.521-0.698 1.023-0.895 1.475h-3.147c-0.216-0.364-0.492-0.777-0.905-1.21-0.187-1.82-1.269-2.725-3.088-2.725h-5.085v2.459c0 1.052 0.256 1.849 0.452 2.42 0.148 0.413 0.207 0.62 0.207 0.866v1.023l2.685 2.685c0.797 0.787 2.066 2.036 4.357 2.036 0.049 0.030 0.295 0.128 0.561 0.207 1.8 0.61 3.875 0.925 5.754-0.354 1.22-0.315 2.538-1.111 3.305-1.879 0.629-0.62 1.525-1.505 1.879-2.675 0.816-1.308 0.816-2.902 0.816-3.649 0-0.816 0-2.361-0.816-3.659-0.344-1.141-1.21-2.007-1.879-2.675-0.236-0.236-0.61-0.61-0.698-0.757v-1.023l-0.61-0.197-4.328-4.328h9.639v-0.649h0.649v-7.583zM970.847 357.407v-2.626h-13.131v2.626h5.252v17.065c0 0.649 0 1.318 0 1.318l-4.603-3.934c0 0 0 0-0.649 0 0 0 0 0-0.649 0 0 0 0 0-0.649 0-0.659 0 0 0 0 0l-0.659 1.308 7.22 6.57h2.626v-22.327h5.243zM973.306 352.332h-18.049v7.534h5.252v10.583l-1.229-1.052h-4.387l-2.193 4.318 9.315 8.478h6.029v-22.327h5.262zM975.44 373.164c0 1.318 0.649 1.967 0.649 3.285 0.649 0.649 1.308 1.318 1.967 1.967 0.649 0.649 1.318 1.318 2.626 1.318 0.649 0 1.967 0.649 3.285 0.649 1.308 0 1.967 0 2.626-0.649 0.659 0 1.967-0.659 1.967-1.318 0.649-0.649 1.318-1.318 1.318-1.967 0.649-0.649 0.649-1.967 0.649-2.626s0-1.318 0-1.967c0-0.659-0.649-1.318-0.649-1.318-0.659-0.649-0.659-0.649-1.318-1.318-0.649 0-1.308-0.649-1.967-0.649 1.318-0.649 2.626-1.318 3.934-1.967 0.659-1.318 1.318-1.967 1.318-3.934 0-1.318 0-1.967-0.649-3.285-0.659-0.649-1.318-1.967-1.977-2.626-0.649-0.649-1.308-1.318-2.626-1.318s-1.967-0.649-3.275-0.649c-1.318 0-2.636 0-3.285 0.649-0.649 0-1.967 0.659-2.636 1.318-0.649 0.649-1.308 1.318-1.308 1.967-0.649 0.649-0.649 1.967-1.318 2.626l1.318 0.659c0.649 0 0.649 0 1.308 0s0.659 0 0.659-0.659c0 0 0.649-0.649 0.649-1.308s0.659-0.659 0.659-1.318 0.649-0.649 1.308-1.318c0.649-0.649 1.318-0.649 2.636-0.649 0.649 0 1.308 0 1.957 0.649 0.659 0.659 1.318 0.659 1.318 1.318 0.659 0.649 0.659 0.649 0.659 1.318 0 0.649 0 1.308 0 1.308 0 0.659 0 1.318 0 1.967 0 0.659-0.659 1.318-0.659 1.318-0.649 0.649-1.318 0.649-1.967 0.649s-1.967 0.659-3.285 0.659v1.967c1.318 0 1.977 0 2.636 0.649 0.649 0 1.308 0.649 1.967 0.649 0.649 0.659 0.649 0.659 1.318 1.318 0 0.649 0 1.318 0 1.967s0 1.318-0.659 1.967c0 0.649-0.649 0.649-0.649 1.318-0.659 0.649-0.659 0.649-1.318 0.649s-1.308 0-1.967 0c-0.649 0-1.318 0-1.967 0s-1.308-0.649-1.308-0.649c-0.659 0-0.659-0.659-1.318-1.318-0.659-0.649-0.659-0.649-0.659-1.318 0-0.649-0.649-0.649-0.649-0.649h-0.649l-0.669 0.669zM983.319 352.332c-1.348 0-2.97 0-4.269 0.787-1.338 0.325-2.695 1.22-3.384 1.888-0.679 0.679-1.544 1.544-1.888 2.695-0.334 0.551-0.521 1.092-0.669 1.544l-2.439 2.4 4.839 2.813h1.888c0.57 0 1.052-0.089 1.475-0.256v5.449l-1.131 0.561c-0.325-0.108-0.659-0.167-1.003-0.167h-1.672l-2.095 2.095v1.023c0 1.052 0.256 1.849 0.452 2.42 0.148 0.413 0.207 0.62 0.207 0.866v1.023l2.695 2.695c0.748 0.748 2.026 2.026 4.347 2.026 2.41 0.738 4.682 1.387 6.944-0.148 1.22-0.305 2.508-1.131 3.079-2.311 0.58-0.61 1.19-1.348 1.466-2.262 0.807-1.288 0.807-2.833 0.807-3.639v-1.967c0-1.554-1.033-2.715-1.367-3.059l0.728-0.364 0.718-1.387c0.58-1.023 1.229-2.184 1.229-4.387 0-1.426 0-2.547-0.915-4.377l-0.472-0.649c-0.157-0.157-0.452-0.61-0.669-0.934-0.393-0.59-0.797-1.19-1.308-1.692-0.757-0.757-2.026-2.026-4.347-2.026-0.246 0-0.452-0.059-0.866-0.207-0.541-0.197-1.328-0.452-2.38-0.452zM981.667 359.777c0.246-0.177 0.511-0.374 0.767-0.639-0.059 0.079 0.462 0.079 0.885 0.079 0.325 0.187 0.6 0.344 0.816 0.482v0.059l0.659 0.649v2.911c-0.816-0.492-1.377-0.305-1.967-0.148-0.511 0.157-1.072 0.315-1.485 0.315h-1.466c0.256-0.315 0.443-0.698 0.551-1.161 0.266-0.403 0.551-0.934 0.679-1.544 0.197-0.246 0.423-0.58 0.561-1.003zM983.162 371.138l0.816-0.108c0.167 0.148 0.403 0.295 0.708 0.413l0.118 0.118v0.944l-0.728 0.718 0.039 0.649c-0.030 0.039-0.049 0.069-0.079 0.108h-3.285c-0.226-0.374-0.502-0.797-0.925-1.229-0.118-0.708-0.403-1.298-0.816-1.731l4.151 0.118zM9.331 414.415l30.197-23.639-12.12-15.482-30.197 23.639 12.12 15.482zM26.946 434.359l13.009-14.758-27.56-24.294-13.009 14.758 27.56 24.294zM64.828 417.799h14.754v-25.603h-14.754v25.603zM133.758 417.799h14.754v-25.603h-14.754v25.603zM203.336 417.799h14.754v-25.603h-14.754v25.603zM272.915 417.799h14.754v-25.603h-14.754v25.603zM341.835 417.799h14.754v-25.603h-14.754v25.603zM411.424 417.799h14.754v-25.603h-14.754v25.603zM481.002 417.799h14.754v-25.603h-14.754v25.603zM549.932 417.799h14.754v-25.603h-14.754v25.603zM619.511 417.799h14.754v-25.603h-14.754v25.603zM689.089 417.799h14.754v-25.603h-14.754v25.603zM758.009 417.799h14.754v-25.603h-14.754v25.603zM827.588 417.799h14.754v-25.603h-14.754v25.603zM897.167 417.799h14.754v-25.603h-14.754v25.603zM966.087 417.799h14.754v-25.603h-14.754v25.603zM909.517 473.431l17.594-8.797-17.067-34.133-17.594 8.797 17.067 34.133zM881.643 468.234l28.879-22.307-12.025-15.568-28.879 22.307 12.025 15.568z" />
<glyph unicode="&#xe919;" glyph-name="openarray" horiz-adv-x="939" d="M905.018 923.236v-614.044h-580.947v614.044h580.947zM941.782 960h-654.475v-687.572h654.484v687.572h-0.010zM594.324 533.481v-34.926h-152.589v34.926h56.984v161.78c0 5.515 0 12.867 0 20.23l-40.44-33.088c-1.838-1.838-3.676-3.676-7.353-3.676-1.838 0-3.676 0-5.515 0s-3.676 1.838-5.515 1.838c-1.838 1.838-1.838 1.838-3.676 3.676l-14.706 20.22 84.567 71.699h38.612v-242.671h49.631zM805.746 542.672c5.515 0 9.191-1.838 12.867-3.676 3.686-3.676 3.686-7.353 3.686-11.029v-27.573h-189.363v16.544c0 3.676 0 7.353 1.838 9.191 1.829 3.676 3.667 7.353 5.505 9.191l84.567 84.567c7.353 7.353 12.877 14.706 18.382 20.23 5.515 5.515 11.029 12.867 14.715 20.22 3.667 5.515 7.353 12.867 9.191 20.23 1.829 7.353 3.667 12.867 3.667 20.22s-1.829 12.867-3.667 18.382c-1.838 5.515-5.524 9.191-7.362 12.867-3.676 3.676-7.362 5.515-12.867 7.353-5.515 1.838-11.029 1.838-16.553 1.838s-11.029 0-16.553-1.838c-5.505-1.838-9.191-3.676-12.858-7.353-3.686-3.676-7.362-5.515-9.191-9.191-1.838-3.676-3.686-7.353-5.524-12.867-1.829-5.515-5.505-9.191-9.191-11.029-3.676-1.838-9.191-1.838-14.696-1.838l-25.744 3.676c1.829 12.867 5.515 25.735 11.029 34.926 5.524 9.191 12.877 18.382 20.23 25.735 7.362 7.353 18.382 11.029 27.573 14.706 11.029 3.676 22.068 5.515 34.935 5.515s23.897-1.838 34.935-5.515 20.23-9.191 27.573-16.544 12.867-14.706 18.382-25.735 5.515-20.23 5.515-33.088c0-11.029-1.838-20.22-3.676-27.573-3.686-9.191-7.362-16.544-12.877-25.735-5.505-7.353-11.029-14.706-18.382-23.897-7.353-7.353-14.696-14.706-22.058-22.058l-62.508-64.346c5.515 1.838 12.877 3.676 18.382 3.676 5.515 0 11.029 1.838 16.544 1.838h73.557zM537.331 140.059c1.838 12.867 5.515 25.735 11.029 34.926 5.505 9.191 12.867 18.382 20.23 25.744 7.353 7.362 18.382 11.029 27.573 14.706s22.058 5.505 34.926 5.505c12.877 0 23.897-1.829 34.926-5.505 11.029-3.686 18.392-9.191 25.754-14.706 7.353-7.362 12.858-14.706 16.544-22.058 3.676-9.191 5.505-18.382 5.505-27.573s-1.829-16.553-3.667-23.906c-1.838-7.353-5.524-12.858-9.191-18.382-3.686-5.505-9.191-9.191-14.715-12.867-5.505-3.676-11.029-5.515-18.382-9.191 16.553-5.515 29.421-12.867 36.764-23.897 7.362-11.029 12.877-23.887 12.877-40.44 0-14.706-1.838-25.744-7.353-36.774-5.524-11.029-12.877-20.22-20.23-27.573-7.362-7.353-18.382-12.867-29.421-16.544-11.029-3.686-23.897-5.515-36.764-5.515-14.706 0-25.744 1.829-36.764 5.515-11.029 3.676-20.23 7.353-27.573 14.706-7.362 7.353-14.715 14.706-20.23 23.897s-9.191 20.23-14.715 31.249l20.23 9.191c5.524 1.838 11.029 3.676 14.715 1.838 5.505-1.838 9.191-3.676 11.029-7.362 1.829-3.676 5.515-9.191 7.362-12.867 1.829-3.676 5.505-7.362 9.191-11.029 3.667-3.686 9.191-5.524 12.867-7.362 5.515-1.829 11.029-3.676 18.382-3.676s14.706 1.838 20.22 3.676c5.524 1.829 11.029 5.515 14.715 11.029 3.667 3.686 7.353 9.191 9.191 14.715 1.829 5.505 3.667 11.029 3.667 16.544 0 7.353 0 12.877-1.829 18.382-1.829 5.515-3.676 9.191-9.191 14.706s-11.029 7.362-18.382 9.191-12.867-3.676-25.744-3.676v33.088c11.029 0 22.068 1.829 29.421 3.676s12.877 5.515 18.382 9.191c3.686 3.686 7.353 7.353 9.191 12.877 1.838 5.505 1.838 11.029 1.838 16.544 0 12.867-3.686 22.058-11.029 29.421-7.353 7.353-16.544 11.029-29.421 11.029-5.505 0-11.029 0-14.696-1.838-5.515-1.838-9.191-3.686-12.877-7.362-3.676-3.676-7.353-5.515-9.191-9.191s-3.676-7.362-5.505-12.867c-1.838-5.515-5.524-9.191-9.191-11.029-3.686-1.838-9.191-1.838-14.715-1.838l-25.754 3.686zM2.348 774.323c5.515 5.515 11.029 9.191 16.544 14.706 5.515 3.676 12.867 7.353 20.22 11.029s14.706 5.515 23.897 7.353 18.382 3.676 27.573 3.676c12.867 0 25.744-1.838 36.774-5.515s22.058-9.201 29.411-16.544c7.353-7.353 14.706-16.544 20.23-25.744 5.515-9.191 7.353-22.058 7.353-34.926s-1.838-23.897-5.515-33.088-9.191-16.544-14.706-23.897c-5.515-7.353-12.867-12.867-18.382-18.382-7.353-5.515-12.867-9.191-20.22-14.706s-11.029-9.191-14.706-12.867c-3.676-3.676-7.353-9.191-7.353-14.706l-3.676-38.602h-31.259l-3.676 42.288c0 7.353 0 14.706 3.676 20.22s7.353 11.029 14.706 16.544c5.515 5.515 12.867 9.191 18.382 14.706 7.353 5.515 12.867 11.029 20.22 16.544 5.515 5.515 11.029 12.867 14.706 20.22s5.515 16.544 5.515 27.583c0 7.353-1.838 14.706-3.676 20.22-3.676 5.515-7.353 11.029-11.029 14.706-5.515 3.676-11.029 7.353-16.544 9.191-7.353 1.838-12.867 3.676-22.058 3.676-11.029 0-18.382-1.838-25.735-3.676s-12.867-5.515-18.382-9.191c-5.515-3.676-9.191-5.515-12.867-9.191-3.676-1.838-5.515-3.676-7.353-3.676-3.676 0-7.353 1.838-9.191 5.515l-12.877 16.534zM51.98 472.811c0 3.676 0 9.191 1.838 12.867s3.676 7.353 7.353 9.191c3.676 1.838 5.515 5.515 9.191 7.353s7.353 1.838 12.867 1.838c5.515 0 9.191 0 12.867-1.838s7.353-3.676 9.191-7.353c1.838-3.676 5.515-5.515 7.353-9.191s1.838-7.353 1.838-12.867c0-3.676 0-9.201-1.838-12.867s-3.676-7.353-7.353-9.191c-3.676-3.676-5.515-5.515-9.191-7.353s-7.353-1.838-12.867-1.838c-5.515 0-9.201 0-12.867 1.838-3.676 1.829-7.353 3.676-9.191 7.353-3.676 3.676-5.515 5.515-7.353 9.191 0 5.515-1.838 9.191-1.838 12.867z" />
<glyph unicode="&#xe91a;" glyph-name="areamodels" horiz-adv-x="821" d="M789.852 911.302v-732.778h-562.572v732.778h562.572zM814.92 934.593h-614.516v-779.351h614.516v779.351zM399.814 936.38h9.66v-779.351h-9.66v779.351zM605.86 936.38h9.66v-779.351h-9.66v779.351zM203.989 749.51h612.729v-9.66h-612.729v9.66zM203.989 550.642h612.729v-9.66h-612.729v9.66zM203.989 353.57h612.729v-9.66h-612.729v9.66zM146.654 542.227v-12.539c0-1.797 0-1.797-1.787-3.584 0-1.797-1.797-1.797-3.584-1.797h-21.504v-46.582h-19.707v46.582h-78.838c-1.787 0-3.584 0-3.584 1.797-1.797 1.787-1.797 1.787-1.797 3.584l-1.787 10.752 87.784 116.456h21.504v-114.669h23.301zM100.072 542.227v75.254c0 1.787 0 5.371 0 7.168s0 5.381 0 7.168l-66.29-89.581 66.29-0.010zM458.385 71.042c1.806 8.965 3.594 16.114 7.158 21.504 3.584 7.158 7.187 10.742 12.558 16.133 5.371 3.574 10.742 7.158 17.91 8.955 7.158 1.797 14.326 3.584 21.494 3.584s14.336-1.797 21.514-3.584c7.178-1.787 12.549-5.381 16.133-8.955 5.362-3.594 8.965-8.974 10.733-14.326 1.816-5.39 3.584-12.549 3.584-19.717 0-5.381 0-10.733-1.797-14.317-1.806-5.381-3.584-8.965-5.381-12.549-1.816-3.584-5.381-5.39-8.965-8.965-3.574-1.787-8.965-3.584-12.549-5.381 12.549-3.584 19.698-8.965 26.885-16.123 5.381-7.168 8.946-16.123 8.946-26.866 0-8.965-1.787-16.133-5.381-21.514-3.565-7.158-7.149-12.539-12.539-16.123-5.39-5.381-12.539-8.965-19.707-10.742-7.168-1.806-14.336-3.594-23.291-3.594-8.965 0-17.91 1.797-25.078 3.594-7.178 1.806-12.558 5.371-17.91 8.955-5.39 3.584-8.965 8.965-10.752 14.326-1.797 5.381-5.381 12.549-7.149 17.91l8.955 3.584c1.787 1.797 5.371 1.797 7.158 0 1.816 0 3.584-1.806 5.381-3.584 1.806-1.797 1.806-5.381 3.584-8.965 1.797-3.584 3.574-7.168 7.158-8.965 3.594-3.574 7.168-5.381 10.742-7.168 3.584-1.797 10.752-3.574 16.133-3.574s12.549 1.806 16.123 3.574c3.574 1.816 8.965 5.4 12.539 7.168 3.594 3.584 5.381 7.168 7.178 10.733 1.787 3.603 1.787 7.187 1.787 12.549 0 5.381 0 8.974-1.787 12.558-1.806 3.574-3.584 7.158-7.178 10.742-3.574 3.584-8.965 5.381-14.317 7.168-5.39 1.797-14.326 1.797-23.301 1.797v16.133c7.168 0 14.336 1.797 19.717 1.797 5.381 1.787 8.965 3.565 12.549 7.158 3.565 3.574 5.371 5.371 7.168 10.742 1.797 3.584 1.797 8.955 1.797 12.539 0 5.39 0 8.965-1.797 14.326-1.816 5.381-3.603 7.168-7.168 8.965-3.584 1.797-5.381 3.584-10.742 5.381-3.594 1.797-8.974 1.797-12.549 1.797s-8.974 0-12.539-1.797c-3.584-1.797-7.168-3.584-10.742-5.381-3.594-1.797-5.39-5.381-7.178-8.965s-3.565-7.168-3.565-10.733c-1.806-3.594-1.806-5.4-3.603-5.4-1.787 0-3.565-1.797-7.149 0l-10.771 3.613zM375.982 764.387c7.168 7.168 16.123 14.336 25.078 19.717 8.955 7.158 19.717 12.539 30.459 16.114 10.742 5.381 21.504 8.965 34.024 10.752 12.558 3.584 26.885 3.584 43.018 3.584 19.698 0 35.83-3.584 53.741-8.955 16.114-5.381 30.45-12.539 42.979-23.291 12.558-10.752 21.523-23.291 28.682-37.627 7.168-14.326 10.752-30.459 10.752-48.37s-3.584-34.034-8.965-46.582c-5.39-12.539-12.549-25.078-21.523-34.034-8.955-10.752-17.91-17.91-26.856-26.875-12.539-7.158-21.504-12.539-30.45-19.707-8.965-7.168-16.133-12.539-21.514-19.707s-8.955-14.336-10.752-21.504l-7.149-55.538h-44.795l-3.584 60.918c-1.806 10.752 1.797 19.707 5.381 28.662 5.381 8.955 12.539 16.123 19.707 23.291 8.965 7.168 17.91 14.336 26.875 21.504 10.733 7.168 19.698 14.326 26.866 23.291 8.965 8.955 16.133 17.91 21.494 28.662 5.4 10.752 8.965 23.291 8.965 37.627 0 10.752-1.797 19.707-5.362 28.662-3.603 8.955-8.965 16.123-16.133 21.504-7.158 5.381-16.133 10.752-25.098 14.336s-19.698 5.371-30.45 5.371c-14.326 0-26.866-1.797-37.627-5.371-10.752-3.584-19.707-7.168-26.866-12.539-7.168-3.584-12.549-8.955-17.91-12.539-3.584-3.584-8.965-5.371-10.752-5.371-5.381 0-10.752 3.584-14.336 8.955l-17.901 25.059zM447.643 330.82c0 5.371 1.797 12.53 3.584 17.91 1.797 5.362 5.381 10.733 8.965 14.307 3.584 3.594 8.965 7.178 14.326 8.965 5.39 1.806 10.742 3.594 17.91 3.594 7.158 0 12.53-1.816 17.91-3.594 5.371-1.787 10.742-5.371 14.307-8.965 3.603-3.574 7.168-8.955 8.965-14.307 1.806-5.4 3.584-10.752 3.584-17.91 0-7.168-1.797-12.558-3.584-17.91-1.797-5.39-5.362-10.752-8.965-14.326-3.565-3.584-8.955-7.168-14.307-8.974-5.39-1.797-10.752-3.584-17.91-3.584-7.168 0-12.549 1.806-17.91 3.584-5.371 1.797-10.742 5.39-14.326 8.974-3.584 3.574-7.168 8.955-8.965 14.326-1.797 5.352-3.584 12.52-3.584 17.91zM492.438 281.185c-7.902 0-13.718 1.932-19.33 3.797-5.835 1.951-11.882 5.738-16.326 10.182-4.424 4.415-8.221 10.482-10.134 16.22-1.15 3.439-3.826 12.24-3.826 19.446 0 7.149 2.676 15.978 3.826 19.446 1.913 5.729 5.709 11.786 10.134 16.21 4.424 4.434 10.491 8.221 16.229 10.124 5.632 1.884 11.477 3.835 19.437 3.835 7.844 0 13.611-1.913 19.205-3.768 5.98-1.98 12.037-5.777 16.442-10.221 4.395-4.366 8.192-10.424 10.124-16.191 1.874-5.642 3.826-11.477 3.826-19.446 0-7.979-2.038-14.075-3.826-19.446-1.922-5.767-5.719-11.834-10.143-16.229-4.376-4.405-10.433-8.202-16.181-10.124-5.709-1.884-11.534-3.835-19.456-3.835zM492.438 370.775c-6.386 0-11.235-1.623-16.384-3.352-4.309-1.42-9.071-4.415-12.433-7.796-3.381-3.362-6.366-8.124-7.806-12.423-2.096-6.27-3.342-12.404-3.342-16.384 0-4.019 1.246-10.143 3.342-16.384 1.43-4.309 4.424-9.071 7.796-12.433 3.381-3.391 8.153-6.376 12.443-7.815 5.217-1.739 10.047-3.342 16.384-3.342 6.357 0 11.206 1.613 16.345 3.323 4.347 1.468 9.11 4.453 12.452 7.815 3.381 3.362 6.357 8.115 7.806 12.452 1.72 5.13 3.342 9.97 3.342 16.384 0 6.395-1.623 11.245-3.342 16.384-1.439 4.328-4.424 9.081-7.786 12.414-3.371 3.391-8.115 6.366-12.423 7.806-5.313 1.758-10.114 3.352-16.394 3.352zM521.757 467.533h-53.596l-3.845 65.468c-1.961 11.554 1.932 21.291 5.7 30.71 6.047 10.201 13.544 17.698 20.789 24.943l27.271 21.861c12.288 8.221 19.997 14.887 26.112 22.538 9.902 9.941 16.258 18.384 20.944 27.803 5.613 11.177 8.453 23.108 8.453 35.473 0 9.873-1.546 18.162-5.023 26.875-3.294 8.202-8.057 14.558-14.539 19.427-7.554 5.671-16.075 10.549-23.987 13.708-8.105 3.246-18.287 5.033-28.662 5.033-13.727 0-25.87-1.729-36.091-5.13-10.53-3.507-18.886-6.859-25.503-11.815-4.907-2.541-8.501-5.371-11.979-8.105-2.116-1.652-4.135-3.236-6.154-4.589-3.69-3.826-10.337-6.183-13.438-6.183-6.849 0-13.708 4.154-18.355 11.109l-20.19 28.257 2.898 2.888c7.777 7.777 17.012 15.041 26.006 20.441 8.279 6.675 19.33 12.53 31.416 16.558 11.080 5.603 22.364 9.168 34.874 10.955 12.558 3.623 26.991 3.623 43.694 3.623 20.422 0 36.816-3.661 55.122-9.158 18.442-6.163 32.613-13.853 44.737-24.257 12.288-10.51 21.774-22.953 29.86-39.134 7.467-14.935 11.264-31.937 11.264-50.524 0-17.437-3.236-34.207-9.351-48.485-6.511-15.157-14.094-27.117-22.547-35.55-5.835-7.042-11.998-12.8-17.959-18.355-2.966-2.773-5.931-5.535-8.897-8.501l-1.014-0.782c-13.283-7.583-21.533-12.655-29.831-19.282l-2.753-2.203c-7.516-5.989-13.467-10.713-17.91-16.635-4.956-6.608-8.298-13.264-9.931-19.784l-7.583-59.199zM477.271 477.194h35.995l6.608 51.326c2.067 8.337 5.951 16.152 11.679 23.784 5.188 6.917 11.873 12.24 19.62 18.403l2.734 2.183c9.477 7.583 19.050 13.254 30.517 19.804 2.888 2.879 5.787 5.584 8.665 8.279 6.009 5.603 11.679 10.897 17.437 17.804 7.767 7.786 14.848 19.031 20.789 32.845 5.516 12.897 8.569 28.769 8.569 44.679 0 17.080-3.439 32.623-10.25 46.206-7.487 14.993-16.229 26.469-27.503 36.12-11.148 9.564-24.296 16.674-41.366 22.383-17.36 5.207-32.961 8.704-52.205 8.704-15.978 0-29.783 0-41.694-3.4-12.085-1.768-22.431-5.033-33.193-10.433-11.65-3.932-21.668-9.216-29.599-15.563-7.699-4.666-15.176-10.366-21.746-16.519l15.486-21.678c2.888-4.328 6.84-6.936 10.404-6.936 0.947 0.097 4.84 1.459 7.342 3.961 2.56 1.816 4.366 3.256 6.27 4.743 3.681 2.898 7.854 6.173 12.897 8.694 6.917 5.284 16.085 8.994 27.503 12.8 11.216 3.729 24.383 5.622 39.154 5.622 11.747 0 22.895-1.98 32.246-5.719 8.685-3.478 17.988-8.791 26.209-14.954 7.825-5.874 13.785-13.805 17.707-23.562 3.893-9.776 5.709-19.456 5.709-30.459 0-13.882-3.188-27.271-9.467-39.791-5.168-10.375-12.085-19.601-22.393-29.918-6.318-7.95-14.945-15.447-27.6-23.89l-26.537-21.262c-6.753-6.791-13.505-13.544-18.587-22.006-3.091-7.893-6.328-15.978-4.753-25.378l3.352-56.871z" />
<glyph unicode="&#xe91b;" glyph-name="dice" d="M807.456-53.712h-592.024c-114.242 0-207.18 92.938-207.18 207.18v592.024c0 114.242 92.938 207.18 207.18 207.18h593.833c55.67 0 107.849-21.875 146.917-61.601 38.615-39.254 59.369-91.020 58.454-145.736v-591.866c0-114.242-92.938-207.18-207.18-207.18zM215.432 933.001c-103.393 0-187.509-84.115-187.509-187.509v-592.024c0-103.393 84.115-187.509 187.509-187.509h592.024c103.393 0 187.509 84.125 187.509 187.509v592.024c0.826 49.572-17.921 96.312-52.808 131.779-35.34 35.93-82.532 55.729-132.891 55.729h-593.833zM380.181 211.401c0 54.323-43.445 99.587-99.577 99.587-54.313 0-99.577-43.464-99.577-99.587 0-54.303 43.445-99.577 99.577-99.577s99.577 45.264 99.577 99.577zM380.181 671.272c0 54.313-43.445 99.577-99.577 99.577-54.313 0-99.577-43.454-99.577-99.577 0-56.133 43.445-99.577 99.577-99.577 56.133 1.81 99.577 45.264 99.577 99.577zM841.862 211.401c0 54.323-43.454 99.587-99.587 99.587-54.303 0-99.567-43.464-99.567-99.587 0-54.303 43.445-99.577 99.567-99.577 54.323 0 99.587 45.264 99.587 99.577zM841.862 671.272c0 54.313-43.454 99.577-99.587 99.577-54.303 0-99.567-43.454-99.567-99.577 0-56.133 43.445-99.577 99.567-99.577 54.323 1.81 99.587 45.264 99.587 99.577z" />
<glyph unicode="&#xe91c;" glyph-name="class-Active" d="M71.68 290.304c-4.096 0-10.24 2.048-12.288 6.144-4.096 2.048-6.144 8.192-6.144 12.288v575.488c0 10.24 8.192 16.384 16.384 16.384h118.784c10.24 0 16.384-8.192 16.384-16.384s-6.144-16.384-16.384-16.384h-102.4v-544.768h98.304c10.24 0 16.384-8.192 16.384-16.384 0-10.24-8.192-16.384-16.384-16.384h-112.64zM440.32 290.304h-112.64c-10.24 0-16.384 8.192-16.384 16.384 0 10.24 8.192 16.384 16.384 16.384h114.688c10.24 0 16.384-8.192 16.384-16.384s-8.192-16.384-18.432-16.384zM698.368 290.304h-110.592c-10.24 0-16.384 8.192-16.384 16.384 0 10.24 8.192 16.384 16.384 16.384h110.592c10.24 0 16.384-8.192 16.384-16.384s-8.192-16.384-16.384-16.384zM919.552 290.304h-75.776c-10.24 0-16.384 8.192-16.384 16.384 0 10.24 8.192 16.384 16.384 16.384h75.776c10.24 0-4.096-8.192-4.096-16.384s12.288-16.384 4.096-16.384zM919.552 290.304h-2.048c-10.24 0-16.384 8.192-16.384 16.384 0 10.24 8.192 16.384 16.384 16.384 10.24 0-4.096-8.192-4.096-16.384s16.384-16.384 6.144-16.384zM952.32 290.304h-55.296c-10.24 0-16.384 8.192-16.384 16.384 0 10.24 8.192 16.384 16.384 16.384h38.912v544.768h-763.904c-8.192 0-16.384 8.192-16.384 16.384s8.192 18.432 16.384 18.432h780.288c10.24 0 16.384-8.192 16.384-16.384v-577.536c0-10.24-8.192-18.432-16.384-18.432zM256 220.672c-47.104 0-88.064 38.912-88.064 88.064s38.912 88.064 88.064 88.064 88.064-38.912 88.064-88.064-40.96-88.064-88.064-88.064zM256 361.984c-30.72 0-55.296-24.576-55.296-55.296s24.576-55.296 55.296-55.296 55.296 24.576 55.296 55.296c-2.048 32.768-26.624 55.296-55.296 55.296zM770.048 220.672c-47.104 0-88.064 38.912-88.064 88.064s38.912 88.064 88.064 88.064c47.104 0 88.064-38.912 88.064-88.064s-40.96-88.064-88.064-88.064zM770.048 361.984c-30.72 0-55.296-24.576-55.296-55.296s24.576-55.296 55.296-55.296 55.296 24.576 55.296 55.296c-2.048 32.768-26.624 55.296-55.296 55.296zM512 220.672c-47.104 0-88.064 38.912-88.064 88.064s38.912 88.064 88.064 88.064 88.064-38.912 88.064-88.064c0-49.152-38.912-88.064-88.064-88.064zM512 361.984c-30.72 0-55.296-24.576-55.296-55.296s24.576-55.296 55.296-55.296 55.296 24.576 55.296 55.296c0 32.768-24.576 55.296-55.296 55.296zM350.208-4.608h-202.752c-10.24 0-16.384 8.192-16.384 16.384v108.544c0 40.96 32.768 73.728 73.728 73.728h88.064c40.96 0 73.728-32.768 73.728-73.728v-108.544c2.048-8.192-6.144-16.384-16.384-16.384zM163.84 28.16h169.984v92.16c0 22.528-18.432 40.96-40.96 40.96h-88.064c-22.528 0-40.96-18.432-40.96-40.96v-92.16zM614.4-6.656h-202.752c-10.24 0-16.384 8.192-16.384 16.384v110.592c0 40.96 32.768 73.728 73.728 73.728h88.064c40.96 0 73.728-32.768 73.728-73.728v-108.544c0-10.24-6.144-18.432-16.384-18.432zM428.032 28.16h169.984v92.16c0 22.528-18.432 40.96-40.96 40.96h-88.064c-22.528 0-40.96-18.432-40.96-40.96v-92.16zM872.448-6.656h-202.752c-10.24 0-16.384 8.192-16.384 16.384v110.592c0 40.96 32.768 73.728 73.728 73.728h88.064c40.96 0 73.728-32.768 73.728-73.728v-108.544c2.048-10.24-6.144-18.432-16.384-18.432zM686.080 28.16h169.984v92.16c0 22.528-18.432 40.96-40.96 40.96h-88.064c-22.528 0-40.96-18.432-40.96-40.96v-92.16z" />
<glyph unicode="&#xe91d;" glyph-name="view" d="M512 697.856c172.032 0 325.632-96.256 399.36-249.856-73.728-153.6-227.328-249.856-399.36-249.856s-325.632 96.256-399.36 249.856c73.728 153.6 227.328 249.856 399.36 249.856zM512 787.968c-227.328 0-419.84-141.312-497.664-339.968 77.824-198.656 270.336-339.968 497.664-339.968s419.84 141.312 497.664 339.968c-77.824 198.656-270.336 339.968-497.664 339.968zM512 560.64c63.488 0 112.64-51.2 112.64-112.64s-51.2-112.64-112.64-112.64-112.64 51.2-112.64 112.64 49.152 112.64 112.64 112.64zM512 652.8c-112.64 0-204.8-92.16-204.8-204.8s92.16-204.8 204.8-204.8 204.8 92.16 204.8 204.8-92.16 204.8-204.8 204.8z" />
<glyph unicode="&#xe91e;" glyph-name="Session-blue" d="M1001.522 170.771h-64.937v499.512c0 32.468-24.976 57.444-57.444 57.444h-104.898c-2.498 0-4.995 0-7.493-2.498-62.439 139.863-227.278 202.302-367.141 139.863-62.439-27.473-112.39-77.424-142.361-142.361-2.498 0-4.995 2.498-7.493 2.498h-104.898c-32.468 0-57.444-24.976-57.444-57.444v-499.512h-64.937c-9.99 0-17.483-7.493-17.483-17.483v-89.912c0-32.468 24.976-57.444 57.444-57.444h899.122c32.468 0 57.444 24.976 57.444 57.444v89.912c0 12.488-7.493 19.98-17.483 19.98zM512 867.59c139.863 0 254.751-114.888 254.751-254.751s-114.888-254.751-254.751-254.751-254.751 112.39-254.751 252.254c0 142.361 114.888 254.751 254.751 257.249zM512 335.61c157.346 0 277.229 122.38 277.229 282.224 0 12.488 0 22.478-2.498 34.966h79.922v-444.566h-709.307v442.068h82.42c-2.498-12.488-2.498-22.478-2.498-34.966 0-159.844 117.385-279.727 274.732-279.727zM112.39 660.293c0 12.488 4.995 42.459 37.463 44.956h99.902c-2.498-4.995-7.493-22.478-7.493-27.473h-89.912c-9.99 0-17.483-7.493-17.483-17.483v-457.054c0-9.99 7.493-17.483 17.483-17.483h719.298c9.99 0 17.483 7.493 17.483 17.483v457.054c0 9.99-7.493 17.483-17.483 17.483h-89.912c-2.498 4.995-4.995 19.98-7.493 24.976h104.898c12.488 0 34.966-9.99 34.966-34.966v-499.512h-804.215l2.498 492.020zM616.898 143.298l-7.493-34.966h-194.81l-7.493 34.966h209.795zM996.527 80.859c0-22.478 2.498-57.444-49.951-57.444h-869.151c-47.454 0-49.951 39.961-49.951 57.444v69.932h354.654l12.488-47.454c2.498-7.493 7.493-14.985 14.985-14.985h199.805c7.493 0 12.488 4.995 14.985 14.985l12.488 47.454h354.654v-69.932zM512 398.049c117.385 0 212.293 94.907 212.293 212.293s-94.907 212.293-212.293 212.293-212.293-94.907-212.293-212.293c0-117.385 94.907-212.293 212.293-212.293zM364.644 735.22l12.488-12.488c7.493-7.493 17.483-7.493 24.976 0s7.493 17.483 0 24.976l-12.488 12.488c29.971 24.976 67.434 39.961 104.898 44.956v-19.98c0-9.99 7.493-17.483 17.483-17.483s17.483 7.493 17.483 17.483v17.483c39.961-2.498 74.927-19.98 104.898-44.956l-12.488-12.488c-7.493-7.493-7.493-17.483 0-24.976s17.483-7.493 24.976 0l12.488 14.985c24.976-29.971 39.961-67.434 44.956-104.898h-17.483c-9.99 0-17.483-7.493-17.483-17.483s7.493-17.483 17.483-17.483h17.483c-2.498-39.961-19.98-74.927-42.459-104.898l-12.488 12.488c-7.493 7.493-17.483 7.493-24.976 0s-7.493-17.483 0-24.976l12.488-12.488c-29.971-24.976-67.434-39.961-104.898-44.956v17.483c0 9.99-7.493 17.483-17.483 17.483s-17.483-7.493-17.483-17.483v-17.483c-39.961 2.498-74.927 19.98-104.898 42.459l12.488 12.488c7.493 7.493 7.493 17.483 0 24.976s-17.483 7.493-24.976 0l-12.488-12.488c-24.976 29.971-39.961 67.434-44.956 104.898h17.483c9.99 0 17.483 7.493 17.483 17.483s-7.493 17.483-17.483 17.483h-17.483c2.498 39.961 17.483 77.424 42.459 107.395zM516.995 595.356h44.956c9.99 0 14.985 2.498 17.483 12.488 0 12.488-7.493 12.488-17.483 12.488h-34.966v92.41c0 9.99-2.498 14.985-12.488 14.985s-14.985-4.995-14.985-14.985v-99.902c0-9.99 7.493-17.483 17.483-17.483z" />
<glyph unicode="&#xe91f;" glyph-name="hide" d="M512 720.384c172.032 0 323.584-96.256 399.36-247.808-26.624-55.296-63.488-102.4-108.544-141.312l63.488-63.488c63.488 55.296 112.64 124.928 143.36 204.8-77.824 198.656-272.384 337.92-497.664 337.92-57.344 0-112.64-8.192-163.84-26.624l73.728-73.728c28.672 6.144 59.392 10.24 90.112 10.24zM464.896 669.184l94.208-94.208c26.624-12.288 47.104-32.768 57.344-57.344l94.208-94.208c4.096 16.384 6.144 30.72 6.144 49.152 0 112.64-90.112 202.752-202.752 202.752-16.384 0-32.768-2.048-49.152-6.144zM61.44 816.64l120.832-120.832c-73.728-57.344-131.072-135.168-167.936-223.232 79.872-198.656 274.432-339.968 497.664-339.968 69.632 0 135.168 12.288 194.56 36.864l155.648-155.648 63.488 63.488-800.768 804.864-63.488-65.536zM399.36 476.672l118.784-118.784c-2.048 0-4.096 0-6.144 0-61.44 0-112.64 51.2-112.64 112.64 0 4.096 0 4.096 0 6.144zM247.808 632.32l79.872-79.872c-10.24-24.576-16.384-51.2-16.384-79.872 0-112.64 92.16-202.752 202.752-202.752 28.672 0 55.296 6.144 79.872 16.384l45.056-45.056c-38.912-10.24-81.92-16.384-124.928-16.384-172.032 0-323.584 96.256-399.36 247.808 32.768 63.488 77.824 116.736 133.12 159.744z" />
<glyph unicode="&#xe920;" glyph-name="clock" d="M511.488 960c-282.624 0-511.488-229.376-511.488-512s228.864-512 511.488-512c283.136 0 512.512 229.376 512.512 512s-229.376 512-512.512 512zM512 38.4c-226.304 0-409.6 183.296-409.6 409.6s183.296 409.6 409.6 409.6 409.6-183.296 409.6-409.6-183.296-409.6-409.6-409.6zM537.6 704h-76.8v-307.2l268.8-161.28 38.4 62.976-230.4 136.704z" />
<glyph unicode="&#xe921;" glyph-name="timer" d="M512-64c-282.325 0-512 229.675-512 512s229.675 512 512 512c23.552 0 42.667-19.115 42.667-42.667s-19.115-42.667-42.667-42.667c-235.264 0-426.667-191.403-426.667-426.667s191.403-426.667 426.667-426.667c235.264 0 426.667 191.403 426.667 426.667 0 23.552 19.072 42.667 42.667 42.667s42.667-19.115 42.667-42.667c0-282.325-229.675-512-512-512zM512 874.667c-11.093 0-22.187 4.693-30.293 12.373-7.68 8.107-12.373 19.2-12.373 30.293s4.693 22.187 12.373 30.293c16.213 15.787 44.8 15.787 60.587 0 7.68-8.107 12.373-19.2 12.373-30.293s-4.693-22.187-12.373-30.293c-8.107-7.68-19.2-12.373-30.293-12.373zM906.24 611.413c-8.96 21.76 1.195 46.933 23.040 55.893 21.76 8.96 46.933-1.28 55.893-23.040s-1.28-46.933-23.040-55.893c-5.547-2.133-11.093-3.413-16.213-3.413-17.067 0-32.896 9.813-39.68 26.453zM813.611 749.653c-16.683 16.64-16.683 43.947 0 60.587s43.563 16.64 60.075 0c16.768-16.64 16.768-43.947 0-60.587-7.979-8.107-19.072-12.373-29.739-12.373-11.093 0-21.76 4.267-30.336 12.373zM675.413 842.24c-21.803 8.96-32 34.133-23.040 55.893s33.707 32 55.893 23.040c21.803-8.96 32-34.133 22.613-55.893-6.4-16.213-22.613-26.027-39.253-26.027-5.547 0-11.093 0.853-16.213 2.987zM981.333 405.333c-11.093 0-22.272 4.693-30.293 12.373-7.723 8.107-12.373 19.2-12.373 30.293s4.651 22.187 12.373 30.293c16.213 15.787 44.8 15.787 60.587 0 7.68-8.107 12.373-19.2 12.373-30.293s-4.693-22.187-12.373-30.293c-8.107-7.68-19.2-12.373-30.293-12.373zM682.624 320c-6.4 0-12.928 1.451-19.029 4.48l-170.667 85.333c-14.464 7.253-23.595 22.016-23.595 38.187v298.667c0 23.552 19.115 42.667 42.667 42.667s42.667-19.115 42.667-42.667v-272.299l147.072-73.6c21.077-10.496 29.568-36.181 19.029-57.259-7.424-14.891-22.485-23.509-38.144-23.509z" />
<glyph unicode="&#xe922;" glyph-name="calender" horiz-adv-x="922" d="M307.2 499.2h-102.4v-102.4h102.4v102.4zM512 499.2h-102.4v-102.4h102.4v102.4zM716.8 499.2h-102.4v-102.4h102.4v102.4zM819.2 857.6h-51.2v102.4h-102.4v-102.4h-409.6v102.4h-102.4v-102.4h-51.2c-56.832 0-101.888-46.080-101.888-102.4l-0.512-716.8c0-56.32 45.568-102.4 102.4-102.4h716.8c56.32 0 102.4 46.080 102.4 102.4v716.8c0 56.32-46.080 102.4-102.4 102.4zM819.2 38.4h-716.8v563.2h716.8v-563.2z" />
<glyph unicode="&#xe923;" glyph-name="right-check" horiz-adv-x="1434" d="M511.959-64c-27.144 0-53.233 10.833-72.384 29.984l-409.592 409.592c-39.965 40.006-39.965 104.843 0.041 144.848s104.843 39.965 144.808-0.041l337.127-337.087 746.678 746.719c40.006 40.006 104.883 40.006 144.889 0s40.006-104.883 0-144.889l-819.184-819.224c-19.191-19.151-45.24-29.943-72.384-29.903z" />
<glyph unicode="&#xe924;" glyph-name="progression-table" d="M681.984 906.752c-16.384 0-30.72-12.288-30.72-26.624 0 0 0 0 0 0v-335.872h-86.016c-2.048 0-2.048 0-4.096 0-16.384-2.048-28.672-14.336-28.672-28.672v-79.872h-206.848c-2.048 0-2.048 0-4.096 0-16.384-2.048-28.672-14.336-28.672-28.672v-79.872h-210.944c-2.048 0-2.048 0-4.096 0-16.384-2.048-28.672-14.336-28.672-28.672v-280.576c0-16.384 14.336-28.672 30.72-28.672 0 0 0 0 0 0h729.088c18.432 0 32.768 12.288 32.768 28.672 0 0 0 0 0 0v499.712c0 16.384-14.336 28.672-32.768 28.672h-96.256v118.784l241.664 90.112c16.384 6.144 22.528 22.528 16.384 34.816-2.048 6.144-8.192 12.288-16.384 14.336l-256 98.304c-4.096 4.096-10.24 4.096-16.384 4.096zM712.704 839.168l153.6-59.392-153.6-59.392v118.784zM600.064 488.96h178.176v-442.368h-178.176v442.368zM356.352 380.416h178.176v-335.872h-178.176v335.872zM114.688 271.872h178.176v-227.328h-178.176v227.328z" />
<glyph unicode="&#xe925;" glyph-name="faqs" d="M116.736 891.641c-45.056 0-79.872-36.864-79.872-79.872v-403.456c0-45.056 36.864-79.872 79.872-79.872h67.584l-18.432-180.224c0-8.192 4.096-16.384 12.288-20.48s16.384-2.048 22.528 4.096l196.608 196.608h102.4v-155.648c0-36.864 28.672-65.536 63.488-65.536h180.224l106.496-96.256c6.144-6.144 16.384-6.144 22.528-4.096 8.192 4.096 12.288 12.288 10.24 20.48l-8.192 77.824h47.104c34.816 0 65.536 30.72 65.536 65.536v270.336c0 36.864-28.672 65.536-65.536 65.536h-98.304v303.104c0 45.056-36.864 79.872-79.872 79.872l-626.688 2.048zM116.736 852.729h626.688c22.528 0 40.96-18.432 40.96-40.96v-303.104h-219.136c-36.864 0-65.536-30.72-65.536-65.536v-75.776h-110.592c-6.144 0-10.24-2.048-14.336-6.144l-161.792-161.792 14.336 145.408c2.048 10.24-8.192 22.528-20.48 22.528h-90.112c-22.528 0-40.96 18.432-40.96 40.96v403.456c2.048 22.528 18.432 40.96 40.96 40.96v0zM399.36 811.769c-57.344 0-108.544-34.816-118.784-83.968-4.096-10.24 4.096-22.528 14.336-26.624 10.24-2.048 22.528 6.144 24.576 16.384 6.144 28.672 38.912 53.248 79.872 53.248 47.104 0 81.92-30.72 81.92-67.584 0-57.344-18.432-71.68-43.008-94.208s-57.344-55.296-57.344-120.832c0-10.24 10.24-20.48 20.48-20.48s20.48 10.24 20.48 20.48c0 55.296 18.432 67.584 43.008 92.16 24.576 22.528 57.344 57.344 57.344 124.928 0 61.44-57.344 106.496-122.88 106.496zM565.248 467.705h356.352c14.336 0 24.576-10.24 24.576-24.576v-270.336c0-14.336-10.24-26.624-24.576-26.624h-67.584c-10.24 0-20.48-10.24-20.48-22.528l4.096-49.152-71.68 65.536c-4.096 4.096-8.192 4.096-14.336 4.096h-188.416c-14.336 0-24.576 10.24-24.576 26.624v270.336c4.096 16.384 14.336 26.624 26.624 26.624v0zM401.408 447.225c-10.24 0-20.48-8.192-20.48-20.48 0-10.24 8.192-20.48 20.48-20.48 10.24 0 20.48 8.192 20.48 20.48-2.048 12.288-10.24 20.48-20.48 20.48zM733.184 436.985c-10.24 0-20.48-8.192-20.48-20.48v-161.792c0-10.24 8.192-20.48 20.48-20.48s20.48 8.192 20.48 20.48v161.792c0 12.288-8.192 20.48-20.48 20.48zM733.184 215.801c-10.24 0-20.48-8.192-20.48-20.48 0-10.24 8.192-20.48 20.48-20.48s20.48 8.192 20.48 20.48c0 12.288-8.192 20.48-20.48 20.48z" />
<glyph unicode="&#xe926;" glyph-name="classroom" d="M120.832 439.808h780.288c4.096 0 8.192 2.048 10.24 4.096s4.096 6.144 4.096 10.24v61.44c0 4.096-2.048 8.192-4.096 10.24s-6.144 4.096-10.24 4.096h-30.72v376.832c0 4.096-2.048 8.192-4.096 10.24s-6.144 4.096-10.24 4.096h-688.128c-4.096 0-8.192-2.048-10.24-4.096s-4.096-6.144-4.096-10.24v-372.736h-32.768c-4.096 0-8.192-2.048-10.24-4.096s-4.096-6.144-4.096-10.24v-61.44c0-4.096 2.048-8.192 4.096-10.24 2.048-6.144 6.144-8.192 10.24-8.192zM184.32 890.368h655.36v-356.352h-405.504v61.44c0 4.096-2.048 8.192-4.096 10.24s-6.144 4.096-10.24 4.096h-124.928c-4.096 0-8.192-2.048-10.24-4.096s-4.096-6.144-4.096-10.24v-61.44h-96.256v356.352zM403.456 534.016h-94.208v47.104h94.208v-47.104zM137.216 501.248h749.568v-30.72h-749.568v30.72zM956.416 345.6h-129.024v55.296c0 4.096-2.048 10.24-6.144 12.288-4.096 4.096-8.192 6.144-12.288 6.144h-223.232c-10.24 0-18.432-8.192-18.432-18.432v-55.296h-108.544v55.296c0 10.24-8.192 18.432-18.432 18.432h-223.232c-4.096 0-10.24-2.048-12.288-6.144-4.096-4.096-6.144-8.192-6.144-12.288v-55.296h-131.072c-10.24 0-18.432-8.192-18.432-18.432s8.192-18.432 18.432-18.432h18.432v-315.392c0-10.24 8.192-18.432 18.432-18.432s18.432 8.192 18.432 18.432v241.664h147.456v-36.864h-92.16c-10.24 0-18.432-8.192-18.432-18.432s8.192-18.432 18.432-18.432h18.432v-167.936c0-10.24 8.192-18.432 18.432-18.432s18.432 8.192 18.432 18.432v92.16h186.368v-92.16c0-10.24 8.192-18.432 18.432-18.432s18.432 8.192 18.432 18.432v0 167.936h18.432c10.24 0 18.432 8.192 18.432 18.432s-8.192 18.432-18.432 18.432h-92.16v36.864h260.096v-36.864h-92.16c-10.24 0-18.432-8.192-18.432-18.432s8.192-18.432 18.432-18.432h18.432v-167.936c0-10.24 8.192-18.432 18.432-18.432s18.432 8.192 18.432 18.432v92.16h186.368v-92.16c0-10.24 8.192-18.432 18.432-18.432s18.432 8.192 18.432 18.432v167.936h18.432c10.24 0 18.432 8.192 18.432 18.432s-8.192 18.432-18.432 18.432h-92.16v36.864h145.408v-241.664c0-10.24 8.192-18.432 18.432-18.432s18.432 8.192 18.432 18.432v315.392h18.432c10.24 0 18.432 8.192 18.432 18.432s-8.192 18.432-18.432 18.432zM196.608 271.872h-73.728v36.864h73.728v-36.864zM419.84 159.232v-36.864h-186.368v36.864h186.368zM309.248 196.096v36.864h36.864v-36.864h-36.864zM419.84 271.872h-186.368v110.592h186.368v-110.592zM567.296 271.872h-108.544v36.864h108.544v-36.864zM788.48 159.232v-36.864h-186.368v36.864h186.368zM677.888 196.096v36.864h36.864v-36.864h-36.864zM788.48 271.872h-186.368v110.592h186.368v-110.592zM901.12 271.872h-73.728v36.864h73.728v-36.864z" />
<glyph unicode="&#xe927;" glyph-name="addition-1" d="M112 259.2h124.8v124.8h70.4v-124.8h124.8v-70.4h-124.8v-124.8h-70.4v124.8h-124.8zM598.4 259.2h300.8v-70.4h-300.8v70.4z" />
<glyph unicode="&#xe928;" glyph-name="addition-2" d="M598.4 483.2h300.8v-70.4h-300.8v70.4zM112 483.2h124.8v124.8h70.4v-124.8h124.8v-70.4h-124.8v-124.8h-70.4v124.8h-124.8z" />
<glyph unicode="&#xe929;" glyph-name="multiplication-1" d="M70.4 873.6h406.4v-406.4h-406.4v406.4zM406.4 134.4l-48-48-89.6 89.6-86.4-89.6-48 48 86.4 89.6-86.4 89.6 48 48 86.4-89.6 89.6 89.6 48-48-89.6-89.6zM790.4 332.8c0-21.208-17.192-38.4-38.4-38.4s-38.4 17.192-38.4 38.4c0 21.208 17.192 38.4 38.4 38.4s38.4-17.192 38.4-38.4zM752 73.6c-22.4 0-38.4 19.2-38.4 38.4 0 22.4 19.2 38.4 38.4 38.4s38.4-19.2 38.4-38.4-16-38.4-38.4-38.4v0zM598.4 259.2h300.8v-70.4h-300.8v70.4z" />
<glyph unicode="&#xe92a;" glyph-name="multiplication-2" d="M784 566.4c0-22.975-18.625-41.6-41.6-41.6s-41.6 18.625-41.6 41.6c0 22.975 18.625 41.6 41.6 41.6s41.6-18.625 41.6-41.6zM742.4 288c-22.4 0-41.6 19.2-41.6 41.6s19.2 41.6 41.6 41.6 41.6-19.2 41.6-41.6-19.2-41.6-41.6-41.6v0zM579.2 486.4h320v-73.6h-320v73.6zM438.4 342.4l-54.4-54.4-99.2 102.4-96-102.4-54.4 54.4 96 99.2-96 102.4 54.4 54.4 96-102.4 99.2 102.4 54.4-54.4-99.2-102.4z" />
<glyph unicode="&#xe92b;" glyph-name="addition-4" horiz-adv-x="2048" d="M211.2 518.4h249.6v249.6h140.8v-249.6h249.6v-140.8h-249.6v-249.6h-140.8v249.6h-249.6zM1216 518.4h601.6v-140.8h-601.6v140.8zM1875.2 960h-1702.4c-83.2 0-153.6-64-160-153.6v-716.8c0-83.2 70.4-153.6 153.6-153.6h1708.8c83.2 0 153.6 70.4 153.6 153.6v716.8c0 89.6-70.4 153.6-153.6 153.6zM985.6 0h-793.6c-64 0-115.2 51.2-115.2 115.2v646.4c0 83.2 25.6 134.4 140.8 134.4h768v-896zM1971.2 115.2c0-64-51.2-115.2-115.2-115.2h-793.6v896h768c115.2 0 140.8-51.2 140.8-134.4v-646.4z" />
<glyph unicode="&#xe92c;" glyph-name="multiplication-4" horiz-adv-x="2048" d="M1875.2 960h-1702.4c-83.2 0-153.6-64-160-153.6v-716.8c0-83.2 70.4-153.6 153.6-153.6h1708.8c83.2 0 153.6 70.4 153.6 153.6v716.8c6.4 89.6-70.4 153.6-153.6 153.6zM985.6 0h-793.6c-64 0-115.2 51.2-115.2 115.2v646.4c0 83.2 25.6 134.4 140.8 134.4h768v-896zM1971.2 115.2c0-64-51.2-115.2-115.2-115.2h-793.6v896h768c115.2 0 140.8-51.2 140.8-134.4 6.4 0 6.4-646.4 0-646.4zM806.4 268.8l-96-96-179.2 179.2-172.8-179.2-96 96 179.2 179.2-179.2 179.2 96 96 172.8-179.2 179.2 179.2 96-96-179.2-179.2zM1606.4 665.6c0-42.415-34.385-76.8-76.8-76.8s-76.8 34.385-76.8 76.8c0 42.415 34.385 76.8 76.8 76.8s76.8-34.385 76.8-76.8zM1529.6 147.2c-44.8 0-76.8 38.4-76.8 76.8 0 44.8 38.4 76.8 76.8 76.8s76.8-38.4 76.8-76.8-38.4-76.8-76.8-76.8v0zM1216 518.4h601.6v-140.8h-601.6v140.8z" />
<glyph unicode="&#xe92d;" glyph-name="teaching-tools" d="M188.416 886.272c-69.632 0-124.928-55.296-124.928-124.928s55.296-124.928 122.88-124.928c69.632 0 124.928 55.296 124.928 124.928s-53.248 124.928-122.88 124.928zM186.368 677.376c-45.056 0-81.92 36.864-81.92 83.968 0 45.056 38.912 83.968 83.968 83.968s81.92-36.864 81.92-83.968c0-45.056-36.864-83.968-83.968-83.968zM227.328 312.832c-57.344 0-104.448-47.104-104.448-104.448 0-59.392 45.056-104.448 104.448-104.448 57.344 0 104.448 47.104 104.448 104.448s-47.104 104.448-104.448 104.448zM227.328 271.872c34.816 0 63.488-28.672 63.488-63.488s-28.672-63.488-63.488-63.488-63.488 28.672-63.488 63.488c0 34.816 28.672 63.488 63.488 63.488zM266.24 91.648h-71.68c-61.44 0-102.4-61.44-102.4-118.784v-20.48h276.48v20.48c0 55.296-40.96 118.784-102.4 118.784zM323.584-6.656h-190.464c8.192 28.672 30.72 57.344 59.392 57.344h73.728c26.624 0 51.2-28.672 57.344-57.344zM520.192 312.832c-57.344 0-104.448-47.104-104.448-104.448 0-59.392 45.056-104.448 104.448-104.448 57.344 0 104.448 47.104 104.448 104.448s-49.152 104.448-104.448 104.448zM520.192 144.896c-34.816 0-63.488 28.672-63.488 63.488s28.672 63.488 63.488 63.488 63.488-28.672 63.488-63.488c0-34.816-28.672-63.488-63.488-63.488zM557.056 91.648h-71.68c-61.44 0-102.4-61.44-102.4-118.784v-20.48h278.528v20.48c-2.048 55.296-45.056 118.784-104.448 118.784zM481.28 50.688h71.68c28.672 0 53.248-28.672 61.44-57.344h-190.464c8.192 30.72 34.816 57.344 57.344 57.344zM808.96 312.832c-57.344 0-104.448-47.104-104.448-104.448s47.104-104.448 104.448-104.448 104.448 47.104 104.448 104.448c2.048 55.296-45.056 102.4-104.448 104.448zM808.96 271.872c34.816-2.048 63.488-30.72 63.488-63.488 0-34.816-28.672-63.488-63.488-63.488s-63.488 28.672-63.488 63.488c2.048 34.816 28.672 63.488 63.488 63.488zM915.456 60.928c-20.48 20.48-45.056 30.72-69.632 30.72h-73.728c-61.44 0-102.4-61.44-102.4-118.784v-20.48h278.528v18.432c4.096 30.72-8.192 63.488-32.768 90.112zM886.784 30.208c10.24-10.24 16.384-22.528 20.48-36.864h-192.512c8.192 28.672 30.72 57.344 61.44 57.344h73.728c12.288 0 26.624-6.144 36.864-20.48zM942.080 943.616h-499.712c-28.672 0-51.2-22.528-51.2-51.2v-202.752h40.96v202.752c0 4.096 6.144 10.24 10.24 10.24h499.712c4.096 0 10.24-6.144 10.24-10.24v-407.552c0-4.096-6.144-10.24-10.24-10.24h-471.040v-40.96h471.040c28.672 0 51.2 22.528 51.2 51.2v407.552c0 28.672-24.576 51.2-51.2 51.2zM614.4 796.16v57.344h-40.96v-57.344h-51.2v-38.912h51.2v-59.392h40.96v57.344h55.296v40.96zM831.488 593.408l38.912 38.912-30.72 28.672-36.864-38.912-40.96 38.912-28.672-28.672 38.912-38.912-38.912-38.912 30.72-28.672 36.864 38.912 38.912-40.96 32.768 28.672zM733.184 798.208h137.216v-40.96h-137.216v40.96zM577.536 667.136c-10.24 12.288-24.576 20.48-38.912 22.528-16.384 2.048-32.768-4.096-43.008-12.288l-110.592-83.968-47.104 24.576c-10.24 8.192-22.528 8.192-28.672 8.192h-219.136c-32.768 0-57.344-24.576-57.344-57.344v-190.464c0-30.72 26.624-59.392 57.344-59.392h243.712v174.080l30.72-16.384c20.48-12.288 43.008-10.24 61.44 4.096l143.36 106.496c20.48 16.384 32.768 47.104 8.192 79.872zM288.768 560.64v-200.704h-198.656c-8.192 0-16.384 8.192-16.384 18.432v190.464c0 8.192 8.192 16.384 16.384 16.384h217.088c6.144 0 6.144 0 8.192 0l73.728-36.864 126.976 98.304c6.144 4.096 18.432 10.24 28.672 0 4.096-4.096 6.144-10.24 6.144-14.336s-2.048-6.144-8.192-10.24l-143.36-106.496c-8.192-6.144-14.336-2.048-18.432-2.048l-92.16 47.104z" />
<glyph unicode="&#xe92e;" glyph-name="Interview" d="M960 876.8h-528c-9.6 0-19.2-3.2-25.6-9.6s-9.6-16-9.6-25.6v-246.4h-352c-9.6 0-19.2-3.2-25.6-9.6s-9.6-16-9.6-25.6v-550.4c0-9.6 3.2-19.2 9.6-25.6s16-9.6 25.6-9.6c9.6 0 19.2 3.2 25.6 9.6l121.6 121.6h380.8c9.6 0 19.2 3.2 25.6 9.6s9.6 16 9.6 25.6v246.4h204.8l121.6-118.4c6.4-6.4 16-9.6 25.6-9.6s19.2 3.2 25.6 9.6c6.4 6.4 9.6 16 9.6 25.6v547.2c0 9.6-3.2 19.2-9.6 25.6s-16 9.6-25.6 9.6v0zM572.8 144h-380.8c-9.6 0-19.2-3.2-25.6-9.6l-118.4-108.8v534.4h352v-137.6c0-9.6 3.2-19.2 9.6-25.6s16-9.6 25.6-9.6h140.8v-243.2zM960 300.8l-112 108.8c-6.4 6.4-19.2 12.8-28.8 12.8h-387.2v419.2h528v-540.8zM822.4 668.8h-265.6c-12.8 0-25.6 9.6-25.6 25.6v0c0 12.8 9.6 25.6 25.6 25.6h265.6c12.8 0 25.6-9.6 25.6-25.6v0c0-12.8-12.8-25.6-25.6-25.6zM822.4 544h-265.6c-12.8 0-25.6 9.6-25.6 25.6v0c0 12.8 9.6 25.6 25.6 25.6h265.6c12.8 0 25.6-9.6 25.6-25.6v0c0-16-12.8-25.6-25.6-25.6zM867.2 160v-169.6c0-12.8-9.6-25.6-25.6-25.6v0c-12.8 0-25.6 9.6-25.6 25.6v169.6c0 12.8 9.6 25.6 25.6 25.6v0c16-3.2 25.6-12.8 25.6-25.6zM992 160v-169.6c0-12.8-9.6-25.6-25.6-25.6v0c-12.8 0-25.6 9.6-25.6 25.6v169.6c0 12.8 9.6 25.6 25.6 25.6v0c16-3.2 25.6-12.8 25.6-25.6zM60.8 854.4v-169.6c0-12.8-9.6-25.6-25.6-25.6v0c-12.8 0-22.4 12.8-22.4 25.6v169.6c0 12.8 9.6 25.6 25.6 25.6v0c9.6-3.2 22.4-12.8 22.4-25.6zM185.6 854.4v-169.6c0-12.8-9.6-25.6-25.6-25.6v0c-12.8 0-22.4 12.8-22.4 25.6v169.6c0 12.8 9.6 25.6 25.6 25.6v0c12.8-3.2 22.4-12.8 22.4-25.6zM224 390.4c0 9.6 3.2 19.2 9.6 32 6.4 9.6 16 19.2 25.6 25.6 12.8 6.4 25.6 9.6 41.6 9.6 12.8 0 25.6-3.2 38.4-9.6 9.6-6.4 19.2-12.8 25.6-22.4s9.6-19.2 9.6-32c0-9.6-3.2-16-6.4-22.4s-6.4-12.8-12.8-16c-3.2-6.4-12.8-12.8-25.6-25.6-6.4-6.4-9.6-9.6-9.6-12.8-3.2-3.2-3.2-3.2-3.2-6.4s-3.2-3.2-3.2-6.4c0-3.2 0-6.4-3.2-9.6-3.2-9.6-6.4-16-16-16-6.4 0-9.6 3.2-12.8 6.4s-6.4 9.6-6.4 16c0 9.6 0 16 3.2 22.4s6.4 12.8 9.6 16c3.2 6.4 9.6 9.6 16 16s9.6 9.6 12.8 12.8c3.2 3.2 6.4 6.4 6.4 9.6 3.2 3.2 3.2 6.4 3.2 12.8 0 9.6-3.2 16-9.6 22.4s-12.8 9.6-22.4 9.6c-9.6 0-19.2-3.2-22.4-9.6s-9.6-16-12.8-25.6c-3.2-12.8-9.6-19.2-19.2-19.2-6.4 0-9.6 3.2-12.8 6.4-3.2 6.4-3.2 9.6-3.2 16zM294.4 220.8c-6.4 0-12.8 3.2-16 6.4s-6.4 9.6-6.4 16c0 6.4 3.2 12.8 6.4 16s9.6 6.4 16 6.4c6.4 0 12.8-3.2 16-6.4s6.4-9.6 6.4-16c0-6.4-3.2-12.8-6.4-16-6.4-6.4-9.6-6.4-16-6.4z" />
<glyph unicode="&#xe92f;" glyph-name="interview" d="M937.984 611.84h-301.056v129.024c0 36.864-28.672 65.536-65.536 65.536h-485.376c-34.816 0-65.536-28.672-65.536-65.536v-301.056c0-36.864 28.672-65.536 65.536-65.536h49.152v-38.912c0-16.384-2.048-45.056 18.432-51.2 18.432-6.144 38.912 10.24 51.2 20.48l86.016 71.68h96.256v-129.024c0-36.864 28.672-65.536 65.536-65.536h280.576l86.016-71.68c8.192-6.144 32.768-26.624 51.2-18.432 14.336 6.144 18.432 18.432 18.432 51.2v38.912h49.152c36.864 0 65.536 28.672 65.536 65.536v299.008c0 36.864-30.72 65.536-65.536 65.536v0zM284.672 404.992c-4.096 0-6.144-2.048-10.24-4.096l-90.112-75.776c-6.144-4.096-14.336-12.288-18.432-8.192-2.048 2.048-2.048 14.336-2.048 16.384v55.296c0 8.192-6.144 14.336-14.336 14.336h-63.488c-20.48 0-36.864 16.384-36.864 36.864v301.056c0 20.48 16.384 36.864 36.864 36.864h485.376c20.48 0 36.864-16.384 36.864-36.864v-301.056c0-20.48-16.384-36.864-36.864-36.864h-286.72zM972.8 247.296c0-20.48-16.384-36.864-36.864-36.864h-65.536c-8.192 0-14.336-6.144-14.336-14.336v-55.296c0-6.144 2.048-18.432-4.096-16.384-2.048 0-12.288 8.192-14.336 10.24l-86.016 71.68c-2.048 2.048-6.144 4.096-10.24 4.096h-290.816c-20.48 0-36.864 16.384-36.864 36.864v129.024h155.648c36.864 0 65.536 28.672 65.536 65.536v141.312h299.008c20.48 0 36.864-16.384 36.864-36.864v-299.008zM876.544 513.536h-161.792c-8.192 0-14.336-6.144-14.336-14.336s6.144-14.336 14.336-14.336h161.792c8.192 0 14.336 6.144 14.336 14.336s-6.144 14.336-14.336 14.336zM876.544 409.088h-161.792c-8.192 0-14.336-6.144-14.336-14.336s6.144-14.336 14.336-14.336h161.792c8.192 0 14.336 6.144 14.336 14.336 2.048 8.192-6.144 14.336-14.336 14.336zM876.544 306.688h-364.544c-8.192 0-14.336-6.144-14.336-14.336s6.144-14.336 14.336-14.336h364.544c8.192 0 14.336 6.144 14.336 14.336 2.048 8.192-6.144 14.336-14.336 14.336v0zM329.728 724.48c-38.912 0-71.68-30.72-71.68-69.632 0 0 0 0 0 0 0-8.192 6.144-14.336 14.336-14.336s14.336 4.096 14.336 12.288c0 10.24 4.096 22.528 12.288 28.672 8.192 8.192 18.432 12.288 30.72 12.288 22.528 0 40.96-18.432 40.96-40.96 0-16.384-8.192-30.72-22.528-36.864-20.48-10.24-32.768-30.72-32.768-53.248v-28.672c0-8.192 6.144-14.336 14.336-14.336s14.336 6.144 14.336 14.336v28.672c0 12.288 8.192 22.528 18.432 26.624 24.576 12.288 38.912 36.864 38.912 65.536-2.048 36.864-32.768 67.584-71.68 69.632v0zM344.064 478.72c0-7.918-6.418-14.336-14.336-14.336s-14.336 6.418-14.336 14.336c0 7.918 6.418 14.336 14.336 14.336s14.336-6.418 14.336-14.336z" />
<glyph unicode="&#xe930;" glyph-name="interview-3" horiz-adv-x="1707" d="M1652.053 192l-75.093 98.987v252.587c0 81.92-68.267 150.187-153.6 150.187h-457.387v78.507c0 85.333-68.267 153.6-150.187 153.6h-651.947c-81.92 0-150.187-68.267-150.187-153.6v-522.24c0-81.92 64.853-150.187 146.773-153.6l-10.24-37.547c-23.893-85.333 34.133-102.4 105.813-54.613l167.253 95.573h208.213c10.24-71.68 75.093-122.88 150.187-122.88h645.12c81.92 0 139.947 51.2 146.773 109.227h47.787c95.573-10.24 81.92 44.373 30.72 105.813zM628.053 543.573v-372.053h-197.973c-30.72 0-54.613-10.24-78.507-23.893l-98.987-61.44c-10.24-6.827-30.72-17.067-27.307-6.827l6.827 30.72c6.827 40.96 0 58.027-71.68 61.44-40.96 0-75.093 34.133-75.093 75.093v525.653c0 40.96 34.133 75.093 75.093 75.093h655.36c40.96 0 75.093-34.133 75.093-75.093v0-81.92h-112.64c-81.92 0-150.187-64.853-150.187-146.773zM1576.96 154.453h-10.24c-44.373 3.413-61.44 0-64.853-34.133-3.413-40.96-34.133-75.093-75.093-75.093h-648.533c-40.96 0-75.093 34.133-75.093 75.093v423.253c0 40.96 34.133 75.093 75.093 75.093v0h645.12c40.96 0 75.093-34.133 75.093-75.093l3.413-249.173c0-30.72 3.413-30.72 17.067-54.613l51.2-68.267c10.24-13.653 17.067-17.067 6.827-17.067zM1150.293 321.707c0-32.047-25.979-58.027-58.027-58.027s-58.027 25.979-58.027 58.027c0 32.047 25.979 58.027 58.027 58.027s58.027-25.979 58.027-58.027zM904.533 379.733c-30.72 0-58.027-23.893-58.027-58.027s23.893-58.027 58.027-58.027c30.72 0 58.027 23.893 58.027 58.027s-27.307 58.027-58.027 58.027zM1338.027 321.707c0-32.047-25.979-58.027-58.027-58.027s-58.027 25.979-58.027 58.027c0 32.047 25.979 58.027 58.027 58.027s58.027-25.979 58.027-58.027zM450.56 768.853v0c-75.093 0-133.12-58.027-133.12-129.707 0-17.067 13.653-30.72 30.72-30.72 20.48 0 30.72 10.24 30.72 27.307s6.827 37.547 20.48 47.787c13.653 13.653 30.72 20.48 51.2 20.48 37.547 0 68.267-30.72 68.267-68.267 0-27.307-13.653-51.2-37.547-61.44-37.547-20.48-61.44-58.027-61.44-98.987v-51.2c0-17.067 13.653-30.72 30.72-30.72s30.72 13.653 30.72 30.72v51.2c0 17.067 10.24 34.133 30.72 40.96 44.373 23.893 71.68 68.267 71.68 122.88-3.413 68.267-61.44 126.293-133.12 129.707zM450.56 362.667c-20.48 0-37.547-17.067-37.547-37.547s17.067-37.547 37.547-37.547 37.547 17.067 37.547 37.547-17.067 37.547-37.547 37.547z" />
<glyph unicode="&#xe931;" glyph-name="growth-gauge" d="M79.872 820.736v-659.456h-40.96v-40.96h452.608v-47.104c-24.576-8.192-40.96-30.72-40.96-57.344 0-34.816 28.672-61.44 61.44-61.44s61.44 28.672 61.44 61.44c0 26.624-16.384 49.152-40.96 57.344v47.104h452.608v40.96h-864.256v659.456h782.336v-700.416h40.96v700.416c34.816 0 61.44 28.672 61.44 61.44s-28.672 61.44-61.44 61.44h-864.256c-34.816 0-61.44-28.672-61.44-61.44s26.624-61.44 61.44-61.44zM512 34.304c12.288 0 20.48-10.24 20.48-20.48 0-12.288-10.24-20.48-20.48-20.48s-20.48 10.24-20.48 20.48c0 12.288 8.192 20.48 20.48 20.48zM79.872 902.656h864.256c12.288 0 20.48-10.24 20.48-20.48s-10.24-20.48-20.48-20.48h-864.256c-12.288 0-20.48 10.24-20.48 20.48s8.192 20.48 20.48 20.48zM770.048 609.792h-102.4c-12.288 0-20.48-10.24-20.48-20.48v-329.728h-61.44v206.848c0 12.288-10.24 20.48-20.48 20.48h-102.4c-12.288 0-20.48-10.24-20.48-20.48v-206.848h-61.44v102.4c0 12.288-10.24 20.48-20.48 20.48h-102.4c-12.288 0-20.48-10.24-20.48-20.48v-102.4h-40.96v-40.96h638.976v40.96h-40.96v329.728c-4.096 12.288-14.336 20.48-24.576 20.48zM337.92 259.584h-61.44v81.92h61.44v-81.92zM542.72 259.584h-61.44v184.32h61.44v-184.32zM749.568 259.584h-61.44v309.248h61.44v-309.248zM585.728 556.544c6.144 0 10.24 2.048 14.336 6.144l122.88 122.88-6.144-40.96 40.96-6.144 14.336 102.4c2.048 6.144-2.048 12.288-6.144 18.432-4.096 4.096-10.24 6.144-14.336 6.144h-2.048l-102.4-14.336 6.144-40.96 40.96 6.144-116.736-116.736h-135.168c-8.192 0-14.336-4.096-18.432-10.24l-36.864-90.112h-153.6v-40.96h163.84c8.192 0 14.336 4.096 18.432 10.24l36.864 90.112 133.12-2.048z" />
</font>
</defs>
</svg>
