<?xml version="1.0" encoding="utf-8"?>
<!-- Generator: Adobe Illustrator 16.0.0, SVG Export Plug-In . SVG Version: 6.00 Build 0)  -->
<!DOCTYPE svg PUBLIC "-//W3C//DTD SVG 1.1//EN" "http://www.w3.org/Graphics/SVG/1.1/DTD/svg11.dtd">
<svg version="1.1" id="Layer_1" xmlns="http://www.w3.org/2000/svg" xmlns:xlink="http://www.w3.org/1999/xlink" x="0px" y="0px"
	 width="55.23px" height="63.09px" viewBox="0 0 55.23 63.09" enable-background="new 0 0 55.23 63.09" xml:space="preserve">
<path opacity="0.4" fill="#3D68B1" enable-background="new    " d="M49.676,63.273H2.926c-1.614,0-2.928-1.313-2.928-2.93V20.253
	c0-1.615,1.313-2.929,2.928-2.929h46.75c1.615,0,2.931,1.313,2.931,2.929v40.079C52.619,61.96,51.305,63.273,49.676,63.273z"/>
<path fill="#ABF6FF" d="M52.303,60.646H5.553c-1.615,0-2.929-1.313-2.929-2.929V17.626c0-1.615,1.313-2.928,2.929-2.928h46.75
	c1.614,0,2.93,1.313,2.93,2.928v40.079C55.244,59.334,53.932,60.646,52.303,60.646z"/>
<g>
	<path fill="#1E4078" d="M20.261,12.99c-0.407,0-0.763,0-1.13,0c-1.194-0.025-1.942-0.958-1.628-2.035
		c0.171-0.604,0.828-1.063,1.497-1.077c6.303-0.025,12.62-0.052,18.923-0.078c0.382,0,0.802,0.065,1.156,0.223
		c0.656,0.303,0.918,1.064,0.695,1.8c-0.185,0.617-0.867,1.076-1.537,1.05c-0.367-0.013-0.723,0-1.104,0
		c-0.012,0.145-0.024,0.236-0.024,0.315c0.053,2.731,0.104,5.463,0.17,8.208c0,0.157,0.066,0.341,0.145,0.485
		c3.98,6.986,7.974,13.973,11.966,20.959c0.405,0.723,0.893,1.444,1.143,2.232c0.957,2.994-0.277,5.568-2.68,7.117
		c-0.763,0.498-1.654,0.723-2.547,0.734c-2.521,0.066-5.058,0.092-7.578,0.092c-7.644,0.014-15.286,0.014-22.93-0.013
		c-1.248,0-2.521,0-3.716-0.435c-2.417-0.893-4.005-2.704-4.071-5.437c-0.039-1.522,0.46-2.889,1.208-4.176
		c1.208-2.088,2.43-4.163,3.651-6.237c2.771-4.78,5.528-9.548,8.286-14.327c0.118-0.211,0.184-0.473,0.184-0.71
		c-0.013-2.797-0.052-5.581-0.078-8.378C20.261,13.201,20.261,13.122,20.261,12.99z M20.786,12.36
		c0.039,0.236,0.092,0.446,0.092,0.644c0.04,2.941,0.066,5.883,0.079,8.824c0,0.224-0.064,0.486-0.184,0.684
		c-0.973,1.72-1.97,3.427-2.968,5.134c-3.073,5.279-6.159,10.545-9.206,15.838c-0.644,1.115-1.012,2.35-0.984,3.676
		c0.052,2.533,1.812,4.373,4.11,4.91c0.984,0.225,2.021,0.277,3.046,0.277c9.258,0.025,18.528,0.025,27.787,0.012
		c1.037,0,2.102-0.012,3.127-0.156c2.336-0.328,3.729-1.813,4.358-4.006c0.406-1.404,0.117-2.771-0.604-4.045
		c-0.195-0.354-0.445-0.695-0.644-1.051c-3.967-6.947-7.932-13.907-11.897-20.854c-0.195-0.328-0.275-0.67-0.287-1.038
		c-0.053-2.797-0.105-5.581-0.158-8.378c-0.014-0.46,0.131-0.591,0.578-0.591c0.445,0,0.893,0.013,1.338-0.014
		c0.5-0.025,0.814-0.42,0.803-0.932c-0.014-0.473-0.342-0.827-0.828-0.854c-0.223-0.014-0.434-0.014-0.655-0.014
		c-6.199,0.026-12.384,0.053-18.583,0.079c-0.065,0-0.146,0-0.21,0c-0.513,0.039-0.867,0.407-0.88,0.919
		c-0.014,0.486,0.302,0.827,0.813,0.894c0.236,0.026,0.473,0.039,0.722,0.039C19.985,12.373,20.379,12.36,20.786,12.36z"/>
	<path fill="#FFFFFF" d="M20.786,12.36c0.039,0.236,0.092,0.446,0.092,0.644c0.04,2.941,0.066,5.883,0.079,8.824
		c0,0.224-0.064,0.486-0.184,0.684c-0.973,1.72-1.97,3.427-2.968,5.134c-3.073,5.279-6.159,10.545-9.206,15.838
		c-0.644,1.115-1.012,2.35-0.984,3.676c0.052,2.533,1.812,4.373,4.11,4.91c0.984,0.225,2.021,0.277,3.046,0.277
		c9.258,0.025,18.528,0.025,27.787,0.012c1.037,0,2.102-0.012,3.127-0.156c2.336-0.328,3.729-1.813,4.358-4.006
		c0.406-1.404,0.117-2.771-0.604-4.045c-0.195-0.354-0.445-0.695-0.644-1.051c-3.967-6.947-7.932-13.907-11.897-20.854
		c-0.195-0.328-0.275-0.67-0.287-1.038c-0.053-2.797-0.105-5.581-0.158-8.378c-0.014-0.46,0.131-0.591,0.578-0.591
		c0.445,0,0.893,0.013,1.338-0.014c0.5-0.025,0.814-0.42,0.803-0.932c-0.014-0.473-0.342-0.827-0.828-0.854
		c-0.223-0.014-0.434-0.014-0.655-0.014c-6.199,0.026-12.384,0.053-18.583,0.079c-0.065,0-0.146,0-0.21,0
		c-0.513,0.039-0.867,0.407-0.88,0.919c-0.014,0.486,0.302,0.827,0.813,0.894c0.236,0.026,0.473,0.039,0.722,0.039
		C19.985,12.373,20.379,12.36,20.786,12.36z"/>
	<path fill="#1E4078" d="M25.448,5.899c0.013-1.222,1.051-2.232,2.259-2.206c1.222,0.026,2.233,1.063,2.206,2.271
		c-0.039,1.234-1.049,2.22-2.258,2.206C26.407,8.145,25.422,7.134,25.448,5.899z"/>
	<path fill="#1E4078" d="M33.406,3.838c-0.998,0-1.826-0.814-1.826-1.8c0-0.998,0.828-1.838,1.826-1.852
		c1.023-0.013,1.838,0.828,1.826,1.878C35.219,3.063,34.43,3.838,33.406,3.838z"/>
	<path fill="#1E4078" d="M35.324,16.432c0.039,0.591,0.104,1.129,0.117,1.681c0.014,1.155,0,2.324,0.014,3.479
		c0,0.132,0.053,0.276,0.117,0.381c4.15,7.367,8.313,14.734,12.477,22.102c0.435,0.748,0.802,1.51,0.894,2.39
		c0.25,2.221-1.603,4.518-3.834,4.598c-2.232,0.078-4.479,0.064-6.726,0.078c-8.391,0.053-16.782,0.092-25.174,0.118
		c-2.207,0.013-4.019-1.483-4.373-3.56c-0.131-0.801-0.131-1.629,0.25-2.363c0.657-1.287,1.354-2.548,2.075-3.795
		c3.598-6.291,7.209-12.567,10.821-18.845c0.104-0.184,0.158-0.407,0.158-0.617c0.013-1.234,0-2.456-0.014-3.69
		c-0.013-0.735-0.013-1.471-0.053-2.206c-0.026-0.446,0.105-0.709,0.499-0.972c1.077-0.709,2.272-0.972,3.506-0.867
		c1.274,0.105,2.456,0.578,3.547,1.248c0.722,0.446,1.443,0.88,2.283,1.09c0.947,0.224,1.865,0.053,2.799-0.131
		C34.877,16.51,35.061,16.471,35.324,16.432z M27.299,28.881c0.065-1.104,0.146-2.167,0.21-3.244
		c-1.011-0.065-1.981-0.118-2.967-0.184c-0.079,1.09-0.145,2.127-0.224,3.204c-1.09-0.053-2.14-0.118-3.23-0.171
		c-0.064,1.012-0.131,1.983-0.196,2.968c1.09,0.079,2.153,0.145,3.229,0.224c-0.064,1.089-0.145,2.14-0.21,3.216
		c1.011,0.066,1.982,0.119,2.968,0.186c0.079-1.104,0.146-2.141,0.225-3.218c1.09,0.065,2.152,0.132,3.23,0.184
		c0.064-1.011,0.131-1.982,0.195-2.968C29.439,29.024,28.39,28.946,27.299,28.881z M35.547,44.639
		c-0.709,0.854-1.379,1.655-2.073,2.482c0.772,0.645,1.522,1.261,2.282,1.904c0.697-0.828,1.379-1.643,2.076-2.471
		c0.84,0.711,1.654,1.379,2.482,2.075c0.643-0.762,1.272-1.51,1.901-2.271c-0.84-0.696-1.653-1.379-2.479-2.075
		c0.695-0.841,1.379-1.654,2.074-2.495c-0.775-0.645-1.511-1.262-2.271-1.891c-0.709,0.826-1.393,1.642-2.088,2.469
		c-0.84-0.709-1.643-1.379-2.469-2.063c-0.646,0.762-1.273,1.51-1.904,2.26C33.904,43.26,34.719,43.941,35.547,44.639z
		 M24.699,44.152c-0.079-1.012-0.157-1.969-0.223-2.967c-3.152,0.223-6.265,0.445-9.39,0.668c0.065,0.998,0.131,1.957,0.21,2.955
		C18.422,44.586,21.535,44.363,24.699,44.152z M31.068,37.206c2.994-0.263,5.949-0.524,8.916-0.774
		c-0.092-0.945-0.17-1.865-0.262-2.811c-2.994,0.263-5.949,0.512-8.916,0.773C30.898,35.342,30.99,36.261,31.068,37.206z
		 M28.429,18.664c0.053-0.906-0.656-1.642-1.604-1.694c-0.919-0.053-1.694,0.67-1.72,1.628c-0.04,0.88,0.722,1.668,1.628,1.708
		C27.628,20.331,28.39,19.596,28.429,18.664z M19.617,41.055c0.867,0,1.497-0.645,1.51-1.523c0-0.762-0.683-1.432-1.471-1.432
		c-0.814,0-1.484,0.67-1.484,1.483C18.16,40.371,18.83,41.055,19.617,41.055z M21.587,46.438c0.014-0.84-0.604-1.496-1.431-1.521
		c-0.788-0.025-1.484,0.656-1.497,1.471c-0.013,0.787,0.645,1.483,1.392,1.497C20.917,47.896,21.574,47.292,21.587,46.438z
		 M31.174,23.115c0-0.577-0.473-1.051-1.051-1.051s-1.037,0.474-1.037,1.064c0,0.604,0.445,1.037,1.052,1.037
		C30.727,24.166,31.174,23.706,31.174,23.115z M32.645,19.53c-0.42,0-0.787,0.381-0.787,0.801c0,0.421,0.381,0.788,0.801,0.788
		s0.787-0.381,0.787-0.801S33.078,19.53,32.645,19.53z"/>
	<path fill="#1E4078" d="M29.572,13.148c0-0.854,0.709-1.55,1.563-1.55c0.841,0.013,1.535,0.709,1.523,1.536
		c0,0.867-0.709,1.563-1.563,1.55C30.254,14.672,29.572,13.988,29.572,13.148z"/>
	<path fill="#FFFFFF" d="M25.106,18.624c0-0.919,0.762-1.681,1.681-1.668c0.905,0.014,1.654,0.762,1.654,1.668
		c0,0.933-0.762,1.682-1.682,1.668C25.841,20.279,25.106,19.53,25.106,18.624z"/>
	<path fill="#FFFFFF" d="M31.857,20.331c0-0.433,0.354-0.801,0.801-0.787c0.434,0,0.787,0.367,0.787,0.787
		c0,0.447-0.367,0.802-0.801,0.788C32.211,21.106,31.869,20.752,31.857,20.331z"/>
	<path fill="#FFFFFF" d="M29.072,23.115c0-0.577,0.473-1.063,1.064-1.051c0.563,0,1.036,0.486,1.036,1.051
		c0,0.591-0.485,1.063-1.063,1.051C29.545,24.153,29.086,23.68,29.072,23.115z"/>
</g>
</svg>
