<?xml version="1.0" encoding="utf-8"?>
<!-- Generator: Adobe Illustrator 24.1.1, SVG Export Plug-In . SVG Version: 6.00 Build 0)  -->
<svg version="1.1" id="Layer_1" xmlns="http://www.w3.org/2000/svg" xmlns:xlink="http://www.w3.org/1999/xlink" x="0px" y="0px"
	 viewBox="0 0 500 550" style="enable-background:new 0 0 500 550;" xml:space="preserve">
<style type="text/css">
	.st0{opacity:0.4;fill:#3267C1;}
	.st1{fill:#B6E0EE;}
	.st2{fill:#003A7F;}
	.st3{fill:#ABEFFF;}
	.st4{opacity:0.5;fill:#3CB4C5;enable-background:new    ;}
	.st5{fill:#F2C12E;}
	.st6{fill:#FF9364;}
	.st7{fill:#FFFFFF;}
	.st8{enable-background:new    ;}
	.st9{fill:#444444;}
	.st10{fill:#444444;stroke:#444444;stroke-width:2;stroke-miterlimit:10;}
</style>
<path class="st0" d="M436.1,484.7h-356c-12.3,0-22.3-10-22.3-22.3V157.1c0-12.3,10-22.3,22.3-22.3h356c12.3,0,22.3,10,22.3,22.3
	v305.2C458.5,474.7,448.5,484.7,436.1,484.7z"/>
<path class="st1" d="M456.1,464.7h-356c-12.3,0-22.3-10-22.3-22.3V137.1c0-12.3,10-22.3,22.3-22.3h356c12.3,0,22.3,10,22.3,22.3
	v305.2C478.5,454.7,468.5,464.7,456.1,464.7z"/>
<path class="st2" d="M167.7,45.2h219.6c11.1,0,20.1,9,20.1,20.1v323.3c0,11.1-9,20.1-20.1,20.1H167.7c-11.1,0-20.1-9-20.1-20.1V65.3
	C147.6,54.2,156.6,45.2,167.7,45.2z"/>
<rect x="171" y="75.1" class="st3" width="215.5" height="72.7"/>
<polygon class="st4" points="176.7,85.6 386.5,85.6 386.5,75.1 171,75.1 171,147.9 176.7,147.9 "/>
<path class="st5" d="M257,268.3h-72.7c-7.4,0-13.4-6-13.4-13.4v-66.3c0-7.4,6-13.4,13.4-13.4H257c7.4,0,13.4,6,13.4,13.4v66.3
	C270.4,262.3,264.4,268.3,257,268.3z"/>
<path class="st6" d="M373.3,268.3h-73c-7.3,0-13.2-5.9-13.2-13.2v-66.7c0-7.3,5.9-13.2,13.2-13.2h73c7.3,0,13.2,5.9,13.2,13.2v66.7
	C386.5,262.4,380.6,268.3,373.3,268.3z"/>
<path class="st6" d="M257.7,382.9h-74c-7,0-12.7-5.7-12.7-12.7v-67.6c0-7,5.7-12.7,12.7-12.7h74c7,0,12.7,5.7,12.7,12.7v67.6
	C270.4,377.3,264.7,382.9,257.7,382.9z"/>
<path class="st5" d="M373.2,382.9h-72.8c-7.3,0-13.3-6-13.3-13.3v-66.4c0-7.3,6-13.3,13.3-13.3h72.8c7.3,0,13.3,6,13.3,13.3v66.5
	C386.5,377,380.5,382.9,373.2,382.9z"/>
<g>
	<polygon class="st7" points="238.9,219.7 222.8,219.7 222.8,203.6 218.6,203.6 218.6,219.7 202.5,219.7 202.5,223.8 218.6,223.8 
		218.6,239.9 222.8,239.9 222.8,223.8 238.9,223.8 	"/>
</g>
<g>
	<polygon class="st7" points="351.8,348.4 339.8,336.4 351.8,324.5 348.7,321.4 336.8,333.4 324.8,321.4 321.7,324.5 333.7,336.4 
		321.7,348.4 324.8,351.5 336.8,339.5 348.7,351.5 	"/>
</g>
<g>
	<rect x="318.6" y="219.4" class="st7" width="36.3" height="4.7"/>
</g>
<g>
	<g>
		<rect x="202.5" y="334.1" class="st7" width="36.3" height="4.7"/>
	</g>
	<circle class="st7" cx="220.7" cy="324.1" r="4.3"/>
	<circle class="st7" cx="220.7" cy="348.7" r="4.3"/>
</g>
<g class="st8">
	<path class="st9" d="M263,111.9c0.9-0.2,1.7-0.3,2.5-0.4s1.5-0.1,2.3-0.1c2,0,3.8,0.3,5.4,0.9s2.9,1.4,3.9,2.5s1.9,2.3,2.4,3.8
		s0.8,3,0.8,4.7c0,2.1-0.4,3.9-1.1,5.6c-0.7,1.7-1.7,3.2-3,4.4s-2.8,2.1-4.6,2.8c-1.8,0.7-3.7,1-5.8,1c-1.2,0-2.4-0.1-3.5-0.4
		c-1.1-0.3-2.1-0.6-3.1-1s-1.8-0.9-2.7-1.4c-0.8-0.5-1.5-1.1-2.2-1.7l2-2.8c0.4-0.6,1-0.9,1.7-0.9c0.4,0,0.9,0.1,1.4,0.4
		c0.5,0.3,1,0.6,1.6,0.9c0.6,0.3,1.3,0.7,2.1,0.9s1.8,0.4,2.9,0.4c1.2,0,2.3-0.2,3.2-0.6c0.9-0.4,1.7-0.9,2.3-1.6
		c0.6-0.7,1.1-1.5,1.4-2.5s0.5-2,0.5-3.2c0-2.1-0.6-3.8-1.8-4.9c-1.2-1.2-3-1.8-5.4-1.8c-1.8,0-3.7,0.3-5.7,1l-4.1-1.2l3.2-18.8
		h19.1v2.8c0,0.9-0.3,1.7-0.9,2.3s-1.6,0.9-3,0.9h-10.6L263,111.9z"/>
	<path class="st9" d="M364.6,97.9v2.9c0,0.9-0.1,1.6-0.3,2.1s-0.4,1-0.5,1.3l-14.7,30.2c-0.3,0.6-0.7,1.2-1.3,1.6
		c-0.6,0.4-1.3,0.7-2.2,0.7h-4.8l15-29.6c0.3-0.6,0.7-1.2,1-1.7s0.7-1,1.1-1.5h-18.6c-0.4,0-0.8-0.2-1.1-0.5
		c-0.3-0.3-0.5-0.7-0.5-1.1v-4.5L364.6,97.9L364.6,97.9z"/>
</g>
<g>
	<polygon class="st10" points="322.5,127.4 313,117.9 322.5,108.4 320.1,105.9 310.6,115.4 301,105.9 298.6,108.4 308.1,117.9 
		298.6,127.4 301,129.8 310.6,120.3 320.1,129.8 	"/>
</g>
</svg>
