<?xml version="1.0" encoding="utf-8"?>
<!-- Generator: Adobe Illustrator 24.1.1, SVG Export Plug-In . SVG Version: 6.00 Build 0)  -->
<svg version="1.1" id="Layer_1" xmlns="http://www.w3.org/2000/svg" xmlns:xlink="http://www.w3.org/1999/xlink" x="0px" y="0px"
	 viewBox="0 0 500 550" style="enable-background:new 0 0 500 550;" xml:space="preserve">
<style type="text/css">
	.st0{opacity:0.4;fill:#3267C1;}
	.st1{fill:#B6E0EE;}
	.st2{fill:#003A7F;}
	.st3{fill:#ABEFFF;}
	.st4{opacity:0.5;fill:#3CB4C5;enable-background:new    ;}
	.st5{fill:#F2C12E;}
	.st6{fill:#FF9364;}
	.st7{fill:#FFFFFF;}
	.st8{fill:#444444;}
	.st9{fill:#444444;stroke:#444444;stroke-width:2;stroke-miterlimit:10;}
</style>
<path class="st0" d="M436.1,484.7h-356c-12.3,0-22.3-10-22.3-22.3V157.1c0-12.3,10-22.3,22.3-22.3h356c12.3,0,22.3,10,22.3,22.3
	v305.2C458.5,474.7,448.5,484.7,436.1,484.7z"/>
<path class="st1" d="M456.1,464.7h-356c-12.3,0-22.3-10-22.3-22.3V137.1c0-12.3,10-22.3,22.3-22.3h356c12.3,0,22.3,10,22.3,22.3
	v305.2C478.5,454.7,468.5,464.7,456.1,464.7z"/>
<path class="st2" d="M167.7,45.2h219.6c11.1,0,20.1,9,20.1,20.1v323.3c0,11.1-9,20.1-20.1,20.1H167.7c-11.1,0-20.1-9-20.1-20.1V65.3
	C147.6,54.2,156.6,45.2,167.7,45.2z"/>
<rect x="171" y="75.1" class="st3" width="215.5" height="72.7"/>
<polygon class="st4" points="176.7,85.6 386.5,85.6 386.5,75.1 171,75.1 171,147.9 176.7,147.9 "/>
<path class="st5" d="M257,268.3h-72.7c-7.4,0-13.4-6-13.4-13.4v-66.3c0-7.4,6-13.4,13.4-13.4H257c7.4,0,13.4,6,13.4,13.4v66.3
	C270.4,262.3,264.4,268.3,257,268.3z"/>
<path class="st6" d="M373.3,268.3h-73c-7.3,0-13.2-5.9-13.2-13.2v-66.7c0-7.3,5.9-13.2,13.2-13.2h73c7.3,0,13.2,5.9,13.2,13.2v66.7
	C386.5,262.4,380.6,268.3,373.3,268.3z"/>
<path class="st6" d="M257.7,382.9h-74c-7,0-12.7-5.7-12.7-12.7v-67.6c0-7,5.7-12.7,12.7-12.7h74c7,0,12.7,5.7,12.7,12.7v67.6
	C270.4,377.3,264.7,382.9,257.7,382.9z"/>
<path class="st5" d="M373.2,382.9h-72.8c-7.3,0-13.3-6-13.3-13.3v-66.4c0-7.3,6-13.3,13.3-13.3h72.8c7.3,0,13.3,6,13.3,13.3v66.5
	C386.5,377,380.5,382.9,373.2,382.9z"/>
<g>
	<polygon class="st7" points="238.9,219.7 222.8,219.7 222.8,203.6 218.6,203.6 218.6,219.7 202.5,219.7 202.5,223.8 218.6,223.8 
		218.6,239.9 222.8,239.9 222.8,223.8 238.9,223.8 	"/>
</g>
<g>
	<polygon class="st7" points="351.8,348.4 339.8,336.4 351.8,324.5 348.7,321.4 336.8,333.4 324.8,321.4 321.7,324.5 333.7,336.4 
		321.7,348.4 324.8,351.5 336.8,339.5 348.7,351.5 	"/>
</g>
<g>
	<rect x="318.6" y="219.4" class="st7" width="36.3" height="4.7"/>
</g>
<g>
	<g>
		<rect x="202.5" y="334.1" class="st7" width="36.3" height="4.7"/>
	</g>
	<circle class="st7" cx="220.7" cy="324.1" r="4.3"/>
	<circle class="st7" cx="220.7" cy="348.7" r="4.3"/>
</g>
<g>
	<path class="st8" d="M280.1,111.9l-1.3,1.7c0.8-0.4,1.6-0.7,2.4-0.9c0.9-0.2,1.8-0.3,2.8-0.3c1.5,0,2.9,0.2,4.3,0.7
		s2.6,1.2,3.7,2.2s1.9,2.2,2.5,3.6s1,3.1,1,5.1c0,1.8-0.3,3.5-1,5.1s-1.6,3-2.8,4.1c-1.2,1.2-2.6,2.1-4.3,2.8c-1.7,0.7-3.6,1-5.6,1
		c-2.1,0-3.9-0.3-5.6-1c-1.6-0.7-3-1.6-4.2-2.8s-2.1-2.6-2.7-4.3s-0.9-3.5-0.9-5.6c0-1.8,0.4-3.7,1.1-5.6s1.9-3.9,3.4-6l9.2-12.4
		c0.3-0.4,0.8-0.8,1.4-1.1c0.6-0.3,1.3-0.5,2.1-0.5h5.9L280.1,111.9z M281.6,131.6c1.1,0,2-0.2,2.9-0.5c0.9-0.4,1.6-0.9,2.3-1.5
		c0.6-0.6,1.1-1.4,1.5-2.3c0.4-0.9,0.5-1.8,0.5-2.8c0-1.1-0.2-2.1-0.5-3s-0.8-1.6-1.4-2.3c-0.6-0.6-1.4-1.1-2.3-1.4
		s-1.8-0.5-2.9-0.5s-2,0.2-2.9,0.5c-0.9,0.4-1.6,0.9-2.2,1.5s-1.1,1.4-1.4,2.3s-0.5,1.8-0.5,2.8c0,1.1,0.1,2.1,0.4,2.9
		s0.7,1.6,1.3,2.3c0.6,0.6,1.3,1.1,2.2,1.5C279.5,131.5,280.5,131.6,281.6,131.6z"/>
	<path class="st8" d="M339.2,108.7c0.3-1.9,0.8-3.5,1.6-4.9c0.8-1.4,1.7-2.6,2.9-3.5c1.2-0.9,2.5-1.6,4-2.1s3.1-0.7,4.8-0.7
		c1.8,0,3.4,0.3,4.8,0.8s2.7,1.2,3.7,2.1s1.8,2,2.3,3.2s0.8,2.5,0.8,3.9c0,1.2-0.1,2.3-0.4,3.3c-0.3,0.9-0.7,1.8-1.2,2.5
		s-1.2,1.3-1.9,1.8c-0.8,0.5-1.6,0.9-2.6,1.2c2.3,0.7,4.1,1.8,5.2,3.4c1.1,1.5,1.7,3.4,1.7,5.7c0,1.9-0.4,3.6-1.1,5.1
		s-1.7,2.7-2.9,3.7c-1.2,1-2.6,1.8-4.2,2.3s-3.3,0.8-5.1,0.8c-1.9,0-3.6-0.2-5.1-0.7c-1.4-0.4-2.7-1.1-3.8-2c-1.1-0.9-2-1.9-2.7-3.2
		c-0.8-1.3-1.4-2.7-1.9-4.4l2.9-1.2c0.8-0.3,1.5-0.4,2.2-0.3c0.7,0.2,1.2,0.5,1.5,1.1s0.7,1.2,1.1,1.8s0.8,1.1,1.4,1.6
		s1.2,0.9,1.9,1.2s1.6,0.4,2.6,0.4c1.1,0,2.1-0.2,2.9-0.5s1.5-0.8,2.1-1.4c0.6-0.6,1-1.2,1.3-2c0.3-0.7,0.4-1.5,0.4-2.2
		c0-0.9-0.1-1.8-0.3-2.5c-0.2-0.8-0.6-1.4-1.2-1.9s-1.5-1-2.7-1.3s-2.7-0.5-4.7-0.5v-4.7c1.6,0,3-0.2,4-0.5c1.1-0.3,1.9-0.7,2.6-1.2
		s1.1-1.1,1.3-1.8c0.3-0.7,0.4-1.5,0.4-2.4c0-1.8-0.5-3.2-1.5-4.2s-2.4-1.4-4.1-1.4c-0.8,0-1.5,0.1-2.2,0.3
		c-0.7,0.2-1.3,0.5-1.8,0.9s-1,0.9-1.3,1.4c-0.4,0.5-0.6,1.1-0.8,1.8c-0.3,0.8-0.7,1.4-1.2,1.6c-0.5,0.3-1.2,0.3-2.1,0.2
		L339.2,108.7z"/>
</g>
<g>
	<g>
		<rect x="307.9" y="116" class="st9" width="20.3" height="3.8"/>
	</g>
</g>
</svg>
