<?xml version="1.0" encoding="utf-8"?>
<!-- Generator: Adobe Illustrator 16.0.0, SVG Export Plug-In . SVG Version: 6.00 Build 0)  -->
<!DOCTYPE svg PUBLIC "-//W3C//DTD SVG 1.1//EN" "http://www.w3.org/Graphics/SVG/1.1/DTD/svg11.dtd">
<svg version="1.1" id="Layer_1" xmlns="http://www.w3.org/2000/svg" xmlns:xlink="http://www.w3.org/1999/xlink" x="0px" y="0px"
	 width="55.23px" height="57.721px" viewBox="0 0 55.23 57.721" enable-background="new 0 0 55.23 57.721" xml:space="preserve">
<path opacity="0.4" fill="#3D68B1" enable-background="new    " d="M49.677,57.718H2.927c-1.614,0-2.928-1.313-2.928-2.929V14.697
	c0-1.615,1.313-2.929,2.928-2.929h46.75c1.615,0,2.93,1.313,2.93,2.929v40.079C52.619,56.404,51.305,57.718,49.677,57.718z"/>
<path fill="#ABF6FF" d="M52.303,55.091H5.553c-1.615,0-2.929-1.313-2.929-2.928V12.07c0-1.615,1.313-2.928,2.929-2.928h46.75
	c1.614,0,2.93,1.313,2.93,2.928v40.079C55.245,53.778,53.932,55.091,52.303,55.091z"/>
<path fill="#203F7C" d="M14.431,0.002h28.838c1.458,0,2.64,1.184,2.64,2.641v42.456c0,1.458-1.182,2.64-2.64,2.64H14.431
	c-1.458,0-2.641-1.182-2.641-2.64V2.642C11.791,1.185,12.973,0.002,14.431,0.002z"/>
<rect x="14.864" y="3.929" fill="#B2E2F4" width="28.3" height="9.547"/>
<polygon opacity="0.5" fill="#3CB4C5" enable-background="new    " points="15.612,5.308 43.164,5.308 43.164,3.929 14.864,3.929 
	14.864,13.489 15.612,13.489 "/>
<path fill="#F1C12C" d="M26.158,29.3H16.61c-0.972,0-1.759-0.787-1.759-1.76v-8.706c0-0.973,0.788-1.76,1.759-1.76h9.548
	c0.971,0,1.759,0.787,1.759,1.76v8.706C27.917,28.512,27.129,29.3,26.158,29.3z"/>
<path fill="#F69267" d="M41.43,29.3h-9.587c-0.959,0-1.732-0.773-1.732-1.732v-8.759c0-0.959,0.773-1.733,1.732-1.733h9.587
	c0.959,0,1.733,0.774,1.733,1.733v8.759C43.164,28.525,42.389,29.3,41.43,29.3z"/>
<path fill="#F69267" d="M26.25,44.349h-9.718c-0.919,0-1.668-0.748-1.668-1.667v-8.878c0-0.92,0.749-1.667,1.668-1.667h9.718
	c0.918,0,1.667,0.747,1.667,1.667v8.878C27.917,43.613,27.168,44.349,26.25,44.349z"/>
<path fill="#F1C12C" d="M41.417,44.349h-9.56c-0.959,0-1.747-0.787-1.747-1.746v-8.721c0-0.959,0.788-1.745,1.747-1.745h9.56
	c0.958,0,1.747,0.786,1.747,1.745v8.732C43.164,43.574,42.375,44.349,41.417,44.349z"/>
<g>
	<polygon fill="#FFFFFF" points="23.781,22.918 21.667,22.918 21.667,20.804 21.115,20.804 21.115,22.918 19,22.918 19,23.456 
		21.115,23.456 21.115,25.57 21.667,25.57 21.667,23.456 23.781,23.456 	"/>
</g>
<g>
	<polygon fill="#FFFFFF" points="38.606,39.818 37.031,38.243 38.606,36.68 38.199,36.272 36.637,37.849 35.061,36.272 
		34.654,36.68 36.23,38.243 34.654,39.818 35.061,40.226 36.637,38.649 38.199,40.226 	"/>
</g>
<g>
	<rect x="34.247" y="22.878" fill="#FFFFFF" width="4.768" height="0.617"/>
</g>
<g>
	<g>
		<rect x="19" y="37.94" fill="#FFFFFF" width="4.768" height="0.617"/>
	</g>
	<circle fill="#FFFFFF" cx="21.391" cy="36.627" r="0.565"/>
	<circle fill="#FFFFFF" cx="21.391" cy="39.858" r="0.565"/>
</g>
<g enable-background="new    ">
	<path fill="#454545" d="M25.882,8.249c0.039-0.249,0.104-0.46,0.196-0.644c0.105-0.185,0.224-0.341,0.381-0.459
		c0.158-0.118,0.329-0.211,0.525-0.276c0.197-0.064,0.408-0.092,0.631-0.092c0.236,0,0.446,0.039,0.631,0.104
		S28.6,7.04,28.731,7.158s0.235,0.263,0.302,0.42c0.066,0.158,0.105,0.329,0.105,0.513c0,0.157-0.015,0.303-0.054,0.435
		c-0.039,0.131-0.092,0.235-0.158,0.313c-0.063,0.079-0.155,0.171-0.248,0.236c-0.104,0.066-0.211,0.118-0.342,0.158
		c0.303,0.092,0.538,0.235,0.684,0.433c0.144,0.197,0.224,0.447,0.224,0.749c0,0.249-0.053,0.474-0.145,0.67
		c-0.093,0.196-0.225,0.354-0.382,0.485c-0.157,0.132-0.342,0.236-0.553,0.303c-0.209,0.065-0.433,0.104-0.669,0.104
		c-0.263,0-0.473-0.026-0.67-0.093c-0.196-0.064-0.354-0.145-0.499-0.263c-0.145-0.118-0.263-0.249-0.354-0.42
		c-0.104-0.171-0.185-0.354-0.25-0.578l0.381-0.157c0.104-0.04,0.195-0.053,0.289-0.04c0.092,0.026,0.155,0.066,0.195,0.146
		s0.093,0.158,0.146,0.236c0.053,0.079,0.104,0.145,0.184,0.211c0.079,0.064,0.157,0.118,0.249,0.144
		c0.093,0.026,0.211,0.053,0.342,0.053c0.146,0,0.276-0.025,0.396-0.077c0.104-0.054,0.197-0.105,0.275-0.186
		c0.078-0.078,0.131-0.171,0.171-0.263s0.053-0.185,0.053-0.289c0-0.118-0.013-0.236-0.04-0.328
		c-0.025-0.104-0.078-0.184-0.157-0.249s-0.196-0.132-0.354-0.171c-0.158-0.039-0.354-0.065-0.617-0.065V8.972
		c0.21,0,0.395-0.026,0.524-0.065c0.146-0.04,0.25-0.093,0.343-0.158c0.092-0.064,0.145-0.145,0.17-0.235
		c0.039-0.093,0.053-0.197,0.053-0.315c0-0.236-0.065-0.42-0.197-0.551c-0.131-0.118-0.313-0.186-0.538-0.186
		c-0.104,0-0.195,0.015-0.289,0.04c-0.092,0.026-0.171,0.065-0.235,0.118C27,7.672,26.933,7.738,26.894,7.804
		C26.855,7.87,26.816,7.949,26.79,8.04c-0.04,0.105-0.093,0.185-0.157,0.21c-0.065,0.039-0.157,0.039-0.275,0.026L25.882,8.249z"/>
	<path fill="#454545" d="M35.061,9.878h-1.365v1.444h-0.709V9.878h-1.354V9.234h1.354V7.789h0.709v1.445h1.365V9.878z"/>
	<path fill="#454545" d="M40.996,10.009v0.499c0,0.054-0.013,0.093-0.052,0.118c-0.026,0.039-0.079,0.054-0.132,0.054h-0.459v1.246
		h-0.763v-1.246H37.45c-0.066,0-0.104-0.015-0.158-0.054c-0.053-0.039-0.063-0.079-0.078-0.131l-0.092-0.434l2.416-3.219h0.827v3.18
		L40.996,10.009L40.996,10.009z M39.592,10.009V8.341c0-0.156,0.014-0.327,0.025-0.524l-1.575,2.181L39.592,10.009L39.592,10.009z"
		/>
</g>
</svg>
