<?xml version="1.0" encoding="utf-8"?>
<!-- Generator: Adobe Illustrator 24.1.1, SVG Export Plug-In . SVG Version: 6.00 Build 0)  -->
<svg version="1.1" id="Layer_1" xmlns="http://www.w3.org/2000/svg" xmlns:xlink="http://www.w3.org/1999/xlink" x="0px" y="0px"
	 viewBox="0 0 50 50" style="enable-background:new 0 0 50 50;" xml:space="preserve">
<style type="text/css">
	.st0{fill:#D80000;stroke:#D80000;stroke-width:3;stroke-miterlimit:10;}
</style>
<g>
	<g>
		<path class="st0" d="M26.1,25L48,3.1c0.3-0.3,0.3-0.8,0-1.1c-0.3-0.3-0.8-0.3-1.1,0L25,23.9L3.1,2C2.8,1.7,2.3,1.7,2,2
			c-0.3,0.3-0.3,0.8,0,1L23.9,25L2,46.9c-0.3,0.3-0.3,0.8,0,1.1s0.8,0.3,1.1,0c0,0,0,0,0,0L25,26.1L46.9,48c0.3,0.3,0.8,0.3,1.1,0
			c0.3-0.3,0.3-0.8,0-1L26.1,25z"/>
	</g>
</g>
</svg>
