<?xml version="1.0" encoding="utf-8"?>
<!-- Generator: Adobe Illustrator 24.1.1, SVG Export Plug-In . SVG Version: 6.00 Build 0)  -->
<svg version="1.1" id="Layer_1" xmlns="http://www.w3.org/2000/svg" xmlns:xlink="http://www.w3.org/1999/xlink" x="0px" y="0px"
	 viewBox="0 0 50 50" style="enable-background:new 0 0 50 50;" xml:space="preserve">
<style type="text/css">
	.st0{fill:#D80000;stroke:#D80000;stroke-miterlimit:10;}
</style>
<g>
	<g>
		<path class="st0" d="M25,1C11.7,1,1,11.7,1,25s10.8,24,24,24s24-10.8,24-24C49,11.7,38.3,1,25,1z M9.6,8.6
			c4.2-3.9,9.7-6.1,15.4-6.1c5.7,0,11.2,2.2,15.3,6.1L8.6,40.3C0.1,31.3,0.6,17,9.6,8.6z M40.4,41.4c-4.2,3.9-9.7,6.1-15.4,6.1
			c-5.7,0-11.2-2.2-15.3-6.1L41.4,9.7C49.9,18.7,49.4,33,40.4,41.4z"/>
	</g>
</g>
</svg>
