<svg width="24" height="24" viewBox="0 0 24 24" fill="none" xmlns="http://www.w3.org/2000/svg">
<path d="M6 13.2C5.33726 13.2 4.8 12.6628 4.8 12C4.8 11.3373 5.33726 10.8 6 10.8H18C18.6628 10.8 19.2 11.3373 19.2 12C19.2 12.6628 18.6628 13.2 18 13.2H6Z" fill="white"/>
<path d="M12 8.4C12.9941 8.4 13.8 7.59411 13.8 6.6C13.8 5.60589 12.9941 4.8 12 4.8C11.0059 4.8 10.2 5.60589 10.2 6.6C10.2 7.59411 11.0059 8.4 12 8.4Z" fill="white"/>
<path d="M12 19.2C12.9941 19.2 13.8 18.3941 13.8 17.4C13.8 16.4059 12.9941 15.6 12 15.6C11.0059 15.6 10.2 16.4059 10.2 17.4C10.2 18.3941 11.0059 19.2 12 19.2Z" fill="white"/>
</svg>
