<svg width="24" height="24" viewBox="0 0 24 24" fill="none" xmlns="http://www.w3.org/2000/svg">
<path d="M9.60271 14.5197L9.63402 14.6016C9.64377 14.6281 9.65849 14.6635 9.6711 14.7008L9.71661 14.8318C9.73443 14.8819 9.74891 14.9325 9.7679 14.9912C9.78599 15.049 9.80741 15.1138 9.82419 15.1774L9.88279 15.3869C9.9021 15.46 9.91832 15.5333 9.93786 15.6132C10.0216 15.958 10.0811 16.3084 10.1159 16.6616C10.1359 16.8495 10.1443 17.0369 10.1485 17.2296C10.1488 17.4184 10.1443 17.612 10.1266 17.8011C10.1092 17.9892 10.0807 18.1761 10.041 18.3608C10.0013 18.5421 9.94879 18.7203 9.88396 18.8942C9.75472 19.2389 9.57346 19.5575 9.338 19.8391C9.22152 19.9812 9.08539 20.1079 8.95053 20.2391C8.81375 20.3683 8.67379 20.4977 8.52768 20.623C8.23223 20.8794 7.92354 21.1201 7.60288 21.3442C7.27907 21.5719 6.93847 21.7828 6.58911 21.9764C6.4141 22.0724 6.23675 22.1641 6.05722 22.2513C5.87827 22.3372 5.69725 22.4188 5.51431 22.4959C5.14944 22.6481 4.7818 22.7802 4.4173 22.8897C4.06541 22.9959 3.70849 23.0848 3.34784 23.1559C2.65813 23.2935 2.02508 23.3499 1.55455 23.3619L1.38631 23.3648L1.23523 23.3647L0.990641 23.3582L0.833844 23.349L0.778438 23.3442L0.773656 23.2888L0.764469 23.132L0.757953 22.8874L0.757812 22.7363L0.760719 22.5681C0.772766 22.0976 0.829109 21.4645 0.966688 20.7748C1.03783 20.4142 1.12669 20.0572 1.23294 19.7053C1.34239 19.3408 1.47453 18.9732 1.62673 18.6083C1.70383 18.4254 1.78537 18.2444 1.87128 18.0654C1.95847 17.8865 2.04988 17.7087 2.1462 17.5335C2.33975 17.1842 2.55069 16.8436 2.77841 16.5198C3.00245 16.1991 3.24318 15.8904 3.49958 15.595C3.62492 15.4489 3.7542 15.3089 3.88353 15.1721C4.01474 15.0373 4.14144 14.9011 4.28352 14.7846C4.56514 14.5492 4.88366 14.3679 5.22838 14.2387C5.40227 14.1739 5.58051 14.1214 5.76177 14.0816C5.94646 14.042 6.13336 14.0134 6.32146 13.9961C6.5106 13.9784 6.70428 13.9739 6.89305 13.9741C7.08571 13.9783 7.27302 13.9868 7.46103 14.0068C7.81423 14.0415 8.16456 14.101 8.50944 14.1848C8.58927 14.2043 8.66258 14.2206 8.73566 14.2399L8.94519 14.2985C9.00885 14.3153 9.07363 14.3367 9.13143 14.3548C9.19011 14.3737 9.24069 14.3882 9.2908 14.406L9.42182 14.4516C9.45908 14.4642 9.49452 14.4789 9.52096 14.4886C9.57482 14.509 9.60271 14.5197 9.60271 14.5197Z" fill="#FFB636"/>
<path d="M3.60282 8.51986L0.203725 11.919C-0.0312123 12.1539 0.135194 12.5556 0.467444 12.5556H3.32424C3.42314 12.5556 3.51802 12.5949 3.58796 12.6648L5.44289 14.5198L8.45559 8.41064H3.86653C3.81756 8.41063 3.76906 8.42027 3.72381 8.43901C3.67856 8.45775 3.63744 8.48523 3.60282 8.51986ZM10.1325 18.403L11.9875 20.2579C12.0574 20.3279 12.0967 20.4227 12.0967 20.5216V23.3784C12.0967 23.7107 12.4984 23.8771 12.7334 23.6422L16.1324 20.2431C16.2024 20.1731 16.2417 20.0783 16.2417 19.9793V15.3903L10.1325 18.403Z" fill="#FF473E"/>
<path d="M23.7024 0.837757L23.706 0.867617C23.7082 0.887257 23.7125 0.917539 23.7156 0.954898C23.7217 1.02957 23.7356 1.14526 23.7423 1.28457C23.7634 1.57116 23.7777 1.97462 23.7677 2.46001C23.758 2.94568 23.7238 3.51301 23.6496 4.12885C23.633 4.28476 23.6094 4.43912 23.5865 4.59952C23.5653 4.76157 23.535 4.91986 23.5074 5.08576C23.4507 5.41608 23.3799 5.75222 23.2982 6.09511C23.128 6.80675 22.9118 7.50661 22.6511 8.19029C22.3821 8.89439 22.0594 9.59771 21.681 10.2809C21.3021 10.9635 20.8711 11.6294 20.3894 12.2623C19.9083 12.8958 19.3772 13.497 18.8073 14.0594C18.2374 14.6219 17.6296 15.1463 16.991 15.6223C16.8313 15.7412 16.6707 15.8581 16.5064 15.97C16.3439 16.0837 16.1779 16.1925 16.0125 16.3002C15.6801 16.5141 15.3406 16.7142 14.9976 16.902C14.3224 17.2714 13.6229 17.5944 12.9038 17.8688C12.2205 18.1289 11.5216 18.3459 10.8111 18.5184C10.469 18.6008 10.1346 18.6734 9.80483 18.7306L9.56206 18.7744C9.48163 18.7882 9.40002 18.7995 9.3208 18.8119L9.08572 18.8478L8.85256 18.8775C8.24005 18.9549 7.67647 18.9929 7.19436 19.0062C6.71277 19.02 6.31161 19.008 6.0283 18.9901C5.89039 18.9849 5.77546 18.9717 5.70168 18.9665C5.66469 18.9637 5.63464 18.9597 5.61524 18.9577L5.58566 18.9544C5.3615 18.9294 5.19149 18.7515 5.16758 18.5363L5.1643 18.5068C5.16233 18.4874 5.15825 18.4574 5.15554 18.4204C5.15033 18.3466 5.13711 18.2317 5.13191 18.0937C5.114 17.8104 5.1021 17.4093 5.11583 16.9277C5.1291 16.4456 5.16707 15.882 5.24455 15.2695L5.27422 15.0363L5.31008 14.8013C5.3225 14.722 5.33389 14.6405 5.34763 14.56L5.39136 14.3172C5.4486 13.9875 5.52116 13.6531 5.60361 13.311C5.77607 12.6005 5.99303 11.9015 6.25321 11.2183C6.52766 10.4992 6.85069 9.79965 7.22005 9.12441C7.40788 8.78147 7.60799 8.44196 7.82178 8.10952C7.9295 7.9441 8.03825 7.77811 8.15197 7.61564C8.26386 7.45135 8.38081 7.29075 8.49974 7.13105C8.9757 6.49243 9.50014 5.88455 10.0626 5.31474C10.625 4.74488 11.2262 4.21374 11.8597 3.73266C12.4926 3.25097 13.1585 2.81991 13.8411 2.44102C14.5243 2.06269 15.2277 1.73991 15.9317 1.47094C16.6154 1.21021 17.3153 0.994056 18.0269 0.823835C18.3698 0.742132 18.7059 0.671351 19.0362 0.614632C19.2021 0.587023 19.3604 0.556789 19.5225 0.535554C19.6829 0.512679 19.8372 0.488961 19.9931 0.472414C20.609 0.398258 21.1763 0.364039 21.662 0.354336C22.1474 0.344351 22.5508 0.358554 22.8374 0.379789C22.9767 0.386398 23.0924 0.400367 23.1671 0.406461C23.2045 0.409554 23.2347 0.41382 23.2544 0.41607L23.2842 0.419679C23.5078 0.446633 23.6766 0.623773 23.7024 0.837757Z" fill="white"/>
<path d="M11.3956 12.7265L11.423 12.8004C11.4382 12.8464 11.4587 12.9125 11.4729 12.9862C11.5064 13.1388 11.5175 13.3245 11.4569 13.4861C11.427 13.5672 11.3717 13.6349 11.3196 13.7168L11.1465 13.9772L10.7309 14.6012C10.5659 14.8457 10.3995 15.0892 10.2316 15.3318C10.0446 15.6017 9.85526 15.87 9.66374 16.1367L9.35858 16.5567L9.04152 16.9826C8.82641 17.2674 8.60629 17.5551 8.38246 17.8392C8.16081 18.1221 7.93636 18.4029 7.70915 18.6815C7.48504 18.9574 7.26529 19.2296 7.04901 19.4894L6.73171 19.8734C6.62662 19.9974 6.53104 20.126 6.42004 20.2332C6.30974 20.3412 6.18248 20.4262 6.03623 20.4852C5.89124 20.5456 5.73252 20.5852 5.57905 20.6223C5.28976 20.6908 4.99731 20.7453 4.70273 20.7855C4.5666 20.8041 4.43643 20.8187 4.31348 20.8297C4.19118 20.8414 4.07287 20.846 3.96918 20.8534C3.8647 20.8601 3.76495 20.8595 3.6816 20.8624C3.59699 20.8641 3.52082 20.8614 3.4612 20.8613C3.40031 20.8599 3.35165 20.8569 3.31982 20.8558L3.26985 20.8524L3.26648 20.8024C3.2654 20.7706 3.26235 20.7219 3.26099 20.6611C3.2609 20.6014 3.25813 20.5253 3.25982 20.4407C3.26273 20.3573 3.26221 20.2576 3.26882 20.1531C3.27623 20.0494 3.28092 19.9311 3.29254 19.8088C3.30351 19.6859 3.31813 19.5557 3.33679 19.4195C3.37697 19.125 3.43144 18.8325 3.50001 18.5432C3.53704 18.3898 3.5767 18.2311 3.63702 18.086C3.69609 17.9397 3.78112 17.8125 3.88902 17.7022C3.99627 17.5913 4.12485 17.4957 4.24893 17.3906L4.63293 17.0733C4.89276 16.857 5.16496 16.6372 5.44082 16.4132C5.71621 16.1886 5.9983 15.9628 6.28316 15.7399C6.56718 15.516 6.85494 15.2959 7.13976 15.0808L7.56561 14.7637L7.98557 14.4586C8.25231 14.2671 8.52063 14.0778 8.7905 13.8907C9.04832 13.712 9.29389 13.545 9.52114 13.3914L10.1451 12.9758L10.4055 12.8027C10.4873 12.7506 10.555 12.6953 10.6363 12.6654C10.7978 12.6048 10.9835 12.6159 11.1361 12.6494C11.2098 12.6636 11.2759 12.6841 11.3219 12.6994L11.3956 12.7265Z" fill="#FF473E"/>
<path d="M16.9739 9.6873C16.9739 11.0897 15.8371 12.2265 14.4347 12.2265C13.0324 12.2265 11.8955 11.0897 11.8955 9.6873C11.8955 8.28494 13.0324 7.14808 14.4347 7.14808C15.8371 7.14808 16.9739 8.28494 16.9739 9.6873ZM18.2503 4.25537C17.3576 4.25537 16.634 4.97903 16.634 5.87172C16.634 6.7644 17.3576 7.48806 18.2503 7.48806C19.143 7.48806 19.8666 6.7644 19.8666 5.87172C19.8666 4.97903 19.143 4.25537 18.2503 4.25537Z" fill="#2B3B47"/>
</svg>
