<?xml version="1.0" encoding="utf-8"?>
<!-- Generator: Adobe Illustrator 26.4.0, SVG Export Plug-In . SVG Version: 6.00 Build 0)  -->
<svg version="1.1" id="Layer_1" xmlns="http://www.w3.org/2000/svg" xmlns:xlink="http://www.w3.org/1999/xlink" x="0px" y="0px"
	 viewBox="0 0 156 60" style="enable-background:new 0 0 156 60;" xml:space="preserve">
<style type="text/css">
	.st0{enable-background:new    ;}
	.st1{fill:#2b95f9;}
	.st2{fill:none;stroke:#2b95f9;stroke-width:2;stroke-miterlimit:10;}
	.st3{fill:none;stroke:#2b95f9;stroke-width:1.5;stroke-miterlimit:10;}
</style>
<g>
	<g class="st0">
		<g>
			<path class="st1" d="M90.2,40.5c0.1-0.1,0.2-0.1,0.2-0.2s0.2-0.1,0.3-0.1s0.2-0.1,0.3-0.1s0.2,0,0.4,0c0.2,0,0.3,0,0.5,0.1
				c0.1,0,0.3,0.1,0.4,0.2c0.1,0.1,0.2,0.2,0.2,0.3s0.1,0.3,0.1,0.4c0,0.1,0,0.3-0.1,0.4c0,0.1-0.1,0.2-0.2,0.3S92.2,42,92.1,42
				s-0.1,0.1-0.2,0.2c-0.1,0-0.1,0.1-0.2,0.1s-0.1,0.1-0.1,0.2v0.4H91l-0.1-0.5c0-0.1,0-0.2,0-0.2c0-0.1,0.1-0.1,0.1-0.2
				s0.1-0.1,0.2-0.2s0.1-0.1,0.2-0.2s0.1-0.1,0.2-0.2s0.1-0.2,0.1-0.3s0-0.2-0.1-0.3s-0.2-0.1-0.3-0.1c-0.1,0-0.2,0-0.3,0
				s-0.1,0.1-0.1,0.2s-0.1,0-0.2,0s-0.1,0-0.1,0c-0.1,0-0.1,0-0.2-0.1L90.2,40.5z M90.7,43.9c0-0.1,0-0.1,0-0.2s0.1-0.1,0.1-0.2
				c0,0,0.1-0.1,0.2-0.1s0.1,0,0.2,0s0.1,0,0.2,0s0.1,0.1,0.2,0.1c0,0,0.1,0.1,0.1,0.2s0,0.1,0,0.2s0,0.1,0,0.2s-0.1,0.1-0.1,0.2
				s-0.1,0.1-0.2,0.1s-0.1,0-0.2,0s-0.1,0-0.2,0s-0.1-0.1-0.2-0.1s-0.1-0.1-0.1-0.2S90.7,44,90.7,43.9z"/>
		</g>
		<g>
			<path class="st1" d="M117.8,40.5c0.1-0.1,0.2-0.1,0.2-0.2s0.2-0.1,0.3-0.1s0.2-0.1,0.3-0.1s0.2,0,0.4,0c0.2,0,0.3,0,0.5,0.1
				c0.1,0,0.3,0.1,0.4,0.2c0.1,0.1,0.2,0.2,0.2,0.3s0.1,0.3,0.1,0.4c0,0.1,0,0.3-0.1,0.4c0,0.1-0.1,0.2-0.2,0.3s-0.1,0.2-0.2,0.2
				s-0.1,0.1-0.2,0.2c-0.1,0-0.1,0.1-0.2,0.1s-0.1,0.1-0.1,0.2v0.4h-0.6l-0.1-0.5c0-0.1,0-0.2,0-0.2c0-0.1,0.1-0.1,0.1-0.2
				s0.1-0.1,0.2-0.2s0.1-0.1,0.2-0.2s0.1-0.1,0.2-0.2s0.1-0.2,0.1-0.3s0-0.2-0.1-0.3s-0.2-0.1-0.3-0.1c-0.1,0-0.2,0-0.3,0
				s-0.1,0.1-0.1,0.2s-0.1,0-0.2,0s-0.1,0-0.1,0c-0.1,0-0.1,0-0.2-0.1L117.8,40.5z M118.3,43.9c0-0.1,0-0.1,0-0.2s0.1-0.1,0.1-0.2
				c0,0,0.1-0.1,0.2-0.1s0.1,0,0.2,0s0.1,0,0.2,0s0.1,0.1,0.2,0.1c0,0,0.1,0.1,0.1,0.2s0,0.1,0,0.2s0,0.1,0,0.2s-0.1,0.1-0.1,0.2
				s-0.1,0.1-0.2,0.1s-0.1,0-0.2,0s-0.1,0-0.2,0s-0.1-0.1-0.2-0.1s-0.1-0.1-0.1-0.2S118.3,44,118.3,43.9z"/>
		</g>
		<g>
			<path class="st1" d="M41.9,43.6v0.6h-2.2v-0.6h0.8v-2.2c0,0,0-0.1,0-0.1c0,0,0-0.1,0-0.2l-0.5,0.4c0,0-0.1,0-0.1,0.1
				c0,0-0.1,0-0.1,0c0,0-0.1,0-0.1,0s0,0-0.1,0l-0.2-0.3l1.2-1h0.6v3.4H41.9z"/>
			<path class="st1" d="M45.2,40.2v0.3c0,0.1,0,0.2,0,0.2c0,0.1,0,0.1-0.1,0.1l-1.5,3c0,0.1-0.1,0.1-0.1,0.2s-0.1,0.1-0.3,0.1h-0.6
				l1.5-3c0-0.1,0.1-0.1,0.1-0.2s0.1-0.1,0.1-0.2h-1.8c0,0-0.1,0-0.1-0.1c0,0-0.1-0.1-0.1-0.1v-0.5H45.2z"/>
		</g>
		<g>
			<path class="st1" d="M66.3,12.8c0.2,0.1,0.4,0.2,0.5,0.4s0.2,0.4,0.2,0.6c0,0.2,0,0.3-0.1,0.5c-0.1,0.1-0.2,0.3-0.3,0.4
				c-0.1,0.1-0.3,0.2-0.4,0.2s-0.4,0.1-0.6,0.1s-0.4,0-0.6-0.1s-0.3-0.1-0.4-0.2c-0.1-0.1-0.2-0.2-0.3-0.4c-0.1-0.1-0.1-0.3-0.1-0.5
				c0-0.2,0.1-0.4,0.2-0.6s0.3-0.3,0.5-0.4c-0.2-0.1-0.3-0.2-0.4-0.3s-0.1-0.3-0.1-0.5c0-0.2,0-0.3,0.1-0.4s0.1-0.2,0.3-0.3
				c0.1-0.1,0.2-0.2,0.4-0.2c0.2-0.1,0.3-0.1,0.5-0.1c0.2,0,0.4,0,0.5,0.1c0.2,0.1,0.3,0.1,0.4,0.2c0.1,0.1,0.2,0.2,0.3,0.3
				s0.1,0.3,0.1,0.4c0,0.2,0,0.4-0.1,0.5S66.5,12.7,66.3,12.8z M65.6,14.3c0.1,0,0.2,0,0.3,0c0.1,0,0.1-0.1,0.2-0.1s0.1-0.1,0.1-0.2
				c0-0.1,0-0.2,0-0.2c0-0.2-0.1-0.4-0.2-0.5c-0.1-0.1-0.3-0.2-0.5-0.2c-0.2,0-0.4,0.1-0.5,0.2c-0.1,0.1-0.2,0.3-0.2,0.5
				c0,0.1,0,0.2,0,0.2c0,0.1,0.1,0.1,0.1,0.2s0.1,0.1,0.2,0.1C65.4,14.3,65.5,14.3,65.6,14.3z M65.6,11.4c-0.1,0-0.2,0-0.2,0
				s-0.1,0.1-0.2,0.1s-0.1,0.1-0.1,0.2c0,0.1,0,0.1,0,0.2c0,0.1,0,0.1,0,0.2s0,0.1,0.1,0.2c0,0.1,0.1,0.1,0.2,0.1s0.2,0,0.3,0
				s0.2,0,0.3,0s0.1-0.1,0.2-0.1c0-0.1,0.1-0.1,0.1-0.2s0-0.1,0-0.2c0-0.1,0-0.1,0-0.2c0-0.1-0.1-0.1-0.1-0.2s-0.1-0.1-0.2-0.1
				S65.7,11.4,65.6,11.4z"/>
			<path class="st1" d="M70.3,12.9c0,0.3,0,0.7-0.1,0.9s-0.2,0.5-0.3,0.6c-0.1,0.2-0.3,0.3-0.5,0.4c-0.2,0.1-0.4,0.1-0.6,0.1
				s-0.4,0-0.6-0.1c-0.2-0.1-0.3-0.2-0.5-0.4c-0.1-0.2-0.2-0.4-0.3-0.6c-0.1-0.3-0.1-0.6-0.1-0.9c0-0.3,0-0.7,0.1-0.9
				c0.1-0.3,0.2-0.5,0.3-0.6c0.1-0.2,0.3-0.3,0.5-0.4c0.2-0.1,0.4-0.1,0.6-0.1s0.4,0,0.6,0.1c0.2,0.1,0.3,0.2,0.5,0.4
				c0.1,0.2,0.2,0.4,0.3,0.6S70.3,12.5,70.3,12.9z M69.5,12.9c0-0.3,0-0.5-0.1-0.7c0-0.2-0.1-0.3-0.2-0.4c-0.1-0.1-0.1-0.2-0.2-0.2
				c-0.1,0-0.2-0.1-0.3-0.1s-0.2,0-0.3,0.1c-0.1,0-0.2,0.1-0.2,0.2c-0.1,0.1-0.1,0.3-0.2,0.4c0,0.2-0.1,0.4-0.1,0.7
				c0,0.3,0,0.5,0.1,0.7c0,0.2,0.1,0.3,0.2,0.4c0.1,0.1,0.1,0.2,0.2,0.2c0.1,0,0.2,0.1,0.3,0.1s0.2,0,0.3-0.1c0.1,0,0.2-0.1,0.2-0.2
				c0.1-0.1,0.1-0.3,0.2-0.4C69.5,13.4,69.5,13.2,69.5,12.9z"/>
		</g>
		<g>
			<path class="st1" d="M105.9,12.5c0.1,0,0.2,0,0.2,0c0.1,0,0.1,0,0.2,0c0.2,0,0.4,0,0.6,0.1c0.2,0.1,0.3,0.1,0.4,0.3
				c0.1,0.1,0.2,0.2,0.2,0.4c0.1,0.1,0.1,0.3,0.1,0.5c0,0.2,0,0.4-0.1,0.6c-0.1,0.2-0.2,0.3-0.3,0.5c-0.1,0.1-0.3,0.2-0.5,0.3
				c-0.2,0.1-0.4,0.1-0.6,0.1c-0.1,0-0.2,0-0.4,0c-0.1,0-0.2-0.1-0.3-0.1c-0.1,0-0.2-0.1-0.3-0.2c-0.1-0.1-0.2-0.1-0.2-0.2l0.2-0.3
				c0-0.1,0.1-0.1,0.2-0.1c0,0,0.1,0,0.1,0c0,0,0.1,0.1,0.2,0.1c0.1,0,0.1,0.1,0.2,0.1c0.1,0,0.2,0,0.3,0c0.1,0,0.2,0,0.3-0.1
				c0.1,0,0.2-0.1,0.2-0.2c0.1-0.1,0.1-0.2,0.1-0.2c0-0.1,0-0.2,0-0.3c0-0.2-0.1-0.4-0.2-0.5c-0.1-0.1-0.3-0.2-0.5-0.2
				c-0.2,0-0.4,0-0.6,0.1l-0.5-0.1l0.3-2h2v0.3c0,0.1,0,0.1,0,0.1c0,0,0,0.1-0.1,0.1s-0.1,0.1-0.1,0.1c-0.1,0-0.1,0-0.2,0h-1
				L105.9,12.5z"/>
		</g>
	</g>
</g>
<g>
	<path class="st2" d="M42.3,32.5c0,0,6.2-14.4,24.1-14.9c7.1-0.2,19.2,2.1,23.9,13.7"/>
	<line class="st2" x1="3.9" y1="36.5" x2="152.1" y2="36.5"/>
	<line class="st3" x1="42.3" y1="38.4" x2="42.3" y2="34.5"/>
	<line class="st3" x1="91.3" y1="38.4" x2="91.3" y2="34.5"/>
	<g>
		<line class="st2" x1="148.4" y1="40" x2="152.6" y2="36"/>
		<line class="st2" x1="148.5" y1="33" x2="152.4" y2="37.2"/>
	</g>
	<g>
		<line class="st2" x1="3.5" y1="35.9" x2="7.8" y2="39.9"/>
		<line class="st2" x1="3.8" y1="37.1" x2="7.6" y2="33"/>
	</g>
	<g>
		<line class="st2" x1="85.8" y1="29.7" x2="91.2" y2="31.8"/>
		<line class="st2" x1="92.1" y1="26.7" x2="90.1" y2="32"/>
	</g>
	<path class="st2" d="M92.6,33c0,0,3.3-14.4,12.8-14.9c3.8-0.2,10.2,2.1,12.8,13.7"/>
	<g>
		<line class="st2" x1="113.7" y1="30.2" x2="119.1" y2="32.3"/>
		<line class="st2" x1="120" y1="27.2" x2="118" y2="32.5"/>
	</g>
	<line class="st3" x1="119" y1="38.2" x2="119" y2="34.3"/>
</g>
</svg>
