<?xml version="1.0" encoding="utf-8"?>
<!-- Generator: Adobe Illustrator 26.4.1, SVG Export Plug-In . SVG Version: 6.00 Build 0)  -->
<svg version="1.1" id="Layer_1" xmlns="http://www.w3.org/2000/svg" xmlns:xlink="http://www.w3.org/1999/xlink" x="0px" y="0px"
	 viewBox="0 0 156 60" style="enable-background:new 0 0 156 60;" xml:space="preserve">
<style type="text/css">
	.st0{enable-background:new    ;}
	.st1{fill:#2b95f9;}
	.st2{fill:none;stroke:#2b95f9;stroke-width:2;stroke-miterlimit:10;}
	.st3{fill:none;stroke:#2b95f9;stroke-width:1.5;stroke-miterlimit:10;}
</style>
<g>
	<g class="st0">
		<g>
			<path class="st1" d="M86.7,40c0.1-0.1,0.2-0.1,0.2-0.2c0-0.1,0.2-0.1,0.3-0.1s0.2-0.1,0.3-0.1s0.2,0,0.4,0c0.2,0,0.3,0,0.5,0.1
				c0.1,0,0.3,0.1,0.4,0.2s0.2,0.2,0.2,0.3s0.1,0.3,0.1,0.4c0,0.1,0,0.3-0.1,0.4c0,0.1-0.1,0.2-0.2,0.3s-0.1,0.2-0.2,0.2
				s-0.1,0.1-0.2,0.2c-0.1,0-0.1,0.1-0.2,0.1s-0.1,0.1-0.1,0.2v0.4h-0.6l-0.1-0.5c0-0.1,0-0.2,0-0.2c0-0.1,0.1-0.1,0.1-0.2
				c0-0.1,0.1-0.1,0.2-0.2c0.1-0.1,0.1-0.1,0.2-0.2C88,41,88,41,88.1,40.9s0.1-0.2,0.1-0.3s0-0.2-0.1-0.3s-0.2-0.1-0.3-0.1
				c-0.1,0-0.2,0-0.3,0s-0.1,0.1-0.1,0.2s-0.1,0-0.2,0s-0.1,0-0.1,0c-0.1,0-0.1,0-0.2-0.1L86.7,40z M87.2,43.4c0-0.1,0-0.1,0-0.2
				c0-0.1,0.1-0.1,0.1-0.2c0,0,0.1-0.1,0.2-0.1s0.1,0,0.2,0s0.1,0,0.2,0S88,43,88.1,43c0,0,0.1,0.1,0.1,0.2c0,0.1,0,0.1,0,0.2
				c0,0.1,0,0.1,0,0.2c0,0.1-0.1,0.1-0.1,0.2c0,0.1-0.1,0.1-0.2,0.1s-0.1,0-0.2,0s-0.1,0-0.2,0s-0.1-0.1-0.2-0.1s-0.1-0.1-0.1-0.2
				C87.2,43.5,87.2,43.5,87.2,43.4z"/>
		</g>
		<g>
			<path class="st1" d="M111.7,39.9c0.1-0.1,0.2-0.1,0.2-0.2c0-0.1,0.2-0.1,0.3-0.1s0.2-0.1,0.3-0.1s0.2,0,0.4,0
				c0.2,0,0.3,0,0.5,0.1c0.1,0,0.3,0.1,0.4,0.2s0.2,0.2,0.2,0.3s0.1,0.3,0.1,0.4c0,0.1,0,0.3-0.1,0.4c0,0.1-0.1,0.2-0.2,0.3
				s-0.1,0.2-0.2,0.2s-0.1,0.1-0.2,0.2c-0.1,0-0.1,0.1-0.2,0.1s-0.1,0.1-0.1,0.2v0.4h-0.6l-0.1-0.5c0-0.1,0-0.2,0-0.2
				c0-0.1,0.1-0.1,0.1-0.2c0-0.1,0.1-0.1,0.2-0.2c0.1-0.1,0.1-0.1,0.2-0.2c0.1-0.1,0.1-0.1,0.2-0.2c0.1-0.1,0.1-0.2,0.1-0.3
				s0-0.2-0.1-0.3s-0.2-0.1-0.3-0.1c-0.1,0-0.2,0-0.3,0s-0.1,0.1-0.1,0.2s-0.1,0-0.2,0s-0.1,0-0.1,0c-0.1,0-0.1,0-0.2-0.1
				L111.7,39.9z M112.2,43.3c0-0.1,0-0.1,0-0.2c0-0.1,0.1-0.1,0.1-0.2c0,0,0.1-0.1,0.2-0.1s0.1,0,0.2,0s0.1,0,0.2,0s0.1,0.1,0.2,0.1
				c0,0,0.1,0.1,0.1,0.2c0,0.1,0,0.1,0,0.2c0,0.1,0,0.1,0,0.2c0,0.1-0.1,0.1-0.1,0.2c0,0.1-0.1,0.1-0.2,0.1s-0.1,0-0.2,0
				s-0.1,0-0.2,0s-0.1-0.1-0.2-0.1s-0.1-0.1-0.1-0.2C112.2,43.4,112.2,43.4,112.2,43.3z"/>
		</g>
	</g>
</g>
<g>
	<path class="st2" d="M41.8,32.5c0,0,9.2-16.7,35.4-17.3c10.4-0.2,28.2,2.4,35.2,15.9"/>
	<line class="st2" x1="3.9" y1="36.5" x2="152.1" y2="36.5"/>
	<line class="st3" x1="41.8" y1="38.4" x2="41.8" y2="34.5"/>
	<line class="st3" x1="87.8" y1="38.5" x2="87.8" y2="34.6"/>
	<g>
		<line class="st2" x1="148.4" y1="40" x2="152.6" y2="36"/>
		<line class="st2" x1="148.5" y1="33" x2="152.4" y2="37.2"/>
	</g>
	<g>
		<line class="st2" x1="3.5" y1="35.9" x2="7.8" y2="39.9"/>
		<line class="st2" x1="3.8" y1="37.1" x2="7.6" y2="33"/>
	</g>
	<g>
		<line class="st2" x1="107.9" y1="29.7" x2="113.3" y2="31.8"/>
		<line class="st2" x1="114.2" y1="26.7" x2="112.2" y2="32"/>
	</g>
	<line class="st3" x1="112.8" y1="38.4" x2="112.8" y2="34.5"/>
	<path class="st3" d="M88.8,32.6c0,0,3.1-6.4,12-6.6c3.5-0.1,9.6,0.9,12,6"/>
	<g>
		<line class="st3" x1="87.6" y1="33.2" x2="91.6" y2="32.7"/>
		<line class="st3" x1="88.4" y1="33.5" x2="87.9" y2="29.6"/>
	</g>
</g>
<g>
	<path class="st1" d="M38.7,41c0-0.2,0.1-0.4,0.2-0.5c0.1-0.1,0.2-0.3,0.3-0.4c0.1-0.1,0.3-0.2,0.4-0.2c0.2,0,0.3-0.1,0.5-0.1
		s0.4,0,0.5,0.1s0.3,0.1,0.4,0.2c0.1,0.1,0.2,0.2,0.2,0.3c0.1,0.1,0.1,0.3,0.1,0.4c0,0.1,0,0.2,0,0.3s-0.1,0.2-0.1,0.3
		S41,41.6,41,41.6c-0.1,0-0.2,0.1-0.3,0.1c0.5,0.2,0.7,0.5,0.7,0.9c0,0.2,0,0.4-0.1,0.5c-0.1,0.2-0.2,0.3-0.3,0.4s-0.3,0.2-0.4,0.2
		c-0.2,0.1-0.3,0.1-0.5,0.1s-0.4,0-0.5-0.1c-0.1,0-0.3-0.1-0.4-0.2c-0.1-0.1-0.2-0.2-0.3-0.3s-0.2-0.3-0.2-0.5l0.3-0.1
		c0.1,0,0.2,0,0.2,0s0.1,0.1,0.2,0.1c0,0.1,0.1,0.1,0.1,0.2c0,0.1,0.1,0.1,0.1,0.2s0.1,0.1,0.2,0.1c0.1,0,0.1,0,0.2,0
		c0.1,0,0.2,0,0.3-0.1c0.1,0,0.1-0.1,0.2-0.1s0.1-0.1,0.1-0.2c0-0.1,0-0.1,0-0.2c0-0.1,0-0.2,0-0.2c0-0.1-0.1-0.1-0.1-0.2
		c-0.1-0.1-0.1-0.1-0.3-0.1c-0.1,0-0.3,0-0.5,0v-0.5c0.2,0,0.3,0,0.4,0s0.2-0.1,0.2-0.1c0.1,0,0.1-0.1,0.1-0.2c0-0.1,0-0.1,0-0.2
		c0-0.2,0-0.3-0.1-0.4s-0.2-0.1-0.4-0.1c-0.1,0-0.1,0-0.2,0c-0.1,0-0.1,0.1-0.2,0.1l-0.1,0.1c0,0-0.1,0.1-0.1,0.2
		c0,0.1-0.1,0.2-0.1,0.2c-0.1,0-0.1,0-0.2,0L38.7,41z"/>
	<path class="st1" d="M43.1,41.3L43,41.4c0.1,0,0.1-0.1,0.2-0.1c0.1,0,0.2,0,0.3,0s0.3,0,0.4,0.1c0.1,0,0.3,0.1,0.4,0.2
		s0.2,0.2,0.3,0.4c0.1,0.1,0.1,0.3,0.1,0.5s0,0.4-0.1,0.5s-0.2,0.3-0.3,0.4s-0.3,0.2-0.5,0.3s-0.4,0.1-0.6,0.1c-0.2,0-0.4,0-0.6-0.1
		c-0.2-0.1-0.3-0.2-0.4-0.3c-0.1-0.1-0.2-0.3-0.3-0.4c-0.1-0.2-0.1-0.4-0.1-0.6c0-0.2,0-0.4,0.1-0.6c0.1-0.2,0.2-0.4,0.3-0.6
		l0.9-1.2c0,0,0.1-0.1,0.2-0.1c0.1,0,0.2-0.1,0.2-0.1h0.7L43.1,41.3z M43.2,43.3c0.1,0,0.2,0,0.3-0.1c0.1,0,0.2-0.1,0.2-0.1
		c0.1-0.1,0.1-0.1,0.1-0.2c0-0.1,0.1-0.2,0.1-0.3s0-0.2,0-0.3s-0.1-0.2-0.1-0.2S43.7,42,43.6,42c-0.1,0-0.2,0-0.3,0s-0.2,0-0.3,0.1
		c-0.1,0-0.1,0.1-0.2,0.1s-0.1,0.1-0.1,0.2c0,0.1,0,0.2,0,0.3s0,0.2,0,0.3s0.1,0.2,0.1,0.2c0.1,0.1,0.1,0.1,0.2,0.1
		S43.1,43.3,43.2,43.3z"/>
</g>
<g>
	<path class="st1" d="M75.7,10.6h-1v1.1H74v-1.1h-1V10h1V8.9h0.6V10h1V10.6z"/>
	<path class="st1" d="M76.2,9.3c0-0.2,0.1-0.4,0.2-0.5c0.1-0.1,0.2-0.3,0.3-0.4c0.1-0.1,0.3-0.2,0.4-0.2c0.2,0,0.3-0.1,0.5-0.1
		c0.2,0,0.4,0,0.5,0.1c0.2,0.1,0.3,0.1,0.4,0.2c0.1,0.1,0.2,0.2,0.2,0.3c0.1,0.1,0.1,0.3,0.1,0.4c0,0.1,0,0.2,0,0.3
		c0,0.1-0.1,0.2-0.1,0.3c-0.1,0.1-0.1,0.1-0.2,0.2c-0.1,0-0.2,0.1-0.3,0.1c0.5,0.2,0.7,0.5,0.7,0.9c0,0.2,0,0.4-0.1,0.5
		s-0.2,0.3-0.3,0.4c-0.1,0.1-0.3,0.2-0.4,0.2c-0.2,0.1-0.3,0.1-0.5,0.1c-0.2,0-0.4,0-0.5-0.1c-0.1,0-0.3-0.1-0.4-0.2
		c-0.1-0.1-0.2-0.2-0.3-0.3c-0.1-0.1-0.2-0.3-0.2-0.5l0.3-0.1c0.1,0,0.2,0,0.2,0c0.1,0,0.1,0.1,0.2,0.1c0,0.1,0.1,0.1,0.1,0.2
		s0.1,0.1,0.1,0.2c0.1,0,0.1,0.1,0.2,0.1c0.1,0,0.1,0,0.2,0c0.1,0,0.2,0,0.3-0.1s0.1-0.1,0.2-0.1c0.1-0.1,0.1-0.1,0.1-0.2
		c0-0.1,0-0.1,0-0.2c0-0.1,0-0.2,0-0.2S78,10.6,78,10.5s-0.1-0.1-0.3-0.1c-0.1,0-0.3,0-0.5,0V9.8c0.2,0,0.3,0,0.4,0
		c0.1,0,0.2-0.1,0.3-0.1C78,9.6,78,9.6,78,9.5c0-0.1,0-0.1,0-0.2c0-0.2,0-0.3-0.1-0.4c-0.1-0.1-0.2-0.1-0.4-0.1c-0.1,0-0.1,0-0.2,0
		s-0.1,0-0.2,0.1S77.1,8.9,77,9C77,9,77,9.1,77,9.1c0,0.1-0.1,0.2-0.1,0.2s-0.1,0-0.2,0L76.2,9.3z"/>
	<path class="st1" d="M80.9,10.6c0,0,0.1-0.1,0.1-0.1c0,0,0.1-0.1,0.1-0.1c-0.1,0.1-0.2,0.1-0.3,0.1c-0.1,0-0.2,0-0.3,0
		c-0.1,0-0.3,0-0.4-0.1c-0.1,0-0.2-0.1-0.4-0.2s-0.2-0.2-0.3-0.4s-0.1-0.3-0.1-0.5c0-0.2,0-0.3,0.1-0.5c0.1-0.2,0.2-0.3,0.3-0.4
		s0.3-0.2,0.4-0.3c0.2-0.1,0.4-0.1,0.6-0.1c0.2,0,0.4,0,0.6,0.1s0.3,0.2,0.4,0.3c0.1,0.1,0.2,0.3,0.3,0.4S82,9.2,82,9.4
		c0,0.1,0,0.2,0,0.4c0,0.1,0,0.2-0.1,0.3c0,0.1-0.1,0.2-0.1,0.3c-0.1,0.1-0.1,0.2-0.2,0.3L80.7,12c0,0-0.1,0.1-0.2,0.1
		c-0.1,0-0.1,0-0.2,0h-0.7L80.9,10.6z M80.1,9.4c0,0.2,0.1,0.4,0.2,0.5s0.3,0.2,0.5,0.2c0.1,0,0.2,0,0.3,0c0.1,0,0.1-0.1,0.2-0.1
		c0.1-0.1,0.1-0.1,0.1-0.2c0-0.1,0-0.2,0-0.3c0-0.1,0-0.2,0-0.3s-0.1-0.1-0.1-0.2c-0.1-0.1-0.1-0.1-0.2-0.1c-0.1,0-0.2,0-0.3,0
		c-0.1,0-0.2,0-0.3,0s-0.1,0.1-0.2,0.1C80.2,9,80.1,9,80.1,9.1C80.1,9.2,80.1,9.3,80.1,9.4z"/>
</g>
<g>
	<path class="st1" d="M98.4,30.4h1.1v0.5h-1.1V30.4z"/>
	<path class="st1" d="M101.7,31.4v0.4h-1.6v-0.4h0.6v-1.6v-0.1v-0.1l-0.4,0.3h-0.1c0,0,0,0-0.1,0s0,0-0.1,0l0,0l-0.2-0.2l0.9-0.8
		h0.5v2.5C101.2,31.4,101.7,31.4,101.7,31.4z"/>
</g>
</svg>
