<?xml version="1.0" encoding="utf-8"?>
<!-- Generator: Adobe Illustrator 26.4.1, SVG Export Plug-In . SVG Version: 6.00 Build 0)  -->
<svg version="1.1" id="Layer_1" xmlns="http://www.w3.org/2000/svg" xmlns:xlink="http://www.w3.org/1999/xlink" x="0px" y="0px"
	 viewBox="0 0 156 60" style="enable-background:new 0 0 156 60;" xml:space="preserve">
<style type="text/css">
	.st0{enable-background:new    ;}
	.st1{fill:#2b95f9;}
	.st2{fill:none;stroke:#2b95f9;stroke-width:2;stroke-miterlimit:10;}
	.st3{fill:none;stroke:#2b95f9;stroke-width:1.5;stroke-miterlimit:10;}
</style>
<g>
	<g class="st0">
		<g>
			<path class="st1" d="M94.3,41.6c0.1-0.1,0.2-0.1,0.2-0.2s0.2-0.1,0.3-0.1s0.2-0.1,0.3-0.1s0.2,0,0.4,0c0.2,0,0.3,0,0.5,0.1
				c0.1,0,0.3,0.1,0.4,0.2c0.1,0.1,0.2,0.2,0.2,0.3s0.1,0.3,0.1,0.4c0,0.1,0,0.3-0.1,0.4c0,0.1-0.1,0.2-0.2,0.3s-0.1,0.2-0.2,0.2
				s-0.1,0.1-0.2,0.2c-0.1,0-0.1,0.1-0.2,0.1s-0.1,0.1-0.1,0.2V44h-0.6L95,43.5c0-0.1,0-0.2,0-0.2c0-0.1,0.1-0.1,0.1-0.2
				s0.1-0.1,0.2-0.2s0.1-0.1,0.2-0.2s0.1-0.1,0.2-0.2s0.1-0.2,0.1-0.3s0-0.2-0.1-0.3s-0.2-0.1-0.3-0.1c-0.1,0-0.2,0-0.3,0
				S95,41.9,95,42s-0.1,0-0.2,0s-0.1,0-0.1,0c-0.1,0-0.1,0-0.2-0.1L94.3,41.6z M94.8,45c0-0.1,0-0.1,0-0.2s0.1-0.1,0.1-0.2
				c0,0,0.1-0.1,0.2-0.1s0.1,0,0.2,0s0.1,0,0.2,0s0.1,0.1,0.2,0.1c0,0,0.1,0.1,0.1,0.2s0,0.1,0,0.2s0,0.1,0,0.2s-0.1,0.1-0.1,0.2
				s-0.1,0.1-0.2,0.1s-0.1,0-0.2,0s-0.1,0-0.2,0s-0.1-0.1-0.2-0.1s-0.1-0.1-0.1-0.2S94.8,45.1,94.8,45z"/>
		</g>
		<g>
			<path class="st1" d="M53.2,43.1v0.4v0.1h-0.1h-0.3v0.9H52v-0.9h-1.6h-0.1l-0.1-0.1l-0.1-0.4l1.9-2.5h0.7v2.5H53.2z M52,43.1v-1.2
				c0-0.1,0-0.1,0-0.2c0-0.1,0-0.1,0-0.2l-1.2,1.6C50.8,43.1,52,43.1,52,43.1z"/>
			<path class="st1" d="M56.3,40.6v0.3c0,0.1,0,0.2,0,0.2c0,0.1,0,0.1-0.1,0.1l-1.5,3c0,0.1-0.1,0.1-0.1,0.2s-0.1,0.1-0.3,0.1h-0.6
				l1.5-3c0-0.1,0.1-0.1,0.1-0.2s0.1-0.1,0.1-0.2h-1.8c0,0-0.1,0-0.1-0.1l-0.1-0.1v-0.5h2.9V40.6z"/>
		</g>
	</g>
</g>
<g>
	<path class="st2" d="M53.4,32.5c0,0,5.4-14.4,20.8-14.9c6.1-0.2,16.6,2.1,20.7,13.7"/>
	<line class="st2" x1="3.9" y1="36.5" x2="152.1" y2="36.5"/>
	<line class="st3" x1="53.2" y1="38.4" x2="53.2" y2="34.5"/>
	<line class="st3" x1="95.5" y1="38.4" x2="95.5" y2="34.5"/>
	<g>
		<line class="st2" x1="148.4" y1="40" x2="152.6" y2="36"/>
		<line class="st2" x1="148.5" y1="33" x2="152.4" y2="37.2"/>
	</g>
	<g>
		<line class="st2" x1="3.5" y1="35.9" x2="7.8" y2="39.9"/>
		<line class="st2" x1="3.8" y1="37.1" x2="7.6" y2="33"/>
	</g>
	<g>
		<line class="st2" x1="90.4" y1="29.7" x2="95.8" y2="31.8"/>
		<line class="st2" x1="96.7" y1="26.7" x2="94.7" y2="32"/>
	</g>
</g>
<g>
	<path class="st1" d="M72.1,13.3H71v1.2h-0.7v-1.2h-1.1v-0.6h1.1v-1.2H71v1.2h1.1V13.3z"/>
	<path class="st1" d="M74.8,12.8c0.3,0.1,0.4,0.2,0.6,0.4c0.1,0.2,0.2,0.4,0.2,0.6c0,0.2,0,0.4-0.1,0.5s-0.2,0.3-0.3,0.4
		s-0.3,0.2-0.5,0.3C74.5,15,74.3,15,74.1,15c-0.2,0-0.4,0-0.6-0.1c-0.2-0.1-0.3-0.1-0.5-0.3s-0.2-0.2-0.3-0.4s-0.1-0.3-0.1-0.5
		c0-0.2,0.1-0.5,0.2-0.6c0.1-0.2,0.3-0.3,0.6-0.4c-0.2-0.1-0.4-0.2-0.5-0.4s-0.1-0.3-0.1-0.6c0-0.2,0-0.3,0.1-0.5
		c0.1-0.1,0.2-0.3,0.3-0.4c0.1-0.1,0.3-0.2,0.4-0.2c0.2-0.1,0.3-0.1,0.5-0.1c0.2,0,0.4,0,0.5,0.1c0.2,0.1,0.3,0.1,0.4,0.2
		c0.1,0.1,0.2,0.2,0.3,0.4c0.1,0.1,0.1,0.3,0.1,0.5c0,0.2,0,0.4-0.1,0.6S75,12.7,74.8,12.8z M74.1,14.4c0.1,0,0.2,0,0.3,0
		s0.2-0.1,0.2-0.1s0.1-0.1,0.1-0.2c0-0.1,0-0.2,0-0.3c0-0.2-0.1-0.4-0.2-0.5c-0.1-0.1-0.3-0.2-0.5-0.2c-0.2,0-0.4,0.1-0.5,0.2
		c-0.1,0.1-0.2,0.3-0.2,0.5c0,0.1,0,0.2,0,0.3c0,0.1,0.1,0.1,0.1,0.2s0.1,0.1,0.2,0.1S74,14.4,74.1,14.4z M74.1,11.3
		c-0.1,0-0.2,0-0.3,0s-0.1,0.1-0.2,0.1c0,0.1-0.1,0.1-0.1,0.2c0,0.1,0,0.1,0,0.2c0,0.1,0,0.2,0,0.2c0,0.1,0,0.1,0.1,0.2
		c0,0.1,0.1,0.1,0.2,0.1c0.1,0,0.2,0.1,0.3,0.1c0.1,0,0.2,0,0.3-0.1c0.1,0,0.1-0.1,0.2-0.1c0-0.1,0.1-0.1,0.1-0.2c0-0.1,0-0.2,0-0.2
		c0-0.1,0-0.1,0-0.2c0-0.1-0.1-0.1-0.1-0.2c0-0.1-0.1-0.1-0.2-0.1S74.2,11.3,74.1,11.3z"/>
	<path class="st1" d="M79.1,12.9c0,0.4,0,0.7-0.1,1c-0.1,0.3-0.2,0.5-0.3,0.7c-0.1,0.2-0.3,0.3-0.5,0.4C77.9,15,77.7,15,77.5,15
		c-0.2,0-0.4,0-0.6-0.1c-0.2-0.1-0.4-0.2-0.5-0.4c-0.1-0.2-0.2-0.4-0.3-0.7c-0.1-0.3-0.1-0.6-0.1-1c0-0.4,0-0.7,0.1-1
		c0.1-0.3,0.2-0.5,0.3-0.7c0.1-0.2,0.3-0.3,0.5-0.4c0.2-0.1,0.4-0.1,0.6-0.1c0.2,0,0.4,0,0.6,0.1c0.2,0.1,0.4,0.2,0.5,0.4
		c0.1,0.2,0.3,0.4,0.3,0.7C79,12.2,79.1,12.5,79.1,12.9z M78.2,12.9c0-0.3,0-0.6-0.1-0.7c0-0.2-0.1-0.4-0.2-0.5
		c-0.1-0.1-0.1-0.2-0.2-0.2c-0.1,0-0.2-0.1-0.3-0.1c-0.1,0-0.2,0-0.3,0.1c-0.1,0-0.2,0.1-0.2,0.2c-0.1,0.1-0.1,0.3-0.2,0.5
		c0,0.2-0.1,0.4-0.1,0.7c0,0.3,0,0.6,0.1,0.7s0.1,0.4,0.2,0.5c0.1,0.1,0.1,0.2,0.2,0.2c0.1,0,0.2,0.1,0.3,0.1c0.1,0,0.2,0,0.3-0.1
		c0.1,0,0.2-0.1,0.2-0.2s0.1-0.3,0.2-0.5S78.2,13.2,78.2,12.9z"/>
</g>
</svg>
