<?xml version="1.0" encoding="utf-8"?>
<!-- Generator: Adobe Illustrator 26.4.0, SVG Export Plug-In . SVG Version: 6.00 Build 0)  -->
<svg version="1.1" id="Layer_1" xmlns="http://www.w3.org/2000/svg" xmlns:xlink="http://www.w3.org/1999/xlink" x="0px" y="0px"
	 viewBox="0 0 156 60" style="enable-background:new 0 0 156 60;" xml:space="preserve">
<style type="text/css">
	.st0{enable-background:new    ;}
	.st1{fill:#e86f67;}
	.st2{fill:none;stroke:#e86f67;stroke-width:2;stroke-miterlimit:10;}
	.st3{fill:none;stroke:#e86f67;stroke-width:1.5;stroke-miterlimit:10;}
</style>
<g>
	<g class="st0">
		<g>
			<path class="st1" d="M36.1,40.5c0.1-0.1,0.2-0.1,0.2-0.2s0.2-0.1,0.3-0.1s0.2-0.1,0.3-0.1s0.2,0,0.4,0c0.2,0,0.3,0,0.5,0.1
				c0.1,0,0.3,0.1,0.4,0.2c0.1,0.1,0.2,0.2,0.2,0.3s0.1,0.3,0.1,0.4c0,0.1,0,0.3-0.1,0.4c0,0.1-0.1,0.2-0.2,0.3S38.1,42,38,42
				s-0.1,0.1-0.2,0.2c-0.1,0-0.1,0.1-0.2,0.1s-0.1,0.1-0.1,0.2v0.4h-0.6l-0.1-0.5c0-0.1,0-0.2,0-0.2c0-0.1,0.1-0.1,0.1-0.2
				s0.1-0.1,0.2-0.2s0.1-0.1,0.2-0.2s0.1-0.1,0.2-0.2s0.1-0.2,0.1-0.3s0-0.2-0.1-0.3s-0.2-0.1-0.3-0.1c-0.1,0-0.2,0-0.3,0
				s-0.1,0.1-0.1,0.2s-0.1,0-0.2,0s-0.1,0-0.1,0c-0.1,0-0.1,0-0.2-0.1L36.1,40.5z M36.6,43.9c0-0.1,0-0.1,0-0.2s0.1-0.1,0.1-0.2
				c0,0,0.1-0.1,0.2-0.1s0.1,0,0.2,0s0.1,0,0.2,0s0.1,0.1,0.2,0.1c0,0,0.1,0.1,0.1,0.2s0,0.1,0,0.2s0,0.1,0,0.2s-0.1,0.1-0.1,0.2
				s-0.1,0.1-0.2,0.1s-0.1,0-0.2,0s-0.1,0-0.2,0s-0.1-0.1-0.2-0.1s-0.1-0.1-0.1-0.2S36.6,44,36.6,43.9z"/>
		</g>
		<g>
			<path class="st1" d="M63.8,40.5c0.1-0.1,0.2-0.1,0.2-0.2s0.2-0.1,0.3-0.1s0.2-0.1,0.3-0.1s0.2,0,0.4,0c0.2,0,0.3,0,0.5,0.1
				c0.1,0,0.3,0.1,0.4,0.2c0.1,0.1,0.2,0.2,0.2,0.3s0.1,0.3,0.1,0.4c0,0.1,0,0.3-0.1,0.4c0,0.1-0.1,0.2-0.2,0.3S65.8,42,65.7,42
				s-0.1,0.1-0.2,0.2c-0.1,0-0.1,0.1-0.2,0.1s-0.1,0.1-0.1,0.2v0.4h-0.6l-0.1-0.5c0-0.1,0-0.2,0-0.2c0-0.1,0.1-0.1,0.1-0.2
				s0.1-0.1,0.2-0.2s0.1-0.1,0.2-0.2s0.1-0.1,0.2-0.2s0.1-0.2,0.1-0.3s0-0.2-0.1-0.3s-0.2-0.1-0.3-0.1c-0.1,0-0.2,0-0.3,0
				s-0.1,0.1-0.1,0.2s-0.1,0-0.2,0s-0.1,0-0.1,0c-0.1,0-0.1,0-0.2-0.1L63.8,40.5z M64.3,43.9c0-0.1,0-0.1,0-0.2s0.1-0.1,0.1-0.2
				c0,0,0.1-0.1,0.2-0.1s0.1,0,0.2,0s0.1,0,0.2,0s0.1,0.1,0.2,0.1c0,0,0.1,0.1,0.1,0.2s0,0.1,0,0.2s0,0.1,0,0.2s-0.1,0.1-0.1,0.2
				s-0.1,0.1-0.2,0.1s-0.1,0-0.2,0s-0.1,0-0.2,0s-0.1-0.1-0.2-0.1s-0.1-0.1-0.1-0.2S64.3,44,64.3,43.9z"/>
		</g>
		<g>
			<path class="st1" d="M113.6,40.1v0.3c0,0.1,0,0.2,0,0.2c0,0.1,0,0.1-0.1,0.1l-1.5,3c0,0.1-0.1,0.1-0.1,0.2
				c-0.1,0-0.1,0.1-0.3,0.1h-0.5l1.5-3c0-0.1,0.1-0.1,0.1-0.2c0-0.1,0.1-0.1,0.1-0.2H111c0,0-0.1,0-0.1-0.1c0,0-0.1-0.1-0.1-0.1
				v-0.5H113.6z"/>
			<path class="st1" d="M115.3,41.6l-0.1,0.1c0.1,0,0.1-0.1,0.2-0.1c0.1,0,0.2,0,0.3,0c0.1,0,0.3,0,0.4,0.1c0.1,0,0.3,0.1,0.4,0.2
				c0.1,0.1,0.2,0.2,0.3,0.4c0.1,0.1,0.1,0.3,0.1,0.5c0,0.2,0,0.4-0.1,0.5c-0.1,0.2-0.2,0.3-0.3,0.4s-0.3,0.2-0.5,0.3
				s-0.4,0.1-0.6,0.1c-0.2,0-0.4,0-0.6-0.1c-0.2-0.1-0.3-0.2-0.4-0.3c-0.1-0.1-0.2-0.3-0.3-0.4c-0.1-0.2-0.1-0.4-0.1-0.6
				c0-0.2,0-0.4,0.1-0.6s0.2-0.4,0.3-0.6l0.9-1.2c0,0,0.1-0.1,0.2-0.1c0.1,0,0.2-0.1,0.2-0.1h0.7L115.3,41.6z M115.4,43.6
				c0.1,0,0.2,0,0.3-0.1c0.1,0,0.2-0.1,0.2-0.1s0.1-0.1,0.1-0.2c0-0.1,0.1-0.2,0.1-0.3c0-0.1,0-0.2,0-0.3c0-0.1-0.1-0.2-0.1-0.2
				s-0.1-0.1-0.2-0.1s-0.2,0-0.3,0c-0.1,0-0.2,0-0.3,0.1c-0.1,0-0.1,0.1-0.2,0.1s-0.1,0.1-0.1,0.2s0,0.2,0,0.3c0,0.1,0,0.2,0,0.3
				c0,0.1,0.1,0.2,0.1,0.2c0.1,0.1,0.1,0.1,0.2,0.1C115.2,43.6,115.2,43.6,115.4,43.6z"/>
		</g>
		<g>
			<path class="st1" d="M85.3,13.2h1.5v0.6h-1.5V13.2z"/>
			<path class="st1" d="M90.1,13.6v0.4c0,0,0,0.1,0,0.1c0,0-0.1,0-0.1,0h-0.3v0.9H89v-0.9h-1.6c0,0-0.1,0-0.1,0s-0.1-0.1-0.1-0.1
				l-0.1-0.4l1.9-2.5h0.7v2.5H90.1z M89,13.6v-1.2c0-0.1,0-0.1,0-0.2c0-0.1,0-0.1,0-0.2l-1.2,1.6H89z"/>
			<path class="st1" d="M93.3,13.2c0,0.3,0,0.7-0.1,0.9s-0.2,0.5-0.3,0.6s-0.3,0.3-0.5,0.4c-0.2,0.1-0.4,0.1-0.6,0.1s-0.4,0-0.6-0.1
				c-0.2-0.1-0.3-0.2-0.5-0.4c-0.1-0.2-0.2-0.4-0.3-0.6s-0.1-0.6-0.1-0.9c0-0.3,0-0.7,0.1-0.9s0.2-0.5,0.3-0.6
				c0.1-0.2,0.3-0.3,0.5-0.4c0.2-0.1,0.4-0.1,0.6-0.1s0.4,0,0.6,0.1c0.2,0.1,0.3,0.2,0.5,0.4s0.2,0.4,0.3,0.6S93.3,12.8,93.3,13.2z
				 M92.5,13.2c0-0.3,0-0.5-0.1-0.7c0-0.2-0.1-0.3-0.2-0.4c-0.1-0.1-0.1-0.2-0.2-0.2c-0.1,0-0.2-0.1-0.3-0.1s-0.2,0-0.3,0.1
				c-0.1,0-0.2,0.1-0.2,0.2c-0.1,0.1-0.1,0.3-0.2,0.4c0,0.2-0.1,0.4-0.1,0.7c0,0.3,0,0.5,0.1,0.7c0,0.2,0.1,0.3,0.2,0.4
				c0.1,0.1,0.1,0.2,0.2,0.2c0.1,0,0.2,0.1,0.3,0.1s0.2,0,0.3-0.1c0.1,0,0.2-0.1,0.2-0.2c0.1-0.1,0.1-0.3,0.2-0.4
				C92.5,13.7,92.5,13.4,92.5,13.2z"/>
		</g>
		<g>
			<path class="st1" d="M48.4,13.2h1.5v0.6h-1.5V13.2z"/>
			<path class="st1" d="M53.2,11.2v0.3c0,0.1,0,0.2,0,0.2c0,0.1,0,0.1-0.1,0.1l-1.5,3c0,0.1-0.1,0.1-0.1,0.2c-0.1,0-0.1,0.1-0.3,0.1
				h-0.5l1.5-3c0-0.1,0.1-0.1,0.1-0.2c0-0.1,0.1-0.1,0.1-0.2h-1.8c0,0-0.1,0-0.1-0.1c0,0-0.1-0.1-0.1-0.1v-0.5H53.2z"/>
		</g>
	</g>
</g>
<g>
	<path class="st2" d="M65.8,31.3c4.7-11.6,16.9-13.9,23.9-13.7c17.8,0.5,24.1,14.9,24.1,14.9"/>
	<line class="st2" x1="4" y1="36.5" x2="152.2" y2="36.5"/>
	<line class="st3" x1="113.8" y1="34.5" x2="113.8" y2="38.4"/>
	<line class="st3" x1="64.8" y1="34.5" x2="64.8" y2="38.4"/>
	<g>
		<line class="st2" x1="3.5" y1="36" x2="7.7" y2="40"/>
		<line class="st2" x1="3.7" y1="37.2" x2="7.6" y2="33"/>
	</g>
	<g>
		<line class="st2" x1="148.3" y1="39.9" x2="152.6" y2="35.9"/>
		<line class="st2" x1="148.5" y1="33" x2="152.3" y2="37.1"/>
	</g>
	<g>
		<line class="st2" x1="64.9" y1="31.8" x2="70.3" y2="29.7"/>
		<line class="st2" x1="66" y1="32" x2="64" y2="26.7"/>
	</g>
	<path class="st2" d="M37.9,31.8c2.5-11.6,9-13.9,12.8-13.7C60.1,18.6,63.5,33,63.5,33"/>
	<g>
		<line class="st2" x1="37" y1="32.3" x2="42.4" y2="30.2"/>
		<line class="st2" x1="38.1" y1="32.5" x2="36.1" y2="27.2"/>
	</g>
	<line class="st3" x1="37.1" y1="34.3" x2="37.1" y2="38.2"/>
</g>
</svg>
