<?xml version="1.0" encoding="utf-8"?>
<!-- Generator: Adobe Illustrator 26.4.1, SVG Export Plug-In . SVG Version: 6.00 Build 0)  -->
<svg version="1.1" id="Layer_1" xmlns="http://www.w3.org/2000/svg" xmlns:xlink="http://www.w3.org/1999/xlink" x="0px" y="0px"
	 viewBox="0 0 156 60" style="enable-background:new 0 0 156 60;" xml:space="preserve">
<style type="text/css">
	.st0{enable-background:new    ;}
	.st1{fill:#e86f67;}
	.st2{fill:none;stroke:#e86f67;stroke-width:2;stroke-miterlimit:10;}
	.st3{fill:none;stroke:#e86f67;	stroke-width:1.5;stroke-miterlimit:10;}
</style>
<g>
	<g class="st0">
		<g>
			<path class="st1" d="M41.9,40.4c0.1-0.1,0.2-0.1,0.2-0.2c0-0.1,0.2-0.1,0.3-0.1s0.2-0.1,0.3-0.1s0.2,0,0.4,0s0.3,0,0.5,0.1
				c0.1,0,0.3,0.1,0.4,0.2s0.2,0.2,0.2,0.3s0.1,0.3,0.1,0.4c0,0.1,0,0.3-0.1,0.4c0,0.1-0.1,0.2-0.2,0.3s-0.1,0.2-0.2,0.2
				s-0.1,0.1-0.2,0.2c-0.1,0-0.1,0.1-0.2,0.1s-0.1,0.1-0.1,0.2v0.4h-0.6l-0.1-0.5c0-0.1,0-0.2,0-0.2c0-0.1,0.1-0.1,0.1-0.2
				c0-0.1,0.1-0.1,0.2-0.2c0.1-0.1,0.1-0.1,0.2-0.2c0.1-0.1,0.1-0.1,0.2-0.2c0.1-0.1,0.1-0.2,0.1-0.3s0-0.2-0.1-0.3
				s-0.2-0.1-0.3-0.1s-0.2,0-0.3,0s-0.1,0.1-0.1,0.2s-0.1,0-0.2,0s-0.1,0-0.1,0c-0.1,0-0.1,0-0.2-0.1L41.9,40.4z M42.4,43.8
				c0-0.1,0-0.1,0-0.2c0-0.1,0.1-0.1,0.1-0.2c0,0,0.1-0.1,0.2-0.1s0.1,0,0.2,0s0.1,0,0.2,0s0.1,0.1,0.2,0.1c0,0,0.1,0.1,0.1,0.2
				c0,0.1,0,0.1,0,0.2c0,0.1,0,0.1,0,0.2c0,0.1-0.1,0.1-0.1,0.2c0,0.1-0.1,0.1-0.2,0.1s-0.1,0-0.2,0s-0.1,0-0.2,0s-0.1-0.1-0.2-0.1
				s-0.1-0.1-0.1-0.2C42.4,43.9,42.4,43.9,42.4,43.8z"/>
		</g>
		<g>
			<path class="st1" d="M66.8,40.4c0.1-0.1,0.2-0.1,0.2-0.2c0-0.1,0.2-0.1,0.3-0.1s0.2-0.1,0.3-0.1s0.2,0,0.4,0c0.2,0,0.3,0,0.5,0.1
				c0.1,0,0.3,0.1,0.4,0.2s0.2,0.2,0.2,0.3s0.1,0.3,0.1,0.4c0,0.1,0,0.3-0.1,0.4c0,0.1-0.1,0.2-0.2,0.3s-0.1,0.2-0.2,0.2
				s-0.1,0.1-0.2,0.2c-0.1,0-0.1,0.1-0.2,0.1s-0.1,0.1-0.1,0.2v0.4h-0.6l-0.1-0.5c0-0.1,0-0.2,0-0.2c0-0.1,0.1-0.1,0.1-0.2
				c0-0.1,0.1-0.1,0.2-0.2c0.1-0.1,0.1-0.1,0.2-0.2c0.1-0.1,0.1-0.1,0.2-0.2c0.1-0.1,0.1-0.2,0.1-0.3s0-0.2-0.1-0.3
				s-0.2-0.1-0.3-0.1c-0.1,0-0.2,0-0.3,0s-0.1,0.1-0.1,0.2s-0.1,0-0.2,0s-0.1,0-0.1,0c-0.1,0-0.1,0-0.2-0.1L66.8,40.4z M67.3,43.8
				c0-0.1,0-0.1,0-0.2c0-0.1,0.1-0.1,0.1-0.2c0,0,0.1-0.1,0.2-0.1s0.1,0,0.2,0s0.1,0,0.2,0s0.1,0.1,0.2,0.1c0,0,0.1,0.1,0.1,0.2
				c0,0.1,0,0.1,0,0.2c0,0.1,0,0.1,0,0.2c0,0.1-0.1,0.1-0.1,0.2c0,0.1-0.1,0.1-0.2,0.1s-0.1,0-0.2,0s-0.1,0-0.2,0s-0.1-0.1-0.2-0.1
				s-0.1-0.1-0.1-0.2C67.3,43.9,67.3,43.9,67.3,43.8z"/>
		</g>
		<g>
			<path class="st1" d="M112.2,41.5c0.1,0,0.2,0,0.2,0c0.1,0,0.1,0,0.2,0c0.2,0,0.4,0,0.6,0.1s0.3,0.1,0.4,0.3
				c0.1,0.1,0.2,0.2,0.2,0.4s0.1,0.3,0.1,0.5s0,0.4-0.1,0.6c-0.1,0.2-0.2,0.3-0.3,0.5c-0.1,0.1-0.3,0.2-0.5,0.3s-0.4,0.1-0.6,0.1
				c-0.1,0-0.2,0-0.4,0c-0.1,0-0.2-0.1-0.3-0.1c-0.1,0-0.2-0.1-0.3-0.2c-0.1-0.1-0.2-0.1-0.2-0.2l0.2-0.3c0-0.1,0.1-0.1,0.2-0.1h0.1
				c0,0,0.1,0.1,0.2,0.1s0.1,0.1,0.2,0.1s0.2,0,0.3,0c0.1,0,0.2,0,0.3-0.1c0.1,0,0.2-0.1,0.2-0.2c0.1-0.1,0.1-0.2,0.1-0.2
				c0-0.1,0-0.2,0-0.3c0-0.2-0.1-0.4-0.2-0.5s-0.3-0.2-0.5-0.2s-0.4,0-0.6,0.1l-0.5-0.1l0.3-2h2v0.3c0,0.1,0,0.1,0,0.1
				s0,0.1-0.1,0.1l-0.1,0.1c-0.1,0-0.1,0-0.2,0h-1L112.2,41.5z"/>
			<path class="st1" d="M117.3,42.5v0.4V43h-0.1h-0.3v1h-0.7v-0.9h-1.6h-0.1l-0.1-0.1l-0.1-0.4l1.9-2.5h0.7v2.5L117.3,42.5
				L117.3,42.5z M116.2,42.5v-1.2c0-0.1,0-0.1,0-0.2c0-0.1,0-0.1,0-0.2l-1.2,1.6C115,42.5,116.2,42.5,116.2,42.5z"/>
		</g>
		<g>
			<path class="st1" d="M54.9,30.3h-0.8v0.8h-0.5v-0.8h-0.8v-0.4h0.8v-0.8h0.5v0.8h0.8V30.3z"/>
			<path class="st1" d="M57.3,31.1v0.4h-1.7v-0.4h0.6v-1.6v-0.1v-0.1l-0.4,0.3h-0.1h-0.1c0,0,0,0-0.1,0l0,0l-0.1-0.3l0.9-0.8h0.5
				v2.6C56.8,31.1,57.3,31.1,57.3,31.1z"/>
		</g>
		<g>
			<path class="st1" d="M73.5,10.7H75v0.6h-1.5V10.7z"/>
			<path class="st1" d="M78,11.9c0.1,0,0.1,0,0.2,0.1c0,0,0.1,0.1,0.1,0.2v0.4h-2.8v-0.2c0,0,0-0.1,0-0.2c0-0.1,0.1-0.1,0.1-0.2
				l1.2-1.2c0.1-0.1,0.2-0.2,0.3-0.3c0.1-0.1,0.1-0.2,0.2-0.3c0.1-0.1,0.1-0.2,0.1-0.3c0-0.1,0-0.2,0-0.3c0-0.2,0-0.3-0.1-0.4
				c-0.1-0.1-0.2-0.1-0.4-0.1c-0.1,0-0.1,0-0.2,0c-0.1,0-0.1,0-0.2,0.1c0,0-0.1,0.1-0.1,0.1c0,0-0.1,0.1-0.1,0.2
				c0,0.1-0.1,0.2-0.1,0.2s-0.1,0-0.2,0l-0.4-0.1c0-0.2,0.1-0.4,0.2-0.5C75.8,9.1,75.9,9,76,8.9s0.3-0.2,0.4-0.2
				c0.2,0,0.3-0.1,0.5-0.1c0.2,0,0.4,0,0.5,0.1c0.2,0.1,0.3,0.1,0.4,0.2C77.9,9,78,9.1,78.1,9.3s0.1,0.3,0.1,0.5
				c0,0.1,0,0.3-0.1,0.4c0,0.1-0.1,0.2-0.2,0.4c-0.1,0.1-0.2,0.2-0.3,0.3c-0.1,0.1-0.2,0.2-0.3,0.3L76.5,12c0.1,0,0.2,0,0.3-0.1
				s0.2,0,0.3,0H78z"/>
			<path class="st1" d="M80.2,11.1c0,0,0.1-0.1,0.1-0.1c0,0,0.1-0.1,0.1-0.1C80.3,11,80.2,11,80.1,11c-0.1,0-0.2,0-0.3,0
				c-0.1,0-0.3,0-0.4-0.1c-0.1,0-0.2-0.1-0.4-0.2s-0.2-0.2-0.3-0.4s-0.1-0.3-0.1-0.5c0-0.2,0-0.3,0.1-0.5C78.8,9.2,78.9,9.1,79,9
				s0.3-0.2,0.4-0.3c0.2-0.1,0.4-0.1,0.6-0.1c0.2,0,0.4,0,0.6,0.1S80.9,8.9,81,9c0.1,0.1,0.2,0.3,0.3,0.4s0.1,0.3,0.1,0.5
				c0,0.1,0,0.2,0,0.4c0,0.1,0,0.2-0.1,0.3c0,0.1-0.1,0.2-0.1,0.3C81.1,11,81,11.1,81,11.2l-0.9,1.3c0,0-0.1,0.1-0.2,0.1
				c-0.1,0-0.1,0-0.2,0H79L80.2,11.1z M79.4,9.9c0,0.2,0.1,0.4,0.2,0.5s0.3,0.2,0.5,0.2c0.1,0,0.2,0,0.3,0c0.1,0,0.1-0.1,0.2-0.1
				c0.1-0.1,0.1-0.1,0.1-0.2c0-0.1,0-0.2,0-0.3c0-0.1,0-0.2,0-0.3s-0.1-0.1-0.1-0.2c-0.1-0.1-0.1-0.1-0.2-0.1c-0.1,0-0.2,0-0.3,0
				c-0.1,0-0.2,0-0.3,0s-0.1,0.1-0.2,0.1c-0.1,0.1-0.1,0.1-0.1,0.2C79.4,9.7,79.4,9.8,79.4,9.9z"/>
		</g>
	</g>
</g>
<g>
	<path class="st2" d="M43.7,31.1c7-13.5,24.8-16.1,35.2-15.9c26.2,0.6,35.4,17.3,35.4,17.3"/>
	<line class="st2" x1="4" y1="36.5" x2="152.2" y2="36.5"/>
	<line class="st3" x1="114.3" y1="34.5" x2="114.3" y2="38.4"/>
	<line class="st3" x1="68" y1="34.6" x2="68" y2="38.5"/>
	<g>
		<line class="st2" x1="3.5" y1="36" x2="7.7" y2="40"/>
		<line class="st2" x1="3.7" y1="37.2" x2="7.6" y2="33"/>
	</g>
	<g>
		<line class="st2" x1="148.3" y1="39.9" x2="152.6" y2="35.9"/>
		<line class="st2" x1="148.5" y1="33" x2="152.3" y2="37.1"/>
	</g>
	<g>
		<line class="st2" x1="42.8" y1="31.8" x2="48.2" y2="29.7"/>
		<line class="st2" x1="43.9" y1="32" x2="41.9" y2="26.7"/>
	</g>
	<line class="st3" x1="43.3" y1="34.5" x2="43.3" y2="38.4"/>
	<path class="st3" d="M43.3,32.1c2.4-5.1,8.4-6.1,12-6c8.9,0.2,12,6.6,12,6.6"/>
	<g>
		<line class="st3" x1="64.1" y1="31.9" x2="68.1" y2="32.5"/>
		<line class="st3" x1="67.8" y1="28.9" x2="67.3" y2="32.8"/>
	</g>
</g>
</svg>
