<?xml version="1.0" encoding="utf-8"?>
<!-- Generator: Adobe Illustrator 24.1.1, SVG Export Plug-In . SVG Version: 6.00 Build 0)  -->
<svg version="1.1" id="Layer_1" xmlns="http://www.w3.org/2000/svg" xmlns:xlink="http://www.w3.org/1999/xlink" x="0px" y="0px"
	 viewBox="0 0 168 60" style="enable-background:new 0 0 156 60;" xml:space="preserve">
<style type="text/css">
	.st0{fill:#2b95f9;}
	.st1{fill:none;stroke:#2b95f9;stroke-miterlimit:10;}
	.st2{fill:#2b95f9;stroke:#2b95f9;}
</style>
<g>
	<g>
		<path class="st0" d="M99,3.6v40.9H67.7V3.6H99 M100.5,2.3H66.2v43.5h34.3V2.3L100.5,2.3z"/>
	</g>
	<g>
		<line class="st1" x1="77.6" y1="2.2" x2="77.6" y2="45.7"/>
	</g>
	<g>
		<line class="st1" x1="89.1" y1="2.2" x2="89.1" y2="45.7"/>
	</g>
	<line class="st1" x1="66.3" y1="12.9" x2="100.6" y2="12.9"/>
	<line class="st1" x1="66.3" y1="24" x2="100.6" y2="24"/>
	<line class="st1" x1="66.3" y1="35" x2="100.6" y2="35"/>
	<g>
		<path class="st0" d="M63.2,24.2v0.7c0,0.1,0,0.1-0.1,0.2c0,0.1-0.1,0.1-0.2,0.1h-1.2v2.6h-1.1v-2.6h-4.5c-0.1,0-0.2,0-0.2-0.1
			c-0.1-0.1-0.1-0.1-0.1-0.2l-0.1-0.6l4.9-6.5h1.2v6.4H63.2z M60.6,24.2V20c0-0.1,0-0.3,0-0.4s0-0.3,0-0.4l-3.7,5H60.6z"/>
	</g>
	<g>
		<path class="st0" d="M80.6,50.5c0.1-0.5,0.2-0.9,0.4-1.2c0.2-0.4,0.4-0.6,0.7-0.9c0.3-0.2,0.6-0.4,1-0.5s0.8-0.2,1.2-0.2
			c0.4,0,0.8,0.1,1.2,0.2c0.4,0.1,0.7,0.3,0.9,0.5c0.3,0.2,0.5,0.5,0.6,0.8s0.2,0.7,0.2,1.1c0,0.3,0,0.6-0.1,0.8
			c-0.1,0.3-0.2,0.5-0.3,0.7s-0.3,0.3-0.5,0.5c-0.2,0.1-0.5,0.2-0.7,0.3c0.7,0.2,1.1,0.5,1.5,0.9c0.3,0.4,0.5,0.9,0.5,1.5
			c0,0.5-0.1,0.9-0.3,1.2c-0.2,0.4-0.4,0.7-0.7,0.9c-0.3,0.3-0.7,0.5-1.1,0.6s-0.8,0.2-1.3,0.2s-1-0.1-1.4-0.2
			c-0.4-0.1-0.7-0.3-1-0.5s-0.5-0.5-0.6-0.8s-0.3-0.7-0.4-1l0.5-0.2c0.1-0.1,0.3-0.1,0.4,0c0.1,0,0.2,0.1,0.3,0.2
			c0.1,0.1,0.1,0.3,0.2,0.5s0.2,0.4,0.4,0.5c0.2,0.2,0.4,0.3,0.6,0.4c0.2,0.1,0.6,0.2,0.9,0.2s0.7-0.1,0.9-0.2s0.5-0.3,0.7-0.4
			c0.2-0.2,0.3-0.4,0.4-0.6c0.1-0.2,0.1-0.4,0.1-0.7s0-0.5-0.1-0.7s-0.2-0.4-0.4-0.6s-0.5-0.3-0.8-0.4c-0.3-0.1-0.8-0.1-1.3-0.1
			v-0.9c0.4,0,0.8-0.1,1.1-0.1c0.3-0.1,0.5-0.2,0.7-0.4s0.3-0.3,0.4-0.6c0.1-0.2,0.1-0.5,0.1-0.7c0-0.3,0-0.5-0.1-0.8
			s-0.2-0.4-0.4-0.5c-0.2-0.1-0.3-0.2-0.6-0.3c-0.2-0.1-0.5-0.1-0.7-0.1s-0.5,0-0.7,0.1s-0.4,0.2-0.6,0.3s-0.3,0.3-0.4,0.5
			s-0.2,0.4-0.2,0.6c-0.1,0.2-0.1,0.3-0.2,0.3s-0.2,0.1-0.4,0L80.6,50.5z"/>
	</g>
	<g>
		<path class="st2" d="M76,11.8c0.4-0.4,0.9-0.8,1.4-1.1c0.5-0.4,1.1-0.7,1.7-0.9c0.6-0.3,1.2-0.5,1.9-0.6C81.7,9,82.4,9,83.3,9
			c1.1,0,2,0.2,3,0.5c0.9,0.3,1.7,0.7,2.4,1.3c0.7,0.6,1.2,1.3,1.6,2.1s0.6,1.7,0.6,2.7s-0.2,1.9-0.5,2.6c-0.3,0.7-0.7,1.4-1.2,1.9
			c-0.5,0.6-1,1-1.5,1.5C87,22,86.5,22.3,86,22.7c-0.5,0.4-0.9,0.7-1.2,1.1c-0.3,0.4-0.5,0.8-0.6,1.2l-0.4,3.1h-2.5l-0.2-3.4
			c-0.1-0.6,0.1-1.1,0.3-1.6c0.3-0.5,0.7-0.9,1.1-1.3c0.5-0.4,1-0.8,1.5-1.2c0.6-0.4,1.1-0.8,1.5-1.3c0.5-0.5,0.9-1,1.2-1.6
			c0.3-0.6,0.5-1.3,0.5-2.1c0-0.6-0.1-1.1-0.3-1.6c-0.2-0.5-0.5-0.9-0.9-1.2s-0.9-0.6-1.4-0.8s-1.1-0.3-1.7-0.3
			c-0.8,0-1.5,0.1-2.1,0.3s-1.1,0.4-1.5,0.7c-0.4,0.2-0.7,0.5-1,0.7c-0.2,0.2-0.5,0.3-0.6,0.3c-0.3,0-0.6-0.2-0.8-0.5L76,11.8z
			 M79.9,36c0-0.3,0.1-0.7,0.2-1s0.3-0.6,0.5-0.8s0.5-0.4,0.8-0.5s0.6-0.2,1-0.2s0.7,0.1,1,0.2s0.6,0.3,0.8,0.5s0.4,0.5,0.5,0.8
			s0.2,0.6,0.2,1s-0.1,0.7-0.2,1s-0.3,0.6-0.5,0.8s-0.5,0.4-0.8,0.5s-0.6,0.2-1,0.2s-0.7-0.1-1-0.2s-0.6-0.3-0.8-0.5
			c-0.2-0.2-0.4-0.5-0.5-0.8S79.9,36.3,79.9,36z"/>
	</g>
</g>
</svg>
