<?xml version="1.0" encoding="utf-8"?>
<!-- Generator: Adobe Illustrator 24.1.1, SVG Export Plug-In . SVG Version: 6.00 Build 0)  -->
<svg version="1.1" id="Layer_1" xmlns="http://www.w3.org/2000/svg" xmlns:xlink="http://www.w3.org/1999/xlink" x="0px" y="0px"
	 viewBox="0 0 156 60" style="enable-background:new 0 0 156 60;" xml:space="preserve">
<style type="text/css">
	.st0{fill:none;stroke:#21ac9b;stroke-width:1.2489;stroke-miterlimit:10;}
	.st1{fill:none;stroke:#21ac9b;stroke-width:1.093;stroke-miterlimit:10;}
	.st2{fill:#21ac9b;}
	.st3{enable-background:new    ;}
</style>
<g>
	<g>
		<path class="st0" d="M133.4,47.1l-0.2-16.3c0-0.4-0.1-1-1.1-1L23.7,30c-1,0-1.1,0.6-1.1,1l0.2,16.9c0,0,0.1,0.7,1.1,0.7l108.3-0.1
			C133.2,48.4,133.4,47.6,133.4,47.1z"/>
		<line class="st1" x1="40.8" y1="30" x2="41" y2="48.5"/>
		<line class="st1" x1="59.3" y1="30" x2="59.4" y2="48.5"/>
		<line class="st1" x1="77.6" y1="30" x2="77.8" y2="48.4"/>
		<line class="st1" x1="96" y1="29.9" x2="96.1" y2="48.4"/>
		<line class="st1" x1="114.4" y1="29.9" x2="114.5" y2="48.4"/>
	</g>
	<path class="st2" d="M126.3,22.9h-43c0,0-3.8,0-5.3-2.1c-1.4,2-5.6,2.1-5.6,2.1H30c-6.5,0.2-7.4,4-7.4,4c0.4-5,7.5-5,7.5-5h41.5
		c5.8,0,6.4-3,6.4-3s0.7,3,6.1,3h41.8c0,0,7.6-0.5,7.5,4.9C133.5,26.9,132.6,22.8,126.3,22.9z"/>
	<g class="st3">
		<path class="st2" d="M77.6,14.2v0.7c0,0.1,0,0.1-0.1,0.2c0,0-0.1,0.1-0.2,0.1h-0.7v1.8h-1.1v-1.8h-3.1c-0.1,0-0.2,0-0.2-0.1
			s-0.1-0.1-0.1-0.2l-0.1-0.6l3.4-4.6h1.2v4.5H77.6z M75.6,14.2v-2.4c0-0.2,0-0.5,0-0.7l-2.2,3.1H75.6z"/>
		<path class="st2" d="M82,13.2c0.4,0.1,0.8,0.4,1,0.7c0.2,0.3,0.3,0.7,0.3,1.1c0,0.3-0.1,0.6-0.2,0.9c-0.1,0.3-0.3,0.5-0.5,0.7
			c-0.2,0.2-0.5,0.3-0.8,0.4c-0.3,0.1-0.6,0.2-1,0.2s-0.7,0-1-0.2c-0.3-0.1-0.6-0.2-0.8-0.4c-0.2-0.2-0.4-0.4-0.5-0.7
			c-0.1-0.3-0.2-0.5-0.2-0.9c0-0.4,0.1-0.8,0.3-1.1s0.5-0.5,1-0.7c-0.4-0.1-0.6-0.4-0.8-0.6c-0.2-0.3-0.3-0.6-0.3-1
			c0-0.3,0.1-0.5,0.2-0.8c0.1-0.2,0.3-0.4,0.5-0.6c0.2-0.2,0.4-0.3,0.7-0.4c0.3-0.1,0.6-0.1,0.9-0.1c0.3,0,0.6,0,0.9,0.1
			c0.3,0.1,0.5,0.2,0.7,0.4c0.2,0.2,0.4,0.4,0.5,0.6C83,11,83,11.3,83,11.6c0,0.4-0.1,0.7-0.3,1C82.6,12.8,82.3,13,82,13.2z
			 M80.8,16.1c0.2,0,0.4,0,0.5-0.1s0.3-0.1,0.4-0.2c0.1-0.1,0.2-0.2,0.2-0.4c0.1-0.1,0.1-0.3,0.1-0.5c0-0.4-0.1-0.7-0.3-0.9
			c-0.2-0.2-0.5-0.3-0.9-0.3s-0.7,0.1-0.9,0.3s-0.3,0.5-0.3,0.9c0,0.2,0,0.3,0.1,0.5s0.1,0.3,0.2,0.4c0.1,0.1,0.2,0.2,0.4,0.2
			S80.6,16.1,80.8,16.1z M80.8,10.6c-0.2,0-0.3,0-0.5,0.1c-0.1,0.1-0.2,0.1-0.3,0.2c-0.1,0.1-0.2,0.2-0.2,0.3c0,0.1-0.1,0.3-0.1,0.4
			c0,0.1,0,0.3,0.1,0.4s0.1,0.3,0.2,0.4c0.1,0.1,0.2,0.2,0.3,0.3c0.1,0.1,0.3,0.1,0.5,0.1s0.4,0,0.5-0.1c0.1-0.1,0.2-0.1,0.3-0.3
			c0.1-0.1,0.1-0.2,0.2-0.4c0-0.1,0.1-0.3,0.1-0.4c0-0.1,0-0.3-0.1-0.4c0-0.1-0.1-0.2-0.2-0.3s-0.2-0.2-0.3-0.2
			C81.1,10.6,80.9,10.6,80.8,10.6z"/>
	</g>
	<g class="st3">
		<path class="st2" d="M29.1,35.7c0.1-0.1,0.3-0.2,0.4-0.3c0.2-0.1,0.3-0.2,0.5-0.3s0.4-0.1,0.6-0.2c0.2,0,0.5-0.1,0.7-0.1
			c0.3,0,0.7,0,1,0.1c0.3,0.1,0.5,0.2,0.7,0.4c0.2,0.2,0.4,0.4,0.5,0.6c0.1,0.3,0.2,0.5,0.2,0.8c0,0.3,0,0.6-0.1,0.8
			c-0.1,0.2-0.2,0.4-0.3,0.6c-0.1,0.2-0.3,0.3-0.4,0.4c-0.2,0.1-0.3,0.2-0.4,0.3c-0.1,0.1-0.3,0.2-0.4,0.3c-0.1,0.1-0.2,0.2-0.2,0.3
			l-0.1,0.9h-1l-0.1-1c0-0.2,0-0.4,0.1-0.5c0.1-0.1,0.2-0.3,0.3-0.4c0.1-0.1,0.3-0.2,0.4-0.3c0.2-0.1,0.3-0.2,0.5-0.4
			s0.3-0.3,0.4-0.4c0.1-0.2,0.1-0.4,0.1-0.6c0-0.1,0-0.3-0.1-0.4c-0.1-0.1-0.1-0.2-0.2-0.3c-0.1-0.1-0.2-0.1-0.3-0.2
			c-0.1,0-0.3-0.1-0.4-0.1c-0.2,0-0.4,0-0.6,0.1c-0.2,0-0.3,0.1-0.4,0.2c-0.1,0.1-0.2,0.1-0.3,0.2c-0.1,0-0.1,0.1-0.2,0.1
			c-0.1,0-0.2-0.1-0.3-0.2L29.1,35.7z M30.2,42.8c0-0.1,0-0.2,0.1-0.4s0.1-0.2,0.2-0.3s0.2-0.1,0.3-0.2c0.1,0,0.2-0.1,0.4-0.1
			s0.2,0,0.4,0.1c0.1,0,0.2,0.1,0.3,0.2s0.1,0.2,0.2,0.3c0,0.1,0.1,0.2,0.1,0.4c0,0.1,0,0.2-0.1,0.4c0,0.1-0.1,0.2-0.2,0.3
			s-0.2,0.1-0.3,0.2c-0.1,0-0.2,0.1-0.4,0.1s-0.2,0-0.4-0.1s-0.2-0.1-0.3-0.2s-0.1-0.2-0.2-0.3S30.2,42.9,30.2,42.8z"/>
	</g>
	<g class="st3">
		<path class="st2" d="M47.7,35.7c0.1-0.1,0.3-0.2,0.4-0.3c0.2-0.1,0.3-0.2,0.5-0.3s0.4-0.1,0.6-0.2c0.2,0,0.5-0.1,0.7-0.1
			c0.3,0,0.7,0,1,0.1c0.3,0.1,0.5,0.2,0.7,0.4c0.2,0.2,0.4,0.4,0.5,0.6c0.1,0.3,0.2,0.5,0.2,0.8c0,0.3,0,0.6-0.1,0.8
			c-0.1,0.2-0.2,0.4-0.3,0.6c-0.1,0.2-0.3,0.3-0.4,0.4c-0.2,0.1-0.3,0.2-0.4,0.3c-0.1,0.1-0.3,0.2-0.4,0.3c-0.1,0.1-0.2,0.2-0.2,0.3
			l-0.1,0.9h-1l-0.1-1c0-0.2,0-0.4,0.1-0.5c0.1-0.1,0.2-0.3,0.3-0.4c0.1-0.1,0.3-0.2,0.4-0.3c0.2-0.1,0.3-0.2,0.5-0.4
			s0.3-0.3,0.4-0.4c0.1-0.2,0.1-0.4,0.1-0.6c0-0.1,0-0.3-0.1-0.4c-0.1-0.1-0.1-0.2-0.2-0.3c-0.1-0.1-0.2-0.1-0.3-0.2
			c-0.1,0-0.3-0.1-0.4-0.1c-0.2,0-0.4,0-0.6,0.1c-0.2,0-0.3,0.1-0.4,0.2c-0.1,0.1-0.2,0.1-0.3,0.2c-0.1,0-0.1,0.1-0.2,0.1
			c-0.1,0-0.2-0.1-0.3-0.2L47.7,35.7z M48.8,42.8c0-0.1,0-0.2,0.1-0.4s0.1-0.2,0.2-0.3s0.2-0.1,0.3-0.2c0.1,0,0.2-0.1,0.4-0.1
			s0.2,0,0.4,0.1c0.1,0,0.2,0.1,0.3,0.2s0.1,0.2,0.2,0.3c0,0.1,0.1,0.2,0.1,0.4c0,0.1,0,0.2-0.1,0.4c0,0.1-0.1,0.2-0.2,0.3
			s-0.2,0.1-0.3,0.2c-0.1,0-0.2,0.1-0.4,0.1s-0.2,0-0.4-0.1s-0.2-0.1-0.3-0.2s-0.1-0.2-0.2-0.3S48.8,42.9,48.8,42.8z"/>
	</g>
	<g class="st3">
		<path class="st2" d="M66.2,35.7c0.1-0.1,0.3-0.2,0.4-0.3c0.2-0.1,0.3-0.2,0.5-0.3s0.4-0.1,0.6-0.2c0.2,0,0.5-0.1,0.7-0.1
			c0.3,0,0.7,0,1,0.1c0.3,0.1,0.5,0.2,0.7,0.4c0.2,0.2,0.4,0.4,0.5,0.6c0.1,0.3,0.2,0.5,0.2,0.8c0,0.3,0,0.6-0.1,0.8
			c-0.1,0.2-0.2,0.4-0.3,0.6c-0.1,0.2-0.3,0.3-0.4,0.4c-0.2,0.1-0.3,0.2-0.4,0.3c-0.1,0.1-0.3,0.2-0.4,0.3C69,39.4,69,39.5,69,39.7
			l-0.1,0.9h-1l-0.1-1c0-0.2,0-0.4,0.1-0.5c0.1-0.1,0.2-0.3,0.3-0.4c0.1-0.1,0.3-0.2,0.4-0.3c0.2-0.1,0.3-0.2,0.5-0.4
			s0.3-0.3,0.4-0.4c0.1-0.2,0.1-0.4,0.1-0.6c0-0.1,0-0.3-0.1-0.4c-0.1-0.1-0.1-0.2-0.2-0.3c-0.1-0.1-0.2-0.1-0.3-0.2
			c-0.1,0-0.3-0.1-0.4-0.1c-0.2,0-0.4,0-0.6,0.1c-0.2,0-0.3,0.1-0.4,0.2c-0.1,0.1-0.2,0.1-0.3,0.2c-0.1,0-0.1,0.1-0.2,0.1
			c-0.1,0-0.2-0.1-0.3-0.2L66.2,35.7z M67.4,42.8c0-0.1,0-0.2,0.1-0.4s0.1-0.2,0.2-0.3s0.2-0.1,0.3-0.2c0.1,0,0.2-0.1,0.4-0.1
			s0.2,0,0.4,0.1c0.1,0,0.2,0.1,0.3,0.2s0.1,0.2,0.2,0.3c0,0.1,0.1,0.2,0.1,0.4c0,0.1,0,0.2-0.1,0.4c0,0.1-0.1,0.2-0.2,0.3
			s-0.2,0.1-0.3,0.2c-0.1,0-0.2,0.1-0.4,0.1s-0.2,0-0.4-0.1s-0.2-0.1-0.3-0.2s-0.1-0.2-0.2-0.3S67.4,42.9,67.4,42.8z"/>
	</g>
	<g class="st3">
		<path class="st2" d="M84.8,35.7c0.1-0.1,0.3-0.2,0.4-0.3c0.2-0.1,0.3-0.2,0.5-0.3c0.2-0.1,0.4-0.1,0.6-0.2s0.5-0.1,0.7-0.1
			c0.3,0,0.7,0,1,0.1s0.5,0.2,0.7,0.4c0.2,0.2,0.4,0.4,0.5,0.6s0.2,0.5,0.2,0.8c0,0.3,0,0.6-0.1,0.8c-0.1,0.2-0.2,0.4-0.3,0.6
			c-0.1,0.2-0.3,0.3-0.4,0.4c-0.2,0.1-0.3,0.2-0.4,0.3c-0.1,0.1-0.3,0.2-0.4,0.3c-0.1,0.1-0.2,0.2-0.2,0.3l-0.1,0.9h-1l-0.1-1
			c0-0.2,0-0.4,0.1-0.5c0.1-0.1,0.2-0.3,0.3-0.4s0.3-0.2,0.4-0.3c0.2-0.1,0.3-0.2,0.5-0.4c0.1-0.1,0.3-0.3,0.4-0.4
			c0.1-0.2,0.1-0.4,0.1-0.6c0-0.1,0-0.3-0.1-0.4c-0.1-0.1-0.1-0.2-0.2-0.3c-0.1-0.1-0.2-0.1-0.3-0.2c-0.1,0-0.3-0.1-0.4-0.1
			c-0.2,0-0.4,0-0.6,0.1s-0.3,0.1-0.4,0.2c-0.1,0.1-0.2,0.1-0.3,0.2c-0.1,0-0.1,0.1-0.2,0.1c-0.1,0-0.2-0.1-0.3-0.2L84.8,35.7z
			 M85.9,42.8c0-0.1,0-0.2,0.1-0.4s0.1-0.2,0.2-0.3s0.2-0.1,0.3-0.2c0.1,0,0.2-0.1,0.4-0.1s0.2,0,0.4,0.1c0.1,0,0.2,0.1,0.3,0.2
			s0.1,0.2,0.2,0.3s0.1,0.2,0.1,0.4c0,0.1,0,0.2-0.1,0.4s-0.1,0.2-0.2,0.3s-0.2,0.1-0.3,0.2c-0.1,0-0.2,0.1-0.4,0.1s-0.2,0-0.4-0.1
			c-0.1,0-0.2-0.1-0.3-0.2s-0.1-0.2-0.2-0.3S85.9,42.9,85.9,42.8z"/>
	</g>
	<g class="st3">
		<path class="st2" d="M103.4,35.7c0.1-0.1,0.3-0.2,0.4-0.3c0.2-0.1,0.3-0.2,0.5-0.3c0.2-0.1,0.4-0.1,0.6-0.2s0.5-0.1,0.7-0.1
			c0.3,0,0.7,0,1,0.1s0.5,0.2,0.7,0.4c0.2,0.2,0.4,0.4,0.5,0.6s0.2,0.5,0.2,0.8c0,0.3,0,0.6-0.1,0.8c-0.1,0.2-0.2,0.4-0.3,0.6
			c-0.1,0.2-0.3,0.3-0.4,0.4c-0.2,0.1-0.3,0.2-0.4,0.3c-0.1,0.1-0.3,0.2-0.4,0.3c-0.1,0.1-0.2,0.2-0.2,0.3l-0.1,0.9h-1l-0.1-1
			c0-0.2,0-0.4,0.1-0.5c0.1-0.1,0.2-0.3,0.3-0.4s0.3-0.2,0.4-0.3c0.2-0.1,0.3-0.2,0.5-0.4c0.1-0.1,0.3-0.3,0.4-0.4
			c0.1-0.2,0.1-0.4,0.1-0.6c0-0.1,0-0.3-0.1-0.4c-0.1-0.1-0.1-0.2-0.2-0.3c-0.1-0.1-0.2-0.1-0.3-0.2c-0.1,0-0.3-0.1-0.4-0.1
			c-0.2,0-0.4,0-0.6,0.1s-0.3,0.1-0.4,0.2c-0.1,0.1-0.2,0.1-0.3,0.2c-0.1,0-0.1,0.1-0.2,0.1c-0.1,0-0.2-0.1-0.3-0.2L103.4,35.7z
			 M104.5,42.8c0-0.1,0-0.2,0.1-0.4s0.1-0.2,0.2-0.3s0.2-0.1,0.3-0.2c0.1,0,0.2-0.1,0.4-0.1s0.2,0,0.4,0.1c0.1,0,0.2,0.1,0.3,0.2
			s0.1,0.2,0.2,0.3s0.1,0.2,0.1,0.4c0,0.1,0,0.2-0.1,0.4s-0.1,0.2-0.2,0.3s-0.2,0.1-0.3,0.2c-0.1,0-0.2,0.1-0.4,0.1s-0.2,0-0.4-0.1
			c-0.1,0-0.2-0.1-0.3-0.2s-0.1-0.2-0.2-0.3S104.5,42.9,104.5,42.8z"/>
	</g>
	<g class="st3">
		<path class="st2" d="M122,35.7c0.1-0.1,0.3-0.2,0.4-0.3c0.2-0.1,0.3-0.2,0.5-0.3c0.2-0.1,0.4-0.1,0.6-0.2c0.2,0,0.5-0.1,0.7-0.1
			c0.3,0,0.7,0,1,0.1c0.3,0.1,0.5,0.2,0.7,0.4s0.4,0.4,0.5,0.6c0.1,0.3,0.2,0.5,0.2,0.8c0,0.3,0,0.6-0.1,0.8
			c-0.1,0.2-0.2,0.4-0.3,0.6c-0.1,0.2-0.3,0.3-0.4,0.4s-0.3,0.2-0.4,0.3c-0.1,0.1-0.3,0.2-0.4,0.3c-0.1,0.1-0.2,0.2-0.2,0.3
			l-0.1,0.9h-1l-0.1-1c0-0.2,0-0.4,0.1-0.5c0.1-0.1,0.2-0.3,0.3-0.4c0.1-0.1,0.3-0.2,0.4-0.3c0.2-0.1,0.3-0.2,0.5-0.4
			c0.1-0.1,0.3-0.3,0.4-0.4c0.1-0.2,0.1-0.4,0.1-0.6c0-0.1,0-0.3-0.1-0.4c-0.1-0.1-0.1-0.2-0.2-0.3s-0.2-0.1-0.3-0.2
			s-0.3-0.1-0.4-0.1c-0.2,0-0.4,0-0.6,0.1c-0.2,0-0.3,0.1-0.4,0.2c-0.1,0.1-0.2,0.1-0.3,0.2s-0.1,0.1-0.2,0.1
			c-0.1,0-0.2-0.1-0.3-0.2L122,35.7z M123.1,42.8c0-0.1,0-0.2,0.1-0.4s0.1-0.2,0.2-0.3s0.2-0.1,0.3-0.2c0.1,0,0.2-0.1,0.4-0.1
			s0.2,0,0.4,0.1c0.1,0,0.2,0.1,0.3,0.2s0.1,0.2,0.2,0.3c0,0.1,0.1,0.2,0.1,0.4c0,0.1,0,0.2-0.1,0.4c0,0.1-0.1,0.2-0.2,0.3
			s-0.2,0.1-0.3,0.2s-0.2,0.1-0.4,0.1s-0.2,0-0.4-0.1c-0.1,0-0.2-0.1-0.3-0.2s-0.1-0.2-0.2-0.3S123.1,42.9,123.1,42.8z"/>
	</g>
</g>
</svg>
