<?xml version="1.0" encoding="utf-8"?>
<!-- Generator: Adobe Illustrator 24.1.1, SVG Export Plug-In . SVG Version: 6.00 Build 0)  -->
<svg version="1.1" id="Layer_1" xmlns="http://www.w3.org/2000/svg" xmlns:xlink="http://www.w3.org/1999/xlink" x="0px" y="0px"
	 viewBox="0 0 156 60" style="enable-background:new 0 0 156 60;" xml:space="preserve">
<style type="text/css">
	.st0{fill:#21ac9b;}
	.st1{fill:#21ac9b;stroke:#21ac9b;stroke-width:0.9306;}
</style>
<g>
	<g>
		<path class="st0" d="M78,1.1C62,1.1,49.1,14,49.1,30c0,16,13,28.9,28.9,28.9s28.9-13,28.9-28.9C106.9,14,94,1.1,78,1.1z M78,56.6
			c-14.7,0-26.6-11.9-26.6-26.6C51.4,15.3,63.3,3.4,78,3.4c14.7,0,26.6,11.9,26.6,26.6S92.7,56.6,78,56.6z"/>
		<g>
			<path class="st0" d="M99.8,30.1L99.8,30.1L99.8,30.1L99.8,30.1L99.8,30.1c0-3.8-0.9-7.5-3-11c0,0,0,0,0,0
				C93.1,12.7,86.2,8.2,78,8.2h0v21.8l11,18.8C95.4,45.2,99.8,38.2,99.8,30.1L99.8,30.1z"/>
			<g>
				<path class="st1" d="M78,4.8c-0.4,0-0.7-0.3-0.7-0.7c0-0.4,0.3-0.7,0.7-0.7c0.4,0,0.7,0.3,0.7,0.7C78.7,4.5,78.4,4.8,78,4.8z"/>
				<path class="st1" d="M65.4,8.2c-0.3,0.2-0.8,0.1-1-0.3c-0.2-0.3-0.1-0.8,0.3-1c0.3-0.2,0.8-0.1,1,0.3C65.8,7.5,65.7,8,65.4,8.2z
					"/>
				<path class="st1" d="M56.2,17.4c-0.2,0.3-0.6,0.5-1,0.3c-0.3-0.2-0.5-0.6-0.3-1c0.2-0.3,0.6-0.5,1-0.3
					C56.3,16.6,56.4,17.1,56.2,17.4z"/>
				<path class="st1" d="M52.8,30c0,0.4-0.3,0.7-0.7,0.7c-0.4,0-0.7-0.3-0.7-0.7c0-0.4,0.3-0.7,0.7-0.7C52.5,29.3,52.8,29.6,52.8,30
					z"/>
				<path class="st1" d="M56.2,42.6c0.2,0.3,0.1,0.8-0.3,1c-0.3,0.2-0.8,0.1-1-0.3c-0.2-0.3-0.1-0.8,0.3-1
					C55.6,42.1,56,42.3,56.2,42.6z"/>
				<path class="st1" d="M65.4,51.8c0.3,0.2,0.5,0.6,0.3,1c-0.2,0.3-0.6,0.5-1,0.3c-0.3-0.2-0.5-0.6-0.3-1
					C64.6,51.7,65.1,51.6,65.4,51.8z"/>
				<path class="st1" d="M78,55.2c0.4,0,0.7,0.3,0.7,0.7c0,0.4-0.3,0.7-0.7,0.7c-0.4,0-0.7-0.3-0.7-0.7S77.6,55.2,78,55.2z"/>
				<path class="st1" d="M90.6,51.8c0.3-0.2,0.8-0.1,1,0.3c0.2,0.3,0.1,0.8-0.3,1c-0.3,0.2-0.8,0.1-1-0.3
					C90.2,52.4,90.3,52,90.6,51.8z"/>
				<path class="st1" d="M99.8,42.6c0.2-0.3,0.6-0.5,1-0.3s0.5,0.6,0.3,1c-0.2,0.3-0.6,0.5-1,0.3C99.7,43.3,99.6,42.9,99.8,42.6z"/>
				<path class="st1" d="M103.2,30c0-0.4,0.3-0.7,0.7-0.7c0.4,0,0.7,0.3,0.7,0.7c0,0.4-0.3,0.7-0.7,0.7
					C103.5,30.7,103.2,30.4,103.2,30z"/>
				<path class="st1" d="M99.8,17.4c-0.2-0.3-0.1-0.8,0.3-1c0.3-0.2,0.8-0.1,1,0.3s0.1,0.8-0.3,1S100,17.7,99.8,17.4z"/>
				<path class="st1" d="M90.6,8.2c-0.3-0.2-0.5-0.6-0.3-1c0.2-0.3,0.6-0.5,1-0.3c0.3,0.2,0.5,0.6,0.3,1C91.4,8.3,90.9,8.4,90.6,8.2
					z"/>
			</g>
		</g>
	</g>
</g>
</svg>
