<?xml version="1.0" encoding="utf-8"?>
<!-- Generator: Adobe Illustrator 24.1.1, SVG Export Plug-In . SVG Version: 6.00 Build 0)  -->
<svg version="1.1" id="Layer_1" xmlns="http://www.w3.org/2000/svg" xmlns:xlink="http://www.w3.org/1999/xlink" x="0px" y="0px"
	 viewBox="0 0 50 50" style="enable-background:new 0 0 50 50;" xml:space="preserve">
<style type="text/css">
	.st0{fill:#FFFFFF;stroke:#e86f67;stroke-width:0.5;stroke-miterlimit:10;}
	.st1{fill:#e86f67;}
</style>
<g>
	<g>
		<path class="st0" d="M39.1,1.5H10.9c-5.2,0-9.4,4.2-9.4,9.4v28.2c0,5.2,4.2,9.4,9.4,9.4h28.2c5.2,0,9.4-4.2,9.4-9.4V10.9
			C48.5,5.7,44.3,1.5,39.1,1.5z"/>
	</g>
	<g>
		<path class="st1" d="M40.4,37.1c0-2.2-1.8-4-4-4s-4,1.8-4,4s1.8,4,4,4C38.6,41.1,40.4,39.3,40.4,37.1z"/>
	</g>
	<g>
		<path class="st1" d="M40.4,12.7c0-2.2-1.8-4-4-4s-4,1.8-4,4s1.8,4,4,4C38.6,16.7,40.4,14.9,40.4,12.7z"/>
	</g>
	<g>
		<path class="st1" d="M17.4,37.1c0-2.2-1.8-4-4-4s-4,1.8-4,4s1.8,4,4,4S17.4,39.3,17.4,37.1z"/>
	</g>
	<g>
		<path class="st1" d="M17.4,12.7c0-2.2-1.8-4-4-4s-4,1.8-4,4s1.8,4,4,4S17.4,14.9,17.4,12.7z"/>
	</g>
</g>
</svg>
