<?xml version="1.0" encoding="utf-8"?>
<!-- Generator: Adobe Illustrator 24.1.1, SVG Export Plug-In . SVG Version: 6.00 Build 0)  -->
<svg version="1.1" id="Layer_1" xmlns="http://www.w3.org/2000/svg" xmlns:xlink="http://www.w3.org/1999/xlink" x="0px" y="0px"
	 viewBox="0 0 156 60" style="enable-background:new 0 0 156 60;" xml:space="preserve">
<style type="text/css">
	.st0{fill:none;stroke:#FFFFFF;stroke-width:0.726;stroke-miterlimit:10;}
	.st1{enable-background:new    ;}
	.st2{fill:#FFFFFF;}
</style>
<g>
	<polygon class="st0" points="37.5,9.4 118.5,9.2 118.5,50.6 37.5,50.8 	"/>
	<g class="st1">
		<path class="st2" d="M61.4,39.9h-3.2c-0.2,0-0.4-0.1-0.5-0.2c-0.1-0.1-0.2-0.2-0.3-0.4l-3.9-6.7c-0.1,0.2-0.1,0.4-0.2,0.5
			l-3.8,6.1c-0.1,0.1-0.2,0.3-0.3,0.4c-0.1,0.1-0.3,0.2-0.5,0.2h-3l5.6-8.8l-5.4-8.4H49c0.2,0,0.4,0,0.5,0.1s0.2,0.2,0.3,0.3
			l3.8,6.4c0.1-0.2,0.2-0.4,0.3-0.6l3.5-5.7c0.1-0.2,0.2-0.3,0.3-0.3s0.2-0.1,0.4-0.1h3L55.7,31L61.4,39.9z"/>
	</g>
	<g>
		<path class="st2" d="M87.5,41.1v3.8H70.8v-3.8h6.1V23.6c0-0.7,0-1.4,0.1-2.1L72.7,25c-0.3,0.2-0.5,0.3-0.7,0.4
			c-0.2,0-0.5,0.1-0.7,0c-0.2,0-0.4-0.1-0.6-0.2c-0.2-0.1-0.3-0.2-0.4-0.3l-1.6-2.2l9.2-7.8h4.2v26.2H87.5z"/>
		<path class="st2" d="M110.2,41.1v3.8H93.5v-3.8h6.1V23.6c0-0.7,0-1.4,0.1-2.1L95.4,25c-0.2,0.2-0.5,0.3-0.7,0.4
			c-0.2,0-0.5,0.1-0.7,0c-0.2,0-0.4-0.1-0.6-0.2c-0.2-0.1-0.3-0.2-0.4-0.3l-1.6-2.2l9.2-7.8h4.2v26.2H110.2z"/>
	</g>
</g>
</svg>
