<?xml version="1.0" encoding="utf-8"?>
<!-- Generator: Adobe Illustrator 24.1.1, SVG Export Plug-In . SVG Version: 6.00 Build 0)  -->
<svg version="1.1" id="Layer_1" xmlns="http://www.w3.org/2000/svg" xmlns:xlink="http://www.w3.org/1999/xlink" x="0px" y="0px"
	 viewBox="0 0 156 60" style="enable-background:new 0 0 156 60;" xml:space="preserve">
<style type="text/css">
	.st0{fill:#9E9E9E;}
</style>
<g>
	<path class="st0" d="M15.4,26c0.6-0.1,1.1-0.2,1.6-0.3c0.5-0.1,1-0.1,1.5-0.1c1.3,0,2.5,0.2,3.5,0.6c1,0.4,1.9,0.9,2.5,1.6
		c0.7,0.7,1.2,1.5,1.5,2.4c0.3,0.9,0.5,1.9,0.5,3c0,1.3-0.2,2.6-0.7,3.7s-1.1,2-2,2.8c-0.8,0.8-1.8,1.4-3,1.8
		c-1.1,0.4-2.4,0.6-3.7,0.6c-0.8,0-1.5-0.1-2.2-0.2c-0.7-0.2-1.4-0.4-2-0.7c-0.6-0.3-1.2-0.6-1.7-0.9c-0.5-0.4-1-0.7-1.4-1.1
		l1.3-1.8c0.3-0.4,0.6-0.6,1.1-0.6c0.3,0,0.6,0.1,0.9,0.3c0.3,0.2,0.6,0.4,1,0.6c0.4,0.2,0.8,0.4,1.4,0.6c0.5,0.2,1.2,0.3,1.9,0.3
		c0.8,0,1.5-0.1,2.1-0.4c0.6-0.3,1.1-0.6,1.5-1.1s0.7-1,0.9-1.6s0.3-1.3,0.3-2.1c0-1.4-0.4-2.4-1.2-3.2c-0.8-0.8-2-1.2-3.5-1.2
		c-1.2,0-2.4,0.2-3.7,0.7l-2.7-0.8l2.1-12.2h12.4v1.8c0,0.6-0.2,1.1-0.6,1.5s-1,0.6-1.9,0.6h-6.9L15.4,26z"/>
	<path class="st0" d="M47.9,29.5c0,2.2-0.2,4.1-0.7,5.7c-0.5,1.6-1.1,3-1.9,4c-0.8,1.1-1.8,1.8-2.9,2.4c-1.1,0.5-2.4,0.8-3.7,0.8
		s-2.5-0.3-3.6-0.8c-1.1-0.5-2.1-1.3-2.9-2.4c-0.8-1.1-1.5-2.4-1.9-4c-0.5-1.6-0.7-3.5-0.7-5.7c0-2.2,0.2-4.1,0.7-5.7
		c0.5-1.6,1.1-2.9,1.9-4c0.8-1.1,1.8-1.8,2.9-2.4c1.1-0.5,2.3-0.8,3.6-0.8s2.5,0.3,3.7,0.8s2.1,1.3,2.9,2.4c0.8,1.1,1.5,2.4,1.9,4
		C47.6,25.4,47.9,27.3,47.9,29.5z M43.4,29.5c0-1.8-0.1-3.3-0.4-4.5s-0.6-2.1-1.1-2.9c-0.4-0.7-1-1.2-1.5-1.5s-1.2-0.4-1.8-0.4
		c-0.6,0-1.2,0.1-1.8,0.4c-0.6,0.3-1.1,0.8-1.5,1.5c-0.4,0.7-0.8,1.7-1.1,2.9s-0.4,2.7-0.4,4.5c0,1.8,0.1,3.3,0.4,4.5
		c0.3,1.2,0.6,2.1,1.1,2.9c0.4,0.7,0.9,1.2,1.5,1.5c0.6,0.3,1.2,0.4,1.8,0.4c0.6,0,1.2-0.1,1.8-0.4s1.1-0.8,1.5-1.5
		c0.4-0.7,0.8-1.7,1.1-2.9C43.3,32.8,43.4,31.3,43.4,29.5z"/>
	<path class="st0" d="M51.1,25.7h15.4v3.2H51.1V25.7z M51.1,31.8h15.4V35H51.1V31.8z"/>
	<path class="st0" d="M76,26c0.6-0.1,1.1-0.2,1.6-0.3c0.5-0.1,1-0.1,1.5-0.1c1.3,0,2.5,0.2,3.5,0.6c1,0.4,1.9,0.9,2.5,1.6
		c0.7,0.7,1.2,1.5,1.5,2.4c0.3,0.9,0.5,1.9,0.5,3c0,1.3-0.2,2.6-0.7,3.7s-1.1,2-2,2.8c-0.8,0.8-1.8,1.4-3,1.8
		c-1.1,0.4-2.4,0.6-3.7,0.6c-0.8,0-1.5-0.1-2.2-0.2c-0.7-0.2-1.4-0.4-2-0.7c-0.6-0.3-1.2-0.6-1.7-0.9c-0.5-0.4-1-0.7-1.4-1.1
		l1.3-1.8c0.3-0.4,0.6-0.6,1.1-0.6c0.3,0,0.6,0.1,0.9,0.3s0.6,0.4,1,0.6c0.4,0.2,0.8,0.4,1.4,0.6s1.2,0.3,1.9,0.3
		c0.8,0,1.5-0.1,2.1-0.4c0.6-0.3,1.1-0.6,1.5-1.1c0.4-0.5,0.7-1,0.9-1.6c0.2-0.6,0.3-1.3,0.3-2.1c0-1.4-0.4-2.4-1.2-3.2
		c-0.8-0.8-2-1.2-3.5-1.2c-1.2,0-2.4,0.2-3.7,0.7l-2.7-0.8l2.1-12.2h12.4v1.8c0,0.6-0.2,1.1-0.6,1.5s-1,0.6-1.9,0.6h-6.9L76,26z"/>
	<path class="st0" d="M107.2,42.1H103c-0.3,0-0.6-0.1-0.8-0.2c-0.2-0.2-0.4-0.3-0.5-0.6L98,35.1c-0.1,0.2-0.1,0.4-0.2,0.6
		c-0.1,0.2-0.2,0.3-0.3,0.5l-3.3,5.2c-0.1,0.2-0.3,0.4-0.5,0.5s-0.4,0.3-0.7,0.3h-3.8l6.1-9.2l-5.9-8.6h4.1c0.3,0,0.5,0,0.7,0.1
		c0.2,0.1,0.3,0.2,0.4,0.4l3.7,5.9c0.1-0.4,0.3-0.8,0.5-1.2l3-4.7c0.3-0.4,0.6-0.6,1-0.6h3.9l-5.9,8.5L107.2,42.1z"/>
	<path class="st0" d="M125.3,38.9v3.2h-13.9v-3.2h5.1V24.2c0-0.6,0-1.2,0.1-1.8l-3.6,3c-0.2,0.2-0.4,0.3-0.6,0.3c-0.2,0-0.4,0-0.6,0
		c-0.2,0-0.3-0.1-0.5-0.2c-0.1-0.1-0.2-0.2-0.3-0.3l-1.4-1.9l7.7-6.5h3.5v22H125.3z"/>
	<path class="st0" d="M146.7,29.5c0,2.2-0.2,4.1-0.7,5.7c-0.5,1.6-1.1,3-1.9,4c-0.8,1.1-1.8,1.8-2.9,2.4c-1.1,0.5-2.4,0.8-3.7,0.8
		s-2.5-0.3-3.6-0.8c-1.1-0.5-2.1-1.3-2.9-2.4c-0.8-1.1-1.5-2.4-1.9-4c-0.5-1.6-0.7-3.5-0.7-5.7c0-2.2,0.2-4.1,0.7-5.7
		c0.5-1.6,1.1-2.9,1.9-4c0.8-1.1,1.8-1.8,2.9-2.4s2.3-0.8,3.6-0.8s2.5,0.3,3.7,0.8s2.1,1.3,2.9,2.4c0.8,1.1,1.5,2.4,1.9,4
		C146.5,25.4,146.7,27.3,146.7,29.5z M142.3,29.5c0-1.8-0.1-3.3-0.4-4.5c-0.3-1.2-0.6-2.1-1.1-2.9s-1-1.2-1.5-1.5
		c-0.6-0.3-1.2-0.4-1.8-0.4c-0.6,0-1.2,0.1-1.8,0.4s-1.1,0.8-1.5,1.5c-0.4,0.7-0.8,1.7-1.1,2.9s-0.4,2.7-0.4,4.5
		c0,1.8,0.1,3.3,0.4,4.5c0.3,1.2,0.6,2.1,1.1,2.9c0.4,0.7,0.9,1.2,1.5,1.5s1.2,0.4,1.8,0.4c0.6,0,1.2-0.1,1.8-0.4
		c0.6-0.3,1.1-0.8,1.5-1.5s0.8-1.7,1.1-2.9C142.2,32.8,142.3,31.3,142.3,29.5z"/>
</g>
</svg>
