<?xml version="1.0" encoding="utf-8"?>
<!-- Generator: Adobe Illustrator 24.1.1, SVG Export Plug-In . SVG Version: 6.00 Build 0)  -->
<svg version="1.1" id="Layer_1" xmlns="http://www.w3.org/2000/svg" xmlns:xlink="http://www.w3.org/1999/xlink" x="0px" y="0px"
	 viewBox="0 0 156 60" style="enable-background:new 0 0 156 60;" xml:space="preserve">
<style type="text/css">
	.st0{fill:none;stroke:#21ac9b;stroke-width:1.7574;stroke-miterlimit:10;}
	.st1{fill:none;stroke:#21ac9b;stroke-width:1.318;stroke-miterlimit:10;}
	.st2{enable-background:new    ;}
	.st3{fill:#21ac9b;}
	.st4{fill:none;stroke:#21ac9b;stroke-width:1.3437;stroke-miterlimit:10;}
</style>
<g>
	<g>
		<line class="st0" x1="10.4" y1="20.6" x2="146.3" y2="20.6"/>
		<line class="st0" x1="9.5" y1="20.2" x2="15.9" y2="25.2"/>
		<line class="st0" x1="10" y1="21" x2="15.8" y2="15.9"/>
		<line class="st1" x1="33.5" y1="24.6" x2="33.5" y2="16.8"/>
		<line class="st1" x1="62.7" y1="24.6" x2="62.7" y2="16.8"/>
		<line class="st1" x1="92" y1="24.6" x2="92" y2="16.8"/>
		<line class="st1" x1="121.3" y1="24.6" x2="121.3" y2="16.8"/>
		<line class="st0" x1="146.5" y1="20.2" x2="140.1" y2="25.2"/>
		<line class="st0" x1="146" y1="21" x2="140.2" y2="15.9"/>
	</g>
	<g class="st2">
		<path class="st3" d="M30.1,32.7c0.1-0.5,0.2-1,0.4-1.4c0.2-0.4,0.5-0.7,0.8-1s0.7-0.5,1.1-0.6c0.4-0.1,0.9-0.2,1.4-0.2
			c0.5,0,0.9,0.1,1.4,0.2c0.4,0.1,0.8,0.3,1.1,0.6s0.5,0.6,0.7,0.9c0.2,0.4,0.2,0.8,0.2,1.2c0,0.4,0,0.7-0.1,1
			c-0.1,0.3-0.2,0.5-0.4,0.8c-0.2,0.2-0.4,0.4-0.6,0.5c-0.2,0.2-0.5,0.3-0.8,0.4c0.8,0.2,1.3,0.5,1.7,1c0.4,0.5,0.6,1.1,0.6,1.8
			c0,0.5-0.1,1-0.3,1.4c-0.2,0.4-0.5,0.8-0.8,1.1c-0.3,0.3-0.8,0.5-1.2,0.7c-0.5,0.2-1,0.2-1.5,0.2c-0.6,0-1.1-0.1-1.6-0.2
			c-0.4-0.2-0.8-0.4-1.1-0.6c-0.3-0.3-0.5-0.6-0.7-1c-0.2-0.4-0.4-0.8-0.5-1.2l0.6-0.3c0.2-0.1,0.3-0.1,0.5-0.1
			c0.2,0,0.3,0.1,0.3,0.3c0.1,0.2,0.2,0.3,0.3,0.5s0.2,0.4,0.4,0.6c0.2,0.2,0.4,0.4,0.7,0.5c0.3,0.1,0.6,0.2,1.1,0.2
			c0.4,0,0.8-0.1,1.1-0.2s0.6-0.3,0.8-0.5c0.2-0.2,0.4-0.4,0.5-0.7c0.1-0.3,0.2-0.5,0.2-0.8c0-0.3,0-0.6-0.1-0.9s-0.2-0.5-0.5-0.7
			c-0.2-0.2-0.5-0.3-0.9-0.4s-0.9-0.2-1.5-0.2v-1c0.5,0,0.9-0.1,1.3-0.2c0.3-0.1,0.6-0.2,0.8-0.4c0.2-0.2,0.4-0.4,0.5-0.6
			s0.1-0.5,0.1-0.8c0-0.3-0.1-0.6-0.2-0.9c-0.1-0.2-0.2-0.5-0.4-0.6s-0.4-0.3-0.6-0.4c-0.3-0.1-0.5-0.1-0.8-0.1
			c-0.3,0-0.6,0-0.8,0.1s-0.5,0.2-0.7,0.4s-0.4,0.3-0.5,0.5c-0.1,0.2-0.2,0.4-0.3,0.7c-0.1,0.2-0.2,0.3-0.3,0.4
			c-0.1,0.1-0.3,0.1-0.5,0.1L30.1,32.7z"/>
	</g>
	<g class="st2">
		<path class="st3" d="M62.2,34.5c-0.1,0.1-0.2,0.3-0.3,0.4c-0.1,0.1-0.2,0.2-0.3,0.4c0.3-0.2,0.6-0.3,0.9-0.4
			c0.3-0.1,0.7-0.2,1.1-0.2c0.5,0,0.9,0.1,1.3,0.2c0.4,0.2,0.8,0.4,1.1,0.7s0.6,0.7,0.7,1.1c0.2,0.4,0.3,0.9,0.3,1.5
			c0,0.5-0.1,1-0.3,1.5s-0.5,0.9-0.8,1.2c-0.3,0.3-0.8,0.6-1.2,0.8c-0.5,0.2-1,0.3-1.6,0.3c-0.6,0-1.1-0.1-1.6-0.3
			c-0.5-0.2-0.9-0.4-1.2-0.8c-0.3-0.3-0.6-0.8-0.8-1.2s-0.3-1-0.3-1.6c0-0.5,0.1-1,0.3-1.6c0.2-0.6,0.6-1.2,1.1-1.8l2.9-3.9
			c0.1-0.1,0.2-0.2,0.3-0.2s0.3-0.1,0.5-0.1h1.3L62.2,34.5z M63.1,40.7c0.4,0,0.7-0.1,1.1-0.2c0.3-0.1,0.6-0.3,0.8-0.5
			s0.4-0.5,0.5-0.8c0.1-0.3,0.2-0.6,0.2-1c0-0.4-0.1-0.7-0.2-1s-0.3-0.6-0.5-0.8c-0.2-0.2-0.5-0.4-0.8-0.5c-0.3-0.1-0.6-0.2-1-0.2
			c-0.4,0-0.7,0.1-1,0.2c-0.3,0.1-0.6,0.3-0.8,0.5c-0.2,0.2-0.4,0.5-0.5,0.8c-0.1,0.3-0.2,0.6-0.2,0.9c0,0.4,0.1,0.7,0.2,1
			c0.1,0.3,0.3,0.6,0.5,0.8c0.2,0.2,0.5,0.4,0.8,0.5C62.4,40.6,62.7,40.7,63.1,40.7z"/>
	</g>
	<g class="st2">
		<path class="st3" d="M120.1,40.6v1.1h-6.2v-1.1h2.5v-7.9c0-0.2,0-0.5,0-0.7l-2.1,1.8c-0.1,0.1-0.1,0.1-0.2,0.1c-0.1,0-0.1,0-0.2,0
			c-0.1,0-0.1,0-0.2-0.1s-0.1-0.1-0.1-0.1l-0.5-0.6l3.4-3h1.2v10.5H120.1z"/>
		<path class="st3" d="M129.2,40.4c0.2,0,0.3,0,0.4,0.1c0.1,0.1,0.1,0.2,0.1,0.4v0.9H122v-0.5c0-0.1,0-0.2,0.1-0.3
			c0-0.1,0.1-0.2,0.2-0.3l3.7-3.7c0.3-0.3,0.6-0.6,0.8-0.9c0.3-0.3,0.5-0.6,0.6-0.9c0.2-0.3,0.3-0.6,0.4-0.9c0.1-0.3,0.1-0.6,0.1-1
			s-0.1-0.6-0.2-0.9c-0.1-0.3-0.3-0.5-0.4-0.6c-0.2-0.2-0.4-0.3-0.7-0.4c-0.3-0.1-0.5-0.1-0.8-0.1c-0.3,0-0.6,0-0.8,0.1
			c-0.2,0.1-0.5,0.2-0.7,0.4c-0.2,0.2-0.4,0.3-0.5,0.5c-0.1,0.2-0.2,0.4-0.3,0.7c-0.1,0.2-0.2,0.3-0.3,0.4c-0.1,0.1-0.3,0.1-0.5,0.1
			l-0.8-0.1c0.1-0.5,0.2-1,0.4-1.4c0.2-0.4,0.5-0.7,0.8-1c0.3-0.3,0.7-0.5,1.1-0.6c0.4-0.1,0.9-0.2,1.4-0.2c0.5,0,0.9,0.1,1.4,0.2
			c0.4,0.1,0.8,0.4,1.1,0.6c0.3,0.3,0.6,0.6,0.7,1c0.2,0.4,0.3,0.8,0.3,1.4c0,0.4-0.1,0.8-0.2,1.2s-0.3,0.7-0.5,1.1
			c-0.2,0.3-0.5,0.7-0.8,1s-0.6,0.6-0.9,1l-3,3.1c0.2-0.1,0.4-0.1,0.7-0.1c0.2,0,0.4-0.1,0.6-0.1H129.2z"/>
	</g>
	<line class="st4" x1="83.6" y1="41.1" x2="101.9" y2="41.1"/>
</g>
</svg>
