<?xml version="1.0" encoding="utf-8"?>
<!-- Generator: Adobe Illustrator 26.5.0, SVG Export Plug-In . SVG Version: 6.00 Build 0)  -->
<svg version="1.1" id="Layer_1" xmlns="http://www.w3.org/2000/svg" xmlns:xlink="http://www.w3.org/1999/xlink" x="0px" y="0px"
	 viewBox="0 0 156 60" style="enable-background:new 0 0 156 60;" xml:space="preserve">
<style type="text/css">
	.st0{fill:none;stroke:#E86F67;stroke-width:2;stroke-miterlimit:10;}
	.st1{fill:none;stroke:#E86F67;stroke-width:1.5;stroke-miterlimit:10;}
	.st2{enable-background:new    ;}
	.st3{fill:#E86F67;}
</style>
<g>
	<path class="st0" d="M54,31.3c4.1-11.6,14.6-13.9,20.7-13.7c15.4,0.5,20.8,14.9,20.8,14.9"/>
	<line class="st0" x1="3.9" y1="36.5" x2="152.1" y2="36.5"/>
	<line class="st1" x1="53.2" y1="38.4" x2="53.2" y2="34.5"/>
	<line class="st1" x1="96.2" y1="38.4" x2="96.2" y2="34.5"/>
	<g class="st2">
		<g>
			<path class="st3" d="M73.6,9.3c0.1-0.1,0.2-0.1,0.2-0.2c0-0.1,0.2-0.1,0.4-0.1s0.2-0.1,0.4-0.1s0.2,0,0.5,0s0.4,0,0.6,0.1
				c0.1,0,0.4,0.1,0.5,0.2c0.1,0.1,0.2,0.2,0.2,0.4c0,0.1,0.1,0.4,0.1,0.5c0,0.1,0,0.4-0.1,0.5c0,0.1-0.1,0.2-0.2,0.4
				c-0.1,0.1-0.1,0.2-0.2,0.2c-0.1,0-0.1,0.1-0.2,0.2c-0.1,0-0.1,0.1-0.2,0.1s-0.1,0.1-0.1,0.2l-0.1,0.5h-0.7l-0.1-0.6
				c0-0.1,0-0.2,0-0.2c0-0.1,0.1-0.1,0.1-0.2c0-0.1,0.1-0.1,0.2-0.2c0.1-0.1,0.1-0.1,0.2-0.2c0.1-0.1,0.1-0.1,0.2-0.2
				c0.1-0.1,0.1-0.2,0.1-0.4c0-0.1,0-0.2-0.1-0.4c-0.1-0.1-0.2-0.1-0.4-0.1s-0.2,0-0.4,0s-0.1,0-0.2,0.1c-0.1,0.1-0.1,0.1-0.1,0.1
				H74c-0.1,0-0.1,0-0.2-0.1L73.6,9.3z M74.2,13.7c0-0.1,0-0.1,0-0.2c0-0.1,0.1-0.1,0.1-0.2c0,0,0.1-0.1,0.2-0.1c0.1,0,0.1,0,0.2,0
				s0.1,0,0.2,0s0.1,0.1,0.2,0.1c0,0,0.1,0.1,0.1,0.2c0,0.1,0,0.1,0,0.2c0,0.1,0,0.1,0,0.2c0,0.1-0.1,0.1-0.1,0.2
				c0,0.1-0.1,0.1-0.2,0.1s-0.1,0-0.2,0c-0.1,0-0.1,0-0.2,0s-0.1-0.1-0.2-0.1s-0.1-0.1-0.1-0.2C74.2,13.8,74.2,13.7,74.2,13.7z"/>
		</g>
	</g>
	<g>
		<line class="st0" x1="148.4" y1="40" x2="152.6" y2="36"/>
		<line class="st0" x1="148.5" y1="33" x2="152.4" y2="37.2"/>
	</g>
	<g>
		<line class="st0" x1="3.5" y1="35.9" x2="7.8" y2="39.9"/>
		<line class="st0" x1="3.8" y1="37.1" x2="7.6" y2="33"/>
	</g>
	<g>
		<line class="st0" x1="53.1" y1="31.8" x2="58.5" y2="29.7"/>
		<line class="st0" x1="54.2" y1="32" x2="52.2" y2="26.7"/>
	</g>
	<g>
		<path class="st3" d="M94.2,42.5c0.1,0,0.2,0,0.2,0c0.1,0,0.1,0,0.2,0c0.2,0,0.4,0,0.6,0.1s0.3,0.1,0.4,0.3
			c0.1,0.1,0.2,0.2,0.2,0.4s0.1,0.3,0.1,0.5s0,0.4-0.1,0.6c-0.1,0.2-0.2,0.3-0.3,0.5c-0.1,0.1-0.3,0.2-0.5,0.3s-0.4,0.1-0.6,0.1
			c-0.1,0-0.2,0-0.4,0c-0.1,0-0.2-0.1-0.3-0.1c-0.1,0-0.2-0.1-0.3-0.2c-0.1-0.1-0.2-0.1-0.2-0.2l0.2-0.3c0-0.1,0.1-0.1,0.2-0.1h0.1
			c0,0,0.1,0.1,0.2,0.1s0.1,0.1,0.2,0.1s0.2,0,0.3,0c0.1,0,0.2,0,0.3-0.1c0.1,0,0.2-0.1,0.2-0.2c0.1-0.1,0.1-0.2,0.1-0.2
			c0-0.1,0-0.2,0-0.3c0-0.2-0.1-0.4-0.2-0.5c0.1-0.2-0.1-0.3-0.3-0.3s-0.4,0-0.6,0.1L93.4,43l0.3-2h2v0.3c0,0.1,0,0.1,0,0.1
			s0,0.1-0.1,0.1l-0.1,0.1c-0.1,0-0.1,0-0.2,0h-1L94.2,42.5z"/>
		<path class="st3" d="M98.5,43c0.2,0.1,0.4,0.2,0.5,0.4s0.2,0.4,0.2,0.6c0,0.2,0,0.3-0.1,0.5c-0.1,0.1-0.2,0.3-0.3,0.4
			c-0.1,0.1-0.3,0.2-0.4,0.2s-0.4,0.1-0.6,0.1s-0.4,0-0.6-0.1s-0.3-0.1-0.4-0.2s-0.2-0.2-0.3-0.4c-0.1-0.1-0.1-0.3-0.1-0.5
			s0.1-0.4,0.2-0.6s0.3-0.3,0.5-0.4c-0.2-0.1-0.3-0.2-0.4-0.3s-0.1-0.3-0.1-0.5s0-0.3,0.1-0.4s0.2-0.2,0.3-0.3
			c0.1-0.1,0.2-0.2,0.4-0.2c0.2-0.1,0.3-0.1,0.5-0.1s0.4,0,0.5,0.1c0.2,0.1,0.3,0.1,0.4,0.2c0.1,0.1,0.2,0.2,0.3,0.3
			c0.1,0.1,0.1,0.3,0.1,0.4c0,0.2,0,0.4-0.1,0.5S98.7,42.9,98.5,43z M97.8,44.5c0.1,0,0.2,0,0.3,0c0.1,0,0.1-0.1,0.2-0.1
			s0.1-0.1,0.1-0.2c0-0.1,0-0.2,0-0.2c0-0.2-0.1-0.4-0.2-0.5s-0.3-0.2-0.5-0.2s-0.4,0.1-0.5,0.2S97,43.8,97,44c0,0.1,0,0.2,0,0.2
			c0,0.1,0.1,0.1,0.1,0.2c0.1,0.1,0.1,0.1,0.2,0.1S97.7,44.5,97.8,44.5z M97.8,41.6c-0.1,0-0.2,0-0.2,0c-0.1,0-0.1,0.1-0.2,0.1
			s-0.1,0.1-0.1,0.2c0,0.1,0,0.1,0,0.2c0,0.1,0,0.1,0,0.2s0,0.1,0.1,0.2c0,0.1,0.1,0.1,0.2,0.1s0.2,0,0.3,0s0.2,0,0.3,0
			s0.1-0.1,0.2-0.1c0-0.1,0.1-0.1,0.1-0.2c0-0.1,0-0.1,0-0.2c0-0.1,0-0.1,0-0.2c0-0.1-0.1-0.1-0.1-0.2s-0.1-0.1-0.2-0.1
			C98,41.6,97.9,41.6,97.8,41.6z"/>
	</g>
	<g>
		<line class="st0" x1="90.9" y1="30.4" x2="96.3" y2="32.5"/>
		<line class="st0" x1="97.2" y1="27.4" x2="95.2" y2="32.6"/>
	</g>
	<g>
		<path class="st3" d="M51,42.5c0.1,0,0.2,0,0.3,0c0.1,0,0.2,0,0.2,0c0.2,0,0.4,0,0.6,0.1c0.2,0.1,0.3,0.2,0.4,0.3s0.2,0.3,0.3,0.4
			s0.1,0.3,0.1,0.5c0,0.2,0,0.4-0.1,0.6c-0.1,0.2-0.2,0.4-0.3,0.5c-0.1,0.1-0.3,0.2-0.5,0.3c-0.2,0.1-0.4,0.1-0.7,0.1
			c-0.1,0-0.3,0-0.4,0c-0.1,0-0.2-0.1-0.3-0.1c-0.1,0-0.2-0.1-0.3-0.2c-0.1-0.1-0.2-0.1-0.3-0.2l0.3-0.3c0.1-0.1,0.1-0.1,0.2-0.1
			c0.1,0,0.1,0,0.2,0s0.1,0.1,0.2,0.1c0.1,0,0.1,0.1,0.2,0.1c0.1,0,0.2,0,0.3,0c0.1,0,0.2,0,0.3-0.1c0.1,0,0.2-0.1,0.2-0.2
			s0.1-0.2,0.1-0.3c0-0.1,0-0.2,0-0.3c0-0.2-0.1-0.4-0.2-0.5s-0.3-0.2-0.6-0.2c-0.2,0-0.4,0-0.6,0.1l-0.5-0.1l0.4-2.1h2.2v0.3
			c0,0.1,0,0.1,0,0.2s0,0.1-0.1,0.1c0,0-0.1,0.1-0.1,0.1c-0.1,0-0.1,0-0.2,0h-1.1L51,42.5z"/>
		<path class="st3" d="M56.5,43.1c0,0.4,0,0.7-0.1,1c-0.1,0.3-0.2,0.5-0.3,0.7c-0.1,0.2-0.3,0.3-0.5,0.4c-0.2,0.1-0.4,0.1-0.6,0.1
			s-0.4,0-0.6-0.1c-0.2-0.1-0.4-0.2-0.5-0.4c-0.1-0.2-0.3-0.4-0.3-0.7c-0.1-0.3-0.1-0.6-0.1-1s0-0.7,0.1-1c0.1-0.3,0.2-0.5,0.3-0.7
			c0.1-0.2,0.3-0.3,0.5-0.4c0.2-0.1,0.4-0.1,0.6-0.1s0.4,0,0.6,0.1c0.2,0.1,0.4,0.2,0.5,0.4c0.1,0.2,0.3,0.4,0.3,0.7
			C56.4,42.4,56.5,42.7,56.5,43.1z M55.6,43.1c0-0.3,0-0.6-0.1-0.8c0-0.2-0.1-0.4-0.2-0.5c-0.1-0.1-0.1-0.2-0.2-0.2
			c-0.1,0-0.2-0.1-0.3-0.1s-0.2,0-0.3,0.1c-0.1,0-0.2,0.1-0.2,0.2c-0.1,0.1-0.1,0.3-0.2,0.5c0,0.2-0.1,0.5-0.1,0.8
			c0,0.3,0,0.6,0.1,0.8c0,0.2,0.1,0.4,0.2,0.5c0.1,0.1,0.1,0.2,0.2,0.2c0.1,0,0.2,0.1,0.3,0.1s0.2,0,0.3-0.1c0.1,0,0.2-0.1,0.2-0.2
			c0.1-0.1,0.1-0.3,0.2-0.5C55.6,43.7,55.6,43.4,55.6,43.1z"/>
	</g>
</g>
</svg>
