<?xml version="1.0" encoding="utf-8"?>
<!-- Generator: Adobe Illustrator 24.1.1, SVG Export Plug-In . SVG Version: 6.00 Build 0)  -->
<svg version="1.1" id="Layer_1" xmlns="http://www.w3.org/2000/svg" xmlns:xlink="http://www.w3.org/1999/xlink" x="0px" y="0px"
	 viewBox="0 0 156 60" style="enable-background:new 0 0 156 60;" xml:space="preserve">
<style type="text/css">
	.st0{fill:#FFFFFF;}
	.st1{fill:#21ac9b;stroke:#21ac9b;}
	.st2{fill:#21ac9b;stroke:#21ac9b;stroke-width:0.9323;}
</style>
<g>
	<g>
		<g>
			<path class="st0" d="M43.6,24l3,7.7c0.6,2.4,0.2,10.5,3.2,13.6c2.8,2.9,3,6.7,3.2,8.5l0,0c0,0.8,0.4,1.5,1.1,2
				c1.3,0.9,4.1,2.2,9.1,2.2c4.8,0,7.6-1,9.2-1.8c1-0.5,1.5-1.4,1.4-2.4l0,0c-0.1-1.1-0.2-2.2-0.1-3.3c0.2-3,0.7-5.2,1.6-8.5
				c0.3-1.2,0.6-2.5,0.6-4V27V15.9c0-1.6-1.3-2.9-2.9-2.9s-2.9,1.2-3,2.7V7c0-1.6-1.3-2.9-3-2.9c-1.6,0-3,1.3-3,2.9V4.7
				c0-1.6-1.3-2.9-3-2.9c-1.6,0-3,1.3-3,2.9v3.1c0-1.6-1.4-2.9-3-2.9c-0.8,0-1.5,0.4-2.1,0.9S52,7.1,52,7.9v19.2l-2.3-4.3
				c-0.6-0.9-2-3.3-4.2-2.6C43.2,20.9,43.1,22.8,43.6,24z"/>
			<path class="st1" d="M52.4,5.4c0.7-0.7,1.7-1.1,2.7-1.1c0.9,0,1.7,0.2,2.3,0.7V4.7c0-2,1.7-3.6,3.8-3.6c1.9,0,3.4,1.4,3.7,3.1
				c0.6-0.5,1.4-0.8,2.3-0.8c2,0,3.7,1.6,3.7,3.6v6c0.6-0.4,1.4-0.7,2.2-0.7c2,0,3.7,1.6,3.7,3.6v22.2c0,1.4-0.2,2.8-0.6,4.2
				c-1,3.2-1.5,5.4-1.6,8.3c-0.1,1.1,0,2.1,0.1,3.2v0.1c0.2,1.2-0.5,2.5-1.7,3.1c-1.6,0.9-4.6,1.9-9.4,1.9h-0.1
				c-5.1-0.1-8-1.3-9.5-2.4c-0.9-0.6-1.4-1.5-1.4-2.5c-0.1-0.2-0.1-0.4-0.1-0.6c-0.2-1.9-0.5-5.1-2.9-7.5c-2.3-2.4-2.7-7.3-3-10.8
				c-0.1-1.2-0.2-2.4-0.4-3l-3-7.7c-0.5-1.1-0.5-2.3-0.1-3.2c0.3-0.6,0.9-1.4,2.3-1.8c2.4-0.7,3.9,1.2,5,2.9c0,0.1,0,0.1,0,0.1
				l0.9,1.7V7.9C51.3,6.2,52.4,5.3,52.4,5.4z M71.4,15.7v11.4c-0.1,0.4-0.4,0.7-0.8,0.7l0,0c-0.4,0-0.7-0.3-0.7-0.7V15.9
				c0-0.1,0-0.2,0-0.3V7c0-1.2-1-2.2-2.2-2.2c-1.3,0-2.3,1-2.3,2.2v20.1c0,0.4-0.4,0.7-0.8,0.7c-0.5,0-0.8-0.3-0.8-0.7V4.7
				c0-1.2-1-2.2-2.3-2.2s-2.3,1-2.3,2.2v22.5c0,0.4-0.4,0.7-0.8,0.7c-0.5,0-0.8-0.3-0.8-0.7V7.9c-0.1-1.2-1.1-2.2-2.3-2.2l0,0
				c-0.6,0-1.2,0.2-1.6,0.6c-0.5,0.4-0.7,1-0.7,1.6v19l2.2,4.2c1.7,0.4,8.1,2.9,8.1,13.9c0,0.4-0.4,0.7-0.8,0.7
				c-0.5,0-0.8-0.3-0.8-0.7c0-11.2-7-12.5-7.3-12.6c-0.2-0.1-0.4-0.2-0.5-0.4l-4.8-8.9c-1.2-1.8-2.1-2.7-3.3-2.3
				c-0.7,0.3-1.2,0.6-1.4,1.1c-0.3,0.5-0.2,1.3,0.1,2l3,7.7v0.1c0.2,0.7,0.3,1.9,0.4,3.3c0.3,3.3,0.7,7.9,2.6,9.9
				c2.7,2.7,3.1,6.2,3.3,8.3c0.1,0.2,0.1,0.4,0.1,0.6v0.1c0,0.5,0.3,1,0.8,1.4c1.1,0.8,3.7,2.1,8.7,2.1h0.1c4.5,0,7.2-0.9,8.7-1.7
				c0.7-0.4,1.1-1,1-1.7v-0.1c-0.1-1.1-0.2-2.3-0.1-3.4c0.1-3,0.6-5.3,1.6-8.6c0.4-1.3,0.6-2.6,0.6-3.8V15.9c0-1.2-1-2.2-2.2-2.2
				S71,14.6,71.4,15.7z"/>
		</g>
		<g>
			<path class="st0" d="M117.5,20.2c-2.2-0.7-3.6,1.7-4.2,2.6l-2.3,4.3V7.9c0-0.8-0.3-1.6-0.9-2.1s-1.3-0.9-2.1-0.9
				c-1.6,0-3,1.3-3,2.9V4.7c0-1.6-1.4-2.9-3-2.9c-1.7,0-3,1.3-3,2.9V7c0-1.6-1.4-2.9-3-2.9c-1.7,0-3,1.3-3,2.9v17.3
				c-0.1-1.5-1.4-2.7-3-2.7s-2.9,1.3-2.9,2.9V27v11c0,1.5,0.3,2.8,0.6,4c0.9,3.3,1.4,5.5,1.6,8.5c0.1,1.1,0,2.2-0.1,3.3l0,0
				c-0.1,1,0.4,1.9,1.4,2.4C92.2,57,95,58,99.8,58c5,0,7.8-1.3,9.1-2.2c0.7-0.5,1.1-1.2,1.1-2l0,0c0.2-1.8,0.4-5.6,3.2-8.5
				c3-3.1,2.6-11.2,3.2-13.6l3-7.7C119.9,22.8,119.8,20.9,117.5,20.2z"/>
			<path class="st1" d="M111.7,7.9v16.2l0.9-1.7c0,0,0,0,0-0.1c1.1-1.7,2.6-3.6,5-2.9c1.4,0.4,2,1.2,2.3,1.8
				c0.4,0.9,0.4,2.1-0.1,3.2l-3,7.7c-0.2,0.6-0.3,1.8-0.4,3c-0.3,3.5-0.7,8.4-3,10.8c-2.4,2.4-2.7,5.6-2.9,7.5c0,0.2,0,0.4-0.1,0.6
				c0,1-0.5,1.9-1.4,2.5c-1.5,1.1-4.4,2.3-9.5,2.4h-0.1c-4.8,0-7.8-1-9.4-1.9c-1.2-0.6-1.9-1.9-1.7-3.1v-0.1
				c0.1-1.1,0.2-2.1,0.1-3.2c-0.1-2.9-0.6-5.1-1.6-8.3c-0.4-1.4-0.6-2.8-0.6-4.2V24.5c0-2,1.7-3.6,3.7-3.6c0.8,0,1.6,0.3,2.2,0.7V7
				c0-2,1.7-3.6,3.7-3.6c0.9,0,1.7,0.3,2.3,0.8c0.3-1.7,1.8-3.1,3.7-3.1c2.1,0,3.8,1.6,3.8,3.6V5c0.6-0.5,1.4-0.7,2.3-0.7
				c1,0,2,0.4,2.7,1.1C110.6,5.3,111.7,6.2,111.7,7.9z M89.9,22.3c-1.2,0-2.2,1-2.2,2.2v13.6c0,1.2,0.2,2.5,0.6,3.8
				c1,3.3,1.5,5.6,1.6,8.6c0.1,1.1,0,2.3-0.1,3.4V54c-0.1,0.7,0.3,1.3,1,1.7c1.5,0.8,4.2,1.7,8.7,1.7h0.1c5,0,7.6-1.3,8.7-2.1
				c0.5-0.4,0.8-0.9,0.8-1.4v-0.1c0-0.2,0-0.4,0.1-0.6c0.2-2.1,0.6-5.6,3.3-8.3c1.9-2,2.3-6.6,2.6-9.9c0.1-1.4,0.2-2.6,0.4-3.3v-0.1
				l3-7.7c0.3-0.7,0.4-1.5,0.1-2c-0.2-0.5-0.7-0.8-1.4-1.1c-1.2-0.4-2.1,0.5-3.3,2.3l-4.8,8.9c-0.1,0.2-0.3,0.3-0.5,0.4
				c-0.3,0.1-7.3,1.4-7.3,12.6c0,0.4-0.3,0.7-0.8,0.7c-0.4,0-0.8-0.3-0.8-0.7c0-11,6.4-13.5,8.1-13.9l2.2-4.2v-19
				c0-0.6-0.2-1.2-0.7-1.6c-0.4-0.4-1-0.6-1.6-0.6l0,0c-1.2,0-2.2,1-2.3,2.2v19.3c0,0.4-0.3,0.7-0.8,0.7c-0.4,0-0.8-0.3-0.8-0.7V4.7
				c0-1.2-1-2.2-2.3-2.2s-2.3,1-2.3,2.2v22.4c0,0.4-0.3,0.7-0.8,0.7c-0.4,0-0.8-0.3-0.8-0.7V7c0-1.2-1-2.2-2.3-2.2
				c-1.2,0-2.2,1-2.2,2.2v17.2c0,0.1,0,0.2,0,0.3v2.6c0,0.4-0.3,0.7-0.7,0.7l0,0c-0.4,0-0.7-0.3-0.8-0.7v-2.8
				C92,23.2,91.1,22.3,89.9,22.3z"/>
		</g>
	</g>
	<g>
		<g>
			<path class="st2" d="M87.7,24.4l0,6.3c0,1,0.9,1.8,2,1.9c1.3,0.1,1.8-0.7,1.9-1.7v-5.4c0.1-0.3,0.4-0.6,0.8-0.6
				c0.4,0,0.7,0.3,0.7,0.6V31c0,0.5-0.1,1.1-0.2,1.2c-0.2,0.6-0.8,0.9-0.8,0.9c-0.6,0.3-1.4,0.6-2.2,0.6c-2,0-3.7-1.4-3.7-3.1v-6.2
				C86.7,24.4,87.2,24.4,87.7,24.4z"/>
		</g>
	</g>
</g>
</svg>
