<?xml version="1.0" encoding="utf-8"?>
<!-- Generator: Adobe Illustrator 24.1.1, SVG Export Plug-In . SVG Version: 6.00 Build 0)  -->
<svg version="1.1" id="Layer_1" xmlns="http://www.w3.org/2000/svg" xmlns:xlink="http://www.w3.org/1999/xlink" x="0px" y="0px"
	 viewBox="0 0 156 60" style="enable-background:new 0 0 156 60;" xml:space="preserve">
<style type="text/css">
	.st0{fill:none;stroke:#2b95f9;stroke-width:2;stroke-miterlimit:10;}
	.st1{fill:#2b95f9;stroke:#2b95f9;stroke-width:0.6833;stroke-miterlimit:10;}
	.st2{fill:#2b95f9;stroke:#2b95f9;stroke-width:0.6834;stroke-miterlimit:10;}
	.st3{fill:#FFFFFF;stroke:#2b95f9;stroke-width:0.6833;stroke-miterlimit:10;}
	.st4{fill:#FFFFFF;stroke:#2b95f9;stroke-width:0.6834;stroke-miterlimit:10;}
</style>
<g>
	<line class="st0" x1="4.1" y1="30" x2="151.9" y2="30"/>
	<g>
		<ellipse class="st1" cx="15.8" cy="30" rx="6" ry="6"/>
		<ellipse class="st1" cx="29.5" cy="30" rx="6" ry="6"/>
		<ellipse class="st1" cx="43.3" cy="30" rx="6" ry="6"/>
		<ellipse class="st1" cx="57.1" cy="30" rx="6" ry="6"/>
		<ellipse class="st2" cx="70.9" cy="30" rx="6" ry="6"/>
		<ellipse class="st3" cx="85.1" cy="30" rx="6" ry="6"/>
		<ellipse class="st3" cx="98.9" cy="30" rx="6" ry="6"/>
		<ellipse class="st3" cx="112.7" cy="30" rx="6" ry="6"/>
		<ellipse class="st3" cx="126.5" cy="30" rx="6" ry="6"/>
		<ellipse class="st4" cx="140.2" cy="30" rx="6" ry="6"/>
	</g>
</g>
<g>
	<line class="st0" x1="4.1" y1="15" x2="151.9" y2="15"/>
	<g>
		<ellipse class="st1" cx="15.8" cy="15" rx="6" ry="6"/>
		<ellipse class="st1" cx="29.5" cy="15" rx="6" ry="6"/>
		<ellipse class="st1" cx="43.3" cy="15" rx="6" ry="6"/>
		<ellipse class="st1" cx="57.1" cy="15" rx="6" ry="6"/>
		<ellipse class="st2" cx="70.9" cy="15" rx="6" ry="6"/>
		<ellipse class="st3" cx="85.1" cy="15" rx="6" ry="6"/>
		<ellipse class="st3" cx="98.9" cy="15" rx="6" ry="6"/>
		<ellipse class="st3" cx="112.7" cy="15" rx="6" ry="6"/>
		<ellipse class="st3" cx="126.5" cy="15" rx="6" ry="6"/>
		<ellipse class="st4" cx="140.2" cy="15" rx="6" ry="6"/>
	</g>
</g>
<g>
	<line class="st0" x1="4.1" y1="45" x2="151.9" y2="45"/>
	<g>
		<ellipse class="st1" cx="15.8" cy="45" rx="6" ry="6"/>
		<ellipse class="st1" cx="29.5" cy="45" rx="6" ry="6"/>
		<ellipse class="st1" cx="43.3" cy="45" rx="6" ry="6"/>
		<ellipse class="st1" cx="57.1" cy="45" rx="6" ry="6"/>
		<ellipse class="st2" cx="70.9" cy="45" rx="6" ry="6"/>
		<ellipse class="st3" cx="85.1" cy="45" rx="6" ry="6"/>
		<ellipse class="st3" cx="98.9" cy="45" rx="6" ry="6"/>
		<ellipse class="st3" cx="112.7" cy="45" rx="6" ry="6"/>
		<ellipse class="st3" cx="126.5" cy="45" rx="6" ry="6"/>
		<ellipse class="st4" cx="140.2" cy="45" rx="6" ry="6"/>
	</g>
</g>
</svg>
