<?xml version="1.0" encoding="utf-8"?>
<!-- Generator: Adobe Illustrator 24.1.1, SVG Export Plug-In . SVG Version: 6.00 Build 0)  -->
<svg version="1.1" id="Layer_1" xmlns="http://www.w3.org/2000/svg" xmlns:xlink="http://www.w3.org/1999/xlink" x="0px" y="0px"
	 viewBox="0 0 156 60" style="enable-background:new 0 0 156 60;" xml:space="preserve">
<style type="text/css">
	.st0{fill:none;stroke:#9E9E9E;stroke-width:0.9324;stroke-miterlimit:10;}
	.st1{fill:#9E9E9E;}
</style>
<g>
	<g>
		<path class="st0" d="M83,44.4l-0.1-28v-0.9l-52,0.2v0.9L31,43.8v0.9L83,44.4L83,44.4z"/>
		<line class="st0" x1="30.9" y1="25.5" x2="83" y2="25.3"/>
		<line class="st0" x1="41.2" y1="15.7" x2="41.3" y2="44.6"/>
		<line class="st0" x1="51.7" y1="15.7" x2="51.8" y2="44.5"/>
		<line class="st0" x1="62.1" y1="15.7" x2="62.3" y2="44.4"/>
		<line class="st0" x1="72.6" y1="15.6" x2="72.7" y2="44.4"/>
		<line class="st0" x1="30.9" y1="35.2" x2="83" y2="35"/>
	</g>
	<g>
		<path class="st0" d="M135.1,44.3l-0.1-28v-0.9l-52,0.2v0.9l0.1,27.2v0.9L135.1,44.3L135.1,44.3z"/>
		<line class="st0" x1="83" y1="25.3" x2="135.1" y2="25.1"/>
		<line class="st0" x1="93.3" y1="15.6" x2="93.4" y2="44.4"/>
		<line class="st0" x1="103.8" y1="15.6" x2="103.9" y2="44.3"/>
		<line class="st0" x1="114.2" y1="15.5" x2="114.4" y2="44.3"/>
		<line class="st0" x1="124.7" y1="15.4" x2="124.8" y2="44.3"/>
		<line class="st0" x1="83" y1="35" x2="135.1" y2="34.8"/>
	</g>
</g>
<g>
	<rect x="32.2" y="16.9" class="st1" width="7.8" height="7.3"/>
	<rect x="42.6" y="16.9" class="st1" width="7.8" height="7.3"/>
	<rect x="53.1" y="16.9" class="st1" width="7.8" height="7.3"/>
	<rect x="63.5" y="16.9" class="st1" width="7.8" height="7.3"/>
	<rect x="73.9" y="16.9" class="st1" width="7.8" height="7.3"/>
	<rect x="32.2" y="26.5" class="st1" width="7.8" height="7.3"/>
	<rect x="42.6" y="26.5" class="st1" width="7.8" height="7.3"/>
	<rect x="53.1" y="26.5" class="st1" width="7.8" height="7.3"/>
	<rect x="63.5" y="26.5" class="st1" width="7.8" height="7.3"/>
	<rect x="73.9" y="26.5" class="st1" width="7.8" height="7.3"/>
	<rect x="32.2" y="36.1" class="st1" width="7.8" height="7.3"/>
	<rect x="42.6" y="36.1" class="st1" width="7.8" height="7.3"/>
	<rect x="53.1" y="36.1" class="st1" width="7.8" height="7.3"/>
	<rect x="63.5" y="36.1" class="st1" width="7.8" height="7.3"/>
	<rect x="73.9" y="36.1" class="st1" width="7.8" height="7.3"/>
</g>
<g>
	<path class="st1" d="M82.2,10.2v0.9h-4v-0.9h1.5V6c0-0.2,0-0.3,0-0.5l-1,0.9c-0.1,0-0.1,0.1-0.2,0.1s-0.1,0-0.2,0s-0.1,0-0.1-0.1
		l-0.1-0.1l-0.4-0.5l2.2-1.9h1v6.3C80.9,10.2,82.2,10.2,82.2,10.2z"/>
	<path class="st1" d="M88.3,7.6c0,0.6-0.1,1.2-0.2,1.6c-0.1,0.5-0.3,0.8-0.6,1.2s-0.5,0.5-0.8,0.7s-0.7,0.2-1.1,0.2s-0.7-0.1-1-0.2
		c-0.3-0.1-0.6-0.4-0.8-0.7s-0.4-0.7-0.6-1.2c-0.1-0.5-0.2-1-0.2-1.6s0.1-1.2,0.2-1.6c0.1-0.5,0.3-0.8,0.6-1.2
		c0.2-0.3,0.5-0.5,0.8-0.7c0.3-0.1,0.7-0.2,1-0.2c0.4,0,0.7,0.1,1.1,0.2s0.6,0.4,0.8,0.7c0.2,0.3,0.4,0.7,0.6,1.2
		C88.3,6.4,88.3,6.9,88.3,7.6z M87.1,7.6c0-0.5,0-1-0.1-1.3c-0.1-0.3-0.2-0.6-0.3-0.8c-0.1-0.2-0.3-0.3-0.4-0.4C86.1,5,86,5,85.8,5
		s-0.3,0-0.5,0.1S85,5.3,84.9,5.5c-0.1,0.2-0.2,0.5-0.3,0.8c-0.1,0.3-0.1,0.8-0.1,1.3s0,1,0.1,1.3s0.2,0.6,0.3,0.8
		c0.1,0.2,0.3,0.3,0.4,0.4s0.3,0.1,0.5,0.1s0.4,0,0.5-0.1c0.2-0.1,0.3-0.2,0.4-0.4s0.2-0.5,0.3-0.8C87,8.5,87.1,8.1,87.1,7.6z"/>
</g>
<g>
	<path class="st1" d="M21.1,28.6c0-0.3,0.1-0.7,0.3-0.9c0.1-0.3,0.3-0.5,0.5-0.7s0.5-0.3,0.7-0.4c0.3-0.1,0.6-0.1,0.9-0.1
		s0.6,0,0.9,0.1s0.5,0.2,0.7,0.4c0.2,0.2,0.3,0.4,0.4,0.6s0.2,0.5,0.2,0.7s0,0.4-0.1,0.6s-0.1,0.3-0.2,0.5s-0.2,0.2-0.4,0.3
		c-0.1,0.1-0.3,0.2-0.5,0.2c0.4,0.1,0.8,0.3,1,0.6c0.2,0.3,0.3,0.6,0.3,1.1c0,0.4-0.1,0.7-0.2,1s-0.3,0.5-0.5,0.7s-0.5,0.3-0.8,0.4
		c-0.3,0.1-0.6,0.1-0.9,0.1c-0.4,0-0.7,0-1-0.1s-0.5-0.2-0.7-0.4s-0.4-0.4-0.5-0.6s-0.3-0.5-0.4-0.8l0.5-0.2c0.1-0.1,0.3-0.1,0.4,0
		s0.2,0.1,0.3,0.2c0.1,0.1,0.1,0.2,0.2,0.3s0.2,0.2,0.3,0.3c0.1,0.1,0.2,0.2,0.4,0.2c0.1,0.1,0.3,0.1,0.5,0.1s0.4,0,0.6-0.1
		s0.3-0.2,0.4-0.3s0.2-0.2,0.2-0.4s0.1-0.3,0.1-0.4c0-0.2,0-0.3-0.1-0.5s-0.1-0.3-0.2-0.4s-0.3-0.2-0.5-0.2s-0.5-0.1-0.9-0.1v-0.9
		c0.3,0,0.6,0,0.8-0.1c0.2-0.1,0.4-0.1,0.5-0.2s0.2-0.2,0.2-0.3c0-0.1,0.1-0.3,0.1-0.4c0-0.3-0.1-0.6-0.3-0.8s-0.4-0.3-0.8-0.3
		c-0.1,0-0.3,0-0.4,0.1c-0.1,0-0.2,0.1-0.3,0.2c-0.1,0.1-0.2,0.2-0.2,0.3c-0.1,0.1-0.1,0.2-0.2,0.3c-0.1,0.2-0.1,0.3-0.2,0.3
		s-0.2,0.1-0.4,0L21.1,28.6z"/>
</g>
<g>
	<path class="st1" d="M56.3,50.7c0.2,0,0.3-0.1,0.5-0.1c0.1,0,0.3,0,0.4,0c0.4,0,0.7,0.1,1,0.2s0.5,0.3,0.7,0.5s0.3,0.4,0.4,0.7
		c0.1,0.3,0.1,0.6,0.1,0.9c0,0.4-0.1,0.7-0.2,1.1c-0.1,0.3-0.3,0.6-0.6,0.8c-0.2,0.2-0.5,0.4-0.9,0.5c-0.3,0.1-0.7,0.2-1.1,0.2
		c-0.2,0-0.4,0-0.6-0.1c-0.2,0-0.4-0.1-0.6-0.2c-0.2-0.1-0.3-0.2-0.5-0.3s-0.3-0.2-0.4-0.3l0.4-0.5c0.1-0.1,0.2-0.2,0.3-0.2
		s0.2,0,0.3,0.1s0.2,0.1,0.3,0.2c0.1,0.1,0.2,0.1,0.4,0.2c0.2,0.1,0.3,0.1,0.5,0.1s0.4,0,0.6-0.1s0.3-0.2,0.4-0.3
		c0.1-0.1,0.2-0.3,0.3-0.5s0.1-0.4,0.1-0.6c0-0.4-0.1-0.7-0.3-0.9s-0.6-0.3-1-0.3c-0.3,0-0.7,0.1-1.1,0.2l-0.8-0.2l0.6-3.5h3.6v0.5
		c0,0.2-0.1,0.3-0.2,0.4c-0.1,0.1-0.3,0.2-0.6,0.2h-2L56.3,50.7z"/>
</g>
</svg>
