<?xml version="1.0" encoding="utf-8"?>
<!-- Generator: Adobe Illustrator 24.1.1, SVG Export Plug-In . SVG Version: 6.00 Build 0)  -->
<svg version="1.1" id="Layer_1" xmlns="http://www.w3.org/2000/svg" xmlns:xlink="http://www.w3.org/1999/xlink" x="0px" y="0px"
	 viewBox="0 0 156 60" style="enable-background:new 0 0 156 60;" xml:space="preserve">
<style type="text/css">
	.st0{fill:none;stroke:#21ac9b;stroke-width:2;stroke-miterlimit:10;}
	.st1{fill:none;stroke:#21ac9b;stroke-width:1.5;stroke-miterlimit:10;}
	.st2{enable-background:new    ;}
	.st3{fill:#21ac9b;stroke:#21ac9b;stroke-width:0.5;stroke-miterlimit:10;}
</style>
<g>
	<path class="st0" d="M11.2,29.5c0,0,18.1-30.2,41.8-0.3c0,0,19.6-30.3,41.8,0.7c0,0,6.1-14.2,21.9-14.2c6.3,0,17,2.7,20.8,14.4"/>
	<line class="st0" x1="1.1" y1="36.5" x2="156" y2="36.5"/>
	<line class="st0" x1="0.5" y1="36.2" x2="5.1" y2="39.8"/>
	<line class="st0" x1="0.9" y1="36.8" x2="5.1" y2="33.1"/>
	<line class="st1" x1="11" y1="38.4" x2="11" y2="34.5"/>
	<line class="st1" x1="21.5" y1="38.4" x2="21.5" y2="34.5"/>
	<line class="st1" x1="32.1" y1="38.4" x2="32.1" y2="34.5"/>
	<line class="st1" x1="42.7" y1="38.4" x2="42.7" y2="34.5"/>
	<line class="st1" x1="53.2" y1="38.4" x2="53.2" y2="34.5"/>
	<line class="st1" x1="63.8" y1="38.4" x2="63.8" y2="34.5"/>
	<line class="st1" x1="74.4" y1="38.4" x2="74.4" y2="34.5"/>
	<line class="st1" x1="84.9" y1="38.4" x2="84.9" y2="34.5"/>
	<line class="st1" x1="95.5" y1="38.4" x2="95.5" y2="34.5"/>
	<line class="st1" x1="106.1" y1="38.4" x2="106.1" y2="34.5"/>
	<line class="st1" x1="116.6" y1="38.4" x2="116.6" y2="34.5"/>
	<line class="st1" x1="127.2" y1="38.4" x2="127.2" y2="34.5"/>
	<line class="st1" x1="137.8" y1="38.4" x2="137.8" y2="34.5"/>
	<line class="st1" x1="148.3" y1="38.4" x2="148.3" y2="34.5"/>
	<line class="st0" x1="137.3" y1="31.9" x2="139.9" y2="26.7"/>
	<line class="st0" x1="137.8" y1="31.4" x2="133.4" y2="28"/>
	<g class="st2">
		<path class="st3" d="M12.2,42.2c0,0.3,0,0.6-0.1,0.9c-0.1,0.2-0.2,0.4-0.3,0.6c-0.1,0.2-0.3,0.3-0.4,0.4s-0.3,0.1-0.5,0.1
			s-0.4,0-0.5-0.1s-0.3-0.2-0.4-0.4c-0.1-0.2-0.2-0.4-0.3-0.6c-0.1-0.2-0.1-0.5-0.1-0.9c0-0.3,0-0.6,0.1-0.9s0.2-0.4,0.3-0.6
			c0.1-0.2,0.3-0.3,0.4-0.4s0.3-0.1,0.5-0.1s0.4,0,0.5,0.1s0.3,0.2,0.4,0.4c0.1,0.2,0.2,0.4,0.3,0.6S12.2,41.8,12.2,42.2z
			 M11.7,42.2c0-0.3,0-0.5-0.1-0.7c0-0.2-0.1-0.4-0.2-0.5c-0.1-0.1-0.2-0.2-0.3-0.3s-0.2-0.1-0.3-0.1s-0.2,0-0.3,0.1
			s-0.2,0.1-0.3,0.3c-0.1,0.1-0.1,0.3-0.2,0.5c0,0.2-0.1,0.4-0.1,0.7s0,0.5,0.1,0.7c0,0.2,0.1,0.4,0.2,0.5c0.1,0.1,0.2,0.2,0.3,0.3
			s0.2,0.1,0.3,0.1s0.2,0,0.3-0.1s0.2-0.1,0.3-0.3c0.1-0.1,0.1-0.3,0.2-0.5C11.7,42.7,11.7,42.5,11.7,42.2z"/>
		<path class="st3" d="M23.1,43.7v0.4h-2v-0.4h0.8v-2.6c0-0.1,0-0.2,0-0.2l-0.7,0.6c0,0,0,0-0.1,0c0,0,0,0-0.1,0c0,0,0,0-0.1,0
			s0,0,0,0l-0.1-0.2l1.1-1h0.4v3.4H23.1z"/>
		<path class="st3" d="M32.8,43.6C32.9,43.6,32.9,43.6,32.8,43.6L32.8,43.6l0.1,0.4h-2.5v-0.2v-0.1c0,0,0-0.1,0.1-0.1l1.2-1.2
			c0.1-0.1,0.2-0.2,0.3-0.3c0.1-0.1,0.2-0.2,0.2-0.3c0.1-0.1,0.1-0.2,0.1-0.3s0-0.2,0-0.3s0-0.2-0.1-0.3c0-0.1-0.1-0.2-0.1-0.2
			c-0.1-0.1-0.1-0.1-0.2-0.1s-0.2,0-0.3,0c-0.1,0-0.2,0-0.3,0c-0.1,0-0.2,0.1-0.2,0.1s-0.1,0.1-0.2,0.2s0.1,0.2,0.1,0.3
			c0,0.1,0,0.1-0.1,0.1c0,0-0.1,0-0.2,0h-0.2c0-0.2,0.1-0.3,0.1-0.5c0.1-0.1,0.2-0.2,0.3-0.3s0.2-0.2,0.4-0.2c0.1,0,0.3-0.1,0.4-0.1
			c0.2,0,0.3,0,0.4,0.1c0.1,0,0.3,0.1,0.4,0.2s0.2,0.2,0.2,0.3c0.1,0.1,0.1,0.3,0.1,0.4c0,0.1,0,0.3-0.1,0.4c0,0.1-0.1,0.2-0.2,0.3
			s-0.2,0.2-0.2,0.3c-0.1,0.1-0.2,0.2-0.3,0.3l-1,1c0.1,0,0.1,0,0.2,0s0.1,0,0.2,0L32.8,43.6L32.8,43.6z"/>
		<path class="st3" d="M41.6,41.3c0-0.2,0.1-0.3,0.1-0.5c0.1-0.1,0.2-0.2,0.3-0.3s0.2-0.2,0.4-0.2c0.1,0,0.3-0.1,0.4-0.1
			c0.2,0,0.3,0,0.4,0.1c0.1,0,0.3,0.1,0.3,0.2c0.1,0.1,0.2,0.2,0.2,0.3c0.1,0.1,0.1,0.3,0.1,0.4c0,0.1,0,0.2,0,0.3s-0.1,0.2-0.1,0.2
			c-0.1,0.1-0.1,0.1-0.2,0.2c-0.1,0-0.2,0.1-0.3,0.1c0.2,0.1,0.4,0.2,0.6,0.3c0.1,0.2,0.2,0.3,0.2,0.6c0,0.2,0,0.3-0.1,0.5
			c-0.1,0.1-0.2,0.3-0.3,0.4c-0.1,0.1-0.2,0.2-0.4,0.2s-0.3,0.1-0.5,0.1s-0.4,0-0.5-0.1s-0.3-0.1-0.4-0.2c-0.1-0.1-0.2-0.2-0.2-0.3
			c-0.1-0.1-0.1-0.3-0.2-0.4l0.2-0.1c0.1,0,0.1,0,0.2,0s0.1,0,0.1,0.1c0,0,0.1,0.1,0.1,0.2c0,0.1,0.1,0.1,0.1,0.2s0.1,0.1,0.2,0.2
			c0.1,0,0.2,0.1,0.4,0.1c0.1,0,0.2,0,0.3-0.1c0.1,0,0.2-0.1,0.2-0.2c0.1-0.1,0.1-0.1,0.1-0.2s0-0.2,0-0.2c0-0.1,0-0.2,0-0.3
			s0.1-0.3,0.1-0.3c-0.1-0.1-0.2-0.1-0.3-0.1s-0.3-0.1-0.5-0.1V42c0.2,0,0.3,0,0.4-0.1s0.2-0.1,0.3-0.1c0.1-0.1,0.1-0.1,0.2-0.2
			c0-0.1,0-0.2,0-0.3s0-0.2-0.1-0.3c0-0.1-0.1-0.1-0.1-0.2c-0.1-0.1-0.1-0.1-0.2-0.1s-0.2,0-0.3,0s-0.2,0-0.3,0s-0.2,0.1-0.2,0.1
			s-0.1,0.1-0.2,0.2S42,41.1,42,41.2c0,0.1-0.1,0.1-0.1,0.1h-0.1L41.6,41.3z"/>
		<path class="st3" d="M53.9,42.7V43v0.1c0,0,0,0-0.1,0h-0.5v1h-0.4v-1h-1.7h-0.1c0,0,0,0,0-0.1v-0.2l1.8-2.4h0.4v2.4L53.9,42.7
			L53.9,42.7z M52.9,42.7v-1.5v-0.1c0-0.1,0-0.1,0-0.2l-1.4,1.9h1.4V42.7z"/>
		<path class="st3" d="M63.1,41.7c0.2,0,0.4-0.1,0.5-0.1c0.2,0,0.4,0,0.5,0.1s0.3,0.1,0.4,0.2c0.1,0.1,0.2,0.2,0.2,0.4
			c0.1,0.1,0.1,0.3,0.1,0.5s0,0.4-0.1,0.5c-0.1,0.2-0.2,0.3-0.3,0.4S64.1,43.9,64,44c-0.2,0.1-0.3,0.1-0.5,0.1c-0.1,0-0.2,0-0.3,0
			S63,44,62.9,44s-0.2-0.1-0.2-0.1c-0.1,0-0.1-0.1-0.2-0.1l0.1-0.2l0.1-0.1h0.1c0,0,0.1,0.1,0.2,0.1s0.1,0.1,0.2,0.1
			c0.1,0,0.2,0,0.3,0s0.2,0,0.4-0.1s0.2-0.1,0.3-0.2c0.1-0.1,0.1-0.2,0.2-0.3c0-0.1,0.1-0.2,0.1-0.4c0-0.1,0-0.2-0.1-0.3
			c0-0.1-0.1-0.2-0.2-0.2c-0.1-0.1-0.2-0.1-0.3-0.2c-0.1,0-0.2-0.1-0.4-0.1c-0.1,0-0.2,0-0.3,0s-0.2,0-0.3,0.1l-0.3-0.1l0.3-1.8h1.8
			v0.4c0,0.1,0,0.1-0.1,0.2s-0.1,0.1-0.2,0.1h-1.2L63.1,41.7z"/>
		<path class="st3" d="M73.1,41.7L73.1,41.7l-0.2,0.2c0.1-0.1,0.2-0.1,0.3-0.1c0.1,0,0.2,0,0.3,0c0.2,0,0.3,0,0.4,0.1
			c0.1,0,0.3,0.1,0.4,0.2c0.1,0.1,0.2,0.2,0.2,0.4s0.1,0.3,0.1,0.5s0,0.3-0.1,0.5s-0.2,0.3-0.3,0.4c-0.1,0.1-0.2,0.2-0.4,0.3
			c-0.2,0.1-0.3,0.1-0.5,0.1s-0.4,0-0.5-0.1c-0.2-0.1-0.3-0.1-0.4-0.3c-0.1-0.1-0.2-0.2-0.2-0.4s-0.1-0.3-0.1-0.5s0-0.3,0.1-0.5
			s0.2-0.4,0.3-0.6l1-1.3l0.1-0.1h0.1h0.4L73.1,41.7z M73.4,43.7c0.1,0,0.2,0,0.3-0.1c0.1,0,0.2-0.1,0.3-0.2
			c0.1-0.1,0.1-0.2,0.2-0.3c0-0.1,0.1-0.2,0.1-0.3s0-0.2-0.1-0.3c0-0.1-0.1-0.2-0.2-0.3s-0.2-0.1-0.3-0.2c-0.1,0-0.2-0.1-0.3-0.1
			c-0.1,0-0.2,0-0.3,0.1c-0.1,0-0.2,0.1-0.3,0.2c-0.1,0.1-0.1,0.2-0.2,0.3c0,0.1-0.1,0.2-0.1,0.3s0,0.2,0.1,0.3
			c0,0.1,0.1,0.2,0.2,0.3s0.1,0.1,0.2,0.2C73.1,43.7,73.3,43.7,73.4,43.7z"/>
		<path class="st3" d="M85.8,40.3v0.2c0,0.1,0,0.1,0,0.1v0.1l-1.6,3.1l-0.1,0.1c0,0-0.1,0-0.2,0h-0.3l1.6-3.1c0,0,0-0.1,0.1-0.1
			s0.1-0.1,0.1-0.1h-2h-0.1c0,0,0,0,0-0.1v-0.3L85.8,40.3L85.8,40.3z"/>
		<path class="st3" d="M96.1,42.1c0.2,0.1,0.4,0.2,0.5,0.3c0.1,0.2,0.2,0.4,0.2,0.6c0,0.2,0,0.3-0.1,0.4c-0.1,0.1-0.1,0.2-0.3,0.3
			s-0.2,0.2-0.4,0.2c-0.2,0-0.3,0.1-0.5,0.1s-0.4,0-0.5-0.1s-0.3-0.1-0.4-0.2c-0.1-0.1-0.2-0.2-0.3-0.3c-0.1-0.1-0.1-0.3-0.1-0.4
			c0-0.2,0.1-0.4,0.2-0.6c0.1-0.2,0.3-0.3,0.5-0.3c-0.2-0.1-0.3-0.2-0.4-0.3s-0.2-0.3-0.2-0.5c0-0.1,0-0.3,0.1-0.4
			c0.1-0.1,0.1-0.2,0.2-0.3s0.2-0.2,0.4-0.2c0.1-0.1,0.3-0.1,0.5-0.1s0.3,0,0.5,0.1c0.1,0,0.3,0.1,0.4,0.2c0.1,0.1,0.2,0.2,0.2,0.3
			c0.1,0.1,0.1,0.2,0.1,0.4s-0.1,0.4-0.2,0.5C96.5,41.9,96.3,42,96.1,42.1z M95.6,43.7c0.1,0,0.2,0,0.3-0.1s0.2-0.1,0.2-0.1
			c0.1-0.1,0.1-0.1,0.2-0.2c0-0.1,0.1-0.2,0.1-0.3s0-0.2-0.1-0.3s-0.1-0.2-0.2-0.2s-0.2-0.1-0.3-0.1c-0.1,0-0.2,0-0.3,0
			c-0.1,0-0.2,0-0.3,0c-0.1,0-0.2,0.1-0.3,0.1c-0.1,0.1-0.1,0.1-0.2,0.2s-0.1,0.2-0.1,0.3s0,0.2,0.1,0.3c0,0.1,0.1,0.2,0.2,0.2
			c0.1,0.1,0.1,0.1,0.2,0.1C95.3,43.7,95.5,43.7,95.6,43.7z M95.6,40.6c-0.1,0-0.2,0-0.3,0s-0.2,0.1-0.2,0.1
			C95,40.8,95,40.8,95,40.9c0,0.1,0,0.2,0,0.2c0,0.1,0,0.2,0,0.2l0.1,0.2c0.1,0.1,0.1,0.1,0.2,0.1s0.2,0.1,0.3,0.1s0.2,0,0.3-0.1
			c0.1,0,0.2-0.1,0.2-0.1c0.1-0.1,0.1-0.1,0.1-0.2s0-0.2,0-0.2c0-0.1,0-0.2,0-0.2c0-0.1-0.1-0.1-0.1-0.2s-0.1-0.1-0.2-0.1
			S95.7,40.6,95.6,40.6z"/>
		<path class="st3" d="M105.6,42.5C105.6,42.4,105.7,42.4,105.6,42.5l0.2-0.2c-0.1,0.1-0.2,0.1-0.3,0.2c-0.1,0-0.2,0.1-0.4,0.1
			c-0.1,0-0.3,0-0.4-0.1c-0.1,0-0.2-0.1-0.3-0.2c-0.1-0.1-0.2-0.2-0.2-0.3s-0.1-0.3-0.1-0.5s0-0.3,0.1-0.5c0.1-0.1,0.1-0.3,0.3-0.4
			c0.1-0.1,0.2-0.2,0.4-0.3c0.2-0.1,0.3-0.1,0.5-0.1s0.3,0,0.5,0.1c0.1,0.1,0.3,0.1,0.4,0.2c0.1,0.1,0.2,0.2,0.2,0.4
			c0.1,0.1,0.1,0.3,0.1,0.5c0,0.1,0,0.2,0,0.3s0,0.2-0.1,0.3c0,0.1-0.1,0.2-0.1,0.3c-0.1,0.1-0.1,0.2-0.2,0.3l-0.9,1.3l-0.1,0.1
			h-0.1h-0.4L105.6,42.5z M104.6,41.4c0,0.1,0,0.2,0.1,0.3s0.1,0.2,0.1,0.2c0.1,0.1,0.1,0.1,0.2,0.1s0.2,0.1,0.3,0.1
			c0.1,0,0.2,0,0.3-0.1c0.1,0,0.2-0.1,0.2-0.2c0.1-0.1,0.1-0.1,0.2-0.2s0.1-0.2,0.1-0.3s0-0.2-0.1-0.3c0-0.1-0.1-0.2-0.2-0.2
			s-0.1-0.1-0.2-0.2c-0.1,0-0.2-0.1-0.3-0.1c-0.1,0-0.2,0-0.3,0.1c-0.1,0-0.2,0.1-0.2,0.2s-0.1,0.1-0.2,0.2
			C104.6,41.2,104.6,41.3,104.6,41.4z"/>
		<path class="st3" d="M116.2,43.7v0.4h-2v-0.4h0.8v-2.6c0-0.1,0-0.2,0-0.2l-0.7,0.6c0,0,0,0-0.1,0c0,0,0,0-0.1,0c0,0,0,0-0.1,0
			s0,0,0,0l-0.1-0.2l1.1-1h0.4v3.4H116.2z"/>
		<path class="st3" d="M119.5,42.2c0,0.3,0,0.6-0.1,0.9c-0.1,0.2-0.2,0.4-0.3,0.6s-0.3,0.3-0.4,0.4c-0.2,0.1-0.3,0.1-0.5,0.1
			s-0.4,0-0.5-0.1c-0.2-0.1-0.3-0.2-0.4-0.4s-0.2-0.4-0.3-0.6c-0.1-0.2-0.1-0.5-0.1-0.9c0-0.3,0-0.6,0.1-0.9
			c0.1-0.2,0.2-0.4,0.3-0.6s0.3-0.3,0.4-0.4c0.2-0.1,0.3-0.1,0.5-0.1s0.4,0,0.5,0.1c0.2,0.1,0.3,0.2,0.4,0.4s0.2,0.4,0.3,0.6
			C119.5,41.5,119.5,41.8,119.5,42.2z M119,42.2c0-0.3,0-0.5-0.1-0.7s-0.1-0.4-0.2-0.5s-0.2-0.2-0.3-0.3c-0.1-0.1-0.2-0.1-0.3-0.1
			c-0.1,0-0.2,0-0.3,0.1c-0.1,0.1-0.2,0.1-0.3,0.3c-0.1,0.1-0.1,0.3-0.2,0.5s-0.1,0.4-0.1,0.7s0,0.5,0.1,0.7s0.1,0.4,0.2,0.5
			s0.2,0.2,0.3,0.3c0.1,0.1,0.2,0.1,0.3,0.1c0.1,0,0.2,0,0.3-0.1c0.1-0.1,0.2-0.1,0.3-0.3c0.1-0.1,0.1-0.3,0.2-0.5
			S119,42.5,119,42.2z"/>
		<path class="st3" d="M126.3,43.7v0.4h-2v-0.4h0.8v-2.6c0-0.1,0-0.2,0-0.2l-0.7,0.6c0,0,0,0-0.1,0c0,0,0,0-0.1,0c0,0,0,0-0.1,0
			s0,0,0,0l-0.1-0.2l1.1-1h0.4v3.4H126.3z"/>
		<path class="st3" d="M129.4,43.7v0.4h-2v-0.4h0.8v-2.6c0-0.1,0-0.2,0-0.2l-0.7,0.6c0,0,0,0-0.1,0c0,0,0,0-0.1,0c0,0,0,0-0.1,0
			s0,0,0,0l-0.1-0.2l1.1-1h0.4v3.4H129.4z"/>
		<path class="st3" d="M136.5,43.7v0.4h-2v-0.4h0.8v-2.6c0-0.1,0-0.2,0-0.2l-0.7,0.6c0,0,0,0-0.1,0c0,0,0,0-0.1,0c0,0,0,0-0.1,0
			s0,0,0,0l-0.1-0.2l1.1-1h0.4v3.4H136.5z"/>
		<path class="st3" d="M139.4,43.6c0.1,0,0.1,0,0.1,0v0.1V44H137v-0.2v-0.1c0,0,0-0.1,0.1-0.1l1.2-1.2c0.1-0.1,0.2-0.2,0.3-0.3
			s0.2-0.2,0.2-0.3c0.1-0.1,0.1-0.2,0.1-0.3s0-0.2,0-0.3s0-0.2-0.1-0.3s-0.1-0.2-0.1-0.2c-0.1-0.1-0.1-0.1-0.2-0.1s-0.2,0-0.3,0
			s-0.2,0-0.3,0s-0.2,0.1-0.2,0.1c-0.1,0-0.1,0.1-0.2,0.2s-0.1,0.1-0.1,0.2c0,0.1,0,0.1-0.1,0.1c0,0-0.1,0-0.2,0h-0.2
			c0-0.2,0.1-0.3,0.1-0.5c0.1-0.1,0.2-0.2,0.3-0.3s0.2-0.2,0.4-0.2c0.1,0,0.3-0.1,0.4-0.1c0.2,0,0.3,0,0.4,0.1
			c0.1,0,0.3,0.1,0.4,0.2s0.2,0.2,0.2,0.3c0.1,0.1,0.1,0.3,0.1,0.4c0,0.1,0,0.3-0.1,0.4c0,0.1-0.1,0.2-0.2,0.3s-0.2,0.2-0.2,0.3
			c-0.1,0.1-0.2,0.2-0.3,0.3l-1,1c0.1,0,0.1,0,0.2,0c0.1,0,0.1,0,0.2,0h1.6V43.6z"/>
		<path class="st3" d="M147.9,43.7v0.4h-2v-0.4h0.8v-2.6c0-0.1,0-0.2,0-0.2l-0.7,0.6c0,0,0,0-0.1,0c0,0,0,0-0.1,0c0,0,0,0-0.1,0
			s0,0,0,0l-0.1-0.2l1.1-1h0.4v3.4H147.9z"/>
		<path class="st3" d="M148.6,41.3c0-0.2,0.1-0.3,0.1-0.5c0.1-0.1,0.2-0.2,0.3-0.3s0.2-0.2,0.4-0.2c0.1,0,0.3-0.1,0.5-0.1
			s0.3,0,0.4,0.1c0.1,0,0.3,0.1,0.3,0.2c0.1,0.1,0.2,0.2,0.2,0.3c0.1,0.1,0.1,0.3,0.1,0.4c0,0.1,0,0.2,0,0.3s-0.1,0.2-0.1,0.2
			c-0.1,0.1-0.1,0.1-0.2,0.2c-0.1,0-0.2,0.1-0.3,0.1c0.2,0.1,0.4,0.2,0.6,0.3c0.1,0.2,0.2,0.3,0.2,0.6c0,0.2,0,0.3-0.1,0.5
			c-0.1,0.1-0.2,0.3-0.3,0.4c-0.1,0.1-0.2,0.2-0.4,0.2s-0.3,0.1-0.5,0.1s-0.4,0-0.5-0.1c-0.1,0-0.3-0.1-0.4-0.2
			c-0.1-0.1-0.2-0.2-0.2-0.3c-0.1-0.1-0.1-0.3-0.2-0.4l0.2-0.1c0.1,0,0.1,0,0.2,0s0.1,0,0.1,0.1c0,0,0.1,0.1,0.1,0.2
			c0,0.1,0.1,0.1,0.1,0.2s0.1,0.1,0.2,0.2s0.2,0.1,0.4,0.1c0.1,0,0.2,0,0.3-0.1s0.2-0.1,0.2-0.2c0.1-0.1,0.1-0.1,0.1-0.2
			s0-0.2,0-0.2c0-0.1,0-0.2,0-0.3s-0.1-0.2-0.1-0.2c-0.1-0.1-0.2-0.1-0.3-0.1s-0.3-0.1-0.5-0.1v-0.3c0.2,0,0.3,0,0.4-0.1
			c0.1,0,0.2-0.1,0.3-0.1c0.1-0.1,0.1-0.1,0.2-0.2c0-0.1,0-0.2,0-0.3s0-0.2-0.1-0.3c0-0.1-0.1-0.1-0.1-0.2c-0.1-0.1-0.1-0.1-0.2-0.1
			c-0.1,0-0.2,0-0.3,0s-0.2,0-0.3,0s-0.2,0.1-0.2,0.1c-0.1,0-0.1,0.1-0.2,0.2s-0.1,0.1-0.1,0.2c0,0.1-0.1,0.1-0.1,0.1h-0.1
			L148.6,41.3z"/>
	</g>
</g>
</svg>
