<?xml version="1.0" encoding="utf-8"?>
<!-- Generator: Adobe Illustrator 24.1.1, SVG Export Plug-In . SVG Version: 6.00 Build 0)  -->
<svg version="1.1" id="Layer_1" xmlns="http://www.w3.org/2000/svg" xmlns:xlink="http://www.w3.org/1999/xlink" x="0px" y="0px"
	 viewBox="0 0 156 60" style="enable-background:new 0 0 156 60;" xml:space="preserve">
<style type="text/css">
	.st0{fill:none;stroke:#e86f67;stroke-width:2;stroke-miterlimit:10;}
	.st1{fill:none;stroke:#e86f67;stroke-width:1.5;stroke-miterlimit:10;}
	.st2{enable-background:new    ;}
	.st3{fill:#e86f67;stroke:#e86f67;stroke-width:0.5;stroke-miterlimit:10;}
	.st4{fill:#e86f67;}
</style>
<g>
	<line class="st0" x1="1.1" y1="36.5" x2="155" y2="36.5"/>
	<line class="st0" x1="0.5" y1="36.2" x2="5.1" y2="39.8"/>
	<line class="st0" x1="0.9" y1="36.8" x2="5.1" y2="33.1"/>
	<line class="st1" x1="11" y1="38.4" x2="11" y2="34.5"/>
	<line class="st1" x1="24.4" y1="38.4" x2="24.4" y2="34.5"/>
	<line class="st1" x1="37.9" y1="38.4" x2="37.9" y2="34.5"/>
	<line class="st1" x1="64.7" y1="38.4" x2="64.7" y2="34.5"/>
	<line class="st1" x1="78.2" y1="38.4" x2="78.2" y2="34.5"/>
	<line class="st1" x1="91.6" y1="38.4" x2="91.6" y2="34.5"/>
	<line class="st1" x1="105" y1="38.4" x2="105" y2="34.5"/>
	<line class="st1" x1="118.4" y1="38.4" x2="118.4" y2="34.5"/>
	<line class="st1" x1="131.9" y1="38.4" x2="131.9" y2="34.5"/>
	<line class="st1" x1="145.3" y1="38.4" x2="145.3" y2="34.5"/>
	<g class="st2">
		<path class="st3" d="M12.2,42.2c0,0.3,0,0.6-0.1,0.9c-0.1,0.2-0.2,0.4-0.3,0.6c-0.1,0.2-0.3,0.3-0.4,0.4s-0.3,0.1-0.5,0.1
			s-0.4,0-0.5-0.1s-0.3-0.2-0.4-0.4c-0.1-0.2-0.2-0.4-0.3-0.6c-0.1-0.2-0.1-0.5-0.1-0.9c0-0.3,0-0.6,0.1-0.9s0.2-0.4,0.3-0.6
			c0.1-0.2,0.3-0.3,0.4-0.4s0.3-0.1,0.5-0.1s0.4,0,0.5,0.1s0.3,0.2,0.4,0.4c0.1,0.2,0.2,0.4,0.3,0.6S12.2,41.8,12.2,42.2z
			 M11.7,42.2c0-0.3,0-0.5-0.1-0.7c0-0.2-0.1-0.4-0.2-0.5c-0.1-0.1-0.2-0.2-0.3-0.3s-0.2-0.1-0.3-0.1s-0.2,0-0.3,0.1
			s-0.2,0.1-0.3,0.3c-0.1,0.1-0.1,0.3-0.2,0.5c0,0.2-0.1,0.4-0.1,0.7s0,0.5,0.1,0.7c0,0.2,0.1,0.4,0.2,0.5c0.1,0.1,0.2,0.2,0.3,0.3
			s0.2,0.1,0.3,0.1s0.2,0,0.3-0.1s0.2-0.1,0.3-0.3c0.1-0.1,0.1-0.3,0.2-0.5C11.7,42.7,11.7,42.5,11.7,42.2z"/>
		<path class="st3" d="M143.1,42.5C143.1,42.4,143.2,42.4,143.1,42.5l0.2-0.2c-0.1,0.1-0.2,0.1-0.3,0.2c-0.1,0-0.2,0.1-0.4,0.1
			c-0.1,0-0.3,0-0.4-0.1c-0.1,0-0.2-0.1-0.3-0.2c-0.1-0.1-0.2-0.2-0.2-0.3s-0.1-0.3-0.1-0.5s0-0.3,0.1-0.5c0.1-0.1,0.1-0.3,0.3-0.4
			c0.1-0.1,0.2-0.2,0.4-0.3s0.3-0.1,0.5-0.1s0.3,0,0.5,0.1c0.1,0.1,0.3,0.1,0.4,0.2c0.1,0.1,0.2,0.2,0.2,0.4
			c0.1,0.1,0.1,0.3,0.1,0.5c0,0.1,0,0.2,0,0.3s0,0.2-0.1,0.3c0,0.1-0.1,0.2-0.1,0.3c-0.1,0.1-0.1,0.2-0.2,0.3l-0.9,1.3l-0.1,0.1
			h-0.1h-0.4L143.1,42.5z M142.1,41.4c0,0.1,0,0.2,0.1,0.3s0.1,0.2,0.1,0.2c0.1,0.1,0.1,0.1,0.2,0.1c0.1,0,0.2,0.1,0.3,0.1
			s0.2,0,0.3-0.1c0.1,0,0.2-0.1,0.2-0.2c0.1-0.1,0.1-0.1,0.2-0.2c0.1-0.1,0.1-0.2,0.1-0.3s0-0.2-0.1-0.3c0-0.1-0.1-0.2-0.2-0.2
			c-0.1,0-0.1-0.1-0.2-0.2c-0.1,0-0.2-0.1-0.3-0.1s-0.2,0-0.3,0.1c-0.1,0-0.2,0.1-0.2,0.2s-0.1,0.1-0.2,0.2
			C142.1,41.2,142.1,41.3,142.1,41.4z"/>
		<path class="st3" d="M148,42.2c0,0.3,0,0.6-0.1,0.9c-0.1,0.2-0.2,0.4-0.3,0.6s-0.3,0.3-0.4,0.4c-0.2,0.1-0.3,0.1-0.5,0.1
			s-0.4,0-0.5-0.1c-0.2-0.1-0.3-0.2-0.4-0.4c-0.1-0.2-0.2-0.4-0.3-0.6c-0.1-0.2-0.1-0.5-0.1-0.9c0-0.3,0-0.6,0.1-0.9
			c0.1-0.2,0.2-0.4,0.3-0.6s0.3-0.3,0.4-0.4c0.2-0.1,0.3-0.1,0.5-0.1s0.4,0,0.5,0.1c0.2,0.1,0.3,0.2,0.4,0.4
			c0.1,0.2,0.2,0.4,0.3,0.6C148,41.5,148,41.8,148,42.2z M147.5,42.2c0-0.3,0-0.5-0.1-0.7s-0.1-0.4-0.2-0.5
			c-0.1-0.1-0.2-0.2-0.3-0.3s-0.2-0.1-0.3-0.1s-0.2,0-0.3,0.1s-0.2,0.1-0.3,0.3c-0.1,0.1-0.1,0.3-0.2,0.5c-0.1,0.2-0.1,0.4-0.1,0.7
			s0,0.5,0.1,0.7s0.1,0.4,0.2,0.5c0.1,0.1,0.2,0.2,0.3,0.3s0.2,0.1,0.3,0.1s0.2,0,0.3-0.1s0.2-0.1,0.3-0.3c0.1-0.1,0.1-0.3,0.2-0.5
			C147.5,42.7,147.5,42.5,147.5,42.2z"/>
	</g>
	<line class="st0" x1="150.8" y1="39.8" x2="155.3" y2="35.9"/>
	<line class="st0" x1="151.2" y1="33.1" x2="155.3" y2="37.1"/>
	<line class="st1" x1="51.3" y1="38.4" x2="51.3" y2="34.5"/>
</g>
<g>
	<path class="st4" d="M10.9,10c-3.9,0-7,3.1-7,7c0,5.3,7,13,7,13s7-7.8,7-13C17.9,13.1,14.8,10,10.9,10z M5.9,17c0-2.8,2.2-5,5-5
		s5,2.2,5,5c0,2.9-2.9,7.2-5,9.9C8.8,24.2,5.9,19.8,5.9,17z"/>
	<circle class="st4" cx="10.9" cy="17" r="2.5"/>
</g>
<g>
	<path class="st4" d="M145.3,10c-3.9,0-7,3.1-7,7c0,5.3,7,13,7,13s7-7.8,7-13C152.3,13.1,149.2,10,145.3,10z M140.3,17
		c0-2.8,2.2-5,5-5s5,2.2,5,5c0,2.9-2.9,7.2-5,9.9C143.2,24.2,140.3,19.8,140.3,17z"/>
	<circle class="st4" cx="145.3" cy="17" r="2.5"/>
</g>
<g>
	<path class="st4" d="M78.2,10c-3.9,0-7,3.1-7,7c0,5.3,7,13,7,13s7-7.8,7-13C85.2,13.1,82.1,10,78.2,10z M73.2,17c0-2.8,2.2-5,5-5
		s5,2.2,5,5c0,2.9-2.9,7.2-5,9.9C76.1,24.2,73.2,19.8,73.2,17z"/>
	<circle class="st4" cx="78.2" cy="17" r="2.5"/>
</g>
</svg>
