<?xml version="1.0" encoding="utf-8"?>
<!-- Generator: Adobe Illustrator 24.1.1, SVG Export Plug-In . SVG Version: 6.00 Build 0)  -->
<svg version="1.1" id="Layer_1" xmlns="http://www.w3.org/2000/svg" xmlns:xlink="http://www.w3.org/1999/xlink" x="0px" y="0px"
	 viewBox="0 0 156 60" style="enable-background:new 0 0 156 60;" xml:space="preserve">
<style type="text/css">
	.st0{fill:#FFFFFF;}
	.st1{fill:#21ac9b;stroke:#21ac9b;}
</style>
<g>
	<g>
		<path class="st0" d="M110.4,20.2c-2.2-0.7-3.6,1.7-4.2,2.6l-2.3,4.3V7.9c0-0.8-0.3-1.6-0.9-2.1s-1.3-0.9-2.1-0.9
			c-1.6,0-3,1.3-3,2.9V4.7c0-1.6-1.4-2.9-3-2.9c-1.7,0-3,1.3-3,2.9V7c0-1.6-1.4-2.9-3-2.9c-1.7,0-3,1.3-3,2.9v8.7
			c-0.1-1.5-1.4-2.7-3-2.7S80,14.3,80,15.9V27v11c0,1.5,0.3,2.8,0.6,4c0.9,3.3,1.4,5.5,1.6,8.5c0.1,1.1,0,2.2-0.1,3.3l0,0
			c-0.1,1,0.4,1.9,1.4,2.4c1.6,0.8,4.4,1.8,9.2,1.8c5,0,7.8-1.3,9.1-2.2c0.7-0.5,1.1-1.2,1.1-2l0,0c0.2-1.8,0.4-5.6,3.2-8.5
			c3-3.1,2.6-11.2,3.2-13.6l3-7.7C112.8,22.8,112.7,20.9,110.4,20.2z"/>
		<path class="st1" d="M104.6,7.9v16.2l0.9-1.7c0,0,0,0,0-0.1c1.1-1.7,2.6-3.6,5-2.9c1.4,0.4,2,1.2,2.3,1.8c0.4,0.9,0.4,2.1-0.1,3.2
			l-3,7.7c-0.2,0.6-0.3,1.8-0.4,3c-0.3,3.5-0.7,8.4-3,10.8c-2.4,2.4-2.7,5.6-2.9,7.5c0,0.2,0,0.4-0.1,0.6c0,1-0.5,1.9-1.4,2.5
			c-1.5,1.1-4.4,2.3-9.5,2.4h-0.1c-4.8,0-7.8-1-9.4-1.9c-1.2-0.6-1.9-1.9-1.7-3.1v-0.1c0.1-1.1,0.2-2.1,0.1-3.2
			c-0.1-2.9-0.6-5.1-1.6-8.3c-0.4-1.4-0.6-2.8-0.6-4.2V15.9c0-2,1.7-3.6,3.7-3.6c0.8,0,1.6,0.3,2.2,0.7V7c0-2,1.7-3.6,3.7-3.6
			c0.9,0,1.7,0.3,2.3,0.8c0.3-1.7,1.8-3.1,3.7-3.1c2.1,0,3.8,1.6,3.8,3.6V5c0.6-0.5,1.4-0.7,2.3-0.7c1,0,2,0.4,2.7,1.1
			C103.5,5.3,104.6,6.2,104.6,7.9z M82.8,13.7c-1.2,0-2.2,1-2.2,2.2v22.2c0,1.2,0.2,2.5,0.6,3.8c1,3.3,1.5,5.6,1.6,8.6
			c0.1,1.1,0,2.3-0.1,3.4V54c-0.1,0.7,0.3,1.3,1,1.7c1.5,0.8,4.2,1.7,8.7,1.7h0.1c5,0,7.6-1.3,8.7-2.1c0.5-0.4,0.8-0.9,0.8-1.4v-0.1
			c0-0.2,0-0.4,0.1-0.6c0.2-2.1,0.6-5.6,3.3-8.3c1.9-2,2.3-6.6,2.6-9.9c0.1-1.4,0.2-2.6,0.4-3.3v-0.1l3-7.7c0.3-0.7,0.4-1.5,0.1-2
			c-0.2-0.5-0.7-0.8-1.4-1.1c-1.2-0.4-2.1,0.5-3.3,2.3L102,32c-0.1,0.2-0.3,0.3-0.5,0.4c-0.3,0.1-7.3,1.4-7.3,12.6
			c0,0.4-0.3,0.7-0.8,0.7c-0.4,0-0.8-0.3-0.8-0.7c0-11,6.4-13.5,8.1-13.9l2.2-4.2v-19c0-0.6-0.2-1.2-0.7-1.6c-0.4-0.4-1-0.6-1.6-0.6
			l0,0c-1.2,0-2.2,1-2.3,2.2v19.3c0,0.4-0.3,0.7-0.8,0.7c-0.4,0-0.8-0.3-0.8-0.7V4.7c0-1.2-1-2.2-2.3-2.2s-2.3,1-2.3,2.2v22.4
			c0,0.4-0.3,0.7-0.8,0.7c-0.4,0-0.8-0.3-0.8-0.7V7c0-1.2-1-2.2-2.3-2.2C87,4.8,86,5.8,86,7v8.6c0,0.1,0,0.2,0,0.3v11.2
			c0,0.4-0.3,0.7-0.7,0.7l0,0c-0.4,0-0.7-0.3-0.8-0.7V15.7C84.9,14.6,84,13.7,82.8,13.7z"/>
	</g>
	<g>
		<g>
			<path class="st0" d="M51.6,28.3V5.9c0-1.6,1.4-2.9,3-2.9c1.7,0,3,1.3,3,2.9v2.3c0-1.6,1.4-2.9,3-2.9c1.7,0,3,1.3,3,2.9v8.9
				c0-1.6,1.3-2.9,3-2.9c1.6,0,2.9,1.3,2.9,2.9v11.1V38c0,1.5-0.3,2.8-0.6,4c-0.9,3.3-1.4,5.5-1.6,8.5c-0.1,1.1,0,2.2,0.1,3.3l0,0
				c0.1,1-0.4,1.9-1.4,2.4C64.4,57,61.6,58,56.8,58c-5,0-7.8-1.3-9.1-2.2c-0.7-0.5-1.1-1.2-1.1-2l0,0c-0.2-1.5-0.3-4.4-2-7
				c-0.7-1.1-1.2-2.4-1.2-3.8v-6.1L51.6,28.3z"/>
			<path class="st1" d="M57.1,58.9c4.8,0,7.8-1,9.4-1.9c1.2-0.6,1.9-1.9,1.7-3.1v-0.1c-0.1-1.1-0.2-2.1-0.1-3.2
				c0.1-2.9,0.6-5.1,1.6-8.3c0.4-1.4,0.6-2.8,0.6-4.2v-9.8l0,0c0-0.2,0-0.3,0-0.5V17.2c0-2-1.6-3.6-3.7-3.6c-0.8,0-1.6,0.3-2.2,0.7
				v-6c0-2-1.7-3.6-3.7-3.6c-0.9,0-1.7,0.3-2.3,0.8c-0.3-1.7-1.8-3.1-3.7-3.1c-2.1,0-3.8,1.6-3.8,3.6v22.4c0,0.4,0.3,0.7,0.8,0.7
				c0.4,0,0.8-0.3,0.8-0.7V5.9c0-1.2,1-2.2,2.3-2.2s2.3,1,2.3,2.2v23.3c0,0.4,0.3,0.7,0.8,0.7c0.4,0,0.8-0.3,0.8-0.7v-21
				C58.7,7,59.7,6,61,6c1.2,0,2.2,1,2.2,2.2v8.9l0,0v11.2c0,0.4,0.3,0.7,0.7,0.7l0,0c0.4,0,0.8-0.3,0.8-0.7V17.1
				c0-1.2,1-2.1,2.2-2.1s2.2,1,2.2,2.2c0,4,0,10.9,0,11.1l0,0v9.8c0,1.2-0.2,2.5-0.6,3.8c-1,3.3-1.5,5.6-1.6,8.6
				c-0.1,1.1,0,2.3,0.1,3.4V54c0.1,0.7-0.3,1.3-1,1.7c-1.5,0.8-4.2,1.7-8.7,1.7h-0.1c-5,0-7.6-1.3-8.7-2.1c-0.5-0.4-0.8-0.9-0.8-1.4
				v-0.1c0-0.2,0-0.4-0.1-0.6c-0.2-1.6-0.5-4.3-2.1-6.7c-0.7-1.1-1.1-2.3-1.1-3.4V37c0-0.4-0.3-0.7-0.8-0.7s-0.8,0.3-0.8,0.7v6.1
				c0,1.4,0.5,2.9,1.3,4.2c1.4,2.1,1.7,4.5,1.8,6.1c0,0.2,0,0.4,0.1,0.6c0,1,0.5,1.9,1.4,2.5c1.5,1.1,4.4,2.3,9.5,2.4
				C57,58.9,57,58.9,57.1,58.9z"/>
		</g>
		<g>
			<path class="st0" d="M46.5,7c0.6-0.5,1.3-0.9,2.1-0.9c1.6,0,3,1.3,3,2.9v19.3l-6,1V9.1C45.6,8.3,45.9,7.5,46.5,7z"/>
			<path class="st1" d="M45.6,30c0.4,0,0.8-0.3,0.8-0.7V9.1c0-0.6,0.2-1.2,0.7-1.6c0.4-0.4,1-0.6,1.6-0.6l0,0c1.2,0,2.2,1,2.3,2.2
				v19.2c0,0.4,0.3,0.7,0.8,0.7c0.4,0,0.8-0.3,0.8-0.7V9c-0.1-2-1.7-3.6-3.8-3.6l0,0c-1,0-1.9,0.4-2.7,1.1C45.4,7.2,45,8.1,45,9.1
				v20.2C44.8,29.6,45.2,30,45.6,30z"/>
		</g>
		<g>
			<path class="st1" d="M58.8,47.7c0.4,0,0.8-0.3,0.8-0.7c0-5-1.2-8.7-3.5-10.9c-2.2-2.1-4.5-2-4.6-2c-0.4,0-0.7,0.3-0.7,0.7
				s0.3,0.7,0.8,0.7l0,0c0.3,0,6.7,0.1,6.7,11.5C58.1,47.4,58.4,47.7,58.8,47.7z"/>
		</g>
		<g>
			<path class="st0" d="M48.2,28.8H56c2.2,0,3.3,1.4,3.3,3.1c0,1.3-1.1,2.9-3.5,2.9h-4.5l-3.2,2.4L43.5,37
				C43.5,32.2,43.1,28.8,48.2,28.8z"/>
			<path class="st1" d="M48.2,37.9c0.2,0,0.3,0,0.5-0.2l3-2.2h4.2c2.7,0,4.2-1.9,4.2-3.6c0-2.3-1.6-3.9-4.1-3.9h-7.8
				c-1.8,0-3.1,0.4-4,1.2c-1.5,1.4-1.4,3.7-1.4,6.7c0,0.3,0,0.7,0,1c0,0.4,0.3,0.7,0.8,0.7l0,0c0.4,0,0.7-0.3,0.7-0.7s0-0.7,0-1
				c0-2.6-0.1-4.7,1-5.7c0.6-0.6,1.5-0.8,2.9-0.8H56c1.6,0,2.6,0.9,2.6,2.4c0,0.9-0.7,2.2-2.7,2.2h-4.5c-0.2,0-0.3,0.1-0.5,0.2
				l-3.2,2.4c-0.3,0.2-0.4,0.7-0.1,1C47.7,37.8,47.9,37.9,48.2,37.9z"/>
		</g>
	</g>
</g>
</svg>
