<?xml version="1.0" encoding="utf-8"?>
<!-- Generator: Adobe Illustrator 24.1.1, SVG Export Plug-In . SVG Version: 6.00 Build 0)  -->
<svg version="1.1" id="Layer_1" xmlns="http://www.w3.org/2000/svg" xmlns:xlink="http://www.w3.org/1999/xlink" x="0px" y="0px"
	 viewBox="0 0 156 60" style="enable-background:new 0 0 156 60;" xml:space="preserve">
<style type="text/css">
	.st0{fill:#9A9A9A;}
	.st1{fill:none;stroke:#9A9A9A;stroke-width:0.9726;stroke-miterlimit:10;}
</style>
<g>
	<g>
		<g>
			<circle class="st0" cx="127.1" cy="12" r="4.9"/>
			<circle class="st0" cx="127.2" cy="29.8" r="4.9"/>
		</g>
		<g>
			<circle class="st0" cx="32.9" cy="12.3" r="4.9"/>
			<circle class="st0" cx="33" cy="30.1" r="4.9"/>
			<circle class="st0" cx="33.2" cy="48" r="4.9"/>
		</g>
		<g>
			<circle class="st0" cx="56.4" cy="12.2" r="4.9"/>
			<circle class="st0" cx="56.5" cy="30" r="4.9"/>
			<circle class="st0" cx="56.7" cy="47.9" r="4.9"/>
		</g>
		<g>
			<circle class="st0" cx="79.9" cy="12.1" r="4.9"/>
			<circle class="st0" cx="80" cy="29.9" r="4.9"/>
			<circle class="st0" cx="80.2" cy="47.8" r="4.9"/>
		</g>
		<g>
			<circle class="st0" cx="103.4" cy="12" r="4.9"/>
			<circle class="st0" cx="103.5" cy="29.8" r="4.9"/>
			<circle class="st0" cx="103.7" cy="47.7" r="4.9"/>
		</g>
	</g>
	<path class="st1" d="M36.4,57.7h-6.9c-3,0-5.5-2.4-5.5-5.5V7.8c0-3,2.4-5.5,5.5-5.5h6.9c3,0,5.5,2.4,5.5,5.5v44.5
		C41.8,55.3,39.4,57.7,36.4,57.7z"/>
	<path class="st1" d="M59.9,57.7H53c-3,0-5.5-2.4-5.5-5.5V7.8c0-3,2.4-5.5,5.5-5.5h6.9c3,0,5.5,2.4,5.5,5.5v44.5
		C65.3,55.3,62.9,57.7,59.9,57.7z"/>
	<path class="st1" d="M83.3,57.7h-6.9c-3,0-5.5-2.4-5.5-5.5V7.8c0-3,2.4-5.5,5.5-5.5h6.9c3,0,5.5,2.4,5.5,5.5v44.5
		C88.8,55.3,86.3,57.7,83.3,57.7z"/>
</g>
</svg>
