<?xml version="1.0" encoding="utf-8"?>
<!-- Generator: Adobe Illustrator 26.4.1, SVG Export Plug-In . SVG Version: 6.00 Build 0)  -->
<svg version="1.1" id="Layer_1" xmlns="http://www.w3.org/2000/svg" xmlns:xlink="http://www.w3.org/1999/xlink" x="0px" y="0px"
	 viewBox="0 0 156 60" style="enable-background:new 0 0 156 60;" xml:space="preserve">
<style type="text/css">
	.st0{fill:#2b95f9;}
	.st1{fill:none;stroke:#2b95f9;stroke-width:0.9726;stroke-miterlimit:10;}
</style>
<g>
	<g>
		<g>
			<g>
				<circle class="st0" cx="60.6" cy="9.6" r="3.2"/>
				<circle class="st0" cx="72.2" cy="9.5" r="3.2"/>
				<circle class="st0" cx="83.8" cy="9.4" r="3.2"/>
				<circle class="st0" cx="95.4" cy="9.5" r="3.2"/>
			</g>
			<path class="st1" d="M101.9,7.2v4.4c0,1.9-1.5,3.5-3.5,3.5H57.7c-1.9,0-3.5-1.5-3.5-3.5V7.2c0-1.9,1.5-3.5,3.5-3.5h40.8
				C100.4,3.7,101.9,5.3,101.9,7.2z"/>
		</g>
		<g>
			<g>
				<circle class="st0" cx="60.6" cy="24.7" r="3.2"/>
				<circle class="st0" cx="72.2" cy="24.6" r="3.2"/>
				<circle class="st0" cx="83.8" cy="24.5" r="3.2"/>
				<circle class="st0" cx="95.4" cy="24.6" r="3.2"/>
			</g>
			<path class="st1" d="M101.9,22.4v4.4c0,1.9-1.5,3.5-3.5,3.5H57.6c-1.9,0-3.5-1.5-3.5-3.5v-4.4c0-1.9,1.5-3.5,3.5-3.5h40.8
				C100.3,18.8,101.9,20.4,101.9,22.4z"/>
		</g>
		<g>
			<g>
				<circle class="st0" cx="60.6" cy="39.7" r="3.2"/>
				<circle class="st0" cx="72.2" cy="39.6" r="3.2"/>
				<circle class="st0" cx="83.8" cy="39.5" r="3.2"/>
				<circle class="st0" cx="95.4" cy="39.6" r="3.2"/>
			</g>
			<path class="st1" d="M101.9,37.4v4.4c0,1.9-1.5,3.5-3.5,3.5H57.6c-1.9,0-3.5-1.5-3.5-3.5v-4.4c0-1.9,1.5-3.5,3.5-3.5h40.8
				C100.3,33.8,101.9,35.5,101.9,37.4z"/>
		</g>
	</g>
	<g>
		<circle class="st0" cx="60.6" cy="53.1" r="3.2"/>
		<circle class="st0" cx="72.2" cy="53.1" r="3.2"/>
	</g>
</g>
</svg>
