<?xml version="1.0" encoding="utf-8"?>
<!-- Generator: Adobe Illustrator 24.1.1, SVG Export Plug-In . SVG Version: 6.00 Build 0)  -->
<svg version="1.1" id="Layer_1" xmlns="http://www.w3.org/2000/svg" xmlns:xlink="http://www.w3.org/1999/xlink" x="0px" y="0px"
	 viewBox="0 0 156 60" style="enable-background:new 0 0 156 60;" xml:space="preserve">
<style type="text/css">
	.st0{fill:none;stroke:#e86f67;stroke-width:1.6369;stroke-miterlimit:10;}
	.st1{fill:#e86f67;}
</style>
<g>
	<path class="st0" d="M123.8,47.6L123.6,12c0-0.8-0.7-1.5-1.5-1.5l-88.4,0.3c-0.8,0-1.5,0.7-1.5,1.5L32.4,48c0,0.8,0.7,1.5,1.5,1.5
		l88.4-0.3C123.1,49.1,123.8,48.5,123.8,47.6z"/>
	<line class="st0" x1="32.3" y1="30.9" x2="123.7" y2="30.6"/>
	<line class="st0" x1="50.4" y1="10.8" x2="50.6" y2="49.4"/>
	<line class="st0" x1="68.8" y1="10.8" x2="68.9" y2="49.3"/>
	<line class="st0" x1="87.1" y1="10.7" x2="87.3" y2="49.2"/>
	<line class="st0" x1="105.5" y1="10.6" x2="105.6" y2="49.2"/>
	<circle class="st1" cx="41.5" cy="40.2" r="4.9"/>
	<circle class="st1" cx="59.7" cy="40.1" r="4.9"/>
	<circle class="st1" cx="41.5" cy="20.9" r="4.9"/>
	<circle class="st1" cx="59.6" cy="20.8" r="4.9"/>
	<circle class="st1" cx="78.2" cy="20.7" r="4.9"/>
	<circle class="st1" cx="96.3" cy="20.6" r="4.9"/>
	<circle class="st1" cx="114.7" cy="20.6" r="4.9"/>
	<circle class="st1" cx="78" cy="39.8" r="4.9"/>
</g>
</svg>
