<?xml version="1.0" encoding="utf-8"?>
<!-- Generator: Adobe Illustrator 24.1.1, SVG Export Plug-In . SVG Version: 6.00 Build 0)  -->
<svg version="1.1" id="Layer_1" xmlns="http://www.w3.org/2000/svg" xmlns:xlink="http://www.w3.org/1999/xlink" x="0px" y="0px"
	 viewBox="0 0 156 60" style="enable-background:new 0 0 156 60;" xml:space="preserve">
<style type="text/css">
	.st0{fill:#21ac9b;}
	.st1{enable-background:new    ;}
	.st2{fill:none;stroke:#21ac9b;stroke-miterlimit:10;}
</style>
<g>
	<g>
		<path class="st0" d="M110.2,3.6v52.9H45.8V3.6H110.2 M111.7,2.3H44.3v55.5h67.3V2.3L111.7,2.3z"/>
	</g>
	<g class="st1">
		<path class="st0" d="M81.6,20.5v1.1h-6.3v-1.1h2.5v-8c0-0.2,0-0.5,0-0.7l-2.1,1.8c-0.1,0.1-0.1,0.1-0.2,0.1c-0.1,0-0.1,0-0.2,0
			c-0.1,0-0.1,0-0.2-0.1c-0.1,0-0.1-0.1-0.1-0.1l-0.5-0.6l3.5-3h1.2v10.7H81.6z"/>
	</g>
	<line class="st2" x1="45.1" y1="30" x2="110.9" y2="30"/>
	<line class="st2" x1="67" y1="57.4" x2="67" y2="3.6"/>
	<line class="st2" x1="89" y1="57.4" x2="89" y2="3.6"/>
	<g class="st1">
		<path class="st0" d="M59.8,48.7v1.1h-6.3v-1.1H56v-8c0-0.2,0-0.5,0-0.7l-2.1,1.8c-0.1,0.1-0.1,0.1-0.2,0.1c-0.1,0-0.1,0-0.2,0
			c-0.1,0-0.1,0-0.2-0.1c-0.1,0-0.1-0.1-0.1-0.1L52.8,41l3.5-3h1.2v10.7H59.8z"/>
	</g>
	<g class="st1">
		<path class="st0" d="M104,15.7c0,1-0.1,1.9-0.3,2.7c-0.2,0.8-0.5,1.4-0.9,1.9s-0.8,0.9-1.4,1.1c-0.5,0.2-1.1,0.4-1.7,0.4
			c-0.6,0-1.2-0.1-1.7-0.4c-0.5-0.2-1-0.6-1.4-1.1c-0.4-0.5-0.7-1.1-0.9-1.9c-0.2-0.8-0.3-1.6-0.3-2.7c0-1,0.1-1.9,0.3-2.7
			c0.2-0.8,0.5-1.4,0.9-1.9c0.4-0.5,0.8-0.9,1.4-1.1c0.5-0.2,1.1-0.4,1.7-0.4c0.6,0,1.2,0.1,1.7,0.4s1,0.6,1.4,1.1
			c0.4,0.5,0.7,1.1,0.9,1.9C103.9,13.8,104,14.7,104,15.7z M102.5,15.7c0-0.9-0.1-1.7-0.2-2.3s-0.4-1.1-0.6-1.5
			c-0.3-0.4-0.5-0.6-0.9-0.8c-0.3-0.2-0.7-0.2-1-0.2s-0.7,0.1-1,0.2c-0.3,0.2-0.6,0.4-0.9,0.8s-0.5,0.9-0.6,1.5S97,14.8,97,15.7
			c0,0.9,0.1,1.7,0.2,2.3s0.4,1.1,0.6,1.5s0.5,0.6,0.9,0.8c0.3,0.2,0.7,0.2,1,0.2s0.7-0.1,1-0.2c0.3-0.2,0.6-0.4,0.9-0.8
			c0.3-0.4,0.5-0.9,0.6-1.5S102.5,16.6,102.5,15.7z"/>
	</g>
	<g class="st1">
		<path class="st0" d="M104,43.9c0,1-0.1,1.9-0.3,2.7c-0.2,0.8-0.5,1.4-0.9,1.9s-0.8,0.9-1.4,1.1c-0.5,0.2-1.1,0.4-1.7,0.4
			c-0.6,0-1.2-0.1-1.7-0.4c-0.5-0.2-1-0.6-1.4-1.1c-0.4-0.5-0.7-1.1-0.9-1.9c-0.2-0.8-0.3-1.6-0.3-2.7c0-1,0.1-1.9,0.3-2.7
			c0.2-0.8,0.5-1.4,0.9-1.9c0.4-0.5,0.8-0.9,1.4-1.1c0.5-0.2,1.1-0.4,1.7-0.4c0.6,0,1.2,0.1,1.7,0.4s1,0.6,1.4,1.1
			c0.4,0.5,0.7,1.1,0.9,1.9C103.9,42,104,42.9,104,43.9z M102.5,43.9c0-0.9-0.1-1.7-0.2-2.3s-0.4-1.1-0.6-1.5
			c-0.3-0.4-0.5-0.6-0.9-0.8c-0.3-0.2-0.7-0.2-1-0.2s-0.7,0.1-1,0.2c-0.3,0.2-0.6,0.4-0.9,0.8s-0.5,0.9-0.6,1.5S97,43,97,43.9
			c0,0.9,0.1,1.7,0.2,2.3s0.4,1.1,0.6,1.5s0.5,0.6,0.9,0.8c0.3,0.2,0.7,0.2,1,0.2s0.7-0.1,1-0.2c0.3-0.2,0.6-0.4,0.9-0.8
			c0.3-0.4,0.5-0.9,0.6-1.5S102.5,44.8,102.5,43.9z"/>
	</g>
	<g class="st1">
		<path class="st0" d="M82.4,43.9c0,1-0.1,1.9-0.3,2.7c-0.2,0.8-0.5,1.4-0.9,1.9s-0.8,0.9-1.4,1.1c-0.5,0.2-1.1,0.4-1.7,0.4
			c-0.6,0-1.2-0.1-1.7-0.4c-0.5-0.2-1-0.6-1.4-1.1c-0.4-0.5-0.7-1.1-0.9-1.9c-0.2-0.8-0.3-1.6-0.3-2.7c0-1,0.1-1.9,0.3-2.7
			c0.2-0.8,0.5-1.4,0.9-1.9c0.4-0.5,0.8-0.9,1.4-1.1s1.1-0.4,1.7-0.4c0.6,0,1.2,0.1,1.7,0.4c0.5,0.2,1,0.6,1.4,1.1
			c0.4,0.5,0.7,1.1,0.9,1.9C82.3,42,82.4,42.9,82.4,43.9z M80.9,43.9c0-0.9-0.1-1.7-0.2-2.3s-0.4-1.1-0.6-1.5
			c-0.3-0.4-0.5-0.6-0.9-0.8c-0.3-0.2-0.7-0.2-1-0.2s-0.7,0.1-1,0.2c-0.3,0.2-0.6,0.4-0.9,0.8c-0.3,0.4-0.5,0.9-0.6,1.5
			s-0.2,1.4-0.2,2.3c0,0.9,0.1,1.7,0.2,2.3s0.4,1.1,0.6,1.5c0.3,0.4,0.5,0.6,0.9,0.8c0.3,0.2,0.7,0.2,1,0.2s0.7-0.1,1-0.2
			c0.3-0.2,0.6-0.4,0.9-0.8c0.3-0.4,0.5-0.9,0.6-1.5S80.9,44.8,80.9,43.9z"/>
	</g>
</g>
<polygon class="st0" points="82.6,37 85.6,36.1 84.7,35.3 95.5,23.6 94.8,23 84.1,34.7 83.2,33.9 "/>
<polygon class="st0" points="60.6,37 63.6,36.1 62.7,35.3 73.5,23.6 72.8,23 62.1,34.7 61.2,33.9 "/>
</svg>
