<?xml version="1.0" encoding="utf-8"?>
<!-- Generator: Adobe Illustrator 24.1.1, SVG Export Plug-In . SVG Version: 6.00 Build 0)  -->
<svg version="1.1" id="Layer_1" xmlns="http://www.w3.org/2000/svg" xmlns:xlink="http://www.w3.org/1999/xlink" x="0px" y="0px"
	 viewBox="0 0 200 200" style="enable-background:new 0 0 200 200;" xml:space="preserve">
<style type="text/css">
	.st0{opacity:0.3;}
	.st1{fill:#FFFFFF;}
	.st2{fill:#FDFDFD;}
	.st3{fill:#FBFAFA;}
	.st4{fill:#F8F8F8;}
	.st5{fill:#F6F5F6;}
	.st6{fill:#F4F3F3;}
	.st7{fill:#F1F0F1;}
	.st8{fill:#EFEEEE;}
	.st9{fill:#EDEBEC;}
	.st10{fill:#EAE9EA;}
	.st11{fill:#E8E7E7;}
	.st12{fill:#E6E4E5;}
	.st13{fill:#E3E2E3;}
	.st14{fill:#E1DFE0;}
	.st15{fill:#DFDDDE;}
	.st16{fill:#DCDBDB;}
	.st17{fill:#DAD8D9;}
	.st18{fill:#D8D6D7;}
	.st19{fill:#D6D4D4;}
	.st20{fill:#D4D1D2;}
	.st21{fill:#D1CFD0;}
	.st22{fill:#CFCDCE;}
	.st23{fill:#CDCBCB;}
	.st24{fill:#CBC9C9;}
	.st25{fill:#C9C6C7;}
	.st26{fill:#C7C4C5;}
	.st27{fill:#C5C2C3;}
	.st28{fill:#C3C0C1;}
	.st29{fill:#C0BEBE;}
	.st30{fill:#BEBCBC;}
	.st31{fill:#BCBABA;}
	.st32{fill:#BAB8B8;}
	.st33{fill:#B8B5B6;}
	.st34{fill:#B6B3B4;}
	.st35{fill:#B4B1B2;}
	.st36{fill:#B2AFB0;}
	.st37{fill:#B1ADAE;}
	.st38{fill:#AFABAC;}
	.st39{fill:#ADA9AA;}
	.st40{fill:#ABA7A8;}
	.st41{fill:#A9A5A6;}
	.st42{fill:#A7A3A4;}
	.st43{fill:#A5A1A2;}
	.st44{fill:#A39FA0;}
	.st45{fill:#A19D9E;}
	.st46{fill:#9F9B9C;}
	.st47{fill:#9D999A;}
	.st48{fill:#9B9798;}
	.st49{fill:#999596;}
	.st50{fill:#979494;}
	.st51{fill:#959292;}
	.st52{fill:#939090;}
	.st53{fill:#918E8E;}
	.st54{fill:#908C8C;}
	.st55{fill:#8E8A8A;}
	.st56{fill:#8C8889;}
	.st57{fill:#8A8787;}
	.st58{fill:#888585;}
	.st59{fill:#868383;}
	.st60{fill:#858181;}
	.st61{fill:#838080;}
	.st62{fill:#817E7E;}
	.st63{fill:#7F7C7C;}
	.st64{fill:#7E7A7B;}
	.st65{fill:#7C7979;}
	.st66{fill:#7A7777;}
	.st67{fill:#797575;}
	.st68{fill:#777474;}
	.st69{fill:#757272;}
	.st70{fill:#747071;}
	.st71{fill:#726F6F;}
	.st72{fill:#706D6D;}
	.st73{fill:#6F6C6C;}
	.st74{fill:#6D6A6A;}
	.st75{fill:#6C6968;}
	.st76{fill:#6A6767;}
	.st77{fill:#686565;}
	.st78{fill:#676464;}
	.st79{fill:#656262;}
	.st80{fill:#646161;}
	.st81{fill:#625F5F;}
	.st82{fill:#605E5E;}
	.st83{fill:#5F5C5C;}
	.st84{fill:#5D5B5B;}
	.st85{fill:#5C5959;}
	.st86{fill:#5A5858;}
	.st87{fill:#585656;}
	.st88{fill:#575555;}
	.st89{fill:#555453;}
	.st90{fill:#545252;}
	.st91{fill:#525151;}
	.st92{fill:#514F4F;}
	.st93{fill:#4F4E4E;}
	.st94{fill:#4E4D4D;}
	.st95{fill:#4C4B4B;}
	.st96{fill:#4B4A4A;}
	.st97{fill:#4A4949;}
	.st98{fill:#484747;}
	.st99{fill:#474646;}
	.st100{fill:#454545;}
	.st101{fill:#444444;}
	.st102{fill:#434342;}
	.st103{fill:#FBFBFB;}
	.st104{opacity:0.5;fill:url(#SVGID_1_);enable-background:new    ;}
	.st105{fill:#1684C7;}
	.st106{opacity:0.2;fill:url(#SVGID_2_);enable-background:new    ;}
	.st107{opacity:5.000000e-02;fill:url(#SVGID_3_);enable-background:new    ;}
	.st108{opacity:0.3;fill:url(#SVGID_4_);enable-background:new    ;}
	.st109{opacity:0.3;fill:url(#SVGID_5_);enable-background:new    ;}
	.st110{opacity:0.3;fill:url(#SVGID_6_);enable-background:new    ;}
	.st111{opacity:0.3;fill:url(#SVGID_7_);enable-background:new    ;}
	.st112{opacity:0.15;fill:url(#SVGID_8_);enable-background:new    ;}
	.st113{fill:#BDBDBC;}
	.st114{fill:#ACE8A1;}
	.st115{fill:none;stroke:#FFFFFF;stroke-width:0.5633;stroke-miterlimit:10;}
	.st116{fill:#202121;}
</style>
<g>
	<g class="st0">
		<path class="st1" d="M100,182c-45.3,0-82-36.7-82-82s36.7-82,82-82s82,36.7,82,82S145.3,182,100,182z M100,1.6
			c-54.4,0-98.4,44-98.4,98.4s44.1,98.4,98.4,98.4c54.4,0,98.4-44.1,98.4-98.4C198.4,45.6,154.4,1.6,100,1.6z"/>
		<path class="st2" d="M100,181.9c-45.3,0-82-36.7-82-82s36.7-82,82-82s82,36.7,82,82C182,145.3,145.3,181.9,100,181.9z M100,1.6
			c-54.3,0-98.4,44-98.4,98.4c0,54.3,44,98.4,98.4,98.4c54.3,0,98.4-44,98.4-98.4C198.4,45.7,154.3,1.6,100,1.6z"/>
		<path class="st3" d="M100,181.9c-45.2,0-81.9-36.7-81.9-81.9S54.8,18.1,100,18.1s81.9,36.7,81.9,81.9S145.2,181.9,100,181.9z
			 M100,1.7c-54.3,0-98.3,44-98.3,98.3s44,98.3,98.3,98.3s98.3-44,98.3-98.3S154.3,1.7,100,1.7z"/>
		<path class="st4" d="M100,181.8c-45.2,0-81.8-36.6-81.8-81.8S54.8,18.2,100,18.2s81.8,36.6,81.8,81.8
			C181.8,145.1,145.2,181.8,100,181.8z M100,1.7c-54.2,0-98.2,44-98.2,98.2s44,98.2,98.2,98.2s98.2-44,98.2-98.2S154.2,1.7,100,1.7z
			"/>
		<path class="st5" d="M100,181.7c-45.2,0-81.8-36.6-81.8-81.8S54.8,18.1,100,18.1s81.8,36.6,81.8,81.8
			C181.7,145.1,145.1,181.7,100,181.7z M100,1.8C45.8,1.8,1.9,45.7,1.9,99.9S45.8,198,100,198s98.1-43.9,98.1-98.1
			S154.2,1.8,100,1.8z"/>
		<path class="st6" d="M100,181.6c-45.1,0-81.7-36.6-81.7-81.7S54.9,18.2,100,18.2s81.7,36.6,81.7,81.7S145.1,181.6,100,181.6z
			 M100,1.9c-54.1,0-98,43.9-98,98s43.9,98,98,98s98-43.9,98-98S154.1,1.9,100,1.9z"/>
		<path class="st7" d="M100,181.5c-45.1,0-81.6-36.5-81.6-81.6S54.9,18.3,100,18.3s81.6,36.5,81.6,81.6S145,181.5,100,181.5z
			 M100,1.9c-54.1,0-98,43.9-98,98s43.9,97.9,97.9,97.9c54.1,0,97.9-43.9,97.9-97.9C197.9,45.8,154,1.9,100,1.9z"/>
		<path class="st8" d="M99.9,181.4c-45,0-81.5-36.5-81.5-81.5s36.5-81.5,81.5-81.5s81.5,36.5,81.5,81.5
			C181.5,144.9,145,181.4,99.9,181.4z M99.9,2C45.9,2,2.1,45.8,2.1,99.9c0,54,43.8,97.9,97.9,97.9c54,0,97.9-43.8,97.9-97.9
			C197.8,45.8,154,2,99.9,2z"/>
		<path class="st9" d="M99.9,181.3c-45,0-81.5-36.5-81.5-81.5s36.5-81.5,81.5-81.5s81.5,36.5,81.5,81.5S144.9,181.3,99.9,181.3z
			 M99.9,2.1c-54,0-97.8,43.8-97.8,97.8s43.8,97.8,97.8,97.8s97.8-43.8,97.8-97.8C197.7,45.9,153.9,2.1,99.9,2.1z"/>
		<path class="st10" d="M99.9,181.2c-45,0-81.4-36.4-81.4-81.4s36.4-81.4,81.4-81.4s81.4,36.4,81.4,81.4S144.9,181.2,99.9,181.2z
			 M99.9,2.1C46,2.1,2.2,45.9,2.2,99.8c0,54,43.7,97.7,97.7,97.7s97.7-43.7,97.7-97.7C197.6,45.9,153.9,2.1,99.9,2.1z"/>
		<path class="st11" d="M99.9,181.1c-44.9,0-81.3-36.4-81.3-81.3S55,18.5,99.9,18.5s81.3,36.4,81.3,81.3
			C181.3,144.7,144.8,181.1,99.9,181.1z M99.9,2.2C46,2.2,2.3,45.9,2.3,99.8s43.7,97.6,97.6,97.6s97.6-43.7,97.6-97.6
			S153.8,2.2,99.9,2.2z"/>
		<path class="st12" d="M99.9,181.1c-44.9,0-81.3-36.4-81.3-81.3S55,18.5,99.9,18.5s81.3,36.4,81.3,81.3
			C181.2,144.7,144.8,181.1,99.9,181.1z M99.9,2.3C46.1,2.3,2.4,45.9,2.4,99.8s43.7,97.5,97.5,97.5c53.9,0,97.5-43.7,97.5-97.5
			C197.4,45.9,153.8,2.3,99.9,2.3z"/>
		<path class="st13" d="M99.9,181c-44.8,0-81.2-36.4-81.2-81.2s36.4-81.2,81.2-81.2s81.2,36.4,81.2,81.2S144.8,181,99.9,181z
			 M99.9,2.3C46.1,2.3,2.5,46,2.5,99.8s43.6,97.4,97.4,97.4s97.4-43.6,97.4-97.4S153.7,2.3,99.9,2.3z"/>
		<path class="st14" d="M99.9,180.9c-44.8,0-81.1-36.3-81.1-81.1s36.3-81.1,81.1-81.1S181,55,181,99.8S144.7,180.9,99.9,180.9z
			 M99.9,2.4C46.1,2.4,2.6,46,2.6,99.8s43.6,97.4,97.4,97.4s97.4-43.6,97.4-97.4C197.3,46,153.7,2.4,99.9,2.4z"/>
		<path class="st15" d="M99.9,180.8c-44.8,0-81.1-36.3-81.1-81.1s36.3-81.1,81.1-81.1S181,54.9,181,99.7S144.7,180.8,99.9,180.8z
			 M99.9,2.5C46.2,2.5,2.6,46,2.6,99.7S46.1,197,99.9,197c53.7,0,97.3-43.5,97.3-97.3C197.2,46,153.6,2.5,99.9,2.5z"/>
		<path class="st16" d="M99.9,180.7c-44.7,0-81-36.3-81-81s36.3-81,81-81s81,36.3,81,81S144.6,180.7,99.9,180.7z M99.9,2.5
			C46.2,2.5,2.7,46,2.7,99.7s43.5,97.2,97.2,97.2s97.2-43.5,97.2-97.2C197.1,46,153.6,2.5,99.9,2.5z"/>
		<path class="st17" d="M99.9,180.6c-44.7,0-80.9-36.2-80.9-80.9s36.2-80.9,80.9-80.9s80.9,36.2,80.9,80.9S144.6,180.6,99.9,180.6z
			 M99.9,2.6C46.3,2.6,2.8,46.1,2.8,99.7s43.5,97.1,97.1,97.1S197,153.3,197,99.7S153.5,2.6,99.9,2.6z"/>
		<path class="st18" d="M99.9,180.5c-44.7,0-80.8-36.2-80.8-80.8C19,55,55.2,18.8,99.9,18.8s80.8,36.2,80.8,80.8
			C180.7,144.3,144.5,180.5,99.9,180.5z M99.9,2.7c-53.6,0-97,43.4-97,97s43.4,97,97,97s97-43.4,97-97S153.5,2.7,99.9,2.7z"/>
		<path class="st19" d="M99.9,180.4c-44.6,0-80.8-36.2-80.8-80.8s36.2-80.8,80.8-80.8s80.8,36.2,80.8,80.8
			C180.6,144.3,144.5,180.4,99.9,180.4z M99.9,2.7c-53.6,0-97,43.4-97,97c0,53.5,43.4,96.9,96.9,96.9s96.9-43.4,96.9-96.9
			C196.8,46.1,153.4,2.7,99.9,2.7z"/>
		<path class="st20" d="M99.9,180.3c-44.6,0-80.7-36.1-80.7-80.7s36.1-80.7,80.7-80.7s80.7,36.1,80.7,80.7S144.4,180.3,99.9,180.3z
			 M99.9,2.8C46.4,2.8,3,46.2,3,99.6c0,53.5,43.4,96.8,96.8,96.8c53.5,0,96.8-43.4,96.8-96.8C196.7,46.2,153.3,2.8,99.9,2.8z"/>
		<path class="st21" d="M99.9,180.3c-44.5,0-80.6-36.1-80.6-80.6C19.2,55.1,55.3,19,99.9,19c44.5,0,80.6,36.1,80.6,80.6
			C180.5,144.2,144.4,180.3,99.9,180.3z M99.9,2.9C46.4,2.9,3.1,46.2,3.1,99.6s43.3,96.8,96.8,96.8c53.4,0,96.8-43.3,96.8-96.8
			C196.6,46.2,153.3,2.9,99.9,2.9z"/>
		<path class="st22" d="M99.8,180.2c-44.5,0-80.6-36.1-80.6-80.6C19.3,55.1,55.3,19,99.8,19s80.6,36.1,80.6,80.6
			S144.3,180.2,99.8,180.2z M99.8,2.9C46.5,2.9,3.2,46.2,3.2,99.6s43.3,96.7,96.7,96.7s96.7-43.3,96.7-96.7
			C196.5,46.2,153.2,2.9,99.8,2.9z"/>
		<path class="st23" d="M99.8,180.1c-44.5,0-80.5-36-80.5-80.5s36-80.5,80.5-80.5s80.5,36,80.5,80.5
			C180.3,144,144.3,180.1,99.8,180.1z M99.8,3C46.5,3,3.2,46.2,3.2,99.6c0,53.3,43.2,96.6,96.6,96.6c53.3,0,96.6-43.2,96.6-96.6
			S153.2,3,99.8,3z"/>
		<path class="st24" d="M99.8,180c-44.4,0-80.4-36-80.4-80.4s36-80.4,80.4-80.4s80.4,36,80.4,80.4C180.3,144,144.2,180,99.8,180z
			 M99.8,3.1C46.5,3.1,3.3,46.3,3.3,99.6s43.2,96.5,96.5,96.5s96.5-43.2,96.5-96.5S153.1,3.1,99.8,3.1z"/>
		<path class="st25" d="M99.8,179.9c-44.4,0-80.4-36-80.4-80.4s36-80.4,80.4-80.4s80.4,36,80.4,80.4
			C180.2,143.9,144.2,179.9,99.8,179.9z M99.8,3.1C46.6,3.1,3.4,46.3,3.4,99.5c0,53.3,43.2,96.4,96.4,96.4
			c53.3,0,96.4-43.2,96.4-96.4C196.3,46.3,153.1,3.1,99.8,3.1z"/>
		<path class="st26" d="M99.8,179.8c-44.3,0-80.3-35.9-80.3-80.3c0-44.3,35.9-80.3,80.3-80.3c44.3,0,80.3,35.9,80.3,80.3
			S144.2,179.8,99.8,179.8z M99.8,3.2C46.6,3.2,3.5,46.3,3.5,99.5s43.1,96.3,96.3,96.3s96.3-43.1,96.3-96.3
			C196.2,46.3,153,3.2,99.8,3.2z"/>
		<path class="st27" d="M99.8,179.7c-44.3,0-80.2-35.9-80.2-80.2s35.9-80.2,80.2-80.2S180,55.2,180,99.5S144.1,179.7,99.8,179.7z
			 M99.8,3.2C46.6,3.2,3.5,46.3,3.5,99.5s43.1,96.3,96.3,96.3s96.3-43.1,96.3-96.3S153,3.2,99.8,3.2z"/>
		<path class="st28" d="M99.8,179.6c-44.3,0-80.1-35.9-80.1-80.1c0-44.3,35.9-80.1,80.1-80.1c44.3,0,80.1,35.9,80.1,80.1
			C179.9,143.8,144.1,179.6,99.8,179.6z M99.8,3.3C46.7,3.3,3.6,46.4,3.6,99.5s43.1,96.2,96.2,96.2S196,152.6,196,99.5
			S152.9,3.3,99.8,3.3z"/>
		<path class="st29" d="M99.8,179.5c-44.2,0-80.1-35.9-80.1-80.1s35.9-80.1,80.1-80.1s80.1,35.9,80.1,80.1
			C179.9,143.7,144,179.5,99.8,179.5z M99.8,3.4c-53.1,0-96.1,43-96.1,96.1s43,96.1,96.1,96.1s96.1-43,96.1-96.1S152.9,3.4,99.8,3.4
			z"/>
		<path class="st30" d="M99.8,179.5c-44.2,0-80-35.8-80-80s35.8-80,80-80s80,35.8,80,80C179.8,143.6,144,179.5,99.8,179.5z
			 M99.8,3.4c-53,0-96,43-96,96s43,96,96,96s96-43,96-96S152.8,3.4,99.8,3.4z"/>
		<path class="st31" d="M99.8,179.4c-44.1,0-79.9-35.8-79.9-79.9s35.8-79.9,79.9-79.9s79.9,35.8,79.9,79.9
			C179.7,143.6,143.9,179.4,99.8,179.4z M99.8,3.5c-53,0-95.9,42.9-95.9,95.9s42.9,95.9,95.9,95.9s95.9-42.9,95.9-95.9
			C195.7,46.5,152.8,3.5,99.8,3.5z"/>
		<path class="st32" d="M99.8,179.3c-44.1,0-79.9-35.8-79.9-79.9s35.8-79.9,79.9-79.9s79.9,35.8,79.9,79.9
			C179.6,143.5,143.9,179.3,99.8,179.3z M99.8,3.6c-53,0-95.9,42.9-95.9,95.8s42.9,95.8,95.8,95.8s95.8-42.9,95.8-95.8
			C195.6,46.5,152.7,3.6,99.8,3.6z"/>
		<path class="st33" d="M99.8,179.2c-44.1,0-79.8-35.7-79.8-79.8s35.7-79.8,79.8-79.8s79.8,35.7,79.8,79.8S143.8,179.2,99.8,179.2z
			 M99.8,3.6C46.9,3.6,4,46.5,4,99.4s42.9,95.8,95.8,95.8s95.8-42.9,95.8-95.8C195.5,46.5,152.6,3.6,99.8,3.6z"/>
		<path class="st34" d="M99.8,179.1c-44,0-79.7-35.7-79.7-79.7s35.7-79.7,79.7-79.7s79.7,35.7,79.7,79.7S143.8,179.1,99.8,179.1z
			 M99.8,3.7C46.9,3.7,4.1,46.5,4.1,99.4c0,52.8,42.8,95.7,95.7,95.7c52.8,0,95.7-42.8,95.7-95.7C195.4,46.5,152.6,3.7,99.8,3.7z"/>
		<path class="st35" d="M99.7,179c-44,0-79.7-35.7-79.7-79.7s35.7-79.7,79.7-79.7s79.7,35.7,79.7,79.7S143.7,179,99.7,179z
			 M99.7,3.8C47,3.8,4.2,46.6,4.2,99.4S47,195,99.8,195s95.6-42.8,95.6-95.6C195.3,46.6,152.5,3.8,99.7,3.8z"/>
		<path class="st36" d="M99.7,178.9c-44,0-79.6-35.6-79.6-79.6s35.6-79.6,79.6-79.6s79.6,35.6,79.6,79.6
			C179.3,143.3,143.7,178.9,99.7,178.9z M99.7,3.8C47,3.8,4.2,46.6,4.2,99.3s42.8,95.5,95.5,95.5s95.5-42.8,95.5-95.5
			S152.5,3.8,99.7,3.8z"/>
		<path class="st37" d="M99.7,178.8c-43.9,0-79.5-35.6-79.5-79.5s35.6-79.5,79.5-79.5s79.5,35.6,79.5,79.5
			C179.3,143.2,143.6,178.8,99.7,178.8z M99.7,3.9C47,3.9,4.3,46.6,4.3,99.3s42.7,95.4,95.4,95.4s95.4-42.7,95.4-95.4
			C195.2,46.6,152.4,3.9,99.7,3.9z"/>
		<path class="st38" d="M99.7,178.7c-43.9,0-79.4-35.6-79.4-79.4c0-43.9,35.6-79.4,79.4-79.4c43.9,0,79.4,35.6,79.4,79.4
			C179.2,143.2,143.6,178.7,99.7,178.7z M99.7,4C47.1,4,4.4,46.6,4.4,99.3s42.7,95.3,95.3,95.3c52.7,0,95.3-42.7,95.3-95.3
			C195.1,46.6,152.4,4,99.7,4z"/>
		<path class="st39" d="M99.7,178.7c-43.8,0-79.4-35.5-79.4-79.4c0-43.8,35.5-79.4,79.4-79.4c43.8,0,79.4,35.5,79.4,79.4
			C179.1,143.1,143.6,178.7,99.7,178.7z M99.7,4C47.1,4,4.5,46.7,4.5,99.3s42.6,95.2,95.2,95.2s95.2-42.6,95.2-95.2
			C195,46.7,152.3,4,99.7,4z"/>
		<path class="st40" d="M99.7,178.6c-43.8,0-79.3-35.5-79.3-79.3C20.4,55.5,55.9,20,99.7,20S179,55.5,179,99.3
			S143.5,178.6,99.7,178.6z M99.7,4.1C47.2,4.1,4.5,46.7,4.5,99.3s42.6,95.2,95.2,95.2s95.2-42.6,95.2-95.2S152.3,4.1,99.7,4.1z"/>
		<path class="st41" d="M99.7,178.5c-43.8,0-79.2-35.5-79.2-79.2C20.5,55.5,55.9,20,99.7,20s79.2,35.5,79.2,79.2
			C178.9,143,143.5,178.5,99.7,178.5z M99.7,4.2c-52.5,0-95.1,42.5-95.1,95s42.6,95.1,95.1,95.1s95.1-42.6,95.1-95.1
			C194.8,46.7,152.2,4.2,99.7,4.2z"/>
		<path class="st42" d="M99.7,178.4c-43.7,0-79.2-35.4-79.2-79.2C20.5,55.5,55.9,20,99.7,20c43.7,0,79.2,35.4,79.2,79.2
			C178.9,142.9,143.4,178.4,99.7,178.4z M99.7,4.2c-52.5,0-95,42.5-95,95s42.5,95,95,95s95-42.5,95-95
			C194.7,46.8,152.2,4.2,99.7,4.2z"/>
		<path class="st43" d="M99.7,178.3c-43.7,0-79.1-35.4-79.1-79.1S56,20.1,99.7,20.1s79.1,35.4,79.1,79.1
			C178.8,142.9,143.4,178.3,99.7,178.3z M99.7,4.3C47.3,4.3,4.8,46.8,4.8,99.2s42.5,94.9,94.9,94.9s94.9-42.5,94.9-94.9
			S152.1,4.3,99.7,4.3z"/>
		<path class="st44" d="M99.7,178.2c-43.6,0-79-35.4-79-79s35.4-79,79-79s79,35.4,79,79S143.3,178.2,99.7,178.2z M99.7,4.4
			C47.3,4.4,4.9,46.8,4.9,99.2S47.4,194,99.7,194c52.4,0,94.8-42.5,94.8-94.8C194.5,46.8,152.1,4.4,99.7,4.4z"/>
		<path class="st45" d="M99.7,178.1c-43.6,0-79-35.3-79-79c0-43.6,35.3-79,79-79c43.6,0,79,35.3,79,79
			C178.6,142.8,143.3,178.1,99.7,178.1z M99.7,4.4C47.4,4.4,4.9,46.8,4.9,99.2c0,52.3,42.4,94.7,94.7,94.7s94.7-42.4,94.7-94.7
			C194.4,46.8,152,4.4,99.7,4.4z"/>
		<path class="st46" d="M99.7,178c-43.6,0-78.9-35.3-78.9-78.9s35.3-78.9,78.9-78.9s78.9,35.3,78.9,78.9S143.2,178,99.7,178z
			 M99.7,4.5C47.4,4.5,5,46.9,5,99.1c0,52.3,42.4,94.7,94.7,94.7s94.7-42.4,94.7-94.7C194.3,46.9,151.9,4.5,99.7,4.5z"/>
		<path class="st47" d="M99.7,177.9c-43.5,0-78.8-35.3-78.8-78.8s35.3-78.8,78.8-78.8s78.8,35.3,78.8,78.8
			C178.5,142.7,143.2,177.9,99.7,177.9z M99.7,4.6C47.4,4.6,5.1,46.9,5.1,99.1s42.3,94.6,94.6,94.6c52.2,0,94.6-42.3,94.6-94.6
			C194.2,46.9,151.9,4.6,99.7,4.6z"/>
		<path class="st48" d="M99.7,177.9c-43.5,0-78.7-35.3-78.7-78.7c0-43.5,35.3-78.7,78.7-78.7c43.5,0,78.7,35.3,78.7,78.7
			S143.1,177.9,99.7,177.9z M99.7,4.6C47.5,4.6,5.2,46.9,5.2,99.1s42.3,94.5,94.5,94.5s94.5-42.3,94.5-94.5
			C194.1,46.9,151.8,4.6,99.7,4.6z"/>
		<path class="st49" d="M99.6,177.8c-43.4,0-78.7-35.2-78.7-78.7c0-43.4,35.2-78.7,78.7-78.7c43.4,0,78.7,35.2,78.7,78.7
			C178.3,142.5,143.1,177.8,99.6,177.8z M99.6,4.7C47.5,4.7,5.2,47,5.2,99.1s42.3,94.4,94.4,94.4S194,151.2,194,99.1
			C194.1,47,151.8,4.7,99.6,4.7z"/>
		<path class="st50" d="M99.6,177.7c-43.4,0-78.6-35.2-78.6-78.6s35.2-78.6,78.6-78.6s78.6,35.2,78.6,78.6S143,177.7,99.6,177.7z
			 M99.6,4.7C47.5,4.7,5.3,47,5.3,99.1s42.2,94.3,94.3,94.3s94.3-42.2,94.3-94.3C194,47,151.7,4.7,99.6,4.7z"/>
		<path class="st51" d="M99.6,177.6c-43.4,0-78.5-35.2-78.5-78.5c0-43.4,35.2-78.5,78.5-78.5c43.4,0,78.5,35.2,78.5,78.5
			C178.2,142.4,143,177.6,99.6,177.6z M99.6,4.8C47.6,4.8,5.4,47,5.4,99.1c0,52,42.2,94.2,94.2,94.2s94.2-42.2,94.2-94.2
			C193.9,47,151.7,4.8,99.6,4.8z"/>
		<path class="st52" d="M99.6,177.5c-43.3,0-78.5-35.1-78.5-78.5s35.1-78.5,78.5-78.5c43.3,0,78.5,35.1,78.5,78.5
			S143,177.5,99.6,177.5z M99.6,4.9C47.6,4.9,5.5,47,5.5,99s42.2,94.2,94.2,94.2S193.9,151,193.9,99C193.8,47,151.6,4.9,99.6,4.9z"
			/>
		<path class="st53" d="M99.6,177.4c-43.3,0-78.4-35.1-78.4-78.4s35.1-78.4,78.4-78.4S178,55.7,178,99S142.9,177.4,99.6,177.4z
			 M99.6,4.9C47.7,4.9,5.5,47.1,5.5,99c0,52,42.1,94.1,94.1,94.1S193.7,151,193.7,99C193.7,47.1,151.6,4.9,99.6,4.9z"/>
		<path class="st54" d="M99.6,177.3c-43.3,0-78.3-35.1-78.3-78.3s35.1-78.3,78.3-78.3c43.3,0,78.3,35.1,78.3,78.3
			S142.9,177.3,99.6,177.3z M99.6,5c-51.9,0-94,42.1-94,94s42.1,94,94,94s94-42.1,94-94S151.5,5,99.6,5z"/>
		<path class="st55" d="M99.6,177.2c-43.2,0-78.3-35-78.3-78.3c0-43.2,35-78.3,78.3-78.3c43.2,0,78.3,35,78.3,78.3
			S142.8,177.2,99.6,177.2z M99.6,5.1C47.7,5.1,5.7,47.1,5.7,99s42,93.9,93.9,93.9s93.9-42,93.9-93.9S151.5,5.1,99.6,5.1z"/>
		<path class="st56" d="M99.6,177.1c-43.2,0-78.2-35-78.2-78.2s35-78.2,78.2-78.2s78.2,35,78.2,78.2
			C177.8,142.1,142.8,177.1,99.6,177.1z M99.6,5.1C47.8,5.1,5.8,47.1,5.8,99c0,51.8,42,93.8,93.8,93.8s93.8-42,93.8-93.8
			C193.4,47.1,151.4,5.1,99.6,5.1z"/>
		<path class="st57" d="M99.6,177.1c-43.1,0-78.1-35-78.1-78.1s35-78.1,78.1-78.1s78.1,35,78.1,78.1S142.7,177.1,99.6,177.1z
			 M99.6,5.2c-51.8,0-93.7,42-93.7,93.7c0,51.8,42,93.7,93.7,93.7c51.8,0,93.7-42,93.7-93.7C193.3,47.2,151.4,5.2,99.6,5.2z"/>
		<path class="st58" d="M99.6,177c-43.1,0-78-34.9-78-78s34.9-78,78-78s78,34.9,78,78C177.6,142,142.7,177,99.6,177z M99.6,5.3
			C47.9,5.3,5.9,47.2,5.9,98.9s41.9,93.7,93.7,93.7c51.7,0,93.7-41.9,93.7-93.7C193.2,47.2,151.3,5.3,99.6,5.3z"/>
		<path class="st59" d="M99.6,176.9c-43.1,0-78-34.9-78-78s34.9-78,78-78s78,34.9,78,78C177.5,142,142.6,176.9,99.6,176.9z
			 M99.6,5.3C47.9,5.3,6,47.2,6,98.9s41.9,93.6,93.6,93.6s93.6-41.9,93.6-93.6C193.1,47.2,151.2,5.3,99.6,5.3z"/>
		<path class="st60" d="M99.6,176.8c-43,0-77.9-34.9-77.9-77.9S56.6,21,99.6,21s77.9,34.9,77.9,77.9S142.6,176.8,99.6,176.8z
			 M99.6,5.4C47.9,5.4,6.1,47.3,6.1,98.9s41.9,93.5,93.5,93.5s93.5-41.9,93.5-93.5C193,47.3,151.2,5.4,99.6,5.4z"/>
		<path class="st61" d="M99.6,176.7c-43,0-77.8-34.8-77.8-77.8s34.8-77.8,77.8-77.8s77.8,34.8,77.8,77.8
			C177.4,141.8,142.5,176.7,99.6,176.7z M99.6,5.5C48,5.5,6.2,47.3,6.2,98.9s41.8,93.4,93.4,93.4S193,150.5,193,98.9
			S151.1,5.5,99.6,5.5z"/>
		<path class="st62" d="M99.5,176.6c-42.9,0-77.8-34.8-77.8-77.8C21.7,55.9,56.5,21,99.5,21c42.9,0,77.8,34.8,77.8,77.8
			S142.5,176.6,99.5,176.6z M99.5,5.5C48,5.5,6.2,47.3,6.2,98.8s41.8,93.3,93.3,93.3s93.3-41.8,93.3-93.3
			C192.9,47.3,151.1,5.5,99.5,5.5z"/>
		<path class="st63" d="M99.5,176.5c-42.9,0-77.7-34.8-77.7-77.7s34.8-77.7,77.7-77.7s77.7,34.8,77.7,77.7S142.5,176.5,99.5,176.5z
			 M99.5,5.6C48.1,5.6,6.3,47.3,6.3,98.8S48,192,99.5,192s93.2-41.7,93.2-93.2C192.8,47.3,151,5.6,99.5,5.6z"/>
		<path class="st64" d="M99.5,176.4c-42.9,0-77.6-34.8-77.6-77.6c0-42.9,34.8-77.6,77.6-77.6c42.9,0,77.6,34.8,77.6,77.6
			C177.2,141.7,142.4,176.4,99.5,176.4z M99.5,5.7C48.1,5.7,6.4,47.4,6.4,98.8s41.7,93.1,93.1,93.1s93.1-41.7,93.1-93.1
			C192.7,47.4,151,5.7,99.5,5.7z"/>
		<path class="st65" d="M99.5,176.3c-42.8,0-77.6-34.7-77.6-77.6C22,56,56.7,21.2,99.5,21.2s77.6,34.7,77.6,77.6
			C177.1,141.6,142.4,176.3,99.5,176.3z M99.5,5.7c-51.4,0-93,41.7-93,93.1s41.7,93.1,93.1,93.1s93.1-41.7,93.1-93.1
			C192.6,47.4,150.9,5.7,99.5,5.7z"/>
		<path class="st66" d="M99.5,176.2c-42.8,0-77.5-34.7-77.5-77.5C22,56,56.7,21.3,99.5,21.3S177,56,177,98.8S142.3,176.2,99.5,176.2
			z M99.5,5.8c-51.3,0-93,41.6-93,93c0,51.3,41.6,93,93,93s93-41.6,93-93S150.9,5.8,99.5,5.8z"/>
		<path class="st67" d="M99.5,176.2c-42.8,0-77.4-34.7-77.4-77.4c0-42.8,34.7-77.4,77.4-77.4c42.8,0,77.4,34.7,77.4,77.4
			S142.3,176.2,99.5,176.2z M99.5,5.9C48.2,5.9,6.6,47.4,6.6,98.7s41.6,92.9,92.9,92.9s92.9-41.6,92.9-92.9S150.8,5.9,99.5,5.9z"/>
		<path class="st68" d="M99.5,176.1c-42.7,0-77.3-34.6-77.3-77.3s34.6-77.3,77.3-77.3s77.3,34.6,77.3,77.3
			C176.8,141.4,142.2,176.1,99.5,176.1z M99.5,5.9C48.2,5.9,6.7,47.5,6.7,98.7c0,51.3,41.6,92.8,92.8,92.8
			c51.3,0,92.8-41.6,92.8-92.8S150.8,5.9,99.5,5.9z"/>
		<path class="st69" d="M99.5,176c-42.7,0-77.3-34.6-77.3-77.3s34.6-77.3,77.3-77.3s77.3,34.6,77.3,77.3S142.2,176,99.5,176z
			 M99.5,6C48.3,6,6.8,47.5,6.8,98.7s41.5,92.7,92.7,92.7s92.7-41.5,92.7-92.7S150.7,6,99.5,6z"/>
		<path class="st70" d="M99.5,175.9c-42.6,0-77.2-34.6-77.2-77.2s34.6-77.2,77.2-77.2s77.2,34.6,77.2,77.2S142.1,175.9,99.5,175.9z
			 M99.5,6.1C48.3,6.1,6.8,47.5,6.8,98.7s41.5,92.6,92.6,92.6c51.2,0,92.6-41.5,92.6-92.6C192.1,47.5,150.7,6.1,99.5,6.1z"/>
		<path class="st71" d="M99.5,175.8c-42.6,0-77.1-34.5-77.1-77.1s34.5-77.1,77.1-77.1s77.1,34.5,77.1,77.1S142.1,175.8,99.5,175.8z
			 M99.5,6.1C48.4,6.1,6.9,47.6,6.9,98.7s41.4,92.6,92.6,92.6c51.1,0,92.6-41.4,92.6-92.6C192,47.6,150.6,6.1,99.5,6.1z"/>
		<path class="st72" d="M99.5,175.7c-42.6,0-77.1-34.5-77.1-77.1s34.5-77.1,77.1-77.1s77.1,34.5,77.1,77.1
			C176.5,141.2,142,175.7,99.5,175.7z M99.5,6.2C48.4,6.2,7,47.6,7,98.7s41.4,92.5,92.5,92.5S192,149.8,192,98.7
			C191.9,47.6,150.5,6.2,99.5,6.2z"/>
		<path class="st73" d="M99.5,175.6c-42.5,0-77-34.5-77-77s34.5-77,77-77s77,34.5,77,77C176.5,141.2,142,175.6,99.5,175.6z
			 M99.5,6.2c-51,0-92.4,41.4-92.4,92.4S48.5,191,99.5,191s92.4-41.4,92.4-92.4S150.5,6.2,99.5,6.2z"/>
		<path class="st74" d="M99.5,175.5c-42.5,0-76.9-34.4-76.9-76.9S57,21.7,99.5,21.7s76.9,34.4,76.9,76.9S141.9,175.5,99.5,175.5z
			 M99.5,6.3c-51,0-92.3,41.3-92.3,92.3s41.3,92.3,92.3,92.3s92.3-41.3,92.3-92.3S150.4,6.3,99.5,6.3z"/>
		<path class="st75" d="M99.5,175.4c-42.4,0-76.9-34.4-76.9-76.9c0-42.4,34.4-76.9,76.9-76.9c42.4,0,76.9,34.4,76.9,76.9
			C176.3,141,141.9,175.4,99.5,175.4z M99.5,6.4c-51,0-92.3,41.3-92.3,92.2s41.3,92.2,92.2,92.2s92.2-41.3,92.2-92.2
			C191.7,47.7,150.4,6.4,99.5,6.4z"/>
		<path class="st76" d="M99.4,175.4c-42.4,0-76.8-34.4-76.8-76.8S57,21.8,99.4,21.8s76.8,34.4,76.8,76.8
			C176.2,141,141.9,175.4,99.4,175.4z M99.4,6.4C48.6,6.4,7.3,47.7,7.3,98.6s41.3,92.1,92.1,92.1c50.9,0,92.1-41.3,92.1-92.1
			S150.3,6.4,99.4,6.4z"/>
		<path class="st77" d="M99.4,175.3c-42.4,0-76.7-34.3-76.7-76.7S57,21.9,99.4,21.9s76.7,34.3,76.7,76.7
			C176.2,140.9,141.8,175.3,99.4,175.3z M99.4,6.5c-50.8,0-92,41.2-92,92.1s41.2,92.1,92.1,92.1c50.8,0,92.1-41.2,92.1-92.1
			S150.3,6.5,99.4,6.5z"/>
		<path class="st78" d="M99.4,175.2c-42.3,0-76.6-34.3-76.6-76.6S57.1,22,99.4,22S176,56.3,176,98.6
			C176.1,140.9,141.8,175.2,99.4,175.2z M99.4,6.6c-50.8,0-92,41.2-92,92s41.2,92,92,92s92-41.2,92-92S150.2,6.6,99.4,6.6z"/>
		<path class="st79" d="M99.4,175.1c-42.3,0-76.6-34.3-76.6-76.6C22.9,56.2,57.1,22,99.4,22S176,56.3,176,98.6
			C176,140.8,141.7,175.1,99.4,175.1z M99.4,6.6C48.7,6.6,7.5,47.8,7.5,98.5s41.1,91.9,91.9,91.9c50.7,0,91.9-41.1,91.9-91.9
			S150.2,6.6,99.4,6.6z"/>
		<path class="st80" d="M99.4,175c-42.2,0-76.5-34.3-76.5-76.5C22.9,56.3,57.2,22,99.4,22s76.5,34.3,76.5,76.5
			C175.9,140.8,141.7,175,99.4,175z M99.4,6.7C48.7,6.7,7.6,47.8,7.6,98.5s41.1,91.8,91.8,91.8s91.8-41.1,91.8-91.8
			S150.1,6.7,99.4,6.7z"/>
		<path class="st81" d="M99.4,174.9c-42.2,0-76.4-34.2-76.4-76.4s34.2-76.4,76.4-76.4s76.4,34.2,76.4,76.4S141.6,174.9,99.4,174.9z
			 M99.4,6.8c-50.6,0-91.7,41-91.7,91.7s41.1,91.7,91.7,91.7c50.7,0,91.7-41.1,91.7-91.7S150.1,6.8,99.4,6.8z"/>
		<path class="st82" d="M99.4,174.8c-42.2,0-76.4-34.2-76.4-76.4S57.2,22,99.4,22s76.4,34.2,76.4,76.4S141.6,174.8,99.4,174.8z
			 M99.4,6.8c-50.6,0-91.6,41-91.6,91.6s41,91.6,91.6,91.6S191,149,191,98.4C191,47.9,150,6.8,99.4,6.8z"/>
		<path class="st83" d="M99.4,174.7c-42.1,0-76.3-34.2-76.3-76.3s34.2-76.3,76.3-76.3s76.3,34.2,76.3,76.3
			C175.7,140.6,141.5,174.7,99.4,174.7z M99.4,6.9c-50.6,0-91.5,41-91.5,91.5c0,50.6,41,91.5,91.5,91.5c50.6,0,91.5-41,91.5-91.5
			S150,6.9,99.4,6.9z"/>
		<path class="st84" d="M99.4,174.6c-42.1,0-76.2-34.1-76.2-76.2s34.1-76.2,76.2-76.2s76.2,34.1,76.2,76.2S141.5,174.6,99.4,174.6z
			 M99.4,7C48.9,7,7.9,47.9,7.9,98.4s41,91.5,91.5,91.5s91.5-41,91.5-91.5S149.9,7,99.4,7z"/>
		<path class="st85" d="M99.4,174.6c-42.1,0-76.1-34.1-76.1-76.1c0-42.1,34.1-76.1,76.1-76.1c42.1,0,76.2,34.1,76.2,76.1
			C175.5,140.5,141.4,174.6,99.4,174.6z M99.4,7C48.9,7,8,47.9,8,98.4s40.9,91.4,91.4,91.4s91.4-40.9,91.4-91.4S149.8,7,99.4,7z"/>
		<path class="st86" d="M99.4,174.5c-42,0-76.1-34.1-76.1-76.1s34.1-76.1,76.1-76.1s76.1,34.1,76.1,76.1S141.4,174.5,99.4,174.5z
			 M99.4,7.1C49,7.1,8.1,48,8.1,98.4s40.9,91.3,91.3,91.3s91.3-40.9,91.3-91.3C190.7,48,149.8,7.1,99.4,7.1z"/>
		<path class="st87" d="M99.4,174.4c-42,0-76-34-76-76s34-76,76-76s76,34,76,76C175.4,140.3,141.3,174.4,99.4,174.4z M99.4,7.2
			C49,7.2,8.2,48,8.2,98.4s40.8,91.2,91.2,91.2s91.2-40.8,91.2-91.2C190.6,48,149.7,7.2,99.4,7.2z"/>
		<path class="st88" d="M99.4,174.3c-41.9,0-75.9-34-75.9-75.9s34-75.9,75.9-75.9s75.9,34,75.9,75.9S141.3,174.3,99.4,174.3z
			 M99.4,7.2C49,7.2,8.2,48,8.2,98.4c0,50.3,40.8,91.1,91.1,91.1s91.1-40.8,91.1-91.1C190.5,48,149.7,7.2,99.4,7.2z"/>
		<path class="st89" d="M99.4,174.2c-41.9,0-75.9-34-75.9-75.9s34-75.9,75.9-75.9s75.9,34,75.9,75.9
			C175.2,140.2,141.3,174.2,99.4,174.2z M99.4,7.3c-50.3,0-91,40.8-91,91c0,50.3,40.8,91,91,91c50.3,0,91-40.8,91-91
			S149.6,7.3,99.4,7.3z"/>
		<path class="st90" d="M99.3,174.1c-41.9,0-75.8-33.9-75.8-75.8s33.9-75.8,75.8-75.8s75.8,33.9,75.8,75.8S141.2,174.1,99.3,174.1z
			 M99.3,7.4c-50.2,0-91,40.7-91,91c0,50.2,40.7,91,91,91c50.2,0,91-40.7,91-91S149.6,7.4,99.3,7.4z"/>
		<path class="st91" d="M99.3,174c-41.8,0-75.7-33.9-75.7-75.7s33.9-75.7,75.7-75.7S175,56.5,175,98.3
			C175.1,140.1,141.2,174,99.3,174z M99.3,7.4C49.1,7.4,8.5,48.1,8.5,98.3s40.7,90.9,90.9,90.9s90.9-40.7,90.9-90.9
			C190.2,48.1,149.5,7.4,99.3,7.4z"/>
		<path class="st92" d="M99.3,173.9c-41.8,0-75.7-33.9-75.7-75.7s33.9-75.7,75.7-75.7S175,56.4,175,98.2
			C175,140.1,141.1,173.9,99.3,173.9z M99.3,7.5C49.2,7.5,8.5,48.1,8.5,98.3c0,50.1,40.6,90.8,90.8,90.8c50.1,0,90.8-40.6,90.8-90.8
			S149.5,7.5,99.3,7.5z"/>
		<path class="st93" d="M99.3,173.8c-41.7,0-75.6-33.8-75.6-75.6c0-41.7,33.8-75.6,75.6-75.6c41.7,0,75.6,33.8,75.6,75.6
			S141.1,173.8,99.3,173.8z M99.3,7.5C49.2,7.5,8.6,48.2,8.6,98.3S49.2,189,99.3,189S190,148.4,190,98.3S149.4,7.5,99.3,7.5z"/>
		<path class="st94" d="M99.3,173.8c-41.7,0-75.5-33.8-75.5-75.5s33.8-75.5,75.5-75.5s75.5,33.8,75.5,75.5
			C174.8,139.9,141,173.8,99.3,173.8z M99.3,7.6c-50,0-90.6,40.6-90.6,90.6s40.6,90.6,90.6,90.6s90.6-40.6,90.6-90.6
			S149.4,7.6,99.3,7.6z"/>
		<path class="st95" d="M99.3,173.7c-41.7,0-75.4-33.8-75.4-75.4c0-41.7,33.8-75.4,75.4-75.4c41.7,0,75.4,33.8,75.4,75.4
			C174.8,139.9,141,173.7,99.3,173.7z M99.3,7.7c-50,0-90.5,40.5-90.5,90.5s40.5,90.5,90.5,90.5s90.5-40.5,90.5-90.5
			S149.3,7.7,99.3,7.7z"/>
		<path class="st96" d="M99.3,173.6c-41.6,0-75.4-33.7-75.4-75.4c0-41.6,33.7-75.4,75.4-75.4c41.6,0,75.4,33.7,75.4,75.4
			C174.7,139.8,140.9,173.6,99.3,173.6z M99.3,7.7c-50,0-90.5,40.5-90.5,90.5s40.5,90.5,90.5,90.5s90.5-40.5,90.5-90.5
			S149.3,7.7,99.3,7.7z"/>
		<path class="st97" d="M99.3,173.5c-41.6,0-75.3-33.7-75.3-75.3s33.7-75.3,75.3-75.3s75.3,33.7,75.3,75.3S140.9,173.5,99.3,173.5z
			 M99.3,7.8C49.4,7.8,8.9,48.3,8.9,98.2s40.5,90.4,90.4,90.4s90.4-40.5,90.4-90.4C189.7,48.3,149.2,7.8,99.3,7.8z"/>
		<path class="st98" d="M99.3,173.4c-41.6,0-75.2-33.7-75.2-75.2C24.1,56.6,57.8,23,99.3,23c41.6,0,75.2,33.7,75.2,75.2
			S140.8,173.4,99.3,173.4z M99.3,7.9C49.4,7.9,9,48.3,9,98.2s40.4,90.3,90.3,90.3s90.3-40.4,90.3-90.3S149.1,7.9,99.3,7.9z"/>
		<path class="st99" d="M99.3,173.3c-41.5,0-75.2-33.7-75.2-75.2C24.1,56.6,57.8,23,99.3,23s75.2,33.7,75.2,75.2
			C174.4,139.7,140.8,173.3,99.3,173.3z M99.3,7.9C49.5,7.9,9.1,48.3,9.1,98.1s40.4,90.2,90.2,90.2s90.2-40.4,90.2-90.2
			S149.1,7.9,99.3,7.9z"/>
		<path class="st100" d="M99.3,173.2c-41.5,0-75.1-33.6-75.1-75.1C24.2,56.6,57.8,23,99.3,23s75.1,33.6,75.1,75.1
			S140.7,173.2,99.3,173.2z M99.3,8C49.5,8,9.2,48.4,9.2,98.1c0,49.8,40.3,90.1,90.1,90.1s90.1-40.3,90.1-90.1
			C189.4,48.4,149,8,99.3,8z"/>
		<path class="st101" d="M99.3,173.1c-41.4,0-75-33.6-75-75s33.6-75,75-75s75,33.6,75,75S140.7,173.1,99.3,173.1z M99.3,8.1
			c-49.7,0-90,40.3-90,90s40.3,90,90,90s90-40.3,90-90S149,8.1,99.3,8.1z"/>
		<path class="st102" d="M99.3,173c-41.4,0-75-33.6-75-75s33.6-75,75-75s75,33.6,75,75C174.2,139.5,140.7,173,99.3,173z M99.3,8.1
			c-49.7,0-90,40.3-90,90S49.6,188,99.2,188c49.7,0,90-40.3,90-89.9C189.2,48.4,148.9,8.1,99.3,8.1z"/>
	</g>
	<g>
		<g>
			<ellipse class="st103" cx="99.3" cy="98" rx="88.6" ry="88.6"/>
			
				<radialGradient id="SVGID_1_" cx="100.0438" cy="96.4878" r="100.7485" gradientTransform="matrix(1 0 0 -1 0 202)" gradientUnits="userSpaceOnUse">
				<stop  offset="0.4974" style="stop-color:#FFFFFF"/>
				<stop  offset="0.7836" style="stop-color:#FFFFFF"/>
				<stop  offset="0.8307" style="stop-color:#FFFFFF"/>
				<stop  offset="0.8458" style="stop-color:#F5F4F5"/>
				<stop  offset="0.8682" style="stop-color:#D7D6D9"/>
				<stop  offset="0.895" style="stop-color:#ACA9AE"/>
				<stop  offset="0.9254" style="stop-color:#777479"/>
				<stop  offset="0.9586" style="stop-color:#3E3D42"/>
				<stop  offset="0.9938" style="stop-color:#08090C"/>
				<stop  offset="1" style="stop-color:#020203"/>
			</radialGradient>
			<circle class="st104" cx="99.2" cy="98" r="88.6"/>
			<path class="st105" d="M99.2,1.8C46.1,1.8,3,44.8,3,98c0,53.1,43.1,96.2,96.2,96.2s96.2-43.1,96.2-96.2
				C195.4,44.8,152.3,1.8,99.2,1.8z M99.2,183.2C52.1,183.2,14,145,14,98c0-47.1,38.2-85.2,85.2-85.2c47.1,0,85.2,38.2,85.2,85.2
				S146.3,183.2,99.2,183.2z"/>
			<g>
				
					<linearGradient id="SVGID_2_" gradientUnits="userSpaceOnUse" x1="99.2" y1="200.2" x2="99.2" y2="7.8" gradientTransform="matrix(1 0 0 -1 0 202)">
					<stop  offset="0" style="stop-color:#FFFFFF"/>
					<stop  offset="0.1479" style="stop-color:#FAFAFA"/>
					<stop  offset="0.278" style="stop-color:#EAE9EB"/>
					<stop  offset="0.4015" style="stop-color:#D0CED1"/>
					<stop  offset="0.5208" style="stop-color:#AFACB0"/>
					<stop  offset="0.6373" style="stop-color:#87848A"/>
					<stop  offset="0.7516" style="stop-color:#5D5A60"/>
					<stop  offset="0.8641" style="stop-color:#323136"/>
					<stop  offset="0.9726" style="stop-color:#090A0D"/>
					<stop  offset="1" style="stop-color:#020203"/>
				</linearGradient>
				<path class="st106" d="M99.2,1.8C46.1,1.8,3,44.8,3,98c0,53.1,43.1,96.2,96.2,96.2s96.2-43.1,96.2-96.2
					C195.4,44.8,152.3,1.8,99.2,1.8z M99.2,183.2C52.1,183.2,14,145,14,98c0-47.1,38.2-85.2,85.2-85.2c47.1,0,85.2,38.2,85.2,85.2
					S146.3,183.2,99.2,183.2z"/>
				
					<linearGradient id="SVGID_3_" gradientUnits="userSpaceOnUse" x1="99.2" y1="200.2" x2="99.2" y2="7.8" gradientTransform="matrix(1 0 0 -1 0 202)">
					<stop  offset="0" style="stop-color:#FFFFFF"/>
					<stop  offset="0.1479" style="stop-color:#FAFAFA"/>
					<stop  offset="0.278" style="stop-color:#EAE9EB"/>
					<stop  offset="0.4015" style="stop-color:#D0CED1"/>
					<stop  offset="0.5208" style="stop-color:#AFACB0"/>
					<stop  offset="0.6373" style="stop-color:#87848A"/>
					<stop  offset="0.7516" style="stop-color:#5D5A60"/>
					<stop  offset="0.8641" style="stop-color:#323136"/>
					<stop  offset="0.9726" style="stop-color:#090A0D"/>
					<stop  offset="1" style="stop-color:#020203"/>
				</linearGradient>
				<path class="st107" d="M99.2,1.8C46.1,1.8,3,44.8,3,98c0,53.1,43.1,96.2,96.2,96.2s96.2-43.1,96.2-96.2
					C195.4,44.8,152.3,1.8,99.2,1.8z M99.2,183.2C52.1,183.2,14,145,14,98c0-47.1,38.2-85.2,85.2-85.2c47.1,0,85.2,38.2,85.2,85.2
					S146.3,183.2,99.2,183.2z"/>
			</g>
			<g>
				
					<linearGradient id="SVGID_4_" gradientUnits="userSpaceOnUse" x1="99.2" y1="200.2" x2="99.2" y2="7.8" gradientTransform="matrix(1 0 0 -1 0 202)">
					<stop  offset="0" style="stop-color:#FFFFFF"/>
					<stop  offset="1" style="stop-color:#020203"/>
				</linearGradient>
				<path class="st108" d="M99.2,1.8C46.1,1.8,3,44.8,3,98c0,53.1,43.1,96.2,96.2,96.2s96.2-43.1,96.2-96.2
					C195.4,44.8,152.3,1.8,99.2,1.8z M99.2,192.5c-52.1,0-94.6-42.4-94.6-94.6C4.6,45.8,47,3.3,99.2,3.3c52.1,0,94.6,42.4,94.6,94.6
					C193.8,150.1,151.3,192.5,99.2,192.5z"/>
				
					<linearGradient id="SVGID_5_" gradientUnits="userSpaceOnUse" x1="99.2" y1="200.2" x2="99.2" y2="7.8" gradientTransform="matrix(1 0 0 -1 0 202)">
					<stop  offset="0" style="stop-color:#FFFFFF"/>
					<stop  offset="1" style="stop-color:#020203"/>
				</linearGradient>
				<path class="st109" d="M99.2,1.8C46.1,1.8,3,44.8,3,98c0,53.1,43.1,96.2,96.2,96.2s96.2-43.1,96.2-96.2
					C195.4,44.8,152.3,1.8,99.2,1.8z M99.2,192.5c-52.1,0-94.6-42.4-94.6-94.6C4.6,45.8,47,3.3,99.2,3.3c52.1,0,94.6,42.4,94.6,94.6
					C193.8,150.1,151.3,192.5,99.2,192.5z"/>
			</g>
			<g>
				
					<linearGradient id="SVGID_6_" gradientUnits="userSpaceOnUse" x1="99.2" y1="17.1" x2="99.2" y2="191" gradientTransform="matrix(1 0 0 -1 0 202)">
					<stop  offset="0" style="stop-color:#FFFFFF"/>
					<stop  offset="1" style="stop-color:#020203"/>
				</linearGradient>
				<path class="st110" d="M99.2,11c-47.9,0-86.9,39-86.9,87c0,47.9,39,86.9,86.9,86.9s86.9-39,86.9-86.9C186.1,50,147.1,11,99.2,11
					z M99.2,183.2C52.1,183.2,14,145,14,98c0-47.1,38.2-85.2,85.2-85.2c47.1,0,85.2,38.2,85.2,85.2S146.3,183.2,99.2,183.2z"/>
				
					<linearGradient id="SVGID_7_" gradientUnits="userSpaceOnUse" x1="99.2" y1="17.1" x2="99.2" y2="191" gradientTransform="matrix(1 0 0 -1 0 202)">
					<stop  offset="0" style="stop-color:#FFFFFF"/>
					<stop  offset="1" style="stop-color:#020203"/>
				</linearGradient>
				<path class="st111" d="M99.2,11c-47.9,0-86.9,39-86.9,87c0,47.9,39,86.9,86.9,86.9s86.9-39,86.9-86.9C186.1,50,147.1,11,99.2,11
					z M99.2,183.2C52.1,183.2,14,145,14,98c0-47.1,38.2-85.2,85.2-85.2c47.1,0,85.2,38.2,85.2,85.2S146.3,183.2,99.2,183.2z"/>
			</g>
			
				<linearGradient id="SVGID_8_" gradientUnits="userSpaceOnUse" x1="99.2" y1="105.4" x2="99.2" y2="198.3" gradientTransform="matrix(1 0 0 -1 0 202)">
				<stop  offset="0" style="stop-color:#FFFFFF"/>
				<stop  offset="1" style="stop-color:#020203"/>
			</linearGradient>
			<path class="st112" d="M20.8,94c2-41.5,36.4-74.6,78.4-74.6s76.4,33.1,78.4,74.6c5.4,0.8,10.6,1.6,15.8,2.6
				c-0.7-51.4-42.6-92.9-94.2-92.9C47.6,3.8,5.8,45.2,5,96.6C10.2,95.7,15.4,94.8,20.8,94z"/>
		</g>
		<path class="st113" d="M99.2,105.6c-4.2,0-7.6-3.4-7.6-7.6s3.4-7.6,7.6-7.6s7.6,3.4,7.6,7.6C106.8,102.2,103.4,105.6,99.2,105.6z"
			/>
		<g>
			<path class="st114" d="M173.2,55.4c-14.5-25.1-42-42.7-74-42.7h-0.1v85.2l0.3,85.2c28.9-0.1,57.7-14.9,73.6-42.7
				c0,0,0-0.1,0.1-0.1l0,0C187.3,115.3,189.1,83,173.2,55.4z"/>
			<line class="st115" x1="99.1" y1="97.9" x2="141.7" y2="24.1"/>
			<line class="st115" x1="99.1" y1="97.9" x2="173.2" y2="55.4"/>
			<line class="st115" x1="99.1" y1="97.9" x2="184.4" y2="98"/>
			<line class="st115" x1="99.1" y1="97.9" x2="172.9" y2="140.4"/>
			<line class="st115" x1="99.1" y1="97.9" x2="141.7" y2="171.8"/>
			<g>
				<path class="st116" d="M99.2,21.3c-1.2,0-2.1-1-2.1-2.1c0-1.2,1-2.1,2.1-2.1c1.2,0,2.1,1,2.1,2.1
					C101.3,20.3,100.4,21.3,99.2,21.3z"/>
				<path class="st116" d="M60.9,31.5c-1,0.6-2.3,0.2-2.9-0.8c-0.6-1-0.2-2.3,0.8-2.9s2.3-0.2,2.9,0.8
					C62.2,29.6,61.9,30.9,60.9,31.5z"/>
				<path class="st116" d="M32.8,59.6c-0.6,1-1.9,1.4-2.9,0.8c-1-0.6-1.4-1.9-0.8-2.9s1.9-1.4,2.9-0.8S33.4,58.6,32.8,59.6z"/>
				<path class="st116" d="M22.5,98c0,1.2-1,2.1-2.1,2.1c-1.2,0-2.1-1-2.1-2.1c0-1.2,1-2.1,2.1-2.1C21.6,95.8,22.5,96.8,22.5,98z"/>
				<path class="st116" d="M32.8,136.3c0.6,1,0.2,2.3-0.8,2.9c-1,0.6-2.3,0.2-2.9-0.8s-0.2-2.3,0.8-2.9
					C30.9,134.9,32.2,135.3,32.8,136.3z"/>
				<path class="st116" d="M60.9,164.4c1,0.6,1.4,1.9,0.8,2.9c-0.6,1-1.9,1.4-2.9,0.8c-1-0.6-1.4-1.9-0.8-2.9
					C58.5,164.1,59.8,163.8,60.9,164.4z"/>
				<path class="st116" d="M99.2,174.6c1.2,0,2.1,1,2.1,2.1c0,1.2-1,2.1-2.1,2.1c-1.2,0-2.1-1-2.1-2.1S98,174.6,99.2,174.6z"/>
				<path class="st116" d="M137.6,164.4c1-0.6,2.3-0.2,2.9,0.8c0.6,1,0.2,2.3-0.8,2.9c-1,0.6-2.3,0.2-2.9-0.8
					C136.2,166.3,136.5,165,137.6,164.4z"/>
				<path class="st116" d="M165.6,136.3c0.6-1,1.9-1.4,2.9-0.8c1,0.6,1.4,1.9,0.8,2.9c-0.6,1-1.9,1.4-2.9,0.8
					C165.4,138.6,165,137.3,165.6,136.3z"/>
				<path class="st116" d="M175.9,98c0-1.2,1-2.1,2.1-2.1c1.2,0,2.1,1,2.1,2.1c0,1.2-1,2.1-2.1,2.1S175.9,99.1,175.9,98z"/>
				<path class="st116" d="M165.6,59.6c-0.6-1-0.2-2.3,0.8-2.9c1-0.6,2.3-0.2,2.9,0.8c0.6,1,0.2,2.3-0.8,2.9S166.2,60.6,165.6,59.6z
					"/>
				<path class="st116" d="M137.6,31.5c-1-0.6-1.4-1.9-0.8-2.9c0.6-1,1.9-1.4,2.9-0.8s1.4,1.9,0.8,2.9
					C139.9,31.8,138.6,32.1,137.6,31.5z"/>
			</g>
			<g>
				<path class="st116" d="M92.4,19.9c-0.7,0.1-1.3-0.5-1.4-1.2s0.5-1.3,1.2-1.4s1.3,0.5,1.4,1.2C93.6,19.2,93.1,19.8,92.4,19.9z"/>
				<path class="st116" d="M85.6,20.7c-0.7,0.1-1.4-0.3-1.5-1s0.3-1.4,1-1.5s1.4,0.3,1.5,1C86.7,20,86.3,20.6,85.6,20.7z"/>
				<path class="st116" d="M78.9,22.2c-0.7,0.2-1.4-0.2-1.6-0.9c-0.2-0.7,0.2-1.4,0.9-1.6c0.7-0.2,1.4,0.2,1.6,0.9
					S79.6,22,78.9,22.2z"/>
				<path class="st116" d="M72.4,24.3c-0.7,0.2-1.4-0.1-1.6-0.8c-0.2-0.7,0.1-1.4,0.8-1.6c0.7-0.2,1.4,0.1,1.6,0.8
					C73.4,23.3,73,24,72.4,24.3z"/>
				<path class="st116" d="M66.1,26.9c-0.6,0.3-1.4,0-1.7-0.6c-0.3-0.6,0-1.4,0.6-1.7c0.6-0.3,1.4,0,1.7,0.6
					C67,25.8,66.7,26.6,66.1,26.9z"/>
				<path class="st116" d="M54.2,33.7c-0.6,0.4-1.4,0.3-1.8-0.3c-0.4-0.6-0.3-1.4,0.3-1.8c0.6-0.4,1.4-0.3,1.8,0.3
					C54.9,32.5,54.8,33.3,54.2,33.7z"/>
				<path class="st116" d="M48.8,37.9c-0.5,0.5-1.3,0.4-1.8-0.2c-0.5-0.5-0.4-1.3,0.2-1.8c0.5-0.4,1.4-0.4,1.8,0.2
					C49.4,36.6,49.3,37.4,48.8,37.9z"/>
				<path class="st116" d="M43.8,42.5c-0.5,0.5-1.3,0.5-1.8,0s-0.5-1.3,0-1.8s1.3-0.5,1.8,0C44.2,41.2,44.2,42,43.8,42.5z"/>
				<path class="st116" d="M39.1,47.6c-0.5,0.5-1.3,0.6-1.8,0.2c-0.5-0.5-0.6-1.3-0.2-1.8c0.5-0.5,1.3-0.6,1.8-0.2
					C39.5,46.2,39.6,47,39.1,47.6z"/>
				<path class="st116" d="M35,53c-0.4,0.6-1.2,0.7-1.8,0.3s-0.7-1.2-0.3-1.8s1.2-0.7,1.8-0.3C35.2,51.6,35.4,52.4,35,53z"/>
				<path class="st116" d="M28.1,64.8c-0.3,0.6-1.1,0.9-1.7,0.6s-0.9-1.1-0.6-1.7c0.3-0.6,1.1-0.9,1.7-0.6
					C28.1,63.4,28.4,64.2,28.1,64.8z"/>
				<path class="st116" d="M25.5,71.1c-0.2,0.7-1,1-1.6,0.8c-0.7-0.2-1-1-0.8-1.6c0.2-0.7,1-1,1.6-0.8
					C25.4,69.8,25.7,70.5,25.5,71.1z"/>
				<path class="st116" d="M23.5,77.7c-0.2,0.7-0.9,1.1-1.6,0.9S20.8,77.7,21,77s0.9-1.1,1.6-0.9C23.2,76.3,23.6,77,23.5,77.7z"/>
				<path class="st116" d="M22,84.3c-0.1,0.7-0.8,1.2-1.5,1c-0.7-0.1-1.2-0.8-1-1.5c0.1-0.7,0.8-1.2,1.5-1
					C21.6,83,22.1,83.7,22,84.3z"/>
				<path class="st116" d="M21.1,91.1c-0.1,0.7-0.7,1.2-1.4,1.2c-0.7-0.1-1.2-0.7-1.2-1.4c0.1-0.7,0.7-1.2,1.4-1.2
					C20.6,89.8,21.1,90.4,21.1,91.1z"/>
				<path class="st116" d="M21.1,104.8c0.1,0.7-0.5,1.3-1.2,1.4s-1.3-0.5-1.4-1.2s0.5-1.3,1.2-1.4C20.4,103.6,21,104.1,21.1,104.8z"
					/>
				<path class="st116" d="M22,111.6c0.1,0.7-0.3,1.4-1,1.5s-1.4-0.3-1.5-1s0.3-1.4,1-1.5C21.2,110.4,21.8,110.9,22,111.6z"/>
				<path class="st116" d="M23.4,118.3c0.2,0.7-0.2,1.4-0.9,1.6c-0.7,0.2-1.4-0.2-1.6-0.9c-0.2-0.7,0.2-1.4,0.9-1.6
					C22.6,117.2,23.3,117.6,23.4,118.3z"/>
				<path class="st116" d="M25.5,124.8c0.2,0.7-0.1,1.4-0.8,1.6c-0.7,0.2-1.4-0.1-1.6-0.8c-0.2-0.7,0.1-1.4,0.8-1.6
					C24.5,123.8,25.3,124.1,25.5,124.8z"/>
				<path class="st116" d="M28.1,131.1c0.3,0.6,0,1.4-0.6,1.7s-1.4,0-1.7-0.6c-0.3-0.6,0-1.4,0.6-1.7
					C27.1,130.2,27.8,130.5,28.1,131.1z"/>
				<path class="st116" d="M35,142.9c0.4,0.6,0.3,1.4-0.3,1.8c-0.6,0.4-1.4,0.3-1.8-0.3c-0.4-0.6-0.3-1.4,0.3-1.8
					C33.7,142.2,34.6,142.4,35,142.9z"/>
				<path class="st116" d="M39.1,148.4c0.5,0.5,0.4,1.4-0.1,1.8c-0.5,0.5-1.4,0.4-1.8-0.1c-0.5-0.5-0.4-1.4,0.2-1.8
					C37.9,147.8,38.7,147.8,39.1,148.4z"/>
				<path class="st116" d="M43.7,153.4c0.5,0.5,0.5,1.3,0,1.8s-1.3,0.5-1.8,0s-0.5-1.3,0-1.8S43.3,152.9,43.7,153.4z"/>
				<path class="st116" d="M48.8,158c0.5,0.5,0.6,1.3,0.2,1.8c-0.5,0.5-1.3,0.6-1.8,0.2c-0.5-0.5-0.6-1.3-0.2-1.8
					C47.4,157.7,48.3,157.6,48.8,158z"/>
				<path class="st116" d="M54.2,162.2c0.6,0.4,0.7,1.2,0.3,1.8s-1.2,0.7-1.8,0.3s-0.7-1.2-0.3-1.8C52.8,162,53.6,161.8,54.2,162.2z
					"/>
				<path class="st116" d="M66,169c0.6,0.3,0.9,1.1,0.6,1.7c-0.3,0.6-1.1,0.9-1.7,0.6c-0.6-0.3-0.9-1.1-0.6-1.7
					C64.6,169,65.4,168.7,66,169z"/>
				<path class="st116" d="M72.4,171.7c0.7,0.2,1,1,0.8,1.6c-0.2,0.7-1,1-1.6,0.8c-0.7-0.2-1-1-0.8-1.6
					C71,171.8,71.7,171.4,72.4,171.7z"/>
				<path class="st116" d="M78.9,173.7c0.7,0.2,1.1,0.9,0.9,1.6c-0.2,0.7-0.9,1.1-1.6,0.9c-0.7-0.2-1.1-0.9-0.9-1.6
					C77.5,174,78.2,173.5,78.9,173.7z"/>
				<path class="st116" d="M85.6,175.2c0.7,0.1,1.2,0.8,1,1.5c-0.1,0.7-0.8,1.2-1.5,1.1c-0.7-0.1-1.2-0.8-1-1.5
					C84.2,175.6,84.9,175.1,85.6,175.2z"/>
				<path class="st116" d="M92.3,176.1c0.7,0.1,1.2,0.7,1.2,1.4c-0.1,0.7-0.7,1.2-1.4,1.2c-0.7-0.1-1.2-0.7-1.2-1.4
					C91,176.6,91.7,176,92.3,176.1z"/>
				<path class="st116" d="M106,176.1c0.7-0.1,1.3,0.5,1.4,1.2s-0.5,1.3-1.2,1.4c-0.7,0.1-1.3-0.5-1.4-1.2
					C104.8,176.8,105.3,176.2,106,176.1z"/>
				<path class="st116" d="M112.8,175.2c0.7-0.1,1.4,0.4,1.5,1c0.1,0.7-0.3,1.4-1,1.5s-1.4-0.3-1.5-1
					C111.6,176,112.1,175.3,112.8,175.2z"/>
				<path class="st116" d="M119.5,173.7c0.7-0.2,1.4,0.2,1.6,0.9s-0.2,1.4-0.9,1.6c-0.7,0.2-1.4-0.2-1.6-0.9
					S118.8,173.9,119.5,173.7z"/>
				<path class="st116" d="M126,171.7c0.7-0.2,1.4,0.1,1.6,0.8s-0.1,1.4-0.8,1.7c-0.7,0.2-1.4-0.1-1.6-0.8
					C125,172.6,125.4,171.9,126,171.7z"/>
				<path class="st116" d="M132.3,169c0.7-0.3,1.4,0,1.7,0.6s0,1.4-0.6,1.7s-1.4,0-1.7-0.6C131.4,170.1,131.7,169.3,132.3,169z"/>
				<path class="st116" d="M144.2,162.2c0.6-0.4,1.4-0.3,1.8,0.3c0.4,0.6,0.3,1.4-0.3,1.8c-0.6,0.4-1.4,0.3-1.8-0.3
					C143.5,163.4,143.6,162.6,144.2,162.2z"/>
				<path class="st116" d="M149.6,158c0.5-0.5,1.4-0.4,1.8,0.2c0.5,0.5,0.4,1.4-0.1,1.8c-0.5,0.5-1.3,0.4-1.8-0.2
					C149,159.3,149.1,158.5,149.6,158z"/>
				<path class="st116" d="M154.6,153.4c0.5-0.5,1.3-0.5,1.8,0s0.5,1.3,0,1.8s-1.3,0.5-1.8,0S154.1,153.9,154.6,153.4z"/>
				<path class="st116" d="M159.3,148.4c0.5-0.5,1.3-0.6,1.8-0.2c0.6,0.5,0.6,1.3,0.2,1.8c-0.5,0.5-1.3,0.6-1.8,0.2
					C158.9,149.7,158.8,148.9,159.3,148.4z"/>
				<path class="st116" d="M163.4,143c0.4-0.6,1.2-0.7,1.8-0.3s0.7,1.2,0.3,1.8s-1.2,0.7-1.8,0.3C163.2,144.3,163,143.5,163.4,143z"
					/>
				<path class="st116" d="M170.3,131.1c0.3-0.6,1.1-0.9,1.7-0.6c0.7,0.3,0.9,1.1,0.6,1.7c-0.3,0.6-1,0.9-1.7,0.6
					C170.3,132.5,170,131.7,170.3,131.1z"/>
				<path class="st116" d="M172.9,124.8c0.3-0.7,1-1,1.6-0.8c0.7,0.2,1,1,0.8,1.6c-0.2,0.7-1,1-1.6,0.8
					C173,126.2,172.6,125.5,172.9,124.8z"/>
				<path class="st116" d="M174.9,118.3c0.2-0.7,0.9-1.1,1.6-0.9c0.7,0.2,1.1,0.9,0.9,1.6c-0.2,0.7-0.9,1.1-1.6,0.9
					C175.2,119.7,174.8,118.9,174.9,118.3z"/>
				<path class="st116" d="M176.4,111.6c0.1-0.7,0.8-1.2,1.5-1c0.7,0.1,1.2,0.8,1,1.5c-0.1,0.7-0.8,1.2-1.5,1
					C176.8,113,176.3,112.3,176.4,111.6z"/>
				<path class="st116" d="M177.3,104.8c0.1-0.7,0.7-1.2,1.4-1.2c0.7,0.1,1.2,0.7,1.2,1.4c-0.1,0.7-0.7,1.2-1.4,1.2
					C177.8,106.1,177.3,105.5,177.3,104.8z"/>
				<path class="st116" d="M177.3,91.2c0-0.7,0.5-1.3,1.2-1.4s1.3,0.5,1.4,1.2c0.1,0.7-0.5,1.3-1.2,1.4
					C178,92.4,177.4,91.8,177.3,91.2z"/>
				<path class="st116" d="M176.4,84.4c-0.1-0.7,0.4-1.4,1-1.5c0.7-0.1,1.4,0.3,1.5,1s-0.3,1.3-1,1.5
					C177.2,85.5,176.5,85,176.4,84.4z"/>
				<path class="st116" d="M174.9,77.7c-0.2-0.7,0.2-1.4,0.9-1.6s1.4,0.2,1.6,0.9c0.2,0.7-0.2,1.4-0.9,1.6
					C175.8,78.8,175.1,78.4,174.9,77.7z"/>
				<path class="st116" d="M172.9,71.2c-0.2-0.7,0.1-1.4,0.8-1.6s1.4,0.1,1.6,0.8c0.2,0.7-0.1,1.4-0.8,1.6
					C173.9,72.2,173.1,71.8,172.9,71.2z"/>
				<path class="st116" d="M170.3,64.8c-0.3-0.7,0-1.4,0.6-1.7s1.4,0,1.7,0.6c0.3,0.6,0,1.4-0.6,1.7
					C171.3,65.8,170.6,65.5,170.3,64.8z"/>
				<path class="st116" d="M163.4,53c-0.4-0.6-0.2-1.4,0.3-1.8c0.6-0.4,1.4-0.3,1.8,0.3c0.4,0.6,0.3,1.4-0.3,1.8
					C164.6,53.7,163.8,53.6,163.4,53z"/>
				<path class="st116" d="M159.3,47.6c-0.4-0.6-0.4-1.3,0.2-1.8c0.5-0.5,1.4-0.4,1.8,0.2c0.5,0.5,0.4,1.3-0.2,1.8
					C160.5,48.2,159.7,48.1,159.3,47.6z"/>
				<path class="st116" d="M154.6,42.5c-0.5-0.5-0.5-1.3,0-1.8s1.3-0.5,1.8,0s0.5,1.3,0,1.8C156,43,155.1,43,154.6,42.5z"/>
				<path class="st116" d="M149.6,37.9c-0.5-0.5-0.6-1.3-0.2-1.8c0.5-0.5,1.3-0.6,1.8-0.2c0.5,0.4,0.6,1.2,0.1,1.8
					C151,38.3,150.1,38.4,149.6,37.9z"/>
				<path class="st116" d="M144.2,33.8c-0.6-0.4-0.7-1.2-0.3-1.8c0.4-0.6,1.2-0.7,1.8-0.3s0.7,1.2,0.3,1.8
					C145.6,34,144.7,34.1,144.2,33.8z"/>
				<path class="st116" d="M132.3,26.9c-0.6-0.3-0.9-1.1-0.6-1.7c0.3-0.6,1.1-0.9,1.7-0.6c0.6,0.3,0.9,1.1,0.6,1.7
					C133.8,26.9,133,27.2,132.3,26.9z"/>
				<path class="st116" d="M126,24.3c-0.7-0.3-1-1-0.8-1.6c0.2-0.7,1-1,1.6-0.8c0.7,0.2,1,1,0.8,1.6C127.4,24.2,126.7,24.5,126,24.3
					z"/>
				<path class="st116" d="M119.5,22.2c-0.7-0.2-1.1-0.9-0.9-1.6s0.9-1.1,1.6-0.9s1.1,0.9,0.9,1.6C120.9,22,120.2,22.4,119.5,22.2z"
					/>
				<path class="st116" d="M112.8,20.8c-0.7-0.1-1.1-0.8-1-1.5s0.8-1.2,1.5-1c0.7,0.1,1.1,0.8,1,1.5
					C114.2,20.4,113.5,20.9,112.8,20.8z"/>
				<path class="st116" d="M106,19.9c-0.7-0.1-1.2-0.7-1.2-1.4c0.1-0.7,0.7-1.2,1.4-1.2c0.7,0.1,1.2,0.7,1.1,1.4
					C107.4,19.4,106.7,19.9,106,19.9z"/>
			</g>
		</g>
		<g>
			<g>
				<path class="st116" d="M38.1,96.9c0,5.4-2.2,8.2-6.5,8.2c-0.8,0-1.4-0.1-1.8-0.2v-1.4c0.5,0.2,1.1,0.2,1.8,0.2
					c1.6,0,2.8-0.5,3.6-1.4s1.2-2.4,1.3-4.3h-0.1c-0.4,0.5-0.8,0.9-1.4,1.2c-0.6,0.3-1.3,0.4-2,0.4c-1.3,0-2.3-0.4-3-1.1
					s-1.1-1.8-1.1-3.1c0-1.4,0.4-2.6,1.3-3.4c0.8-0.8,1.9-1.3,3.3-1.3c1,0,1.8,0.2,2.6,0.7c0.7,0.5,1.3,1.2,1.7,2.1
					C37.9,94.6,38.1,95.7,38.1,96.9z M33.2,92.2c-0.9,0-1.7,0.3-2.2,0.9s-0.8,1.4-0.8,2.4c0,0.9,0.2,1.6,0.7,2.2
					c0.5,0.5,1.2,0.8,2.2,0.8c0.6,0,1.2-0.1,1.7-0.3c0.5-0.2,0.9-0.6,1.2-1s0.4-0.8,0.4-1.3c0-0.7-0.1-1.3-0.4-1.8
					c-0.3-0.6-0.6-1-1.1-1.3C34.4,92.3,33.9,92.2,33.2,92.2z"/>
			</g>
			<g>
				<path class="st116" d="M42.2,72.7h-1.5v-9.4c0-0.8,0-1.5,0.1-2.2c-0.1,0.1-0.3,0.3-0.4,0.4c-0.2,0.1-0.9,0.7-2.2,1.8l-0.8-1
					l3.6-2.7h1.3L42.2,72.7L42.2,72.7z"/>
				<path class="st116" d="M56.5,66.1c0,2.3-0.4,4-1.1,5.1c-0.8,1.1-1.9,1.7-3.4,1.7s-2.6-0.6-3.4-1.7c-0.8-1.2-1.2-2.9-1.2-5.1
					c0-2.3,0.4-4,1.1-5.1c0.7-1.1,1.9-1.7,3.4-1.7s2.6,0.6,3.4,1.7C56.1,62.2,56.5,63.9,56.5,66.1z M49,66.1c0,1.9,0.2,3.3,0.7,4.2
					c0.5,0.9,1.2,1.3,2.2,1.3s1.8-0.4,2.3-1.3s0.7-2.3,0.7-4.2c0-1.9-0.2-3.3-0.7-4.2s-1.2-1.3-2.3-1.3c-1,0-1.8,0.4-2.2,1.3
					C49.2,62.8,49,64.2,49,66.1z"/>
			</g>
			<g>
				<path class="st116" d="M42.2,123c1.2,0,2.2,0.3,3,0.8c0.7,0.6,1.1,1.3,1.1,2.3c0,0.7-0.2,1.2-0.6,1.8c-0.4,0.5-1.1,1-2,1.5
					c1.1,0.5,1.9,1.1,2.4,1.6c0.5,0.6,0.7,1.2,0.7,2c0,1.1-0.4,2-1.2,2.6c-0.8,0.7-1.9,1-3.3,1c-1.5,0-2.6-0.3-3.4-0.9
					c-0.8-0.6-1.2-1.5-1.2-2.6c0-1.5,1-2.7,2.9-3.5c-0.9-0.5-1.5-1-1.9-1.5s-0.6-1.2-0.6-1.8c0-1,0.4-1.7,1.1-2.3
					C40,123.3,41,123,42.2,123z M39.3,133.1c0,0.7,0.3,1.3,0.8,1.7s1.3,0.6,2.2,0.6s1.7-0.2,2.2-0.6c0.5-0.4,0.8-1,0.8-1.7
					c0-0.6-0.2-1.1-0.7-1.6s-1.3-0.9-2.5-1.3c-0.9,0.4-1.6,0.8-2,1.3C39.5,131.9,39.3,132.4,39.3,133.1z M42.2,124.2
					c-0.8,0-1.4,0.2-1.8,0.5c-0.4,0.4-0.7,0.8-0.7,1.5c0,0.6,0.2,1,0.6,1.4c0.4,0.4,1,0.8,2,1.2c0.9-0.4,1.5-0.8,1.9-1.2
					c0.4-0.4,0.6-0.9,0.6-1.5s-0.2-1.1-0.7-1.5C43.6,124.4,43,124.2,42.2,124.2z"/>
			</g>
			<g>
				<path class="st116" d="M66.4,49.4h-1.5V40c0-0.8,0-1.5,0.1-2.2c-0.1,0.1-0.3,0.3-0.4,0.4c-0.2,0.1-0.9,0.7-2.2,1.8l-0.8-1
					l3.6-2.7h1.3L66.4,49.4L66.4,49.4z"/>
				<path class="st116" d="M77.4,49.4h-1.5V40c0-0.8,0-1.5,0.1-2.2c-0.1,0.1-0.3,0.3-0.4,0.4c-0.2,0.1-0.9,0.7-2.2,1.8l-0.8-1
					l3.6-2.7h1.3L77.4,49.4L77.4,49.4z"/>
			</g>
			<g>
				<path class="st116" d="M63.5,159.7l5.7-11.9h-7.5v-1.4h9.1v1.2l-5.6,12L63.5,159.7L63.5,159.7z"/>
			</g>
			<g>
				<path class="st116" d="M94.6,162.7c0-2.7,0.6-4.8,1.7-6.1c1.1-1.4,2.7-2,4.9-2c0.7,0,1.3,0.1,1.8,0.2v1.4
					c-0.5-0.2-1.1-0.2-1.7-0.2c-1.5,0-2.7,0.5-3.5,1.4s-1.3,2.4-1.3,4.4h0.1c0.7-1.1,1.9-1.6,3.4-1.6c1.3,0,2.3,0.4,3.1,1.1
					c0.7,0.8,1.1,1.8,1.1,3.1c0,1.4-0.4,2.6-1.2,3.4c-0.8,0.8-1.9,1.2-3.3,1.2c-1.5,0-2.7-0.5-3.5-1.6
					C95.1,166.1,94.6,164.6,94.6,162.7z M99.5,167.4c0.9,0,1.7-0.3,2.2-0.9c0.5-0.6,0.8-1.4,0.8-2.5c0-0.9-0.2-1.6-0.7-2.2
					c-0.5-0.5-1.2-0.8-2.1-0.8c-0.6,0-1.1,0.1-1.6,0.4c-0.5,0.2-0.9,0.6-1.2,1c-0.3,0.4-0.4,0.8-0.4,1.3c0,0.7,0.1,1.3,0.4,1.8
					c0.3,0.6,0.6,1,1.1,1.3C98.3,167.3,98.9,167.4,99.5,167.4z"/>
			</g>
			<g>
				<path class="st116" d="M131.9,151.6c1.4,0,2.6,0.3,3.4,1c0.8,0.7,1.2,1.6,1.2,2.8c0,1.4-0.4,2.4-1.4,3.2
					c-0.9,0.8-2.1,1.2-3.7,1.2c-1.5,0-2.7-0.2-3.5-0.7v-1.4c0.4,0.3,1,0.5,1.6,0.6c0.7,0.2,1.3,0.2,1.9,0.2c1.1,0,2-0.2,2.6-0.8
					c0.6-0.5,0.9-1.2,0.9-2.2c0-1.8-1.2-2.8-3.5-2.8c-0.6,0-1.4,0.1-2.4,0.3l-0.8-0.5l0.5-6.2h6.8v1.4H130l-0.3,4
					C130.5,151.7,131.2,151.6,131.9,151.6z"/>
			</g>
			<g>
				<path class="st116" d="M161.4,133.4h-2v3h-1.5v-3h-6.7v-1.3l6.5-9h1.6v8.9h2L161.4,133.4L161.4,133.4z M157.9,132v-4.4
					c0-0.9,0-1.8,0.1-2.9h-0.1c-0.3,0.6-0.6,1.1-0.8,1.4l-4.3,5.9H157.9z"/>
			</g>
			<g>
				<path class="st116" d="M169.3,94.3c0,0.9-0.3,1.6-0.8,2.2s-1.3,0.9-2.2,1.1v0.1c1.2,0.1,2,0.5,2.6,1.1s0.8,1.3,0.8,2.2
					c0,1.3-0.5,2.3-1.4,3.1c-1,0.7-2.3,1.1-4.1,1.1c-0.8,0-1.5-0.1-2.1-0.2s-1.3-0.3-1.9-0.6v-1.5c0.6,0.3,1.3,0.5,2,0.7
					s1.4,0.2,2,0.2c2.5,0,3.7-0.9,3.7-2.8c0-1.7-1.4-2.5-4.1-2.5h-1.4V97h1.4c1.1,0,2-0.2,2.7-0.7s1-1.1,1-2c0-0.7-0.2-1.2-0.7-1.6
					s-1.1-0.6-2-0.6c-0.6,0-1.2,0.1-1.8,0.2c-0.6,0.2-1.2,0.5-1.9,0.9l-0.8-1.1c0.6-0.5,1.3-0.8,2-1.1c0.8-0.3,1.6-0.4,2.4-0.4
					c1.4,0,2.5,0.3,3.3,0.9C168.9,92.3,169.3,93.2,169.3,94.3z"/>
			</g>
			<g>
				<path class="st116" d="M160.7,72.7h-9v-1.3l3.6-3.5c1.1-1.1,1.8-1.8,2.2-2.3c0.3-0.5,0.6-0.9,0.8-1.3s0.3-0.9,0.3-1.4
					c0-0.7-0.2-1.3-0.7-1.7s-1.1-0.6-1.9-0.6c-0.6,0-1.1,0.1-1.6,0.3s-1.1,0.5-1.7,1l-0.8-1c1.3-1,2.6-1.5,4.1-1.5
					c1.3,0,2.3,0.3,3,1c0.7,0.6,1.1,1.5,1.1,2.6c0,0.8-0.2,1.7-0.7,2.5s-1.4,1.9-2.7,3.1l-3,2.8v0.1h7.1v1.2H160.7z"/>
			</g>
			<g>
				<path class="st116" d="M133.5,49.4H132V40c0-0.8,0-1.5,0.1-2.2c-0.1,0.1-0.3,0.3-0.4,0.4c-0.2,0.1-0.9,0.7-2.2,1.8l-0.8-1
					l3.6-2.7h1.3v13.1H133.5z"/>
			</g>
			<g>
				<path class="st116" d="M94.7,41.2h-1.6v-9.9c0-0.8,0-1.6,0.1-2.3c-0.1,0.1-0.3,0.3-0.5,0.4s-1,0.8-2.3,1.9l-0.9-1.1l3.8-2.8h1.4
					V41.2z"/>
				<path class="st116" d="M109.7,41.2h-9.5v-1.4l3.8-3.7c1.2-1.1,1.9-1.9,2.3-2.4s0.6-0.9,0.8-1.4c0.2-0.5,0.3-0.9,0.3-1.5
					c0-0.7-0.2-1.3-0.7-1.8c-0.5-0.4-1.1-0.7-1.9-0.7c-0.6,0-1.2,0.1-1.7,0.3c-0.5,0.2-1.1,0.5-1.8,1l-0.9-1.1
					c1.3-1.1,2.8-1.6,4.3-1.6c1.4,0,2.4,0.3,3.2,1c0.8,0.7,1.2,1.6,1.2,2.7c0,0.9-0.3,1.8-0.8,2.6c-0.5,0.9-1.5,2-2.9,3.3l-3.1,3
					v0.1h7.4C109.7,39.6,109.7,41.2,109.7,41.2z"/>
			</g>
		</g>
		<g>
			<path class="st116" d="M106,98c0,3.8-3.1,6.8-6.8,6.8c-3.8,0-6.8-3.1-6.8-6.8c0-3.8,3.1-6.8,6.8-6.8C103,91.1,106,94.2,106,98z"
				/>
		</g>
	</g>
</g>
<path class="st116" d="M101.8,97.4c0,0.1,0,52.1,0,52.1c0,0.6-0.3,1.4-0.7,2c-0.1,0.1-0.2,0.2-0.2,0.3l-1,1c-0.3,0.3-0.9,0.3-1.2,0
	l-1-1c-0.5-0.5-0.9-1.6-0.9-2.3l0-52.1C96.8,97.4,101.5,97.5,101.8,97.4z"/>
</svg>
