<?xml version="1.0" encoding="utf-8"?>
<!-- Generator: Adobe Illustrator 24.1.1, SVG Export Plug-In . SVG Version: 6.00 Build 0)  -->
<svg version="1.1" id="Layer_1" xmlns="http://www.w3.org/2000/svg" xmlns:xlink="http://www.w3.org/1999/xlink" x="0px" y="0px"
	 viewBox="0 0 600 350" style="enable-background:new 0 0 600 350;" xml:space="preserve">
<style type="text/css">
	.st0{fill:#E3FCFF;}
	.st1{fill:none;stroke:#3DA9B7;stroke-width:2;stroke-miterlimit:10;stroke-dasharray:7,7;}
	.st2{fill:#B9F8FF;}
	.st3{fill:#5E8AB4;}
	.st4{fill:#0A9C81;}
	.st5{fill:#77C26C;}
	.st6{fill:#FFC73C;}
	.st7{fill:#0094CA;}
	.st8{fill:#EA394A;}
	.st9{fill:#EF6162;}
</style>
<g>
	<path class="st0" d="M487.02,181.75c-6.39-13.07,7.38-34.69,6.43-48.89c-2-30.01-22.87-43.05-34.68-53.63
		c-15.18-13.6-31.68-19.34-50.61-20.78c-26.46-2.02-38.35,12.6-60.15-0.74c-13.36-8.17-29.83-11.95-45.31-7.56
		c-16.12,4.57-34.2-15.12-48.82-7.6c-30.49,15.68-71.48-8.84-99.7,8.04c-27.28,16.32-25.92,34.26-42.92,51.73
		c-14.33,14.72-37.57,16.27-42.5,51.31c-4.52,32.09,19.69,45.07,19.9,57.39c0.54,31.83-15.89,35.52-12.75,64.13
		c1.61,14.66,15.07,22.22,29.85,28.88c10.82,4.87,29.23,2.53,41.22,3.61c21.83,1.97,322.36,5.32,343.2-10.62
		c21.71-16.61,31.38-44.43,23.93-68.87C511.13,218.4,489.37,186.56,487.02,181.75z"/>
	<path class="st1" d="M434.61,217.76c15.85-4.43,31.42-9.73,46.58-15.86c13.91-5.63,28.56-12.97,34.38-25.83
		c6-13.26,0.38-29.23-10.64-39.43c-7.59-7.02-18.45-13.74-17.6-23.59c0.45-5.27,4.34-9.65,7.15-14.27
		c11.25-18.44-6.18-33.8-25.64-36.3c-17.84-2.29-46.94,13.79-62.3,2.62c-5.05-3.67-6.71-10.07-6.71-15.98
		c-0.01-17.19,1.8-42.04-26.26-36.26c-19.9,4.1-36.04,15.7-54.35,23.18c-23.07,9.44-91.92,29.34-110.21,2.76
		c-4.82-7.01-0.23-18.89,8.81-18.54c8.16,0.32,12.36,10.26,9.19,17.16c-5.71,12.41-22.92,16.86-35.07,18.62
		c-28.02,4.07-57.68,5.65-84.51,16.4c-15.21,6.09-29.96,15.47-39.78,28.81c-4.11,5.59-9.91,14.72-10.16,21.89
		c-0.31,8.91,7.57,17.36,10.14,25.59c3.86,12.39-0.18,25.86-5.82,37.54c-5.64,11.69-12.94,22.75-16.14,35.32
		c-3.94,15.48-1.22,32.18,5.58,46.64c6.8,14.45,17.45,26.82,29.37,37.44"/>
	<path class="st2" d="M131.41,267.07c19.55,0,29.02,7.62,57.07,6.02c9.57-0.55,34.72-13.46,43.74-13.99
		c24.16-1.41,23.49,3.74,49.51,1.88c24.82-1.77,62.09-12.66,89.78-10.13c42.25,3.85,66.33,22.41,75.17,24.03
		c38.91,7.12,47.91-0.25,66.37,2.56c9.86,1.5,30.83,13.37,30.83,24.09c0,25.81-37.17,29.63-93.48,29.11
		c-19.51-0.18-307.45,0-327.26,0c-16.13,0-67.58,5.01-75.89-16.22c-4.76-12.16,11.71-23.29,16.52-25.79
		C84.79,277.73,100.79,267.07,131.41,267.07z"/>
	<path class="st3" d="M122.81,334.28h344.15c0.94,0,1.7-0.76,1.7-1.7v-0.12c0-0.94-0.76-1.7-1.7-1.7H122.81
		c-0.94,0-1.7,0.76-1.7,1.7v0.12C121.11,333.52,121.87,334.28,122.81,334.28z"/>
	<g>
		<path class="st4" d="M163.44,127.26h-20.28v58.8h-16.72v-58.8h-20.28V114h57.27V127.26z"/>
		<path class="st4" d="M234.8,114v72.06h-16.82V155.6h-29.28v30.47h-16.81V114h16.81v30.12h29.28V114H234.8z"/>
		<path class="st4" d="M313.39,186.06h-12.96c-1.45,0-2.62-0.34-3.51-1.01c-0.89-0.68-1.57-1.54-2.03-2.6l-4.25-12.56h-27.4
			l-4.25,12.56c-0.36,0.92-1.01,1.76-1.95,2.5c-0.94,0.74-2.1,1.11-3.49,1.11h-13.06L268.38,114h17.11L313.39,186.06z
			 M286.83,158.51l-6.68-19.73c-0.49-1.25-1.02-2.73-1.58-4.43c-0.56-1.7-1.12-3.54-1.68-5.51c-0.49,2.01-1.02,3.88-1.58,5.59
			c-0.56,1.71-1.09,3.2-1.58,4.45l-6.63,19.63H286.83z"/>
		<path class="st4" d="M381.99,114v72.06h-8.7c-1.29,0-2.37-0.21-3.24-0.62c-0.87-0.41-1.74-1.13-2.6-2.15l-33.98-42.98
			c0.13,1.29,0.22,2.53,0.27,3.73c0.05,1.2,0.07,2.33,0.07,3.39v38.63h-14.74V114h8.8c0.72,0,1.33,0.03,1.83,0.1
			c0.49,0.07,0.94,0.19,1.34,0.37c0.4,0.18,0.77,0.44,1.14,0.77c0.36,0.33,0.77,0.78,1.24,1.34l34.27,43.27
			c-0.17-1.38-0.28-2.73-0.35-4.03c-0.07-1.3-0.1-2.53-0.1-3.68V114H381.99z"/>
		<path class="st4" d="M412.65,143.18h2.67c2.47,0,4.25-0.77,5.34-2.32l16.22-23.54c0.96-1.25,1.99-2.12,3.09-2.6
			c1.1-0.48,2.48-0.72,4.13-0.72h14.54l-21.37,29.13c-1.52,2.01-3.15,3.46-4.9,4.35c1.25,0.46,2.39,1.1,3.41,1.93
			c1.02,0.82,1.98,1.9,2.87,3.21l21.76,33.43h-14.94c-0.96,0-1.77-0.07-2.45-0.2c-0.68-0.13-1.26-0.33-1.76-0.59
			s-0.92-0.58-1.29-0.96c-0.36-0.38-0.71-0.82-1.04-1.31l-16.32-25.08c-0.59-0.92-1.34-1.57-2.25-1.95
			c-0.91-0.38-2.14-0.57-3.68-0.57h-4.06v30.66h-16.72V114h16.72V143.18z"/>
	</g>
	<g>
		<path class="st5" d="M167.03,266.7v40.99h-25.01V266.7l-39.06-66.81h22.05c2.17,0,3.88,0.51,5.14,1.52s2.3,2.31,3.14,3.88
			l15.24,31.37c1.28,2.47,2.44,4.77,3.48,6.92s1.95,4.25,2.74,6.33c0.74-2.12,1.59-4.25,2.55-6.4c0.96-2.15,2.08-4.43,3.37-6.84
			l15.09-31.37c0.34-0.64,0.76-1.28,1.26-1.92c0.49-0.64,1.07-1.22,1.74-1.74c0.67-0.52,1.43-0.94,2.29-1.26
			c0.86-0.32,1.81-0.48,2.85-0.48h22.19L167.03,266.7z"/>
		<path class="st5" d="M313.52,253.75c0,7.79-1.34,15.04-4.03,21.75c-2.69,6.71-6.47,12.54-11.36,17.5
			c-4.88,4.96-10.76,8.84-17.65,11.65c-6.88,2.81-14.51,4.22-22.9,4.22c-8.39,0-16.03-1.41-22.94-4.22
			c-6.91-2.81-12.81-6.7-17.72-11.65c-4.91-4.96-8.71-10.79-11.39-17.5c-2.69-6.71-4.03-13.96-4.03-21.75
			c0-7.79,1.34-15.04,4.03-21.75c2.69-6.71,6.49-12.53,11.39-17.46c4.91-4.93,10.81-8.8,17.72-11.62c6.9-2.81,14.55-4.22,22.94-4.22
			c8.38,0,16.02,1.42,22.9,4.25c6.88,2.84,12.76,6.72,17.65,11.65c4.88,4.93,8.67,10.75,11.36,17.46
			C312.17,238.78,313.52,246.01,313.52,253.75z M287.92,253.75c0-5.33-0.69-10.12-2.07-14.39c-1.38-4.27-3.37-7.88-5.96-10.84
			s-5.76-5.23-9.51-6.81c-3.75-1.58-8.02-2.37-12.8-2.37c-4.83,0-9.14,0.79-12.91,2.37c-3.77,1.58-6.95,3.85-9.54,6.81
			s-4.58,6.57-5.96,10.84c-1.38,4.27-2.07,9.06-2.07,14.39c0,5.38,0.69,10.2,2.07,14.46c1.38,4.27,3.37,7.88,5.96,10.84
			c2.59,2.96,5.77,5.22,9.54,6.77s8.08,2.33,12.91,2.33c4.78,0,9.05-0.78,12.8-2.33c3.75-1.55,6.92-3.81,9.51-6.77
			c2.59-2.96,4.57-6.57,5.96-10.84C287.23,263.95,287.92,259.13,287.92,253.75z"/>
		<path class="st5" d="M373.22,287.93c3.35,0,6.35-0.55,8.99-1.66c2.64-1.11,4.87-2.7,6.7-4.77c1.82-2.07,3.22-4.6,4.18-7.58
			c0.96-2.98,1.44-6.37,1.44-10.17v-63.85h25.01v63.85c0,6.61-1.07,12.68-3.22,18.2c-2.15,5.52-5.22,10.28-9.21,14.28
			s-8.85,7.1-14.57,9.32c-5.72,2.22-12.16,3.33-19.31,3.33c-7.2,0-13.66-1.11-19.38-3.33c-5.72-2.22-10.58-5.33-14.57-9.32
			s-7.05-8.75-9.17-14.28c-2.12-5.52-3.18-11.59-3.18-18.2v-63.85h25.01v63.77c0,3.8,0.48,7.19,1.44,10.17
			c0.96,2.99,2.35,5.52,4.18,7.62c1.82,2.1,4.06,3.7,6.7,4.81C366.87,287.38,369.87,287.93,373.22,287.93z"/>
		<path class="st5" d="M437.07,296.07c0-1.78,0.33-3.43,1-4.96c0.67-1.53,1.58-2.86,2.74-4c1.16-1.13,2.53-2.03,4.11-2.7
			c1.58-0.67,3.3-1,5.18-1c1.82,0,3.53,0.33,5.1,1c1.58,0.67,2.96,1.57,4.14,2.7c1.18,1.13,2.11,2.47,2.77,4
			c0.67,1.53,1,3.18,1,4.96s-0.33,3.44-1,4.99c-0.67,1.55-1.59,2.9-2.77,4.03c-1.18,1.14-2.57,2.02-4.14,2.66
			c-1.58,0.64-3.28,0.96-5.1,0.96c-1.88,0-3.6-0.32-5.18-0.96c-1.58-0.64-2.95-1.53-4.11-2.66c-1.16-1.13-2.07-2.48-2.74-4.03
			C437.4,299.51,437.07,297.84,437.07,296.07z M461.04,199.89v42.32c0,4.54-0.27,9.04-0.81,13.5c-0.54,4.46-1.26,9.01-2.15,13.65
			h-15.54c-0.89-4.64-1.6-9.19-2.15-13.65c-0.54-4.46-0.81-8.96-0.81-13.5v-42.32H461.04z"/>
	</g>
	<g>
		<g>
			<g>
				<path class="st6" d="M394.04,95.73c-5.43-31.48,4.93-48.46,22.46-50.86c15.16-2.07,6.23,13.93-0.77,21.76
					c4.03-5.14,14.78-8.7,20.24-5.28c8.46,5.3,0.15,17.63-4.48,21.98c-7.17,6.74-19.81,7.79-27.15,14.36
					c-3.68,3.29-6.97,7.79-7.54,12.06C395.28,103.38,394.24,96.79,394.04,95.73z"/>
				<path class="st7" d="M476.02,174.12c1.11-12.02,0.76-24.48,6.34-35.35c5.5-10.72,15.61-20.59,30.53-20.59
					c10.22,0,15.42,11.95,8.06,20.33c-5.49,6.24-17.68,5.58-24.88,9.01c-5.33,2.54-8.66,6.09-12.19,10.16
					C479.88,162.3,477.02,169.4,476.02,174.12z"/>
				<path class="st7" d="M354.5,77.76c-13.58,0.81-27.38,3.49-40.48-1.36c-12.91-4.78-25.7-15.34-28.35-33.55
					c-1.82-12.48,10.56-20.98,21.2-13.51c7.93,5.57,9.36,20.57,14.46,28.74c3.78,6.05,8.32,9.47,13.47,13.04
					C340.66,75.18,349.08,77.4,354.5,77.76z"/>
				<path class="st7" d="M495.75,244.96c8.5-1.13,17.06-3.35,25.47-1.21c8.29,2.11,16.73,7.54,19.09,17.87
					c1.62,7.08-5.83,12.57-12.8,8.8c-5.19-2.81-6.67-11.35-10.18-15.79c-2.6-3.29-5.59-5.03-8.96-6.83
					C504.55,245.76,499.18,244.9,495.75,244.96z"/>
				<path class="st8" d="M496.51,200.31c2.79-6.29,4.87-13.09,9.86-17.94c4.92-4.79,12.18-8.28,20.24-5.57
					c5.52,1.86,6.16,9.26,0.65,12.45c-4.1,2.38-10.57-0.2-15.08,0.34c-3.34,0.4-5.78,1.71-8.43,3.27
					C500.75,194.63,497.91,197.95,496.51,200.31z"/>
				<path class="st9" d="M455.99,144.57c0,2.38-1.93,4.3-4.3,4.3c-2.38,0-4.3-1.93-4.3-4.3c0-2.38,1.93-4.3,4.3-4.3
					C454.06,140.27,455.99,142.2,455.99,144.57z"/>
				<path class="st6" d="M507.61,76.62c0,3.27-2.65,5.93-5.93,5.93c-3.27,0-5.93-2.65-5.93-5.93c0-3.27,2.65-5.93,5.93-5.93
					C504.96,70.69,507.61,73.35,507.61,76.62z"/>
				<circle class="st9" cx="449.82" cy="36.23" r="4.66"/>
				<circle class="st6" cx="577.6" cy="176.38" r="4.7"/>
				<path class="st6" d="M519.68,227.92c-0.85,0-1.53-0.69-1.53-1.53c0-0.85,0.69-1.53,1.53-1.53s1.53,0.69,1.53,1.53
					C521.22,227.24,520.53,227.92,519.68,227.92z"/>
				<path class="st6" d="M556.52,239.19c0,2.02-1.64,3.66-3.66,3.66c-2.02,0-3.66-1.64-3.66-3.66c0-2.02,1.64-3.66,3.66-3.66
					C554.88,235.53,556.52,237.17,556.52,239.19z"/>
				<path class="st6" d="M503.43,272.52c0,3.4-2.76,6.16-6.16,6.16s-6.16-2.76-6.16-6.16s2.76-6.16,6.16-6.16
					S503.43,269.12,503.43,272.52z"/>
				<path class="st6" d="M235.77,94.66c6.32-36.68-5.74-56.46-26.17-59.26c-17.66-2.42-7.26,16.23,0.9,25.36
					c-4.69-5.99-17.22-10.13-23.59-6.15c-9.86,6.17-0.17,20.54,5.22,25.61c8.35,7.85,23.08,9.07,31.63,16.73
					c4.28,3.83,8.12,9.07,8.78,14.05C234.33,103.57,235.54,95.9,235.77,94.66z"/>
				<path class="st8" d="M134.76,102.9c11.39-1.37,16.16-6.68,15.18-12.96c-0.85-5.43-5.43-0.71-7.41,2.51
					c1.35-1.92,1.47-5.98-0.27-7.51c-2.69-2.37-6.08,1.76-7.1,3.81c-1.58,3.16-0.64,7.62-2.14,10.82c-0.75,1.6-1.96,3.2-3.37,3.83
					C132,103.26,134.38,102.94,134.76,102.9z"/>
				<path class="st6" d="M93.99,287.39c-20.91-2.32-31.66,5.16-32.54,16.79c-0.76,10.05,9.41,3.54,14.27-1.37
					c-3.22,2.85-5.13,10.06-2.66,13.52c3.82,5.35,11.6-0.6,14.27-3.82c4.15-4.98,4.33-13.33,8.36-18.42
					c2.02-2.55,4.84-4.89,7.63-5.43C99.07,287.9,94.7,287.48,93.99,287.39z"/>
				<path class="st7" d="M93.38,104.05c-8.36-10.93-15.56-23.16-27.54-30.28C54.03,66.76,38.3,63.36,23.89,72.4
					c-9.87,6.19-7.64,20.88,4.54,24.51c9.08,2.7,20.45-5.32,29.48-6.37c6.68-0.78,12.04,0.63,17.91,2.42
					C82.49,94.98,89.56,100.1,93.38,104.05z"/>
				<path class="st7" d="M87.54,220.63c-8.27-2.27-16.46-5.62-25.08-4.64c-8.5,0.97-17.59,5.22-21.33,15.14
					c-2.56,6.79,4.08,13.24,11.49,10.44c5.52-2.08,8.14-10.35,12.22-14.28c3.02-2.91,6.21-4.23,9.8-5.56
					C78.72,220.23,84.16,220.11,87.54,220.63z"/>
				<path class="st8" d="M104.55,156.55c-6.81-5.75-13.07-12.5-21.64-15.33c-8.45-2.8-18.88-2.76-26.74,4.97
					c-5.38,5.29-1.93,14.28,6.28,14.88c6.12,0.45,12.2-6.21,17.77-8.13c4.12-1.42,7.71-1.27,11.68-0.96
					C96.4,152.32,101.59,154.58,104.55,156.55z"/>
				<path class="st9" d="M180.24,97.5c0,2.38,1.93,4.3,4.3,4.3c2.38,0,4.3-1.93,4.3-4.3c0-2.38-1.93-4.3-4.3-4.3
					C182.17,93.2,180.24,95.13,180.24,97.5z"/>
				<path class="st6" d="M107.13,35.93c0,3.27,2.65,5.93,5.93,5.93c3.27,0,5.93-2.65,5.93-5.93c0-3.27-2.65-5.93-5.93-5.93
					C109.78,30,107.13,32.65,107.13,35.93z"/>
				<circle class="st9" cx="279.07" cy="84.62" r="4.66"/>
				<path class="st6" d="M331.48,102.32c0,4.56,3.7,8.26,8.26,8.26c4.56,0,8.26-3.7,8.26-8.26c0-4.56-3.7-8.26-8.26-8.26
					C335.18,94.06,331.48,97.76,331.48,102.32z"/>
				<path class="st6" d="M35.3,190.74c0,2.59,2.1,4.7,4.7,4.7c2.59,0,4.7-2.1,4.7-4.7c0-2.59-2.1-4.7-4.7-4.7
					C37.4,186.04,35.3,188.14,35.3,190.74z"/>
				<path class="st9" d="M81.13,203.61c0.85,0,1.53-0.69,1.53-1.53c0-0.85-0.69-1.53-1.53-1.53c-0.85,0-1.53,0.69-1.53,1.53
					C79.59,202.92,80.28,203.61,81.13,203.61z"/>
				<path class="st6" d="M62.03,114.93c0,2.02,1.64,3.66,3.66,3.66c2.02,0,3.66-1.64,3.66-3.66s-1.64-3.66-3.66-3.66
					C63.67,111.26,62.03,112.9,62.03,114.93z"/>
				<circle class="st9" cx="52.55" cy="272.52" r="6.16"/>
			</g>
		</g>
	</g>
</g>
</svg>
