<?xml version="1.0" encoding="utf-8"?>
<!-- Generator: Adobe Illustrator 24.1.1, SVG Export Plug-In . SVG Version: 6.00 Build 0)  -->
<svg version="1.1" id="Layer_1" xmlns="http://www.w3.org/2000/svg" xmlns:xlink="http://www.w3.org/1999/xlink" x="0px" y="0px"
	 viewBox="0 0 50 50" style="enable-background:new 0 0 50 50;" xml:space="preserve">
<style type="text/css">
	.st0{opacity:0.3;}
	.st1{fill:#302E64;}
	.st2{fill:#46549A;}
	.st3{fill:#7185CC;}
</style>
<g>
	<g class="st0">
		<path d="M33.2,13.3c0,2.6-0.1,4.5-0.1,6.8c2.4,0,4.4-0.1,6.7-0.1h8.8v12.4h-8.8c-2.4,0-4.4-0.1-6.7-0.1c0,2.4,0.1,4.3,0.1,6.7v8.4
			H20.1V39c0-2.5,0.1-4.4,0.1-6.7c-2.4,0-4.3,0.1-6.7,0.1H4.7V20h8.8c2.5,0,4.4,0.1,6.7,0.1c0-2.3-0.1-4.3-0.1-6.8V5h13.1V13.3z"/>
	</g>
	<g>
		<g>
			<path class="st1" d="M31.1,11.9v6.8l14.2-1.1l1.4,1v12.6c0,0-13-0.1-15.4-0.1c0,2.4-0.1,4-0.1,6.5V46h-12l-2.4-1
				c0-2.5,0.2-13.9,0.2-13.9L3.9,31.2L1.4,30c0,0,2.9-9.1,3.4-11.4h7.8c2.5,0,4.4,0.1,6.7,0.1c0-2.3-0.1-4.3-0.1-6.8V3.6
				c2.3-0.5,10.7-1,10.7-1l1.3,1L31.1,11.9L31.1,11.9z"/>
		</g>
		<g>
			<path class="st2" d="M29.9,10.9c0,2.6-0.1,4.5-0.1,6.8c2.4,0,4.4-0.1,6.7-0.1h8.8V30h-8.8c-2.4,0-4.4-0.1-6.7-0.1
				c0,2.4,0.1,4.3,0.1,6.7V45H16.8v-8.4c0-2.5,0.1-4.4,0.1-6.7c-2.4,0-4.3,0.1-6.7,0.1H1.4V17.6h8.8c2.5,0,4.4,0.1,6.7,0.1
				c0-2.3-0.1-4.3-0.1-6.8V2.6h13.1V10.9z"/>
		</g>
	</g>
	<rect x="16.8" y="2.6" class="st3" width="1.2" height="16.2"/>
	<rect x="1.4" y="17.5" class="st3" width="16.2" height="1.2"/>
</g>
</svg>
