<?xml version="1.0" encoding="utf-8"?>
<!-- Generator: Adobe Illustrator 24.1.1, SVG Export Plug-In . SVG Version: 6.00 Build 0)  -->
<svg version="1.1" id="Layer_1" xmlns="http://www.w3.org/2000/svg" xmlns:xlink="http://www.w3.org/1999/xlink" x="0px" y="0px"
	 viewBox="0 0 50 50" style="enable-background:new 0 0 50 50;" xml:space="preserve">
<style type="text/css">
	.st0{opacity:0.3;}
	.st1{fill:#302E64;}
	.st2{fill:#46549A;}
	.st3{fill:#7185CC;}
</style>
<g>
	<g class="st0">
		<path d="M45.9,19.6v12.5H9.8l-3.1-1.3l0.5-10.5l37.2-2.1L45.9,19.6z"/>
	</g>
	<g>
		<g>
			<path class="st1" d="M43.1,17.3l1.4,1v12.6H6.7l-2.5-1.3c0,0,2.9-9.1,3.4-11.4L43.1,17.3z"/>
		</g>
		<g>
			<path class="st2" d="M43.1,17.3v12.4H4.1V17.3H43.1z"/>
		</g>
	</g>
	<rect x="4.1" y="17.3" class="st3" width="1.2" height="12.4"/>
</g>
<g>
	<circle class="st0" cx="23.9" cy="9.5" r="5.6"/>
	<circle class="st2" cx="23.3" cy="9" r="5.6"/>
	<path class="st1" d="M27.9,5.8c0.4,0.8,0.7,1.7,0.7,2.6c0,3.1-2.5,5.6-5.6,5.6c-1.9,0-3.6-1-4.6-2.4c0.9,1.8,2.8,3,5,3
		c3.1,0,5.6-2.5,5.6-5.6C28.9,7.8,28.5,6.7,27.9,5.8z"/>
	<path class="st3" d="M18.6,12.2c-0.4-0.8-0.7-1.7-0.7-2.6c0-3.1,2.5-5.6,5.6-5.6c1.9,0,3.6,1,4.6,2.4c-0.9-1.8-2.8-3-5-3
		c-3.1,0-5.6,2.5-5.6,5.6C17.6,10.2,18,11.3,18.6,12.2z"/>
</g>
<g>
	<circle class="st0" cx="23.9" cy="40.4" r="5.6"/>
	<circle class="st2" cx="23.3" cy="39.9" r="5.6"/>
	<path class="st1" d="M27.9,36.7c0.4,0.8,0.7,1.7,0.7,2.6c0,3.1-2.5,5.6-5.6,5.6c-1.9,0-3.6-1-4.6-2.4c0.9,1.8,2.8,3,5,3
		c3.1,0,5.6-2.5,5.6-5.6C28.9,38.7,28.5,37.6,27.9,36.7z"/>
	<path class="st3" d="M18.6,43.1c-0.4-0.8-0.7-1.7-0.7-2.6c0-3.1,2.5-5.6,5.6-5.6c1.9,0,3.6,1,4.6,2.4c-0.9-1.8-2.8-3-5-3
		c-3.1,0-5.6,2.5-5.6,5.6C17.6,41.1,18,42.2,18.6,43.1z"/>
</g>
</svg>
