<?xml version="1.0" encoding="utf-8"?>
<!-- Generator: Adobe Illustrator 24.1.1, SVG Export Plug-In . SVG Version: 6.00 Build 0)  -->
<svg version="1.1" id="Layer_1" xmlns="http://www.w3.org/2000/svg" xmlns:xlink="http://www.w3.org/1999/xlink" x="0px" y="0px"
	 viewBox="0 0 50 50" style="enable-background:new 0 0 50 50;" xml:space="preserve">
<style type="text/css">
	.st0{opacity:0.3;}
	.st1{fill:#302E64;}
	.st2{fill:#46549A;}
	.st3{fill:#7185CC;}
</style>
<g>
	<g class="st0">
		<path d="M22.5,11.9c1.8,1.8,3.1,3.3,4.8,4.9c1.7-1.7,3-3.1,4.7-4.8l6.2-6.2l8.7,8.7l-6.2,6.2c-1.7,1.7-3.1,3-4.8,4.7
			c1.7,1.7,3.1,2.9,4.8,4.7l5.9,5.9l-9.2,9.2l-5.9-5.9c-1.7-1.7-3-3.1-4.7-4.8c-1.7,1.7-2.9,3.1-4.7,4.8l-6.2,6.2l-8.7-8.7l6.2-6.2
			c1.7-1.7,3.1-3,4.8-4.7c-1.6-1.6-3.1-2.9-4.9-4.8l-5.9-5.9l9.2-9.2L22.5,11.9z"/>
	</g>
	<g>
		<g>
			<path class="st1" d="M20.1,11.4l4.8,4.8l9.2-10.8l1.7-0.3l8.9,8.9c0,0-9.3,9.1-10.9,10.8c1.7,1.7,2.8,2.9,4.5,4.6l5.9,5.9
				L35.7,44l-2.4,1c-1.7-1.7-9.6-10-9.6-10l-9.2,9.4l-2.7,0.9c0,0-4.4-8.4-5.7-10.4l5.5-5.5c1.7-1.7,3.1-3,4.8-4.7
				c-1.6-1.6-3.1-2.9-4.9-4.8L5.7,14c1.3-2,6.9-8.3,6.9-8.3l1.6-0.2L20.1,11.4z"/>
		</g>
		<g>
			<path class="st2" d="M18.5,11.6c1.8,1.8,3.1,3.3,4.8,4.9c1.7-1.7,3-3.1,4.7-4.8l6.2-6.2l8.7,8.7l-6.2,6.2c-1.7,1.7-3.1,3-4.8,4.7
				c1.7,1.7,3.1,2.9,4.8,4.7l5.9,5.9l-9.2,9.2L27.4,39c-1.7-1.7-3-3.1-4.7-4.8c-1.7,1.7-2.9,3.1-4.7,4.8l-6.2,6.2l-8.7-8.7l6.2-6.2
				c1.7-1.7,3.1-3,4.8-4.7c-1.6-1.6-3.1-2.9-4.9-4.8l-5.9-5.9l9.2-9.2L18.5,11.6z"/>
		</g>
	</g>
	
		<rect x="8.9" y="12.2" transform="matrix(0.7071 -0.7071 0.7071 0.7071 -11.5373 12.6466)" class="st3" width="1.2" height="16.2"/>
	
		<rect x="8.6" y="23.1" transform="matrix(-0.7071 -0.7071 0.7071 -0.7071 -6.3396 59.7042)" class="st3" width="1.2" height="16.2"/>
</g>
</svg>
